<svg id="Interactive_elements" data-name="Interactive elements" xmlns="http://www.w3.org/2000/svg" xmlns:xlink="http://www.w3.org/1999/xlink" viewBox="0 0 711.82 626.64"><defs><style>.cls-1,.cls-4,.cls-6{fill:none;}.cls-2{clip-path:url(#clip-path);}.cls-3{fill:#d5e8f2;}.cls-4,.cls-6{stroke:#a7a7a7;stroke-linecap:round;stroke-width:3.5px;}.cls-5{fill:#a7a7a7;}.cls-6{stroke-linejoin:round;}.cls-7{fill:#fff;}.cls-8{fill:#2e8bbd;}</style><clipPath id="clip-path" transform="translate(-4952.53 -8122.24)"><rect class="cls-1" x="4939.04" y="8111.77" width="738.78" height="637.49"/></clipPath></defs><title>cornerstones-4-benefits</title><g class="cls-2"><path class="cls-3" d="M5317.93,8129.66s-9.52-16.69-19,0l-343.83,602.53s-10.19,16.69,10.31,16.69h686.05s19.86,0,10.33-16.69Z" transform="translate(-4952.53 -8122.24)"/></g><path class="cls-4" d="M5199.12,8230.89s-84.58,45.63-138.81,136.51c-39.89,66.86-38.55,141.74-36.14,170.79" transform="translate(-4952.53 -8122.24)"/><polygon class="cls-5" points="63.38 410.88 71.46 413.36 78.85 409.26 73.03 428.41 63.38 410.88"/><path class="cls-6" d="M5450.09,8394.49c36.08-32.86,38.13-75.26,6.32-109.09" transform="translate(-4952.53 -8122.24)"/><polygon class="cls-5" points="513.45 161.75 505.67 165.04 502.63 172.93 494.79 154.53 513.45 161.75"/><circle class="cls-5" cx="478.51" cy="287.37" r="15.19"/><path class="cls-7" d="M5427.4,8414.59h2.9V8407q0-.56,0-1.17l-1.71,1.42a1.08,1.08,0,0,1-.33.19,1,1,0,0,1-.32.06,1,1,0,0,1-.48-0.12,1,1,0,0,1-.32-0.25l-1-1.35,4.71-4h2.65v12.79H5436v2.32h-8.61v-2.32Z" transform="translate(-4952.53 -8122.24)"/><path class="cls-7" d="M5427.4,8414.59h2.9V8407q0-.56,0-1.17l-1.71,1.42a1.08,1.08,0,0,1-.33.19,1,1,0,0,1-.32.06,1,1,0,0,1-.48-0.12,1,1,0,0,1-.32-0.25l-1-1.35,4.71-4h2.65v12.79H5436v2.32h-8.61v-2.32Z" transform="translate(-4952.53 -8122.24)"/><circle class="cls-5" cx="258.96" cy="501.66" r="15.19"/><path class="cls-3" d="M5211.77,8615.93a5.81,5.81,0,0,1,2,.32,4.46,4.46,0,0,1,1.47.86,3.61,3.61,0,0,1,.91,1.25,3.69,3.69,0,0,1,.31,1.5,4.91,4.91,0,0,1-.15,1.26,2.89,2.89,0,0,1-.43.94,2.69,2.69,0,0,1-.71.68,4.24,4.24,0,0,1-1,.47,3.35,3.35,0,0,1,2.51,3.41,4.71,4.71,0,0,1-.44,2.09,4.31,4.31,0,0,1-1.17,1.48,5,5,0,0,1-1.7.89,6.82,6.82,0,0,1-2,.3,7.19,7.19,0,0,1-1.92-.23,4.42,4.42,0,0,1-1.49-.73,4.8,4.8,0,0,1-1.15-1.26,8.43,8.43,0,0,1-.86-1.83l1.43-.58a1.53,1.53,0,0,1,.37-0.11,2.14,2.14,0,0,1,.36,0,1.33,1.33,0,0,1,.6.13,0.88,0.88,0,0,1,.4.38,3.77,3.77,0,0,0,1,1.25,2,2,0,0,0,1.23.39,2.25,2.25,0,0,0,.94-0.18,2,2,0,0,0,.66-0.47,1.94,1.94,0,0,0,.4-0.65,2.11,2.11,0,0,0,.13-0.74,5.2,5.2,0,0,0-.07-0.88,1.15,1.15,0,0,0-.38-0.67,2.14,2.14,0,0,0-.94-0.43,7.92,7.92,0,0,0-1.75-.15v-2.22a6.5,6.5,0,0,0,1.52-.14,2.34,2.34,0,0,0,.9-0.4,1.21,1.21,0,0,0,.42-0.62,2.91,2.91,0,0,0,.1-0.8,2,2,0,0,0-.43-1.37,1.67,1.67,0,0,0-1.31-.48,2,2,0,0,0-.66.1,2,2,0,0,0-.54.28,1.86,1.86,0,0,0-.41.42,2.17,2.17,0,0,0-.27.52,1.5,1.5,0,0,1-.42.67,1.06,1.06,0,0,1-.69.21h-0.22l-0.24,0-1.7-.3a5.68,5.68,0,0,1,.64-2,4.65,4.65,0,0,1,2.77-2.23A6.64,6.64,0,0,1,5211.77,8615.93Z" transform="translate(-4952.53 -8122.24)"/><path class="cls-7" d="M5211.77,8615.93a5.81,5.81,0,0,1,2,.32,4.46,4.46,0,0,1,1.47.86,3.61,3.61,0,0,1,.91,1.25,3.69,3.69,0,0,1,.31,1.5,4.91,4.91,0,0,1-.15,1.26,2.89,2.89,0,0,1-.43.94,2.69,2.69,0,0,1-.71.68,4.24,4.24,0,0,1-1,.47,3.35,3.35,0,0,1,2.51,3.41,4.71,4.71,0,0,1-.44,2.09,4.31,4.31,0,0,1-1.17,1.48,5,5,0,0,1-1.7.89,6.82,6.82,0,0,1-2,.3,7.19,7.19,0,0,1-1.92-.23,4.42,4.42,0,0,1-1.49-.73,4.8,4.8,0,0,1-1.15-1.26,8.43,8.43,0,0,1-.86-1.83l1.43-.58a1.53,1.53,0,0,1,.37-0.11,2.14,2.14,0,0,1,.36,0,1.33,1.33,0,0,1,.6.13,0.88,0.88,0,0,1,.4.38,3.77,3.77,0,0,0,1,1.25,2,2,0,0,0,1.23.39,2.25,2.25,0,0,0,.94-0.18,2,2,0,0,0,.66-0.47,1.94,1.94,0,0,0,.4-0.65,2.11,2.11,0,0,0,.13-0.74,5.2,5.2,0,0,0-.07-0.88,1.15,1.15,0,0,0-.38-0.67,2.14,2.14,0,0,0-.94-0.43,7.92,7.92,0,0,0-1.75-.15v-2.22a6.5,6.5,0,0,0,1.52-.14,2.34,2.34,0,0,0,.9-0.4,1.21,1.21,0,0,0,.42-0.62,2.91,2.91,0,0,0,.1-0.8,2,2,0,0,0-.43-1.37,1.67,1.67,0,0,0-1.31-.48,2,2,0,0,0-.66.1,2,2,0,0,0-.54.28,1.86,1.86,0,0,0-.41.42,2.17,2.17,0,0,0-.27.52,1.5,1.5,0,0,1-.42.67,1.06,1.06,0,0,1-.69.21h-0.22l-0.24,0-1.7-.3a5.68,5.68,0,0,1,.64-2,4.65,4.65,0,0,1,2.77-2.23A6.64,6.64,0,0,1,5211.77,8615.93Z" transform="translate(-4952.53 -8122.24)"/><circle class="cls-8" cx="439.78" cy="501.66" r="15.19"/><path class="cls-3" d="M5396.17,8625.33h1.56v1.8a0.58,0.58,0,0,1-.62.59h-0.93v3.47h-2.8v-3.47h-6.08a0.87,0.87,0,0,1-.54-0.19,0.79,0.79,0,0,1-.31-0.47l-0.33-1.59,7-9.39h3.07v9.24Zm-2.8-3.94q0-.36,0-0.78t0.08-.87l-4,5.59h3.89v-3.94Z" transform="translate(-4952.53 -8122.24)"/><path class="cls-7" d="M5396.17,8625.33h1.56v1.8a0.58,0.58,0,0,1-.62.59h-0.93v3.47h-2.8v-3.47h-6.08a0.87,0.87,0,0,1-.54-0.19,0.79,0.79,0,0,1-.31-0.47l-0.33-1.59,7-9.39h3.07v9.24Zm-2.8-3.94q0-.36,0-0.78t0.08-.87l-4,5.59h3.89v-3.94Z" transform="translate(-4952.53 -8122.24)"/><circle class="cls-5" cx="478.51" cy="138.64" r="15.19"/><path class="cls-7" d="M5431,8252.91a5.86,5.86,0,0,1,2,.33,4.53,4.53,0,0,1,1.53.91,3.91,3.91,0,0,1,1,1.38,4.53,4.53,0,0,1,.34,1.77,4.85,4.85,0,0,1-.23,1.53,6,6,0,0,1-.64,1.34,9.34,9.34,0,0,1-.94,1.23q-0.53.6-1.14,1.21l-3,3a10.74,10.74,0,0,1,1.13-.26,6,6,0,0,1,1-.1H5435a1.14,1.14,0,0,1,.82.29,1,1,0,0,1,.3.75v1.87h-10.62v-1a1.89,1.89,0,0,1,.12-0.64,1.55,1.55,0,0,1,.44-0.62l4.35-4.39a14.38,14.38,0,0,0,1-1.07,6.63,6.63,0,0,0,.68-1,4.56,4.56,0,0,0,.4-1,3.93,3.93,0,0,0,.13-1,2,2,0,0,0-.43-1.38,1.67,1.67,0,0,0-1.31-.48,2,2,0,0,0-.66.1,2,2,0,0,0-.54.28,1.86,1.86,0,0,0-.41.42,2.19,2.19,0,0,0-.27.52,1.51,1.51,0,0,1-.42.67,1.06,1.06,0,0,1-.69.21h-0.22l-0.24,0-1.7-.3a5.66,5.66,0,0,1,.64-2,4.65,4.65,0,0,1,2.77-2.23A6.64,6.64,0,0,1,5431,8252.91Z" transform="translate(-4952.53 -8122.24)"/><path class="cls-7" d="M5431,8252.91a5.86,5.86,0,0,1,2,.33,4.53,4.53,0,0,1,1.53.91,3.91,3.91,0,0,1,1,1.38,4.53,4.53,0,0,1,.34,1.77,4.85,4.85,0,0,1-.23,1.53,6,6,0,0,1-.64,1.34,9.34,9.34,0,0,1-.94,1.23q-0.53.6-1.14,1.21l-3,3a10.74,10.74,0,0,1,1.13-.26,6,6,0,0,1,1-.1H5435a1.14,1.14,0,0,1,.82.29,1,1,0,0,1,.3.75v1.87h-10.62v-1a1.89,1.89,0,0,1,.12-0.64,1.55,1.55,0,0,1,.44-0.62l4.35-4.39a14.38,14.38,0,0,0,1-1.07,6.63,6.63,0,0,0,.68-1,4.56,4.56,0,0,0,.4-1,3.93,3.93,0,0,0,.13-1,2,2,0,0,0-.43-1.38,1.67,1.67,0,0,0-1.31-.48,2,2,0,0,0-.66.1,2,2,0,0,0-.54.28,1.86,1.86,0,0,0-.41.42,2.19,2.19,0,0,0-.27.52,1.51,1.51,0,0,1-.42.67,1.06,1.06,0,0,1-.69.21h-0.22l-0.24,0-1.7-.3a5.66,5.66,0,0,1,.64-2,4.65,4.65,0,0,1,2.77-2.23A6.64,6.64,0,0,1,5431,8252.91Z" transform="translate(-4952.53 -8122.24)"/><path class="cls-4" d="M5231.84,8650.3s21,17.79,69.36,17.79c27.67,0,48.08-8.13,59.55-14.27" transform="translate(-4952.53 -8122.24)"/><polygon class="cls-5" points="407.13 541.13 405.9 532.77 399.02 527.85 418.81 524.88 407.13 541.13"/></svg>