<svg id="Interactive_elements" data-name="Interactive elements" xmlns="http://www.w3.org/2000/svg" viewBox="0 0 170.39 41.76"><defs><style>.cls-1{fill:#ffca00;}.cls-2{fill:#fff;}</style></defs><title>print-button-rollover</title><rect class="cls-1" width="170.39" height="41.76"/><path class="cls-2" d="M7409.55,8737.32v5.14h-2.1v-14.7h4.7c2.73,0,5.12.63,5.12,4.58s-2.58,5-4.54,5h-3.19Zm0-7.77v6h2.81c2,0,2.83-1.13,2.83-3.11s-0.84-2.88-3.42-2.88h-2.23Z" transform="translate(-7387.66 -8714.22)"/><path class="cls-2" d="M7424.92,8733.87h-0.65a3.13,3.13,0,0,0-2.35,1.32v7.26h-2v-10.29h1.55l0.23,1.7c1.24-1.41,2.23-2.08,3.49-2.08h0.17Z" transform="translate(-7387.66 -8714.22)"/><path class="cls-2" d="M7427.64,8729.86v-2.1h1.89v2.1h-1.89Zm0,12.6v-10.29h1.89v10.29h-1.89Z" transform="translate(-7387.66 -8714.22)"/><path class="cls-2" d="M7440.34,8742.46v-5.67c0-2.18-.73-3.15-2.69-3.15a3.11,3.11,0,0,0-2.81,1.34v7.47H7433v-10.29h1.47l0.21,1.09a4.79,4.79,0,0,1,3.4-1.3c3,0,4.2,1.87,4.2,4.83v5.67h-1.89Z" transform="translate(-7387.66 -8714.22)"/><path class="cls-2" d="M7450.54,8742.67h-1.7a2.38,2.38,0,0,1-2.69-2.46v-6.57h-1.76l0.17-1.47h1.6v-2.54l1.89-.19v2.73h2.71v1.47H7448v5.42c0,2,.13,2.1,2.16,2.1h0.48Z" transform="translate(-7387.66 -8714.22)"/><path class="cls-2" d="M7454.51,8744.25h-2.1l7.94-16.48h2.1Z" transform="translate(-7387.66 -8714.22)"/><path class="cls-2" d="M7467.54,8737.32v5.14h-2.1v-14.7h4.7c2.73,0,5.12.63,5.12,4.58s-2.58,5-4.54,5h-3.19Zm0-7.77v6h2.81c2,0,2.83-1.13,2.83-3.11s-0.84-2.88-3.42-2.88h-2.23Z" transform="translate(-7387.66 -8714.22)"/><path class="cls-2" d="M7478.2,8742.46v-14.7h5.44c4.26,0,7.31,2.71,7.31,7.35s-3,7.35-7.31,7.35h-5.44Zm2-12.89v11.09h3.44c3.36,0,5.12-2.25,5.12-5.54s-1.76-5.54-5.12-5.54h-3.44Z" transform="translate(-7387.66 -8714.22)"/><path class="cls-2" d="M7496.39,8729.57v4.3h5.38v1.81h-5.37v6.78h-2v-14.7h9v1.81h-7Z" transform="translate(-7387.66 -8714.22)"/><path class="cls-2" d="M7535.9,8728.74h-2.74v-0.36a0.41,0.41,0,0,0-.11-0.28L7532,8727a0.41,0.41,0,0,0-.29-0.12H7523a0.41,0.41,0,0,0-.41.4v1.49h-2.75a1.68,1.68,0,0,0-1.68,1.68v7.06a1.68,1.68,0,0,0,1.68,1.68h2.72v4.75a0.4,0.4,0,0,0,.41.41h9.77a0.4,0.4,0,0,0,.41-0.4v-4.75h2.76a1.68,1.68,0,0,0,1.68-1.68v-7.06A1.68,1.68,0,0,0,7535.9,8728.74Zm-12.09-.85H7531l1,1v2h-8.26v-3Zm8.2,15.38h-8.31v-6.44H7532v6.43Zm4.22-5.79a0.33,0.33,0,0,1-.33.33h-2.76v-2.16h-10.58v2.16h-2.72a0.33,0.33,0,0,1-.33-0.33v-7.06a0.33,0.33,0,0,1,.33-0.33h2.75v1.47a0.39,0.39,0,0,0,0,.13,0.4,0.4,0,0,0,.1.16,0.41,0.41,0,0,0,.29.12h0l9.72,0h0a0.41,0.41,0,0,0,.39-0.4v-1.49h2.75a0.33,0.33,0,0,1,.33.33v7.06Zm-11.58.74a0.36,0.36,0,0,1,.36-0.36h5.74a0.36,0.36,0,1,1,0,.71H7525A0.36,0.36,0,0,1,7524.65,8738.22Zm0,1.83a0.36,0.36,0,0,1,.36-0.36h5.74a0.36,0.36,0,1,1,0,.71H7525A0.36,0.36,0,0,1,7524.65,8740.05Zm0,1.83a0.36,0.36,0,0,1,.36-0.36h5.74a0.36,0.36,0,1,1,0,.71H7525A0.36,0.36,0,0,1,7524.65,8741.88Z" transform="translate(-7387.66 -8714.22)"/></svg>