<svg id="Interactive_elements" data-name="Interactive elements" xmlns="http://www.w3.org/2000/svg" viewBox="0 0 270.81 208.99"><defs><style>.cls-1{fill:#fe961c;}</style></defs><title>talk-bubble-orange</title><path class="cls-1" d="M10832.3,2612.55c-12.44-79.85,61.23-111.85,112.5-117.4,39.68-4.3,138.7,6.09,151.43,75.52,15.64,85.28-57.64,132.64-111.52,132.64C10930.09,2703.3,10845.4,2696.63,10832.3,2612.55Z" transform="translate(-10830.9 -2494.32)"/><path class="cls-1" d="M11057.28,2654.12a75.24,75.24,0,0,0,21,17.12c7.15,4.07,14.8,7.3,22.17,11,2,1,1.44,4.32-.93,4.78-10.64,2.07-21.73,1.06-32.21.05-11.43-1.1-22.75-2.79-34-4.55C11029.91,2682,11056.39,2653,11057.28,2654.12Z" transform="translate(-10830.9 -2494.32)"/></svg>