<svg id="Interactive_elements" data-name="Interactive elements" xmlns="http://www.w3.org/2000/svg" viewBox="0 0 271.49 221.96"><defs><style>.cls-1{fill:#c53a43;}</style></defs><title>talk-bubble-red</title><path class="cls-1" d="M10139.7,2965.06c-76-9.62-127.39-43.08-111.72-120.66,12.76-63.16,80.37-83.76,147.15-80,40.86,2.28,126.55,27.36,121.29,105.29C10291.18,2947.36,10215.66,2974.67,10139.7,2965.06Z" transform="translate(-10025.17 -2763.94)"/><path class="cls-1" d="M10088.18,2941.18a71.66,71.66,0,0,1-8.46,22.8c-3.57,6.36-7.86,12.27-11.76,18.42a2.32,2.32,0,0,0,2.6,3.39c8.6-3,16.28-8.67,23.52-14.06,7.9-5.88,15.47-12.18,23-18.51C10119.37,2951.3,10088.4,2939.94,10088.18,2941.18Z" transform="translate(-10025.17 -2763.94)"/></svg>