<svg id="Interactive_elements" data-name="Interactive elements" xmlns="http://www.w3.org/2000/svg" viewBox="0 0 116.8 116.8"><defs><style>.cls-1{fill:#fff;}.cls-2{fill:#c53a43;}</style></defs><title>countdown-10</title><circle class="cls-1" cx="58.4" cy="58.4" r="58.4"/><path class="cls-2" d="M2267.06,12832.51a56.21,56.21,0,0,0,19,25.11l29.75-40.95Z" transform="translate(-2261.07 -12754.21)"/><path class="cls-2" d="M2323.13,12816.67l29.75,40.95a56.21,56.21,0,0,0,19-25.11Z" transform="translate(-2261.07 -12754.21)"/><path class="cls-2" d="M2372.8,12829.86a56.1,56.1,0,0,0,.76-32L2324,12814Z" transform="translate(-2261.07 -12754.21)"/><path class="cls-2" d="M2315.8,12811.34l-31-42.74a56.13,56.13,0,0,0-18.58,26.61Z" transform="translate(-2261.07 -12754.21)"/><path class="cls-2" d="M2265.37,12797.9a56.1,56.1,0,0,0,.76,32l48.81-15.86Z" transform="translate(-2261.07 -12754.21)"/><path class="cls-2" d="M2318.07,12818.31l-29.73,40.91a55.76,55.76,0,0,0,29.73,9.4v-50.31Z" transform="translate(-2261.07 -12754.21)"/><path class="cls-2" d="M2320.87,12818.31v50.31a55.76,55.76,0,0,0,29.73-9.4Z" transform="translate(-2261.07 -12754.21)"/><path class="cls-2" d="M2318.07,12809.7v-53.11a55.76,55.76,0,0,0-31.07,10.34Z" transform="translate(-2261.07 -12754.21)"/><path class="cls-2" d="M2372.76,12795.22a56.13,56.13,0,0,0-18.58-26.61l-31,42.74Z" transform="translate(-2261.07 -12754.21)"/><path class="cls-2" d="M2320.87,12809.7l31.07-42.77a55.76,55.76,0,0,0-31.07-10.34v53.11Z" transform="translate(-2261.07 -12754.21)"/><circle class="cls-1" cx="58.4" cy="58.4" r="43.59"/></svg>