<svg id="Interactive_elements" data-name="Interactive elements" xmlns="http://www.w3.org/2000/svg" viewBox="0 0 33.79 104.42"><defs><style>.cls-1{fill:#2e8bbd;}.cls-2,.cls-3{fill:#fff;}.cls-3{opacity:0.5;}</style></defs><title>opening</title><rect class="cls-1" width="33.79" height="104.42"/><path class="cls-2" d="M205.39,9417.67a4.74,4.74,0,1,1,5-4.73A4.64,4.64,0,0,1,205.39,9417.67Zm0-1.92c1.92,0,3.31-.95,3.31-2.81s-1.39-2.81-3.31-2.81-3.31.95-3.31,2.81S203.47,9415.75,205.39,9415.75Z" transform="translate(-187.79 -9323.84)"/><path class="cls-2" d="M207,9403.59h3.16v1.76h-9.6v-2.72c0-2.66.41-4.12,3-4.12a3.13,3.13,0,0,1,3.4,3.36v1.71Zm-5,0h3.33v-1.48c0-1.28-.44-1.81-1.74-1.81-1.1,0-1.59.38-1.59,1.85v1.44Z" transform="translate(-187.79 -9323.84)"/><path class="cls-2" d="M210.19,9396h-9.6v-6.15h1.7v4.35h2v-3.37H206v3.37h2.46v-4.49h1.7V9396Z" transform="translate(-187.79 -9323.84)"/><path class="cls-2" d="M210.19,9380.7l-6.58,4.39h6.58v1.76h-9.6v-1.73l6.2-4.1h-6.2v-1.76h9.6v1.44Z" transform="translate(-187.79 -9323.84)"/><path class="cls-2" d="M210.19,9375.88h-9.6v-1.76h9.6v1.76Z" transform="translate(-187.79 -9323.84)"/><path class="cls-2" d="M210.19,9364.61L203.6,9369h6.58v1.76h-9.6V9369l6.2-4.1h-6.2v-1.76h9.6v1.44Z" transform="translate(-187.79 -9323.84)"/><path class="cls-2" d="M205.37,9360.31a4.64,4.64,0,0,1-5-4.79,7.59,7.59,0,0,1,.56-2.88l1.67,0.19a7.72,7.72,0,0,0-.55,2.65c0,2,1.4,2.91,3.26,2.91s3.35-1,3.35-3a6.68,6.68,0,0,0-.15-1.32h-1.71v1.06h-1.45v-2.81h4.28a8,8,0,0,1,.73,3.29C210.38,9358.31,208.41,9360.31,205.37,9360.31Z" transform="translate(-187.79 -9323.84)"/><polygon class="cls-3" points="13.2 20.51 13.13 9.91 22.34 15.15 13.2 20.51"/></svg>