<svg id="Interactive_elements" data-name="Interactive elements" xmlns="http://www.w3.org/2000/svg" viewBox="0 0 59.82 58.75"><defs><style>.cls-1{fill:#c53a43;}</style></defs><title>icon_target</title><path class="cls-1" d="M897.42,5927.07l-2.61-.05,1.92-1.83a1.37,1.37,0,0,0,.33-1.51,1.33,1.33,0,0,0-.28-0.44,1.38,1.38,0,0,0-2,0L893,5925l0.15-5.69a1.38,1.38,0,1,0-2.76-.07l-0.23,8.46-1.46,1.39-0.37.35,0-.68,0.13-5a1.38,1.38,0,1,0-2.76-.07l-0.07,2.86-0.13,4.77a26,26,0,1,0,.4,38.31l0.17-.16,0.16-.16a26,26,0,0,0,2.75-34.16l-3.35,3.2a21.47,21.47,0,0,1,1.58,22,21.21,21.21,0,0,1-2.39,3.71l-0.24.3-0.14.18a21.47,21.47,0,0,1-3.23,3.08l-0.18.13-0.31.23a21.21,21.21,0,0,1-3.82,2.22,21.41,21.41,0,1,1,5.7-35.29l-4.21,4a15.57,15.57,0,1,0,3,3.5l-2.06,2a12.82,12.82,0,1,1-2.93-3.55l-5.28,5a5.65,5.65,0,1,0,2.59,3.88l-1.33,1.27-0.71.68a1.38,1.38,0,0,1-2.23-.49,1.37,1.37,0,0,0,.3-0.21l1.17-1.12,1.08-1,1-1,5.28-5,2-1.91,4.22-4,2.83-2.7,0.92,0,1.69,0,3.08,0.06,2.86,0.06a1.38,1.38,0,1,0,.06-2.76l-3.17-.07-1.83,0-0.77,0,0.42-.4,1.4-1.34,2.61,0.05,5.95,0.12a1.38,1.38,0,1,0,.06-2.76Z" transform="translate(-842.12 -5917.87)"/><path class="cls-1" d="M897.42,5927.07l-2.61-.05,1.92-1.83a1.37,1.37,0,0,0,.33-1.51,1.33,1.33,0,0,0-.28-0.44,1.38,1.38,0,0,0-2,0L893,5925l0.15-5.69a1.38,1.38,0,1,0-2.76-.07l-0.23,8.46-1.46,1.39-0.37.35,0-.68,0.13-5a1.38,1.38,0,1,0-2.76-.07l-0.07,2.86-0.13,4.77a26,26,0,1,0,.4,38.31l0.17-.16,0.16-.16a26,26,0,0,0,2.75-34.16l-3.35,3.2a21.47,21.47,0,0,1,1.58,22,21.21,21.21,0,0,1-2.39,3.71l-0.24.3-0.14.18a21.47,21.47,0,0,1-3.23,3.08l-0.18.13-0.31.23a21.21,21.21,0,0,1-3.82,2.22,21.41,21.41,0,1,1,5.7-35.29l-4.21,4a15.57,15.57,0,1,0,3,3.5l-2.06,2a12.82,12.82,0,1,1-2.93-3.55l-5.28,5a5.65,5.65,0,1,0,2.59,3.88l-1.33,1.27-0.71.68a1.38,1.38,0,0,1-2.23-.49,1.37,1.37,0,0,0,.3-0.21l1.17-1.12,1.08-1,1-1,5.28-5,2-1.91,4.22-4,2.83-2.7,0.92,0,1.69,0,3.08,0.06,2.86,0.06a1.38,1.38,0,1,0,.06-2.76l-3.17-.07-1.83,0-0.77,0,0.42-.4,1.4-1.34,2.61,0.05,5.95,0.12a1.38,1.38,0,1,0,.06-2.76Z" transform="translate(-842.12 -5917.87)"/></svg>