<svg id="Interactive_elements" data-name="Interactive elements" xmlns="http://www.w3.org/2000/svg" viewBox="0 0 236.47 289.71"><defs><style>.cls-1{fill:#f37573;}.cls-2{fill:#88252b;}.cls-3{fill:#c53a43;}.cls-4{fill:none;stroke:#c53a43;stroke-miterlimit:10;}</style></defs><title>affadavit</title><path class="cls-1" d="M4440.58,3046.86l-2.3-6.47a99.73,99.73,0,0,0,3.74-15.52c0.18-1.44-.07-4.45-1.26-9.73-1.62-7.21,1.62-13.7-2.7-14.78-3.6-.9-4.89,4.87-5.07,4.15-0.73-2.93-2.14-9.61-2.52-11.43-1.5-7.31-3.56-14.43-7.31-14.06a4.06,4.06,0,0,0-2.56,1.3s-0.48-3.23-3.07-4.11a3.88,3.88,0,0,0-4.71,2.53c-0.66,2.64-.16,3.68-0.16,3.68s-1.26-2.21-4.68-.77c-2.89,1.22-1.12,10.12-1.12,10.12s-3.61-1.58-4.87,1.12c-1.62,3.46,2.12,20.33,2.44,23.62s0.57,9.59,4.12,15.93c3,5.36,3.85,7.53,6.41,9.88s6.25,11.46,6.25,11.46Z" transform="translate(-4401.58 -2823.88)"/><path class="cls-1" d="M4511.66,3007.32s19.81-9.9,35.21-9.9,41,8.3,41,8.3-2.53,22.51-28.94,24.71S4511.66,3007.32,4511.66,3007.32Z" transform="translate(-4401.58 -2823.88)"/><path class="cls-1" d="M4505.49,3030.09c5.54,10.29,28.63-13.22,21-53.47-1.37-7.25-49.55-62.54-42.4-105.48s14.31-28.63,53.67-26.84,85.88-17.89,69.77,42.94c-10,37.6-17.68,58.76-24.66,71.1-4.31,7.63-9.8,11.33-11,15.14-12.52,41.15,19.53,56.88,19.53,56.88Z" transform="translate(-4401.58 -2823.88)"/><path class="cls-2" d="M4552.56,2826c-14.81-.3-28.83-6.18-47,3-43,21.68-45.69,86.26-26.55,117.35,2,3.19,8.47,12.27,9.37,15.66,2.94,11.12-9.13,14.59-7.83,15.66,1,0.84,21.09-10.7,22.12-9.94,16.31,12,27.95,0,27.95,0s-9.94-6.9-14.24-12.16c-20.52-25.08-12.6-62.87-12.6-62.87l51.18-.2,7.41-12.26,7.39,12,22.54-.1s9.88,45.85-14.66,73c-8.41,9.3-5.22,13.57-5.22,13.57a34.54,34.54,0,0,0,17.23-1c9.15-2.94,6.88-11.41,8.06-12,1.39-.71,11.77,14.38,16,12.75,6.92-2.66-6.64-16.89-1.63-26.32,15.93-30,19.37-97.24-19.8-119.55C4581.59,2826.41,4569,2826.34,4552.56,2826Z" transform="translate(-4401.58 -2823.88)"/><path class="cls-3" d="M4520,3003.08s6.45,21.75,29.71,21.75,29.46-21.75,29.46-21.75,35.22,5.73,49,14c3.81,2.27,5.85,6.7,6.79,11.22,3.75,18.1,3,69.5,3,69.5h-30.41l-5.37-28.63-5.37,28.63h-96.25l-5.73-26.84-21.7,33.87-18.71-28.61s8.2-42.83,17.15-51.78S4520,3003.08,4520,3003.08Z" transform="translate(-4401.58 -2823.88)"/><path class="cls-3" d="M4475.35,3098.19s-1.1,15.4-19.81,15.4-26.41-20.91-26.41-20.91l-13.11-44,25.49-10.37Z" transform="translate(-4401.58 -2823.88)"/><path class="cls-4" d="M4433,3004.51a16.38,16.38,0,0,0-.82,4.8v7.11s-3.71-.31-5.56,1.85-2.47,8.35-2.47,8.35" transform="translate(-4401.58 -2823.88)"/></svg>