<svg id="Interactive_elements" data-name="Interactive elements" xmlns="http://www.w3.org/2000/svg" viewBox="0 0 430.09 338.04"><defs><style>.cls-1{fill:#e8f3fc;}.cls-2{fill:#c53a43;}.cls-3{fill:#f58f89;}.cls-4{fill:#999;}.cls-5{fill:#dcdcdc;}.cls-6{fill:#fff;}.cls-7{fill:#88252b;}.cls-8{fill:#c43c43;}.cls-9{fill:#777;}</style></defs><title>check-for-mic</title><circle class="cls-1" cx="188" cy="127.8" r="127.8"/><path class="cls-2" d="M2815.93,2930a30,30,0,0,0-1.82,2.71q-0.6,1.07-1.12,2.15c-0.56,1.16,0,1.49-1.13,2.58a12.26,12.26,0,0,0-1,2.16c-0.37,1-.74,1.94-1.14,2.89a12.07,12.07,0,0,1-.52,1.28,0.81,0.81,0,0,1-1.52-.54,14,14,0,0,1,1-3.8c0.19-.51.93-2.11,1.26-3,0.18-.47.19-0.59,0-0.7-0.44-.25-1-0.54-1.47-0.89a17,17,0,0,1-4.82-5.37,1.3,1.3,0,0,1-.18-0.74,1.5,1.5,0,0,1,1.57-1.24,0.8,0.8,0,0,1,.65.34c0.55,0.67,1,1.43,1.53,2.13a15.92,15.92,0,0,0,3.7,3.81,0.44,0.44,0,0,0,.62-0.19c0.17-.32.4-1,0.58-1.4a23.23,23.23,0,0,1,2-3.71,0.79,0.79,0,0,1,.83-0.39,1.36,1.36,0,0,1,1.31,1.27A1.23,1.23,0,0,1,2815.93,2930Z" transform="translate(-2530.66 -2869.25)"/><path class="cls-2" d="M2824,2938.39c-0.66,2.06-2.38,4.25-4.78,4.05a4.4,4.4,0,0,1-3.89-4.47,4.68,4.68,0,0,1,2.91-3.87,12.3,12.3,0,0,0,2.16-1.31,2,2,0,0,1,1.47-.55,1.45,1.45,0,0,1,1.3,1.1c0.4,1.29,1.11,2.82,1,4.16A3.79,3.79,0,0,1,2824,2938.39Zm-2-2.22c0-.1-0.11-0.18-0.24-0.07a1.09,1.09,0,0,1-.74.25,5.71,5.71,0,0,1-1.13-.6,1.59,1.59,0,0,0-.82.29,2.11,2.11,0,0,0-1.27,1.87,1.87,1.87,0,0,0,1.85,2.28,2.62,2.62,0,0,0,2.57-2.46A4,4,0,0,0,2822,2936.17Z" transform="translate(-2530.66 -2869.25)"/><path class="cls-2" d="M2835.69,2944.56c-1.51-.13-1.74-4.44-2.27-4.48a0.38,0.38,0,0,0-.26.24c-0.91,1.32-1.78,2.76-3.62,2.61-2.87-.24-3.11-3.35-2.92-5.62a20.63,20.63,0,0,1,.78-4.15,0.92,0.92,0,0,1,1-.51,1.22,1.22,0,0,1,1.28,1.14c0,0.1,0,.17,0,0.24a12.55,12.55,0,0,0-.6,2.79c-0.06.67-.06,3.56,0.85,3.64a1.21,1.21,0,0,0,.86-0.48,5.69,5.69,0,0,0,1.79-3.49c0-.19,0-0.38,0-0.58a1.27,1.27,0,0,1,1.45-.87,1.22,1.22,0,0,1,1.17,1c0.31,1.45.78,5.25,1.76,6.22a1.27,1.27,0,0,1,.45,1A1.67,1.67,0,0,1,2835.69,2944.56Z" transform="translate(-2530.66 -2869.25)"/><path class="cls-2" d="M2857.52,2938.58a1.18,1.18,0,0,1-1-.93,0.6,0.6,0,0,0-.62-0.37,16.65,16.65,0,0,0-5,1.17,3.34,3.34,0,0,0-2.37,2.11,0.41,0.41,0,0,0,0,.17c-0.11,1.27,2.14,2.57,3.13,2.87a4.79,4.79,0,0,0,1,.21c1,0.08,1.87-.44,2.85-0.36a0.88,0.88,0,0,1,.87.84,1.1,1.1,0,0,1-.89.82,8.51,8.51,0,0,1-3.48.65,4.52,4.52,0,0,1-1.11-.24c-2.34-.82-4.76-2.33-4.53-5.15l0-.29c0.45-2.71,3.18-3.37,5.44-4a19.7,19.7,0,0,1,4.89-.62,1.69,1.69,0,0,1,.34,0,1.54,1.54,0,0,1,1.57,1.7C2858.59,2937.78,2858.28,2938.64,2857.52,2938.58Z" transform="translate(-2530.66 -2869.25)"/><path class="cls-2" d="M2871.61,2947.33a0.71,0.71,0,0,1-.46-0.23c-1.43-1.3-1.73-2.84-2.11-4.63a0.65,0.65,0,0,0-.4-0.64,0.74,0.74,0,0,0-.5.22c-0.39.33-.73,0.68-1.12,1a15.21,15.21,0,0,1-3.47,2.24,3.88,3.88,0,0,1-1.91.39,2.69,2.69,0,0,1-2.32-3.06,2.57,2.57,0,0,1,.53-1.4,11.93,11.93,0,0,1,5.76-3.75,4.18,4.18,0,0,1,1.71-.31c1.05,0.09,1.27.88,1.66,0.91s0.51-.66,1.18-0.6a1.7,1.7,0,0,1,1.26,1.07c0.56,1.61-.4,4.66.72,6a1.3,1.3,0,0,0,.59.44,0.69,0.69,0,0,1,.35.75A1.74,1.74,0,0,1,2871.61,2947.33Zm-5.53-7.53a1.69,1.69,0,0,0-.67.23,10.89,10.89,0,0,0-3.53,2.4,0.55,0.55,0,0,0-.12.33,0.62,0.62,0,0,0,.67.63c0.67,0.06,2-1,2.6-1.39a5.7,5.7,0,0,1,.88-0.38l0.27-.07a0.37,0.37,0,0,0,.23-0.41C2866.43,2940.85,2866.49,2939.84,2866.08,2939.81Z" transform="translate(-2530.66 -2869.25)"/><path class="cls-2" d="M2882.84,2948.72a2,2,0,0,1-.73-0.23c-2.14-1.22-.82-4.29-1.45-5.66a1.12,1.12,0,0,0-.38-0.59,0.35,0.35,0,0,0-.28.15c-0.92.93-1,2.45-2.21,3.11a1.82,1.82,0,0,1-1,.28c-0.91-.08-1.34-1.25-1.27-2l0-.41a7.65,7.65,0,0,0-.75-4.23,0.72,0.72,0,0,1-.11-0.44,1.92,1.92,0,0,1,1.89-1.53,1.24,1.24,0,0,1,.59.19c0.8,0.53.48,3.1,0.67,4.06a0.45,0.45,0,0,0,.23.45,0.65,0.65,0,0,0,.38-0.23,8.32,8.32,0,0,0,1.53-2.38,0.69,0.69,0,0,1,.75-0.37,2.16,2.16,0,0,1,1.53,1,12.22,12.22,0,0,1,.69,4c0,0.56.06,2.46,0.56,2.77a1.13,1.13,0,0,1,.71,1A1.22,1.22,0,0,1,2882.84,2948.72Z" transform="translate(-2530.66 -2869.25)"/><path class="cls-2" d="M2897.07,2946.45a0.58,0.58,0,0,0-.66.45,3.24,3.24,0,0,0-.14.83c-0.09,1.05.2,2.14,0.12,3.19-0.06.67-.54,2.44-1.43,2.36a1.7,1.7,0,0,1-1-1.17,8.91,8.91,0,0,1-.53-4.24c0.1-1.17.34-2.36,0.45-3.55a11.34,11.34,0,0,0-.17-3.12,1.43,1.43,0,0,1,0-.34c0.12-1.39,2.66-2.11,3.81-2a3.9,3.9,0,0,1,3.53,4.06A4.3,4.3,0,0,1,2897.07,2946.45Zm0.07-5.08c-0.6-.05-0.74.49-0.78,1a10.12,10.12,0,0,0,0,1.81,0.16,0.16,0,0,0,.16.11,2,2,0,0,0,.53-0.05c0.71-.13,1.77-0.4,1.84-1.29S2897.9,2941.44,2897.14,2941.38Z" transform="translate(-2530.66 -2869.25)"/><path class="cls-2" d="M2905.9,2946.57c-0.1.62-.13,1.27-0.25,1.86a0.73,0.73,0,0,1-.89.6,1.29,1.29,0,0,1-1.19-1,9.68,9.68,0,0,1-.06-2.37c0.11-1.29.41-2.57,0.52-3.86a25.19,25.19,0,0,0-.89-7.13,1,1,0,0,1,0-.37c0.07-.81,1.15-1.08,1.85-1a1.09,1.09,0,0,1,1.19,1c0.06,2.1.37,4.17,0.33,6.29,0,0.82,0,1.61-.11,2.4C2906.25,2944.2,2906.07,2945.39,2905.9,2946.57Z" transform="translate(-2530.66 -2869.25)"/><path class="cls-2" d="M2918.7,2951.58c-1.51-.13-1.74-4.44-2.27-4.48a0.38,0.38,0,0,0-.26.24c-0.91,1.32-1.78,2.76-3.62,2.61-2.87-.24-3.11-3.35-2.92-5.62a20.61,20.61,0,0,1,.79-4.15,0.92,0.92,0,0,1,1-.52,1.22,1.22,0,0,1,1.28,1.14c0,0.1,0,.17,0,0.24a12.56,12.56,0,0,0-.6,2.79c-0.06.67-.06,3.56,0.85,3.64a1.21,1.21,0,0,0,.86-0.48,5.69,5.69,0,0,0,1.79-3.49c0-.19,0-0.38,0-0.58a1.27,1.27,0,0,1,1.45-.87,1.22,1.22,0,0,1,1.17,1c0.31,1.45.78,5.25,1.76,6.22a1.26,1.26,0,0,1,.45,1A1.67,1.67,0,0,1,2918.7,2951.58Z" transform="translate(-2530.66 -2869.25)"/><path class="cls-2" d="M2928.21,2956.44a4.48,4.48,0,0,1-3.56,1.6,4.69,4.69,0,0,1-3.93-4.21,2.71,2.71,0,0,1-.05-0.78,1,1,0,0,1,1-1.07c2,0.17-.63,3.51,2.62,3.79,2.63,0.22,4.4-3,4.59-5.3a20.73,20.73,0,0,0,0-3.37s0-.26-0.12-0.27c-0.41,0-2.07,2.86-4,2.7a2,2,0,0,1-.52-0.12,2.91,2.91,0,0,1-2.07-2.92c0.22-2.56,4.18-5,6.6-4.84a2.11,2.11,0,0,1,1.87,1.24,3.81,3.81,0,0,1,.45,2c0,0.57-.19,1.09-0.24,1.67-0.1,1.12,0,2.26-.12,3.39A10.16,10.16,0,0,1,2928.21,2956.44Zm-0.35-12.41a2,2,0,0,0-.59.19c-0.52.2-1,.44-1.57,0.66a2.1,2.1,0,0,0-1.23,1.68,0.69,0.69,0,0,0,.58.84,2.1,2.1,0,0,0,1.47-.89,12.48,12.48,0,0,0,1.54-2.23A0.22,0.22,0,0,0,2927.87,2944Z" transform="translate(-2530.66 -2869.25)"/><path class="cls-2" d="M2808.27,2955.64a3,3,0,0,1-.65,0,2.94,2.94,0,0,1-2.36-1.77,0.91,0.91,0,0,1-.12-0.52,1,1,0,0,1,1.24-.76c0.81,0.07,3.1,1,3,2A1.36,1.36,0,0,1,2808.27,2955.64Zm-0.59,11.54a1.34,1.34,0,0,1-1-.42,4.59,4.59,0,0,1-1.12-3c0-1.23.13-2.42,0.24-3.64l0.14-1.63a0.78,0.78,0,0,1,.91-0.79,1.64,1.64,0,0,1,1.5,1.6c-0.09,1.05-.49,2.05-0.57,3.08-0.19,2.27,1.57,3.38,1.51,4.05S2808.18,2967.21,2807.68,2967.17Z" transform="translate(-2530.66 -2869.25)"/><path class="cls-2" d="M2821.1,2962a5,5,0,0,1-3.76.89c-0.53,0-1-.14-1.55-0.18a0.41,0.41,0,0,0-.48.32,9.21,9.21,0,0,0,.3,3,4.37,4.37,0,0,1,.4,1.55,1.24,1.24,0,0,1-1.36,1c-1.89-.16-1.42-3.47-1.41-4.72a5.2,5.2,0,0,0-.23-1.51c-0.19-.64-1.94-0.69-1.83-2a1.12,1.12,0,0,1,1.39-1.11c0.19,0,.38.08,0.57,0.1s0.39,0,.38-0.16a26.36,26.36,0,0,1-.34-4.56,0.88,0.88,0,0,1,1.08-.82,1.88,1.88,0,0,1,1.78,1.69,1.28,1.28,0,0,1-.05.31,7.06,7.06,0,0,0-.42,1.84,12.84,12.84,0,0,0,0,2.14,0.43,0.43,0,0,0,.42.45c0.59,0.1,1.19.15,1.77,0.2a5.88,5.88,0,0,0,2.17-.08,1.77,1.77,0,0,1,.94-0.33,0.89,0.89,0,0,1,.68,1A1.43,1.43,0,0,1,2821.1,2962Z" transform="translate(-2530.66 -2869.25)"/><path class="cls-2" d="M2832.38,2957.68a3,3,0,0,1-.65,0,2.94,2.94,0,0,1-2.36-1.77,0.9,0.9,0,0,1-.12-0.52,1,1,0,0,1,1.24-.76c0.81,0.07,3.1,1,3,2A1.36,1.36,0,0,1,2832.38,2957.68Zm-0.59,11.54a1.34,1.34,0,0,1-1-.42,4.59,4.59,0,0,1-1.12-3c0-1.23.13-2.42,0.24-3.64l0.14-1.63a0.78,0.78,0,0,1,.91-0.79,1.64,1.64,0,0,1,1.5,1.6c-0.09,1.05-.49,2.05-0.57,3.08-0.19,2.27,1.57,3.38,1.51,4.05S2832.29,2969.26,2831.79,2969.21Z" transform="translate(-2530.66 -2869.25)"/><path class="cls-2" d="M2843.69,2971.5a2,2,0,0,1-.73-0.23c-2.14-1.22-.82-4.28-1.45-5.66a1.12,1.12,0,0,0-.38-0.59,0.35,0.35,0,0,0-.28.15c-0.92.93-1,2.45-2.21,3.11a1.82,1.82,0,0,1-1,.28c-0.91-.08-1.34-1.25-1.27-2l0-.41a7.65,7.65,0,0,0-.75-4.23,0.72,0.72,0,0,1-.11-0.44,1.92,1.92,0,0,1,1.89-1.53,1.23,1.23,0,0,1,.59.19c0.8,0.53.48,3.1,0.67,4.06a0.45,0.45,0,0,0,.23.45,0.65,0.65,0,0,0,.38-0.23,8.31,8.31,0,0,0,1.53-2.38,0.69,0.69,0,0,1,.75-0.37,2.15,2.15,0,0,1,1.53,1,12.2,12.2,0,0,1,.69,4c0,0.56.06,2.46,0.56,2.77a1.13,1.13,0,0,1,.71,1A1.22,1.22,0,0,1,2843.69,2971.5Z" transform="translate(-2530.66 -2869.25)"/><path class="cls-2" d="M2863.91,2965.62a5,5,0,0,1-3.76.89c-0.53,0-1-.14-1.55-0.18a0.41,0.41,0,0,0-.48.32,9.22,9.22,0,0,0,.3,3,4.37,4.37,0,0,1,.4,1.55,1.24,1.24,0,0,1-1.36,1c-1.89-.16-1.42-3.47-1.41-4.72a5.19,5.19,0,0,0-.23-1.51c-0.19-.64-1.94-0.69-1.83-2a1.12,1.12,0,0,1,1.39-1.11c0.19,0,.38.08,0.57,0.1s0.39,0,.37-0.16a26.4,26.4,0,0,1-.34-4.56,0.88,0.88,0,0,1,1.08-.82,1.88,1.88,0,0,1,1.78,1.69,1.25,1.25,0,0,1-.05.31,7.06,7.06,0,0,0-.42,1.84,12.87,12.87,0,0,0,0,2.15,0.43,0.43,0,0,0,.42.44c0.59,0.1,1.19.15,1.77,0.2a5.88,5.88,0,0,0,2.18-.08,1.76,1.76,0,0,1,.94-0.33,0.89,0.89,0,0,1,.68,1A1.43,1.43,0,0,1,2863.91,2965.62Z" transform="translate(-2530.66 -2869.25)"/><path class="cls-2" d="M2873.69,2968.69c-0.66,2.06-2.38,4.25-4.78,4.05a4.4,4.4,0,0,1-3.88-4.47,4.68,4.68,0,0,1,2.91-3.87,12.35,12.35,0,0,0,2.16-1.31,2,2,0,0,1,1.47-.55,1.45,1.45,0,0,1,1.3,1.1c0.4,1.29,1.11,2.82,1,4.16A3.79,3.79,0,0,1,2873.69,2968.69Zm-2-2.21c0-.1-0.11-0.18-0.23-0.07a1.09,1.09,0,0,1-.74.25,5.7,5.7,0,0,1-1.13-.6,1.6,1.6,0,0,0-.82.29,2.11,2.11,0,0,0-1.27,1.87,1.87,1.87,0,0,0,1.85,2.28,2.62,2.62,0,0,0,2.57-2.46A4,4,0,0,0,2871.71,2966.47Z" transform="translate(-2530.66 -2869.25)"/><path class="cls-2" d="M2893,2968.2c-1,1.65-2.08,3.2-3.17,4.67a48.73,48.73,0,0,0-4,6.07,1.49,1.49,0,0,1-1.23.64,0.63,0.63,0,0,1-.66-0.71,1.29,1.29,0,0,1,0-.26,18.72,18.72,0,0,1,2.78-4.94c0.25-.36.5-0.75,0.8-1.18s0.33-.43,0-0.67c-2.19-1.78-4.16-3.77-5-6.2a1.88,1.88,0,0,1-.09-0.39,1.48,1.48,0,0,1,1.4-1.18,1,1,0,0,1,.77.55,23.42,23.42,0,0,0,4,5.18c0.27,0.24.43,0.37,0.69,0.11a12,12,0,0,0,1.92-3.35,1,1,0,0,1,1-.74,1.43,1.43,0,0,1,1.19,1.35A3,3,0,0,1,2893,2968.2Z" transform="translate(-2530.66 -2869.25)"/><path class="cls-2" d="M2903.54,2971.22c-0.66,2.06-2.38,4.25-4.78,4.05a4.4,4.4,0,0,1-3.89-4.47,4.68,4.68,0,0,1,2.91-3.87,12.35,12.35,0,0,0,2.16-1.31,2,2,0,0,1,1.47-.55,1.45,1.45,0,0,1,1.3,1.1c0.4,1.29,1.11,2.82,1,4.16A3.79,3.79,0,0,1,2903.54,2971.22Zm-2-2.21c0-.1-0.11-0.18-0.23-0.07a1.09,1.09,0,0,1-.74.25,5.69,5.69,0,0,1-1.13-.6,1.59,1.59,0,0,0-.82.29,2.12,2.12,0,0,0-1.27,1.87,1.87,1.87,0,0,0,1.85,2.28,2.62,2.62,0,0,0,2.57-2.46A4,4,0,0,0,2901.56,2969Z" transform="translate(-2530.66 -2869.25)"/><path class="cls-2" d="M2915.27,2977.39c-1.51-.13-1.74-4.44-2.27-4.48a0.38,0.38,0,0,0-.26.24c-0.91,1.32-1.78,2.76-3.62,2.61-2.87-.24-3.11-3.35-2.92-5.62a20.61,20.61,0,0,1,.78-4.15,0.92,0.92,0,0,1,1-.52,1.22,1.22,0,0,1,1.28,1.14c0,0.1,0,.17,0,0.24a12.54,12.54,0,0,0-.6,2.79c-0.06.67-.06,3.56,0.85,3.64a1.21,1.21,0,0,0,.86-0.48,5.69,5.69,0,0,0,1.79-3.49c0-.19,0-0.38,0-0.58a1.27,1.27,0,0,1,1.45-.87,1.22,1.22,0,0,1,1.17,1c0.31,1.45.78,5.25,1.76,6.22a1.26,1.26,0,0,1,.45,1A1.67,1.67,0,0,1,2915.27,2977.39Z" transform="translate(-2530.66 -2869.25)"/><path class="cls-2" d="M2925.53,2971.17c-0.33,0-.6-0.27-0.94-0.3a0.65,0.65,0,0,0-.55.29c-1,1.28-1,3.07-1.73,4.5a1.24,1.24,0,0,1-1.21.64,1.06,1.06,0,0,1-1-.93c-0.18-1-.36-2-0.59-2.94s-1.18-2.29-1.09-3.37a1,1,0,0,1,1.22-1,1.33,1.33,0,0,1,.7.28,2.51,2.51,0,0,1,1.07,2.11c0,0.27,0,.56.07,0.83a0.15,0.15,0,0,0,.13.16,0.28,0.28,0,0,0,.23-0.2c0.72-1.14.21-2.51,2.09-2.79a3.91,3.91,0,0,1,.75,0c0.88,0.08,2,.57,1.86,1.6A1.09,1.09,0,0,1,2925.53,2971.17Z" transform="translate(-2530.66 -2869.25)"/><path class="cls-2" d="M2816.08,2994.63a0.78,0.78,0,0,1-.79-0.6l-0.07-.85a11,11,0,0,0-.77-2.62c-0.36-.9-0.25-1.92-0.56-2.75a0.34,0.34,0,0,0-.27-0.24,0.26,0.26,0,0,0-.25.15c-0.19.22-.33,0.48-0.49,0.71a12.08,12.08,0,0,1-1.65,1.83c-0.81.77-1.08,2-2,2.68a1.47,1.47,0,0,1-1.06.27,0.88,0.88,0,0,1-.95-0.75c0-.7,0-1.42,0-2.12,0-1.54,0-3.11,0-4.65,0-1.71,0-3.42.14-5.12l0-.36a13.62,13.62,0,0,1,.24-1.71,0.8,0.8,0,0,1,1-.66,1.64,1.64,0,0,1,1.57,1.41,0.83,0.83,0,0,1-.1.31,20,20,0,0,0-.57,3.85l0,0.31a40.33,40.33,0,0,0-.22,4.82c0,0.7.15,0.83,0.44,0.5,1.27-1.29,2.2-2.9,3.53-4.13a1.61,1.61,0,0,1,1.15-.55,1.31,1.31,0,0,1,1,.93,24,24,0,0,1,.85,3.28,29.44,29.44,0,0,0,1.32,4.28,1.52,1.52,0,0,1,.11.64A1.45,1.45,0,0,1,2816.08,2994.63Z" transform="translate(-2530.66 -2869.25)"/><path class="cls-2" d="M2830.48,2995.46a8.06,8.06,0,0,1-4.1.59,8.35,8.35,0,0,1-2.62-.61c-1.84-.76-4.26-2.07-4.06-4.39a6,6,0,0,1,.1-0.67c0.56-2.34,2-3.3,4.05-4.35a7.33,7.33,0,0,1,3.92-1c1.41,0.12,3.26,1,3.12,2.67a2.51,2.51,0,0,1-.91,1.68c-1.53,1.27-3.05,1.07-4.79,1.67a5.28,5.28,0,0,1-2,.31,1.36,1.36,0,0,1-.93-0.39c-0.09-.1-0.19-0.09-0.2.08-0.13,1.48,1.91,2.19,3,2.57a8.45,8.45,0,0,0,2.17.5,16.79,16.79,0,0,0,2.68-.09h0.19a0.75,0.75,0,0,1,.7.85A0.69,0.69,0,0,1,2830.48,2995.46Zm-2.31-8.29a6,6,0,0,0-.92.07,9.1,9.1,0,0,0-4.62,1.92c-0.16.2-.07,0.26,0.2,0.16,0.81-.2,1.61-0.25,2.46-0.37,0.61-.07,3.18-0.6,3.24-1.32A0.41,0.41,0,0,0,2828.17,2987.17Z" transform="translate(-2530.66 -2869.25)"/><path class="cls-2" d="M2845.28,2997.29a0.72,0.72,0,0,1-.46-0.23c-1.43-1.3-1.73-2.84-2.11-4.64a0.65,0.65,0,0,0-.4-0.64,0.74,0.74,0,0,0-.5.22c-0.39.33-.73,0.69-1.12,1a15.19,15.19,0,0,1-3.47,2.24,3.87,3.87,0,0,1-1.91.39,2.69,2.69,0,0,1-2.32-3.06,2.57,2.57,0,0,1,.53-1.4,11.93,11.93,0,0,1,5.76-3.75,4.18,4.18,0,0,1,1.71-.31c1.05,0.09,1.27.88,1.66,0.91s0.51-.65,1.18-0.6a1.7,1.7,0,0,1,1.26,1.07c0.56,1.61-.39,4.66.72,6a1.31,1.31,0,0,0,.59.44,0.69,0.69,0,0,1,.35.75A1.74,1.74,0,0,1,2845.28,2997.29Zm-5.53-7.53a1.72,1.72,0,0,0-.67.23,10.9,10.9,0,0,0-3.53,2.4,0.55,0.55,0,0,0-.12.33,0.62,0.62,0,0,0,.67.63c0.67,0.06,2-1,2.6-1.39a5.74,5.74,0,0,1,.88-0.38l0.27-.07a0.37,0.37,0,0,0,.23-0.41C2840.1,2990.81,2840.16,2989.8,2839.75,2989.77Z" transform="translate(-2530.66 -2869.25)"/><path class="cls-2" d="M2860.14,2997.34c-1.12-.09-1.71-1.18-2-2.15a11,11,0,0,0-.52-1.58,0.49,0.49,0,0,0-.43-0.28,0.39,0.39,0,0,0-.35.14c-0.24.27-.46,0.61-0.7,0.88a7.71,7.71,0,0,1-3.49,2.52,5.66,5.66,0,0,1-2.27.36,2.35,2.35,0,0,1-2.37-2.42,2.12,2.12,0,0,1,.54-1.21c2-2.21,4.86-3.39,7.57-4.63a0.76,0.76,0,0,0,.52-0.41,24.26,24.26,0,0,0-.18-4.18v-0.17a0.82,0.82,0,0,1,1-.71,1.08,1.08,0,0,1,.72.35,4.7,4.7,0,0,1,1.38,3.59c-0.12,2.3-.44,6.95,1.78,8.34a0.92,0.92,0,0,1,.59.72C2861.82,2997.15,2860.67,2997.39,2860.14,2997.34Zm-4-6.19a0.34,0.34,0,0,0-.15,0c-1.68.75-4.18,1.89-5.45,3.22a0.48,0.48,0,0,0-.12.3,0.48,0.48,0,0,0,.51.53,2.13,2.13,0,0,0,.66-0.09,10.27,10.27,0,0,0,4-2.87,2.58,2.58,0,0,0,.78-0.95A0.17,0.17,0,0,0,2856.11,2991.15Z" transform="translate(-2530.66 -2869.25)"/><path class="cls-2" d="M2867.71,2996.15a0.58,0.58,0,0,0-.66.45,3.22,3.22,0,0,0-.14.83c-0.09,1.05.2,2.14,0.12,3.19-0.06.67-.54,2.44-1.43,2.36a1.71,1.71,0,0,1-1-1.17,8.91,8.91,0,0,1-.53-4.24c0.1-1.17.34-2.36,0.45-3.55a11.34,11.34,0,0,0-.17-3.12,1.41,1.41,0,0,1,0-.34c0.12-1.39,2.66-2.11,3.81-2a3.9,3.9,0,0,1,3.53,4.06A4.3,4.3,0,0,1,2867.71,2996.15Zm0.07-5.08c-0.6-.05-0.74.49-0.78,1a10.12,10.12,0,0,0,0,1.81,0.16,0.16,0,0,0,.16.11,2,2,0,0,0,.53-0.05c0.71-.13,1.77-0.4,1.84-1.29S2868.54,2991.14,2867.77,2991.08Z" transform="translate(-2530.66 -2869.25)"/><path class="cls-2" d="M2883.35,3000.32a0.77,0.77,0,0,1-.79-0.6l-0.07-.85a11,11,0,0,0-.77-2.62c-0.36-.9-0.25-1.92-0.56-2.75a0.34,0.34,0,0,0-.27-0.24,0.26,0.26,0,0,0-.25.15c-0.19.23-.33,0.48-0.49,0.71a12.12,12.12,0,0,1-1.65,1.84c-0.81.77-1.08,2-2,2.68a1.47,1.47,0,0,1-1.06.27,0.88,0.88,0,0,1-.95-0.75c0-.7,0-1.42,0-2.12,0-1.54,0-3.11,0-4.65,0-1.71,0-3.42.14-5.12l0-.36a13.62,13.62,0,0,1,.24-1.71,0.8,0.8,0,0,1,1-.66,1.64,1.64,0,0,1,1.57,1.41,0.83,0.83,0,0,1-.1.3,20,20,0,0,0-.57,3.85l0,0.31a40.39,40.39,0,0,0-.22,4.82c0,0.7.15,0.83,0.44,0.5,1.27-1.29,2.2-2.9,3.53-4.13a1.61,1.61,0,0,1,1.16-.55,1.31,1.31,0,0,1,1,.93,23.94,23.94,0,0,1,.85,3.28,29.47,29.47,0,0,0,1.32,4.28,1.51,1.51,0,0,1,.11.64A1.45,1.45,0,0,1,2883.35,3000.32Z" transform="translate(-2530.66 -2869.25)"/><path class="cls-2" d="M2895.6,2996.64c-0.66,2.06-2.38,4.25-4.78,4.05a4.4,4.4,0,0,1-3.89-4.47,4.68,4.68,0,0,1,2.91-3.87A12.32,12.32,0,0,0,2892,2991a2,2,0,0,1,1.47-.55,1.45,1.45,0,0,1,1.3,1.1c0.4,1.29,1.11,2.82,1,4.16A3.79,3.79,0,0,1,2895.6,2996.64Zm-2-2.22c0-.1-0.11-0.18-0.23-0.07a1.09,1.09,0,0,1-.74.25,5.69,5.69,0,0,1-1.13-.6,1.6,1.6,0,0,0-.82.29,2.12,2.12,0,0,0-1.27,1.87,1.87,1.87,0,0,0,1.85,2.28,2.62,2.62,0,0,0,2.57-2.46A4,4,0,0,0,2893.62,2994.42Z" transform="translate(-2530.66 -2869.25)"/><path class="cls-2" d="M2905.77,3002.85a2,2,0,0,1-.73-0.23c-2.14-1.22-.82-4.28-1.45-5.66a1.13,1.13,0,0,0-.38-0.59,0.35,0.35,0,0,0-.28.15c-0.92.93-1,2.45-2.21,3.11a1.83,1.83,0,0,1-1,.28c-0.91-.08-1.34-1.25-1.27-2l0-.41a7.65,7.65,0,0,0-.75-4.23,0.72,0.72,0,0,1-.11-0.44,1.92,1.92,0,0,1,1.89-1.53,1.23,1.23,0,0,1,.59.19c0.8,0.52.48,3.1,0.67,4.05a0.45,0.45,0,0,0,.23.45,0.65,0.65,0,0,0,.38-0.23,8.32,8.32,0,0,0,1.53-2.38,0.69,0.69,0,0,1,.75-0.37,2.16,2.16,0,0,1,1.53,1,12.21,12.21,0,0,1,.69,4c0,0.56.06,2.46,0.56,2.77a1.13,1.13,0,0,1,.71,1A1.22,1.22,0,0,1,2905.77,3002.85Z" transform="translate(-2530.66 -2869.25)"/><path class="cls-2" d="M2919.92,3003a8.05,8.05,0,0,1-4.1.59,8.32,8.32,0,0,1-2.62-.61c-1.84-.76-4.26-2.07-4.06-4.39a5.81,5.81,0,0,1,.1-0.67c0.56-2.34,2-3.3,4.05-4.35a7.34,7.34,0,0,1,3.92-1c1.41,0.12,3.26,1,3.12,2.67a2.51,2.51,0,0,1-.91,1.68c-1.53,1.27-3.05,1.07-4.79,1.67a5.27,5.27,0,0,1-2,.31,1.37,1.37,0,0,1-.93-0.39c-0.09-.1-0.19-0.09-0.2.08-0.13,1.48,1.91,2.19,3,2.57a8.45,8.45,0,0,0,2.17.5,16.79,16.79,0,0,0,2.68-.09h0.19a0.75,0.75,0,0,1,.7.85A0.68,0.68,0,0,1,2919.92,3003Zm-2.31-8.29a5.94,5.94,0,0,0-.92.07,9.1,9.1,0,0,0-4.62,1.92c-0.16.2-.07,0.26,0.2,0.16,0.81-.2,1.61-0.25,2.46-0.37,0.61-.07,3.18-0.6,3.24-1.32A0.41,0.41,0,0,0,2917.61,2994.74Z" transform="translate(-2530.66 -2869.25)"/><path class="cls-2" d="M2844.49,3027.15a5.46,5.46,0,0,1-3.8,1.41,2.85,2.85,0,0,1-2.71-3,10.94,10.94,0,0,1,.67-2.26,0.6,0.6,0,0,1,.64-0.5,1.19,1.19,0,0,1,.92,1.33c0,0.53-.28,1-0.32,1.54s0.25,0.74.85,0.79c2,0.17,3.07-1,3.24-3l0-.26a18.83,18.83,0,0,0-1.19-7.28c-0.23-.74-0.5-1.46-0.73-2.21a1,1,0,0,1-.06-0.46,1.49,1.49,0,0,1,1.4-1.42,1.21,1.21,0,0,1,.65.3,3.67,3.67,0,0,0,1.31.71,1.18,1.18,0,0,1,.65,1.14c-0.07.84-1,.57-1,1.16a1.92,1.92,0,0,0,.08.51,21.2,21.2,0,0,1,.91,7.5A6.06,6.06,0,0,1,2844.49,3027.15Zm0.19-15.86a0.62,0.62,0,0,1-.46-0.23c-0.56-.84-0.14-0.86-1.08-1.71a0.54,0.54,0,0,1-.22-0.52,1.58,1.58,0,0,1,1.46-1.3c0.69,0.06,2,1.9,1.9,2.57A1.61,1.61,0,0,1,2844.68,3011.29Z" transform="translate(-2530.66 -2869.25)"/><path class="cls-2" d="M2860.48,3024.67a0.72,0.72,0,0,1-.46-0.23c-1.43-1.3-1.73-2.84-2.11-4.64a0.65,0.65,0,0,0-.4-0.64,0.74,0.74,0,0,0-.5.22c-0.39.33-.73,0.69-1.12,1a15.22,15.22,0,0,1-3.47,2.24,3.88,3.88,0,0,1-1.91.39,2.69,2.69,0,0,1-2.32-3.06,2.57,2.57,0,0,1,.53-1.4,11.93,11.93,0,0,1,5.76-3.75,4.18,4.18,0,0,1,1.71-.31c1.05,0.09,1.27.88,1.66,0.91s0.51-.66,1.18-0.6a1.7,1.7,0,0,1,1.26,1.07c0.56,1.61-.4,4.66.72,6a1.3,1.3,0,0,0,.59.44,0.69,0.69,0,0,1,.35.75A1.74,1.74,0,0,1,2860.48,3024.67Zm-5.53-7.53a1.71,1.71,0,0,0-.67.23,10.91,10.91,0,0,0-3.53,2.4,0.55,0.55,0,0,0-.12.33,0.62,0.62,0,0,0,.67.63c0.67,0.06,2-1,2.6-1.39a5.65,5.65,0,0,1,.88-0.38l0.27-.07a0.37,0.37,0,0,0,.23-0.41C2855.29,3018.19,2855.35,3017.18,2854.95,3017.14Z" transform="translate(-2530.66 -2869.25)"/><path class="cls-2" d="M2874.84,3018.32a1.18,1.18,0,0,1-1-.93,0.6,0.6,0,0,0-.62-0.37,16.64,16.64,0,0,0-5,1.17,3.34,3.34,0,0,0-2.37,2.11,0.41,0.41,0,0,0,0,.17c-0.11,1.27,2.14,2.57,3.13,2.87a4.85,4.85,0,0,0,1,.2c1,0.08,1.87-.44,2.85-0.36a0.88,0.88,0,0,1,.87.84,1.1,1.1,0,0,1-.89.82,8.51,8.51,0,0,1-3.48.65,4.57,4.57,0,0,1-1.11-.24c-2.34-.82-4.76-2.33-4.53-5.15l0-.29c0.45-2.71,3.18-3.37,5.44-4a19.68,19.68,0,0,1,4.89-.62,1.73,1.73,0,0,1,.34,0,1.54,1.54,0,0,1,1.57,1.7C2875.92,3017.52,2875.6,3018.39,2874.84,3018.32Z" transform="translate(-2530.66 -2869.25)"/><path class="cls-2" d="M2886.5,3024.85a6.35,6.35,0,0,1-1.52,0,16.55,16.55,0,0,1-3.68-1,2.59,2.59,0,0,0-.61-0.17,0.25,0.25,0,0,0-.31.24c0,0.57.73,1.63,0.69,2.06s-0.64.5-1,.47a1.71,1.71,0,0,1-1.47-.85,17.83,17.83,0,0,1-.94-5.43c0-1.78.16-3.58,0.12-5.36a7.19,7.19,0,0,0-1-4,0.89,0.89,0,0,1-.16-0.66,1.49,1.49,0,0,1,1.42-1.42,1.25,1.25,0,0,1,.68.27c1.77,1.23,1.05,3.51,1.19,5.33a19.47,19.47,0,0,1,0,2.36,14.43,14.43,0,0,0-.05,1.78c0,0.15,0,.31.21,0.33a0.54,0.54,0,0,0,.4-0.16c1-.78,3.07-2.7,4.41-2.59a1.4,1.4,0,0,1,0,2.72c-0.19,0-.33-0.1-0.52-0.12-0.57,0-2.29,1.44-2.85,1.83-0.2.13-.27,0.29-0.11,0.4a13.39,13.39,0,0,0,4.95,1.86,0.82,0.82,0,0,1,.83,1A1.08,1.08,0,0,1,2886.5,3024.85Z" transform="translate(-2530.66 -2869.25)"/><path class="cls-3" d="M2632.32,2940.41c-1.17-15.37-9.76-21.73-22.2-30.41-5.16-3.6-11.47-6-17.7-5.13-5.19.71-9.89,3.61-13.65,7.27-8.93,8.67-13.06,21.69-11.94,34.09s16.51,5.24,16.51,5.24c6.32,10.72,8.11,27.64,17.18,19.12,0.72-.68,2.36-0.73,4.49-0.46l-8.48,17.74a240.71,240.71,0,0,0,26-1c1.87-.2,3.93-0.54,5.14-2,1.54-1.84,1.06-4.72,2.38-6.72l-0.31-1.78c-1.84-2.52-3.35-4.29-3.49-7.4,2-.64,4.49-2.07,6.52-1.69,0.28-1.53.51-3.07,0.68-4.6,0.25-2.24,5.22-5,5.26-7.3S2632.49,2942.68,2632.32,2940.41Z" transform="translate(-2530.66 -2869.25)"/><rect class="cls-4" x="134.89" y="143.05" width="116.73" height="13.04"/><path class="cls-4" d="M2783.92,3022.83l0,3.15a7.18,7.18,0,0,1-1.77,4.3l-33.83,34.65a6.13,6.13,0,0,1-4.25,1.61l-121.71-9.18a5.36,5.36,0,0,1-3.75-2.31l-1.25-2.12" transform="translate(-2530.66 -2869.25)"/><polygon class="cls-5" points="130.06 67.09 130.1 146.85 253.26 151.57 253.26 62.3 130.06 67.09"/><polygon class="cls-6" points="247.96 145.27 135.4 141.55 135.37 79.15 247.96 76.09 247.96 145.27"/><polygon class="cls-5" points="215.39 191.2 86.68 183.68 129.97 148.76 253.26 153.58 215.39 191.2"/><path class="cls-4" d="M2783.7,2931.55l2,1.28a5,5,0,0,1,2,3.78v80.49a3.35,3.35,0,0,1-1.88,3.12l-1.88.61" transform="translate(-2530.66 -2869.25)"/><path class="cls-3" d="M2616.86,2978.49c-0.24,3.65-1.39,11.33-1.52,13.66-0.42,7.38,11.23,15.13,11.33,17.85,0.72,19.82-61.9,5.07-58.06-10.71,0.81-3.31,12.59-4.42,12.48-9.93-0.16-7.54,2.24-25.85,2.59-30.49,0.94-12.15,33.64,12.61,33.17,19.62" transform="translate(-2530.66 -2869.25)"/><path class="cls-7" d="M2621.69,2919.41c1.68-5.24,2.83-9.29,4.51-14.53a174.16,174.16,0,0,0-41.49-12.7,123.61,123.61,0,0,1-18.16,18.25c-2.18,1.78-4.5,3.57-5.73,6.11s-0.92,6.07,1.46,7.58c-8.34,1.57-9.46,13.43-8.6,18a26.85,26.85,0,0,0,3.8,9.52,53.61,53.61,0,0,0,7.71,8.82l13.67,13.5a3.37,3.37,0,0,0,3.34,1.25l10.7-.63a2.67,2.67,0,0,0,1.35-.32,2.76,2.76,0,0,0,.91-1.78,50.12,50.12,0,0,1,8.05-17.82,22.61,22.61,0,0,1-2.36-6.14,7.63,7.63,0,0,1,1.38-6.24,5.88,5.88,0,0,1,8.45-.14c0.94,1,1.8,2.57,3.19,2.45,1.78-.14,2-2.67,1.59-4.4a25.06,25.06,0,0,0-9.52-13.86C2610,2922.43,2616.19,2918.52,2621.69,2919.41Z" transform="translate(-2530.66 -2869.25)"/><path class="cls-2" d="M2574.25,2995.15s-0.29,1.9-10.6,1.47c-6.11-.26-13.5-1.58-19,5.46-2.18,2.8-7.23,14.46-9.74,28.7-2.57,14.57-4.28,48.16-4.28,48.16,36.4-.39,90.17.71,126.57,1.43,0.12-21-2.69-37.41-7.07-58-0.52-2.44-2.43-4.79-5.58-6.51-6.81-3.73-16.27-9.17-21-11.29C2611.09,3010.83,2574.1,3006.39,2574.25,2995.15Z" transform="translate(-2530.66 -2869.25)"/><path class="cls-7" d="M2583.09,2894.49a14.12,14.12,0,0,1,8.61-6.57,34.22,34.22,0,0,0-6,8.24,15,15,0,0,1,11.76-5.51,34.29,34.29,0,0,0-10.8,7.78,2.1,2.1,0,0,1-1.25-.6" transform="translate(-2530.66 -2869.25)"/><path class="cls-7" d="M2562.12,2924.27a18.25,18.25,0,0,0-12.17,14.85,45.27,45.27,0,0,1,8-8.65c-3,4.92-6,11.55-5.31,17.26,0.87-3.68,3.91-8,5.67-11.31,1-1.89,2.69-4,4.78-3.57" transform="translate(-2530.66 -2869.25)"/><path class="cls-8" d="M2731.43,2970l-0.32-.08a2.52,2.52,0,0,0-.55,0,1.92,1.92,0,0,0-.89.22,2,2,0,0,0-.64.54,2.42,2.42,0,0,0-.39.76,3,3,0,0,0-.14.86,3.48,3.48,0,0,0,.12.95,2.28,2.28,0,0,0,.36.76,1.7,1.7,0,0,0,.59.5,1.67,1.67,0,0,0,.8.18,1.59,1.59,0,0,0,.59-0.12,1.38,1.38,0,0,0,.44-0.3l0,0.3h0.71l0.05-6.34-0.77,0Zm-0.11.69,0.11,0.05,0,2.74a1.13,1.13,0,0,1-.91.48,1.07,1.07,0,0,1-.54-0.12,1.1,1.1,0,0,1-.38-0.34,1.55,1.55,0,0,1-.22-0.53,2.86,2.86,0,0,1-.07-0.68,2.39,2.39,0,0,1,.09-0.63,1.74,1.74,0,0,1,.26-0.55,1.36,1.36,0,0,1,.43-0.39,1.26,1.26,0,0,1,.61-0.16h0.23l0.23,0Z" transform="translate(-2530.66 -2869.25)"/><path class="cls-8" d="M2733.88,2968.14a0.46,0.46,0,0,0-.35.19,0.65,0.65,0,0,0-.15.42,0.61,0.61,0,0,0,.14.41,0.43,0.43,0,0,0,.35.17,0.46,0.46,0,0,0,.35-0.18,0.65,0.65,0,0,0,.15-0.42,0.62,0.62,0,0,0-.14-0.41A0.43,0.43,0,0,0,2733.88,2968.14Z" transform="translate(-2530.66 -2869.25)"/><polygon class="cls-8" points="202.78 105.26 203.56 105.25 203.59 100.66 202.81 100.68 202.78 105.26"/><path class="cls-8" d="M2738.74,2973.7a2.15,2.15,0,0,0-.69-0.21,6.39,6.39,0,0,0-.92-0.06,2.67,2.67,0,0,1-.72-0.07c-0.17-.06-0.16-0.14-0.16-0.16a0.19,0.19,0,0,1,.1-0.16,0.59,0.59,0,0,1,.23-0.09l0.26,0h0.29a2.51,2.51,0,0,0,.69-0.11,1.77,1.77,0,0,0,.6-0.31,1.56,1.56,0,0,0,.59-1.25,1.52,1.52,0,0,0-.09-0.56,1.61,1.61,0,0,0-.22-0.4l0.57-.63-0.5-.49-0.63.69a2,2,0,0,0-.45-0.14,2.42,2.42,0,0,0-1.17.07,1.86,1.86,0,0,0-.59.31,1.52,1.52,0,0,0-.59,1.23,1.48,1.48,0,0,0,.08.51,1.53,1.53,0,0,0,.2.38,1.3,1.3,0,0,0,.26.27l0.13,0.09a1.15,1.15,0,0,0-.36.22,0.63,0.63,0,0,0-.21.48,0.58,0.58,0,0,0,.11.37,0.75,0.75,0,0,0,.19.17,1.24,1.24,0,0,0-.56,1.08,1.15,1.15,0,0,0,.57,1.08,3.56,3.56,0,0,0,2.34.22,2.12,2.12,0,0,0,.65-0.29,1.49,1.49,0,0,0,.44-0.48,1.37,1.37,0,0,0,.17-0.68,1.4,1.4,0,0,0-.14-0.68A1.05,1.05,0,0,0,2738.74,2973.7Zm-2.74.72a1,1,0,0,1,.33-0.3,7.14,7.14,0,0,0,.78,0h0a5.75,5.75,0,0,1,.75,0,1.47,1.47,0,0,1,.46.13,0.48,0.48,0,0,1,.22.21,0.7,0.7,0,0,1,.06.31,0.67,0.67,0,0,1-.35.59,1.79,1.79,0,0,1-.95.24,2.93,2.93,0,0,1-.59,0,1.64,1.64,0,0,1-.46-0.15,0.82,0.82,0,0,1-.29-0.25,0.56,0.56,0,0,1-.1-0.34A0.82,0.82,0,0,1,2736,2974.41Zm0.09-3a0.87,0.87,0,0,1,.09-0.4,0.86,0.86,0,0,1,.24-0.29,1.12,1.12,0,0,1,.34-0.18,1.39,1.39,0,0,1,.8,0,1,1,0,0,1,.34.16,0.8,0.8,0,0,1,.23.28,0.83,0.83,0,0,1,.08.39,1,1,0,0,1-.1.45,0.85,0.85,0,0,1-.26.3,1.11,1.11,0,0,1-.36.17,1.35,1.35,0,0,1-.83,0,1,1,0,0,1-.32-0.21,0.92,0.92,0,0,1-.2-0.3A1,1,0,0,1,2736.09,2971.37Z" transform="translate(-2530.66 -2869.25)"/><polygon class="cls-8" points="209.55 105.17 210.33 105.16 210.37 100.52 209.58 100.54 209.55 105.17"/><path class="cls-8" d="M2740.65,2968a0.46,0.46,0,0,0-.35.19,0.67,0.67,0,0,0-.15.42,0.62,0.62,0,0,0,.14.42,0.43,0.43,0,0,0,.35.17,0.46,0.46,0,0,0,.35-0.18,0.66,0.66,0,0,0,.15-0.43,0.63,0.63,0,0,0-.14-0.41A0.42,0.42,0,0,0,2740.65,2968Z" transform="translate(-2530.66 -2869.25)"/><path class="cls-8" d="M2744.23,2973.52a1.4,1.4,0,0,1-.26.18,0.63,0.63,0,0,1-.29.07,0.36,0.36,0,0,1-.26-0.09,0.56,0.56,0,0,1-.09-0.4l0-2.84,1.09,0v-0.72l-1.08,0v-1.24l-0.77,0v1.24h-0.71v0.72h0.71l0,2.92a1.16,1.16,0,0,0,.26.84,1,1,0,0,0,.75.27,1.35,1.35,0,0,0,.57-0.11,2.19,2.19,0,0,0,.41-0.27l0,0-0.31-.6Z" transform="translate(-2530.66 -2869.25)"/><path class="cls-8" d="M2746.8,2969.54a2,2,0,0,0-.88.2,1.75,1.75,0,0,0-.62.58l0,0,0.55,0.42,0,0a1.28,1.28,0,0,1,.39-0.36,1,1,0,0,1,.5-0.14,0.74,0.74,0,0,1,.6.22,1.16,1.16,0,0,1,.2.78,5.15,5.15,0,0,0-.81.09,2.94,2.94,0,0,0-.82.28,1.87,1.87,0,0,0-.62.53,1.39,1.39,0,0,0-.26.84,1.54,1.54,0,0,0,.12.64,1.35,1.35,0,0,0,.33.46,1.34,1.34,0,0,0,.46.27,1.58,1.58,0,0,0,.54.09,1.54,1.54,0,0,0,.64-0.14,1.61,1.61,0,0,0,.44-0.3l0,0.33h0.71l0-3a1.86,1.86,0,0,0-.39-1.35A1.45,1.45,0,0,0,2746.8,2969.54Zm0.72,2.4v1.33a2.1,2.1,0,0,1-.43.31,1,1,0,0,1-.8.1,0.64,0.64,0,0,1-.24-0.13,0.71,0.71,0,0,1-.25-0.58,0.79,0.79,0,0,1,.17-0.52,1.12,1.12,0,0,1,.43-0.31,2.3,2.3,0,0,1,.58-0.15Z" transform="translate(-2530.66 -2869.25)"/><polygon class="cls-8" points="218.94 98.52 218.88 105.05 219.65 105.04 219.71 98.5 218.94 98.52"/><path class="cls-9" d="M2701,2975h0c-1.42-1.23-3.22-1.29-5.41-1.25l-6.39.11h-0.13V2975h0.88c1.28,0,1.6.26,1.61,1.22l-0.08,9c0,1-.37,1.24-1.64,1.26H2689v1.17h0.13l6.35,0.05c2.26,0,4.14-.07,5.67-1.52a8.29,8.29,0,0,0,2.1-5.48A7.83,7.83,0,0,0,2701,2975Zm-5.56,11.55h-2l0.1-11.59,2,0c3.8,0,5.42,1.69,5.4,5.65C2700.92,2984.77,2699.32,2986.54,2695.45,2986.54Z" transform="translate(-2530.66 -2869.25)"/><path class="cls-9" d="M2733.91,2986.42a2.19,2.19,0,0,1-1.7-.85l-2.92-3.5,2.2-1.91a2.72,2.72,0,0,1,2-.82h0.41v-1.26h-0.13l-5.37,0h-0.13v1.24h1a2.93,2.93,0,0,1,.69.05c0.14,0,.14.07,0.14,0.09a1.1,1.1,0,0,1-.5.67l-3,2.52,0.09-10.85v-0.14h-0.13l-3.56.07h-0.13V2973h0.62c1.07,0,1.32.2,1.34,0.94l-0.1,11.48c0,0.83-.06.93-1,1H2723v1.23h0.13l4.72,0H2728v-1.24h-0.43c-0.95,0-1-.1-1-1v-1.1l1.37-1.1,2.23,2.63a0.52,0.52,0,0,1,.18.33c0,0.07,0,.22-0.77.22H2729v1.25h0.13l5.07,0h0.13v-1.26h-0.41Z" transform="translate(-2530.66 -2869.25)"/><path class="cls-9" d="M2712.36,2979.77a3.49,3.49,0,0,0-1-1.15,4.24,4.24,0,0,0-2.6-.74c-2.69,0-4.52,2-4.55,5s1.78,5,4.47,5h0a3.8,3.8,0,0,0,4.09-3.4v0l0-.12h-1.35l0,0.1a2.55,2.55,0,0,1-2.65,2.11c-1.69,0-2.55-1.12-2.54-3.33h6.82V2983A6.51,6.51,0,0,0,2712.36,2979.77Zm-3.65-.66c1.52,0,2.22.82,2.28,2.75h-4.66C2706.49,2980.07,2707.32,2979.13,2708.7,2979.11Z" transform="translate(-2530.66 -2869.25)"/><path class="cls-9" d="M2741.52,2978.41a4.09,4.09,0,0,0-2.6-.78c-2.69,0-4.52,2.15-4.55,5.24s1.78,5.22,4.47,5.25h0c2.24,0,3.65-1.21,4.09-3.58v-0.05l0-.13h-1.35l0,0.11a2.58,2.58,0,0,1-2.65,2.21c-1.69,0-2.54-1.18-2.54-3.51h6.82V2983a7.25,7.25,0,0,0-.68-3.36A3.65,3.65,0,0,0,2741.52,2978.41Zm-2.64.51c1.52,0,2.22.87,2.28,2.9h-4.66C2736.66,2979.93,2737.49,2978.94,2738.88,2978.93Z" transform="translate(-2530.66 -2869.25)"/><path class="cls-9" d="M2751.94,2979.67a2.12,2.12,0,0,0-2.18-2.06,2.93,2.93,0,0,0-2.53,1.86v-1.53h-0.13l-3.29,0h-0.13v1.27h0.65c0.95,0,1,.11,1.05,1l0,5.28c0,0.91-.11,1-1.07,1h-0.65v1.29h0.13l5.37,0.05h0.13v-1.3h-1c-1,0-1-.15-1-1l0-2.28c0-2.88,1.33-4.38,2.48-4.39a1,1,0,0,1,.52.13,1.25,1.25,0,0,0-.31.82,1.06,1.06,0,0,0,1,1.16h0a1.22,1.22,0,0,0,1-1.28s0,0,0,0h0Z" transform="translate(-2530.66 -2869.25)"/><path class="cls-9" d="M2718.85,2986.5c-1.69,0-2.76-1.39-2.74-3.58,0-2.47,1.1-3.88,2.88-3.9a2.37,2.37,0,0,1,2.14.93,1.15,1.15,0,0,0-.45.91,1.07,1.07,0,0,0,1,1.11,1.1,1.1,0,0,0,1.06-1.12h0a0.24,0.24,0,0,0,0,0h0c0-1.74-1.73-3-3.91-3a4.88,4.88,0,0,0-4.81,5.13c0,3,1.84,5,4.62,5h0c2.24,0,3.63-1.23,4.05-3.63h-1.21A2.66,2.66,0,0,1,2718.85,2986.5Z" transform="translate(-2530.66 -2869.25)"/><path class="cls-2" d="M2823.54,3020.89a0.77,0.77,0,0,1-.07,1.16c-3.07,2.2-5.84,3.54-8.44,5.25-1,.68-9.8,5.5-11.14,6.24-2.89,1.64-6.1,3.13-8.16,4.18a14.75,14.75,0,0,0,4.83.07,14.51,14.51,0,0,1,2.69-.4,2.09,2.09,0,0,1,1.94.85c0.57,0.91.81,2.44,0.1,2.92a3.75,3.75,0,0,1-1.75,0,26.85,26.85,0,0,0-2.89-.1,80.11,80.11,0,0,1-10.41-.62c-1-.11-1.63-0.21-1.89-0.63a2.46,2.46,0,0,1,.15-1.94,23.66,23.66,0,0,1,4.64-8.13,23.63,23.63,0,0,0,2.27-3.27,2.9,2.9,0,0,1,.75-1,2.59,2.59,0,0,1,3.26.57,0.72,0.72,0,0,1-.16.9c-0.6.65-1.44,1.45-2.36,2.37a17.93,17.93,0,0,0-4,5.71h0a40.45,40.45,0,0,0,7.93-3.39c1.25-.62,10-5.28,11-5.94,1.91-1.25,4.19-2.37,6.06-3.59a20.22,20.22,0,0,1,3.7-1.92A1.66,1.66,0,0,1,2823.54,3020.89Z" transform="translate(-2530.66 -2869.25)"/><path class="cls-2" d="M2680.34,3120.65a6.71,6.71,0,0,1-6.29,5.39,3.63,3.63,0,0,1-.5,0,7.36,7.36,0,0,1-2.6-.52,5.76,5.76,0,0,1-3.61-4.77,3.21,3.21,0,0,1,.18-1.26,8.53,8.53,0,0,1,6.86-5.47c0.24,0,.5-0.07.76-0.09a5.19,5.19,0,0,1,5.31,5.21A6.17,6.17,0,0,1,2680.34,3120.65Zm-3.08-2.87c-0.36,0-.71.3-1.07,0.32a0.45,0.45,0,0,1-.48-0.41c-0.34-1-.24-1.48-1.44-1.44H2674a4.76,4.76,0,0,0-4.4,4.62c0.12,2.44,3,3.21,5,3.11a4.06,4.06,0,0,0,3.82-3.78,9,9,0,0,0,0-1.13A1.17,1.17,0,0,0,2677.27,3117.78Z" transform="translate(-2530.66 -2869.25)"/><path class="cls-2" d="M2689.37,3119c-0.34,0-.63-0.18-1-0.17a0.65,0.65,0,0,0-.51.36c-0.87,1.41-.54,3.18-1.11,4.69a1.24,1.24,0,0,1-1.11.8,1.06,1.06,0,0,1-1.12-.78c-0.31-1-.62-1.89-1-2.83s-1.48-2.11-1.53-3.19a1,1,0,0,1,1.07-1.18,1.32,1.32,0,0,1,.73.18,2.51,2.51,0,0,1,1.35,1.95c0.06,0.26.1,0.55,0.19,0.81a0.15,0.15,0,0,0,.15.14,0.28,0.28,0,0,0,.2-0.23c0.56-1.23-.13-2.52,1.7-3a3.91,3.91,0,0,1,.74-0.11c0.89,0,2,.31,2.06,1.34A1.09,1.09,0,0,1,2689.37,3119Z" transform="translate(-2530.66 -2869.25)"/><path class="cls-2" d="M2702.38,3121.5c0,0.63,0,1.27,0,1.88a0.73,0.73,0,0,1-.8.71,1.29,1.29,0,0,1-1.32-.85,9.69,9.69,0,0,1-.38-2.34c-0.07-1.29.06-2.6,0-3.89a25.19,25.19,0,0,0-1.84-6.95,1,1,0,0,1-.09-0.36c0-.82,1-1.23,1.69-1.26a1.09,1.09,0,0,1,1.32.87c0.35,2.07.93,4.09,1.18,6.19,0.09,0.81.18,1.6,0.22,2.39C2702.4,3119.1,2702.39,3120.3,2702.38,3121.5Z" transform="translate(-2530.66 -2869.25)"/><path class="cls-2" d="M2713.91,3119.67c-0.37,2.13-1.79,4.54-4.19,4.66a4.4,4.4,0,0,1-4.45-3.91,4.68,4.68,0,0,1,2.36-4.23,12.28,12.28,0,0,0,2-1.59,2,2,0,0,1,1.38-.74,1.45,1.45,0,0,1,1.44.91c0.57,1.22,1.48,2.64,1.55,4A3.8,3.8,0,0,1,2713.91,3119.67Zm-2.26-1.93c-0.05-.09-0.13-0.16-0.24,0a1.09,1.09,0,0,1-.7.35,5.7,5.7,0,0,1-1.2-.44,1.6,1.6,0,0,0-.77.4,2.12,2.12,0,0,0-1,2,1.87,1.87,0,0,0,2.15,2,2.62,2.62,0,0,0,2.21-2.78A4,4,0,0,0,2711.65,3117.74Z" transform="translate(-2530.66 -2869.25)"/><path class="cls-2" d="M2724.56,3119.13c-0.37,2.13-1.79,4.54-4.19,4.66a4.4,4.4,0,0,1-4.45-3.91,4.68,4.68,0,0,1,2.36-4.23,12.34,12.34,0,0,0,2-1.59,2,2,0,0,1,1.38-.74,1.45,1.45,0,0,1,1.44.91c0.57,1.22,1.48,2.64,1.55,4A3.79,3.79,0,0,1,2724.56,3119.13Zm-2.26-1.93c-0.05-.09-0.13-0.16-0.24,0a1.09,1.09,0,0,1-.7.35,5.69,5.69,0,0,1-1.2-.44,1.6,1.6,0,0,0-.77.4,2.12,2.12,0,0,0-1,2,1.87,1.87,0,0,0,2.14,2,2.62,2.62,0,0,0,2.21-2.78A4,4,0,0,0,2722.29,3117.2Z" transform="translate(-2530.66 -2869.25)"/><path class="cls-2" d="M2736.66,3121.39a6.35,6.35,0,0,1-1.5.24,16.49,16.49,0,0,1-3.77-.46,2.63,2.63,0,0,0-.63-0.09,0.25,0.25,0,0,0-.27.28c0,0.58.94,1.51,1,1.95s-0.57.58-.91,0.6a1.71,1.71,0,0,1-1.57-.64,17.82,17.82,0,0,1-1.66-5.25c-0.23-1.77-.33-3.56-0.61-5.33a7.19,7.19,0,0,0-1.51-3.79,0.89,0.89,0,0,1-.25-0.64,1.49,1.49,0,0,1,1.22-1.6,1.25,1.25,0,0,1,.71.18c1.92,1,1.52,3.34,1.89,5.12a19.41,19.41,0,0,1,.31,2.34,14.4,14.4,0,0,0,.19,1.77c0,0.14.06,0.31,0.26,0.3a0.54,0.54,0,0,0,.37-0.21c0.89-.91,2.68-3.09,4-3.16a1.4,1.4,0,0,1,.4,2.7c-0.19,0-.34-0.05-0.53,0-0.58,0-2.07,1.74-2.58,2.2-0.18.15-.22,0.32-0.05,0.41a13.4,13.4,0,0,0,5.16,1.18,0.82,0.82,0,0,1,1,.84A1.08,1.08,0,0,1,2736.66,3121.39Z" transform="translate(-2530.66 -2869.25)"/><path class="cls-2" d="M2755.68,3116c-0.86,1-3.36.94-4.6,1.22a0.5,0.5,0,0,0-.5.63c0,0.6.32,2.12,1.16,2.08h0.14a0.89,0.89,0,0,1,.7,1,1,1,0,0,1-.87,1.27c-2,.1-2.66-1.33-2.9-3,0-.33-0.06-1.75-0.5-1.73s-0.81.19-1.22,0.21a1.54,1.54,0,0,1-1.8-1.4c0-.84.53-0.89,1.2-0.93,0.46,0,.94,0,1.39,0,0.19,0,.41,0,0.39-0.28l0-.84c0-.6-0.09-1.22-0.12-1.82a35.33,35.33,0,0,1,0-4.52,1.62,1.62,0,0,1,1.69-1.65c2-.1,5.64,2.21,5.75,4.35a2.57,2.57,0,0,1-.86,1.94,1.66,1.66,0,0,1-.89.55c-0.5,0-.53-0.5-0.55-0.86s0-.75,0-1.11a2.16,2.16,0,0,0-.56-1.49,3.47,3.47,0,0,0-1.84-1.13c-1,.05-0.92,2.67-0.89,3.34a21.67,21.67,0,0,0,.31,2.77,0.49,0.49,0,0,0,.51.5,5.52,5.52,0,0,0,.89,0c1.2-.06,2.38-0.41,3.58-0.47a0.57,0.57,0,0,1,.72.49A1.57,1.57,0,0,1,2755.68,3116Z" transform="translate(-2530.66 -2869.25)"/><path class="cls-2" d="M2766.26,3117c-0.37,2.13-1.79,4.54-4.19,4.66a4.4,4.4,0,0,1-4.45-3.91,4.68,4.68,0,0,1,2.36-4.23,12.34,12.34,0,0,0,2-1.59,2,2,0,0,1,1.38-.74,1.45,1.45,0,0,1,1.44.91c0.57,1.22,1.48,2.64,1.55,4A3.79,3.79,0,0,1,2766.26,3117Zm-2.26-1.93c-0.05-.09-0.13-0.16-0.24,0a1.09,1.09,0,0,1-.7.35,5.72,5.72,0,0,1-1.2-.44,1.6,1.6,0,0,0-.77.4,2.12,2.12,0,0,0-1,2,1.87,1.87,0,0,0,2.14,2,2.62,2.62,0,0,0,2.21-2.78A4,4,0,0,0,2764,3115.08Z" transform="translate(-2530.66 -2869.25)"/><path class="cls-2" d="M2774.91,3114.67c-0.34,0-.63-0.18-1-0.17a0.65,0.65,0,0,0-.51.36c-0.87,1.41-.54,3.18-1.11,4.69a1.24,1.24,0,0,1-1.11.8,1.06,1.06,0,0,1-1.12-.78c-0.31-1-.62-1.89-1-2.83s-1.48-2.11-1.53-3.19a1,1,0,0,1,1.07-1.18,1.32,1.32,0,0,1,.73.18,2.51,2.51,0,0,1,1.35,1.95c0.06,0.26.1,0.55,0.19,0.81a0.16,0.16,0,0,0,.15.14,0.28,0.28,0,0,0,.2-0.23c0.56-1.23-.13-2.52,1.7-3a3.88,3.88,0,0,1,.74-0.11c0.89,0,2,.31,2.06,1.34A1.09,1.09,0,0,1,2774.91,3114.67Z" transform="translate(-2530.66 -2869.25)"/><path class="cls-2" d="M2794.21,3113.35a5,5,0,0,1-3.61,1.39c-0.53,0-1.06,0-1.56,0a0.41,0.41,0,0,0-.44.38,9.21,9.21,0,0,0,.7,3,4.38,4.38,0,0,1,.6,1.48,1.24,1.24,0,0,1-1.21,1.19c-1.89.1-1.87-3.25-2-4.49a5.19,5.19,0,0,0-.44-1.47c-0.27-.61-2-0.43-2.08-1.77a1.12,1.12,0,0,1,1.23-1.29c0.19,0,.39,0,0.58,0s0.38-.09.35-0.21a26.35,26.35,0,0,1-.95-4.47,0.88,0.88,0,0,1,1-1,1.88,1.88,0,0,1,2,1.44,1.26,1.26,0,0,1,0,.31,7.05,7.05,0,0,0-.17,1.88,12.83,12.83,0,0,0,.3,2.12,0.43,0.43,0,0,0,.48.38c0.6,0,1.2,0,1.78,0a5.89,5.89,0,0,0,2.14-.37,1.77,1.77,0,0,1,.89-0.45,0.89,0.89,0,0,1,.82.94A1.43,1.43,0,0,1,2794.21,3113.35Z" transform="translate(-2530.66 -2869.25)"/><path class="cls-2" d="M2806.1,3119.69a0.77,0.77,0,0,1-.87-0.48l-0.19-.83a10.94,10.94,0,0,0-1.11-2.49c-0.48-.84-0.5-1.87-0.93-2.64a0.34,0.34,0,0,0-.3-0.2,0.26,0.26,0,0,0-.23.18c-0.16.25-.26,0.52-0.39,0.76a12.1,12.1,0,0,1-1.39,2c-0.7.88-.81,2.08-1.58,2.92a1.47,1.47,0,0,1-1,.41,0.88,0.88,0,0,1-1-.62c-0.11-.69-0.17-1.41-0.28-2.1-0.22-1.53-.47-3.08-0.67-4.6-0.25-1.69-.46-3.39-0.55-5.09l0-.36a13.63,13.63,0,0,1,0-1.73,0.8,0.8,0,0,1,.87-0.79,1.64,1.64,0,0,1,1.74,1.18,0.83,0.83,0,0,1-.06.32,20,20,0,0,0,0,3.9l0,0.31a40.35,40.35,0,0,0,.44,4.81c0.13,0.69.26,0.8,0.5,0.43,1.08-1.45,1.79-3.17,2.94-4.57a1.61,1.61,0,0,1,1.07-.7,1.31,1.31,0,0,1,1.1.79,24,24,0,0,1,1.29,3.13,29.46,29.46,0,0,0,1.89,4.06,1.52,1.52,0,0,1,.2.61A1.45,1.45,0,0,1,2806.1,3119.69Z" transform="translate(-2530.66 -2869.25)"/><path class="cls-2" d="M2820.48,3118.57a8.06,8.06,0,0,1-4,1.14,8.33,8.33,0,0,1-2.68-.25c-1.92-.5-4.5-1.48-4.62-3.8a5.85,5.85,0,0,1,0-.67c0.24-2.39,1.57-3.54,3.43-4.86a7.33,7.33,0,0,1,3.74-1.54c1.41-.07,3.37.55,3.45,2.23a2.51,2.51,0,0,1-.68,1.79c-1.34,1.46-2.88,1.47-4.52,2.3a5.27,5.27,0,0,1-2,.58,1.36,1.36,0,0,1-1-.26c-0.1-.09-0.2-0.06-0.19.11,0.08,1.49,2.19,1.91,3.35,2.14a8.45,8.45,0,0,0,2.22.2,16.77,16.77,0,0,0,2.65-.45l0.19,0a0.75,0.75,0,0,1,.81.75A0.68,0.68,0,0,1,2820.48,3118.57Zm-3.41-7.9a6,6,0,0,0-.9.19,9.1,9.1,0,0,0-4.32,2.53c-0.13.22,0,.27,0.22,0.13,0.78-.3,1.56-0.46,2.39-0.7,0.59-.15,3.07-1,3-1.74A0.41,0.41,0,0,0,2817.08,3110.67Z" transform="translate(-2530.66 -2869.25)"/><path class="cls-2" d="M2829.71,3110a1.87,1.87,0,0,1-1.53,1.16c-0.77,0-.42-1.13-0.83-1.11-0.14,0-1.26.71-1.73,1a0.28,0.28,0,0,0-.2.25,0.24,0.24,0,0,0,.1.16c0.35,0.34.73,0.64,1.08,1a28,28,0,0,1,2.58,2.49,2.24,2.24,0,0,1,.55,1.32,1.92,1.92,0,0,1-.6,1.5,8.45,8.45,0,0,1-4.42,1.86,2,2,0,0,1-1.07-.19,1.52,1.52,0,0,1-.88-1.18,1,1,0,0,1,1-1.06c0.43,0,.83.22,1.28,0.2s2-.51,1.94-1.06a1.92,1.92,0,0,0-.47-0.79,10.33,10.33,0,0,0-2.88-2.3,2.39,2.39,0,0,1-1.28-2,1.64,1.64,0,0,1,.95-1.66c1.08-.58,3-1.86,4.2-1.92a1.56,1.56,0,0,1,.34,0,2,2,0,0,1,1.87,1.8A3,3,0,0,1,2829.71,3110Z" transform="translate(-2530.66 -2869.25)"/><path class="cls-2" d="M2843.16,3117.42a8.06,8.06,0,0,1-4,1.14,8.33,8.33,0,0,1-2.68-.25c-1.92-.5-4.5-1.48-4.62-3.8a5.91,5.91,0,0,1,0-.67c0.24-2.39,1.57-3.54,3.43-4.86a7.33,7.33,0,0,1,3.74-1.54c1.41-.07,3.37.55,3.45,2.23a2.51,2.51,0,0,1-.68,1.79c-1.34,1.46-2.88,1.47-4.52,2.3a5.27,5.27,0,0,1-2,.58,1.36,1.36,0,0,1-1-.26c-0.1-.09-0.2-0.06-0.19.11,0.08,1.49,2.19,1.91,3.35,2.14a8.45,8.45,0,0,0,2.22.2,16.84,16.84,0,0,0,2.65-.45l0.19,0a0.75,0.75,0,0,1,.81.75A0.68,0.68,0,0,1,2843.16,3117.42Zm-3.41-7.9a6,6,0,0,0-.9.19,9.1,9.1,0,0,0-4.32,2.53c-0.13.22,0,.27,0.22,0.13,0.78-.3,1.56-0.46,2.39-0.7,0.59-.15,3.07-1,3-1.74A0.41,0.41,0,0,0,2839.75,3109.52Z" transform="translate(-2530.66 -2869.25)"/><path class="cls-2" d="M2695.62,3139.13a3,3,0,0,1-.64.1,2.94,2.94,0,0,1-2.57-1.43,0.9,0.9,0,0,1-.19-0.49,1,1,0,0,1,1.13-.92c0.81,0,3.2.56,3.25,1.56A1.36,1.36,0,0,1,2695.62,3139.13Zm1,11.51a1.34,1.34,0,0,1-1-.29,4.59,4.59,0,0,1-1.51-2.81c-0.13-1.22-.2-2.42-0.26-3.64l-0.08-1.63a0.78,0.78,0,0,1,.8-0.91,1.64,1.64,0,0,1,1.7,1.38c0.05,1.05-.21,2.1-0.15,3.13,0.12,2.28,2,3.14,2,3.81S2697.09,3150.62,2696.59,3150.64Z" transform="translate(-2530.66 -2869.25)"/><path class="cls-2" d="M2710.75,3143.22a1.18,1.18,0,0,1-1.1-.79,0.6,0.6,0,0,0-.66-0.28,16.63,16.63,0,0,0-4.76,1.83,3.34,3.34,0,0,0-2.06,2.41,0.41,0.41,0,0,0,0,.17c0.06,1.27,2.47,2.25,3.49,2.42a4.79,4.79,0,0,0,1,.07c1,0,1.79-.69,2.77-0.74a0.88,0.88,0,0,1,1,.72,1.1,1.1,0,0,1-.77.93,8.52,8.52,0,0,1-3.36,1.11,4.55,4.55,0,0,1-1.13-.09c-2.43-.5-5-1.67-5.18-4.49v-0.29c0.08-2.74,2.69-3.77,4.86-4.69a19.67,19.67,0,0,1,4.77-1.28,1.68,1.68,0,0,1,.33,0,1.54,1.54,0,0,1,1.78,1.47C2711.71,3142.28,2711.52,3143.18,2710.75,3143.22Z" transform="translate(-2530.66 -2869.25)"/><path class="cls-2" d="M2721.72,3145.3c-0.37,2.13-1.79,4.54-4.19,4.66a4.4,4.4,0,0,1-4.45-3.91,4.68,4.68,0,0,1,2.36-4.23,12.32,12.32,0,0,0,2-1.59,2,2,0,0,1,1.38-.74,1.45,1.45,0,0,1,1.44.91c0.57,1.22,1.48,2.64,1.55,4A3.8,3.8,0,0,1,2721.72,3145.3Zm-2.26-1.93c-0.05-.09-0.13-0.16-0.24,0a1.09,1.09,0,0,1-.7.35,5.67,5.67,0,0,1-1.2-.44,1.6,1.6,0,0,0-.77.4,2.12,2.12,0,0,0-1,2,1.87,1.87,0,0,0,2.15,2,2.62,2.62,0,0,0,2.21-2.78A4,4,0,0,0,2719.46,3143.38Z" transform="translate(-2530.66 -2869.25)"/><path class="cls-2" d="M2732.63,3150.08a2,2,0,0,1-.75-0.13c-2.28-.92-1.39-4.14-2.2-5.42a1.12,1.12,0,0,0-.46-0.53,0.35,0.35,0,0,0-.25.18c-0.79,1-.64,2.56-1.77,3.38a1.82,1.82,0,0,1-1,.41c-0.91,0-1.5-1.05-1.54-1.84l0-.41a7.65,7.65,0,0,0-1.31-4.09,0.72,0.72,0,0,1-.17-0.42,1.92,1.92,0,0,1,1.66-1.77,1.23,1.23,0,0,1,.61.11c0.86,0.41.9,3,1.21,3.93a0.45,0.45,0,0,0,.29.42,0.65,0.65,0,0,0,.35-0.28,8.32,8.32,0,0,0,1.19-2.56,0.69,0.69,0,0,1,.7-0.47,2.15,2.15,0,0,1,1.65.81,12.21,12.21,0,0,1,1.23,3.9c0.12,0.55.39,2.43,0.93,2.67a1.13,1.13,0,0,1,.84.94A1.22,1.22,0,0,1,2732.63,3150.08Z" transform="translate(-2530.66 -2869.25)"/><path class="cls-2" d="M2742.43,3140.5a1.87,1.87,0,0,1-1.53,1.16c-0.77,0-.42-1.13-0.83-1.11-0.14,0-1.26.71-1.73,1a0.28,0.28,0,0,0-.2.25,0.24,0.24,0,0,0,.1.16c0.35,0.34.73,0.64,1.08,1a27.92,27.92,0,0,1,2.58,2.49,2.24,2.24,0,0,1,.55,1.32,1.92,1.92,0,0,1-.6,1.5,8.45,8.45,0,0,1-4.42,1.86,2,2,0,0,1-1.07-.19,1.52,1.52,0,0,1-.88-1.18,1,1,0,0,1,1-1.06c0.43,0,.83.22,1.28,0.2s2-.51,1.94-1.06a1.93,1.93,0,0,0-.47-0.79,10.34,10.34,0,0,0-2.88-2.31,2.39,2.39,0,0,1-1.28-2,1.64,1.64,0,0,1,.95-1.66c1.08-.58,3-1.86,4.2-1.92a1.59,1.59,0,0,1,.34,0,2,2,0,0,1,1.87,1.8A3,3,0,0,1,2742.43,3140.5Z" transform="translate(-2530.66 -2869.25)"/><path class="cls-2" d="M2753.62,3136.18a3,3,0,0,1-.64.1,2.94,2.94,0,0,1-2.57-1.43,0.9,0.9,0,0,1-.19-0.49,1,1,0,0,1,1.13-.92c0.81,0,3.2.56,3.25,1.56A1.36,1.36,0,0,1,2753.62,3136.18Zm1,11.51a1.34,1.34,0,0,1-1-.29,4.59,4.59,0,0,1-1.51-2.81c-0.13-1.22-.19-2.42-0.26-3.64l-0.08-1.63a0.78,0.78,0,0,1,.79-0.91,1.64,1.64,0,0,1,1.7,1.38c0.05,1.05-.21,2.1-0.15,3.13,0.12,2.28,2,3.14,2,3.81S2755.1,3147.67,2754.59,3147.69Z" transform="translate(-2530.66 -2869.25)"/><path class="cls-2" d="M2766.69,3148.35a2,2,0,0,1-.75-0.13c-2.28-.92-1.39-4.14-2.2-5.42a1.12,1.12,0,0,0-.46-0.53,0.35,0.35,0,0,0-.26.18c-0.79,1-.64,2.56-1.77,3.38a1.82,1.82,0,0,1-1,.41c-0.91,0-1.5-1.05-1.54-1.84l0-.41a7.65,7.65,0,0,0-1.31-4.09,0.72,0.72,0,0,1-.17-0.42,1.92,1.92,0,0,1,1.66-1.77,1.23,1.23,0,0,1,.61.11c0.86,0.41.9,3,1.21,3.93a0.45,0.45,0,0,0,.29.42,0.65,0.65,0,0,0,.35-0.28,8.31,8.31,0,0,0,1.19-2.56,0.69,0.69,0,0,1,.7-0.47,2.15,2.15,0,0,1,1.65.81,12.21,12.21,0,0,1,1.23,3.9c0.12,0.55.39,2.43,0.93,2.67a1.13,1.13,0,0,1,.84.94A1.22,1.22,0,0,1,2766.69,3148.35Z" transform="translate(-2530.66 -2869.25)"/><path class="cls-2" d="M2786.4,3139.9c-0.75,1.77-1.63,3.45-2.51,5.05a48.8,48.8,0,0,0-3.1,6.55,1.49,1.49,0,0,1-1.14.8,0.63,0.63,0,0,1-.75-0.61,1.29,1.29,0,0,1,0-.26,18.71,18.71,0,0,1,2.09-5.27c0.2-.39.39-0.81,0.63-1.28s0.26-.47-0.06-0.67c-2.41-1.46-4.63-3.18-5.76-5.48a1.89,1.89,0,0,1-.14-0.38,1.48,1.48,0,0,1,1.23-1.36,1,1,0,0,1,.84.44,23.42,23.42,0,0,0,4.66,4.59c0.3,0.2.47,0.31,0.7,0a12,12,0,0,0,1.45-3.58,1,1,0,0,1,.87-0.86,1.43,1.43,0,0,1,1.36,1.18A3,3,0,0,1,2786.4,3139.9Z" transform="translate(-2530.66 -2869.25)"/><path class="cls-2" d="M2797.27,3141.46c-0.37,2.13-1.79,4.54-4.19,4.66a4.4,4.4,0,0,1-4.45-3.91A4.68,4.68,0,0,1,2791,3138a12.28,12.28,0,0,0,2-1.59,2,2,0,0,1,1.38-.74,1.45,1.45,0,0,1,1.44.91c0.57,1.22,1.48,2.64,1.55,4A3.8,3.8,0,0,1,2797.27,3141.46Zm-2.26-1.93c-0.05-.09-0.13-0.16-0.24,0a1.09,1.09,0,0,1-.7.35,5.68,5.68,0,0,1-1.2-.44,1.6,1.6,0,0,0-.77.4,2.12,2.12,0,0,0-1,2,1.87,1.87,0,0,0,2.15,2,2.62,2.62,0,0,0,2.21-2.78A4,4,0,0,0,2795,3139.53Z" transform="translate(-2530.66 -2869.25)"/><path class="cls-2" d="M2809.73,3146c-1.51.08-2.33-4.16-2.85-4.13a0.38,0.38,0,0,0-.23.28c-0.72,1.43-1.39,3-3.23,3.07-2.88.15-3.54-2.9-3.65-5.17a20.62,20.62,0,0,1,.22-4.22,0.92,0.92,0,0,1,1-.65,1.22,1.22,0,0,1,1.42,1c0,0.1,0,.17,0,0.24a12.54,12.54,0,0,0-.22,2.85c0,0.67.42,3.54,1.33,3.49a1.21,1.21,0,0,0,.79-0.59,5.69,5.69,0,0,0,1.3-3.7c0-.19,0-0.38-0.05-0.57a1.27,1.27,0,0,1,1.32-1.05,1.22,1.22,0,0,1,1.29.82c0.5,1.39,1.48,5.09,2.58,5.92a1.26,1.26,0,0,1,.58.93A1.67,1.67,0,0,1,2809.73,3146Z" transform="translate(-2530.66 -2869.25)"/><path class="cls-2" d="M2819.05,3138.45c-0.34,0-.63-0.18-1-0.17a0.65,0.65,0,0,0-.51.36c-0.87,1.41-.54,3.18-1.11,4.69a1.24,1.24,0,0,1-1.11.8,1.06,1.06,0,0,1-1.12-.78c-0.31-1-.62-1.89-1-2.83s-1.48-2.11-1.53-3.19a1,1,0,0,1,1.07-1.18,1.33,1.33,0,0,1,.73.18,2.51,2.51,0,0,1,1.35,2c0.06,0.26.1,0.55,0.19,0.81a0.15,0.15,0,0,0,.15.14,0.28,0.28,0,0,0,.2-0.23c0.56-1.23-.13-2.52,1.7-3a3.87,3.87,0,0,1,.74-0.11c0.89,0,2,.31,2.06,1.34A1.09,1.09,0,0,1,2819.05,3138.45Z" transform="translate(-2530.66 -2869.25)"/><path class="cls-2" d="M2677,3171a1.18,1.18,0,0,1-1.1-.79,0.6,0.6,0,0,0-.66-0.28,16.63,16.63,0,0,0-4.76,1.83,3.34,3.34,0,0,0-2.06,2.41,0.41,0.41,0,0,0,0,.17c0.06,1.27,2.47,2.25,3.49,2.42a4.83,4.83,0,0,0,1,.07c1,0,1.79-.69,2.77-0.74a0.88,0.88,0,0,1,1,.72,1.1,1.1,0,0,1-.77.93,8.51,8.51,0,0,1-3.36,1.11,4.55,4.55,0,0,1-1.13-.09c-2.43-.5-5-1.67-5.18-4.5v-0.29c0.08-2.74,2.69-3.77,4.86-4.69a19.68,19.68,0,0,1,4.77-1.28,1.72,1.72,0,0,1,.33,0,1.54,1.54,0,0,1,1.78,1.47C2678,3170,2677.81,3170.93,2677,3171Z" transform="translate(-2530.66 -2869.25)"/><path class="cls-2" d="M2688,3173.05c-0.37,2.13-1.79,4.54-4.19,4.66a4.4,4.4,0,0,1-4.45-3.91,4.68,4.68,0,0,1,2.36-4.23,12.32,12.32,0,0,0,2-1.59,2,2,0,0,1,1.38-.74,1.45,1.45,0,0,1,1.44.91c0.57,1.22,1.48,2.64,1.55,4A3.79,3.79,0,0,1,2688,3173.05Zm-2.26-1.93c-0.05-.09-0.13-0.16-0.24,0a1.09,1.09,0,0,1-.7.35,5.69,5.69,0,0,1-1.2-.44,1.59,1.59,0,0,0-.77.4,2.11,2.11,0,0,0-1,2,1.87,1.87,0,0,0,2.14,2,2.62,2.62,0,0,0,2.21-2.78A4,4,0,0,0,2685.75,3171.12Z" transform="translate(-2530.66 -2869.25)"/><path class="cls-2" d="M2704.85,3176.67a1.09,1.09,0,0,1-.56-0.09c-1.46-.79-1.78-2.31-2.14-3.78a7.81,7.81,0,0,0-.32-1.07,0.33,0.33,0,0,0-.3-0.3c-0.38,0-1.83,1.9-2.07,2.29a1.18,1.18,0,0,1-1,.63c-1,0-1.77-1.21-2.14-2-0.11-.19-0.22-0.16-0.36,0-1,1.27-1.44,2.89-2.71,3.94a2,2,0,0,1-1.06.37,1,1,0,0,1-1.12-.66c-0.1-.5-0.17-1-0.29-1.52-0.21-.88-0.47-1.71-0.71-2.58a8.14,8.14,0,0,1-.3-1.71,5.63,5.63,0,0,1,.35-2.18,0.72,0.72,0,0,1,.69-0.52,1.75,1.75,0,0,1,1.73,1.43c0,0.67-.08,1.33,0,2a5.79,5.79,0,0,0,.4,1.78,0.16,0.16,0,0,0,.31,0,11.4,11.4,0,0,0,2.09-4.22,1.11,1.11,0,0,1,1.12-.71,1,1,0,0,1,1.06.55c0.28,0.85.55,1.75,0.85,2.62a0.28,0.28,0,0,0,.21.25,0.75,0.75,0,0,0,.33-0.19c1.48-1.18,1.21-2.1,2.06-3.47a0.89,0.89,0,0,1,.75-0.45,1.67,1.67,0,0,1,1.57,1c0.2,0.71.36,1.45,0.59,2.16a23.75,23.75,0,0,0,2.06,5,1.1,1.1,0,0,1,.14.47A1.11,1.11,0,0,1,2704.85,3176.67Z" transform="translate(-2530.66 -2869.25)"/><path class="cls-2" d="M2710.8,3173.77a0.58,0.58,0,0,0-.6.54,3.23,3.23,0,0,0,0,.84c0.05,1.05.49,2.09,0.54,3.14,0,0.67-.21,2.49-1.1,2.53a1.7,1.7,0,0,1-1.16-1,8.91,8.91,0,0,1-1.1-4.13c-0.06-1.17,0-2.38,0-3.58a11.35,11.35,0,0,0-.59-3.07,1.41,1.41,0,0,1-.07-0.33c-0.07-1.39,2.35-2.45,3.5-2.51a3.9,3.9,0,0,1,4,3.54A4.3,4.3,0,0,1,2710.8,3173.77Zm-0.62-5c-0.6,0-.67.59-0.64,1.07a10.12,10.12,0,0,0,.24,1.79,0.16,0.16,0,0,0,.17.09,2,2,0,0,0,.52-0.12c0.69-.23,1.7-0.64,1.65-1.53S2711,3168.69,2710.18,3168.73Z" transform="translate(-2530.66 -2869.25)"/><path class="cls-2" d="M2726.91,3176.24c-1.51.08-2.33-4.16-2.85-4.13a0.38,0.38,0,0,0-.23.28c-0.72,1.43-1.39,3-3.23,3.07-2.88.15-3.54-2.9-3.65-5.17a20.63,20.63,0,0,1,.22-4.22,0.92,0.92,0,0,1,1-.65,1.22,1.22,0,0,1,1.42,1c0,0.1,0,.17,0,0.24a12.53,12.53,0,0,0-.22,2.85c0,0.67.42,3.54,1.33,3.49a1.21,1.21,0,0,0,.79-0.59,5.69,5.69,0,0,0,1.3-3.7c0-.19,0-0.38-0.05-0.57A1.27,1.27,0,0,1,2724,3167a1.22,1.22,0,0,1,1.29.82c0.5,1.39,1.48,5.09,2.58,5.92a1.26,1.26,0,0,1,.58.93A1.67,1.67,0,0,1,2726.91,3176.24Z" transform="translate(-2530.66 -2869.25)"/><path class="cls-2" d="M2739,3168.22a5,5,0,0,1-3.61,1.39c-0.53,0-1.06,0-1.56,0a0.41,0.41,0,0,0-.44.38,9.21,9.21,0,0,0,.7,3,4.38,4.38,0,0,1,.6,1.48,1.24,1.24,0,0,1-1.21,1.19c-1.89.1-1.87-3.25-2-4.49a5.19,5.19,0,0,0-.44-1.47c-0.27-.61-2-0.43-2.08-1.77a1.12,1.12,0,0,1,1.23-1.29c0.19,0,.39,0,0.58,0s0.38-.09.35-0.21a26.35,26.35,0,0,1-.95-4.47,0.88,0.88,0,0,1,1-1,1.88,1.88,0,0,1,2,1.44,1.26,1.26,0,0,1,0,.31,7.05,7.05,0,0,0-.17,1.88,12.83,12.83,0,0,0,.3,2.12,0.43,0.43,0,0,0,.48.38c0.6,0,1.2,0,1.78,0a5.87,5.87,0,0,0,2.14-.37,1.77,1.77,0,0,1,.89-0.45,0.89,0.89,0,0,1,.82.94A1.42,1.42,0,0,1,2739,3168.22Z" transform="translate(-2530.66 -2869.25)"/><path class="cls-2" d="M2751.84,3174.13a8.05,8.05,0,0,1-4,1.14,8.33,8.33,0,0,1-2.68-.25c-1.92-.5-4.5-1.48-4.62-3.8a5.85,5.85,0,0,1,0-.67c0.24-2.39,1.57-3.54,3.43-4.86a7.33,7.33,0,0,1,3.74-1.54c1.41-.07,3.37.55,3.45,2.23a2.51,2.51,0,0,1-.68,1.79c-1.34,1.46-2.88,1.47-4.52,2.3a5.28,5.28,0,0,1-2,.58,1.36,1.36,0,0,1-1-.26c-0.1-.09-0.2-0.06-0.19.11,0.08,1.49,2.19,1.91,3.35,2.14a8.45,8.45,0,0,0,2.22.2,16.78,16.78,0,0,0,2.65-.45l0.19,0a0.75,0.75,0,0,1,.81.75A0.68,0.68,0,0,1,2751.84,3174.13Zm-3.41-7.9a6,6,0,0,0-.9.19,9.1,9.1,0,0,0-4.32,2.53c-0.13.22,0,.27,0.22,0.13,0.78-.3,1.56-0.46,2.39-0.7,0.59-.15,3.07-1,3-1.74A0.41,0.41,0,0,0,2748.43,3166.23Z" transform="translate(-2530.66 -2869.25)"/><path class="cls-2" d="M2760.58,3167.46c-0.34,0-.63-0.18-1-0.17a0.65,0.65,0,0,0-.51.36c-0.87,1.41-.54,3.18-1.11,4.69a1.24,1.24,0,0,1-1.11.8,1.06,1.06,0,0,1-1.12-.78c-0.31-1-.62-1.89-1-2.83s-1.48-2.11-1.53-3.19a1,1,0,0,1,1.07-1.18,1.33,1.33,0,0,1,.73.18,2.51,2.51,0,0,1,1.35,2c0.06,0.26.1,0.55,0.19,0.81a0.16,0.16,0,0,0,.15.14,0.29,0.29,0,0,0,.2-0.23c0.56-1.23-.13-2.52,1.7-3a3.91,3.91,0,0,1,.74-0.11c0.89,0,2,.31,2.06,1.34A1.09,1.09,0,0,1,2760.58,3167.46Z" transform="translate(-2530.66 -2869.25)"/><path class="cls-2" d="M2777.6,3164.75a1.87,1.87,0,0,1-1.53,1.16c-0.77,0-.42-1.13-0.83-1.11-0.14,0-1.26.71-1.73,1a0.28,0.28,0,0,0-.2.25,0.24,0.24,0,0,0,.1.16c0.35,0.34.73,0.64,1.08,1a27.92,27.92,0,0,1,2.58,2.49,2.24,2.24,0,0,1,.55,1.32,1.92,1.92,0,0,1-.6,1.5,8.46,8.46,0,0,1-4.42,1.86,2,2,0,0,1-1.07-.19,1.52,1.52,0,0,1-.88-1.18,1,1,0,0,1,1-1.06c0.43,0,.83.22,1.28,0.2s2-.51,1.94-1.06a1.93,1.93,0,0,0-.47-0.79,10.34,10.34,0,0,0-2.88-2.3,2.39,2.39,0,0,1-1.28-2,1.64,1.64,0,0,1,.95-1.66c1.08-.58,3-1.86,4.2-1.92a1.56,1.56,0,0,1,.34,0,2,2,0,0,1,1.87,1.8A3,3,0,0,1,2777.6,3164.75Z" transform="translate(-2530.66 -2869.25)"/><path class="cls-2" d="M2791.05,3172.14a8,8,0,0,1-4,1.14,8.33,8.33,0,0,1-2.68-.25c-1.92-.5-4.5-1.48-4.62-3.8a5.85,5.85,0,0,1,0-.67c0.24-2.39,1.57-3.54,3.43-4.86a7.34,7.34,0,0,1,3.74-1.54c1.41-.07,3.37.55,3.45,2.23a2.51,2.51,0,0,1-.68,1.79c-1.34,1.46-2.88,1.47-4.52,2.3a5.26,5.26,0,0,1-2,.58,1.36,1.36,0,0,1-1-.26c-0.1-.09-0.2-0.06-0.19.11,0.08,1.49,2.19,1.91,3.35,2.14a8.45,8.45,0,0,0,2.22.2,16.77,16.77,0,0,0,2.65-.45l0.19,0a0.75,0.75,0,0,1,.81.75A0.68,0.68,0,0,1,2791.05,3172.14Zm-3.41-7.9a6,6,0,0,0-.9.19,9.11,9.11,0,0,0-4.32,2.53c-0.13.22,0,.27,0.22,0.13,0.78-.3,1.56-0.46,2.39-0.7,0.59-.15,3.07-1,3-1.74A0.41,0.41,0,0,0,2787.65,3164.23Z" transform="translate(-2530.66 -2869.25)"/><path class="cls-2" d="M2802.56,3165a5,5,0,0,1-3.61,1.39c-0.53,0-1.06,0-1.56,0a0.41,0.41,0,0,0-.44.38,9.21,9.21,0,0,0,.7,3,4.38,4.38,0,0,1,.6,1.48,1.24,1.24,0,0,1-1.21,1.19c-1.89.1-1.87-3.25-2-4.49a5.19,5.19,0,0,0-.44-1.47c-0.27-.61-2-0.43-2.08-1.77a1.12,1.12,0,0,1,1.23-1.29c0.19,0,.39,0,0.58,0s0.38-.09.35-0.21a26.34,26.34,0,0,1-.95-4.47,0.88,0.88,0,0,1,1-1,1.88,1.88,0,0,1,2,1.44,1.26,1.26,0,0,1,0,.31,7.05,7.05,0,0,0-.17,1.88,12.83,12.83,0,0,0,.3,2.12,0.43,0.43,0,0,0,.48.38c0.6,0,1.2,0,1.78,0a5.88,5.88,0,0,0,2.14-.37,1.76,1.76,0,0,1,.89-0.45,0.89,0.89,0,0,1,.82.94A1.43,1.43,0,0,1,2802.56,3165Z" transform="translate(-2530.66 -2869.25)"/><path class="cls-2" d="M2813.44,3164.44a5,5,0,0,1-3.61,1.39c-0.53,0-1.06,0-1.56,0a0.41,0.41,0,0,0-.44.38,9.21,9.21,0,0,0,.7,3,4.38,4.38,0,0,1,.6,1.48,1.24,1.24,0,0,1-1.21,1.19c-1.89.1-1.87-3.25-2-4.49a5.19,5.19,0,0,0-.44-1.47c-0.27-.61-2-0.43-2.08-1.77a1.12,1.12,0,0,1,1.23-1.29c0.19,0,.39,0,0.58,0s0.38-.09.35-0.21a26.38,26.38,0,0,1-.95-4.47,0.88,0.88,0,0,1,1-1,1.88,1.88,0,0,1,2,1.44,1.26,1.26,0,0,1,0,.31,7.06,7.06,0,0,0-.17,1.88,12.87,12.87,0,0,0,.3,2.12,0.43,0.43,0,0,0,.48.38c0.6,0,1.2,0,1.78,0a5.87,5.87,0,0,0,2.14-.37,1.76,1.76,0,0,1,.89-0.45,0.89,0.89,0,0,1,.82.94A1.43,1.43,0,0,1,2813.44,3164.44Z" transform="translate(-2530.66 -2869.25)"/><path class="cls-2" d="M2816.87,3159a3,3,0,0,1-.64.1,2.94,2.94,0,0,1-2.57-1.43,0.91,0.91,0,0,1-.19-0.49,1,1,0,0,1,1.13-.92c0.81,0,3.2.56,3.25,1.56A1.36,1.36,0,0,1,2816.87,3159Zm1,11.51a1.34,1.34,0,0,1-1-.29,4.59,4.59,0,0,1-1.51-2.81c-0.13-1.22-.2-2.42-0.26-3.64l-0.08-1.63a0.78,0.78,0,0,1,.8-0.91,1.64,1.64,0,0,1,1.7,1.38c0.05,1.05-.21,2.1-0.15,3.13,0.12,2.28,2,3.14,2,3.81S2818.34,3170.48,2817.84,3170.51Z" transform="translate(-2530.66 -2869.25)"/><path class="cls-2" d="M2829.93,3171.17a2,2,0,0,1-.75-0.13c-2.28-.92-1.39-4.14-2.2-5.42a1.12,1.12,0,0,0-.46-0.53,0.34,0.34,0,0,0-.26.18c-0.79,1-.64,2.56-1.77,3.38a1.82,1.82,0,0,1-1,.41c-0.91,0-1.5-1.05-1.54-1.84l0-.41a7.65,7.65,0,0,0-1.31-4.09,0.72,0.72,0,0,1-.17-0.42,1.92,1.92,0,0,1,1.66-1.77,1.23,1.23,0,0,1,.61.11c0.86,0.41.9,3,1.21,3.93a0.45,0.45,0,0,0,.29.42,0.65,0.65,0,0,0,.35-0.28,8.33,8.33,0,0,0,1.19-2.56,0.69,0.69,0,0,1,.7-0.47,2.16,2.16,0,0,1,1.65.81,12.21,12.21,0,0,1,1.23,3.9c0.12,0.55.39,2.43,0.93,2.67a1.13,1.13,0,0,1,.84.94A1.22,1.22,0,0,1,2829.93,3171.17Z" transform="translate(-2530.66 -2869.25)"/><path class="cls-2" d="M2840,3174.53a4.48,4.48,0,0,1-3.31,2.07,4.69,4.69,0,0,1-4.46-3.64,2.69,2.69,0,0,1-.16-0.76,1,1,0,0,1,.88-1.2c2-.1-0.16,3.56,3.1,3.4,2.64-.13,3.95-3.61,3.84-5.87a20.67,20.67,0,0,0-.41-3.34s0-.26-0.16-0.26c-0.41,0-1.67,3.11-3.59,3.21a2,2,0,0,1-.53,0,2.91,2.91,0,0,1-2.44-2.62c-0.13-2.56,3.47-5.56,5.89-5.68a2.12,2.12,0,0,1,2,1,3.82,3.82,0,0,1,.72,2c0,0.58,0,1.11,0,1.68,0.06,1.13.28,2.24,0.34,3.37A10.16,10.16,0,0,1,2840,3174.53Zm-2-12.25a2,2,0,0,0-.56.27c-0.49.27-1,.58-1.47,0.87a2.1,2.1,0,0,0-1,1.83,0.69,0.69,0,0,0,.69.76,2.1,2.1,0,0,0,1.34-1.08,12.45,12.45,0,0,0,1.22-2.42A0.22,0.22,0,0,0,2838,3162.27Z" transform="translate(-2530.66 -2869.25)"/><path class="cls-2" d="M2851.26,3161a1.87,1.87,0,0,1-1.53,1.16c-0.77,0-.42-1.13-0.83-1.11-0.14,0-1.26.71-1.73,1a0.28,0.28,0,0,0-.2.25,0.24,0.24,0,0,0,.1.16c0.35,0.34.73,0.64,1.08,1a27.92,27.92,0,0,1,2.58,2.49,2.24,2.24,0,0,1,.55,1.32,1.92,1.92,0,0,1-.6,1.5,8.46,8.46,0,0,1-4.42,1.86,2,2,0,0,1-1.07-.19,1.52,1.52,0,0,1-.88-1.18,1,1,0,0,1,1-1.06c0.43,0,.83.22,1.28,0.2s2-.51,1.94-1.06a1.93,1.93,0,0,0-.47-0.79,10.34,10.34,0,0,0-2.88-2.3,2.39,2.39,0,0,1-1.28-2,1.64,1.64,0,0,1,.95-1.66c1.08-.58,3-1.86,4.2-1.92a1.62,1.62,0,0,1,.34,0,2,2,0,0,1,1.87,1.8A3,3,0,0,1,2851.26,3161Z" transform="translate(-2530.66 -2869.25)"/><path class="cls-2" d="M2856.49,3162.18a1.55,1.55,0,0,1-1.08,1,1,1,0,0,1-.36-0.05,2.2,2.2,0,0,1-1.81-2,1.26,1.26,0,0,1,1.3-1.34,2.29,2.29,0,0,1,1.07.21c0.47,0.22,1.39.43,1.42,1.06A2.39,2.39,0,0,1,2856.49,3162.18Zm-0.65,6.16c-1.17.06-1.86-.22-1.93-1.56a1.47,1.47,0,0,1,1.5-1.61,2,2,0,0,1,2.14,1.84C2857.59,3167.89,2856.58,3168.3,2855.84,3168.34Z" transform="translate(-2530.66 -2869.25)"/><rect class="cls-9" x="2925.66" y="3138.35" width="6.35" height="16.65" rx="3.17" ry="3.17" transform="translate(-3032.57 -2312.86) rotate(-10)"/><rect class="cls-9" x="2949.94" y="3138.35" width="6.35" height="16.65" rx="3.17" ry="3.17" transform="translate(2784.29 3889.09) rotate(-170)"/><path class="cls-9" d="M2928.95,3152.24a1.49,1.49,0,0,1-1-.35,19.93,19.93,0,1,1,25.71,0,1.5,1.5,0,1,1-1.94-2.29,16.93,16.93,0,1,0-21.84,0A1.5,1.5,0,0,1,2928.95,3152.24Z" transform="translate(-2530.66 -2869.25)"/><path class="cls-9" d="M2897,3186a0.93,0.93,0,0,0-1,1.06h0a9.88,9.88,0,0,1,.56,3.31,10.11,10.11,0,0,1-.58,3.34,0.94,0.94,0,0,0,1,1.06l0.3,0a1.32,1.32,0,0,0,1.28-.68,11.66,11.66,0,0,0,.65-3.74,11.46,11.46,0,0,0-.63-3.71A1.42,1.42,0,0,0,2897,3186Z" transform="translate(-2530.66 -2869.25)"/><path class="cls-9" d="M2906.45,3178.5a1.63,1.63,0,0,0-1.74-.42c-0.65.2-.93,0.73-0.63,1.17h0a18.6,18.6,0,0,1,0,22.27c-0.31.44,0,1,.63,1.17a1.88,1.88,0,0,0,.55.08,1.47,1.47,0,0,0,1.19-.5A19.83,19.83,0,0,0,2906.45,3178.5Z" transform="translate(-2530.66 -2869.25)"/><path class="cls-9" d="M2903,3183.29a1.53,1.53,0,0,0-1.66-.54c-0.68.15-1,.66-0.81,1.12a14.11,14.11,0,0,1,1.6,6.5,14.32,14.32,0,0,1-1.64,6.54c-0.24.46,0.12,1,.81,1.12a1.91,1.91,0,0,0,.43,0,1.39,1.39,0,0,0,1.25-.59,15.61,15.61,0,0,0,1.77-7.12A15.26,15.26,0,0,0,2903,3183.29Z" transform="translate(-2530.66 -2869.25)"/><path class="cls-9" d="M2891,3176.33c-1.86,1.19-6.61,5.23-9.35,7.6h-8a1,1,0,0,0-1,1l0,11.17a1,1,0,0,0,1,1h8.21c2.75,2.39,7.33,6.3,9.15,7.47,2.31,1.49,2.61-1,2.61-1l0-12.77v-0.59l0-12.77S2893.29,3174.84,2891,3176.33Z" transform="translate(-2530.66 -2869.25)"/><rect class="cls-9" x="347.07" y="248.59" width="13.59" height="28.03" rx="6.79" ry="6.79"/><path class="cls-9" d="M2893.67,3133.09v6.78c0,1.36-.79,8.17-9,8.17s-9-6.8-9-8.17v-6.78h-2v6.78c0,1,.27,10.06,11,10.06s11-9,11-10.06v-6.78h-2Z" transform="translate(-2530.66 -2869.25)"/><rect class="cls-9" x="352.83" y="280.31" width="2.2" height="5.77"/><rect class="cls-9" x="347.56" y="285.96" width="12.73" height="2.08"/><rect class="cls-9" x="2899.7" y="3119.07" width="4.39" height="4.39" transform="translate(3492.5 -2649.88) rotate(90)"/><rect class="cls-9" x="2899.7" y="3125.84" width="4.39" height="4.39" transform="translate(3499.27 -2643.11) rotate(90)"/><rect class="cls-9" x="2899.7" y="3132.61" width="4.39" height="4.39" transform="translate(3506.04 -2636.34) rotate(90)"/><rect class="cls-9" x="2899.7" y="3139.37" width="4.39" height="4.39" transform="translate(3512.8 -2629.58) rotate(90)"/><rect class="cls-9" x="2899.7" y="3146.14" width="4.39" height="4.39" transform="translate(3519.57 -2622.81) rotate(90)"/><rect class="cls-9" x="2899.7" y="3152.91" width="4.39" height="4.39" transform="translate(3526.34 -2616.04) rotate(90)"/><rect class="cls-9" x="403.28" y="298.59" width="13.59" height="28.03" rx="6.79" ry="6.79"/><path class="cls-9" d="M2949.67,3183.09v6.78c0,1.36-.79,8.17-9,8.17s-9-6.8-9-8.17v-6.78h-2v6.78c0,1,.27,10.06,11,10.06s11-9,11-10.06v-6.78h-2Z" transform="translate(-2530.66 -2869.25)"/><rect class="cls-9" x="408.94" y="330.31" width="2.2" height="5.77"/><rect class="cls-9" x="403.67" y="335.96" width="12.73" height="2.08"/><path class="cls-6" d="M2936.58,3191.09a4.24,4.24,0,0,0,8.29,0h-8.29Z" transform="translate(-2530.66 -2869.25)"/></svg>