<svg id="Layer_4" data-name="Layer 4" xmlns="http://www.w3.org/2000/svg" viewBox="0 0 203.77 52.9"><defs><style>.cls-1{fill:#2e8bbd;}.cls-2{fill:#fff;}</style></defs><title>button_get-started_hover-click</title><rect class="cls-1" width="203.77" height="52.9"/><path class="cls-2" d="M2795.53,4774.48c0-5.88,3.91-9.65,9.33-9.65a15.52,15.52,0,0,1,5.53,1.06l-0.24,2.21a17.11,17.11,0,0,0-5.21-1c-4.55,0-6.65,3.27-6.65,7.39s2.23,7.39,7.07,7.39a9.15,9.15,0,0,0,3.11-.5v-4.63h-2.93v-2.29H2811v8.3a15.87,15.87,0,0,1-6.36,1.41C2799.49,4784.19,2795.53,4780.41,2795.53,4774.48Z" transform="translate(-2776.25 -4748.13)"/><path class="cls-2" d="M2817,4777.3c0.35,3.62,2.42,4.65,4.89,4.65a9.39,9.39,0,0,0,3.75-.77l0.32,1.89a10.42,10.42,0,0,1-4.36,1c-4.6,0-7-3.14-7-6.89s2.34-6.68,6.38-6.68c3.24,0,5.61,2,5.61,5.5a7.47,7.47,0,0,1-.11,1.28H2817Zm0.21-1.65h6.86c0-1.83-1-3-3.19-3A3.46,3.46,0,0,0,2817.25,4775.65Z" transform="translate(-2776.25 -4748.13)"/><path class="cls-2" d="M2836.7,4784.08h-2.15c-2.47,0-3.4-1.54-3.4-3.11v-8.32h-2.23l0.21-1.86h2v-3.22l2.39-.24v3.46H2837v1.86h-3.43v6.86c0,2.5.16,2.66,2.74,2.66h0.61Z" transform="translate(-2776.25 -4748.13)"/><path class="cls-2" d="M2847.39,4783l0.35-3a9.92,9.92,0,0,0,5.8,1.86c2.29,0,4.44-.77,4.44-2.87s-2.13-2.9-4.81-3.75c-3.08-1-6.06-1.89-6.06-5.08,0-2.31,1.6-5.37,6.7-5.37a13.74,13.74,0,0,1,5.85,1.28l-0.27,2.69a12.06,12.06,0,0,0-5.35-1.68c-1.92,0-4.18.8-4.18,2.74,0,1.73,1.78,2.42,4,3.11,3.27,1,6.86,2,6.86,6,0,2-.83,5.19-7.26,5.19A13.9,13.9,0,0,1,2847.39,4783Z" transform="translate(-2776.25 -4748.13)"/><path class="cls-2" d="M2870.5,4784.08h-2.15c-2.47,0-3.4-1.54-3.4-3.11v-8.32h-2.23l0.21-1.86h2v-3.22l2.39-.24v3.46h3.43v1.86h-3.43v6.86c0,2.5.16,2.66,2.74,2.66h0.61Z" transform="translate(-2776.25 -4748.13)"/><path class="cls-2" d="M2884.74,4784.08h-0.19c-2.31,0-2.82-.69-3.35-1.92a5.15,5.15,0,0,1-4,1.92,3.73,3.73,0,0,1-4-3.78c0-3.67,4.47-4.6,7.79-4.65,0-2.47-1-3-2.85-3a5.67,5.67,0,0,0-3.43,1.17l-0.35-1.94a7.51,7.51,0,0,1,4.42-1.36c3.3,0,4.6,1.54,4.6,6.25v2.66c0,1.86.11,2.74,1.49,2.74h0.24Zm-3.75-6.78c-3.8.13-5.35,0.93-5.35,2.87a1.8,1.8,0,0,0,2,2,4.22,4.22,0,0,0,3.32-1.75v-3.11Z" transform="translate(-2776.25 -4748.13)"/><path class="cls-2" d="M2894.46,4772.94h-0.82a4,4,0,0,0-3,1.68v9.2h-2.55v-13h2l0.29,2.15c1.57-1.78,2.82-2.63,4.42-2.63H2895Z" transform="translate(-2776.25 -4748.13)"/><path class="cls-2" d="M2905,4784.08h-2.15c-2.47,0-3.4-1.54-3.4-3.11v-8.32h-2.23l0.21-1.86h2v-3.22l2.39-.24v3.46h3.43v1.86h-3.43v6.86c0,2.5.16,2.66,2.74,2.66h0.61Z" transform="translate(-2776.25 -4748.13)"/><path class="cls-2" d="M2909.75,4777.3c0.35,3.62,2.42,4.65,4.89,4.65a9.39,9.39,0,0,0,3.75-.77l0.32,1.89a10.42,10.42,0,0,1-4.36,1c-4.6,0-7-3.14-7-6.89s2.34-6.68,6.38-6.68c3.24,0,5.61,2,5.61,5.5a7.47,7.47,0,0,1-.11,1.28h-9.44Zm0.21-1.65h6.86c0-1.83-1-3-3.19-3A3.46,3.46,0,0,0,2910,4775.65Z" transform="translate(-2776.25 -4748.13)"/><path class="cls-2" d="M2932.39,4783.82l-0.27-1.65a5.51,5.51,0,0,1-4,1.92c-3.33,0-5.93-3-5.93-6.78,0-3.56,2.29-6.78,5.93-6.78a5.09,5.09,0,0,1,4,1.65v-8.3h2.39v19.95h-2.13Zm-7.74-6.52c0,2.55,1.38,4.65,3.67,4.65,1.92,0,4.07-1.3,4.07-4.58s-2.15-4.73-4.07-4.73C2926,4772.65,2924.65,4774.64,2924.65,4777.3Z" transform="translate(-2776.25 -4748.13)"/><polygon class="cls-2" points="174.69 36.86 188.82 26.48 174.69 16.22 174.69 36.86"/></svg>