<svg id="Layer_4" data-name="Layer 4" xmlns="http://www.w3.org/2000/svg" viewBox="0 0 126.93 41.55"><defs><style>.cls-1{fill:#6cc5f5;}.cls-2{fill:#fff;}</style></defs><title>button_resume</title><rect class="cls-1" width="126.93" height="41.55"/><path class="cls-2" d="M2540.75,4849.7l-3.24-5.71h-3.07v5.71h-2.09v-14.63h4.75c3.05,0,5.06,1,5.06,4.29a4.46,4.46,0,0,1-2.68,4.12l3.41,6.23h-2.13Zm-6.31-13v5.39h3.16a2.45,2.45,0,0,0,2.49-2.72c0-1.69-1-2.68-3-2.68h-2.63Z" transform="translate(-2515.25 -4821.67)"/><path class="cls-2" d="M2546.54,4844.58c0.27,2.84,1.9,3.66,3.85,3.66a7.37,7.37,0,0,0,2.95-.61l0.25,1.48a8.19,8.19,0,0,1-3.43.79,5.18,5.18,0,0,1-5.54-5.41,4.91,4.91,0,0,1,5-5.25,4.09,4.09,0,0,1,4.41,4.33,5.9,5.9,0,0,1-.08,1h-7.42Zm0.17-1.3h5.39a2.19,2.19,0,0,0-2.51-2.36A2.72,2.72,0,0,0,2546.71,4843.28Z" transform="translate(-2515.25 -4821.67)"/><path class="cls-2" d="M2556.25,4849l0.23-1.82a5.1,5.1,0,0,0,3.2,1c1.32,0,2-.46,2-1.28,0-1.07-1.21-1.46-2-1.69-1.4-.38-3.22-0.88-3.22-2.95,0-1.57,1-3.07,3.85-3.07a5.66,5.66,0,0,1,2.78.67l-0.23,1.71a3.7,3.7,0,0,0-2.51-.9c-1.17,0-2,.42-2,1.38s0.77,1.21,2.38,1.69c1,0.29,2.93.92,2.93,3.05,0,1.36-.77,3.05-3.91,3.05A6.4,6.4,0,0,1,2556.25,4849Z" transform="translate(-2515.25 -4821.67)"/><path class="cls-2" d="M2573.06,4849.7l-0.21-1.13a3.17,3.17,0,0,1-2.84,1.34c-2.4,0-3.78-1.42-3.78-4.49v-6h1.88v5.44c0,2.17.69,3.34,2.38,3.34a2.68,2.68,0,0,0,2.36-1.17v-7.61h1.88v10.24h-1.67Z" transform="translate(-2515.25 -4821.67)"/><path class="cls-2" d="M2592.17,4849.7v-6c0-1.92-.71-2.76-2.4-2.76-2.4,0-2.72,1.69-2.72,2.84v5.94h-1.88v-5.64c0-2.51-1-3.14-2.4-3.14a3,3,0,0,0-2.72,1.34v7.44h-1.88v-10.24h1.46l0.21,1.09a4.12,4.12,0,0,1,3.07-1.3,3.63,3.63,0,0,1,3.47,2,3.85,3.85,0,0,1,3.74-2c2.57,0,3.93,1.4,3.93,4.41v6h-1.88Z" transform="translate(-2515.25 -4821.67)"/><path class="cls-2" d="M2598.76,4844.58c0.27,2.84,1.9,3.66,3.85,3.66a7.37,7.37,0,0,0,2.95-.61l0.25,1.48a8.19,8.19,0,0,1-3.43.79,5.18,5.18,0,0,1-5.54-5.41,4.91,4.91,0,0,1,5-5.25,4.09,4.09,0,0,1,4.41,4.33,5.9,5.9,0,0,1-.08,1h-7.42Zm0.17-1.3h5.39a2.19,2.19,0,0,0-2.51-2.36A2.72,2.72,0,0,0,2598.93,4843.28Z" transform="translate(-2515.25 -4821.67)"/><polygon class="cls-2" points="102.17 28.95 113.26 20.8 102.17 12.74 102.17 28.95"/></svg>