<svg xmlns="http://www.w3.org/2000/svg" viewBox="0 0 423.92 43.13"><defs><style>.cls-1{fill:#2e8bbd;}.cls-2{fill:#14608a;}</style></defs><title>Asset 2</title><g id="Layer_2" data-name="Layer 2"><g id="Interactive_elements" data-name="Interactive elements"><rect class="cls-1" x="0.04" width="423.87" height="42" rx="15.25" ry="15.25"/><rect class="cls-1" y="14.85" width="423.92" height="28.27"/><path class="cls-2" d="M36.75,13.63V10.12H35L23.59,8.7a.88.88,0,0,0-.88.88V20.1a.88.88,0,0,0,.88.88l11.23,1.21V25.7a34.6,34.6,0,0,0,10.45-1.21c5-1.51,11.49-6.33,11.64-8.23S48,17.8,36.75,13.63Z"/><path class="cls-2" d="M23.59,8.7c-.48,0-.88.29-.88.65V43.13h1.75V9.35C24.47,9,24.08,8.7,23.59,8.7Z"/></g></g></svg>