<svg id="Interactive_elements" data-name="Interactive elements" xmlns="http://www.w3.org/2000/svg" viewBox="0 0 226.55 525.32"><defs><style>.cls-1{fill:#fff;}.cls-2{fill:#2e8bbd;}</style></defs><title>references-quotes</title><rect class="cls-1" width="226.55" height="525.32"/><path class="cls-2" d="M7249.43,11783.58a6.06,6.06,0,0,1-2.11,4.57,7.06,7.06,0,0,1-5,2,8.38,8.38,0,0,1-6.91-3q-2.41-3-2.41-8.24,0-4.9,4.15-9.87a27,27,0,0,1,10-7.55l1.8,2.9a22.69,22.69,0,0,0-7.25,5.22,12.43,12.43,0,0,0-3,7.22H7241a12.53,12.53,0,0,1,4.14.57,6.62,6.62,0,0,1,2.58,1.59,5.67,5.67,0,0,1,1.33,2.16A7.79,7.79,0,0,1,7249.43,11783.58Zm20.11,0a6.06,6.06,0,0,1-2.11,4.57,7.06,7.06,0,0,1-5,2,8.38,8.38,0,0,1-6.91-3q-2.41-3-2.41-8.24,0-4.9,4.15-9.87a27,27,0,0,1,10-7.55l1.8,2.9a22.69,22.69,0,0,0-7.25,5.22,12.43,12.43,0,0,0-3,7.22h2.29a12.53,12.53,0,0,1,4.14.57,6.63,6.63,0,0,1,2.58,1.59,5.67,5.67,0,0,1,1.33,2.16A7.79,7.79,0,0,1,7269.54,11783.58Z" transform="translate(-7167.86 -11338.65)"/><path class="cls-2" d="M7310.11,11780.73a6.06,6.06,0,0,1,2.11-4.57,7.06,7.06,0,0,1,5-2,8.38,8.38,0,0,1,6.91,3q2.41,3,2.41,8.24,0,4.9-4.15,9.87a27,27,0,0,1-10,7.55l-1.8-2.9a22.69,22.69,0,0,0,7.25-5.22,12.43,12.43,0,0,0,3-7.22h-2.29a12.53,12.53,0,0,1-4.14-.57,6.62,6.62,0,0,1-2.58-1.59,5.67,5.67,0,0,1-1.33-2.16A7.79,7.79,0,0,1,7310.11,11780.73Zm-20.11,0a6.06,6.06,0,0,1,2.11-4.57,7.06,7.06,0,0,1,5-2,8.38,8.38,0,0,1,6.91,3q2.41,3,2.41,8.24,0,4.9-4.15,9.87a27,27,0,0,1-10,7.55l-1.8-2.9a22.69,22.69,0,0,0,7.25-5.22,12.43,12.43,0,0,0,3-7.22h-2.29a12.53,12.53,0,0,1-4.14-.57,6.63,6.63,0,0,1-2.58-1.59,5.67,5.67,0,0,1-1.33-2.16A7.79,7.79,0,0,1,7290,11780.73Z" transform="translate(-7167.86 -11338.65)"/><path class="cls-2" d="M7244.49,11608.12a4.2,4.2,0,0,1-4.72-2.23,1.36,1.36,0,0,1-.25-0.76,1.56,1.56,0,0,1,1.76-1.3c1.22,0,4.75,1.08,4.75,2.59A2,2,0,0,1,7244.49,11608.12Zm0.58,17.31a2,2,0,0,1-1.48-.5,6.88,6.88,0,0,1-2.05-4.32c-0.11-1.84-.11-3.64-0.11-5.47v-2.45a1.17,1.17,0,0,1,1.26-1.3,2.46,2.46,0,0,1,2.45,2.2c0,1.58-.47,3.13-0.47,4.68,0,3.42,2.77,4.86,2.77,5.87S7245.82,11625.43,7245.07,11625.43Z" transform="translate(-7167.86 -11338.65)"/><path class="cls-2" d="M7261.16,11613.73a2.8,2.8,0,0,1-2.38,1.62c-1.15,0-.54-1.73-1.15-1.73-0.22,0-1.94,1-2.66,1.3a0.42,0.42,0,0,0-.32.36,0.37,0.37,0,0,0,.14.25c0.5,0.54,1,1,1.55,1.51a41.94,41.94,0,0,1,3.67,3.92,3.35,3.35,0,0,1,.72,2,2.88,2.88,0,0,1-1,2.2,12.68,12.68,0,0,1-6.77,2.45,3,3,0,0,1-1.58-.36,2.28,2.28,0,0,1-1.22-1.84,1.55,1.55,0,0,1,1.62-1.51c0.65,0,1.22.4,1.91,0.4s3-.61,3-1.44a2.88,2.88,0,0,0-.65-1.22,15.48,15.48,0,0,0-4.14-3.67,3.58,3.58,0,0,1-1.76-3.13,2.46,2.46,0,0,1,1.55-2.41c1.66-.79,4.68-2.56,6.44-2.56a2.43,2.43,0,0,1,.5,0c1.48,0.4,2.66,1.19,2.66,2.84A4.46,4.46,0,0,1,7261.16,11613.73Z" transform="translate(-7167.86 -11338.65)"/><path class="cls-2" d="M7289.38,11617c-1.37,1.44-5.11,1.15-7,1.48a0.76,0.76,0,0,0-.79.9c0,0.9.32,3.2,1.58,3.2h0.22c0.76,0,1,.94,1,1.55,0,1-.32,1.84-1.4,1.84-3,0-3.89-2.2-4.1-4.79,0-.5,0-2.63-0.61-2.63s-1.22.22-1.84,0.22a2.32,2.32,0,0,1-2.59-2.23c0-1.26.86-1.3,1.87-1.3,0.68,0,1.4.07,2.09,0.07,0.29,0,.61,0,0.61-0.4v-1.26c0-.9,0-1.84,0-2.74a53,53,0,0,1,.4-6.77,2.44,2.44,0,0,1,2.66-2.34c3,0,8.28,3.74,8.28,6.95a3.86,3.86,0,0,1-1.44,2.84,2.48,2.48,0,0,1-1.37.76c-0.76,0-.76-0.79-0.76-1.33s0.07-1.12.07-1.66a3.24,3.24,0,0,0-.72-2.27c-0.58-.61-1.76-1.83-2.66-1.83-1.51,0-1.58,3.92-1.58,4.93a32.47,32.47,0,0,0,.25,4.18,0.74,0.74,0,0,0,.72.79,8.23,8.23,0,0,0,1.33.07c1.8,0,3.6-.43,5.4-0.43a0.86,0.86,0,0,1,1,.79A2.37,2.37,0,0,1,7289.38,11617Z" transform="translate(-7167.86 -11338.65)"/><path class="cls-2" d="M7305.15,11619.35c-0.72,3.17-3,6.66-6.62,6.66a6.6,6.6,0,0,1-6.37-6.19c0-2.84,1.55-4.72,3.85-6.16a18.47,18.47,0,0,0,3.06-2.23,3,3,0,0,1,2.12-1,2.17,2.17,0,0,1,2.09,1.48c0.76,1.87,2,4.07,2,6.08A5.7,5.7,0,0,1,7305.15,11619.35Zm-3.24-3.06c-0.07-.14-0.18-0.25-0.36-0.07a1.63,1.63,0,0,1-1.08.47c-0.83,0-1.3-.76-1.76-0.76a2.4,2.4,0,0,0-1.19.54,3.17,3.17,0,0,0-1.66,3c0,2,1,3.17,3.06,3.17s3.53-2.09,3.53-4A6,6,0,0,0,7301.91,11616.29Z" transform="translate(-7167.86 -11338.65)"/><path class="cls-2" d="M7318.29,11616.5c-0.5,0-.94-0.32-1.44-0.32a1,1,0,0,0-.79.5c-1.4,2.05-1,4.72-2,6.95a1.86,1.86,0,0,1-1.73,1.12,1.59,1.59,0,0,1-1.62-1.26c-0.4-1.48-.79-2.88-1.26-4.32s-2.05-3.28-2.05-4.9a1.57,1.57,0,0,1,1.69-1.69,2,2,0,0,1,1.08.32,3.76,3.76,0,0,1,1.87,3c0.07,0.4.11,0.83,0.22,1.22a0.23,0.23,0,0,0,.22.22,0.42,0.42,0,0,0,.32-0.32c0.94-1.8,0-3.78,2.77-4.43a5.84,5.84,0,0,1,1.12-.11c1.33,0,3,.61,3,2.16A1.64,1.64,0,0,1,7318.29,11616.5Z" transform="translate(-7167.86 -11338.65)"/><path class="cls-2" d="M7205.59,11659.91a1.08,1.08,0,0,1-.65-0.22c-1.3-.94-8.28-7-10.08-8.06-0.54-.32-0.5.14-0.5,0.68,0,1,0,1.94,0,2.92a18.08,18.08,0,0,1-.18,2.81,1.54,1.54,0,0,1-1.66,1.3,2.07,2.07,0,0,1-2.05-2.3,6.11,6.11,0,0,1,.5-2.12,9.25,9.25,0,0,0,.22-2.45,46.58,46.58,0,0,0-.94-9.54,7,7,0,0,1-.47-2.09,2.41,2.41,0,0,1,.68-1.76c1.91-2.05,4-2.41,6.7-2.41a13.1,13.1,0,0,1,7.7,2.88,2.34,2.34,0,0,1,1,2c0,2.34-1.94,4.36-3.78,5.54-0.58.36-2.52,1.44-3.31,2.05-0.36.25-.43,0.4,0,0.76,2,1.66,4,3.28,6,4.9,0.86,0.68,1.76,1.37,2.59,2.09a1,1,0,0,1,.36.79A2.52,2.52,0,0,1,7205.59,11659.91Zm-3.71-18.43c-1-.68-4.39-1.3-5.62-1.3-0.83,0-2.2.14-2.2,1.26,0,1.69.22,3.38,0.36,5.08,0,0.22.18,0.29,0.47,0.25a10.62,10.62,0,0,0,1.15-.22,11.41,11.41,0,0,0,5.94-2.81,1.49,1.49,0,0,0,.47-1.12A1.35,1.35,0,0,0,7201.88,11641.48Z" transform="translate(-7167.86 -11338.65)"/><path class="cls-2" d="M7227.37,11657.83c-1.4,1-4.36,1.4-6,1.4a12.5,12.5,0,0,1-4-.58c-2.84-.9-6.62-2.56-6.62-6a8.8,8.8,0,0,1,.07-1c0.54-3.56,2.63-5.18,5.51-7a11,11,0,0,1,5.72-2c2.12,0,5,1.08,5,3.6a3.77,3.77,0,0,1-1.15,2.63c-2.12,2.09-4.43,2-6.95,3.09a7.9,7.9,0,0,1-3,.72,2,2,0,0,1-1.44-.47c-0.14-.14-0.29-0.11-0.29.14,0,2.23,3.13,3,4.86,3.46a12.68,12.68,0,0,0,3.31.47,25.09,25.09,0,0,0,4-.47c0.11,0,.22,0,0.29,0a1.12,1.12,0,0,1,1.15,1.19A1,1,0,0,1,7227.37,11657.83Zm-4.5-12.09a9,9,0,0,0-1.37.22,13.65,13.65,0,0,0-6.66,3.46c-0.22.32-.07,0.4,0.32,0.22,1.19-.4,2.38-0.58,3.64-0.86,0.9-.18,4.68-1.3,4.68-2.38A0.61,0.61,0,0,0,7222.87,11645.73Z" transform="translate(-7167.86 -11338.65)"/><path class="cls-2" d="M7245.48,11649c-1.37,1.44-5.11,1.15-7,1.48a0.76,0.76,0,0,0-.79.9c0,0.9.32,3.2,1.58,3.2h0.22c0.76,0,1,.94,1,1.55,0,1-.32,1.84-1.4,1.84-3,0-3.89-2.2-4.1-4.79,0-.5,0-2.63-0.61-2.63s-1.22.22-1.84,0.22a2.32,2.32,0,0,1-2.59-2.23c0-1.26.86-1.3,1.87-1.3,0.68,0,1.4.07,2.09,0.07,0.29,0,.61,0,0.61-0.4v-1.26c0-.9,0-1.84,0-2.74a52.92,52.92,0,0,1,.4-6.77,2.43,2.43,0,0,1,2.66-2.34c3,0,8.28,3.74,8.28,6.95a3.86,3.86,0,0,1-1.44,2.84,2.48,2.48,0,0,1-1.37.76c-0.76,0-.76-0.79-0.76-1.33s0.07-1.12.07-1.66a3.24,3.24,0,0,0-.72-2.27c-0.58-.61-1.76-1.83-2.66-1.83-1.51,0-1.58,3.92-1.58,4.93a32.56,32.56,0,0,0,.25,4.18,0.74,0.74,0,0,0,.72.79,8.23,8.23,0,0,0,1.33.07c1.8,0,3.6-.43,5.4-0.43a0.86,0.86,0,0,1,1,.79A2.37,2.37,0,0,1,7245.48,11649Z" transform="translate(-7167.86 -11338.65)"/><path class="cls-2" d="M7265,11657.83c-1.4,1-4.36,1.4-6,1.4a12.5,12.5,0,0,1-4-.58c-2.84-.9-6.62-2.56-6.62-6a8.91,8.91,0,0,1,.07-1c0.54-3.56,2.63-5.18,5.51-7a11,11,0,0,1,5.72-2c2.12,0,5,1.08,5,3.6a3.77,3.77,0,0,1-1.15,2.63c-2.12,2.09-4.43,2-6.95,3.09a7.9,7.9,0,0,1-3,.72,2.05,2.05,0,0,1-1.44-.47c-0.14-.14-0.29-0.11-0.29.14,0,2.23,3.13,3,4.86,3.46a12.68,12.68,0,0,0,3.31.47,25.09,25.09,0,0,0,4-.47c0.11,0,.22,0,0.29,0a1.12,1.12,0,0,1,1.15,1.19A1,1,0,0,1,7265,11657.83Zm-4.5-12.09a9,9,0,0,0-1.37.22,13.65,13.65,0,0,0-6.66,3.46c-0.22.32-.07,0.4,0.32,0.22,1.19-.4,2.38-0.58,3.64-0.86,0.9-.18,4.68-1.3,4.68-2.38A0.61,0.61,0,0,0,7260.53,11645.73Z" transform="translate(-7167.86 -11338.65)"/><path class="cls-2" d="M7278.63,11648.5c-0.5,0-.94-0.32-1.44-0.32a1,1,0,0,0-.79.5c-1.4,2.05-1,4.72-2,6.95a1.86,1.86,0,0,1-1.73,1.12,1.59,1.59,0,0,1-1.62-1.26c-0.4-1.48-.79-2.88-1.26-4.32s-2.05-3.28-2.05-4.9a1.57,1.57,0,0,1,1.69-1.69,2,2,0,0,1,1.08.32,3.76,3.76,0,0,1,1.87,3c0.07,0.4.11,0.83,0.22,1.22a0.23,0.23,0,0,0,.22.22,0.42,0.42,0,0,0,.32-0.32c0.94-1.8,0-3.78,2.77-4.43a5.84,5.84,0,0,1,1.12-.11c1.33,0,3,.61,3,2.16A1.64,1.64,0,0,1,7278.63,11648.5Z" transform="translate(-7167.86 -11338.65)"/><path class="cls-2" d="M7299.33,11657.83c-1.4,1-4.36,1.4-6,1.4a12.5,12.5,0,0,1-4-.58c-2.84-.9-6.62-2.56-6.62-6a8.8,8.8,0,0,1,.07-1c0.54-3.56,2.63-5.18,5.51-7a11,11,0,0,1,5.72-2c2.12,0,5,1.08,5,3.6a3.77,3.77,0,0,1-1.15,2.63c-2.12,2.09-4.43,2-6.95,3.09a7.9,7.9,0,0,1-3,.72,2,2,0,0,1-1.44-.47c-0.14-.14-0.29-0.11-0.29.14,0,2.23,3.13,3,4.86,3.46a12.68,12.68,0,0,0,3.31.47,25.09,25.09,0,0,0,4-.47c0.11,0,.22,0,0.29,0a1.12,1.12,0,0,1,1.15,1.19A1,1,0,0,1,7299.33,11657.83Zm-4.5-12.09a9,9,0,0,0-1.37.22,13.65,13.65,0,0,0-6.66,3.46c-0.22.32-.07,0.4,0.32,0.22,1.19-.4,2.38-0.58,3.64-0.86,0.9-.18,4.68-1.3,4.68-2.38A0.62,0.62,0,0,0,7294.83,11645.73Z" transform="translate(-7167.86 -11338.65)"/><path class="cls-2" d="M7315.79,11659.34a3,3,0,0,1-1.12-.25c-3.35-1.55-1.76-6.3-2.88-8.28a1.68,1.68,0,0,0-.65-0.83,0.52,0.52,0,0,0-.4.25c-1.26,1.51-1.15,3.78-2.92,4.93a2.73,2.73,0,0,1-1.48.54c-1.37,0-2.16-1.69-2.16-2.88v-0.61a11.47,11.47,0,0,0-1.66-6.23,1.08,1.08,0,0,1-.22-0.65,2.88,2.88,0,0,1,2.63-2.52,1.85,1.85,0,0,1,.9.22c1.26,0.68,1.12,4.57,1.51,6a0.68,0.68,0,0,0,.4.65,1,1,0,0,0,.54-0.4,12.47,12.47,0,0,0,2-3.74,1,1,0,0,1,1.08-.65,3.23,3.23,0,0,1,2.41,1.33c0.9,1.44,1.3,4.25,1.55,5.94,0.14,0.83.4,3.67,1.19,4.07a1.7,1.7,0,0,1,1.19,1.48A1.83,1.83,0,0,1,7315.79,11659.34Z" transform="translate(-7167.86 -11338.65)"/><path class="cls-2" d="M7336.88,11647.39a1.77,1.77,0,0,1-1.58-1.26,0.89,0.89,0,0,0-1-.47c-1.84,0-5.54,1.58-7.27,2.38s-2.84,1.58-3.28,3.46a0.61,0.61,0,0,0,0,.25c0,1.91,3.53,3.56,5,3.89a7.27,7.27,0,0,0,1.51.18c1.48,0,2.74-.9,4.21-0.9a1.32,1.32,0,0,1,1.4,1.15,1.66,1.66,0,0,1-1.22,1.33,12.77,12.77,0,0,1-5.11,1.4,6.79,6.79,0,0,1-1.69-.22c-3.6-.94-7.42-2.88-7.42-7.13V11651c0.32-4.1,4.32-5.44,7.63-6.66a29.49,29.49,0,0,1,7.24-1.55,2.54,2.54,0,0,1,.5,0,2.31,2.31,0,0,1,2.56,2.34C7338.39,11646.05,7338,11647.39,7336.88,11647.39Z" transform="translate(-7167.86 -11338.65)"/><path class="cls-2" d="M7356.93,11657.83c-1.4,1-4.36,1.4-6,1.4a12.5,12.5,0,0,1-4-.58c-2.84-.9-6.62-2.56-6.62-6a8.8,8.8,0,0,1,.07-1c0.54-3.56,2.63-5.18,5.51-7a11,11,0,0,1,5.72-2c2.12,0,5,1.08,5,3.6a3.77,3.77,0,0,1-1.15,2.63c-2.12,2.09-4.43,2-6.95,3.09a7.9,7.9,0,0,1-3,.72,2.05,2.05,0,0,1-1.44-.47c-0.14-.14-0.29-0.11-0.29.14,0,2.23,3.13,3,4.86,3.46a12.68,12.68,0,0,0,3.31.47,25.09,25.09,0,0,0,4-.47c0.11,0,.22,0,0.29,0a1.12,1.12,0,0,1,1.15,1.19A1,1,0,0,1,7356.93,11657.83Zm-4.5-12.09a9,9,0,0,0-1.37.22,13.65,13.65,0,0,0-6.66,3.46c-0.22.32-.07,0.4,0.32,0.22,1.19-.4,2.38-0.58,3.64-0.86,0.9-.18,4.68-1.3,4.68-2.38A0.61,0.61,0,0,0,7352.43,11645.73Z" transform="translate(-7167.86 -11338.65)"/><path class="cls-2" d="M7371.41,11645.73a2.8,2.8,0,0,1-2.38,1.62c-1.15,0-.54-1.73-1.15-1.73-0.22,0-1.94,1-2.66,1.3a0.42,0.42,0,0,0-.32.36,0.37,0.37,0,0,0,.14.25c0.5,0.54,1,1,1.55,1.51a42,42,0,0,1,3.67,3.92,3.36,3.36,0,0,1,.72,2,2.88,2.88,0,0,1-1,2.2,12.68,12.68,0,0,1-6.77,2.45,3,3,0,0,1-1.58-.36,2.28,2.28,0,0,1-1.22-1.84,1.55,1.55,0,0,1,1.62-1.51c0.65,0,1.22.4,1.91,0.4s3-.61,3-1.44a2.88,2.88,0,0,0-.65-1.22,15.49,15.49,0,0,0-4.14-3.67,3.58,3.58,0,0,1-1.76-3.13,2.46,2.46,0,0,1,1.55-2.41c1.66-.79,4.68-2.56,6.44-2.56a2.43,2.43,0,0,1,.5,0c1.48,0.4,2.66,1.19,2.66,2.84A4.49,4.49,0,0,1,7371.41,11645.73Z" transform="translate(-7167.86 -11338.65)"/><path class="cls-2" d="M7226,11678.38a47.32,47.32,0,0,1-3.49,4.54q-0.59.65-.22,1c0.65,0.47,1.87,1.3,1.87,2.27a2.29,2.29,0,0,1-2,1.94,1.16,1.16,0,0,1-.79-0.5,23.18,23.18,0,0,1-1.51-1.76,0.86,0.86,0,0,0-.54-0.4c-0.79,0-3.38,3.42-6.84,3.42a3.47,3.47,0,0,1-3.74-3.28,4.08,4.08,0,0,1,.43-1.73,23.33,23.33,0,0,1,3.24-4.93l1-1.08a1,1,0,0,0,.32-1.12,25.31,25.31,0,0,1-.54-3.49,4.13,4.13,0,0,1,.22-1.33c0.58-1.94,1.84-4.28,4.18-4.28,1.76,0,3.53,1,3.53,3,0,2.59-3.71,6-3.71,6.8s1.87,3.6,2.66,3.6a0.81,0.81,0,0,0,.58-0.4,25.35,25.35,0,0,0,3.42-5.25,1,1,0,0,1,.72-0.61c0.9,0,1.44,1.94,1.44,2.63A1.91,1.91,0,0,1,7226,11678.38Zm-9.61,2.77a3.2,3.2,0,0,0-.76-1.15c-0.83,0-3.49,4-3.49,5a0.58,0.58,0,0,0,.76.61c1.4-.07,2.84-1.22,4.07-1.91a0.89,0.89,0,0,0,.61-0.72C7217.54,11682.45,7216.61,11681.65,7216.36,11681.15Zm-0.36-8.31c0,0.29,0,.65.36,0.65s1.19-1.33,1.19-2a0.26,0.26,0,0,0-.25-0.29A1.43,1.43,0,0,0,7216,11672.84Z" transform="translate(-7167.86 -11338.65)"/><path class="cls-2" d="M7262,11691.37a1.22,1.22,0,0,1-1-.65c-0.43-.58-1.91-2.3-2.63-2.3a0.76,0.76,0,0,0-.47.18c-1.87,1.26-3.56,2.48-5.94,2.48a4.23,4.23,0,0,1-.68,0c-6.19-.72-11.19-4-12.24-10.48a9.43,9.43,0,0,1-.07-1c0-5.54,7.06-10.76,12.27-10.76,4.68,0,3.71,4,5.87,4,0.65,0,1.19-.43,1.84-0.43,1.66,0,3,1.76,3.46,3.2a7.8,7.8,0,0,1,.47,2.74,8.36,8.36,0,0,1-.25,2.12,24.89,24.89,0,0,1-1.22,3.6,3.92,3.92,0,0,0-.29,1.12c0,1.19,3.13,2.88,3.13,3.82S7262.87,11691.37,7262,11691.37Zm-2.59-15.19a1,1,0,0,0-.94-0.83,7.59,7.59,0,0,1-3.1,1.08,1.77,1.77,0,0,1-1.94-2c0-1.51-.79-2.05-2.27-2.05-4,0-8.82,2.77-8.82,7.24s4.93,8.46,9.18,8.46c1.33,0,3.17-.22,4.1-1.3a0.66,0.66,0,0,0,.18-0.43c0-.76-4.5-3.49-4.5-5.08,0-.79.54-2.09,1.48-2.09,1.15,0,4.07,3.17,5.22,3.89a0.39,0.39,0,0,0,.58-0.14,7.23,7.23,0,0,0,1.08-4A11.36,11.36,0,0,0,7259.41,11676.18Z" transform="translate(-7167.86 -11338.65)"/><path class="cls-2" d="M7282.45,11691.08c-2.27,0-3.17-6.41-4-6.41a0.56,0.56,0,0,0-.36.4c-1.19,2.09-2.3,4.36-5.08,4.36-4.32,0-5.08-4.61-5.08-8a30.91,30.91,0,0,1,.65-6.3,1.38,1.38,0,0,1,1.48-.9c0.94,0,2.05.5,2.05,1.55,0,0.14,0,.25,0,0.36a18.82,18.82,0,0,0-.54,4.25c0,1,.36,5.33,1.73,5.33a1.82,1.82,0,0,0,1.22-.83,8.54,8.54,0,0,0,2.23-5.44c0-.29,0-0.58,0-0.86,0-1,1.22-1.48,2.05-1.48a1.83,1.83,0,0,1,1.87,1.33c0.65,2.12,1.84,7.74,3.42,9.07a1.89,1.89,0,0,1,.79,1.44A2.51,2.51,0,0,1,7282.45,11691.08Z" transform="translate(-7167.86 -11338.65)"/><path class="cls-2" d="M7299.84,11683.35c-0.72,3.17-3,6.66-6.62,6.66a6.6,6.6,0,0,1-6.37-6.19c0-2.84,1.55-4.72,3.85-6.16a18.49,18.49,0,0,0,3.06-2.23,3,3,0,0,1,2.12-1,2.17,2.17,0,0,1,2.09,1.48c0.76,1.87,2,4.07,2,6.08A5.68,5.68,0,0,1,7299.84,11683.35Zm-3.24-3.06c-0.07-.14-0.18-0.25-0.36-0.07a1.63,1.63,0,0,1-1.08.47c-0.83,0-1.3-.76-1.76-0.76a2.4,2.4,0,0,0-1.19.54,3.17,3.17,0,0,0-1.66,3c0,2,1,3.17,3.06,3.17s3.53-2.09,3.53-4A6,6,0,0,0,7296.6,11680.29Z" transform="translate(-7167.86 -11338.65)"/><path class="cls-2" d="M7317.15,11680c-1.4,1.48-3.56,1.8-5.51,1.8-0.79,0-1.58-.07-2.34-0.07a0.61,0.61,0,0,0-.68.54,13.81,13.81,0,0,0,.83,4.5,6.56,6.56,0,0,1,.79,2.27,1.86,1.86,0,0,1-1.91,1.69c-2.84,0-2.56-5-2.7-6.87a7.8,7.8,0,0,0-.54-2.23c-0.36-.94-3-0.79-3-2.81a1.68,1.68,0,0,1,1.94-1.83c0.29,0,.58.07,0.86,0.07s0.58-.11.54-0.29a39.52,39.52,0,0,1-1.08-6.77,1.33,1.33,0,0,1,1.51-1.37c1.22,0,2.88.94,2.88,2.3a1.92,1.92,0,0,1,0,.47,10.56,10.56,0,0,0-.4,2.81,19.26,19.26,0,0,0,.29,3.2,0.64,0.64,0,0,0,.68.61c0.9,0.07,1.8.07,2.66,0.07a8.83,8.83,0,0,0,3.24-.4,2.65,2.65,0,0,1,1.37-.61,1.34,1.34,0,0,1,1.15,1.48A2.14,2.14,0,0,1,7317.15,11680Z" transform="translate(-7167.86 -11338.65)"/><path class="cls-2" d="M7335.94,11689.83c-1.4,1-4.36,1.4-6,1.4a12.5,12.5,0,0,1-4-.58c-2.84-.9-6.62-2.56-6.62-6a8.8,8.8,0,0,1,.07-1c0.54-3.56,2.63-5.18,5.51-7a11,11,0,0,1,5.72-2c2.12,0,5,1.08,5,3.6a3.77,3.77,0,0,1-1.15,2.63c-2.12,2.09-4.43,2-6.95,3.09a7.9,7.9,0,0,1-3,.72,2,2,0,0,1-1.44-.47c-0.14-.14-0.29-0.11-0.29.14,0,2.23,3.13,3,4.86,3.46a12.68,12.68,0,0,0,3.31.47,25.09,25.09,0,0,0,4-.47c0.11,0,.22,0,0.29,0a1.12,1.12,0,0,1,1.15,1.19A1,1,0,0,1,7335.94,11689.83Zm-4.5-12.09a9,9,0,0,0-1.37.22,13.65,13.65,0,0,0-6.66,3.46c-0.22.32-.07,0.4,0.32,0.22,1.19-.4,2.38-0.58,3.64-0.86,0.9-.18,4.68-1.3,4.68-2.38A0.62,0.62,0,0,0,7331.45,11677.73Z" transform="translate(-7167.86 -11338.65)"/><path class="cls-2" d="M7350.42,11677.73a2.8,2.8,0,0,1-2.38,1.62c-1.15,0-.54-1.73-1.15-1.73-0.22,0-1.94,1-2.66,1.3a0.42,0.42,0,0,0-.32.36,0.37,0.37,0,0,0,.14.25c0.5,0.54,1,1,1.55,1.51a42,42,0,0,1,3.67,3.92,3.36,3.36,0,0,1,.72,2,2.88,2.88,0,0,1-1,2.2,12.68,12.68,0,0,1-6.77,2.45,3,3,0,0,1-1.58-.36,2.28,2.28,0,0,1-1.22-1.84,1.55,1.55,0,0,1,1.62-1.51c0.65,0,1.22.4,1.91,0.4s3-.61,3-1.44a2.88,2.88,0,0,0-.65-1.22,15.48,15.48,0,0,0-4.14-3.67,3.58,3.58,0,0,1-1.76-3.13,2.46,2.46,0,0,1,1.55-2.41c1.66-.79,4.68-2.56,6.44-2.56a2.43,2.43,0,0,1,.5,0c1.48,0.4,2.66,1.19,2.66,2.84A4.46,4.46,0,0,1,7350.42,11677.73Z" transform="translate(-7167.86 -11338.65)"/><path class="cls-2" d="M7213.73,11571.29v-166.47h67.64a99.83,99.83,0,0,1,21,2.25,53.58,53.58,0,0,1,18.84,7.86,43.84,43.84,0,0,1,13.73,15.1q5.36,9.49,5.37,24.21a65.17,65.17,0,0,1-2.25,17.22,50.82,50.82,0,0,1-6.86,15.1,47.3,47.3,0,0,1-12,12.1,58.39,58.39,0,0,1-17.6,8.24l42.68,64.39h-38.19l-41.18-62.4h-18.22v62.4h-32.94Zm32.94-91.1h25.71q18.22,0,26.46-5.74t8.24-17q0-12-7.74-17.85t-27-5.87h-25.71v46.42Z" transform="translate(-7167.86 -11338.65)"/></svg>