<svg id="Interactive_elements" data-name="Interactive elements" xmlns="http://www.w3.org/2000/svg" viewBox="0 0 30.49 30.49"><defs><style>.cls-1{fill:#ddd;}.cls-2{fill:#c9c9c9;}</style></defs><title>redo-button</title><circle class="cls-1" cx="15.25" cy="15.25" r="12.43"/><path class="cls-2" d="M826.11,13118.69a15.25,15.25,0,1,0,15.25,15.25A15.25,15.25,0,0,0,826.11,13118.69Zm3.1,25.35-0.16,0a0.47,0.47,0,0,1-.2-0.9c2.21-1,3.47-2.54,3.47-4.1,0-2.65-3.66-4.8-8.7-5.13v2.51a0.82,0.82,0,0,1-.45.73l-0.17.06-0.16,0h0a0.81,0.81,0,0,1-.51-0.15l-6.23-5.46a0.82,0.82,0,0,1,0-1.32l6.23-5.46a0.82,0.82,0,0,1,.85-0.07,0.79,0.79,0,0,1,.2.14h0a0.84,0.84,0,0,1,.11.14l0,0a1,1,0,0,1,.06.14l0,0.05a0.82,0.82,0,0,1,0,.2v2.42h0c7.37,0.74,12.71,4.39,12.71,8.66C836.38,13139.65,833.7,13142.43,829.21,13144Z" transform="translate(-810.86 -13118.69)"/></svg>