<svg id="Interactive_elements" data-name="Interactive elements" xmlns="http://www.w3.org/2000/svg" viewBox="0 0 41.08 41.08"><defs><style>.cls-1,.cls-3{fill:#ffca00;}.cls-2{fill:#14608a;}.cls-3{stroke:#14608a;stroke-linecap:round;stroke-miterlimit:10;stroke-width:0.8px;}</style></defs><title>DeckerDigitalLab_Interactive-elements_04</title><circle class="cls-1" cx="20.54" cy="20.54" r="20.54"/><path class="cls-2" d="M271.85,2690.84c0.78-1.26-2.44-6.07-9.69-6.07s-10.41,5.08-9.65,6.07,4.16-1.77,9.44-1.77C267.7,2689.07,271.08,2692.1,271.85,2690.84Z" transform="translate(-241.65 -2659.99)"/><path class="cls-2" d="M260,2676.44c0,1.81-2.81,2.81-5.85,4.4-1,.54.83-3.17,0.83-4.7s-1-4.92-.24-4.46C256.26,2672.6,260,2674.4,260,2676.44Z" transform="translate(-241.65 -2659.99)"/><path class="cls-3" d="M254.37,2671.88s4.06,3.12,4.06,4.35-4.53,4.36-4.53,4.36" transform="translate(-241.65 -2659.99)"/><path class="cls-2" d="M264.34,2676.44c0,1.81,2.81,2.81,5.85,4.4,1,0.54-.83-3.17-0.83-4.7s1-4.92.24-4.46C268.12,2672.6,264.34,2674.4,264.34,2676.44Z" transform="translate(-241.65 -2659.99)"/><path class="cls-3" d="M270,2671.88s-4.06,3.12-4.06,4.35,4.53,4.36,4.53,4.36" transform="translate(-241.65 -2659.99)"/></svg>