<svg id="Interactive_elements" data-name="Interactive elements" xmlns="http://www.w3.org/2000/svg" viewBox="0 0 183.98 166.3"><defs><style>.cls-1{fill:#e1f0fb;}.cls-2{fill:#89d1f7;}.cls-3,.cls-5{fill:#2e8bbd;}.cls-4{fill:#14608a;}.cls-5{stroke:#fff;stroke-width:1px;}</style></defs><title>backspace_clear</title><rect class="cls-1" width="183.98" height="129.03"/><path class="cls-2" d="M5976.91,5325.64c1.65,0.51,21.14-7,18.52-18.71-0.85-3.77-22.83-16.92-16.17-55.29,1.92-11.08,1.93-15,21.88-14s36.06-8.67,35.37,22.5c-0.45,20.33-9,30.79-12.5,37.25-2.19,4-5.9,5.88-5.56,7.93,2.7,16,22.28,21.91,22.28,21.91l-25.84,14.09Z" transform="translate(-5914.78 -5223.98)"/><path class="cls-3" d="M6042.86,5277.53a38.13,38.13,0,0,0-1-23.45c-0.42-5.49-1.54-10.05-3.23-12.8-12.74-20.63-39.61-5.74-39.61-5.74s-11.46-4.39-18.67,2.14l-0.49.31a28,28,0,0,0-10.71,13.48,12.76,12.76,0,0,1,4.3-3.93,24.19,24.19,0,0,0-1.82,9,25.53,25.53,0,0,0-.69,6.43,20.72,20.72,0,0,1,.95-3,22.08,22.08,0,0,0,1.16,4.43c1.59,4.23-.45,14.74,4.81,25.09a29.32,29.32,0,0,0,4.71,12.22,43.07,43.07,0,0,1-.45-5.93,35,35,0,0,0,4.5,4.31,50.68,50.68,0,0,0,2.9,4.57c-0.29-1.06-.62-2.1-1-3.13a50.57,50.57,0,0,0,8.88,5,9.36,9.36,0,0,0-2.89-4.08c-14.41-11.49-12-36.77-6.3-44.07,9-11.49,12.6,1.91,36,5.74,8,1.32,7.29,27.9-4.26,37.81-1.84,1.58-1.56,2.78-1.93,5.34,9.83-2.33,14.91-10.16,19-20.42,0,1.85-.07,3.69-0.25,5.53a22.78,22.78,0,0,0,4.13-12.08,48,48,0,0,0-.06-7.24q0.31-1.77.54-3.53a19.36,19.36,0,0,1,1.48,7.94" transform="translate(-5914.78 -5223.98)"/><path class="cls-4" d="M6051.2,5353.07c-0.52-9.89-1.25-21.17-2-23.55-2.36-7.57-19-9-19-9s-11.07,12.75-22.86,12.75-20.21-13.53-20.21-13.53-13.33,1-19.5,8c-2.36,2.7-3.5,14.85-4,25.25h87.65Z" transform="translate(-5914.78 -5223.98)"/><path class="cls-3" d="M5995.78,5376.6s3.86-.22,4.52-0.88,1.87-3.76,3.15-5.13c1-1,1.93-1.27,2.48-2s3.09-6.62,3.09-6.62,0.77-1.32,1.66-1.32,2.1,1.21,1.88,3.09a45.84,45.84,0,0,1-1.1,5.63c-0.22.66-.33,2.32,0.22,2.43s5,0.76,6.07.77c1.7,0,3.87-.15,3.86,2.43,0,2.87-1.1,2.87-1.1,2.87a2.21,2.21,0,0,1,.77,2,3.1,3.1,0,0,1-1.32,2.32s0.87,0.4.54,1.95a2.49,2.49,0,0,1-1.53,1.91,2,2,0,0,1-.55,2.1c-1,.66-4.63,2-10.15,1.1s-5.63-1.21-6.73-1.21-5,.33-5,0.33Z" transform="translate(-5914.78 -5223.98)"/><rect class="cls-5" x="5992.64" y="5375.28" width="5.84" height="14.19" transform="translate(-6419.73 -4601.87) rotate(-5.7)"/></svg>