<svg xmlns="http://www.w3.org/2000/svg" viewBox="0 0 272.82 130.56"><defs><style>.cls-1{fill:#e8f3fc;}.cls-2,.cls-3{fill:#2e8bbd;}.cls-3{font-size:24px;font-family:Cabin-Regular, Cabin;}.cls-4{letter-spacing:-0.01em;}.cls-5{letter-spacing:-0.02em;}.cls-6{letter-spacing:-0.01em;}.cls-7{letter-spacing:-0.01em;}</style></defs><title>navigating-button</title><g id="Layer_2" data-name="Layer 2"><g id="Interactive_elements" data-name="Interactive elements"><path class="cls-1" d="M258.3,0H14.52C6.52,0,0,6.52,0,12.78v105c0,6.26,6.53,12.78,14.52,12.78H258.3c8,0,14.52-6.52,14.52-12.78v-105C272.82,6.49,266.28,0,258.3,0Z"/><path class="cls-2" d="M148.39,39.62h-2V28.88a10,10,0,1,0-20,0v3.7h4.29v-3.7a5.73,5.73,0,1,1,11.46,0V39.62H124.36a4,4,0,0,0-4,4v18.5a4,4,0,0,0,4,4h24.11a4,4,0,0,0,4-4V43.62a4,4,0,0,0-4-4Zm-10,20H134.2L133.41,53a2.89,2.89,0,0,1,5.77,0Z"/><text class="cls-3" transform="translate(24.11 104.59)"><tspan class="cls-4">N</tspan><tspan class="cls-5" x="16.66" y="0">a</tspan><tspan x="27.74" y="0">vig</tspan><tspan class="cls-6" x="56.59" y="0">a</tspan><tspan x="67.87" y="0">ting the </tspan><tspan class="cls-7" x="150.6" y="0">C</tspan><tspan x="165.04" y="0">ourse</tspan></text></g></g></svg>