<svg id="Interactive_elements" data-name="Interactive elements" xmlns="http://www.w3.org/2000/svg" viewBox="0 0 272.82 130.54"><defs><style>.cls-1{fill:#e8f3fc;}.cls-2{fill:#2e8bbd;}</style></defs><title>button_recording-issues</title><path class="cls-1" d="M985,5320.14H741.21c-8,0-14.52,6.52-14.52,12.78v105c0,6.26,6.53,12.78,14.52,12.78H985c8,0,14.52-6.52,14.52-12.78v-105C999.51,5326.67,993,5320.14,985,5320.14Z" transform="translate(-726.7 -5320.14)"/><path class="cls-2" d="M790.23,5427.94l-3.72-6.55H783v6.55h-2.4v-16.8H786c3.5,0,5.81,1.15,5.81,4.92a5.12,5.12,0,0,1-3.07,4.73l3.91,7.15h-2.45ZM783,5413v6.19h3.62a2.81,2.81,0,0,0,2.86-3.12c0-1.94-1.18-3.07-3.46-3.07h-3Z" transform="translate(-726.7 -5320.14)"/><path class="cls-2" d="M795.63,5422.06c0.31,3.26,2.18,4.2,4.42,4.2a8.47,8.47,0,0,0,3.38-.7l0.29,1.7a9.4,9.4,0,0,1-3.94.91,5.94,5.94,0,0,1-6.36-6.22c0-3.29,2.11-6,5.76-6a4.7,4.7,0,0,1,5.06,5,6.73,6.73,0,0,1-.1,1.15h-8.52Zm0.19-1.49H802c0-1.66-.91-2.71-2.88-2.71A3.12,3.12,0,0,0,795.82,5420.57Z" transform="translate(-726.7 -5320.14)"/><path class="cls-2" d="M805.76,5422c0-3.43,1.92-6.1,5.83-6.1a7.61,7.61,0,0,1,3.62.7l-0.34,1.94a6.87,6.87,0,0,0-3-.72c-2.62,0-3.86,1.56-3.86,4.18s1.25,4.25,3.86,4.25a7,7,0,0,0,3.07-.72l0.29,1.73a6,6,0,0,1-3.58.89C807.7,5428.18,805.76,5425.32,805.76,5422Z" transform="translate(-726.7 -5320.14)"/><path class="cls-2" d="M816.46,5422.06c0-3.41,2.14-6.12,5.83-6.12s5.83,2.71,5.83,6.12-2.16,6.12-5.83,6.12S816.46,5425.47,816.46,5422.06Zm2.21,0c0,2.64,1.3,4.2,3.62,4.2s3.62-1.56,3.62-4.2-1.3-4.2-3.62-4.2S818.67,5419.42,818.67,5422.06Z" transform="translate(-726.7 -5320.14)"/><path class="cls-2" d="M836.09,5418.12h-0.74a3.58,3.58,0,0,0-2.69,1.51v8.3h-2.3v-11.76h1.78l0.26,1.94c1.42-1.61,2.54-2.38,4-2.38h0.19Z" transform="translate(-726.7 -5320.14)"/><path class="cls-2" d="M846.25,5427.94l-0.24-1.49a5,5,0,0,1-3.6,1.73c-3,0-5.35-2.69-5.35-6.12,0-3.22,2.06-6.12,5.35-6.12a4.59,4.59,0,0,1,3.6,1.49v-7.49h2.16v18h-1.92Zm-7-5.88c0,2.3,1.25,4.2,3.31,4.2,1.73,0,3.67-1.18,3.67-4.13s-1.94-4.27-3.67-4.27C840.51,5417.86,839.26,5419.66,839.26,5422.06Z" transform="translate(-726.7 -5320.14)"/><path class="cls-2" d="M851.07,5413.54v-2.4h2.16v2.4h-2.16Zm0,14.4v-11.76h2.16v11.76h-2.16Z" transform="translate(-726.7 -5320.14)"/><path class="cls-2" d="M864.61,5427.94v-6.48c0-2.5-.84-3.6-3.07-3.6a3.56,3.56,0,0,0-3.22,1.54v8.54h-2.16v-11.76h1.68l0.24,1.25a5.48,5.48,0,0,1,3.89-1.49c3.43,0,4.8,2.14,4.8,5.52v6.48h-2.16Z" transform="translate(-726.7 -5320.14)"/><path class="cls-2" d="M868.73,5430.39a2.74,2.74,0,0,1,2.09-2.64,1.73,1.73,0,0,1-1.2-1.49,2.09,2.09,0,0,1,1.39-1.75,4.7,4.7,0,0,1,2.76-8.57,5.38,5.38,0,0,1,3,.86,6,6,0,0,1,2.86-.67h0.19l-0.26,1.44H879a8,8,0,0,0-1.39.17,4.13,4.13,0,0,1,1.08,2.81,4.57,4.57,0,0,1-4.75,4.68,6.42,6.42,0,0,1-1.68-.22,0.93,0.93,0,0,0-.58.72c0,0.6.86,0.77,3.65,1.25,1.85,0.31,4.8,1,4.8,3.26,0,1.9-2,3.7-5.91,3.7C870.15,5433.94,868.73,5431.95,868.73,5430.39Zm3.94-2.11a2.47,2.47,0,0,0-1.87,2.06c0,1.08,1.27,1.92,3.53,1.92s3.62-1,3.62-1.87-1-1.44-3.14-1.82Zm-1.63-7.68a2.72,2.72,0,0,0,2.81,3,2.76,2.76,0,0,0,2.78-3A2.8,2.8,0,1,0,871,5420.59Z" transform="translate(-726.7 -5320.14)"/><path class="cls-2" d="M887.38,5427.94v-16.8h2.28v16.8h-2.28Z" transform="translate(-726.7 -5320.14)"/><path class="cls-2" d="M892.11,5427.15l0.26-2.09a5.85,5.85,0,0,0,3.67,1.2c1.51,0,2.35-.53,2.35-1.46,0-1.22-1.39-1.68-2.35-1.94-1.61-.43-3.7-1-3.7-3.38,0-1.8,1.2-3.53,4.42-3.53a6.51,6.51,0,0,1,3.19.77l-0.26,2a4.25,4.25,0,0,0-2.88-1c-1.34,0-2.28.48-2.28,1.58s0.89,1.39,2.74,1.94c1.15,0.34,3.36,1.06,3.36,3.5,0,1.56-.89,3.5-4.49,3.5A7.35,7.35,0,0,1,892.11,5427.15Z" transform="translate(-726.7 -5320.14)"/><path class="cls-2" d="M902,5427.15l0.26-2.09a5.85,5.85,0,0,0,3.67,1.2c1.51,0,2.35-.53,2.35-1.46,0-1.22-1.39-1.68-2.35-1.94-1.61-.43-3.7-1-3.7-3.38,0-1.8,1.2-3.53,4.42-3.53a6.51,6.51,0,0,1,3.19.77l-0.26,2a4.25,4.25,0,0,0-2.88-1c-1.34,0-2.28.48-2.28,1.58s0.89,1.39,2.74,1.94c1.15,0.34,3.36,1.06,3.36,3.5,0,1.56-.89,3.5-4.49,3.5A7.35,7.35,0,0,1,902,5427.15Z" transform="translate(-726.7 -5320.14)"/><path class="cls-2" d="M920.4,5427.94l-0.24-1.3a3.64,3.64,0,0,1-3.26,1.54c-2.76,0-4.34-1.63-4.34-5.16v-6.84h2.16v6.24c0,2.5.79,3.84,2.74,3.84a3.07,3.07,0,0,0,2.71-1.34v-8.74h2.16v11.76H920.4Z" transform="translate(-726.7 -5320.14)"/><path class="cls-2" d="M926.74,5422.06c0.31,3.26,2.18,4.2,4.42,4.2a8.47,8.47,0,0,0,3.38-.7l0.29,1.7a9.4,9.4,0,0,1-3.94.91,5.94,5.94,0,0,1-6.36-6.22c0-3.29,2.11-6,5.76-6a4.7,4.7,0,0,1,5.06,5,6.73,6.73,0,0,1-.1,1.15h-8.52Zm0.19-1.49h6.19c0-1.66-.91-2.71-2.88-2.71A3.12,3.12,0,0,0,926.93,5420.57Z" transform="translate(-726.7 -5320.14)"/><path class="cls-2" d="M936.84,5427.15l0.26-2.09a5.85,5.85,0,0,0,3.67,1.2c1.51,0,2.35-.53,2.35-1.46,0-1.22-1.39-1.68-2.35-1.94-1.61-.43-3.7-1-3.7-3.38,0-1.8,1.2-3.53,4.42-3.53a6.51,6.51,0,0,1,3.19.77l-0.26,2a4.25,4.25,0,0,0-2.88-1c-1.34,0-2.28.48-2.28,1.58s0.89,1.39,2.74,1.94c1.15,0.34,3.36,1.06,3.36,3.5,0,1.56-.89,3.5-4.49,3.5A7.35,7.35,0,0,1,936.84,5427.15Z" transform="translate(-726.7 -5320.14)"/><path class="cls-2" d="M852,5364v2.67a10.28,10.28,0,0,0,10.36,9.93c5.84,0,10.35-5.06,10.35-9.93v-2.58a13.49,13.49,0,0,0,2.28-.61v-4.58c0-.62-1.25-1.2-2.05-1.71v-18c0-4.19-4.74-5.11-10.58-5.11s-10.58.93-10.58,5.11v18c-0.8.52-1.81,1.1-1.81,1.71v4.58A8.57,8.57,0,0,0,852,5364Z" transform="translate(-726.7 -5320.14)"/><path class="cls-2" d="M876.56,5366.65v-1.88h0.5a2.65,2.65,0,1,0,0-5.3h-2.37v7.19a12.36,12.36,0,0,1-24.71,0v-7.19h-2.37a2.65,2.65,0,1,0,0,5.3h0.5v1.88a14.24,14.24,0,0,0,12.72,14.14v2.9c-7.74.19-13.77,1.68-13.77,3.5s6.9,3.52,15.42,3.52,15.42-1.58,15.42-3.52-6.19-3.35-14.07-3.5v-2.9A14.24,14.24,0,0,0,876.56,5366.65Z" transform="translate(-726.7 -5320.14)"/></svg>