<svg id="Interactive_elements" data-name="Interactive elements" xmlns="http://www.w3.org/2000/svg" xmlns:xlink="http://www.w3.org/1999/xlink" viewBox="0 0 205.82 166.55"><defs><style>.cls-1{fill:none;}.cls-2{fill:#e1f0fb;}.cls-3{clip-path:url(#clip-path);}.cls-4{fill:#6cc5f5;}.cls-5{fill:#14608a;}.cls-6{fill:#2e8bbd;}.cls-7{fill:#c53a43;}</style><clipPath id="clip-path" transform="translate(-8897.72 -5213.08)"><rect class="cls-1" x="8919.55" y="5213.08" width="183.98" height="129.03"/></clipPath></defs><title>not_centered</title><rect class="cls-2" x="21.83" width="183.98" height="129.03"/><rect class="cls-1" x="21.8" width="183.98" height="129.03"/><g class="cls-3"><path class="cls-4" d="M8923,5273.07s-6.95-4-6.95,5.21c0,5.44,5,13.58,6.73,14.72s4.59,0.57,4.59.57,2.49,12.38,7.08,16.39,8,5,8,5L8941,5330.7l3.33,19.32,24.67-.57,2.09-15.69-2.33-18.6s5.94-3.16,8.81-7.18c1.58-2.22,5.95-14.94,5.95-14.94s2.77,2.3,5-.07,3.45-9.29,4-14.5c1.24-11.2-6-6.65-6-6.65a45.63,45.63,0,0,0-7.46-25.62c-8.33-12.65-37.76-12.77-45.64-2C8922.48,5259.28,8923,5273.07,8923,5273.07Z" transform="translate(-8897.72 -5213.08)"/><path class="cls-5" d="M8941.28,5326.62s-27.77,3.51-33.06,9.36-7,9.95-7.93,19.89c-0.43,4.67-2.57,23.31-2.57,23.31l114.26,0.37s-1.22-21.83-1.22-26.51-0.71-11.21-6-17.06-34.38-9.36-34.38-9.36-4.11,7.64-14.69,7.64S8941.28,5326.62,8941.28,5326.62Z" transform="translate(-8897.72 -5213.08)"/><path class="cls-6" d="M8923,5273.07l1.95,6s2.38-16.24,6.73-23,5.94-11.88,10.69-12.28,9.5,3.56,15.84,4.36,9.9-6.34,13.86-3.56,4.75,3.17,7.92,11.09,3.56,18.61,3.56,18.61l3-2.5s3.3-33.54-30-35.91S8923,5273.07,8923,5273.07Z" transform="translate(-8897.72 -5213.08)"/></g><polygon class="cls-7" points="127.02 144.36 123.75 141.09 114.29 150.54 104.83 141.09 101.56 144.36 111.02 153.82 101.56 163.27 104.83 166.55 114.29 157.09 123.75 166.55 127.02 163.27 117.56 153.82 127.02 144.36"/></svg>