<svg id="Interactive_elements" data-name="Interactive elements" xmlns="http://www.w3.org/2000/svg" viewBox="0 0 35.14 45.49"><defs><style>.cls-1{fill:#2e8bbd;}</style></defs><title>icon_curriculum</title><path class="cls-1" d="M3659.65,5065.89h-4.49V5069h2.92v37.25h-23.83V5069h7v-3.16h-11.08c-2,0-4.09,1.07-4.09,3.48V5106c0,2.4,2.05,3.47,4.09,3.47h29.47a1.58,1.58,0,0,0,1.58-1.58v-40.41A1.58,1.58,0,0,0,3659.65,5065.89Z" transform="translate(-3626.09 -5063.96)"/><path class="cls-1" d="M3643.57,5090.73a0.71,0.71,0,0,0,.24,0h0.07l0.17,0,0.07,0a0.64,0.64,0,0,0,.2-0.13l3.88-3.88,3.89,3.88a0.64,0.64,0,0,0,.2.13l0.07,0,0.17,0h0.07a0.64,0.64,0,0,0,.46-0.2,0.68,0.68,0,0,0,.2-0.49v-25.44a0.68,0.68,0,0,0-.69-0.69h-8.74a0.72,0.72,0,0,0-.19,0h-0.08a0.69,0.69,0,0,0-.42.63v25.44A0.69,0.69,0,0,0,3643.57,5090.73Z" transform="translate(-3626.09 -5063.96)"/></svg>