<svg id="Interactive_elements" data-name="Interactive elements" xmlns="http://www.w3.org/2000/svg" viewBox="0 0 33.79 366.75"><defs><style>.cls-1{fill:#777;}.cls-2,.cls-3{fill:#fff;}.cls-3{opacity:0.5;}</style></defs><title>main-body</title><rect class="cls-1" width="33.79" height="366.75"/><path class="cls-2" d="M210.19,9665.52l-6.43.82,4.42,2.44-4.4,2.45,6.42,0.82v1.81l-9.6-1.32v-1.43l4.38-2.33-4.38-2.32V9665l9.6-1.32v1.81Z" transform="translate(-187.79 -9447.82)"/><path class="cls-2" d="M210.19,9654.94l-2.32.82v3.17l2.32,0.82v1.81l-9.6-3.39v-1.65l9.6-3.39v1.81Zm-6.83,2.41,2.81,1v-2Z" transform="translate(-187.79 -9447.82)"/><path class="cls-2" d="M210.19,9650.76h-9.6V9649h9.6v1.74Z" transform="translate(-187.79 -9447.82)"/><path class="cls-2" d="M210.19,9639.56l-6.58,4.36h6.58v1.74h-9.6V9644l6.2-4.07h-6.2v-1.74h9.6v1.43Z" transform="translate(-187.79 -9447.82)"/><path class="cls-2" d="M210.19,9630.24h-9.6v-2.58c0-2.19.34-3.65,2.47-3.65a2.45,2.45,0,0,1,2,.8,2.23,2.23,0,0,1,2.3-1.66c2.22,0,2.83,1.81,2.83,3.41v3.68Zm-8.11-1.74h2.36v-1.7a1,1,0,0,0-1.12-1.16,1.09,1.09,0,0,0-1.23,1.32v1.54Zm3.74,0h2.87v-1.72c0-1.12-.34-1.83-1.43-1.83s-1.44.75-1.44,1.73v1.81Z" transform="translate(-187.79 -9447.82)"/><path class="cls-2" d="M205.39,9621c-3,0-5-2-5-4.7s2-4.7,5-4.7,5,2,5,4.7S208.41,9621,205.39,9621Zm0-1.91c1.92,0,3.31-.94,3.31-2.79s-1.39-2.79-3.31-2.79-3.31.94-3.31,2.79S203.47,9619.06,205.39,9619.06Z" transform="translate(-187.79 -9447.82)"/><path class="cls-2" d="M210.19,9608.73h-9.6v-3.57a4.8,4.8,0,0,1,9.6,0v3.57Zm-7.92-1.74h6.23v-1.83c0-1.85-1.19-2.79-3.11-2.79s-3.11.94-3.11,2.79V9607Z" transform="translate(-187.79 -9447.82)"/><path class="cls-2" d="M205.94,9594.3h4.25V9596h-4.25l-5.35,3.3v-1.85l3.79-2.32-3.79-2.32V9591Z" transform="translate(-187.79 -9447.82)"/><polygon class="cls-3" points="13.2 133.46 13.13 122.94 22.34 128.14 13.2 133.46"/></svg>