<svg id="Interactive_elements" data-name="Interactive elements" xmlns="http://www.w3.org/2000/svg" viewBox="0 0 293.41 206.27"><defs><style>.cls-1{fill:#6cc5f5;}</style></defs><title>talk-bubble-blue</title><path class="cls-1" d="M11008.83,2776.26c57.71,0,136.2,43.5,119.44,121.82-13.64,63.76-55.11,83.34-131.82,84.41-109.62,1.54-167-36.39-155.19-109.91C10856,2780.55,10950.32,2776.26,11008.83,2776.26Z" transform="translate(-10839.74 -2776.26)"/><path class="cls-1" d="M11103.59,2822.4a75.37,75.37,0,0,1,13.22-21.9c4.94-5.87,10.53-11.13,15.76-16.73,1.4-1.5.09-4.33-2-4-9.48,1.43-18.53,5.77-27.07,9.91-9.32,4.52-18.38,9.55-27.41,14.61C11073.35,2805.82,11103.13,2823.64,11103.59,2822.4Z" transform="translate(-10839.74 -2776.26)"/></svg>