<svg id="Interactive_elements" data-name="Interactive elements" xmlns="http://www.w3.org/2000/svg" viewBox="0 0 112.12 112.05"><defs><style>.cls-1{fill:#c53a43;}.cls-2{fill:#fff;}</style></defs><title>countdown</title><path class="cls-1" d="M6764.26,6192.21a56.21,56.21,0,0,0,19,25.11l29.75-40.95Z" transform="translate(-6760.61 -6116.28)"/><path class="cls-1" d="M6820.34,6176.37l29.75,40.95a56.21,56.21,0,0,0,19-25.11Z" transform="translate(-6760.61 -6116.28)"/><path class="cls-1" d="M6870,6189.56a56.1,56.1,0,0,0,.76-32l-49.56,16.1Z" transform="translate(-6760.61 -6116.28)"/><path class="cls-1" d="M6813,6171l-31-42.74a56.13,56.13,0,0,0-18.58,26.61Z" transform="translate(-6760.61 -6116.28)"/><path class="cls-1" d="M6762.57,6157.6a56.1,56.1,0,0,0,.76,32l48.81-15.86Z" transform="translate(-6760.61 -6116.28)"/><path class="cls-1" d="M6815.27,6178l-29.73,40.91a55.76,55.76,0,0,0,29.73,9.4V6178Z" transform="translate(-6760.61 -6116.28)"/><path class="cls-1" d="M6818.07,6178v50.31a55.76,55.76,0,0,0,29.73-9.4Z" transform="translate(-6760.61 -6116.28)"/><path class="cls-1" d="M6815.27,6169.4v-53.11a55.76,55.76,0,0,0-31.07,10.34Z" transform="translate(-6760.61 -6116.28)"/><path class="cls-1" d="M6870,6154.92a56.13,56.13,0,0,0-18.58-26.61l-31,42.74Z" transform="translate(-6760.61 -6116.28)"/><path class="cls-1" d="M6818.07,6169.4l31.07-42.77a55.76,55.76,0,0,0-31.07-10.34v53.11Z" transform="translate(-6760.61 -6116.28)"/><circle class="cls-2" cx="56.06" cy="56.02" r="43.59"/><path class="cls-1" d="M6792.57,6184h6.72v-17.64q0-1.3.07-2.71l-4,3.29a2.54,2.54,0,0,1-.77.44,2.27,2.27,0,0,1-.74.13,2.24,2.24,0,0,1-1.12-.28,2.36,2.36,0,0,1-.73-0.59l-2.35-3.12,10.9-9.14h6.14V6184h5.76v5.38h-19.92V6184Z" transform="translate(-6760.61 -6116.28)"/><path class="cls-1" d="M6840.6,6171.9a28.43,28.43,0,0,1-1,7.94,16.31,16.31,0,0,1-2.72,5.57,11,11,0,0,1-4.13,3.29,12.41,12.41,0,0,1-5.17,1.08,12.24,12.24,0,0,1-5.15-1.08,10.94,10.94,0,0,1-4.09-3.29,16.27,16.27,0,0,1-2.7-5.57,32.94,32.94,0,0,1,0-15.89,16.28,16.28,0,0,1,2.7-5.57,10.83,10.83,0,0,1,4.09-3.28,12.36,12.36,0,0,1,5.15-1.07,12.53,12.53,0,0,1,5.17,1.07,10.88,10.88,0,0,1,4.13,3.28,16.32,16.32,0,0,1,2.72,5.57A28.43,28.43,0,0,1,6840.6,6171.9Zm-7.68,0a31.72,31.72,0,0,0-.46-5.94,12.18,12.18,0,0,0-1.21-3.64,4.4,4.4,0,0,0-1.72-1.81,4.22,4.22,0,0,0-1.94-.49,4.15,4.15,0,0,0-1.93.49,4.29,4.29,0,0,0-1.68,1.81,12.48,12.48,0,0,0-1.18,3.64,40.05,40.05,0,0,0,0,11.89,12.64,12.64,0,0,0,1.18,3.64,4.27,4.27,0,0,0,1.68,1.82,4.15,4.15,0,0,0,1.93.49,4.22,4.22,0,0,0,1.94-.49,4.38,4.38,0,0,0,1.72-1.82,12.34,12.34,0,0,0,1.21-3.64A31.68,31.68,0,0,0,6832.92,6171.9Z" transform="translate(-6760.61 -6116.28)"/></svg>