<svg id="Interactive_elements" data-name="Interactive elements" xmlns="http://www.w3.org/2000/svg" viewBox="0 0 86.22 86.22"><defs><style>.cls-1{fill:#2e8bbd;}.cls-2{fill:#fff;}</style></defs><title>icon_notes</title><circle class="cls-1" cx="43.11" cy="43.11" r="43.11"/><path class="cls-2" d="M11682.94,6146l-9-6.6a1.21,1.21,0,0,0-1.64.27l-25.5,35.78-6,19a1.17,1.17,0,0,0,.46,1.31,1.16,1.16,0,0,0,.86.19,1.18,1.18,0,0,0,.54-0.24l15.37-12.45,0.18-.19,25-35.47A1.16,1.16,0,0,0,11682.94,6146Zm-9.38-4,3.76,2.73-22.55,31.49-3.73-2.63Zm-17.18,39.61-6.85,5.55a4.16,4.16,0,0,1-3.18-2.5l2.54-8.07,1.54-2.16,7.35,5.18Zm2-2.84-2.8-2,22.53-31.47,2.51,1.88Z" transform="translate(-11616.79 -6124.98)"/></svg>