<svg id="Interactive_elements" data-name="Interactive elements" xmlns="http://www.w3.org/2000/svg" xmlns:xlink="http://www.w3.org/1999/xlink" viewBox="0 0 307.12 71.31"><defs><style>.cls-1{fill:#dcdcdc;}.cls-2{fill:url(#linear-gradient);}.cls-3{fill:url(#linear-gradient-2);}.cls-4{fill:#ddd;}.cls-5{fill:#c9c9c9;}.cls-6{fill:#fff;}.cls-7{fill:#c53a43;}.cls-8{fill:#231f20;stroke:#fff;stroke-linejoin:round;stroke-width:3.21px;}</style><linearGradient id="linear-gradient" y1="23.48" x2="84.11" y2="23.48" gradientUnits="userSpaceOnUse"><stop offset="0" stop-color="#fff"/><stop offset="1" stop-color="#dcdcdc"/></linearGradient><linearGradient id="linear-gradient-2" x1="8116.17" y1="6167.75" x2="8200.28" y2="6167.75" gradientTransform="matrix(1, 0, 0, -1, 384.07, 12335.51)" xlink:href="#linear-gradient"/></defs><title>re-record_buttons</title><rect class="cls-1" x="82.17" width="141.48" height="46.96"/><rect class="cls-2" width="84.11" height="46.96"/><rect class="cls-3" x="8500.24" y="6144.27" width="84.11" height="46.96" transform="translate(8807.36 6191.23) rotate(-180)"/><circle class="cls-4" cx="178.06" cy="23.32" r="12.43"/><path class="cls-5" d="M8455.29,6152.35a15.25,15.25,0,1,0,15.25,15.25A15.25,15.25,0,0,0,8455.29,6152.35Zm3.1,25.35-0.16,0a0.47,0.47,0,0,1-.2-0.9c2.21-1,3.47-2.54,3.47-4.1,0-2.65-3.66-4.8-8.7-5.13v2.51a0.82,0.82,0,0,1-.45.73l-0.17.06-0.16,0h0a0.81,0.81,0,0,1-.51-0.15l-6.23-5.46a0.82,0.82,0,0,1,0-1.32l6.23-5.46a0.82,0.82,0,0,1,.85-0.07,0.78,0.78,0,0,1,.2.14h0a0.84,0.84,0,0,1,.11.14l0,0a1,1,0,0,1,.06.14l0,0.05a0.82,0.82,0,0,1,0,.2v2.42h0c7.37,0.74,12.71,4.39,12.71,8.66C8465.56,6173.31,8462.88,6176.09,8458.39,6177.7Z" transform="translate(-8277.23 -6144.27)"/><circle class="cls-6" cx="132.08" cy="22.64" r="18.34"/><rect class="cls-7" x="122.66" y="13.21" width="18.82" height="18.82"/><path class="cls-8" d="M8475.13,6199.79l14,14.19,6.33-6.95-13.57-13.48,6.32-3.91s1.25-.73,1.25-1.28-2.33-1.26-2.33-1.26-30.45-13.3-31.18-12.58,13,31.13,13,31.13,0.7,1.95,1.51,1.95,1.47-2,1.47-2Z" transform="translate(-8277.23 -6144.27)"/></svg>