<svg id="Interactive_elements" data-name="Interactive elements" xmlns="http://www.w3.org/2000/svg" viewBox="0 0 144.77 129.75"><defs><style>.cls-1{fill:#e8f3fc;}.cls-2{fill:#ffca00;}.cls-3{fill:#fe961c;}.cls-4{fill:#d7731b;}.cls-5{fill:#2e8bbd;}.cls-6{fill:#14608a;}.cls-7{fill:#6cc5f5;}.cls-8{fill:none;stroke:#2e8bbd;stroke-miterlimit:10;stroke-width:2.29px;}.cls-9{fill:#c53a43;}.cls-10{fill:#88252b;}.cls-11{fill:#f37573;}</style></defs><title>your-settings-illo</title><circle class="cls-1" cx="65.33" cy="71.4" r="52.53"/><polygon class="cls-1" points="126.18 106.21 119.19 106.21 119.19 118.39 126.18 118.39 126.18 118.38 135.63 123.92 135.66 100.57 126.18 106.21"/><polygon class="cls-1" points="67.77 112.13 63.21 109.17 63.21 119.71 67.76 116.59 67.76 116.6 70.32 116.6 70.32 112.13 67.77 112.13"/><path class="cls-1" d="M470.56,3903.43a27.37,27.37,0,0,1-18.11-6.83h-7.05a21.44,21.44,0,0,1-22.65,12.55v22.5a1.92,1.92,0,0,0,1.92,1.92h49.84a1.92,1.92,0,0,0,1.92-1.92V3902.8A27.58,27.58,0,0,1,470.56,3903.43Z" transform="translate(-353.68 -3803.82)"/><path class="cls-1" d="M452.07,3897.61a28.44,28.44,0,0,0,23.34,6.41v27.64a0.92,0.92,0,0,1-.92.92H424.65a0.92,0.92,0,0,1-.92-0.92v-21.37c0.68,0.06,1.36.09,2,.09A22.48,22.48,0,0,0,446,3897.61h6m0.37-1h-7.05a21.44,21.44,0,0,1-22.65,12.55v22.5a1.92,1.92,0,0,0,1.92,1.92h49.84a1.92,1.92,0,0,0,1.92-1.92V3902.8a27.46,27.46,0,0,1-24-6.2h0Z" transform="translate(-353.68 -3803.82)"/><path class="cls-1" d="M425.84,3913.25c2.16,0.14,14.74-2.29,20.28-16.61h5.19c4.83,6.58,12.23,10.67,19.25,10.67a20.94,20.94,0,0,0,2.75-.12c0.94-.12,3.1-0.45,3.1-0.45v-3.94a27.45,27.45,0,0,1-24-6.2h-7.05a21.44,21.44,0,0,1-22.65,12.55V3913S423.68,3913.11,425.84,3913.25Z" transform="translate(-353.68 -3803.82)"/><circle class="cls-1" cx="71.99" cy="84.11" r="21.76"/><circle class="cls-1" cx="116.78" cy="71.98" r="27.99"/><circle class="cls-1" cx="71.99" cy="84.11" r="16.24"/><path class="cls-1" d="M435.2,3871.59a18.86,18.86,0,1,0,6.9,25.76A18.86,18.86,0,0,0,435.2,3871.59Zm-22.36,15.31a3.91,3.91,0,1,1,5.34,1.43A3.91,3.91,0,0,1,412.84,3886.9Zm9.33,12.68a3.91,3.91,0,1,1,1.43-5.34A3.91,3.91,0,0,1,422.17,3899.57Zm0.06-20a3.91,3.91,0,1,1,5.34,1.43A3.91,3.91,0,0,1,422.23,3879.62Zm11.84,19.63a3.91,3.91,0,1,1,1.43-5.34A3.91,3.91,0,0,1,434.07,3899.24Zm3.39-11.56a3.91,3.91,0,1,1,1.43-5.34A3.91,3.91,0,0,1,437.47,3887.68Z" transform="translate(-353.68 -3803.82)"/><path class="cls-1" d="M425.79,3869.06a18.86,18.86,0,1,1-16.35,9.43,18.77,18.77,0,0,1,16.35-9.43m-0.16,12.52a3.91,3.91,0,1,0-3.39-2,3.9,3.9,0,0,0,3.39,2m9.89,6.64a3.91,3.91,0,1,0-3.39-2,3.89,3.89,0,0,0,3.39,2m-19.28.64a3.91,3.91,0,1,0-3.39-2,3.9,3.9,0,0,0,3.39,2m15.89,10.92a3.91,3.91,0,1,0-3.39-2,3.9,3.9,0,0,0,3.39,2m-11.91.33a3.91,3.91,0,1,0-3.39-2,3.89,3.89,0,0,0,3.39,2m5.57-32a19.93,19.93,0,0,0-17.21,9.93,19.86,19.86,0,0,0,17.18,29.79,19.93,19.93,0,0,0,17.21-9.93,19.86,19.86,0,0,0-17.18-29.79h0Zm-0.16,12.52a2.92,2.92,0,0,1-2.53-1.46,2.91,2.91,0,0,1,2.52-4.37,2.91,2.91,0,0,1,0,5.83h0Zm9.89,6.64a2.92,2.92,0,0,1-2.53-1.46,2.91,2.91,0,0,1,2.52-4.37,2.92,2.92,0,0,1,2.53,1.46,2.91,2.91,0,0,1-2.52,4.37h0Zm-19.28.64a2.92,2.92,0,0,1-2.53-1.46,2.91,2.91,0,0,1,2.52-4.37,2.91,2.91,0,0,1,0,5.83h0Zm15.89,10.92a2.91,2.91,0,1,1,1.45-.39,2.92,2.92,0,0,1-1.45.39h0Zm-11.91.33a2.91,2.91,0,1,1,2.52-4.37,2.91,2.91,0,0,1-2.52,4.37h0Z" transform="translate(-353.68 -3803.82)"/><circle class="cls-1" cx="116.78" cy="71.98" r="21.37"/><path class="cls-1" d="M483,3854.34a24.94,24.94,0,1,0,9.13,34.07A24.94,24.94,0,0,0,483,3854.34Zm-29.58,20.25a5.18,5.18,0,1,1,7.07,1.89A5.18,5.18,0,0,1,453.45,3874.6Zm12.34,16.77a5.18,5.18,0,1,1,1.89-7.07A5.18,5.18,0,0,1,465.79,3891.37Zm0.09-26.4a5.18,5.18,0,1,1,7.07,1.89A5.18,5.18,0,0,1,465.88,3865Zm15.67,26a5.18,5.18,0,1,1,1.89-7.07A5.18,5.18,0,0,1,481.54,3890.93Zm4.49-15.29a5.18,5.18,0,1,1,1.89-7.07A5.18,5.18,0,0,1,486,3875.64Z" transform="translate(-353.68 -3803.82)"/><path class="cls-1" d="M470.58,3851A24.95,24.95,0,1,1,449,3863.47,24.83,24.83,0,0,1,470.58,3851m-0.22,16.56a5.18,5.18,0,1,0-4.49-2.59,5.15,5.15,0,0,0,4.49,2.59m13.09,8.78a5.18,5.18,0,1,0-4.49-2.59,5.15,5.15,0,0,0,4.49,2.59m-25.51.85a5.18,5.18,0,1,0-4.49-2.59,5.15,5.15,0,0,0,4.49,2.59m21,14.44a5.18,5.18,0,1,0-4.49-2.59,5.15,5.15,0,0,0,4.49,2.59m-15.75.43a5.18,5.18,0,1,0-4.49-2.59,5.15,5.15,0,0,0,4.49,2.59m7.37-42.06a26,26,0,0,0-22.49,13,26,26,0,0,0,22.45,38.92,26,26,0,0,0,22.49-13A26,26,0,0,0,470.58,3850h0Zm-0.22,16.56a4.19,4.19,0,0,1-3.62-2.09,4.17,4.17,0,1,1,3.62,2.09h0Zm13.09,8.78a4.19,4.19,0,0,1-3.62-2.09,4.18,4.18,0,0,1,3.61-6.26,4.18,4.18,0,0,1,0,8.35h0Zm-25.51.85a4.19,4.19,0,0,1-3.62-2.09,4.18,4.18,0,0,1,3.61-6.26,4.18,4.18,0,0,1,0,8.35h0Zm21,14.44a4.19,4.19,0,0,1-3.62-2.09,4.17,4.17,0,1,1,3.62,2.09h0Zm-15.75.43a4.19,4.19,0,0,1-3.62-2.09,4.17,4.17,0,1,1,3.62,2.09h0Z" transform="translate(-353.68 -3803.82)"/><path class="cls-1" d="M368.49,3893.86" transform="translate(-353.68 -3803.82)"/><path class="cls-1" d="M387.45,3888v3.25s2.15-.61,2.15-0.93v-1.41C389.61,3888.58,387.45,3888,387.45,3888Z" transform="translate(-353.68 -3803.82)"/><path class="cls-1" d="M362.63,3888.28v2.85s-2.15-.46-2.15-0.77v-2.08C360.47,3887.93,362.63,3888.28,362.63,3888.28Z" transform="translate(-353.68 -3803.82)"/><ellipse class="cls-1" cx="21.55" cy="116.33" rx="18.96" ry="4.33"/><path class="cls-1" d="M376.88,3918.59c0,1.51-3.68,1.62-3.68,0v-8.25h3.68v8.25Z" transform="translate(-353.68 -3803.82)"/><path class="cls-1" d="M362,3888.62v-27.54c0-5.15,5.82-6.29,13-6.29s13,1.14,13,6.29v27.54" transform="translate(-353.68 -3803.82)"/><path class="cls-1" d="M362,3888.62v-27.54c0-5.15,5.82-6.29,13-6.29s13,1.14,13,6.29v27.54" transform="translate(-353.68 -3803.82)"/><path class="cls-1" d="M375,3908.25a13,13,0,0,0,13-13v-7c0-2.48-5.82-4.5-13-4.5s-13,2-13,4.5v7A13,13,0,0,0,375,3908.25Z" transform="translate(-353.68 -3803.82)"/><path class="cls-1" d="M358.7,3886.05v8.84a16.34,16.34,0,0,0,32.67,0v-8.84" transform="translate(-353.68 -3803.82)"/><path class="cls-1" d="M391.38,3892.58h1.76a3.26,3.26,0,0,0,0-6.52h-1.76v6.52Z" transform="translate(-353.68 -3803.82)"/><path class="cls-1" d="M358.7,3892.58h-1.76a3.26,3.26,0,0,1,0-6.52h1.76v6.52Z" transform="translate(-353.68 -3803.82)"/><path class="cls-1" d="M385.1,3887.05a36.51,36.51,0,0,0-16.57-1.14,16.2,16.2,0,0,0-6.52,2.4l0,6.93s2-3.48,7.6-5.91A33.1,33.1,0,0,1,385.1,3887.05Z" transform="translate(-353.68 -3803.82)"/><path class="cls-1" d="M375,3881.52c-8,0-14.57,2.11-14.57,4.7v4.2c0-2.59,6.52-4.57,14.57-4.57s14.57,1.94,14.57,4.53v-4.15C389.61,3883.63,383.08,3881.52,375,3881.52Z" transform="translate(-353.68 -3803.82)"/><path class="cls-1" d="M375,3879.56c-8,0-14.57,2.11-14.57,4.7V3889c0-2.59,6.52-4.7,14.57-4.7s14.57,2.11,14.57,4.7v-4.78C389.61,3881.67,383.08,3879.56,375,3879.56Z" transform="translate(-353.68 -3803.82)"/><path class="cls-1" d="M443.11,3845.31a2.43,2.43,0,0,1-3.74-2.33h0c0-.2,2.36-20.09-6.4-28.57-8-7.75-19.38-5.49-21-5.11s-12.69,4-15.92,14.68c-1.82,6,.48,13.25,2.74,18.29a60.33,60.33,0,0,0,5.54,9.8,2.43,2.43,0,1,1-3.92,2.86c-0.54-.74-13.24-18.37-9-32.35,3.89-12.82,16.32-17.1,19.08-17.9h0l0.19,0,0.16,0,0.18,0h0c2.81-.64,15.75-2.93,25.37,6.39,10.5,10.17,8,31.74,7.84,32.66A2.42,2.42,0,0,1,443.11,3845.31Z" transform="translate(-353.68 -3803.82)"/><path class="cls-1" d="M398,3840.49a3.15,3.15,0,0,0-1.46,2.78c0,2.88,3.61,11.42,4.1,12a2.34,2.34,0,0,0,2.69.49c0.25-.13.44-0.26,0.44-0.26Z" transform="translate(-353.68 -3803.82)"/><path class="cls-1" d="M414.93,3856l-6.08,3.29a2.71,2.71,0,0,1-3.67-1.08l-7.83-14.36a2.71,2.71,0,0,1,1.08-3.67l6.08-3.29a2.71,2.71,0,0,1,3.67,1.08l7.83,14.36A2.71,2.71,0,0,1,414.93,3856Z" transform="translate(-353.68 -3803.82)"/><path class="cls-1" d="M404.68,3836.81l-3,1.61,10.23,19.2,3-1.51a2.72,2.72,0,0,0,1.12-3.67l-7.7-14.5A2.72,2.72,0,0,0,404.68,3836.81Z" transform="translate(-353.68 -3803.82)"/><path class="cls-1" d="M439.22,3830.08s1.62-.39,2.84,3.07c1,2.71,2.18,10.81,1.78,11.43a2.53,2.53,0,0,1-2,1.15,2.18,2.18,0,0,1-.62-0.08Z" transform="translate(-353.68 -3803.82)"/><path class="cls-1" d="M431.68,3851.76l6.91-.07a2.71,2.71,0,0,0,2.69-2.73l-0.13-16.35a2.71,2.71,0,0,0-2.73-2.69l-6.91.07a2.71,2.71,0,0,0-2.69,2.73l0.13,16.35A2.71,2.71,0,0,0,431.68,3851.76Z" transform="translate(-353.68 -3803.82)"/><path class="cls-1" d="M431.31,3830l3.37,0,0.37,21.81-3.33.07a2.72,2.72,0,0,1-2.76-2.66l-0.31-16.41A2.72,2.72,0,0,1,431.31,3830Z" transform="translate(-353.68 -3803.82)"/><circle class="cls-1" cx="65.33" cy="71.4" r="52.53"/><polygon class="cls-2" points="126.18 106.21 119.19 106.21 119.19 118.39 126.18 118.39 126.18 118.38 135.63 123.92 135.66 100.57 126.18 106.21"/><polygon class="cls-2" points="67.77 112.13 63.21 109.17 63.21 119.71 67.76 116.59 67.76 116.6 70.32 116.6 70.32 112.13 67.77 112.13"/><path class="cls-3" d="M470.56,3903.43a27.37,27.37,0,0,1-18.11-6.83h-7.05a21.44,21.44,0,0,1-22.65,12.55v22.5a1.92,1.92,0,0,0,1.92,1.92h49.84a1.92,1.92,0,0,0,1.92-1.92V3902.8A27.58,27.58,0,0,1,470.56,3903.43Z" transform="translate(-353.68 -3803.82)"/><path class="cls-4" d="M425.84,3913.25c2.16,0.14,14.74-2.29,20.28-16.61h5.19c4.83,6.58,12.23,10.67,19.25,10.67a20.94,20.94,0,0,0,2.75-.12c0.94-.12,3.1-0.45,3.1-0.45v-3.94a27.45,27.45,0,0,1-24-6.2h-7.05a21.44,21.44,0,0,1-22.65,12.55V3913S423.68,3913.11,425.84,3913.25Z" transform="translate(-353.68 -3803.82)"/><circle class="cls-3" cx="71.99" cy="84.11" r="21.76"/><circle class="cls-3" cx="116.78" cy="71.98" r="27.99"/><circle class="cls-4" cx="71.99" cy="84.11" r="16.24"/><path class="cls-2" d="M435.2,3871.59a18.86,18.86,0,1,0,6.9,25.76A18.86,18.86,0,0,0,435.2,3871.59Zm-22.36,15.31a3.91,3.91,0,1,1,5.34,1.43A3.91,3.91,0,0,1,412.84,3886.9Zm9.33,12.68a3.91,3.91,0,1,1,1.43-5.34A3.91,3.91,0,0,1,422.17,3899.57Zm0.06-20a3.91,3.91,0,1,1,5.34,1.43A3.91,3.91,0,0,1,422.23,3879.62Zm11.84,19.63a3.91,3.91,0,1,1,1.43-5.34A3.91,3.91,0,0,1,434.07,3899.24Zm3.39-11.56a3.91,3.91,0,1,1,1.43-5.34A3.91,3.91,0,0,1,437.47,3887.68Z" transform="translate(-353.68 -3803.82)"/><circle class="cls-4" cx="116.78" cy="71.98" r="21.37"/><path class="cls-2" d="M483,3854.34a24.94,24.94,0,1,0,9.13,34.07A24.94,24.94,0,0,0,483,3854.34Zm-29.58,20.25a5.18,5.18,0,1,1,7.07,1.89A5.18,5.18,0,0,1,453.45,3874.6Zm12.34,16.77a5.18,5.18,0,1,1,1.89-7.07A5.18,5.18,0,0,1,465.79,3891.37Zm0.09-26.4a5.18,5.18,0,1,1,7.07,1.89A5.18,5.18,0,0,1,465.88,3865Zm15.67,26a5.18,5.18,0,1,1,1.89-7.07A5.18,5.18,0,0,1,481.54,3890.93Zm4.49-15.29a5.18,5.18,0,1,1,1.89-7.07A5.18,5.18,0,0,1,486,3875.64Z" transform="translate(-353.68 -3803.82)"/><path class="cls-5" d="M368.49,3893.86" transform="translate(-353.68 -3803.82)"/><path class="cls-6" d="M387.45,3888v3.25s2.15-.61,2.15-0.93v-1.41C389.61,3888.58,387.45,3888,387.45,3888Z" transform="translate(-353.68 -3803.82)"/><path class="cls-6" d="M362.63,3888.28v2.85s-2.15-.46-2.15-0.77v-2.08C360.47,3887.93,362.63,3888.28,362.63,3888.28Z" transform="translate(-353.68 -3803.82)"/><ellipse class="cls-7" cx="21.55" cy="116.33" rx="18.96" ry="4.33"/><path class="cls-5" d="M376.88,3918.59c0,1.51-3.68,1.62-3.68,0v-8.25h3.68v8.25Z" transform="translate(-353.68 -3803.82)"/><path class="cls-7" d="M362,3888.62v-27.54c0-5.15,5.82-6.29,13-6.29s13,1.14,13,6.29v27.54" transform="translate(-353.68 -3803.82)"/><path class="cls-7" d="M362,3888.62v-27.54c0-5.15,5.82-6.29,13-6.29s13,1.14,13,6.29v27.54" transform="translate(-353.68 -3803.82)"/><path class="cls-7" d="M375,3908.25a13,13,0,0,0,13-13v-7c0-2.48-5.82-4.5-13-4.5s-13,2-13,4.5v7A13,13,0,0,0,375,3908.25Z" transform="translate(-353.68 -3803.82)"/><path class="cls-8" d="M358.7,3886.05v8.84a16.34,16.34,0,0,0,32.67,0v-8.84" transform="translate(-353.68 -3803.82)"/><path class="cls-5" d="M391.38,3892.58h1.76a3.26,3.26,0,0,0,0-6.52h-1.76v6.52Z" transform="translate(-353.68 -3803.82)"/><path class="cls-5" d="M358.7,3892.58h-1.76a3.26,3.26,0,0,1,0-6.52h1.76v6.52Z" transform="translate(-353.68 -3803.82)"/><path class="cls-5" d="M385.1,3887.05a36.51,36.51,0,0,0-16.57-1.14,16.2,16.2,0,0,0-6.52,2.4l0,6.93s2-3.48,7.6-5.91A33.1,33.1,0,0,1,385.1,3887.05Z" transform="translate(-353.68 -3803.82)"/><path class="cls-6" d="M375,3881.52c-8,0-14.57,2.11-14.57,4.7v4.2c0-2.59,6.52-4.57,14.57-4.57s14.57,1.94,14.57,4.53v-4.15C389.61,3883.63,383.08,3881.52,375,3881.52Z" transform="translate(-353.68 -3803.82)"/><path class="cls-5" d="M375,3879.56c-8,0-14.57,2.11-14.57,4.7V3889c0-2.59,6.52-4.7,14.57-4.7s14.57,2.11,14.57,4.7v-4.78C389.61,3881.67,383.08,3879.56,375,3879.56Z" transform="translate(-353.68 -3803.82)"/><path class="cls-9" d="M443.11,3845.31a2.43,2.43,0,0,1-3.74-2.33h0c0-.2,2.36-20.09-6.4-28.57-8-7.75-19.38-5.49-21-5.11s-12.69,4-15.92,14.68c-1.82,6,.48,13.25,2.74,18.29a60.33,60.33,0,0,0,5.54,9.8,2.43,2.43,0,1,1-3.92,2.86c-0.54-.74-13.24-18.37-9-32.35,3.89-12.82,16.32-17.1,19.08-17.9h0l0.19,0,0.16,0,0.18,0h0c2.81-.64,15.75-2.93,25.37,6.39,10.5,10.17,8,31.74,7.84,32.66A2.42,2.42,0,0,1,443.11,3845.31Z" transform="translate(-353.68 -3803.82)"/><path class="cls-10" d="M398,3840.49a3.15,3.15,0,0,0-1.46,2.78c0,2.88,3.61,11.42,4.1,12a2.34,2.34,0,0,0,2.69.49c0.25-.13.44-0.26,0.44-0.26Z" transform="translate(-353.68 -3803.82)"/><path class="cls-9" d="M414.93,3856l-6.08,3.29a2.71,2.71,0,0,1-3.67-1.08l-7.83-14.36a2.71,2.71,0,0,1,1.08-3.67l6.08-3.29a2.71,2.71,0,0,1,3.67,1.08l7.83,14.36A2.71,2.71,0,0,1,414.93,3856Z" transform="translate(-353.68 -3803.82)"/><path class="cls-11" d="M404.68,3836.81l-3,1.61,10.23,19.2,3-1.51a2.72,2.72,0,0,0,1.12-3.67l-7.7-14.5A2.72,2.72,0,0,0,404.68,3836.81Z" transform="translate(-353.68 -3803.82)"/><path class="cls-10" d="M439.22,3830.08s1.62-.39,2.84,3.07c1,2.71,2.18,10.81,1.78,11.43a2.53,2.53,0,0,1-2,1.15,2.18,2.18,0,0,1-.62-0.08Z" transform="translate(-353.68 -3803.82)"/><path class="cls-9" d="M431.68,3851.76l6.91-.07a2.71,2.71,0,0,0,2.69-2.73l-0.13-16.35a2.71,2.71,0,0,0-2.73-2.69l-6.91.07a2.71,2.71,0,0,0-2.69,2.73l0.13,16.35A2.71,2.71,0,0,0,431.68,3851.76Z" transform="translate(-353.68 -3803.82)"/><path class="cls-11" d="M431.31,3830l3.37,0,0.37,21.81-3.33.07a2.72,2.72,0,0,1-2.76-2.66l-0.31-16.41A2.72,2.72,0,0,1,431.31,3830Z" transform="translate(-353.68 -3803.82)"/></svg>