<svg id="Interactive_elements" data-name="Interactive elements" xmlns="http://www.w3.org/2000/svg" viewBox="0 0 128.73 26"><defs><style>.cls-1{fill:#777;}</style></defs><title>open-my-grid_icon</title><path class="cls-1" d="M4085.18,13132.19a4.54,4.54,0,0,1-.28,1.63,3.71,3.71,0,0,1-.79,1.27,3.52,3.52,0,0,1-1.23.83,4.41,4.41,0,0,1-3.17,0,3.52,3.52,0,0,1-1.23-.83,3.71,3.71,0,0,1-.79-1.27,4.85,4.85,0,0,1,0-3.25,3.76,3.76,0,0,1,.79-1.28,3.56,3.56,0,0,1,1.23-.83,4.38,4.38,0,0,1,3.17,0,3.56,3.56,0,0,1,1.23.83,3.76,3.76,0,0,1,.79,1.28A4.55,4.55,0,0,1,4085.18,13132.19Zm-1.09,0a4,4,0,0,0-.2-1.3,2.77,2.77,0,0,0-.56-1,2.43,2.43,0,0,0-.88-0.61,3.2,3.2,0,0,0-2.3,0,2.46,2.46,0,0,0-.88.61,2.74,2.74,0,0,0-.56,1,4.38,4.38,0,0,0,0,2.6,2.75,2.75,0,0,0,.56,1,2.42,2.42,0,0,0,.88.61,3.22,3.22,0,0,0,2.3,0,2.4,2.4,0,0,0,.88-0.61,2.78,2.78,0,0,0,.56-1A4,4,0,0,0,4084.08,13132.19Z" transform="translate(-4043.02 -13119.41)"/><path class="cls-1" d="M4088.61,13133.18v2.95h-1.06v-7.88h2.33a4.37,4.37,0,0,1,1.3.17,2.49,2.49,0,0,1,.92.49,2,2,0,0,1,.54.77,2.72,2.72,0,0,1,.18,1,2.57,2.57,0,0,1-.19,1,2.16,2.16,0,0,1-.56.79,2.63,2.63,0,0,1-.92.51,4,4,0,0,1-1.26.18h-1.27Zm0-.85h1.27a2.45,2.45,0,0,0,.81-0.12,1.65,1.65,0,0,0,.59-0.34,1.4,1.4,0,0,0,.36-0.52,1.77,1.77,0,0,0,.12-0.67,1.51,1.51,0,0,0-.46-1.18,2,2,0,0,0-1.41-.42h-1.27v3.25Z" transform="translate(-4043.02 -13119.41)"/><path class="cls-1" d="M4099.72,13128.24v0.87h-3.78v2.62H4099v0.84h-3.06v2.69h3.78v0.87h-4.86v-7.88h4.86Z" transform="translate(-4043.02 -13119.41)"/><path class="cls-1" d="M4102.66,13128.28a0.55,0.55,0,0,1,.16.15l4.56,5.94q0-.14,0-0.28c0-.09,0-0.18,0-0.26v-5.58h0.94v7.88h-0.54a0.46,0.46,0,0,1-.21,0,0.54,0.54,0,0,1-.17-0.15l-4.56-5.93c0,0.09,0,.18,0,0.27s0,0.17,0,.24v5.62h-0.94v-7.88h0.55A0.47,0.47,0,0,1,4102.66,13128.28Z" transform="translate(-4043.02 -13119.41)"/><path class="cls-1" d="M4118,13133.55l0.11,0.29c0-.1.08-0.2,0.12-0.29s0.09-.19.14-0.28l2.67-4.85a0.33,0.33,0,0,1,.15-0.15,0.71,0.71,0,0,1,.22,0h0.79v7.88h-0.94v-5.79c0-.08,0-0.16,0-0.25s0-.18,0-0.27l-2.7,4.93a0.42,0.42,0,0,1-.38.25H4118a0.43,0.43,0,0,1-.38-0.25l-2.76-4.95q0,0.14,0,.28c0,0.09,0,.18,0,0.25v5.79H4114v-7.88h0.79a0.7,0.7,0,0,1,.22,0,0.32,0.32,0,0,1,.15.15l2.72,4.85A2,2,0,0,1,4118,13133.55Z" transform="translate(-4043.02 -13119.41)"/><path class="cls-1" d="M4128,13133v3.13H4127V13133l-2.89-4.75H4125a0.33,0.33,0,0,1,.23.07,0.66,0.66,0,0,1,.14.18l1.8,3.06a3.85,3.85,0,0,1,.18.36l0.13,0.34,0.13-.34a2.94,2.94,0,0,1,.18-0.36l1.8-3.06a0.71,0.71,0,0,1,.13-0.17,0.32,0.32,0,0,1,.22-0.08h0.95Z" transform="translate(-4043.02 -13119.41)"/><path class="cls-1" d="M4139.18,13135.35a5.37,5.37,0,0,0,.59,0,3.66,3.66,0,0,0,.5-0.09,3.43,3.43,0,0,0,.45-0.15l0.42-.2v-1.74h-1.22a0.23,0.23,0,0,1-.17-0.06,0.2,0.2,0,0,1-.06-0.15v-0.61h2.42v3a4.42,4.42,0,0,1-.62.37,4.19,4.19,0,0,1-.69.27,4.94,4.94,0,0,1-.78.16,7.48,7.48,0,0,1-.91.05,4.11,4.11,0,0,1-1.57-.29,3.61,3.61,0,0,1-1.23-.83,3.76,3.76,0,0,1-.81-1.27,4.48,4.48,0,0,1-.29-1.63,4.58,4.58,0,0,1,.28-1.64,3.54,3.54,0,0,1,2.08-2.1,4.57,4.57,0,0,1,1.67-.29,5.25,5.25,0,0,1,.87.07,4.1,4.1,0,0,1,.75.2,3.44,3.44,0,0,1,.63.31,3.9,3.9,0,0,1,.54.42l-0.3.48a0.28,0.28,0,0,1-.24.15,0.4,0.4,0,0,1-.19-0.06l-0.31-.19a2.59,2.59,0,0,0-.42-0.21,3.31,3.31,0,0,0-.58-0.17,3.78,3.78,0,0,0-.79-0.07,3.18,3.18,0,0,0-1.2.22,2.54,2.54,0,0,0-.92.62,2.75,2.75,0,0,0-.58,1,3.84,3.84,0,0,0-.2,1.29,3.91,3.91,0,0,0,.21,1.33,2.82,2.82,0,0,0,.6,1,2.58,2.58,0,0,0,.91.62A3.06,3.06,0,0,0,4139.18,13135.35Z" transform="translate(-4043.02 -13119.41)"/><path class="cls-1" d="M4145.75,13132.83v3.29h-1.06v-7.88h2.23a4.88,4.88,0,0,1,1.29.15,2.47,2.47,0,0,1,.9.44,1.75,1.75,0,0,1,.52.69,2.3,2.3,0,0,1,.17.9,2.27,2.27,0,0,1-.13.78,2.07,2.07,0,0,1-.38.65,2.32,2.32,0,0,1-.61.49,3,3,0,0,1-.82.31,1.12,1.12,0,0,1,.35.33l2.3,3.13h-0.95a0.47,0.47,0,0,1-.43-0.23l-2-2.82a0.6,0.6,0,0,0-.2-0.19,0.74,0.74,0,0,0-.33-0.06h-0.81Zm0-.78h1.12a2.75,2.75,0,0,0,.82-0.11,1.69,1.69,0,0,0,.59-0.32,1.32,1.32,0,0,0,.36-0.49,1.61,1.61,0,0,0,.12-0.63,1.26,1.26,0,0,0-.46-1.06,2.25,2.25,0,0,0-1.38-.36h-1.17v3Z" transform="translate(-4043.02 -13119.41)"/><path class="cls-1" d="M4153.64,13136.12h-1.07v-7.88h1.07v7.88Z" transform="translate(-4043.02 -13119.41)"/><path class="cls-1" d="M4163.33,13132.19a4.43,4.43,0,0,1-.28,1.61,3.59,3.59,0,0,1-.79,1.24,3.54,3.54,0,0,1-1.23.8,4.28,4.28,0,0,1-1.58.28h-2.95v-7.88h2.95a4.28,4.28,0,0,1,1.58.28,3.54,3.54,0,0,1,1.23.8,3.61,3.61,0,0,1,.79,1.25A4.44,4.44,0,0,1,4163.33,13132.19Zm-1.09,0a4,4,0,0,0-.2-1.3,2.73,2.73,0,0,0-.56-1,2.41,2.41,0,0,0-.88-0.61,3.05,3.05,0,0,0-1.15-.21h-1.88v6.16h1.88a3,3,0,0,0,1.15-.21,2.42,2.42,0,0,0,.88-0.6,2.7,2.7,0,0,0,.56-1A4,4,0,0,0,4162.23,13132.19Z" transform="translate(-4043.02 -13119.41)"/><path class="cls-1" d="M4167.52,13128.24v0.58h-1v2.68h-0.69v-2.68h-1v-0.58h2.67Zm2.27,1.78,0.06,0.15,0.05,0.15,0-.15a0.81,0.81,0,0,1,.07-0.15l0.93-1.67a0.28,0.28,0,0,1,.09-0.09,0.31,0.31,0,0,1,.13,0h0.58v3.26h-0.6v-2l0-.41-1,1.85a0.25,0.25,0,0,1-.24.15h-0.1a0.24,0.24,0,0,1-.24-0.15l-1-1.83,0,0.4v2H4168v-3.26h0.58a0.29,0.29,0,0,1,.13,0l0.1,0.09Z" transform="translate(-4043.02 -13119.41)"/><path class="cls-1" d="M4085.18,13132.19a4.54,4.54,0,0,1-.28,1.63,3.71,3.71,0,0,1-.79,1.27,3.52,3.52,0,0,1-1.23.83,4.41,4.41,0,0,1-3.17,0,3.52,3.52,0,0,1-1.23-.83,3.71,3.71,0,0,1-.79-1.27,4.85,4.85,0,0,1,0-3.25,3.76,3.76,0,0,1,.79-1.28,3.56,3.56,0,0,1,1.23-.83,4.38,4.38,0,0,1,3.17,0,3.56,3.56,0,0,1,1.23.83,3.76,3.76,0,0,1,.79,1.28A4.55,4.55,0,0,1,4085.18,13132.19Zm-1.09,0a4,4,0,0,0-.2-1.3,2.77,2.77,0,0,0-.56-1,2.43,2.43,0,0,0-.88-0.61,3.2,3.2,0,0,0-2.3,0,2.46,2.46,0,0,0-.88.61,2.74,2.74,0,0,0-.56,1,4.38,4.38,0,0,0,0,2.6,2.75,2.75,0,0,0,.56,1,2.42,2.42,0,0,0,.88.61,3.22,3.22,0,0,0,2.3,0,2.4,2.4,0,0,0,.88-0.61,2.78,2.78,0,0,0,.56-1A4,4,0,0,0,4084.08,13132.19Z" transform="translate(-4043.02 -13119.41)"/><path class="cls-1" d="M4088.61,13133.18v2.95h-1.06v-7.88h2.33a4.37,4.37,0,0,1,1.3.17,2.49,2.49,0,0,1,.92.49,2,2,0,0,1,.54.77,2.72,2.72,0,0,1,.18,1,2.57,2.57,0,0,1-.19,1,2.16,2.16,0,0,1-.56.79,2.63,2.63,0,0,1-.92.51,4,4,0,0,1-1.26.18h-1.27Zm0-.85h1.27a2.45,2.45,0,0,0,.81-0.12,1.65,1.65,0,0,0,.59-0.34,1.4,1.4,0,0,0,.36-0.52,1.77,1.77,0,0,0,.12-0.67,1.51,1.51,0,0,0-.46-1.18,2,2,0,0,0-1.41-.42h-1.27v3.25Z" transform="translate(-4043.02 -13119.41)"/><path class="cls-1" d="M4099.72,13128.24v0.87h-3.78v2.62H4099v0.84h-3.06v2.69h3.78v0.87h-4.86v-7.88h4.86Z" transform="translate(-4043.02 -13119.41)"/><path class="cls-1" d="M4102.66,13128.28a0.55,0.55,0,0,1,.16.15l4.56,5.94q0-.14,0-0.28c0-.09,0-0.18,0-0.26v-5.58h0.94v7.88h-0.54a0.46,0.46,0,0,1-.21,0,0.54,0.54,0,0,1-.17-0.15l-4.56-5.93c0,0.09,0,.18,0,0.27s0,0.17,0,.24v5.62h-0.94v-7.88h0.55A0.47,0.47,0,0,1,4102.66,13128.28Z" transform="translate(-4043.02 -13119.41)"/><path class="cls-1" d="M4118,13133.55l0.11,0.29c0-.1.08-0.2,0.12-0.29s0.09-.19.14-0.28l2.67-4.85a0.33,0.33,0,0,1,.15-0.15,0.71,0.71,0,0,1,.22,0h0.79v7.88h-0.94v-5.79c0-.08,0-0.16,0-0.25s0-.18,0-0.27l-2.7,4.93a0.42,0.42,0,0,1-.38.25H4118a0.43,0.43,0,0,1-.38-0.25l-2.76-4.95q0,0.14,0,.28c0,0.09,0,.18,0,0.25v5.79H4114v-7.88h0.79a0.7,0.7,0,0,1,.22,0,0.32,0.32,0,0,1,.15.15l2.72,4.85A2,2,0,0,1,4118,13133.55Z" transform="translate(-4043.02 -13119.41)"/><path class="cls-1" d="M4128,13133v3.13H4127V13133l-2.89-4.75H4125a0.33,0.33,0,0,1,.23.07,0.66,0.66,0,0,1,.14.18l1.8,3.06a3.85,3.85,0,0,1,.18.36l0.13,0.34,0.13-.34a2.94,2.94,0,0,1,.18-0.36l1.8-3.06a0.71,0.71,0,0,1,.13-0.17,0.32,0.32,0,0,1,.22-0.08h0.95Z" transform="translate(-4043.02 -13119.41)"/><path class="cls-1" d="M4139.18,13135.35a5.37,5.37,0,0,0,.59,0,3.66,3.66,0,0,0,.5-0.09,3.43,3.43,0,0,0,.45-0.15l0.42-.2v-1.74h-1.22a0.23,0.23,0,0,1-.17-0.06,0.2,0.2,0,0,1-.06-0.15v-0.61h2.42v3a4.42,4.42,0,0,1-.62.37,4.19,4.19,0,0,1-.69.27,4.94,4.94,0,0,1-.78.16,7.48,7.48,0,0,1-.91.05,4.11,4.11,0,0,1-1.57-.29,3.61,3.61,0,0,1-1.23-.83,3.76,3.76,0,0,1-.81-1.27,4.48,4.48,0,0,1-.29-1.63,4.58,4.58,0,0,1,.28-1.64,3.54,3.54,0,0,1,2.08-2.1,4.57,4.57,0,0,1,1.67-.29,5.25,5.25,0,0,1,.87.07,4.1,4.1,0,0,1,.75.2,3.44,3.44,0,0,1,.63.31,3.9,3.9,0,0,1,.54.42l-0.3.48a0.28,0.28,0,0,1-.24.15,0.4,0.4,0,0,1-.19-0.06l-0.31-.19a2.59,2.59,0,0,0-.42-0.21,3.31,3.31,0,0,0-.58-0.17,3.78,3.78,0,0,0-.79-0.07,3.18,3.18,0,0,0-1.2.22,2.54,2.54,0,0,0-.92.62,2.75,2.75,0,0,0-.58,1,3.84,3.84,0,0,0-.2,1.29,3.91,3.91,0,0,0,.21,1.33,2.82,2.82,0,0,0,.6,1,2.58,2.58,0,0,0,.91.62A3.06,3.06,0,0,0,4139.18,13135.35Z" transform="translate(-4043.02 -13119.41)"/><path class="cls-1" d="M4145.75,13132.83v3.29h-1.06v-7.88h2.23a4.88,4.88,0,0,1,1.29.15,2.47,2.47,0,0,1,.9.44,1.75,1.75,0,0,1,.52.69,2.3,2.3,0,0,1,.17.9,2.27,2.27,0,0,1-.13.78,2.07,2.07,0,0,1-.38.65,2.32,2.32,0,0,1-.61.49,3,3,0,0,1-.82.31,1.12,1.12,0,0,1,.35.33l2.3,3.13h-0.95a0.47,0.47,0,0,1-.43-0.23l-2-2.82a0.6,0.6,0,0,0-.2-0.19,0.74,0.74,0,0,0-.33-0.06h-0.81Zm0-.78h1.12a2.75,2.75,0,0,0,.82-0.11,1.69,1.69,0,0,0,.59-0.32,1.32,1.32,0,0,0,.36-0.49,1.61,1.61,0,0,0,.12-0.63,1.26,1.26,0,0,0-.46-1.06,2.25,2.25,0,0,0-1.38-.36h-1.17v3Z" transform="translate(-4043.02 -13119.41)"/><path class="cls-1" d="M4153.64,13136.12h-1.07v-7.88h1.07v7.88Z" transform="translate(-4043.02 -13119.41)"/><path class="cls-1" d="M4163.33,13132.19a4.43,4.43,0,0,1-.28,1.61,3.59,3.59,0,0,1-.79,1.24,3.54,3.54,0,0,1-1.23.8,4.28,4.28,0,0,1-1.58.28h-2.95v-7.88h2.95a4.28,4.28,0,0,1,1.58.28,3.54,3.54,0,0,1,1.23.8,3.61,3.61,0,0,1,.79,1.25A4.44,4.44,0,0,1,4163.33,13132.19Zm-1.09,0a4,4,0,0,0-.2-1.3,2.73,2.73,0,0,0-.56-1,2.41,2.41,0,0,0-.88-0.61,3.05,3.05,0,0,0-1.15-.21h-1.88v6.16h1.88a3,3,0,0,0,1.15-.21,2.42,2.42,0,0,0,.88-0.6,2.7,2.7,0,0,0,.56-1A4,4,0,0,0,4162.23,13132.19Z" transform="translate(-4043.02 -13119.41)"/><path class="cls-1" d="M4167.52,13128.24v0.58h-1v2.68h-0.69v-2.68h-1v-0.58h2.67Zm2.27,1.78,0.06,0.15,0.05,0.15,0-.15a0.81,0.81,0,0,1,.07-0.15l0.93-1.67a0.28,0.28,0,0,1,.09-0.09,0.31,0.31,0,0,1,.13,0h0.58v3.26h-0.6v-2l0-.41-1,1.85a0.25,0.25,0,0,1-.24.15h-0.1a0.24,0.24,0,0,1-.24-0.15l-1-1.83,0,0.4v2H4168v-3.26h0.58a0.29,0.29,0,0,1,.13,0l0.1,0.09Z" transform="translate(-4043.02 -13119.41)"/><rect class="cls-1" width="4.08" height="2.87"/><rect class="cls-1" x="7.1" width="4.08" height="2.87"/><rect class="cls-1" x="14.2" width="4.08" height="2.87"/><rect class="cls-1" x="21.29" width="4.08" height="2.87"/><rect class="cls-1" y="5.78" width="4.08" height="2.87"/><rect class="cls-1" x="7.1" y="5.78" width="4.08" height="2.87"/><rect class="cls-1" x="14.2" y="5.78" width="4.08" height="2.87"/><rect class="cls-1" x="21.29" y="5.78" width="4.08" height="2.87"/><rect class="cls-1" y="11.56" width="4.08" height="2.87"/><rect class="cls-1" x="7.1" y="11.56" width="4.08" height="2.87"/><rect class="cls-1" x="14.2" y="11.56" width="4.08" height="2.87"/><rect class="cls-1" x="21.29" y="11.56" width="4.08" height="2.87"/><rect class="cls-1" y="17.35" width="4.08" height="2.87"/><rect class="cls-1" x="7.1" y="17.35" width="4.08" height="2.87"/><rect class="cls-1" x="14.2" y="17.35" width="4.08" height="2.87"/><rect class="cls-1" x="21.29" y="17.35" width="4.08" height="2.87"/><rect class="cls-1" y="23.13" width="4.08" height="2.87"/><rect class="cls-1" x="7.1" y="23.13" width="4.08" height="2.87"/><rect class="cls-1" x="14.2" y="23.13" width="4.08" height="2.87"/><rect class="cls-1" x="21.29" y="23.13" width="4.08" height="2.87"/></svg>