<svg id="Interactive_elements" data-name="Interactive elements" xmlns="http://www.w3.org/2000/svg" viewBox="0 0 272.82 130.54"><defs><style>.cls-1{fill:#e8f3fc;}.cls-2{fill:#2e8bbd;}</style></defs><title>button_work-station</title><path class="cls-1" d="M985,5150H741.21c-8,0-14.52,6.52-14.52,12.78v105c0,6.26,6.53,12.78,14.52,12.78H985c8,0,14.52-6.52,14.52-12.78v-105C999.51,5156.49,993,5150,985,5150Z" transform="translate(-726.7 -5149.97)"/><path class="cls-2" d="M847.33,5187h17.76a0.58,0.58,0,1,0,0-1.17H847.33A0.58,0.58,0,1,0,847.33,5187Z" transform="translate(-726.7 -5149.97)"/><path class="cls-2" d="M884.13,5179.75l-5.21-4.31a0.89,0.89,0,0,0-1.26.12l-5.69,6.87v-2.08a1.5,1.5,0,0,0-.45-1.07l-5.8-5.72a1.49,1.49,0,0,0-1.05-.43h-23a1.5,1.5,0,0,0-1.5,1.5v40a1.5,1.5,0,0,0,1.5,1.5h28.76a1.5,1.5,0,0,0,1.5-1.5v-18.81L884.25,5181A0.9,0.9,0,0,0,884.13,5179.75ZM869,5213.14H843.21v-37h19.91V5181a0.9,0.9,0,0,0,.9.9h5V5186l-4.42,5.33H847.33a0.58,0.58,0,1,0,0,1.17h16.26l-3.46,4.17h-12.8a0.58,0.58,0,1,0,0,1.17h11.84l-1.07,1.29a0.89,0.89,0,0,0-.17.32l-0.8,2.68h-9.8a0.59,0.59,0,0,0,0,1.17h9.45l-1.32,4.41h-8.13a0.58,0.58,0,1,0,0,1.17h8.45a0.58,0.58,0,0,0,.24-0.05,0.89,0.89,0,0,0,.7,0l7.68-4a1,1,0,0,0,.28-0.23l4.3-5.18v13.69Zm-5.55-9.8h0l-3,1.54-1.8-1.49,0-.06,0.35-1.17,0.59-2,18.89-22.79,1.67,1.38h0l-18,21.67a0.6,0.6,0,1,0,.92.76l17.95-21.67h0l1.24,1Z" transform="translate(-726.7 -5149.97)"/><path class="cls-2" d="M748.29,5247.45v-9.67h2.28v8.57c0,3.31.7,6.5,4.68,6.5s4.68-3.22,4.68-6.5v-8.57h2.28v9.67c0,4.61-2.23,7.46-7,7.46S748.29,5252.06,748.29,5247.45Z" transform="translate(-726.7 -5149.97)"/><path class="cls-2" d="M764.4,5253.79l0.26-2.09a5.85,5.85,0,0,0,3.67,1.2c1.51,0,2.35-.53,2.35-1.46,0-1.22-1.39-1.68-2.35-1.94-1.61-.43-3.7-1-3.7-3.38,0-1.8,1.2-3.53,4.42-3.53a6.51,6.51,0,0,1,3.19.77l-0.26,2a4.25,4.25,0,0,0-2.88-1c-1.34,0-2.28.48-2.28,1.58s0.89,1.39,2.74,1.94c1.15,0.34,3.36,1.06,3.36,3.5,0,1.56-.89,3.5-4.49,3.5A7.35,7.35,0,0,1,764.4,5253.79Z" transform="translate(-726.7 -5149.97)"/><path class="cls-2" d="M775,5240.18v-2.4h2.16v2.4H775Zm0,14.4v-11.76h2.16v11.76H775Z" transform="translate(-726.7 -5149.97)"/><path class="cls-2" d="M788.56,5254.58v-6.48c0-2.5-.84-3.6-3.07-3.6a3.56,3.56,0,0,0-3.22,1.54v8.54h-2.16v-11.76h1.68l0.24,1.25a5.48,5.48,0,0,1,3.89-1.49c3.43,0,4.8,2.14,4.8,5.52v6.48h-2.16Z" transform="translate(-726.7 -5149.97)"/><path class="cls-2" d="M792.69,5257a2.74,2.74,0,0,1,2.09-2.64,1.73,1.73,0,0,1-1.2-1.49,2.09,2.09,0,0,1,1.39-1.75,4.7,4.7,0,0,1,2.76-8.57,5.38,5.38,0,0,1,3,.86,6,6,0,0,1,2.86-.67h0.19l-0.26,1.44H803a8,8,0,0,0-1.39.17,4.13,4.13,0,0,1,1.08,2.81,4.57,4.57,0,0,1-4.75,4.68,6.42,6.42,0,0,1-1.68-.22,0.93,0.93,0,0,0-.58.72c0,0.6.86,0.77,3.65,1.25,1.85,0.31,4.8,1,4.8,3.26,0,1.9-2,3.7-5.91,3.7C794.11,5260.58,792.69,5258.59,792.69,5257Zm3.94-2.11a2.47,2.47,0,0,0-1.87,2.06c0,1.08,1.27,1.92,3.53,1.92s3.62-1,3.62-1.87-1-1.44-3.14-1.82Zm-1.63-7.68a2.72,2.72,0,0,0,2.81,3,2.76,2.76,0,0,0,2.78-3A2.8,2.8,0,1,0,795,5247.24Z" transform="translate(-726.7 -5149.97)"/><path class="cls-2" d="M825.35,5254.58l-1.58-12.7-4.56,8.71-4.66-8.71-1.58,12.7h-2.4l2.26-16.8h1.94l4.42,8.33,4.37-8.33h2l2.23,16.8h-2.4Z" transform="translate(-726.7 -5149.97)"/><path class="cls-2" d="M833.11,5260.39h-2.4l2.71-6.34-4.9-11.23h2.4l3.67,8.74,3.31-8.74h2.4Z" transform="translate(-726.7 -5149.97)"/><path class="cls-2" d="M864,5254.58H861.5l-4-13.78-4.1,13.78h-2.52l-4.7-16.8h2.4l3.72,14.21,4.2-13.87h2.06l4.25,13.85,3.7-14.19h2.4Z" transform="translate(-726.7 -5149.97)"/><path class="cls-2" d="M869,5248.7c0-3.41,2.14-6.12,5.83-6.12s5.83,2.71,5.83,6.12-2.16,6.12-5.83,6.12S869,5252.11,869,5248.7Zm2.21,0c0,2.64,1.3,4.2,3.62,4.2s3.62-1.56,3.62-4.2-1.3-4.2-3.62-4.2S871.22,5246.06,871.22,5248.7Z" transform="translate(-726.7 -5149.97)"/><path class="cls-2" d="M888.64,5244.77H887.9a3.58,3.58,0,0,0-2.69,1.51v8.3h-2.3v-11.76h1.78l0.26,1.94c1.42-1.61,2.54-2.38,4-2.38h0.19Z" transform="translate(-726.7 -5149.97)"/><path class="cls-2" d="M890.59,5254.58v-18h2.16v11.54l4.32-5.3h2.64l-4.85,5.42,5,6.34h-2.64l-4.44-6v6h-2.16Z" transform="translate(-726.7 -5149.97)"/><path class="cls-2" d="M906.52,5253.84l0.31-2.66a9,9,0,0,0,5.23,1.68c2.06,0,4-.7,4-2.59s-1.92-2.62-4.34-3.38c-2.78-.89-5.47-1.7-5.47-4.58,0-2.09,1.44-4.85,6-4.85a12.4,12.4,0,0,1,5.28,1.15l-0.24,2.42a10.89,10.89,0,0,0-4.82-1.51c-1.73,0-3.77.72-3.77,2.47,0,1.56,1.61,2.18,3.63,2.81,3,0.91,6.19,1.8,6.19,5.45,0,1.78-.74,4.68-6.55,4.68A12.54,12.54,0,0,1,906.52,5253.84Z" transform="translate(-726.7 -5149.97)"/><path class="cls-2" d="M926.42,5254.82h-1.94a2.72,2.72,0,0,1-3.07-2.81v-7.51h-2l0.19-1.68h1.82v-2.9l2.16-.22v3.12h3.1v1.68h-3.1v6.19c0,2.26.14,2.4,2.47,2.4h0.55Z" transform="translate(-726.7 -5149.97)"/><path class="cls-2" d="M938,5254.82h-0.17c-2.09,0-2.54-.62-3-1.73a4.65,4.65,0,0,1-3.6,1.73,3.36,3.36,0,0,1-3.62-3.41c0-3.31,4-4.15,7-4.2,0-2.23-.91-2.71-2.57-2.71a5.12,5.12,0,0,0-3.1,1.06l-0.31-1.75a6.78,6.78,0,0,1,4-1.22c3,0,4.15,1.39,4.15,5.64v2.4c0,1.68.1,2.47,1.34,2.47h0.22Zm-3.38-6.12c-3.43.12-4.82,0.84-4.82,2.59a1.63,1.63,0,0,0,1.82,1.8,3.81,3.81,0,0,0,3-1.58v-2.81Z" transform="translate(-726.7 -5149.97)"/><path class="cls-2" d="M945.78,5254.82h-1.94a2.72,2.72,0,0,1-3.07-2.81v-7.51h-2l0.19-1.68h1.82v-2.9l2.16-.22v3.12H946v1.68h-3.1v6.19c0,2.26.14,2.4,2.47,2.4H946Z" transform="translate(-726.7 -5149.97)"/><path class="cls-2" d="M947.87,5240.18v-2.4H950v2.4h-2.16Zm0,14.4v-11.76H950v11.76h-2.16Z" transform="translate(-726.7 -5149.97)"/><path class="cls-2" d="M952.26,5248.7c0-3.41,2.14-6.12,5.83-6.12s5.83,2.71,5.83,6.12-2.16,6.12-5.83,6.12S952.26,5252.11,952.26,5248.7Zm2.21,0c0,2.64,1.3,4.2,3.62,4.2s3.62-1.56,3.62-4.2-1.3-4.2-3.62-4.2S954.47,5246.06,954.47,5248.7Z" transform="translate(-726.7 -5149.97)"/><path class="cls-2" d="M974.61,5254.58v-6.48c0-2.5-.84-3.6-3.07-3.6a3.56,3.56,0,0,0-3.22,1.54v8.54h-2.16v-11.76h1.68l0.24,1.25a5.48,5.48,0,0,1,3.89-1.49c3.43,0,4.8,2.14,4.8,5.52v6.48h-2.16Z" transform="translate(-726.7 -5149.97)"/></svg>