<svg id="Interactive_elements" data-name="Interactive elements" xmlns="http://www.w3.org/2000/svg" viewBox="0 0 272.82 130.54"><defs><style>.cls-1{fill:#e8f3fc;}.cls-2{fill:#2e8bbd;}</style></defs><title>button_unlocking-modules</title><path class="cls-1" d="M1287.37,5150H1043.59c-8,0-14.52,6.52-14.52,12.78v105c0,6.26,6.53,12.78,14.52,12.78h243.78c8,0,14.52-6.52,14.52-12.78v-105C1301.89,5156.49,1295.35,5150,1287.37,5150Z" transform="translate(-1029.07 -5149.97)"/><path class="cls-2" d="M1177.46,5189.62h-2v-10.74a10,10,0,1,0-20,0v3.7h4.29v-3.7a5.73,5.73,0,1,1,11.46,0v10.74h-17.78a4,4,0,0,0-4,4v18.5a4,4,0,0,0,4,4h24.11a4,4,0,0,0,4-4v-18.5A4,4,0,0,0,1177.46,5189.62Zm-10,20h-4.19l-0.79-6.67a2.89,2.89,0,0,1,5.77,0Z" transform="translate(-1029.07 -5149.97)"/><path class="cls-2" d="M1051.39,5247.45v-9.67h2.28v8.57c0,3.31.7,6.5,4.68,6.5s4.68-3.22,4.68-6.5v-8.57h2.28v9.67c0,4.61-2.23,7.46-7,7.46S1051.39,5252.06,1051.39,5247.45Z" transform="translate(-1029.07 -5149.97)"/><path class="cls-2" d="M1076.57,5254.58v-6.48c0-2.5-.84-3.6-3.07-3.6a3.56,3.56,0,0,0-3.22,1.54v8.54h-2.16v-11.76h1.68l0.24,1.25a5.48,5.48,0,0,1,3.89-1.49c3.43,0,4.8,2.14,4.8,5.52v6.48h-2.16Z" transform="translate(-1029.07 -5149.97)"/><path class="cls-2" d="M1085.26,5254.82h-0.7c-2.28,0-3-1.42-3-2.83v-15.41h2.16v14.16c0,2,.24,2.35,1.9,2.35Z" transform="translate(-1029.07 -5149.97)"/><path class="cls-2" d="M1086.38,5248.7c0-3.41,2.14-6.12,5.83-6.12s5.83,2.71,5.83,6.12-2.16,6.12-5.83,6.12S1086.38,5252.11,1086.38,5248.7Zm2.21,0c0,2.64,1.3,4.2,3.62,4.2s3.62-1.56,3.62-4.2-1.3-4.2-3.62-4.2S1088.59,5246.06,1088.59,5248.7Z" transform="translate(-1029.07 -5149.97)"/><path class="cls-2" d="M1099.61,5248.68c0-3.43,1.92-6.1,5.83-6.1a7.61,7.61,0,0,1,3.62.7l-0.34,1.94a6.87,6.87,0,0,0-3-.72c-2.62,0-3.86,1.56-3.86,4.18s1.25,4.25,3.86,4.25a7,7,0,0,0,3.07-.72l0.29,1.73a6,6,0,0,1-3.58.89C1101.55,5254.82,1099.61,5252,1099.61,5248.68Z" transform="translate(-1029.07 -5149.97)"/><path class="cls-2" d="M1111.15,5254.58v-18h2.16v11.54l4.32-5.3h2.64l-4.85,5.42,5,6.34h-2.64l-4.44-6v6h-2.16Z" transform="translate(-1029.07 -5149.97)"/><path class="cls-2" d="M1121.93,5240.18v-2.4h2.16v2.4h-2.16Zm0,14.4v-11.76h2.16v11.76h-2.16Z" transform="translate(-1029.07 -5149.97)"/><path class="cls-2" d="M1135.46,5254.58v-6.48c0-2.5-.84-3.6-3.07-3.6a3.56,3.56,0,0,0-3.22,1.54v8.54H1127v-11.76h1.68l0.24,1.25a5.48,5.48,0,0,1,3.89-1.49c3.43,0,4.8,2.14,4.8,5.52v6.48h-2.16Z" transform="translate(-1029.07 -5149.97)"/><path class="cls-2" d="M1139.59,5257a2.74,2.74,0,0,1,2.09-2.64,1.73,1.73,0,0,1-1.2-1.49,2.09,2.09,0,0,1,1.39-1.75,4.7,4.7,0,0,1,2.76-8.57,5.38,5.38,0,0,1,3,.86,6,6,0,0,1,2.86-.67h0.19l-0.26,1.44h-0.55a8,8,0,0,0-1.39.17,4.13,4.13,0,0,1,1.08,2.81,4.57,4.57,0,0,1-4.75,4.68,6.42,6.42,0,0,1-1.68-.22,0.93,0.93,0,0,0-.58.72c0,0.6.86,0.77,3.65,1.25,1.85,0.31,4.8,1,4.8,3.26,0,1.9-2,3.7-5.91,3.7C1141,5260.58,1139.59,5258.59,1139.59,5257Zm3.94-2.11a2.47,2.47,0,0,0-1.87,2.06c0,1.08,1.27,1.92,3.53,1.92s3.62-1,3.62-1.87-1-1.44-3.14-1.82Zm-1.63-7.68a2.72,2.72,0,0,0,2.81,3,2.76,2.76,0,0,0,2.78-3A2.8,2.8,0,1,0,1141.9,5247.24Z" transform="translate(-1029.07 -5149.97)"/><path class="cls-2" d="M1163.78,5254.82h-1.94a2.72,2.72,0,0,1-3.07-2.81v-7.51h-2l0.19-1.68h1.82v-2.9l2.16-.22v3.12h3.1v1.68h-3.1v6.19c0,2.26.14,2.4,2.47,2.4H1164Z" transform="translate(-1029.07 -5149.97)"/><path class="cls-2" d="M1173.91,5254.58v-6.29c0-2.79-.72-3.79-2.81-3.79A3.29,3.29,0,0,0,1168,5246v8.54h-2.18v-18H1168v7.51a4,4,0,0,1,3.41-1.51c3.38,0,4.63,2.33,4.63,5.71v6.29h-2.16Z" transform="translate(-1029.07 -5149.97)"/><path class="cls-2" d="M1180.37,5248.7c0.31,3.26,2.18,4.2,4.42,4.2a8.47,8.47,0,0,0,3.38-.7l0.29,1.7a9.4,9.4,0,0,1-3.94.91,5.94,5.94,0,0,1-6.36-6.22c0-3.29,2.11-6,5.76-6a4.7,4.7,0,0,1,5.06,5,6.73,6.73,0,0,1-.1,1.15h-8.52Zm0.19-1.49h6.19c0-1.66-.91-2.71-2.88-2.71A3.12,3.12,0,0,0,1180.56,5247.22Z" transform="translate(-1029.07 -5149.97)"/><path class="cls-2" d="M1211,5254.58l-1.58-12.7-4.56,8.71-4.66-8.71-1.58,12.7h-2.4l2.26-16.8h1.94l4.42,8.33,4.37-8.33h2l2.23,16.8H1211Z" transform="translate(-1029.07 -5149.97)"/><path class="cls-2" d="M1215.07,5248.7c0-3.41,2.14-6.12,5.83-6.12s5.83,2.71,5.83,6.12-2.16,6.12-5.83,6.12S1215.07,5252.11,1215.07,5248.7Zm2.21,0c0,2.64,1.3,4.2,3.62,4.2s3.62-1.56,3.62-4.2-1.3-4.2-3.62-4.2S1217.28,5246.06,1217.28,5248.7Z" transform="translate(-1029.07 -5149.97)"/><path class="cls-2" d="M1237.46,5254.58l-0.24-1.49a5,5,0,0,1-3.6,1.73c-3,0-5.35-2.69-5.35-6.12,0-3.22,2.06-6.12,5.35-6.12a4.59,4.59,0,0,1,3.6,1.49v-7.49h2.16v18h-1.92Zm-7-5.88c0,2.3,1.25,4.2,3.31,4.2,1.73,0,3.67-1.18,3.67-4.13s-1.94-4.27-3.67-4.27C1231.73,5244.5,1230.48,5246.3,1230.48,5248.7Z" transform="translate(-1029.07 -5149.97)"/><path class="cls-2" d="M1250,5254.58l-0.24-1.3a3.64,3.64,0,0,1-3.26,1.54c-2.76,0-4.34-1.63-4.34-5.16v-6.84h2.16v6.24c0,2.5.79,3.84,2.74,3.84a3.07,3.07,0,0,0,2.71-1.34v-8.74h2.16v11.76H1250Z" transform="translate(-1029.07 -5149.97)"/><path class="cls-2" d="M1258.58,5254.82h-0.7c-2.28,0-3-1.42-3-2.83v-15.41H1257v14.16c0,2,.24,2.35,1.9,2.35Z" transform="translate(-1029.07 -5149.97)"/><path class="cls-2" d="M1261.9,5248.7c0.31,3.26,2.18,4.2,4.42,4.2a8.47,8.47,0,0,0,3.38-.7l0.29,1.7a9.4,9.4,0,0,1-3.94.91,5.94,5.94,0,0,1-6.36-6.22c0-3.29,2.11-6,5.76-6a4.7,4.7,0,0,1,5.06,5,6.73,6.73,0,0,1-.1,1.15h-8.52Zm0.19-1.49h6.19c0-1.66-.91-2.71-2.88-2.71A3.12,3.12,0,0,0,1262.09,5247.22Z" transform="translate(-1029.07 -5149.97)"/><path class="cls-2" d="M1272,5253.79l0.26-2.09a5.85,5.85,0,0,0,3.67,1.2c1.51,0,2.35-.53,2.35-1.46,0-1.22-1.39-1.68-2.35-1.94-1.61-.43-3.7-1-3.7-3.38,0-1.8,1.2-3.53,4.42-3.53a6.51,6.51,0,0,1,3.19.77l-0.26,2a4.25,4.25,0,0,0-2.88-1c-1.34,0-2.28.48-2.28,1.58s0.89,1.39,2.74,1.94c1.15,0.34,3.36,1.06,3.36,3.5,0,1.56-.89,3.5-4.49,3.5A7.35,7.35,0,0,1,1272,5253.79Z" transform="translate(-1029.07 -5149.97)"/></svg>