<svg id="Interactive_elements" data-name="Interactive elements" xmlns="http://www.w3.org/2000/svg" xmlns:xlink="http://www.w3.org/1999/xlink" viewBox="0 0 183.98 166.14"><defs><style>.cls-1{fill:none;}.cls-2{fill:#e1f0fb;}.cls-3{clip-path:url(#clip-path);}.cls-4{fill:#6cc5f5;}.cls-5{fill:#14608a;}.cls-6,.cls-7{fill:#2e8bbd;}.cls-7{stroke:#fff;stroke-width:1px;}</style><clipPath id="clip-path" transform="translate(-9142.53 -5213.08)"><rect class="cls-1" x="9142.53" y="5213.08" width="183.98" height="129.03"/></clipPath></defs><title>centered</title><rect class="cls-2" width="183.98" height="129.03"/><g class="cls-3"><path class="cls-4" d="M9201.93,5255.68s-6.95-4-6.95,5.21c0,5.44,5,13.58,6.73,14.72s4.59,0.57,4.59.57,2.49,12.38,7.08,16.39,8,5,8,5l-1.44,15.73,3.33,19.32,24.67-.57,2.09-15.69-2.33-18.6s5.94-3.16,8.81-7.18c1.58-2.22,5.95-14.94,5.95-14.94s2.77,2.3,5-.07,3.45-9.29,4-14.5c1.24-11.2-6-6.65-6-6.65a45.63,45.63,0,0,0-7.46-25.62c-8.33-12.65-37.76-12.77-45.64-2C9201.43,5241.89,9201.93,5255.68,9201.93,5255.68Z" transform="translate(-9142.53 -5213.08)"/><path class="cls-5" d="M9220.23,5309.23s-27.77,3.51-33.06,9.36-7,9.95-7.93,19.89c-0.43,4.67-2.57,23.31-2.57,23.31l114.26,0.37s-1.22-21.83-1.22-26.51-0.71-11.21-6-17.06-34.38-9.36-34.38-9.36-4.11,7.64-14.69,7.64S9220.23,5309.23,9220.23,5309.23Z" transform="translate(-9142.53 -5213.08)"/><path class="cls-6" d="M9201.93,5255.68l1.95,6s2.38-16.24,6.73-23,5.94-11.88,10.69-12.28,9.5,3.56,15.84,4.36,9.9-6.34,13.86-3.56,4.75,3.17,7.92,11.09,3.56,18.61,3.56,18.61l3-2.5s3.3-33.54-30-35.91S9201.93,5255.68,9201.93,5255.68Z" transform="translate(-9142.53 -5213.08)"/></g><path class="cls-6" d="M9216.38,5365.55s3.86-.22,4.52-0.88,1.87-3.76,3.15-5.13c1-1,1.93-1.27,2.48-2s3.09-6.62,3.09-6.62,0.77-1.32,1.66-1.32,2.1,1.21,1.88,3.09a45.84,45.84,0,0,1-1.1,5.63c-0.22.66-.33,2.32,0.22,2.43s5,0.76,6.07.77c1.7,0,3.87-.15,3.86,2.43,0,2.87-1.1,2.87-1.1,2.87a2.21,2.21,0,0,1,.77,2,3.1,3.1,0,0,1-1.32,2.32s0.87,0.4.54,1.95a2.49,2.49,0,0,1-1.53,1.91,2,2,0,0,1-.55,2.1c-1,.66-4.63,2-10.15,1.1s-5.63-1.21-6.73-1.21-5,.33-5,0.33Z" transform="translate(-9142.53 -5213.08)"/><rect class="cls-7" x="9213.24" y="5364.22" width="5.84" height="14.19" transform="translate(-9630.45 -4271.15) rotate(-5.7)"/></svg>