<svg id="Interactive_elements" data-name="Interactive elements" xmlns="http://www.w3.org/2000/svg" viewBox="0 0 364.75 237.63"><defs><style>.cls-1{fill:#f37573;}.cls-2{fill:#88252b;}.cls-3{fill:#c53a43;}.cls-4{fill:#76c9f6;}.cls-5{fill:#ffca00;}.cls-6{fill:#fe961c;}.cls-7{fill:#fff;}</style></defs><title>faq_header_character</title><path class="cls-1" d="M711,5108.26c0.91,1.7,2.69-8.46,5.9-14.83a17,17,0,0,1,7.32-7.74s3.76-5.7-1.17-9.85c-2.19-1.85-18.37-4.81-15.44-40.14,1.4-16.86,5.56-11.13,20.86-10.43s26.21,4.94,22.64,20.76c-5.39,23.86-6.26,21-8.75,24.21-6.48,8.34.48,14.67,0.48,14.67l4.51,5.15,4.52,14.38Z" transform="translate(-558.87 -4884.63)"/><path class="cls-2" d="M718.6,5023.24s-9.35-1.85-14.12,3.8-6.35,13.52-2.56,20,6.69,18.7,6.63,22.93-2.62,15.17-2.62,15.17l1.1-.21,1.23-6.68-0.73,6.58,6.17-1.16-0.3-7,2,6.58,0.82-.15-0.91-4.13,1.66,4,8.56-1.46s1-7.15-4.11-10.08c-12.07-6.9-12.72-23-9.15-28.86,2.81-4.65,5.27-4.67,9.31-3.53,2.4,0.68,5.86,3.44,9.77,4.22,0.34,0.07-4.17-2.64-3.82-2.58s5.28,1.25,5.75,1.32a49.9,49.9,0,0,0,7.11.51c6.29,0,7.49,17.1.17,25.3-3.24,3.63-.71,12.39-0.71,12.39l7.12-1.07-0.46-5,2,4.85,0.52-.13-0.52-3,1.62,2.84,7.23-.82-3.3-6.39,4.26,6.32,2.64-.31s-6.86-8.1-8.49-14.18,6.51-29.83-3.08-40.49C737.49,5009.42,718.6,5023.24,718.6,5023.24Z" transform="translate(-558.87 -4884.63)"/><path class="cls-3" d="M724.12,5085.7s-12.48,17.92,9.76,16.73c19.65-1,8.85-17.57,8.85-17.57s15.76,1.81,20.5,6c4.43,3.88,4.71,31.44,4.71,31.44H756.11L754,5111.13l-2.09,11.13H716.48l-4.17-10.43-1.39,10.43H699.79s0-25,3.48-28.51S724.12,5085.7,724.12,5085.7Z" transform="translate(-558.87 -4884.63)"/><path class="cls-4" d="M752.95,4988.48a6.84,6.84,0,0,0-10.14,4.7c-0.44,3.55,1,7.38,6.27,8.85C754.69,5003.6,762.83,4993.54,752.95,4988.48Z" transform="translate(-558.87 -4884.63)"/><path class="cls-4" d="M760.34,4970c-7.55,3.54-7.19,11.95-3.57,15.55s9.22,5.31,15.48.67C778.93,4981.29,774.7,4963.29,760.34,4970Z" transform="translate(-558.87 -4884.63)"/><path class="cls-4" d="M743.3,5003.82c-3.13-1.33-7.26,2.63-2.92,6.64S750.06,5006.7,743.3,5003.82Z" transform="translate(-558.87 -4884.63)"/><path class="cls-5" d="M773.18,5010.43a6.84,6.84,0,0,0-.46,11.16c3,2,7,2.47,10.74-1.53C787.42,5015.79,782.19,5003.95,773.18,5010.43Z" transform="translate(-558.87 -4884.63)"/><path class="cls-5" d="M760.38,5019.06c-2.62,2.18-1,7.66,4.57,5.63S766,5014.36,760.38,5019.06Z" transform="translate(-558.87 -4884.63)"/><path class="cls-4" d="M779.22,4900.09c-15.85-20.42-34.64-18.9-52.66-5.42-10.73-4.87-23.37-1.81-29.53,7.45A22.46,22.46,0,0,0,694,4921a17,17,0,0,0,15.82,11.74c-6.52,4.58-6.37,16.6,2.55,25.52,9.19,9.19,19.94,9.19,28.07,10.21s19.9-2.55,29.6-7.65c7.35,9.16,33.7,12.74,43.23,5.09s6.72-21.79-2.94-29.1c5.64-1.51,14.55-7.31,16.35-14.26,2-7.76-3.06-24-20.92-27.56C793.13,4892.46,787.3,4899.93,779.22,4900.09Z" transform="translate(-558.87 -4884.63)"/><path class="cls-6" d="M635.68,5039.1A37.83,37.83,0,0,0,672,5026.37a29.56,29.56,0,0,0,8.36-.38c6.94-1.18,13.82-4,18.65-9.13s7.25-12.83,5-19.48S694,4986,687.24,4988c5.11-13.09-4.7-29.21-18.43-32.18s-28.51,6.18-33.55,19.29A26.27,26.27,0,0,0,587,4983c-7.8-4.37-17.53,1.67-22.8,8.89-4.09,5.61-7,13-4.26,19.42,2.21,5.1,7.65,8.2,13.13,9.1s11.08,0,16.56-1c-6.76,5-7.3,15.86-2.27,22.6s14.2,9.5,22.56,8.49S630.43,5048,635.68,5039.1Z" transform="translate(-558.87 -4884.63)"/><path class="cls-6" d="M672.84,5036a6.84,6.84,0,0,0-.46,11.16c3,2,7,2.47,10.74-1.53C687.08,5041.39,681.85,5029.55,672.84,5036Z" transform="translate(-558.87 -4884.63)"/><path class="cls-6" d="M686.84,5047.81c-2.62,2.18-1,7.66,4.57,5.63S692.5,5043.1,686.84,5047.81Z" transform="translate(-558.87 -4884.63)"/><path class="cls-5" d="M837.49,5084.75c-12.76,5.67-29.13,1.55-37.69-9.48a22,22,0,0,0-3.69-4.24,23.67,23.67,0,0,0-5.07-2.49c-12.11-5.32-18.6-20.81-13.91-33.17s19.84-19.63,32.43-15.56c3.26-10.3,10.83-19.81,21.25-22.68s23.23,2.92,25.73,13.43c5.21-5.49,11.07-10.63,18.13-13.33s15.56-2.62,21.7,1.8,8.82,13.7,4.64,20c12.4-1.21,23.7,11.33,22.51,23.73s-13.21,22.3-25.67,22.54c5.52,6.81,1,17.19-6,22.41C878.92,5097.35,848.54,5101.76,837.49,5084.75Z" transform="translate(-558.87 -4884.63)"/><path class="cls-7" d="M621.55,4989.5a19.8,19.8,0,0,1,1.93-2,17.82,17.82,0,0,1,2.34-1.81,16.57,16.57,0,0,1,2.81-1.45,18,18,0,0,1,3.39-1,15.19,15.19,0,0,1,4.83-.2,10.36,10.36,0,0,1,3.94,1.31,8.85,8.85,0,0,1,2.85,2.68,10.18,10.18,0,0,1,1.56,3.88,10.45,10.45,0,0,1,.11,3.77,10.16,10.16,0,0,1-1,2.94,11.43,11.43,0,0,1-1.6,2.33l-1.73,1.92a17.36,17.36,0,0,0-1.39,1.73,3,3,0,0,0-.58,1.72l0,4-5.88,1.12-1.46-4.35q-0.06-.16-0.1-0.32c0-.11-0.06-0.22-0.08-0.33a4,4,0,0,1,.18-2.25,7.72,7.72,0,0,1,1.15-2,23.1,23.1,0,0,1,1.63-1.83,17.65,17.65,0,0,0,1.62-1.89,7.84,7.84,0,0,0,1.12-2.11,4.81,4.81,0,0,0,.13-2.51,3.44,3.44,0,0,0-1.6-2.44,4.41,4.41,0,0,0-3.19-.41,8.55,8.55,0,0,0-2.4.77,10,10,0,0,0-1.56,1q-0.64.51-1.1,0.91a2.12,2.12,0,0,1-1,.5,1.94,1.94,0,0,1-2-.69Zm11.25,31.38a4.68,4.68,0,0,1,0-1.93,4.79,4.79,0,0,1,.74-1.69,5.16,5.16,0,0,1,5.2-2,5.18,5.18,0,0,1,1.74.72,4.67,4.67,0,0,1,2.05,3.09,4.79,4.79,0,0,1,0,1.94,4.63,4.63,0,0,1-.75,1.71,4.94,4.94,0,0,1-1.36,1.29,5.14,5.14,0,0,1-1.84.72,5.2,5.2,0,0,1-2,0A4.76,4.76,0,0,1,632.79,5020.89Z" transform="translate(-558.87 -4884.63)"/><path class="cls-7" d="M757.18,4910.25a19.71,19.71,0,0,1,2.4-1.44,17.79,17.79,0,0,1,2.74-1.11,16.56,16.56,0,0,1,3.1-.64,18,18,0,0,1,3.53,0,15.19,15.19,0,0,1,4.7,1.11,10.39,10.39,0,0,1,3.44,2.32,8.86,8.86,0,0,1,2,3.35,10.18,10.18,0,0,1,.45,4.16,10.45,10.45,0,0,1-.91,3.66,10.16,10.16,0,0,1-1.74,2.57,11.44,11.44,0,0,1-2.17,1.81l-2.19,1.38a17.44,17.44,0,0,0-1.81,1.29,3,3,0,0,0-1,1.5l-1.13,3.87-6-.51-0.23-4.58q0-.17,0-0.34c0-.11,0-0.23,0-0.34a4,4,0,0,1,.78-2.11,7.71,7.71,0,0,1,1.64-1.57,22.83,22.83,0,0,1,2.07-1.32,17.77,17.77,0,0,0,2.07-1.38,7.84,7.84,0,0,0,1.65-1.73,4.81,4.81,0,0,0,.8-2.38,3.44,3.44,0,0,0-.88-2.78,4.41,4.41,0,0,0-3-1.26,8.54,8.54,0,0,0-2.51.1,10,10,0,0,0-1.77.54L762,4915a2.12,2.12,0,0,1-1.09.22,1.94,1.94,0,0,1-1.71-1.2Zm2.34,33.25a4.68,4.68,0,0,1,.54-1.85,4.79,4.79,0,0,1,1.17-1.43,5.16,5.16,0,0,1,5.56-.55,5.17,5.17,0,0,1,1.49,1.16,4.67,4.67,0,0,1,1.14,3.53,4.78,4.78,0,0,1-.54,1.87,4.63,4.63,0,0,1-1.19,1.44,5,5,0,0,1-1.66.88,5.14,5.14,0,0,1-2,.2,5.21,5.21,0,0,1-1.94-.54,4.78,4.78,0,0,1-1.47-1.15,4.73,4.73,0,0,1-.91-1.62A4.79,4.79,0,0,1,759.52,4943.51Z" transform="translate(-558.87 -4884.63)"/><path class="cls-7" d="M847.92,5028.37a19.78,19.78,0,0,1,2.47-1.32,17.75,17.75,0,0,1,2.79-1,16.59,16.59,0,0,1,3.13-.49,18,18,0,0,1,3.53.14,15.19,15.19,0,0,1,4.65,1.33,10.38,10.38,0,0,1,3.33,2.48,8.86,8.86,0,0,1,1.86,3.44,10.19,10.19,0,0,1,.25,4.18,10.45,10.45,0,0,1-1.08,3.61,10.16,10.16,0,0,1-1.86,2.48,11.42,11.42,0,0,1-2.25,1.71l-2.25,1.28a17.44,17.44,0,0,0-1.87,1.2,3,3,0,0,0-1.09,1.45l-1.31,3.81-5.93-.79v-4.58c0-.11,0-0.23,0-0.34s0-.23,0-0.34a4,4,0,0,1,.88-2.08,7.72,7.72,0,0,1,1.71-1.49,22.91,22.91,0,0,1,2.13-1.22,17.68,17.68,0,0,0,2.14-1.28,7.85,7.85,0,0,0,1.73-1.65,4.81,4.81,0,0,0,.91-2.34,3.44,3.44,0,0,0-.75-2.82,4.41,4.41,0,0,0-2.9-1.4,8.57,8.57,0,0,0-2.52,0,10,10,0,0,0-1.8.46l-1.34.52a2.13,2.13,0,0,1-1.1.17,1.94,1.94,0,0,1-1.65-1.27Zm0.78,33.33a4.69,4.69,0,0,1,.63-1.82,4.78,4.78,0,0,1,1.24-1.37,5.16,5.16,0,0,1,5.58-.29,5.17,5.17,0,0,1,1.43,1.23,4.67,4.67,0,0,1,1,3.58,4.78,4.78,0,0,1-.63,1.84,4.62,4.62,0,0,1-1.25,1.38,4.94,4.94,0,0,1-1.7.8,5.13,5.13,0,0,1-2,.1,5.19,5.19,0,0,1-1.91-.62A4.76,4.76,0,0,1,848.71,5061.7Z" transform="translate(-558.87 -4884.63)"/></svg>