<svg id="Interactive_elements" data-name="Interactive elements" xmlns="http://www.w3.org/2000/svg" viewBox="0 0 79.14 45.56"><defs><style>.cls-1{fill:#2e8bbd;}</style></defs><title>icon_contact</title><path class="cls-1" d="M1158.44,5362.22a18.29,18.29,0,0,1,5.47-12.79,30.48,30.48,0,0,0-12.26-2.51c-14.25,0-25.81,9.4-25.81,21a19,19,0,0,0,6.93,14.28l-1,8.52,8.87-3.85a30.59,30.59,0,0,0,11,2c8.4,0,15.86-3.27,20.58-8.32C1164,5377.16,1158.44,5370.22,1158.44,5362.22Z" transform="translate(-1125.84 -5345.15)"/><path class="cls-1" d="M1183.81,5345.15c11.69,0,21.17,7.71,21.17,17.22a15.58,15.58,0,0,1-5.68,11.71l0.8,7-7.28-3.16a25.1,25.1,0,0,1-9,1.67c-11.69,0-21.17-7.71-21.17-17.22S1172.12,5345.15,1183.81,5345.15Z" transform="translate(-1125.84 -5345.15)"/></svg>