<svg id="Interactive_elements" data-name="Interactive elements" xmlns="http://www.w3.org/2000/svg" viewBox="0 0 72.63 27.5"><defs><style>.cls-1{fill:#c53a43;}</style></defs><title>work-station_arrow</title><path class="cls-1" d="M12389.46,5245.63a1.17,1.17,0,0,0-1-1.46c-5.7-.51-10.37-0.14-15.08-0.37-11.87-.58-39.05.61-31.38,0.41-5,.08-10.39.6-13.89,0.81a22.38,22.38,0,0,1,6.26-3.81,22,22,0,0,0,3.82-1.54,3.18,3.18,0,0,0,1.88-2.6c0.05-1.63-.82-3.82-2.12-3.89a5.69,5.69,0,0,0-2.3,1.34,40.73,40.73,0,0,1-3.7,2.35,121.55,121.55,0,0,0-13.14,8.82c-1.17.88-2,1.52-2,2.28s0.48,1.35,1.7,2.42a35.9,35.9,0,0,0,12.32,7.06,35.85,35.85,0,0,1,5.48,2.53,4.4,4.4,0,0,0,1.73.7,3.93,3.93,0,0,0,3.83-3.26,1.09,1.09,0,0,0-.9-1.06c-1.29-.39-3-0.8-4.91-1.28a27.21,27.21,0,0,1-9.65-4.37h0c4.93-1.35,9.25-1.4,13-1.66,2.11-.15,19.2-0.81,21-0.72,3.45,0.17,17.3-.12,20.7,0a30.68,30.68,0,0,0,6.32-.34A2.52,2.52,0,0,0,12389.46,5245.63Z" transform="translate(-12316.84 -5233.17)"/></svg>