<svg id="Interactive_elements" data-name="Interactive elements" xmlns="http://www.w3.org/2000/svg" viewBox="0 0 99.9 24.91"><defs><style>.cls-1{fill:#c53a43;}</style></defs><title>you-text+arrow</title><path class="cls-1" d="M3586.73,4972.8a45,45,0,0,0-2.38,4.28q-0.76,1.67-1.4,3.35c-0.68,1.8.14,2.23-1.37,4a18.31,18.31,0,0,0-1.22,3.35c-0.43,1.48-.86,3-1.33,4.46a18,18,0,0,1-.61,2,1.22,1.22,0,0,1-2.34-.61,21,21,0,0,1,1-5.8c0.22-.79,1.12-3.28,1.51-4.61,0.22-.72.22-0.9-0.07-1-0.68-.32-1.51-0.68-2.3-1.15a25.43,25.43,0,0,1-7.88-7.42,1.94,1.94,0,0,1-.36-1.08,2.26,2.26,0,0,1,2.2-2.05,1.2,1.2,0,0,1,1,.43c0.9,0.94,1.69,2,2.56,3a23.89,23.89,0,0,0,6,5.22,0.66,0.66,0,0,0,.9-0.36c0.22-.5.47-1.55,0.68-2.16a34.9,34.9,0,0,1,2.45-5.8,1.19,1.19,0,0,1,1.19-.68,2,2,0,0,1,2.12,1.73A1.84,1.84,0,0,1,3586.73,4972.8Z" transform="translate(-3567.94 -4970.1)"/><path class="cls-1" d="M3599.8,4984.35c-0.72,3.17-3,6.66-6.62,6.66a6.6,6.6,0,0,1-6.37-6.19c0-2.84,1.55-4.71,3.85-6.16a18.48,18.48,0,0,0,3.06-2.23,3,3,0,0,1,2.12-1,2.17,2.17,0,0,1,2.09,1.48c0.76,1.87,2,4.07,2,6.08A5.69,5.69,0,0,1,3599.8,4984.35Zm-3.24-3.06c-0.07-.14-0.18-0.25-0.36-0.07a1.63,1.63,0,0,1-1.08.47c-0.83,0-1.3-.76-1.76-0.76a2.4,2.4,0,0,0-1.19.54,3.17,3.17,0,0,0-1.66,3c0,2,1,3.17,3.06,3.17s3.53-2.09,3.53-4A6,6,0,0,0,3596.56,4981.29Z" transform="translate(-3567.94 -4970.1)"/><path class="cls-1" d="M3618.12,4992.09c-2.27,0-3.17-6.41-4-6.41a0.57,0.57,0,0,0-.36.4c-1.19,2.09-2.3,4.36-5.08,4.36-4.32,0-5.08-4.61-5.08-8a31,31,0,0,1,.65-6.3,1.38,1.38,0,0,1,1.48-.9c0.94,0,2.05.5,2.05,1.55,0,0.14,0,.25,0,0.36a18.82,18.82,0,0,0-.54,4.25c0,1,.36,5.33,1.73,5.33a1.81,1.81,0,0,0,1.22-.83,8.54,8.54,0,0,0,2.23-5.44c0-.29,0-0.58,0-0.86,0-1,1.22-1.48,2.05-1.48a1.83,1.83,0,0,1,1.87,1.33c0.65,2.12,1.84,7.74,3.42,9.07a1.9,1.9,0,0,1,.79,1.44A2.51,2.51,0,0,1,3618.12,4992.09Z" transform="translate(-3567.94 -4970.1)"/><path class="cls-1" d="M3626.07,4982.16a0.8,0.8,0,0,0,.61,1c3.9,0.6,7.12.54,10.35,0.9,1.29,0.14,11.73.49,13.34,0.55,3.47,0.16,7.17,0,9.58,0a15.41,15.41,0,0,1-4.47,2.35,15.16,15.16,0,0,0-2.69.9,2.19,2.19,0,0,0-1.4,1.71c-0.1,1.12.4,2.66,1.29,2.77a3.92,3.92,0,0,0,1.64-.82,28.05,28.05,0,0,1,2.64-1.46,83.72,83.72,0,0,0,9.41-5.5c0.84-.55,1.42-1,1.47-1.48a2.57,2.57,0,0,0-1.06-1.74,24.73,24.73,0,0,0-8.17-5.38,24.69,24.69,0,0,1-3.66-2,3,3,0,0,0-1.16-.55,2.71,2.71,0,0,0-2.77,2.08,0.75,0.75,0,0,0,.58.77c0.87,0.32,2,.68,3.32,1.09a18.74,18.74,0,0,1,6.44,3.42h0a42.27,42.27,0,0,1-9,.59c-1.45,0-11.85-.18-13.1-0.32-2.37-.26-5-0.23-7.34-0.49a21.13,21.13,0,0,0-4.36,0A1.73,1.73,0,0,0,3626.07,4982.16Z" transform="translate(-3567.94 -4970.1)"/></svg>