<svg id="Interactive_elements" data-name="Interactive elements" xmlns="http://www.w3.org/2000/svg" viewBox="0 0 35.06 35.06"><defs><style>.cls-1{fill:#2e8bbd;}.cls-2{fill:#fff;}</style></defs><title>number-1</title><circle class="cls-1" cx="17.53" cy="17.53" r="17.53"/><path class="cls-2" d="M3830.09,8245.07h3.35v-8.8q0-.65,0-1.35l-2,1.64a1.27,1.27,0,0,1-.38.22,1.14,1.14,0,0,1-.37.07,1.12,1.12,0,0,1-.56-0.14,1.18,1.18,0,0,1-.36-0.29l-1.17-1.56,5.43-4.56h3.06v14.77H3840v2.68h-9.93v-2.68Z" transform="translate(-3816.76 -8221.79)"/><path class="cls-2" d="M3830.09,8245.07h3.35v-8.8q0-.65,0-1.35l-2,1.64a1.27,1.27,0,0,1-.38.22,1.14,1.14,0,0,1-.37.07,1.12,1.12,0,0,1-.56-0.14,1.18,1.18,0,0,1-.36-0.29l-1.17-1.56,5.43-4.56h3.06v14.77H3840v2.68h-9.93v-2.68Z" transform="translate(-3816.76 -8221.79)"/></svg>