<svg id="Interactive_elements" data-name="Interactive elements" xmlns="http://www.w3.org/2000/svg" viewBox="0 0 33.79 104.42"><defs><style>.cls-1{fill:#2e8bbd;}.cls-2,.cls-3{fill:#fff;}.cls-3{opacity:0.5;}</style></defs><title>closing</title><rect class="cls-1" width="33.79" height="104.42"/><path class="cls-2" d="M205.39,9931.37a4.64,4.64,0,0,1-5-4.73,6.57,6.57,0,0,1,.56-2.73l1.67,0.19a6.44,6.44,0,0,0-.55,2.54c0,1.87,1.39,2.81,3.31,2.81s3.31-.95,3.31-2.81a6.44,6.44,0,0,0-.55-2.54l1.67-.19a6.57,6.57,0,0,1,.56,2.73A4.64,4.64,0,0,1,205.39,9931.37Z" transform="translate(-187.79 -9838.54)"/><path class="cls-2" d="M210.19,9921.15h-9.6v-1.76h7.9v-4h1.7v5.71Z" transform="translate(-187.79 -9838.54)"/><path class="cls-2" d="M205.39,9913.71a4.74,4.74,0,1,1,5-4.73A4.64,4.64,0,0,1,205.39,9913.71Zm0-1.92c1.92,0,3.31-.95,3.31-2.81s-1.39-2.81-3.31-2.81-3.31.95-3.31,2.81S203.47,9911.79,205.39,9911.79Z" transform="translate(-187.79 -9838.54)"/><path class="cls-2" d="M209.68,9901.84l-2-.21a4.4,4.4,0,0,0,1-3c0-1-.26-1.71-1-1.71-1,0-1.32,1.07-1.71,2.24-0.47,1.36-.95,2.84-2.66,2.84-1.28,0-2.88-.88-2.88-3.47a6.34,6.34,0,0,1,.74-3.06l1.8,0.18a5.77,5.77,0,0,0-.86,2.81c0,0.74.19,1.76,1,1.76s1.07-.89,1.39-1.93c0.45-1.5,1-3.32,3.11-3.32,1.1,0,2.8.48,2.8,3.72A6.41,6.41,0,0,1,209.68,9901.84Z" transform="translate(-187.79 -9838.54)"/><path class="cls-2" d="M210.19,9892.14h-9.6v-1.76h9.6v1.76Z" transform="translate(-187.79 -9838.54)"/><path class="cls-2" d="M210.19,9880.87l-6.58,4.39h6.58V9887h-9.6v-1.73l6.2-4.1h-6.2v-1.76h9.6v1.44Z" transform="translate(-187.79 -9838.54)"/><path class="cls-2" d="M205.37,9876.58a4.64,4.64,0,0,1-5-4.79,7.59,7.59,0,0,1,.56-2.88l1.67,0.19a7.72,7.72,0,0,0-.55,2.65c0,2,1.4,2.91,3.26,2.91s3.35-1,3.35-3a6.68,6.68,0,0,0-.15-1.32h-1.71v1.06h-1.45v-2.81h4.28a8,8,0,0,1,.73,3.29C210.38,9874.58,208.41,9876.58,205.37,9876.58Z" transform="translate(-187.79 -9838.54)"/><polygon class="cls-3" points="13.2 20.51 13.13 9.91 22.34 15.15 13.2 20.51"/></svg>