<svg id="Interactive_elements" data-name="Interactive elements" xmlns="http://www.w3.org/2000/svg" viewBox="0 0 19.43 17.46"><defs><style>.cls-1{fill:#fff;}</style></defs><title>icon_print</title><path class="cls-1" d="M1202.37,9926.47h-2.74v-0.36a0.41,0.41,0,0,0-.11-0.28l-1.06-1.1a0.41,0.41,0,0,0-.29-0.12h-8.68a0.41,0.41,0,0,0-.41.4v1.49h-2.75a1.68,1.68,0,0,0-1.68,1.68v7.06a1.68,1.68,0,0,0,1.68,1.68H1189v4.75a0.4,0.4,0,0,0,.41.41h9.77a0.4,0.4,0,0,0,.41-0.4v-4.75h2.76a1.68,1.68,0,0,0,1.68-1.68v-7.06A1.68,1.68,0,0,0,1202.37,9926.47Zm-12.09-.85h7.22l1,1v2h-8.26v-3Zm8.2,15.38h-8.31v-6.44h8.32V9941Zm4.22-5.79a0.33,0.33,0,0,1-.33.33h-2.76v-2.16H1189v2.16h-2.72a0.33,0.33,0,0,1-.33-0.33v-7.06a0.33,0.33,0,0,1,.33-0.33h2.75v1.47a0.39,0.39,0,0,0,0,.13,0.4,0.4,0,0,0,.1.16,0.41,0.41,0,0,0,.29.12h0l9.72,0h0a0.41,0.41,0,0,0,.39-0.4v-1.49h2.75a0.33,0.33,0,0,1,.33.33v7.06Zm-11.58.74a0.36,0.36,0,0,1,.36-0.36h5.74a0.36,0.36,0,1,1,0,.71h-5.74A0.36,0.36,0,0,1,1191.12,9936Zm0,1.83a0.36,0.36,0,0,1,.36-0.36h5.74a0.36,0.36,0,1,1,0,.71h-5.74A0.36,0.36,0,0,1,1191.12,9937.78Zm0,1.83a0.36,0.36,0,0,1,.36-0.36h5.74a0.36,0.36,0,1,1,0,.71h-5.74A0.36,0.36,0,0,1,1191.12,9939.61Z" transform="translate(-1184.63 -9924.58)"/></svg>