<svg id="Interactive_elements" data-name="Interactive elements" xmlns="http://www.w3.org/2000/svg" xmlns:xlink="http://www.w3.org/1999/xlink" viewBox="0 0 499.74 427.44"><defs><style>.cls-1,.cls-10,.cls-15,.cls-40,.cls-55,.cls-56,.cls-6{fill:none;}.cls-1,.cls-12,.cls-13,.cls-14,.cls-15,.cls-16,.cls-18,.cls-19,.cls-20,.cls-21,.cls-22,.cls-23,.cls-24,.cls-25,.cls-26,.cls-27,.cls-28,.cls-29,.cls-30,.cls-31,.cls-32,.cls-33,.cls-34,.cls-35,.cls-36,.cls-37,.cls-38,.cls-39,.cls-40,.cls-41,.cls-42,.cls-43,.cls-44,.cls-45,.cls-46,.cls-47,.cls-48,.cls-49,.cls-50,.cls-51,.cls-52,.cls-53,.cls-54,.cls-6{stroke:#a7a7a7;}.cls-1,.cls-10,.cls-11,.cls-12,.cls-13,.cls-14,.cls-16,.cls-18,.cls-19,.cls-20,.cls-21,.cls-22,.cls-23,.cls-24,.cls-25,.cls-26,.cls-27,.cls-28,.cls-29,.cls-30,.cls-31,.cls-32,.cls-33,.cls-34,.cls-35,.cls-36,.cls-37,.cls-38,.cls-39,.cls-40,.cls-41,.cls-42,.cls-43,.cls-44,.cls-45,.cls-46,.cls-47,.cls-48,.cls-49,.cls-50,.cls-51,.cls-52,.cls-53,.cls-54,.cls-55,.cls-56,.cls-6,.cls-9{stroke-miterlimit:10;}.cls-11,.cls-2{fill:#c53a43;}.cls-3,.cls-41{fill:#777;}.cls-4,.cls-9{fill:#ffca00;}.cls-5,.cls-57{fill:#6cc5f5;}.cls-6{stroke-width:3px;}.cls-7{fill:#fe961c;}.cls-13,.cls-8{fill:#a7a7a7;}.cls-11,.cls-55,.cls-56,.cls-9{stroke:#fff;}.cls-9{stroke-width:2.81px;}.cls-10{stroke:#ffca00;stroke-width:3.02px;}.cls-11{stroke-width:1.73px;}.cls-12,.cls-14,.cls-54{fill:#fff;}.cls-14{stroke-width:0.39px;}.cls-15{stroke-linecap:round;stroke-linejoin:round;stroke-width:0.49px;}.cls-16,.cls-19,.cls-20,.cls-21,.cls-22,.cls-23,.cls-24,.cls-25,.cls-26,.cls-27,.cls-28,.cls-29,.cls-30,.cls-31,.cls-32,.cls-33,.cls-34,.cls-35,.cls-36,.cls-37,.cls-38,.cls-39,.cls-40,.cls-41,.cls-42,.cls-43,.cls-44,.cls-45,.cls-46,.cls-47,.cls-48,.cls-49,.cls-50,.cls-51,.cls-52,.cls-53,.cls-54{stroke-width:0;}.cls-16{fill:url(#linear-gradient);}.cls-17{clip-path:url(#clip-path);}.cls-18{fill:#2e8bbd;}.cls-19{fill:#515151;}.cls-20{fill:#535353;}.cls-21{fill:#565656;}.cls-22{fill:#585858;}.cls-23{fill:#5a5a5a;}.cls-24{fill:#5c5c5c;}.cls-25{fill:#5e5e5e;}.cls-26{fill:#606060;}.cls-27{fill:#626262;}.cls-28{fill:#636363;}.cls-29{fill:#656565;}.cls-30{fill:#676767;}.cls-31{fill:#696969;}.cls-32{fill:#6a6a6a;}.cls-33{fill:#6c6c6c;}.cls-34{fill:#6d6d6d;}.cls-35{fill:#6f6f6f;}.cls-36{fill:#707070;}.cls-37{fill:#717171;}.cls-38{fill:#737373;}.cls-39{fill:#747474;}.cls-42{fill:#787878;}.cls-43{fill:#797979;}.cls-44{fill:#7a7a7a;}.cls-45{fill:#7b7b7b;}.cls-46{fill:#7c7c7c;}.cls-47{fill:#7d7d7d;}.cls-48{fill:#7e7e7e;}.cls-49{fill:#7f7f7f;}.cls-50{fill:gray;}.cls-51{fill:#818181;}.cls-52{fill:#828282;}.cls-53{fill:#838383;}.cls-55,.cls-56{stroke-linecap:square;stroke-width:2.3px;}.cls-56{stroke-dasharray:2.76 5.52;}.cls-57{fill-rule:evenodd;}</style><linearGradient id="linear-gradient" x1="2209.56" y1="4196.28" x2="2210.11" y2="4196.37" gradientTransform="translate(-71.41 82.89) rotate(-0.5)" gradientUnits="userSpaceOnUse"><stop offset="0.21"/><stop offset="0.21" stop-color="#151515"/><stop offset="0.21" stop-color="#353535"/><stop offset="0.22" stop-color="#4e4e4e"/><stop offset="0.22" stop-color="#606060"/><stop offset="0.23" stop-color="#6b6b6b"/><stop offset="0.23" stop-color="#6e6e6e"/></linearGradient><clipPath id="clip-path" transform="translate(-1854.46 -4161.22)"><path class="cls-1" d="M2177,4252.38a112.48,112.48,0,0,0-1.9,12.51,112.48,112.48,0,0,1,1.9-12.51l-0.15.25c-5.22,8.5-5.37,13.53-4.85,16.36a2.77,2.77,0,0,0,.29.89,6.84,6.84,0,0,1,.16-1.23,7,7,0,0,1,3.43-4.24,30.62,30.62,0,0,0,6.14-4.58S2182,4244.3,2177,4252.38Z"/></clipPath></defs><title>module-start-graphic</title><path class="cls-2" d="M2131.61,4355.29a9.56,9.56,0,0,0-1.07-.29,9.22,9.22,0,0,0-1.85-.16,6.77,6.77,0,0,0-3,.63,6.38,6.38,0,0,0-2.15,1.67,7.18,7.18,0,0,0-1.29,2.37,8.67,8.67,0,0,0-.43,2.7,10.36,10.36,0,0,0,.42,3,7.17,7.17,0,0,0,1.23,2.41,5.82,5.82,0,0,0,2,1.61,6.09,6.09,0,0,0,2.72.59,5.68,5.68,0,0,0,2-.35,4.55,4.55,0,0,0,1.46-.92l0.15,0.94h2.41v-19.84h-2.61v5.65Zm-0.37,2.15a2.65,2.65,0,0,1,.37.17v8.57a3.76,3.76,0,0,1-1.41,1.11,4.15,4.15,0,0,1-1.65.35,3.88,3.88,0,0,1-1.83-.4,3.75,3.75,0,0,1-1.28-1.1,4.83,4.83,0,0,1-.77-1.68,8.45,8.45,0,0,1-.26-2.13,7,7,0,0,1,.28-2,5.14,5.14,0,0,1,.86-1.71,4.31,4.31,0,0,1,1.44-1.19,4.43,4.43,0,0,1,2-.45,5.62,5.62,0,0,1,.76.06,6.82,6.82,0,0,1,.77.16C2130.82,4357.29,2131,4357.36,2131.24,4357.44Z" transform="translate(-1854.46 -4161.22)"/><path class="cls-2" d="M2139.81,4349.64a1.53,1.53,0,0,0-1.19.56,2,2,0,0,0,0,2.59,1.57,1.57,0,0,0,2.37,0,2,2,0,0,0,0-2.59A1.53,1.53,0,0,0,2139.81,4349.64Z" transform="translate(-1854.46 -4161.22)"/><rect class="cls-2" x="284.03" y="193.97" width="2.64" height="14.29"/><path class="cls-2" d="M2156.4,4367.18a7.92,7.92,0,0,0-2.33-.69,23.65,23.65,0,0,0-3.12-.24,9.84,9.84,0,0,1-2.44-.24c-0.56-.18-0.56-0.43-0.56-0.51a0.57,0.57,0,0,1,.32-0.5,2.06,2.06,0,0,1,.78-0.28c0.22,0,.52.08,0.88,0.11s0.71,0.06,1,.06a9.11,9.11,0,0,0,2.32-.3,6,6,0,0,0,2-.93,4.88,4.88,0,0,0,1.41-1.59,4.56,4.56,0,0,0,.53-2.23,4.4,4.4,0,0,0-.34-1.75,5.06,5.06,0,0,0-.77-1.25l1.91-1.91-1.7-1.56-2.11,2.11a7.2,7.2,0,0,0-1.52-.47,8.82,8.82,0,0,0-4,.14,6.27,6.27,0,0,0-2,.92,4.77,4.77,0,0,0-1.41,1.56,4.46,4.46,0,0,0-.53,2.22,4.31,4.31,0,0,0,.28,1.6,4.78,4.78,0,0,0,.68,1.2,4.38,4.38,0,0,0,.88.85l0.45,0.3a3.82,3.82,0,0,0-1.22.67,1.85,1.85,0,0,0-.69,1.48,1.73,1.73,0,0,0,.39,1.17,2.54,2.54,0,0,0,.64.53,3.68,3.68,0,0,0-1.85,3.32,3.6,3.6,0,0,0,1.95,3.37,13.07,13.07,0,0,0,7.9.75,7.34,7.34,0,0,0,2.17-.88,4.65,4.65,0,0,0,1.49-1.47,3.89,3.89,0,0,0,.55-2.08,4.09,4.09,0,0,0-.51-2.12A3.54,3.54,0,0,0,2156.4,4367.18Zm-9.25,2.11a3.27,3.27,0,0,1,1.11-.91,26.28,26.28,0,0,0,2.65.17h0a21.24,21.24,0,0,1,2.53.17,5.42,5.42,0,0,1,1.55.42,1.63,1.63,0,0,1,.75.65,2,2,0,0,1,.21,1,2,2,0,0,1-1.18,1.8,6.39,6.39,0,0,1-3.19.71,10.79,10.79,0,0,1-2-.17,6,6,0,0,1-1.54-.5,2.78,2.78,0,0,1-1-.78,1.67,1.67,0,0,1-.34-1.06A2.37,2.37,0,0,1,2147.15,4369.29Zm0.21-9.45a2.49,2.49,0,0,1,.3-1.24,2.62,2.62,0,0,1,.79-0.87,3.79,3.79,0,0,1,1.16-.53,5.1,5.1,0,0,1,2.71,0,3.79,3.79,0,0,1,1.16.53,2.64,2.64,0,0,1,.79.87,2.43,2.43,0,0,1,.3,1.21,2.8,2.8,0,0,1-.33,1.4,2.61,2.61,0,0,1-.86.92,3.81,3.81,0,0,1-1.2.5,4.94,4.94,0,0,1-2.8-.09,3.53,3.53,0,0,1-1.1-.67,3,3,0,0,1-.7-0.93A2.79,2.79,0,0,1,2147.36,4359.84Z" transform="translate(-1854.46 -4161.22)"/><rect class="cls-2" x="306.9" y="193.97" width="2.64" height="14.29"/><path class="cls-2" d="M2162.68,4349.64a1.53,1.53,0,0,0-1.19.56,2,2,0,0,0,0,2.59,1.57,1.57,0,0,0,2.37,0,2,2,0,0,0,0-2.59A1.53,1.53,0,0,0,2162.68,4349.64Z" transform="translate(-1854.46 -4161.22)"/><path class="cls-2" d="M2174.94,4366.88a4.63,4.63,0,0,1-.87.53,2.26,2.26,0,0,1-1,.22,1.31,1.31,0,0,1-.89-0.29,1.63,1.63,0,0,1-.33-1.22v-8.72h3.68v-2.2h-3.65v-3.8h-2.61v3.8h-2.39v2.2h2.39v9a3.43,3.43,0,0,0,.9,2.6,3.58,3.58,0,0,0,2.55.85,4.9,4.9,0,0,0,1.93-.31,7.3,7.3,0,0,0,1.36-.81l0.13-.1-1.06-1.84Z" transform="translate(-1854.46 -4161.22)"/><path class="cls-2" d="M2183.51,4354.84a7.06,7.06,0,0,0-3,.56,5.48,5.48,0,0,0-2.07,1.73l-0.11.15,1.87,1.31,0.11-.13a4,4,0,0,1,1.3-1.08,3.57,3.57,0,0,1,1.68-.4,2.72,2.72,0,0,1,2,.7,3.36,3.36,0,0,1,.69,2.38,19.06,19.06,0,0,0-2.74.24,10.42,10.42,0,0,0-2.76.82,6,6,0,0,0-2.09,1.58,3.9,3.9,0,0,0-.84,2.57,4.38,4.38,0,0,0,.43,2,4.3,4.3,0,0,0,1.11,1.42,4.76,4.76,0,0,0,1.58.85,5.92,5.92,0,0,0,1.82.29,5.59,5.59,0,0,0,2.16-.41,5.35,5.35,0,0,0,1.47-.91l0.1,1h2.39v-9.26a5.43,5.43,0,0,0-1.36-4.13A5.36,5.36,0,0,0,2183.51,4354.84Zm2.51,7.37v4.05a6.93,6.93,0,0,1-1.43.93,3.8,3.8,0,0,1-2.7.28,2.32,2.32,0,0,1-.81-0.41,2.41,2.41,0,0,1-.61-0.72,2.12,2.12,0,0,1-.24-1.05,2.22,2.22,0,0,1,.55-1.57,3.67,3.67,0,0,1,1.45-.93,8.31,8.31,0,0,1,2-.44C2184.82,4362.28,2185.43,4362.24,2186,4362.21Z" transform="translate(-1854.46 -4161.22)"/><rect class="cls-2" x="338.43" y="188.42" width="2.61" height="19.84"/><path class="cls-3" d="M2029,4369.55h0c-4.82-4.14-10.93-4.45-18.3-4.45h-22V4369h3c4.33,0.08,5.42,1,5.49,4.19v30.35c-0.06,3.24-1.22,4.18-5.49,4.26h-3v4h21.91c7.64,0,14-.36,19.12-5.17,4.05-3.82,6.93-11.37,6.94-18.09C2036.6,4381.07,2033.57,4373.48,2029,4369.55Zm-18.43,38.29h-6.61V4369h6.67c12.85,0.06,18.34,5.84,18.4,18.92C2029,4401.88,2023.62,4407.77,2010.55,4407.84Z" transform="translate(-1854.46 -4161.22)"/><path class="cls-3" d="M2140.44,4406.65a7.63,7.63,0,0,1-5.75-2.62l-9.95-11,7.38-6c2.42-1.92,4-2.53,6.72-2.54h1.37v-3.92h-19v3.92h3.28a10.66,10.66,0,0,1,2.34.17c0.46,0.14.46,0.21,0.47,0.3,0,0.57-.59,1.27-1.67,2.1l-10,7.91v-34.72h-12.92v3.85h2.11c3.63,0.08,4.48.69,4.54,3.05v36.37c-0.11,2.62-.17,2.94-3.48,3h-2.12v3.92h16.86v-3.92h-1.45c-3.21-.11-3.44-0.3-3.55-3v-3.47l4.6-3.49,7.59,8.25a1.61,1.61,0,0,1,.62,1c0,0.21,0,.68-2.61.72h-2v3.92h18v-3.92h-1.38Z" transform="translate(-1854.46 -4161.22)"/><path class="cls-3" d="M2067.44,4385.58a11.75,11.75,0,0,0-3.43-3.75,15,15,0,0,0-8.8-2.47c-9.08,0-15.21,6.58-15.23,16.22s6.15,16.21,15.23,16.23h0.08c7.57,0,12.29-3.82,13.72-11.11l0-.15,0.08-.39h-4.56l-0.09.32c-1.36,4.62-4.26,6.86-8.88,6.88-5.7,0-8.63-3.61-8.67-10.84h23v-0.46A20.51,20.51,0,0,0,2067.44,4385.58Zm-12.36-2.21c5.14,0,7.52,2.72,7.79,9h-15.75C2047.64,4386.44,2050.4,4383.39,2055.09,4383.36Z" transform="translate(-1854.46 -4161.22)"/><path class="cls-3" d="M2165.93,4381.83a15,15,0,0,0-8.8-2.47c-9.09,0-15.22,6.58-15.24,16.23s6.15,16.21,15.24,16.23h0.09c7.56,0,12.28-3.82,13.71-11.11l0-.15,0.07-.38h-4.56l-0.08.34c-1.36,4.61-4.26,6.85-8.88,6.87-5.7,0-8.63-3.61-8.67-10.84h23v-0.45a20.72,20.72,0,0,0-2.39-10.31A11.78,11.78,0,0,0,2165.93,4381.83Zm-8.92,1.53c5.14,0,7.51,2.72,7.79,9H2149C2149.56,4386.44,2152.32,4383.39,2157,4383.36Z" transform="translate(-1854.46 -4161.22)"/><path class="cls-3" d="M2201.17,4385.84c-0.08-3.73-3.71-6.34-7.41-6.29-3.52,0-6.34,1.88-8.5,5.61v-4.68h-12v3.89h2.19c3.2,0.11,3.48.35,3.58,3.15v16.15c-0.1,2.78-.34,3-3.58,3.09h-2.19v4h19v-4h-3.49c-3.34-.11-3.42-0.44-3.53-3.09v-7c0-8.78,4.36-13.32,8.25-13.34a3.66,3.66,0,0,1,1.76.41,3.54,3.54,0,0,0-1,2.49,3.41,3.41,0,0,0,3.36,3.53h0.11a3.77,3.77,0,0,0,3.45-3.86s0-.07,0-0.11h0Z" transform="translate(-1854.46 -4161.22)"/><path class="cls-3" d="M2089.58,4407.22c-5.69,0-9.36-4.41-9.37-11.47,0-7.93,3.59-12.45,9.61-12.47,3.47,0,5.85,1,7.26,3a3.55,3.55,0,1,0,5.61,2.88s0,0,0,0h0a0.71,0.71,0,0,0,0-.09h0c0-5.53-5.92-9.7-13.31-9.71-9.31,0-16.08,6.93-16.1,16.41s6.36,16,15.74,16h0.08c7.57,0,12.22-4,13.59-11.66h-4.09C2097.35,4404.81,2094,4407.2,2089.58,4407.22Z" transform="translate(-1854.46 -4161.22)"/><path class="cls-4" d="M2191.54,4522.56a22.75,22.75,0,0,1,6.8-15.9,37.9,37.9,0,0,0-15.24-3.13c-17.73,0-32.1,11.69-32.1,26.1,0,6.87,3.28,13.1,8.62,17.76l-1.22,10.6,11-4.78a38,38,0,0,0,13.66,2.53c10.45,0,19.73-4.06,25.59-10.35C2198.51,4541.13,2191.54,4532.51,2191.54,4522.56Z" transform="translate(-1854.46 -4161.22)"/><path class="cls-4" d="M2223.09,4501.33c14.54,0,26.33,9.59,26.33,21.41a19.38,19.38,0,0,1-7.07,14.57l1,8.69-9.05-3.92a31.21,31.21,0,0,1-11.21,2.08c-14.54,0-26.33-9.59-26.33-21.41S2208.54,4501.33,2223.09,4501.33Z" transform="translate(-1854.46 -4161.22)"/><path class="cls-5" d="M2069.55,4281.34a2.65,2.65,0,0,0-.51,3.36l8.33,8.93a2.36,2.36,0,0,0,1.75.76h0.06a2.33,2.33,0,0,0,1.77-.85s17.76-19.57,19.1-21.08c1.13-1.28,2.17-3.84.45-5.12s-3.81-.36-5,1.13c-1.76,2.16-16.47,21.09-16.47,21.09l-6-8A2.64,2.64,0,0,0,2069.55,4281.34Z" transform="translate(-1854.46 -4161.22)"/><polygon class="cls-5" points="236.15 125.18 236.1 139.43 209.77 139.43 209.81 113.55 233.88 113.51 235.58 111.33 207.29 111.33 207.29 141.82 238.67 141.82 238.67 122.16 236.15 125.18"/><path class="cls-6" d="M2326.77,4377.94a26,26,0,0,0-23.4,37.19l0,0,23.38,46.73,23.36-46.73,0,0A26,26,0,0,0,2326.77,4377.94Zm0,35.45a10.81,10.81,0,1,1,10.8-10.81A10.81,10.81,0,0,1,2326.77,4413.4Z" transform="translate(-1854.46 -4161.22)"/><path class="cls-4" d="M2139.67,4424.07l-0.32,11.34a1.23,1.23,0,0,0,1.18,1.22l44.84,0.57,19.46-6a1.19,1.19,0,0,0,.84-1.15,1.18,1.18,0,0,0-.34-0.83,1.21,1.21,0,0,0-.52-0.31l-19.38-5.64-0.27,0-44.28-.32A1.19,1.19,0,0,0,2139.67,4424.07Zm2.1,10.19,0.1-4.74,39.52,0.59,0,4.66Zm43.2-8.64,8.64,2.52a4.25,4.25,0,0,1-.24,4.12l-8.25,2.56-2.71,0,0.07-9.18Zm-3.55,0,0,3.5-39.49-.59,0.12-3.2Z" transform="translate(-1854.46 -4161.22)"/><path class="cls-7" d="M1942.5,4438.49c-6.69,0-12.9,3.12-17.57,8.79-4.66-5.67-10.87-8.78-17.54-8.78-9.88,0-20.39,7.42-20.39,21.18,0,14.15,12.55,24,21.71,31.24,3.47,2.74,6,4.68,8.09,6.25a62.94,62.94,0,0,1,6.69,5.5,2,2,0,0,0,2.89,0c2.34-2.33,4.47-3.94,10.16-8.26l4.58-3.48c7.6-5.77,21.74-16.52,21.74-31.4C1962.86,4445.87,1952.37,4438.49,1942.5,4438.49Zm-35.11,4.1c6.12,0,11.9,3.38,15.84,9.26a2.18,2.18,0,0,0,3.4,0c3.94-5.89,9.73-9.27,15.86-9.27,7.89,0,16.27,5.94,16.27,17,0,11.85-10.39,20.74-20.13,28.14l-4.57,3.47c-4.76,3.61-7.07,5.36-9.14,7.25-1.51-1.35-3.19-2.63-5.64-4.49-2-1.51-4.53-3.45-8.05-6.23-8.5-6.69-20.13-15.84-20.13-28C1891.1,4448.59,1899.49,4442.6,1907.39,4442.6Z" transform="translate(-1854.46 -4161.22)"/><path class="cls-5" d="M1924.38,4429.42a2.07,2.07,0,0,0-.22-0.38,2.2,2.2,0,0,0-2.69-.71,7.69,7.69,0,0,1-6.92.09c-5.13-2.52-8.8-10.69-10.65-16.25a22,22,0,1,0-.63,9.81c2.24,4.24,5.32,8.4,9.34,10.38a12,12,0,0,0,10.68,0A2.19,2.19,0,0,0,1924.38,4429.42Zm-46.18-19.25a5.28,5.28,0,1,1,1.19-7.37A5.28,5.28,0,0,1,1878.2,4410.17Zm16.91,2.72a5.28,5.28,0,1,1,1.19-7.37A5.28,5.28,0,0,1,1895.11,4412.89Zm-11,1.43a2.37,2.37,0,1,1-3.3-.53A2.36,2.36,0,0,1,1884.12,4414.32Zm-8.64,12.75a5.28,5.28,0,1,1,1.19-7.37A5.28,5.28,0,0,1,1875.48,4427.08Zm16.91,2.72a5.28,5.28,0,1,1,1.19-7.37A5.28,5.28,0,0,1,1892.39,4429.8Z" transform="translate(-1854.46 -4161.22)"/><path class="cls-4" d="M2085.55,4482.44a1.22,1.22,0,0,0,1.22-1.22v-4.8a1.22,1.22,0,0,0-1.22-1.22h-54.92a1.22,1.22,0,0,0-1.22,1.22v4.8a1.22,1.22,0,0,0,1.22,1.22h1.76v33.66h-1.76a1.22,1.22,0,0,0-1.22,1.22v1.22a1.22,1.22,0,0,0,1.22,1.22h26.65v4.54a1.77,1.77,0,1,0,1.62,0v-4.54h26.65a1.22,1.22,0,0,0,1.22-1.22v-1.22a1.22,1.22,0,0,0-1.22-1.22h-1.76v-33.66h1.76Zm-4.19,33.14h-46.53v-33.14h46.53v33.14Z" transform="translate(-1854.46 -4161.22)"/><path class="cls-4" d="M2054.71,4505.43a0.62,0.62,0,0,0,.1.34,0.84,0.84,0,0,0,.71.37,1.67,1.67,0,0,0,.88-0.44s5.39-4.27,8.73-6.86a1.12,1.12,0,0,0,.35-0.78,1.15,1.15,0,0,0-.37-0.85l-0.05,0-8.94-7a1,1,0,0,0-.6-0.26,0.79,0.79,0,0,0-.79.63,3.59,3.59,0,0,0,0,.49v14.37Z" transform="translate(-1854.46 -4161.22)"/><path class="cls-2" d="M1967.81,4229.07l-2.89-.4a16.33,16.33,0,0,0-1.27-5.66l2.4-1.81a0.74,0.74,0,0,0,.14-1l-3.34-4.42a0.74,0.74,0,0,0-.49-0.29,0.73,0.73,0,0,0-.55.14l-2.21,1.67a16.35,16.35,0,0,0-5-3.16l0.39-2.83a0.74,0.74,0,0,0-.63-0.83l-5.48-.76a0.72,0.72,0,0,0-.55.14,0.74,0.74,0,0,0-.29.49l-0.36,2.63a16.23,16.23,0,0,0-5.84,1.34l-1.67-2.21a0.74,0.74,0,0,0-1-.14l-4.41,3.33a0.74,0.74,0,0,0-.14,1l1.58,2.09a16.31,16.31,0,0,0-3.15,5.11l-2.77-.38a0.74,0.74,0,0,0-.83.63l-0.76,5.48a0.74,0.74,0,0,0,.63.83l2.68,0.37a16.34,16.34,0,0,0,1.41,5.75l-2.33,1.76a0.74,0.74,0,0,0-.14,1l3.34,4.41a0.74,0.74,0,0,0,1,.14l2.28-1.72a16.61,16.61,0,0,0,5,3l-0.42,3a0.74,0.74,0,0,0,.63.83l5.48,0.76h0.1a0.74,0.74,0,0,0,.73-0.64l0.41-2.94a16.32,16.32,0,0,0,5.58-1.32l1.89,2.5a0.74,0.74,0,0,0,1,.14l4.42-3.33a0.74,0.74,0,0,0,.14-1l-1.81-2.39a16.24,16.24,0,0,0,3-4.85l3.09,0.43a0.75,0.75,0,0,0,.84-0.63l0.76-5.48A0.74,0.74,0,0,0,1967.81,4229.07Zm-15.09,6a7.1,7.1,0,1,1,1.38-10A7.11,7.11,0,0,1,1952.72,4235.09Z" transform="translate(-1854.46 -4161.22)"/><path class="cls-2" d="M1994.21,4206.21l-1.12-4.14a0.74,0.74,0,0,0-.91-0.52l-1.94.53a12.73,12.73,0,0,0-2.56-3.55l1-1.81a0.74,0.74,0,0,0-.27-1l-3.72-2.13a0.74,0.74,0,0,0-.56-0.07,0.73,0.73,0,0,0-.45.35l-1,1.66a13.76,13.76,0,0,0-4.39-.7l-0.53-1.94a0.74,0.74,0,0,0-.91-0.52l-4.14,1.12a0.74,0.74,0,0,0-.52.91l0.5,1.83a12.81,12.81,0,0,0-3.57,2.64l-1.76-1a0.74,0.74,0,0,0-1,.27l-2.14,3.72a0.74,0.74,0,0,0,.27,1l1.7,1a12.85,12.85,0,0,0-.62,4.34l-2.05.56a0.74,0.74,0,0,0-.52.91l1.12,4.13a0.74,0.74,0,0,0,.91.52l2-.54a13.15,13.15,0,0,0,2.57,3.44l-1.11,1.94a0.74,0.74,0,0,0,.27,1l3.72,2.14a0.73,0.73,0,0,0,.56.07,0.74,0.74,0,0,0,.45-0.35l1.08-1.88a13.1,13.1,0,0,0,4.19.63l0.6,2.22a0.74,0.74,0,0,0,.71.55l0.19,0,4.14-1.11a0.74,0.74,0,0,0,.52-0.91l-0.57-2.12a12.84,12.84,0,0,0,3.42-2.49l2,1.14a0.74,0.74,0,0,0,1-.27L1993,4214a0.74,0.74,0,0,0-.27-1l-1.85-1.06a12.7,12.7,0,0,0,.7-4.23l2.12-.58A0.74,0.74,0,0,0,1994.21,4206.21Zm-11,4.21a5.3,5.3,0,0,1-3.24,2.5,5.34,5.34,0,1,1,3.75-6.54A5.29,5.29,0,0,1,1983.25,4210.42Z" transform="translate(-1854.46 -4161.22)"/><path class="cls-5" d="M2333.05,4278.9a1.33,1.33,0,0,0-1.24-.92l-14.75-.3-4.84-13.78a1.33,1.33,0,0,0-2.51,0l-4.84,13.78-14.75.3a1.33,1.33,0,0,0-.77,2.39l11.74,8.81-4.27,14a1.33,1.33,0,0,0,2,1.48l12.11-8.34,12.11,8.34a1.33,1.33,0,0,0,2-1.48l-4.27-14,11.74-8.81A1.33,1.33,0,0,0,2333.05,4278.9Zm-14.55,8.71a1.33,1.33,0,0,0-.47,1.45l3.43,11.2-9.73-6.7a1.33,1.33,0,0,0-1.51,0l-9.73,6.7,3.42-11.2a1.33,1.33,0,0,0-.47-1.45l-9.4-7.05,11.81-.24a1.33,1.33,0,0,0,1.23-.89l3.89-11.08,3.89,11.08a1.33,1.33,0,0,0,1.23.89l11.81,0.24Z" transform="translate(-1854.46 -4161.22)"/><path class="cls-8" d="M2066.89,4536.21a3.61,3.61,0,0,0-3.52-3.52h-39.44a3.52,3.52,0,0,0-3.52,3.52v25.21a3.53,3.53,0,0,0,3.52,3.52h39.44a3.52,3.52,0,0,0,3.52-3.52v-25.21Zm-42.63,24.87v-24.55H2063v24.55h-38.78Z" transform="translate(-1854.46 -4161.22)"/><path class="cls-8" d="M2056.35,4540.56l-12.85,10-12.54-10a1.8,1.8,0,0,0-2.41,2.68l13.81,11a1.85,1.85,0,0,0,1.12.4,1.79,1.79,0,0,0,1.11-.38l14-10.84A1.81,1.81,0,0,0,2056.35,4540.56Zm-27.29,2.16h0Z" transform="translate(-1854.46 -4161.22)"/><path class="cls-8" d="M2018.14,4535.51a1.39,1.39,0,0,0-1.39-1.39h-17.93a1.39,1.39,0,0,0,0,2.78h17.94A1.39,1.39,0,0,0,2018.14,4535.51Z" transform="translate(-1854.46 -4161.22)"/><path class="cls-8" d="M2018.14,4543.84a1.39,1.39,0,0,0-1.39-1.39h-10.81a1.39,1.39,0,0,0,0,2.78h10.81A1.38,1.38,0,0,0,2018.14,4543.84Z" transform="translate(-1854.46 -4161.22)"/><path class="cls-8" d="M2016.76,4550.78h-5.7a1.39,1.39,0,0,0,0,2.78h5.7A1.39,1.39,0,0,0,2016.76,4550.78Z" transform="translate(-1854.46 -4161.22)"/><path class="cls-5" d="M1873.58,4319a6,6,0,0,0,3.12.82c3.08,0,4.49-2,4.49-3.78a3.24,3.24,0,0,0-1.76-2.9,3,3,0,0,0,1.33-2.53c0-1.54-1.12-3.1-3.63-3.1a5.78,5.78,0,0,0-3.17.93,0.49,0.49,0,0,0-.17.57l0.41,1.08a0.49,0.49,0,0,0,.74.22,3.54,3.54,0,0,1,1.91-.64,1.19,1.19,0,0,1,1.44,1.17c0,1-1.17,1.37-2,1.37h-0.83a0.49,0.49,0,0,0-.49.49v1.12a0.49,0.49,0,0,0,.49.48h0.83c0.39,0,2.33.08,2.35,1.72a1.54,1.54,0,0,1-.42,1.1,2.13,2.13,0,0,1-1.57.53,4.66,4.66,0,0,1-2.18-.61,0.49,0.49,0,0,0-.71.25l-0.41,1.13A0.48,0.48,0,0,0,1873.58,4319Z" transform="translate(-1854.46 -4161.22)"/><path class="cls-5" d="M1883,4310.73a0.48,0.48,0,0,0,.7.31l1.23-.66v8.79a0.49,0.49,0,0,0,.49.48h1.44a0.49,0.49,0,0,0,.49-0.48v-11a0.49,0.49,0,0,0-.49-0.49h-1.27a0.48,0.48,0,0,0-.23.06l-2.4,1.28a0.49,0.49,0,0,0-.24.55Z" transform="translate(-1854.46 -4161.22)"/><path class="cls-5" d="M1891.4,4295.59H1889v2.23a1.54,1.54,0,1,1-3.07,0v-2.23h-9.47v2.23a1.54,1.54,0,1,1-3.07,0v-2.23h-2.44a3,3,0,0,0-3,3v24.06a3,3,0,0,0,3,3h20.49a3,3,0,0,0,3-3v-24.06A3,3,0,0,0,1891.4,4295.59Zm1,27a1,1,0,0,1-1,1h-20.49a1,1,0,0,1-1-1V4303h22.57v19.62Z" transform="translate(-1854.46 -4161.22)"/><path class="cls-5" d="M1874.88,4298.38a0.56,0.56,0,0,0,.56-0.57v-3.54a0.57,0.57,0,1,0-1.13,0v3.54A0.57,0.57,0,0,0,1874.88,4298.38Z" transform="translate(-1854.46 -4161.22)"/><path class="cls-5" d="M1887.43,4298.38a0.57,0.57,0,0,0,.57-0.57v-3.54a0.57,0.57,0,1,0-1.13,0v3.54A0.56,0.56,0,0,0,1887.43,4298.38Z" transform="translate(-1854.46 -4161.22)"/><path class="cls-4" d="M1939.38,4429.13a3.52,3.52,0,0,0,.53-0.26,2.64,2.64,0,0,0,1.51-2.47,23.41,23.41,0,0,0-2.67-7.11,22.91,22.91,0,0,0-4.85-5.75c-0.77-.65-2.28-0.44-3.37.46s-1.38,2.15-.61,2.81h0a19.83,19.83,0,0,1,4.31,5.14,20.26,20.26,0,0,1,2.39,6.35C1936.8,4429.29,1938,4429.65,1939.38,4429.13Z" transform="translate(-1854.46 -4161.22)"/><path class="cls-4" d="M1966.37,4431.67a3.76,3.76,0,0,0,1-.41,3,3,0,0,0,1.55-2.08,39.66,39.66,0,0,0-24-41,3.26,3.26,0,0,0-3.44,1c-0.92,1-.87,2.2.1,2.65h0a37.2,37.2,0,0,1,22.51,38.43C1964,4431.36,1965,4432,1966.37,4431.67Z" transform="translate(-1854.46 -4161.22)"/><path class="cls-4" d="M1952.94,4428.73a3.7,3.7,0,0,0,.78-0.34,2.79,2.79,0,0,0,1.55-2.29,31.28,31.28,0,0,0-4.15-14.07,30.49,30.49,0,0,0-10.18-10.42,3.07,3.07,0,0,0-3.42.75c-1,1-1.14,2.19-.26,2.74a28.2,28.2,0,0,1,9.34,9.58,28.57,28.57,0,0,1,3.8,12.94C1950.46,4428.65,1951.6,4429.15,1952.94,4428.73Z" transform="translate(-1854.46 -4161.22)"/><path class="cls-8" d="M2062.86,4231.81c1.12,0,2.67,0,2.75,0a0.66,0.66,0,0,0,.34-0.19l3-3a0.65,0.65,0,0,0,.19-0.34,0.34,0.34,0,0,0-.08-0.3l-3.5-3.5a0.33,0.33,0,0,0-.3-0.08,0.65,0.65,0,0,0-.34.19l-3,3a0.67,0.67,0,0,0-.19.35c0,0.08,0,1.87,0,3a21.4,21.4,0,0,0-9.74-4.06v-4.57h1.79a0.65,0.65,0,0,0,.37-0.11,0.33,0.33,0,0,0,.16-0.27v-4.94a0.34,0.34,0,0,0-.16-0.27,0.65,0.65,0,0,0-.38-0.11h-9.86a0.65,0.65,0,0,0-.38.11,0.34,0.34,0,0,0-.16.27v4.94a0.34,0.34,0,0,0,.16.27,0.67,0.67,0,0,0,.37.11h1.79v4.57A21.55,21.55,0,1,0,2062.86,4231.81Zm-14,34.53a18.22,18.22,0,1,1,18.22-18.22A18.24,18.24,0,0,1,2048.83,4266.33Z" transform="translate(-1854.46 -4161.22)"/><path class="cls-8" d="M2057.52,4237.52l-9.73,9.73a1.32,1.32,0,1,0,1.86,1.86l9.73-9.73A1.32,1.32,0,1,0,2057.52,4237.52Z" transform="translate(-1854.46 -4161.22)"/><path class="cls-4" d="M2008.86,4215.15h0v11.23h11.29v-11.25A13.69,13.69,0,0,0,2008.86,4215.15Z" transform="translate(-1854.46 -4161.22)"/><path class="cls-4" d="M2018.3,4198.24c1.62-.58,1.85-1.43,1.85-2.26v-2.85a13.64,13.64,0,0,1-11.29,0V4196c0,0.82.22,1.67,1.81,2.25l0.22,0.09a7.72,7.72,0,0,1,3.59,2.41,7.58,7.58,0,0,1,3.38-2.3Z" transform="translate(-1854.46 -4161.22)"/><path class="cls-4" d="M2020.36,4203.76a1.87,1.87,0,0,0,.32-0.15,8,8,0,0,0,5.44-7.63v-16.52a1.85,1.85,0,0,0-1.87-1.83h-19.51a1.85,1.85,0,0,0-1.87,1.83V4196a8,8,0,0,0,5.48,7.65l0.22,0.09a5,5,0,0,1,1.07.46,6.44,6.44,0,0,1,0,.76c0,0.26,0,.59,0,0.77a3.83,3.83,0,0,1-.55.26c-3.91,1.25-6.24,4.2-6.24,7.91v16.52a1.85,1.85,0,0,0,1.87,1.83h19.51a1.85,1.85,0,0,0,1.87-1.83v-16.52c0-3.83-2.48-6.82-6.64-8l-0.21-.11c0-.18,0-0.52,0-0.77a6.44,6.44,0,0,1,0-.76A5,5,0,0,1,2020.36,4203.76Zm-4.83,1.92a3.64,3.64,0,0,0,2.52,3.56l0.26,0.1c2.62,0.72,4.07,2.34,4.07,4.55v14.69h-15.77v-14.69c0-2.15,1.28-3.69,3.71-4.46l0.12,0c2.39-.94,2.87-2.15,3-3.71,0-.23,0-0.48,0-0.73,0-2.27-.51-3.55-3.4-4.6l-0.15-.07a4.36,4.36,0,0,1-3.26-4.3v-14.69h15.77V4196c0,2.07-1.11,3.52-3.31,4.32a1.57,1.57,0,0,0-.27.12c-2.78,1-3.28,2.32-3.28,4.56C2015.52,4205.21,2015.52,4205.44,2015.53,4205.68Z" transform="translate(-1854.46 -4161.22)"/><path class="cls-7" d="M1913.19,4247.48a24.65,24.65,0,1,0,24.65,24.65A24.67,24.67,0,0,0,1913.19,4247.48Zm0,45.9a21.26,21.26,0,1,1,21.26-21.26A21.28,21.28,0,0,1,1913.19,4293.39Z" transform="translate(-1854.46 -4161.22)"/><path class="cls-7" d="M1911.88,4258.75a0.51,0.51,0,0,0,.37-0.13,0.39,0.39,0,0,0,.14-0.29V4255l2.36,3.43,0,0a0.41,0.41,0,0,0,.18.2,0.64,0.64,0,0,0,.32.07,0.5,0.5,0,0,0,.36-0.13,0.38,0.38,0,0,0,.14-0.29v-5a0.38,0.38,0,0,0-.14-0.29,0.5,0.5,0,0,0-.36-0.13,0.56,0.56,0,0,0-.39.13,0.38,0.38,0,0,0-.14.29v3.38l-2.37-3.46a0.44,0.44,0,0,0-.17-0.23,0.53,0.53,0,0,0-.33-0.1,0.56,0.56,0,0,0-.38.13,0.37,0.37,0,0,0-.14.29v5a0.38,0.38,0,0,0,.14.29A0.56,0.56,0,0,0,1911.88,4258.75Z" transform="translate(-1854.46 -4161.22)"/><path class="cls-7" d="M1900.08,4269.74a0.53,0.53,0,0,0-.34-0.22,0.55,0.55,0,0,0-.39,0,0.4,0.4,0,0,0-.22.24l-0.66,4-1-3.86a0.76,0.76,0,0,0-.18-0.32,0.52,0.52,0,0,0-.37-0.11,0.53,0.53,0,0,0-.53.43l-1,3.86-0.66-4a0.43,0.43,0,0,0-.22-0.24,0.55,0.55,0,0,0-.39,0,0.53,0.53,0,0,0-.33.22,0.38,0.38,0,0,0-.06.31l1,4.89a0.48,0.48,0,0,0,.2.26,0.7,0.7,0,0,0,.75,0,0.5,0.5,0,0,0,.2-0.26l1-3.65,1,3.65a0.5,0.5,0,0,0,.2.26,0.63,0.63,0,0,0,.37.11,0.64,0.64,0,0,0,.37-0.11,0.49,0.49,0,0,0,.2-0.26l1-4.89A0.38,0.38,0,0,0,1900.08,4269.74Z" transform="translate(-1854.46 -4161.22)"/><path class="cls-7" d="M1931.7,4274.29h-2v-1.45h1.32a0.52,0.52,0,0,0,.38-0.13,0.45,0.45,0,0,0,.13-0.33,0.47,0.47,0,0,0-.13-0.35,0.52,0.52,0,0,0-.38-0.13h-1.32v-1.38h2a0.51,0.51,0,0,0,.38-0.13,0.45,0.45,0,0,0,.13-0.33,0.48,0.48,0,0,0-.13-0.35,0.51,0.51,0,0,0-.38-0.13h-2.47a0.56,0.56,0,0,0-.38.13,0.39,0.39,0,0,0-.15.29v4.81a0.38,0.38,0,0,0,.15.29,0.56,0.56,0,0,0,.38.13h2.47a0.51,0.51,0,0,0,.38-0.13,0.45,0.45,0,0,0,.13-0.33,0.47,0.47,0,0,0-.13-0.35A0.51,0.51,0,0,0,1931.7,4274.29Z" transform="translate(-1854.46 -4161.22)"/><path class="cls-7" d="M1914.61,4288.93a3,3,0,0,0-.62-0.33l-0.62-.26a2,2,0,0,1-.48-0.3,0.57,0.57,0,0,1-.19-0.45,0.61,0.61,0,0,1,.2-0.5,0.77,0.77,0,0,1,.52-0.17,1.29,1.29,0,0,1,.59.11,1.86,1.86,0,0,1,.33.2l0.21,0.14a0.5,0.5,0,0,0,.25.06,0.41,0.41,0,0,0,.34-0.13,0.53,0.53,0,0,0,.1-0.33,0.56,0.56,0,0,0-.11-0.29,1.3,1.3,0,0,0-.34-0.33,2.1,2.1,0,0,0-.56-0.27,2.42,2.42,0,0,0-.77-0.11,2.24,2.24,0,0,0-.76.12,1.52,1.52,0,0,0-.56.34,1.48,1.48,0,0,0-.35.52,1.73,1.73,0,0,0-.12.67,1.36,1.36,0,0,0,.19.75,1.67,1.67,0,0,0,.48.49,3.18,3.18,0,0,0,.62.33l0.62,0.27a1.88,1.88,0,0,1,.48.32,0.61,0.61,0,0,1,.19.46,0.58,0.58,0,0,1-.2.49,0.89,0.89,0,0,1-.55.15,1.51,1.51,0,0,1-.58-0.11,1.35,1.35,0,0,1-.43-0.25l-0.21-.16a0.51,0.51,0,0,0-.26-0.08,0.39,0.39,0,0,0-.46.41,0.57,0.57,0,0,0,.11.34,1.08,1.08,0,0,0,.27.27,1.94,1.94,0,0,0,.37.21l0.42,0.15,0.41,0.09,0.33,0a2,2,0,0,0,1.34-.43,1.48,1.48,0,0,0,.48-1.17,1.43,1.43,0,0,0-.19-0.78A1.71,1.71,0,0,0,1914.61,4288.93Z" transform="translate(-1854.46 -4161.22)"/><path class="cls-7" d="M1925.51,4258.83l-16.11,9,0,0h0a1,1,0,0,0-.39.39l-9,16.08a1,1,0,0,0,.89,1.51,1,1,0,0,0,.5-0.13l16-9a1.08,1.08,0,0,0,.26-0.23,0.91,0.91,0,0,0,.14-0.19l9.07-16.05A1,1,0,0,0,1925.51,4258.83Zm-22,23.36,6.58-11.8,5.18,5.18Z" transform="translate(-1854.46 -4161.22)"/><path class="cls-2" d="M2222.37,4458.9c-0.07-3.32,2.41-6.47,5.85-6.54s6.69,2.3,6.77,6a6.43,6.43,0,0,1-6.18,6.66A6.28,6.28,0,0,1,2222.37,4458.9Zm4.61-12.72a166.53,166.53,0,0,0-3.65-37.69,63.61,63.61,0,0,1-2-11.92c-0.07-3.54,2-7.35,5.83-7.43,4.32-.09,6.06,4,6.13,7.63a68.75,68.75,0,0,1-1.42,11.55,173.19,173.19,0,0,0-2.22,37.81Z" transform="translate(-1854.46 -4161.22)"/><path class="cls-5" d="M1985.34,4255.57c-1,.62-1.28,1.6-0.73,2.19h0a15.84,15.84,0,0,1,3,4.47,16.21,16.21,0,0,1,1.36,5.27c0.07,0.81,1,1.2,2.13.9a3,3,0,0,0,.45-0.16,2.11,2.11,0,0,0,1.42-1.84,18.71,18.71,0,0,0-1.52-5.9,18.39,18.39,0,0,0-3.37-5A2.28,2.28,0,0,0,1985.34,4255.57Z" transform="translate(-1854.46 -4161.22)"/><path class="cls-5" d="M1994.17,4238.38a2.61,2.61,0,0,0-2.83.53c-0.82.73-.88,1.68-0.14,2.12h0a29.84,29.84,0,0,1,14.66,32.58c-0.16.85,0.59,1.43,1.7,1.3a3,3,0,0,0,.86-0.24,2.36,2.36,0,0,0,1.41-1.52A31.81,31.81,0,0,0,1994.17,4238.38Z" transform="translate(-1854.46 -4161.22)"/><path class="cls-5" d="M1992.27,4247.68a2.46,2.46,0,0,0-2.79.3c-0.89.68-1.09,1.65-.44,2.17a22.63,22.63,0,0,1,6.63,8.44,23,23,0,0,1,1.93,10.65c0,0.82.82,1.32,1.92,1.1a3.06,3.06,0,0,0,.65-0.21,2.24,2.24,0,0,0,1.43-1.69,25,25,0,0,0-2.1-11.57A24.49,24.49,0,0,0,1992.27,4247.68Z" transform="translate(-1854.46 -4161.22)"/><path class="cls-5" d="M1970.1,4245.43c-1.93,3-6.21,12-8.66,17.28L1949.7,4268a1.56,1.56,0,0,0-.78,2.06l7.36,16.35a1.56,1.56,0,0,0,2.06.78l12-5.4c5.6,1.68,14.88,4.36,18.31,4.87,4.36,0.65,3.15-3.22,3.15-3.22l-8.41-18.68-0.39-.87-8.41-18.68S1972.51,4241.73,1970.1,4245.43Z" transform="translate(-1854.46 -4161.22)"/><path class="cls-2" d="M2122.36,4514.89a27.29,27.29,0,0,1-11.24-52.17v-16.58c-2.07-1.31-2.39-5.94-2.39-6a3.56,3.56,0,0,1,3.55-3.55h20.2a3.56,3.56,0,0,1,3.55,3.55c0,0.06-.33,4.84-2.49,6.06v16.49A27.29,27.29,0,0,1,2122.36,4514.89Zm-9.44-71.87h1.67v22l-1.09.44a23.82,23.82,0,1,0,17.67,0l-1.09-.43v-22h1.77a10.3,10.3,0,0,0,.72-2.87,0.09,0.09,0,0,0-.08-0.08h-20.2a0.08,0.08,0,0,0-.08.08A10.31,10.31,0,0,0,2112.92,4443Z" transform="translate(-1854.46 -4161.22)"/><path class="cls-5" d="M2233.24,4214.93c1.27-.22,6.67-1,9.53-1.49,1.27-.23,4-0.55,4.48-1.87a2.74,2.74,0,0,0-.07-2.07c-0.58-1.23-2.44-1.17-3.57-1.12-1.93.08-3.84,0.46-5.74,0.73-1.27.18-4.56,0.58-4.74-.16s5.79-3.17,8.71-4.59a22.37,22.37,0,0,0,3.95-2.31,2.08,2.08,0,0,0,.31-2.92c-1.23-1.78-4.55,0-6.07.65s-2.71,1.29-4.08,1.91-4.09,2.46-4.63,1.56,4.32-4.56,6.4-6.58c1.11-1.08,2.67-2.51,2.76-4.18,0.1-2.11-2.31-2.41-3.8-1.69-2.43,1.18-4.25,3.57-6.09,5.48a19.2,19.2,0,0,1-5.07,4.17c-1.18.58-5.81,1.4-5.46-.88,0.44-2.87,4.68-7.05,1.19-9.67-2.8-2.1-5.28,4.81-5.68,6.57-0.63,2.81-2.48,5.3-3.72,7.86a12.4,12.4,0,0,0-1.42,7.5c0.71,4.67,4.66,9.5,9.56,10.08,2.72,0.32,5.3-1,7.91-1.49a18.9,18.9,0,0,1,6.82.22,19.48,19.48,0,0,0,6.61.19c1.55-.2,2.17-1.1,2.18-1.9a2.59,2.59,0,0,0-.19-1.06,2.47,2.47,0,0,0-1.42-1.24,16,16,0,0,0-5-.62,31,31,0,0,1-3.44-.35C2232.78,4215.53,2233,4215,2233.24,4214.93Z" transform="translate(-1854.46 -4161.22)"/><path class="cls-5" d="M2181.74,4196.45c-0.83-1-4.52-5-6.41-7.21-0.84-1-2.75-3-2.27-4.29a2.74,2.74,0,0,1,1.37-1.55c1.23-.58,2.63.65,3.47,1.41,1.44,1.29,2.67,2.8,4,4.22,0.87,0.95,3.15,3.35,3.76,2.89s-2.46-6.13-3.81-9.08a22.37,22.37,0,0,1-1.58-4.29,2.08,2.08,0,0,1,1.62-2.45c2.08-.59,3.52,2.87,4.27,4.36s1.27,2.72,1.94,4.06,1.59,4.49,2.58,4.15-0.44-6.26-.75-9.15c-0.17-1.54-.47-3.64.53-5,1.26-1.7,3.32-.39,4,1.11,1.12,2.46,1,5.46,1.22,8.1a19.2,19.2,0,0,0,1.27,6.44c0.54,1.2,3.59,4.77,4.77,2.79,1.48-2.5.87-8.42,5.22-8.22,3.49,0.16,1,7.07.21,8.68-1.29,2.57-1.46,5.66-2.12,8.43a12.4,12.4,0,0,1-3.67,6.69c-3.52,3.15-9.63,4.37-13.79,1.7-2.3-1.48-3.48-4.11-5.16-6.18a18.9,18.9,0,0,0-5.4-4.17,19.48,19.48,0,0,1-5.22-4.06c-1.07-1.14-1-2.23-.47-2.85a2.59,2.59,0,0,1,.82-0.7,2.47,2.47,0,0,1,1.89-.06,16,16,0,0,1,4.25,2.69,31,31,0,0,0,2.88,1.92C2181.71,4197.21,2181.9,4196.64,2181.74,4196.45Z" transform="translate(-1854.46 -4161.22)"/><path class="cls-2" d="M2100.35,4161.81a11.88,11.88,0,1,0,11.94,11.88A11.93,11.93,0,0,0,2100.35,4161.81Zm0,22.51a10.63,10.63,0,1,1,10.69-10.63A10.67,10.67,0,0,1,2100.35,4184.32Z" transform="translate(-1854.46 -4161.22)"/><path class="cls-2" d="M2100.35,4167.27a6.42,6.42,0,1,0,6.45,6.42A6.44,6.44,0,0,0,2100.35,4167.27Zm-5,6.07a6.94,6.94,0,0,1,1.22-2.79,6,6,0,0,1,2.62-1.85l1.1,5.13Z" transform="translate(-1854.46 -4161.22)"/><path class="cls-2" d="M2126.56,4172.65c-8-8.59-16.13-11.43-25.26-11.43-15.46,0-26.78,11.3-27.25,11.93a1.25,1.25,0,0,0,0,1.55c9.17,10.21,17.47,11.93,26.6,11.93,15.54,0,25.57-11.81,26-12.53A1.24,1.24,0,0,0,2126.56,4172.65Zm-25.91,11.62c-8.05,0-15.49-1.08-23.9-10.33,2.43-3,12.31-10.11,24.55-10.11a32.08,32.08,0,0,1,22.62,9.68C2121.6,4175.89,2113,4184.27,2100.66,4184.27Z" transform="translate(-1854.46 -4161.22)"/><path class="cls-5" d="M2268.32,4492.69H2262c-0.18-.45-1.6-4-2.11-5.45-0.93-2.61-2-5-3-7.56l-0.65-1.52c-0.77-1.82-3.61-7.85-7.79-9a5.49,5.49,0,0,0-4.86,1c-3.39,2.43-4.68,6.72-5.93,10.87-1.75,5.81-3.26,10.82-9.83,10.82-6.21,0-8.35-11.17-9.63-17.85-0.28-1.45-.52-2.7-0.76-3.7-0.19-.75-0.39-1.63-0.62-2.65-2-8.74-5.7-25-16-25.12-4.58,0-8.9,2.11-12.8,6.42a42.53,42.53,0,0,0-7.15,11.74c-7.76,18.74-11.71,30.9-12.07,32h-7.61a1.24,1.24,0,0,0,0,2.4h107.18A1.24,1.24,0,0,0,2268.32,4492.69ZM2245,4472.13a4.45,4.45,0,0,1,.62-0.37v20.93h-4.89v-13.36C2241.67,4476.33,2242.81,4473.67,2245,4472.13Zm9.54,8.43,0,0.1c1.07,2.51,2.08,4.88,3,7.41,0.4,1.13,1.27,3.34,1.78,4.63h-4.81v-12.14Zm-2,12.14h-4.89V4471.5l0.11,0c1.27,0.36,3.06,1.81,4.78,4.77v16.4Zm-13.8,0h-4.94a10,10,0,0,0,2.67-2.57,18.39,18.39,0,0,0,2.27-4.49v7.05Zm-64.6,0h-2.72c0.42-1.27,1.32-4,2.72-7.83v7.83Zm2-13.31c1.41-3.77,3.13-8.2,5.15-13.19v26.5h-5.15v-13.31Zm43,7.53a14.27,14.27,0,0,0,4.11,5.78H2219v-5.78Zm-2,5.78h-5.15v-34c1.07,3.38,1.84,6.79,2.45,9.44,0.23,1,.44,1.92.63,2.69,0.23,0.93.46,2.14,0.74,3.57,0.35,1.85.78,4,1.33,6.28v12Zm-7.16-39.08v39.08h-5.15v-46.38c2.13,1.49,3.82,4.1,5.18,7.12A1,1,0,0,0,2209.87,4453.61Zm-7.16,39.08h-5.14V4445.4a11.51,11.51,0,0,1,3.06-.43h0.13a6.61,6.61,0,0,1,2,.33v47.39Zm-7.16-46.54v46.54h-5.15v-42.5a1,1,0,0,0,0-.19A17.76,17.76,0,0,1,2195.55,4446.15Zm-7.16,46.54h-5.15v-31.4a42.11,42.11,0,0,1,5.15-9v40.4Z" transform="translate(-1854.46 -4161.22)"/><path class="cls-7" d="M2146.17,4529.79l-8.79-1.33-1.49-8.84-25.91,4.88-20.67-3-0.94,7-12.53,2.23,8.13,44.2,34.65-6.3,21.62,3.09,0.91-7.24,2.77-.58-1.51-8.12Zm-8.84,38.38-50.65-7.31,5.47-36.08,50.65,7.31Zm-3.79-45,0.91,4.83-16.71-2.22Zm-54,10.05,8.35-1.57-3.79,27.28Zm6.66,38.12-1.24-7.27,25.13,3.22Z" transform="translate(-1854.46 -4161.22)"/><circle class="cls-7" cx="2105.33" cy="4538.18" r="4.62" transform="translate(-4541.39 1812.84) rotate(-81.79)"/><polygon class="cls-7" points="277.17 390.19 272.17 394.06 264.5 378.24 252.51 392.62 247.48 385.67 235.17 397.3 274.92 403.04 280.8 403.88 280.45 402.02 277.17 390.19"/><path class="cls-2" d="M2228.27,4295.22a5.37,5.37,0,0,1-1.86,4,6.25,6.25,0,0,1-4.4,1.73,7.42,7.42,0,0,1-6.12-2.64,11.28,11.28,0,0,1-2.14-7.29q0-4.33,3.67-8.74a23.93,23.93,0,0,1,8.85-6.68l1.59,2.56a20.09,20.09,0,0,0-6.42,4.62,11,11,0,0,0-2.68,6.39h2a11.09,11.09,0,0,1,3.66.5,5.86,5.86,0,0,1,2.28,1.41,5,5,0,0,1,1.18,1.91A6.9,6.9,0,0,1,2228.27,4295.22Zm17.8,0a5.36,5.36,0,0,1-1.86,4,6.25,6.25,0,0,1-4.4,1.73,7.42,7.42,0,0,1-6.12-2.64,11.28,11.28,0,0,1-2.14-7.29q0-4.33,3.67-8.74a23.93,23.93,0,0,1,8.85-6.68l1.59,2.56a20.09,20.09,0,0,0-6.42,4.62,11,11,0,0,0-2.68,6.39h2a11.09,11.09,0,0,1,3.66.5,5.87,5.87,0,0,1,2.28,1.41,5,5,0,0,1,1.18,1.91A6.9,6.9,0,0,1,2246.08,4295.22Z" transform="translate(-1854.46 -4161.22)"/><path class="cls-2" d="M2270.24,4292.7a5.37,5.37,0,0,1,1.86-4,6.25,6.25,0,0,1,4.4-1.73,7.42,7.42,0,0,1,6.12,2.64,11.28,11.28,0,0,1,2.14,7.29q0,4.33-3.67,8.74a23.93,23.93,0,0,1-8.85,6.68l-1.59-2.56a20.09,20.09,0,0,0,6.42-4.62,11,11,0,0,0,2.68-6.39h-2a11.09,11.09,0,0,1-3.66-.5,5.86,5.86,0,0,1-2.28-1.41,5,5,0,0,1-1.18-1.91A6.9,6.9,0,0,1,2270.24,4292.7Zm-17.8,0a5.36,5.36,0,0,1,1.86-4,6.25,6.25,0,0,1,4.4-1.73,7.42,7.42,0,0,1,6.12,2.64,11.28,11.28,0,0,1,2.14,7.29q0,4.33-3.67,8.74a23.93,23.93,0,0,1-8.85,6.68l-1.59-2.56a20.09,20.09,0,0,0,6.42-4.62,11,11,0,0,0,2.68-6.39h-2a11.09,11.09,0,0,1-3.66-.5,5.87,5.87,0,0,1-2.28-1.41,5,5,0,0,1-1.18-1.91A6.9,6.9,0,0,1,2252.43,4292.7Z" transform="translate(-1854.46 -4161.22)"/><path class="cls-8" d="M1880.9,4333.66a26.44,26.44,0,1,0,26.44,26.44A26.44,26.44,0,0,0,1880.9,4333.66Zm-5.69,39.53V4347.4l17.65,12.82Z" transform="translate(-1854.46 -4161.22)"/><path class="cls-7" d="M1937.47,4364.72l0-4.27-17-2.14a1.14,1.14,0,0,0-1.14,1.14v13.67a1.14,1.14,0,0,0,1.14,1.14l14.58,1.57v4.56a44.93,44.93,0,0,0,13.57-1.57c6.51-2,14.92-8.22,15.11-10.69S1952.08,4370.12,1937.47,4364.72Z" transform="translate(-1854.46 -4161.22)"/><path class="cls-7" d="M1920.38,4358.31a1,1,0,0,0-1.14.84V4420h2.28v-60.8A1,1,0,0,0,1920.38,4358.31Z" transform="translate(-1854.46 -4161.22)"/><path class="cls-5" d="M1939.76,4574.08a4.32,4.32,0,0,0-6.39,3c-0.28,2.24.64,4.66,4,5.58C1940.85,4583.62,1946,4577.27,1939.76,4574.08Z" transform="translate(-1854.46 -4161.22)"/><path class="cls-5" d="M1944.42,4562.44a6.16,6.16,0,0,0-2.25,9.81c2.28,2.28,5.82,3.35,9.76.42C1956.15,4569.55,1953.48,4558.19,1944.42,4562.44Z" transform="translate(-1854.46 -4161.22)"/><path class="cls-5" d="M1933.67,4583.76c-2-.84-4.58,1.66-1.84,4.19S1937.94,4585.58,1933.67,4583.76Z" transform="translate(-1854.46 -4161.22)"/><path class="cls-5" d="M1941.82,4513.87c10-12.88,21.85-11.92,33.22-3.42,6.77-3.07,14.74-1.14,18.63,4.7a14.17,14.17,0,0,1,1.93,11.91,10.71,10.71,0,0,1-10,7.4c4.11,2.89,4.42,12.87-1.21,18.49a22.2,22.2,0,0,1-17.71,6.44c-11.52-.72-16-3.6-19.07-7.22-4.64,5.78-18,6.66-24,1.83s-7.53-12.36-1.44-17c-3.56-.95-9.18-4.61-10.32-9-1.27-4.89,1.93-15.13,13.2-17.38C1933.05,4509.06,1937.19,4511.33,1941.82,4513.87Z" transform="translate(-1854.46 -4161.22)"/><path class="cls-4" d="M2121.61,4234.78c-0.43.46-1.46,9.52-6.73,15.82a27.66,27.66,0,0,1-7.73,6.61s1.91-5.35-.74-8.13c-1.79-1.87-6-1.25-10.66,2.5-2.94,2.38-5.67,8.22-5.67,8.22a60.26,60.26,0,0,1,.89-9.47,22.88,22.88,0,0,1,2.94-7.32,9.9,9.9,0,0,0-3.74,2,13.59,13.59,0,0,0-3,3.53s1.09-10.49,5.77-15.8a22.4,22.4,0,0,1,17.63-7.85Z" transform="translate(-1854.46 -4161.22)"/><path class="cls-4" d="M2150.74,4221.81c17.49-21.69,15.84-51.85,15.77-51.85s-27,1.16-47.77,23.51C2102.24,4211.27,2104,4223,2104,4223s4,0.92,11,6.68a33.6,33.6,0,0,1,9.45,11.83S2135.5,4240.69,2150.74,4221.81Z" transform="translate(-1854.46 -4161.22)"/><polygon class="cls-4" points="289.93 65.49 290.21 83.12 269.82 92.83 269.86 80.22 289.93 65.49"/><polygon class="cls-4" points="261.68 40.26 244.15 42.23 237.12 63.69 249.62 62.05 261.68 40.26"/><polygon class="cls-4" points="277.31 52.89 275.08 50.93 252.75 76.32 255.17 78.06 277.31 52.89"/><circle class="cls-9" cx="2145.03" cy="4195.15" r="7.89" transform="translate(-4276.07 -1126.37) rotate(-48.66)"/><path class="cls-7" d="M2085.1,4220.6l-13.38-18a1.92,1.92,0,0,0-2.68,0l-0.26.19-5.85-7.86a18,18,0,1,0-4.12,3.06l5.85,7.86-0.26.19a1.92,1.92,0,0,0-.72,2.58l13.38,18a1.92,1.92,0,0,0,2.68,0l4.64-3.45A1.92,1.92,0,0,0,2085.1,4220.6Zm-46.67-29.66a14.74,14.74,0,1,1,20.62,3A14.76,14.76,0,0,1,2038.43,4190.93Z" transform="translate(-1854.46 -4161.22)"/><path class="cls-2" d="M2109.82,4301.69v3.3c0,6.39,5.58,12.26,12.79,12.26s12.77-6.25,12.77-12.26v-3.19c0.64-.21,2.82-0.54,2.82-0.75v-5.65c0-.76-1.54-1.48-2.53-2.11V4271c0-5.17-5.85-6.31-13.06-6.31s-13.06,1.14-13.06,6.31v22.27c-1,.64-2.23,1.35-2.23,2.11v5.65C2107.32,4301.26,2109.18,4301.53,2109.82,4301.69Z" transform="translate(-1854.46 -4161.22)"/><path class="cls-2" d="M2140.16,4305v-2.33h0.62a3.27,3.27,0,1,0,0-6.55h-2.92V4305a15.25,15.25,0,1,1-30.5,0v-8.87h-2.92a3.27,3.27,0,1,0,0,6.55h0.62V4305a17.58,17.58,0,0,0,15.7,17.45V4326c-9.56.23-17,2.08-17,4.32,0,2.4,8.52,4.34,19,4.34s19-1.94,19-4.34-7.64-4.13-17.37-4.33v-3.58A17.58,17.58,0,0,0,2140.16,4305Z" transform="translate(-1854.46 -4161.22)"/><polygon class="cls-2" points="399.03 373.13 417.99 356.22 406.48 348.36 437.58 333.24 424.53 324.58 465.96 301.43 440.7 324.3 453.05 333.41 423.51 349.33 430.44 354.84 399.03 373.13"/><path class="cls-7" d="M2353.55,4362.51c-0.36-3.83-1.07-6.9-1.59-6.85s-2,1.86-2.67,4.34l-12.92-1.48c5.3-5.83,7.78-9.37,11-13.49s5.24-6.9,5.14-12.88c-0.11-6.45-4.7-13.28-12.74-18.55a30.87,30.87,0,0,0-10.63-4.53,17.47,17.47,0,0,0-10.87,1c-7.21,3.25-9.85,8.71-10.74,12.69-1,4.42-.26,9,1.07,11.35-5.18,5.68-10.05,11-10.87,12a5.48,5.48,0,0,0-1.19,3c0.1,0.82.11,2.4,11.21,12.5l0.19,0.18c11.1,10.11,12.68,10,13.5,10a5.48,5.48,0,0,0,2.9-1.46l0.84-.9,24.61-3.65c1.14,2.3,3.05,3.8,3.43,3.76S2353.91,4366.34,2353.55,4362.51Zm-31.47-43.17c-0.57.63-4.41,5.17-9.52,10.76a12.87,12.87,0,0,1-.21-6.63c0.68-3.06,2.37-8.58,7.95-11.23,3.45-1.64,10-2,18.37,3.72,9.94,6.79,11.18,11.79,11.11,16.79,0,3.7-2.34,6.5-3.45,7.78-1.79-1.91-5-5-10.38-9.89C2323.67,4319.46,2322.08,4319.34,2322.08,4319.34Z" transform="translate(-1854.46 -4161.22)"/><path class="cls-7" d="M2257.92,4272.57c2.64-.11,4.94,1.8,7.55,2.16a12.5,12.5,0,0,0,3.59,0c1.7-.26,2.9-1.22,4.71-1.08,2.39,0.19,3.79.71,6.15-.29a48,48,0,0,0,7-4.17,8,8,0,0,1,4.34-1.5,18.06,18.06,0,0,0,3.33-.27,8.74,8.74,0,0,0,5.5-3.47c1.32-2.07,3.16-8.5.21-10.14l0.23,0.88c1.26-2.93,3-5.85,3.24-9.09,0.27-3-.76-5.1-2.48-7.41s-0.73-5.15-3.16-7a14.06,14.06,0,0,0-3.38-1.58c-1.57-.62-3-1.53-4.6-2.1s-3.37-.52-5-0.95-3.34-1.38-5.11-1.67-3.5.32-5.19,0.09c-1-.13-1.25-0.87-2.12-1.44-2.45-1.61-6.85-1.58-9.63-1.24-2,.24-3.79,1.09-5.78,1.32-1.79.2-3.56,0.19-5.32,0.56-4.78,1-12.44,4.89-11.94,10.84l0.64-.64c-3.68.35-3.84,3.59-4.41,6.55-0.24,1.21-.57,1.24-1.6,2a13.37,13.37,0,0,0-2.13,1.9,9.73,9.73,0,0,0-2.61,5.21c-0.15,1.39.21,2.78,0.15,4.17s-0.54,2.95-.5,4.45a7,7,0,0,0,2.21,5.12,4.25,4.25,0,0,0,2.06.83,8.17,8.17,0,0,1,3.8,1.82c2.25,1.6,5.15,1.78,7.83,1.94l-0.64-.64c0.12,1.82,2.89,3.68,4.29,4.34,2.95,1.4,6.21.81,9.31,0.39l-0.34-1.24-1.18.16,0.34,1.24,0.82-.11c0.82-.11.47-1.35-0.34-1.24l-0.82.11c-0.82.11-.47,1.35,0.34,1.24l1.18-.16c0.82-.11.47-1.35-0.34-1.24-2.27.31-4.8,0.8-7.07,0.18-1.24-.34-4.8-2-4.9-3.67a0.66,0.66,0,0,0-.64-0.64c-2.74-.17-5.35-0.38-7.58-2.08a6.76,6.76,0,0,0-3.24-1.57c-3.55-.65-4.06-3.8-3.62-6.82a34.8,34.8,0,0,0,.14-5.33,8.36,8.36,0,0,1,2.71-6c0.91-.9,2.74-1.56,3.41-2.56,0.47-.7.28-2.38,0.41-3.18,0.3-1.8.84-3.63,3-3.84a0.65,0.65,0,0,0,.64-0.64c-0.27-3.28,2.9-5.94,5.41-7.44,3.7-2.22,7.36-2.16,11.47-2.78,2-.3,3.76-1.16,5.78-1.3a20,20,0,0,1,6.62.55c1.64,0.51,1.77,1.6,3.08,2.16,1.08,0.47,3-.11,4.15-0.14,2.19-.05,3.87.75,5.87,1.41,1.8,0.59,3.64.55,5.45,1a40.72,40.72,0,0,1,4.69,2.1c1.88,0.77,4,1.2,4.75,3.33,0.38,1.13.13,2.4,0.6,3.51,0.58,1.38,2,2.18,2.62,3.57,2.08,4.44-.62,9-2.36,13a0.66,0.66,0,0,0,.23.88c1.68,0.93.61,4.86,0.2,6.29-0.91,3.22-3.74,4.92-7,5.18-1.76.14-3.27-.11-4.91,0.69a55.62,55.62,0,0,0-5.18,3.21c-2.22,1.4-4.52,2.87-7.25,2.42-1.56-.26-2.72-0.62-4.22-0.1-2.65.91-5,1.33-7.74,0.33-1.94-.71-3.52-1.77-5.65-1.68A0.64,0.64,0,0,0,2257.92,4272.57Z" transform="translate(-1854.46 -4161.22)"/><path class="cls-7" d="M2273.93,4225.15c-4.46.73-7.89,3.47-10.75,6.81-1.78,2.08-4.43,2.15-6.83,3.13a9.44,9.44,0,0,0-4.67,3.75c-0.57.92-.85,2-1.44,2.93a8.42,8.42,0,0,1-2.85,2.21,7.79,7.79,0,0,0-3.27,3.84c-1.55,3.73-1.16,7.06,1.73,10a0.64,0.64,0,0,0,.91-0.91,7.66,7.66,0,0,1,1.55-11.95,9.89,9.89,0,0,0,2.68-2c1.34-1.66,1.59-3.69,3.31-5.15,2.84-2.43,7-1.87,9.59-4.65,3-3.22,5.86-6,10.4-6.74,0.81-.13.47-1.37-0.34-1.24h0Z" transform="translate(-1854.46 -4161.22)"/><path class="cls-7" d="M2244.74,4256.75c-2.47,3.9-1.07,8.91,1,12.65a0.64,0.64,0,0,0,1.11-.65c-1.88-3.33-3.26-7.86-1-11.36a0.64,0.64,0,0,0-1.11-.65h0Z" transform="translate(-1854.46 -4161.22)"/><path class="cls-7" d="M2243.43,4254.16a9.93,9.93,0,0,0,6.58,6.13c2.45,0.64,5.65,1,7.6-.94a0.64,0.64,0,0,0-.91-0.91c-1.55,1.53-4.42,1.13-6.35.61a8.64,8.64,0,0,1-5.69-5.23c-0.28-.77-1.52-0.44-1.24.34h0Z" transform="translate(-1854.46 -4161.22)"/><path class="cls-7" d="M2272.77,4231.8c1.9-.32,4.76,0,5.31,2.24,0.18,0.74.07,1.53,0.22,2.28,0.2,1,.88,1.89.87,3a0.64,0.64,0,0,0,1.28,0c0-1.42-.85-2.64-1-4.05a5,5,0,0,0-.92-3c-1.46-1.75-4-2-6.13-1.62-0.81.14-.47,1.38,0.34,1.24h0Z" transform="translate(-1854.46 -4161.22)"/><path class="cls-7" d="M2279,4234a4.76,4.76,0,0,1,6.52,3.16,0.64,0.64,0,0,0,1.24-.34,6.06,6.06,0,0,0-8.41-3.93c-0.74.36-.09,1.47,0.65,1.11h0Z" transform="translate(-1854.46 -4161.22)"/><path class="cls-7" d="M2290.77,4243.15c1.13,1.67,2.16,3.82,1.68,5.9s-2.91,4.2-5.13,3.66a0.64,0.64,0,0,0-.34,1.24c2.49,0.61,5-1.09,6.21-3.26,1.44-2.67.25-5.86-1.31-8.18-0.46-.68-1.57,0-1.11.65h0Z" transform="translate(-1854.46 -4161.22)"/><path class="cls-7" d="M2290.31,4243.72a3.28,3.28,0,0,0,1.72-1.07,0.64,0.64,0,0,0-.91-0.91,5.87,5.87,0,0,1-.51.46l-0.2.14c-0.06,0-.31.13-0.1,0.1a0.66,0.66,0,0,0-.64.64,0.65,0.65,0,0,0,.64.64h0Z" transform="translate(-1854.46 -4161.22)"/><path class="cls-7" d="M2296.82,4245.55a3.8,3.8,0,0,1,1.08,3.22c-0.06.82,1.23,0.82,1.28,0a5,5,0,0,0-1.45-4.12,0.64,0.64,0,0,0-.91.91h0Z" transform="translate(-1854.46 -4161.22)"/><path class="cls-7" d="M2289.17,4257.51c2.14,0,4.19-.14,5.89-1.58,0.63-.54-0.28-1.44-0.91-0.91-1.41,1.2-3.23,1.2-5,1.2a0.64,0.64,0,0,0,0,1.28h0Z" transform="translate(-1854.46 -4161.22)"/><path class="cls-7" d="M2290.77,4257.19c1.39,2.67-.23,6-2.29,7.73-1.29,1.07-1.68,3.12-3.17,3.79-0.75.34-.1,1.44,0.65,1.11,1.3-.58,1.54-1.5,2.22-2.65s2.21-1.82,3-3.08c1.31-2.1,1.85-5.32.7-7.55a0.64,0.64,0,0,0-1.11.65h0Z" transform="translate(-1854.46 -4161.22)"/><path class="cls-7" d="M2270.06,4269.52c-0.23,2,1.57,3.12,3.1,4a0.64,0.64,0,0,0,.65-1.11c-1.13-.63-2.64-1.34-2.47-2.86,0.09-.82-1.19-0.81-1.28,0h0Z" transform="translate(-1854.46 -4161.22)"/><path class="cls-7" d="M2268.37,4252.11a3.09,3.09,0,0,0-4.26.06c-1.42,1.11-2.9,4-4.8,4.18-0.81.09-.82,1.38,0,1.28,1.51-.18,2.55-1.32,3.54-2.38s2.86-3.7,4.61-2.24c0.63,0.53,1.54-.38.91-0.91h0Z" transform="translate(-1854.46 -4161.22)"/><path class="cls-7" d="M2258.44,4256.53a2.6,2.6,0,0,0,3.07,2c0.81-.15.47-1.39-0.34-1.24a1.31,1.31,0,0,1-1.49-1.07,0.64,0.64,0,0,0-1.24.34h0Z" transform="translate(-1854.46 -4161.22)"/><path class="cls-7" d="M2251.65,4255a5.05,5.05,0,0,0,5.12.06,3.08,3.08,0,0,0,1.15-1.71c0.23-.73.3-2.18,1.08-2.53s0.1-1.45-.65-1.11c-1.13.51-1.3,2-1.6,3-0.58,2-2.84,2-4.46,1.14a0.64,0.64,0,0,0-.65,1.11h0Z" transform="translate(-1854.46 -4161.22)"/><path class="cls-7" d="M2258.88,4251c1.23-1.37,1.84-3.48,3.72-4.07,1.21-.38,2.51-0.4,3.71-0.81,1.87-.65,3-2,1.77-3.87-0.46-.68-1.57,0-1.11.65,1.49,2.21-3.27,2.4-4.49,2.73-2.47.66-3,2.71-4.52,4.46-0.55.61,0.35,1.53,0.91,0.91h0Z" transform="translate(-1854.46 -4161.22)"/><path class="cls-7" d="M2264,4237.89a5.32,5.32,0,0,0,1,2.93c0.63,0.84,1.44,1.52,2.1,2.34,0.52,0.64,1.42-.27.91-0.91-1.16-1.43-2.58-2.38-2.72-4.35-0.06-.82-1.35-0.83-1.28,0h0Z" transform="translate(-1854.46 -4161.22)"/><path class="cls-7" d="M2270.82,4239c-0.16,1.67-1.94,2.36-3.32,2.8a0.64,0.64,0,0,0,.34,1.24c2-.63,4-1.71,4.27-4,0.08-.82-1.21-0.82-1.28,0h0Z" transform="translate(-1854.46 -4161.22)"/><path class="cls-7" d="M2258.47,4241.06c-2.81-.79-5.24,2.09-5.49,4.67-0.08.82,1.2,0.82,1.28,0,0.17-1.75,1.93-4,3.87-3.43a0.64,0.64,0,0,0,.34-1.24h0Z" transform="translate(-1854.46 -4161.22)"/><path class="cls-7" d="M2251.77,4246c0.61,0.08,1.61,0,2,.59s1.6,0,1.11-.65c-0.7-.94-1.71-1-2.79-1.18a0.67,0.67,0,0,0-.79.45,0.65,0.65,0,0,0,.45.79h0Z" transform="translate(-1854.46 -4161.22)"/><path class="cls-7" d="M2241.91,4239.61a6.32,6.32,0,0,0-3.23,5.49,0.64,0.64,0,0,0,1.28,0,5,5,0,0,1,2.59-4.38,0.64,0.64,0,0,0-.65-1.11h0Z" transform="translate(-1854.46 -4161.22)"/><path class="cls-7" d="M2239.72,4242.37a3.39,3.39,0,0,0-2.05-.53,6.36,6.36,0,0,0-1.93.46,0.64,0.64,0,0,0,.65,1.11,4.31,4.31,0,0,1,1.49-.31,3.26,3.26,0,0,1,1.5.51c0.77,0.3,1.1-.94.34-1.24h0Z" transform="translate(-1854.46 -4161.22)"/><path class="cls-7" d="M2240.08,4236c2.09-.06,4.74-1.19,6.7-0.09s2,4.56.44,6.08a0.64,0.64,0,0,0,.91.91,5.54,5.54,0,0,0,.57-7c-2.09-2.82-5.76-1.29-8.62-1.21a0.64,0.64,0,0,0,0,1.28h0Z" transform="translate(-1854.46 -4161.22)"/><path class="cls-7" d="M2246.7,4243.44a4,4,0,0,1,1.09-.1,0.64,0.64,0,0,0,0-1.28,5.28,5.28,0,0,0-1.44.15,0.64,0.64,0,0,0,.34,1.24h0Z" transform="translate(-1854.46 -4161.22)"/><path class="cls-7" d="M2248.23,4230.35c-1.89,1.87-1.36,4.09-.4,6.3,0.33,0.76,1.43.1,1.11-.65-0.71-1.65-1.24-3.32.2-4.74a0.64,0.64,0,0,0-.91-0.91h0Z" transform="translate(-1854.46 -4161.22)"/><path class="cls-7" d="M2259.22,4223.52a10.77,10.77,0,0,0-4.89,4.68,0.64,0.64,0,0,0,1.11.65,9.62,9.62,0,0,1,4.43-4.22c0.75-.34.1-1.45-0.65-1.11h0Z" transform="translate(-1854.46 -4161.22)"/><path class="cls-7" d="M2235.91,4251c1.84,2.23,3.95,5.2,4,8.24s-2.8,4.08-5.43,4.11a0.64,0.64,0,0,0,0,1.28c2.54,0,6-1,6.63-3.84,0.88-3.8-2-8-4.28-10.7-0.53-.64-1.43.27-0.91,0.91h0Z" transform="translate(-1854.46 -4161.22)"/><path class="cls-7" d="M2233.74,4257.32a3.87,3.87,0,0,0-.61-2.9,11.38,11.38,0,0,1-1.65-4.36c-0.08-.81-1.37-0.82-1.28,0a9.83,9.83,0,0,0,.79,3c0.5,1.13,1.81,2.6,1.51,3.89a0.64,0.64,0,0,0,1.24.34h0Z" transform="translate(-1854.46 -4161.22)"/><path class="cls-7" d="M2250.19,4263.38a3.05,3.05,0,0,1,2.54-2.51,0.64,0.64,0,0,0,0-1.28,4.31,4.31,0,0,0-3.78,3.45,0.64,0.64,0,0,0,1.24.34h0Z" transform="translate(-1854.46 -4161.22)"/><path class="cls-7" d="M2267.68,4259c5.66,1.38,8.85-5.42,5.83-9.78-0.47-.67-1.58,0-1.11.65,2.33,3.36.27,9-4.38,7.89a0.64,0.64,0,0,0-.34,1.24h0Z" transform="translate(-1854.46 -4161.22)"/><path class="cls-7" d="M2270.12,4249.1c3,2.46,4.91-.39,6.16-3.09a11.89,11.89,0,0,1,1.26-2.44c1.68-2.15,3.74-1.23,4.79.86,0.77,1.54,1.2,3.28,3,3.83a0.64,0.64,0,0,0,.34-1.24c-1.87-.56-2-3.57-3.24-4.86a3.54,3.54,0,0,0-4.2-.85,5.86,5.86,0,0,0-2.68,3.18c-0.8,1.71-2.07,5.73-4.53,3.71-0.63-.52-1.55.38-0.91,0.91h0Z" transform="translate(-1854.46 -4161.22)"/><path class="cls-7" d="M2279.44,4248.56a3.43,3.43,0,0,0,2,2.47c0.79,0.26,1.12-1,.34-1.24a2.23,2.23,0,0,1-1.07-1.58c-0.26-.78-1.5-0.44-1.24.34h0Z" transform="translate(-1854.46 -4161.22)"/><path class="cls-7" d="M2280.11,4249.58a5.49,5.49,0,0,0-1.81,3.32c-0.11.81,1.13,1.16,1.24,0.34a4.42,4.42,0,0,1,1.48-2.75c0.62-.55-0.29-1.46-0.91-0.91h0Z" transform="translate(-1854.46 -4161.22)"/><path class="cls-7" d="M2263.92,4265.14c3.56,1.88,6.71.17,9.89-1.72a14.91,14.91,0,0,0,4.1-3.53c0.27-.34.53-0.69,0.83-1,0.94-1,1.06-1.16,2.5-.82s1.91,0.8,1.91,2.24a2.88,2.88,0,0,1-1.15,2.31c-0.63.53,0.28,1.44,0.91,0.91,2.57-2.16,1.67-7.72-2.36-7.27-2.3.26-3.47,3-5,4.35-2.68,2.47-7.51,5.28-11,3.43a0.64,0.64,0,0,0-.65,1.11h0Z" transform="translate(-1854.46 -4161.22)"/><path class="cls-7" d="M2281.22,4262c0.54,1.83.43,3.52-1.1,4.82-0.63.53,0.28,1.44,0.91,0.91,1.86-1.57,2.08-3.83,1.43-6.07a0.64,0.64,0,0,0-1.24.34h0Z" transform="translate(-1854.46 -4161.22)"/><path class="cls-7" d="M2269.23,4270.65a8.73,8.73,0,0,0,3.57-1.94,0.64,0.64,0,0,0-.91-0.91,7.35,7.35,0,0,1-3,1.61c-0.77.29-.44,1.53,0.34,1.24h0Z" transform="translate(-1854.46 -4161.22)"/><path class="cls-7" d="M2251.8,4269.38a5.63,5.63,0,0,0,5.6-3.36c0.26-.79-1-1.12-1.24-0.34a4.46,4.46,0,0,1-4,2.46c-0.81-.15-1.15,1.08-0.34,1.24h0Z" transform="translate(-1854.46 -4161.22)"/><path class="cls-7" d="M2255.53,4267.16a10.92,10.92,0,0,0,6.27,6.27c0.78,0.27,1.12-1,.34-1.24a9.55,9.55,0,0,1-5.37-5.37c-0.3-.76-1.54-0.43-1.24.34h0Z" transform="translate(-1854.46 -4161.22)"/><path class="cls-7" d="M2296.58,4261c-1.32-1.39-4.6-1.62-5.59.3-0.38.73,0.73,1.38,1.11,0.65,0.6-1.17,2.81-.84,3.57,0a0.64,0.64,0,0,0,.91-0.91h0Z" transform="translate(-1854.46 -4161.22)"/><path class="cls-7" d="M2267.53,4257.33a2.2,2.2,0,0,0-.54,2c0.13,0.81,1.37.47,1.24-.34a0.81,0.81,0,0,1,.21-0.7c0.55-.61-0.35-1.52-0.91-0.91h0Z" transform="translate(-1854.46 -4161.22)"/><path class="cls-7" d="M2257.92,4272.57c2.64-.11,4.94,1.8,7.55,2.16a12.5,12.5,0,0,0,3.59,0c1.7-.26,2.9-1.22,4.71-1.08,2.39,0.19,3.79.71,6.15-.29a48,48,0,0,0,7-4.17,8,8,0,0,1,4.34-1.5,18.06,18.06,0,0,0,3.33-.27,8.74,8.74,0,0,0,5.5-3.47c1.32-2.07,3.16-8.5.21-10.14l0.23,0.88c1.26-2.93,3-5.85,3.24-9.09,0.27-3-.76-5.1-2.48-7.41s-0.73-5.15-3.16-7a14.06,14.06,0,0,0-3.38-1.58c-1.57-.62-3-1.53-4.6-2.1s-3.37-.52-5-0.95-3.34-1.38-5.11-1.67-3.5.32-5.19,0.09c-1-.13-1.25-0.87-2.12-1.44-2.45-1.61-6.85-1.58-9.63-1.24-2,.24-3.79,1.09-5.78,1.32-1.79.2-3.56,0.19-5.32,0.56-4.84,1-12.36,4.88-11.94,10.84l0.81-.62c-3.25-.59-4.08,2.61-4.43,5.21a8,8,0,0,1-.26,2.36c-0.41.64-1.79,1.14-2.42,1.68a11.19,11.19,0,0,0-3.64,5.39,12.24,12.24,0,0,0,0,3.88,26.51,26.51,0,0,1-.41,4.39c-0.23,2.18.23,4.86,2,6.36a4.19,4.19,0,0,0,2,.9,9.25,9.25,0,0,1,4,1.84c2.29,1.58,5.13,1.77,7.83,1.94l-0.64-.64c0.12,1.82,2.89,3.68,4.29,4.34,2.95,1.4,6.21.81,9.31,0.39l-0.34-1.24-1.18.16,0.34,1.24,0.82-.11c0.82-.11.47-1.35-0.34-1.24l-0.82.11c-0.82.11-.47,1.35,0.34,1.24l1.18-.16c0.82-.11.47-1.35-0.34-1.24-2.27.31-4.8,0.8-7.07,0.18-1.24-.34-4.8-2-4.9-3.67a0.66,0.66,0,0,0-.64-0.64c-3-.18-5.45-0.48-7.85-2.3a6.39,6.39,0,0,0-3.14-1.37c-3.84-.68-3.73-4.63-3.3-7.69,0.25-1.79-.18-3.5,0-5.27a9.1,9.1,0,0,1,3.22-5.65c0.84-.75,2.42-1.29,3-2.25,1-1.71-.53-7.56,3.13-6.89a0.65,0.65,0,0,0,.81-0.62c-0.23-3.3,2.87-5.93,5.41-7.44,3.7-2.22,7.36-2.16,11.47-2.78,2-.3,3.76-1.16,5.78-1.3a20,20,0,0,1,6.62.55c1.64,0.51,1.77,1.6,3.08,2.16,1.08,0.47,3-.11,4.15-0.14,2.19-.05,3.87.75,5.87,1.41,1.8,0.59,3.64.55,5.45,1a40.72,40.72,0,0,1,4.69,2.1c1.88,0.77,4,1.2,4.75,3.33,0.38,1.13.13,2.4,0.6,3.51,0.58,1.38,2,2.18,2.62,3.57,2.08,4.44-.62,9-2.36,13a0.66,0.66,0,0,0,.23.88c1.68,0.93.61,4.86,0.2,6.29-0.91,3.22-3.74,4.92-7,5.18-1.76.14-3.27-.11-4.91,0.69a55.62,55.62,0,0,0-5.18,3.21c-2.22,1.4-4.52,2.87-7.25,2.42-1.56-.26-2.72-0.62-4.22-0.1-2.65.91-5,1.33-7.74,0.33-1.94-.71-3.52-1.77-5.65-1.68A0.64,0.64,0,0,0,2257.92,4272.57Z" transform="translate(-1854.46 -4161.22)"/><path class="cls-7" d="M2294.35,4232.65a10,10,0,0,0-1.58-3.58c-0.48-.66-1.6,0-1.11.65a9,9,0,0,1,1.45,3.27,0.64,0.64,0,0,0,1.24-.34h0Z" transform="translate(-1854.46 -4161.22)"/><path class="cls-7" d="M2300.32,4240.29c-0.11-1.47-.13-3-0.13-4.43a0.64,0.64,0,0,0-1.28,0c0,1.48,0,3,.13,4.43,0.06,0.82,1.35.83,1.28,0h0Z" transform="translate(-1854.46 -4161.22)"/><path class="cls-7" d="M2252.63,4229.44a3.63,3.63,0,0,1,3.21,1,0.64,0.64,0,0,0,.91-0.91,5,5,0,0,0-4.46-1.33c-0.81.18-.47,1.42,0.34,1.24h0Z" transform="translate(-1854.46 -4161.22)"/><polygon class="cls-10" points="411.69 183.73 429.92 183.84 415.87 190.42 433.87 199.23 416.35 198.94 430.51 218.18 408.54 202.28 408.01 217.39 398.79 205.4 393.15 223.96 389.47 208.53 379.61 214.52 385.56 203.84 366.37 210.68 381.75 197.99 363.24 198.53 376.71 191.52 359.82 185.5 379.55 184.59 362.62 168.45 384.71 178.81 372.88 156.7 387.96 173.13 388.67 152.66 396.99 173.85 407.69 156.91 404.02 173.24 419.06 162.13 410.74 174.79 436.43 162.33 411.69 183.73"/><path class="cls-2" d="M1966.78,4493.64a2.11,2.11,0,0,1-1.08-1.68c-0.07-.91-1.69-22.33,9.07-31.9,9.85-8.77,22.49-6,25.22-5.22h0l0.17,0.05,0.15,0,0.19,0.06h0c2.68,0.9,14.74,5.63,18,18.4,3.59,13.95-9.69,30.83-10.26,31.54a2.11,2.11,0,0,1-3.3-2.63c0.13-.16,12.54-16,9.47-27.86-2.82-10.93-13.75-14.94-15.42-15.49s-13-3.24-21.45,4.26c-9.18,8.17-7.68,28.21-7.67,28.41A2.11,2.11,0,0,1,1966.78,4493.64Z" transform="translate(-1854.46 -4161.22)"/><path class="cls-2" d="M1977.21,4500.48l-6.88-.36a2.7,2.7,0,0,1-2.56-2.83l0.81-16.26a2.7,2.7,0,0,1,2.83-2.56l6.88,0.36a2.7,2.7,0,0,1,2.56,2.83l-0.81,16.26A2.7,2.7,0,0,1,1977.21,4500.48Z" transform="translate(-1854.46 -4161.22)"/><path class="cls-2" d="M1978.48,4478.93l-3.35-.21-1.29,21.63,3.31,0.21A2.7,2.7,0,0,0,1980,4498l1-16.25A2.7,2.7,0,0,0,1978.48,4478.93Z" transform="translate(-1854.46 -4161.22)"/><path class="cls-2" d="M1993.64,4505.57l5.91,3.53a2.7,2.7,0,0,0,3.7-.92l8.39-14a2.7,2.7,0,0,0-.92-3.7l-5.91-3.53a2.7,2.7,0,0,0-3.7.92l-8.39,14A2.7,2.7,0,0,0,1993.64,4505.57Z" transform="translate(-1854.46 -4161.22)"/><path class="cls-2" d="M2004.6,4487l2.9,1.69-11,18.68-2.87-1.67a2.7,2.7,0,0,1-1-3.69l8.23-14A2.7,2.7,0,0,1,2004.6,4487Z" transform="translate(-1854.46 -4161.22)"/><line class="cls-11" x1="120.7" y1="316.39" x2="119.46" y2="340.01"/><line class="cls-11" x1="153.26" y1="326.72" x2="141.45" y2="347.21"/><path class="cls-4" d="M1919.71,4321.76a16.48,16.48,0,0,0,16.24-16.46c0-.22,0-0.43,0-0.64a1.49,1.49,0,0,0-1.44-1.44l-0.64,0a16.5,16.5,0,0,0-15.8,11.85,13.66,13.66,0,0,0-12.79-8.91h-0.53a1.5,1.5,0,0,0-1.44,1.44c0,0.18,0,.36,0,0.53a13.65,13.65,0,0,0,13.45,13.63v7.78a1.45,1.45,0,0,0,0,.16h-6.12a0.9,0.9,0,0,0-.89,1l2.23,15.37a0.9,0.9,0,0,0,.89.77h2.69a0.9,0.9,0,0,0,.89-0.76c0-.27,1.52-0.47,1.8-0.47s1.75,0.2,1.79.47a0.9,0.9,0,0,0,.89.76h2.69a0.9,0.9,0,0,0,.89-0.77l2.23-15.37a0.9,0.9,0,0,0-.89-1h-6.12a1.47,1.47,0,0,0,0-.16v-7.78Z" transform="translate(-1854.46 -4161.22)"/><path class="cls-7" d="M2292.37,4434.15c0.05,0.29.1,0.59,0.14,0.88a1.62,1.62,0,0,0,.6-0.24l8.12-5.69a1.58,1.58,0,0,0,.66-1,1.6,1.6,0,0,0-.27-1.2,1.65,1.65,0,0,0-2.24-.4l-7.6,5.32c0.09,0.31.18,0.61,0.26,0.93C2292.18,4433.18,2292.28,4433.66,2292.37,4434.15Z" transform="translate(-1854.46 -4161.22)"/><path class="cls-7" d="M2303,4441.91a1.6,1.6,0,0,0-1-.66l-9.26-1.63c0,0.3,0,.6-0.08.91q-0.07.7-.19,1.39c0,0.3-.1.59-0.16,0.89l9.14,1.61,0.28,0A1.61,1.61,0,0,0,2303,4441.91Z" transform="translate(-1854.46 -4161.22)"/><path class="cls-7" d="M2291.95,4447.13a1.58,1.58,0,0,0-.76-0.57c-0.1.28-.21,0.56-0.32,0.84-0.18.46-.37,0.92-0.58,1.37s-0.29.63-.45,0.93l5.17,7.38a1.6,1.6,0,0,0,1,.66l0.28,0a1.61,1.61,0,0,0,1.32-2.53Z" transform="translate(-1854.46 -4161.22)"/><path class="cls-7" d="M2240.42,4429l8.1,5.72a1.54,1.54,0,0,0,.32.16c0-.31.1-0.62,0.16-0.93,0.1-.5.21-1,0.34-1.48,0.08-.31.17-0.62,0.27-0.92l-7.32-5.17a1.65,1.65,0,0,0-2.24.38A1.61,1.61,0,0,0,2240.42,4429Z" transform="translate(-1854.46 -4161.22)"/><path class="cls-7" d="M2248.93,4441.87c-0.08-.47-0.14-0.93-0.19-1.39,0-.3-0.06-0.6-0.08-0.9l-9,1.54a1.61,1.61,0,0,0,.27,3.19l0.28,0,8.87-1.52Q2249,4442.31,2248.93,4441.87Z" transform="translate(-1854.46 -4161.22)"/><path class="cls-7" d="M2250.5,4447.45c-0.12-.29-0.23-0.58-0.33-0.87a1.51,1.51,0,0,0-.53.46l-5.72,8.1a1.61,1.61,0,0,0,1.3,2.54l0.28,0a1.59,1.59,0,0,0,1-.66l5-7.13q-0.23-.46-0.45-0.93Q2250.79,4448.2,2250.5,4447.45Z" transform="translate(-1854.46 -4161.22)"/><path class="cls-7" d="M2275.7,4468l-10.21,0a1.81,1.81,0,0,0-1.82,1.81v7a1.81,1.81,0,0,0,1.81,1.81h1.73l0.9,1a1.8,1.8,0,0,0,1.37.63h2.22a1.8,1.8,0,0,0,1.37-.62l0.9-1h1.73a1.81,1.81,0,0,0,1.81-1.81v-7A1.81,1.81,0,0,0,2275.7,4468Z" transform="translate(-1854.46 -4161.22)"/><path class="cls-7" d="M2270.7,4419.85a18.34,18.34,0,0,0-18.48,18.15,24.05,24.05,0,0,0,5.71,15l0.12,0.16c1.09,1.35,4.2,5.87,4.2,8.79a2.26,2.26,0,0,0,2.26,2.27l12.21,0h0.06a2.21,2.21,0,0,0,.89-0.18A2.26,2.26,0,0,0,2279,4462c0-2.6,2.6-6.76,4.24-8.78a2.17,2.17,0,0,0,.25-0.39,24,24,0,0,0,5.58-14.72A18.34,18.34,0,0,0,2270.7,4419.85Z" transform="translate(-1854.46 -4161.22)"/><path class="cls-8" d="M2187.79,4238.37c0.92-4,1.7-7.6,2.15-9.53,0.06-.27-1.32-4.88-9.81-7.08-7.91-2-16.28,1.32-17.4,1.79l0-.09s-0.67-1.58-1.69.05-15,58.29-15,58.29,0.23,1.6,1.71.39l4.76-18.66c6-4.33,14.44-5,21-4.57-2.22,5.54-1.82,8.4-1.66,9.42a5.17,5.17,0,0,0,.36,1.54c1.36,3.16,6.73,3.5,19-.77,12.77-4.45,23-1.51,23-1.51s3-25.64,7-33.24C2211.06,4233.3,2196.3,4235,2187.79,4238.37Z" transform="translate(-1854.46 -4161.22)"/><path class="cls-12" d="M2190,4255.87c-0.46,2.34-.91,4.76-1.33,7.24a89.79,89.79,0,0,1,8.77-2q0.65-3.49,1.3-6.64C2195.47,4254.92,2192.5,4255.41,2190,4255.87Z" transform="translate(-1854.46 -4161.22)"/><path class="cls-12" d="M2198.7,4254.48c2.77-.37,5.72-0.71,8.74-1,0.49-2.47,1-4.76,1.54-6.87-3,.24-6,0.55-8.77.88Q2199.47,4250.75,2198.7,4254.48Z" transform="translate(-1854.46 -4161.22)"/><path class="cls-13" d="M2197.4,4261.13a70.69,70.69,0,0,1,8.9-1c0.35-2.34.73-4.55,1.14-6.64-3,.25-6,0.58-8.74,1Q2198,4257.63,2197.4,4261.13Z" transform="translate(-1854.46 -4161.22)"/><path class="cls-13" d="M2207.44,4253.53c3-.24,6-0.4,9-0.41,0.4-2.29.85-4.66,1.33-6.94-2.86.07-5.86,0.25-8.83,0.49C2208.45,4248.76,2207.93,4251.06,2207.44,4253.53Z" transform="translate(-1854.46 -4161.22)"/><path class="cls-13" d="M2181.49,4257.6l-1.44,7.91,0.26,0c1.7-.34,4.56-1.32,8.31-2.36,0.42-2.48.87-4.9,1.33-7.24C2185.48,4256.68,2182.33,4257.41,2181.49,4257.6Z" transform="translate(-1854.46 -4161.22)"/><path class="cls-13" d="M2200.21,4247.54c2.8-.33,5.77-0.64,8.77-0.88,0.59-2.32,1.19-4.41,1.77-6.26-3.2.17-6.22,0.4-9,.66C2201.29,4243,2200.76,4245.15,2200.21,4247.54Z" transform="translate(-1854.46 -4161.22)"/><path class="cls-13" d="M2198.7,4254.48q0.77-3.72,1.51-6.94c-3.25.38-6.25,0.79-8.76,1.16-0.49,2.26-1,4.66-1.49,7.17C2192.5,4255.41,2195.47,4254.92,2198.7,4254.48Z" transform="translate(-1854.46 -4161.22)"/><path class="cls-12" d="M2209,4246.66c3-.24,6-0.42,8.83-0.49,0.46-2.13.94-4.19,1.46-6-2.94,0-5.8.12-8.53,0.26C2210.17,4242.25,2209.57,4244.34,2209,4246.66Z" transform="translate(-1854.46 -4161.22)"/><path class="cls-12" d="M2201.78,4241.06c-3.39.32-6.37,0.68-8.81,1-0.48,2-1,4.23-1.52,6.63,2.51-.37,5.51-0.78,8.76-1.16C2200.76,4245.15,2201.29,4243,2201.78,4241.06Z" transform="translate(-1854.46 -4161.22)"/><path class="cls-13" d="M2201.78,4241.06c0.65-2.54,1.22-4.66,1.69-6.3a82.69,82.69,0,0,0-9.09,1.6c-0.41,1.59-.89,3.52-1.41,5.71C2195.41,4241.74,2198.39,4241.38,2201.78,4241.06Z" transform="translate(-1854.46 -4161.22)"/><path class="cls-12" d="M2197.4,4261.13q-0.58,3.15-1.15,6.56a43.84,43.84,0,0,1,9.24-1q0.35-3.38.81-6.48A70.69,70.69,0,0,0,2197.4,4261.13Z" transform="translate(-1854.46 -4161.22)"/><path class="cls-13" d="M2206.3,4260.17q-0.46,3.1-.81,6.48a34.31,34.31,0,0,1,8.86,1s0.35-3,1-7.2A62.57,62.57,0,0,0,2206.3,4260.17Z" transform="translate(-1854.46 -4161.22)"/><path class="cls-13" d="M2188.62,4263.11c-0.41,2.37-.79,4.79-1.13,7.22q1.8-.54,3.84-1.25a44.19,44.19,0,0,1,4.91-1.39q0.56-3.41,1.15-6.56A89.79,89.79,0,0,0,2188.62,4263.11Z" transform="translate(-1854.46 -4161.22)"/><path class="cls-12" d="M2206.3,4260.17a62.57,62.57,0,0,1,9,.26c0.32-2.18.71-4.7,1.17-7.31-3,0-6.06.17-9,.41C2207,4255.61,2206.64,4257.83,2206.3,4260.17Z" transform="translate(-1854.46 -4161.22)"/><path class="cls-12" d="M2180.06,4265.51l1.44-7.91-0.17,0h0s-2.47.32-3.47-1.66l-1.76,3.09s-0.5.69-1.15,1.75C2175.38,4262.78,2176.64,4266.07,2180.06,4265.51Z" transform="translate(-1854.46 -4161.22)"/><path class="cls-13" d="M2174.94,4260.83c-1.36,2.23-3.36,6.07-2.65,8.48,0.6,2,2.58,3.12,6.56,2.83l1.21-6.63C2176.64,4266.07,2175.38,4262.78,2174.94,4260.83Z" transform="translate(-1854.46 -4161.22)"/><path class="cls-14" d="M2182.89,4249.93l-1.31.19,1.31-.19,0.74-4.05-5.54,9.7,3.41,2Z" transform="translate(-1854.46 -4161.22)"/><path class="cls-12" d="M2180.31,4265.47l-0.26,0-1.21,6.63a41.32,41.32,0,0,0,8.64-1.81c0.34-2.43.73-4.85,1.13-7.22C2184.87,4264.14,2182,4265.13,2180.31,4265.47Z" transform="translate(-1854.46 -4161.22)"/><path class="cls-12" d="M2191.45,4248.7l-8.56,1.23-1.4,7.67c0.84-.2,4-0.92,8.46-1.74C2190.45,4253.36,2191,4251,2191.45,4248.7Z" transform="translate(-1854.46 -4161.22)"/><path class="cls-12" d="M2194.38,4236.35a47.94,47.94,0,0,0-6.44,2l-2.93,5.14c1.58-.33,4.83-1,8-1.39C2193.49,4239.87,2194,4237.94,2194.38,4236.35Z" transform="translate(-1854.46 -4161.22)"/><path class="cls-13" d="M2191.45,4248.7c0.53-2.4,1-4.63,1.52-6.63-3.13.42-6.38,1.06-8,1.39l-1.39,2.42-0.74,4.05Z" transform="translate(-1854.46 -4161.22)"/><path class="cls-12" d="M2210.75,4240.4c0.81-2.6,1.58-4.71,2.21-6.31a93.5,93.5,0,0,0-9.49.67c-0.47,1.64-1,3.76-1.69,6.3C2204.53,4240.8,2207.55,4240.57,2210.75,4240.4Z" transform="translate(-1854.46 -4161.22)"/><path class="cls-13" d="M2213,4234.09c-0.63,1.6-1.4,3.72-2.21,6.31,2.72-.14,5.58-0.24,8.53-0.26a30.81,30.81,0,0,1,2.09-5.72A66.58,66.58,0,0,0,2213,4234.09Z" transform="translate(-1854.46 -4161.22)"/><path class="cls-14" d="M2177.59,4255.29a3.49,3.49,0,0,0,.26.69l0.23-.4Z" transform="translate(-1854.46 -4161.22)"/><path class="cls-14" d="M2181.49,4257.6l-0.17,0Z" transform="translate(-1854.46 -4161.22)"/><path class="cls-14" d="M2181.32,4257.65h0l0.17,0-3.41-2-0.23.4C2178.85,4258,2181.32,4257.65,2181.32,4257.65Z" transform="translate(-1854.46 -4161.22)"/><path class="cls-8" d="M2147.87,4282l15.1-58.66s-0.67-1.58-1.69,0-15.11,58.21-15.11,58.21S2146.39,4283.22,2147.87,4282Z" transform="translate(-1854.46 -4161.22)"/><path class="cls-15" d="M2159,4238" transform="translate(-1854.46 -4161.22)"/><path class="cls-16" d="M2173.82,4266.15s-0.32-4,2.27-12.49" transform="translate(-1854.46 -4161.22)"/><g class="cls-17"><polygon class="cls-18" points="323.4 83.08 320.2 109.11 316.9 109.11 316.9 83.08 323.4 83.08"/><polygon class="cls-19" points="323.4 83.08 320.2 109.11 320.2 109.11 323.4 83.08 323.4 83.08"/><polygon class="cls-20" points="323.4 83.08 320.21 109.11 320.2 109.11 323.4 83.08 323.4 83.08"/><polygon class="cls-21" points="323.41 83.08 320.21 109.11 320.21 109.11 323.4 83.08 323.41 83.08"/><polygon class="cls-22" points="323.41 83.08 320.21 109.11 320.21 109.11 323.41 83.08 323.41 83.08"/><polygon class="cls-23" points="323.41 83.08 320.22 109.11 320.21 109.11 323.41 83.08 323.41 83.08"/><polygon class="cls-24" points="323.42 83.08 320.22 109.11 320.22 109.11 323.41 83.08 323.42 83.08"/><polygon class="cls-25" points="323.42 83.08 320.23 109.11 320.22 109.11 323.42 83.08 323.42 83.08"/><polygon class="cls-26" points="323.43 83.08 320.23 109.11 320.23 109.11 323.42 83.08 323.43 83.08"/><polygon class="cls-27" points="323.43 83.08 320.23 109.11 320.23 109.11 323.43 83.08 323.43 83.08"/><polygon class="cls-28" points="323.43 83.08 320.24 109.11 320.23 109.11 323.43 83.08 323.43 83.08"/><polygon class="cls-29" points="323.44 83.08 320.24 109.11 320.24 109.11 323.43 83.08 323.44 83.08"/><polygon class="cls-30" points="323.44 83.08 320.24 109.11 320.24 109.11 323.44 83.08 323.44 83.08"/><polygon class="cls-31" points="323.44 83.08 320.25 109.11 320.24 109.11 323.44 83.08 323.44 83.08"/><polygon class="cls-32" points="323.45 83.08 320.25 109.11 320.25 109.11 323.44 83.08 323.45 83.08"/><polygon class="cls-33" points="323.45 83.08 320.25 109.11 320.25 109.11 323.45 83.08 323.45 83.08"/><polygon class="cls-34" points="323.45 83.08 320.26 109.11 320.25 109.11 323.45 83.08 323.45 83.08"/><polygon class="cls-35" points="323.46 83.08 320.26 109.11 320.26 109.11 323.45 83.08 323.46 83.08"/><polygon class="cls-36" points="323.46 83.08 320.27 109.11 320.26 109.11 323.46 83.08 323.46 83.08"/><polygon class="cls-37" points="323.46 83.08 320.27 109.11 320.27 109.11 323.46 83.08 323.46 83.08"/><polygon class="cls-38" points="323.47 83.08 320.27 109.11 320.27 109.11 323.46 83.08 323.47 83.08"/><polygon class="cls-39" points="323.47 83.08 320.28 109.11 320.27 109.11 323.47 83.08 323.47 83.08"/><polygon class="cls-40" points="323.48 83.08 320.28 109.11 320.28 109.11 323.47 83.08 323.48 83.08"/><polygon class="cls-40" points="323.48 83.08 320.28 109.11 320.28 109.11 323.48 83.08 323.48 83.08"/><polygon class="cls-41" points="323.48 83.08 320.29 109.11 320.28 109.11 323.48 83.08 323.48 83.08"/><polygon class="cls-42" points="323.49 83.08 320.29 109.11 320.29 109.11 323.48 83.08 323.49 83.08"/><polygon class="cls-43" points="323.49 83.08 320.3 109.11 320.29 109.11 323.49 83.08 323.49 83.08"/><polygon class="cls-44" points="323.5 83.08 320.3 109.11 320.3 109.11 323.49 83.08 323.5 83.08"/><polygon class="cls-45" points="323.5 83.08 320.3 109.11 320.3 109.11 323.5 83.08 323.5 83.08"/><polygon class="cls-46" points="323.5 83.08 320.31 109.11 320.3 109.11 323.5 83.08 323.5 83.08"/><polygon class="cls-46" points="323.51 83.08 320.31 109.11 320.31 109.11 323.5 83.08 323.51 83.08"/><polygon class="cls-47" points="323.51 83.08 320.31 109.11 320.31 109.11 323.51 83.08 323.51 83.08"/><polygon class="cls-48" points="323.52 83.08 320.32 109.11 320.32 109.11 323.51 83.08 323.52 83.08"/><polygon class="cls-49" points="323.52 83.08 320.32 109.11 320.32 109.11 323.52 83.08 323.52 83.08"/><polygon class="cls-50" points="323.52 83.08 320.33 109.11 320.32 109.11 323.52 83.08 323.52 83.08"/><polygon class="cls-50" points="323.53 83.08 320.33 109.11 320.33 109.11 323.52 83.08 323.53 83.08"/><polygon class="cls-51" points="323.53 83.08 320.33 109.11 320.33 109.11 323.53 83.08 323.53 83.08"/><polygon class="cls-40" points="323.54 83.08 320.34 109.11 320.34 109.11 323.54 83.08 323.54 83.08"/><polygon class="cls-52" points="323.54 83.08 320.35 109.11 320.34 109.11 323.54 83.08 323.54 83.08"/><polygon class="cls-40" points="323.55 83.08 320.35 109.11 320.35 109.11 323.54 83.08 323.55 83.08"/><polygon class="cls-52" points="323.55 83.08 320.35 109.11 320.35 109.11 323.55 83.08 323.55 83.08"/><polygon class="cls-52" points="323.55 83.08 320.36 109.11 320.35 109.11 323.55 83.08 323.55 83.08"/><polygon class="cls-53" points="323.56 83.08 320.36 109.11 320.36 109.11 323.55 83.08 323.56 83.08"/><polygon class="cls-54" points="323.56 83.08 320.36 109.11 314.32 109.81 317.51 83.78 323.56 83.08"/><polygon class="cls-53" points="323.56 83.08 320.37 109.11 320.36 109.11 323.56 83.08 323.56 83.08"/><polygon class="cls-53" points="323.57 83.08 320.37 109.11 320.37 109.11 323.56 83.08 323.57 83.08"/><polygon class="cls-53" points="323.57 83.08 320.38 109.11 320.37 109.11 323.57 83.08 323.57 83.08"/><polygon class="cls-53" points="323.57 83.08 320.38 109.11 320.38 109.11 323.57 83.08 323.57 83.08"/><polygon class="cls-53" points="323.58 83.08 320.38 109.11 320.38 109.11 323.57 83.08 323.58 83.08"/><polyline class="cls-13" points="323.58 83.08 327.49 83.08 327.49 109.11 320.38 109.11"/></g><path class="cls-1" d="M2177,4252.38a112.48,112.48,0,0,0-1.9,12.51,112.48,112.48,0,0,1,1.9-12.51l-0.15.25c-5.22,8.5-5.37,13.53-4.85,16.36a2.77,2.77,0,0,0,.29.89,6.84,6.84,0,0,1,.16-1.23,7,7,0,0,1,3.43-4.24,30.62,30.62,0,0,0,6.14-4.58S2182,4244.3,2177,4252.38Z" transform="translate(-1854.46 -4161.22)"/><path class="cls-13" d="M2185.91,4230.72c0.56-2.13,1.08-4.06,1.53-5.66a17.8,17.8,0,0,0-6.48-3.19c-0.65,1.84-1.31,3.88-2,6A18.14,18.14,0,0,1,2185.91,4230.72Z" transform="translate(-1854.46 -4161.22)"/><path class="cls-12" d="M2179,4227.92c0.66-2.16,1.33-4.2,2-6l-0.63-.17a23.4,23.4,0,0,0-8.14-.53c-0.59,1.9-1.23,4.11-1.89,6.5A29.57,29.57,0,0,1,2179,4227.92Z" transform="translate(-1854.46 -4161.22)"/><path class="cls-12" d="M2176.75,4235.59a17.37,17.37,0,0,1,7.45,1.8c0.59-2.34,1.17-4.6,1.71-6.67a18.14,18.14,0,0,0-6.93-2.8C2178.23,4230.36,2177.48,4233,2176.75,4235.59Z" transform="translate(-1854.46 -4161.22)"/><path class="cls-13" d="M2172.19,4221.17a33.56,33.56,0,0,0-9.38,2.34l-1.6,6.1a48.59,48.59,0,0,1,9.09-1.94C2171,4225.28,2171.6,4223.07,2172.19,4221.17Z" transform="translate(-1854.46 -4161.22)"/><path class="cls-13" d="M2176.75,4235.59c0.73-2.63,1.48-5.23,2.23-7.67a29.57,29.57,0,0,0-8.68-.24c-0.73,2.63-1.48,5.49-2.23,8.4A46.36,46.36,0,0,1,2176.75,4235.59Z" transform="translate(-1854.46 -4161.22)"/><path class="cls-12" d="M2170.3,4227.68a48.59,48.59,0,0,0-9.09,1.94l-2.18,8.29a84.27,84.27,0,0,1,9-1.82C2168.82,4233.17,2169.57,4230.31,2170.3,4227.68Z" transform="translate(-1854.46 -4161.22)"/><path class="cls-12" d="M2174.57,4243.77c0.69-2.68,1.42-5.45,2.18-8.18a46.36,46.36,0,0,0-8.68.49c-0.71,2.77-1.42,5.6-2.09,8.33A67.61,67.61,0,0,1,2174.57,4243.77Z" transform="translate(-1854.46 -4161.22)"/><path class="cls-12" d="M2172.71,4251.22a23.49,23.49,0,0,1,7.92.72c0.54-2.24,1.12-4.64,1.72-7.08a22.53,22.53,0,0,0-7.77-1.09C2173.9,4246.39,2173.27,4248.92,2172.71,4251.22Z" transform="translate(-1854.46 -4161.22)"/><path class="cls-13" d="M2166,4244.41c-0.67,2.74-1.31,5.39-1.88,7.8a72,72,0,0,1,8.61-1c0.56-2.3,1.19-4.83,1.86-7.45A67.61,67.61,0,0,0,2166,4244.41Z" transform="translate(-1854.46 -4161.22)"/><path class="cls-13" d="M2174.57,4243.77a22.53,22.53,0,0,1,7.77,1.09c0.61-2.5,1.24-5,1.85-7.48a17.37,17.37,0,0,0-7.45-1.8C2176,4238.32,2175.26,4241.1,2174.57,4243.77Z" transform="translate(-1854.46 -4161.22)"/><path class="cls-12" d="M2166,4244.41c-3.44.45-6.67,1.06-9.07,1.57l-2.15,8.18c2.51-.62,5.83-1.37,9.34-2C2164.67,4249.79,2165.31,4247.15,2166,4244.41Z" transform="translate(-1854.46 -4161.22)"/><path class="cls-12" d="M2184.2,4237.39c-0.61,2.45-1.24,5-1.85,7.48a5.62,5.62,0,0,1,3.37,2.84c0.58-2.32,1.16-4.76,1.71-7.11A7.78,7.78,0,0,0,2184.2,4237.39Z" transform="translate(-1854.46 -4161.22)"/><path class="cls-13" d="M2182.35,4244.87c-0.6,2.44-1.18,4.84-1.72,7.08a5.59,5.59,0,0,1,3.32,2.38c0.56-1.92,1.17-4.2,1.77-6.61A5.62,5.62,0,0,0,2182.35,4244.87Z" transform="translate(-1854.46 -4161.22)"/><path class="cls-13" d="M2185.91,4230.72c-0.54,2.07-1.12,4.33-1.71,6.67a7.78,7.78,0,0,1,3.22,3.21c0.59-2.53,1.14-5,1.61-7A15.94,15.94,0,0,0,2185.91,4230.72Z" transform="translate(-1854.46 -4161.22)"/><path class="cls-12" d="M2187.44,4225.06c-0.45,1.6-1,3.52-1.53,5.66a15.94,15.94,0,0,1,3.13,2.83c0.45-2,.82-3.64,1.09-4.75C2190.16,4228.64,2189.68,4226.9,2187.44,4225.06Z" transform="translate(-1854.46 -4161.22)"/><path class="cls-13" d="M2172.71,4251.22c-0.72,3-1.34,5.57-1.79,7.54a60.32,60.32,0,0,1,7.92.67c0.49-2.08,1.11-4.66,1.79-7.48A23.49,23.49,0,0,0,2172.71,4251.22Z" transform="translate(-1854.46 -4161.22)"/><path class="cls-12" d="M2164.1,4252.2c-0.67,2.82-1.25,5.3-1.7,7.23a42.5,42.5,0,0,1,8.52-.67c0.46-2,1.07-4.57,1.79-7.54A72,72,0,0,0,2164.1,4252.2Z" transform="translate(-1854.46 -4161.22)"/><path class="cls-12" d="M2180.63,4251.95c-0.68,2.82-1.29,5.4-1.79,7.48,1,0.15,1.89.31,2.65,0.45,0.55,0.16,1.44-2.12,2.45-5.56A5.59,5.59,0,0,0,2180.63,4251.95Z" transform="translate(-1854.46 -4161.22)"/><path class="cls-13" d="M2154.76,4254.16l-2.51,9.54a23.82,23.82,0,0,1,10.15-4.26c0.45-1.93,1-4.42,1.7-7.23C2160.59,4252.79,2157.28,4253.54,2154.76,4254.16Z" transform="translate(-1854.46 -4161.22)"/><path class="cls-13" d="M2168.07,4236.08a84.27,84.27,0,0,0-9,1.82l-2.12,8.08c2.4-.51,5.63-1.12,9.07-1.57C2166.65,4241.68,2167.36,4238.85,2168.07,4236.08Z" transform="translate(-1854.46 -4161.22)"/><path class="cls-8" d="M2098,4321.25a0.77,0.77,0,0,0-1.08,0l-27.37,27.22a2.2,2.2,0,0,0-2.38,0l-5.41-5.56v-0.06a2.21,2.21,0,1,0-4.37-.19L2044.9,4350a2.2,2.2,0,0,0-2.72-.4l-5.72-5.61a2.21,2.21,0,1,0-4.22-1.24c0,0.07,0,.13,0,0.2l-23.21,7.76a2.24,2.24,0,1,0,.5,1.45l23.09-7.72a2.2,2.2,0,0,0,2.83.69l5.77,5.66a2.21,2.21,0,1,0,4.29.65l12.58-7.47a2.2,2.2,0,0,0,2.8.18l5.33,5.48a2.21,2.21,0,1,0,4.24,0l27.53-27.39A0.77,0.77,0,0,0,2098,4321.25Z" transform="translate(-1854.46 -4161.22)"/><polygon class="cls-8" points="235.81 160.9 245.26 158.23 242.85 167.75 235.81 160.9"/><path class="cls-8" d="M1986,4428.11a30.22,30.22,0,0,0-6.54,1c-3.64,1.52-1.81,13.55-.9,15.11,1.73,3,5.83,3.33,9.28,3.32l30.48-.08c1.43,0,3.43,7.37,3.43,7.37s2.72-7.4,3.67-7.47c4.18-.28,8.45-1.36,10.2-5a11.86,11.86,0,0,0,.67-6.34c-0.33-3.35-1.39-7.22-4.54-8.42C2029.12,4426.62,2001,4427.82,1986,4428.11Z" transform="translate(-1854.46 -4161.22)"/><path class="cls-7" d="M2170.65,4456c-1.45.78-6.22,1.22-7-.23s2.21-5.19,3.65-6,3.51,0.25,4.29,1.69S2172.09,4455.17,2170.65,4456Z" transform="translate(-1854.46 -4161.22)"/><path class="cls-7" d="M2151.79,4466.26c1.44-.78,4.55-4.59,3.77-6s-5.67-.94-7.12-0.16-1.72,3.07-.94,4.51S2150.35,4467,2151.79,4466.26Z" transform="translate(-1854.46 -4161.22)"/><path class="cls-7" d="M2163.32,4447.37c0,1.64-2.06,6-3.7,5.95s-3.39-4.51-3.35-6.15,2-2.92,3.61-2.87S2163.37,4445.73,2163.32,4447.37Z" transform="translate(-1854.46 -4161.22)"/><path class="cls-7" d="M2162.82,4468.85c0-1.64-1.7-6.24-3.34-6.29s-3.65,4.44-3.7,6.08,1.79,3,3.44,3.07S2162.77,4470.49,2162.82,4468.85Z" transform="translate(-1854.46 -4161.22)"/><path class="cls-7" d="M2152.22,4449.42c1.4,0.86,4.16,4.78,3.3,6.18s-5.6.68-7-.18-1.54-3.16-.68-4.56S2150.83,4448.56,2152.22,4449.42Z" transform="translate(-1854.46 -4161.22)"/><path class="cls-7" d="M2170.58,4460.59c-1.4-.86-6.26-1.65-7.12-0.25s2,5.39,3.42,6.25,3.52,0,4.38-1.44S2172,4461.46,2170.58,4460.59Z" transform="translate(-1854.46 -4161.22)"/><circle class="cls-7" cx="2159.55" cy="4458.01" r="3.39" transform="translate(-3711.49 -2602.28) rotate(-28.33)"/><path class="cls-4" d="M2018.85,4332.16h30.78c0-9.86-4-18.82-5.08-20.48-1.67-2.49-3.5-4.7-3.5-4.7l1.6-4a6.34,6.34,0,0,0,5.5-2.2c0.88-.82.54-4.37,0.92-5.31,0.69-1.72,3-1.36,2.46-3.18s-3.37-3.81-3.46-8c-0.1-4.7-7.09-9.14-13.56-9.14-7.69,0-13.85,6.6-11.73,16.34,0.9,4.13,4.09,6.42,6.14,10.9v3a24.72,24.72,0,0,0-5.56,4.42c-2.25,2.7-5.44,8.51-4.8,18.93C2018.64,4330,2018.74,4331.14,2018.85,4332.16Z" transform="translate(-1854.46 -4161.22)"/><line class="cls-55" x1="180.52" y1="113.7" x2="180.52" y2="115.08"/><line class="cls-56" x1="180.52" y1="120.6" x2="180.52" y2="167.48"/><line class="cls-55" x1="180.52" y1="170.24" x2="180.52" y2="171.62"/><path class="cls-5" d="M2076.12,4464.54h-39.6a1.51,1.51,0,0,0,0,3h39.6A1.51,1.51,0,0,0,2076.12,4464.54Z" transform="translate(-1854.46 -4161.22)"/><rect class="cls-5" x="186.42" y="287.93" width="7.68" height="13.01"/><rect class="cls-5" x="197.89" y="293.07" width="7.68" height="7.86"/><rect class="cls-5" x="209.32" y="281.78" width="7.68" height="19.15"/><path class="cls-5" d="M2064.45,4427.78l2.93,2.59L2055,4444.63l-9.42-7.62h0l-1.56,1.82s0,0.05.06,0.07l11.23,9.07,14-16,3.38,2.8,0.63-9.17Z" transform="translate(-1854.46 -4161.22)"/><path class="cls-7" d="M2094.17,4443c-4.28,0-8.78,4.91-8.78,9.71,0,1.94.79,3.84,3.28,3.84a7.94,7.94,0,0,0,6.08-4c0,0.17-.1.86-0.1,1.07,0,1.21.45,2.87,1.9,2.87a7.76,7.76,0,0,0,4.6-2.21,13.08,13.08,0,0,1-11.33,6.67c-5.25,0-8.57-3.28-8.57-8.88a13.13,13.13,0,0,1,13-13.23c5.43,0,8.6,3.42,8.6,8.78a14.12,14.12,0,0,1-.86,4.84,5.75,5.75,0,0,1-4.25,2.25c-1.24,0-1.28-1.21-1.28-1.83,0-1.9,1-4.22,1.9-8A5.75,5.75,0,0,0,2094.17,4443Zm1.9,2.87c-0.66,3.7-4.08,8.4-6.39,8.4-1.07,0-1.52-1-1.52-2.21,0-3.9,3.8-6.95,6-6.95C2094.76,4445.11,2095.8,4445.11,2096.07,4445.87Z" transform="translate(-1854.46 -4161.22)"/><path class="cls-4" d="M2073.41,4326.1l-1.32,7h-1.94a1.17,1.17,0,0,1-.89-0.41,1.44,1.44,0,0,1-.38-1,1.42,1.42,0,0,1,0-.16c0-.05,0-0.11,0-0.16l1-5.25h-3.52l-1,5.46a1.71,1.71,0,0,1-.7,1.18,2.17,2.17,0,0,1-1.22.36h-1.87l1.3-7h-2a1.2,1.2,0,0,1-.84-0.27,1.15,1.15,0,0,1-.29-0.88,3.38,3.38,0,0,1,.05-0.55l0.22-1.36h3.26l0.89-4.74h-3.67l0.33-1.77a1.51,1.51,0,0,1,.53-1,2.22,2.22,0,0,1,1.34-.32h1.9l1.06-5.53a1.7,1.7,0,0,1,.63-1.06,1.88,1.88,0,0,1,1.17-.38h1.92l-1.3,7h3.5l1.32-7h1.89a1.4,1.4,0,0,1,1,.34,1.13,1.13,0,0,1,.38.88,1.43,1.43,0,0,1,0,.26l-1.06,5.49h3.48l-0.33,1.77a1.5,1.5,0,0,1-.54,1,2.22,2.22,0,0,1-1.33.32h-1.72l-0.88,4.74h2.44a1.17,1.17,0,0,1,.83.27,1.2,1.2,0,0,1,.28.9,3.38,3.38,0,0,1-.05.55l-0.21,1.34h-3.72Zm-6.57-3.05h3.52l0.88-4.74h-3.5Z" transform="translate(-1854.46 -4161.22)"/><path class="cls-2" d="M2009.37,4298.91l-3.24-.07,2.39-2.28a1.71,1.71,0,0,0,.41-1.88,1.65,1.65,0,0,0-.35-0.55,1.72,1.72,0,0,0-2.43-.06l-2.33,2.22,0.19-7.07a1.72,1.72,0,1,0-3.43-.09l-0.28,10.52-1.81,1.73-0.46.44,0-.84,0.16-6.23a1.71,1.71,0,1,0-3.43-.09l-0.09,3.56-0.16,5.94a32.35,32.35,0,1,0,.5,47.63l0.21-.19,0.2-.2a32.3,32.3,0,0,0,3.42-42.48l-4.17,4a26.7,26.7,0,0,1,2,27.35,26.38,26.38,0,0,1-3,4.61l-0.3.37-0.18.22a26.7,26.7,0,0,1-4,3.83l-0.23.17-0.39.28a26.38,26.38,0,0,1-4.75,2.76,26.62,26.62,0,1,1,7.09-43.89l-5.24,5a19.36,19.36,0,1,0,3.72,4.35l-2.56,2.44a15.95,15.95,0,1,1-3.65-4.42l-6.57,6.27a7,7,0,1,0,3.22,4.82l-1.66,1.58-0.88.84a1.71,1.71,0,0,1-2.77-.6,1.71,1.71,0,0,0,.37-0.26l1.46-1.39,1.34-1.28,1.3-1.24,6.56-6.26,2.49-2.37,5.24-5,3.52-3.35,1.14,0,2.1,0,3.83,0.08,3.56,0.08a1.71,1.71,0,1,0,.07-3.43l-3.95-.08-2.28,0-1,0,0.52-.5,1.75-1.67,3.24,0.07,7.4,0.15a1.72,1.72,0,1,0,.07-3.43Z" transform="translate(-1854.46 -4161.22)"/><path class="cls-2" d="M2009.37,4298.91l-3.24-.07,2.39-2.28a1.71,1.71,0,0,0,.41-1.88,1.65,1.65,0,0,0-.35-0.55,1.72,1.72,0,0,0-2.43-.06l-2.33,2.22,0.19-7.07a1.72,1.72,0,1,0-3.43-.09l-0.28,10.52-1.81,1.73-0.46.44,0-.84,0.16-6.23a1.71,1.71,0,1,0-3.43-.09l-0.09,3.56-0.16,5.94a32.35,32.35,0,1,0,.5,47.63l0.21-.19,0.2-.2a32.3,32.3,0,0,0,3.42-42.48l-4.17,4a26.7,26.7,0,0,1,2,27.35,26.38,26.38,0,0,1-3,4.61l-0.3.37-0.18.22a26.7,26.7,0,0,1-4,3.83l-0.23.17-0.39.28a26.38,26.38,0,0,1-4.75,2.76,26.62,26.62,0,1,1,7.09-43.89l-5.24,5a19.36,19.36,0,1,0,3.72,4.35l-2.56,2.44a15.95,15.95,0,1,1-3.65-4.42l-6.57,6.27a7,7,0,1,0,3.22,4.82l-1.66,1.58-0.88.84a1.71,1.71,0,0,1-2.77-.6,1.71,1.71,0,0,0,.37-0.26l1.46-1.39,1.34-1.28,1.3-1.24,6.56-6.26,2.49-2.37,5.24-5,3.52-3.35,1.14,0,2.1,0,3.83,0.08,3.56,0.08a1.71,1.71,0,1,0,.07-3.43l-3.95-.08-2.28,0-1,0,0.52-.5,1.75-1.67,3.24,0.07,7.4,0.15a1.72,1.72,0,1,0,.07-3.43Z" transform="translate(-1854.46 -4161.22)"/><path class="cls-57" d="M2254.74,4390.83c1.25,2.61,3,9.52.16,11a2.37,2.37,0,0,1-2.42-.44c-1.47-1-2.16-1.73-3.87-1.14a3.78,3.78,0,0,0-2.22,4.48,3.39,3.39,0,0,0,3.05,2.78,2.31,2.31,0,0,0,2.75-.65c1-1,2.41-3.42,4.15-1.89a1.21,1.21,0,0,1,.4.88l2.05,9.46c0.12,0.55.21,0.61,0.76,0.51l7.69-1.38a2.56,2.56,0,0,0,.84-0.21,1.85,1.85,0,0,0,.8-1.87,2.53,2.53,0,0,0-.23-1.26c-0.34-.51-1.22-0.7-1.74-1.23-1.12-1.15-.82-3.17,0-4.62,1.22-2.26,4.45-2.18,6-.11a3.43,3.43,0,0,1,.7,2.11c-0.16,2-2.85,5.24-.52,6,1.29,0.42,8.42-.59,10.16-1.43,0.55-.26.59-0.36,0.41-0.94-1.24-3.93-2.63-7.91-1.16-11,0.49-1,1.23-1.78,2.43-1.39,0.58,0.19,1.07.7,1.71,1a3.46,3.46,0,0,0,4.73-3,4.11,4.11,0,0,0-2.32-4,2.41,2.41,0,0,0-1.77-.11c-1.11.52-2.35,2.27-3.62,2.88a3.19,3.19,0,0,1-4-1.16c-0.29-.61-0.6-5.2-0.83-7.81-0.05-.61-0.13-0.68-0.73-0.75-2.07-.23-7.28.4-8.71,2.4-0.82,1.14.55,2.12,1.32,4.23s0.07,4-2,4.66a4.06,4.06,0,0,1-3.13-.39,4.38,4.38,0,0,1-1.39-2c-0.09-3.22,2.7-5.22-.2-6.4a1.35,1.35,0,0,0-1.14,0l-7.63,2C2254.51,4390.2,2254.48,4390.28,2254.74,4390.83Z" transform="translate(-1854.46 -4161.22)"/><path class="cls-7" d="M2197.89,4320.49h-2.29v-4.8a18.23,18.23,0,0,1-15.91-4.11H2175a14.24,14.24,0,0,1-15,8.34v4.51h-0.86l-3-2v7l3-2.07H2160v7.46a1.28,1.28,0,0,0,1.27,1.27h33.09a1.28,1.28,0,0,0,1.27-1.27v-6.27h2.29l6.28,3.68,0-15.51Z" transform="translate(-1854.46 -4161.22)"/><path class="cls-7" d="M2168.24,4295a12.52,12.52,0,1,0,4.58,17.11A12.52,12.52,0,0,0,2168.24,4295Zm-14.85,10.17a2.6,2.6,0,1,1,3.55,1A2.6,2.6,0,0,1,2153.39,4305.13Zm6.19,8.42a2.6,2.6,0,1,1,1-3.55A2.6,2.6,0,0,1,2159.58,4313.55Zm0-13.25a2.6,2.6,0,1,1,3.55,1A2.6,2.6,0,0,1,2159.63,4300.29Zm7.86,13a2.6,2.6,0,1,1,1-3.55A2.6,2.6,0,0,1,2167.49,4313.33Zm2.25-7.68a2.6,2.6,0,1,1,1-3.55A2.6,2.6,0,0,1,2169.74,4305.65Z" transform="translate(-1854.46 -4161.22)"/><path class="cls-7" d="M2200,4283.51a16.56,16.56,0,1,0,6.06,22.63A16.56,16.56,0,0,0,2200,4283.51ZM2180.36,4297a3.44,3.44,0,1,1,4.69,1.26A3.44,3.44,0,0,1,2180.36,4297Zm8.19,11.14a3.44,3.44,0,1,1,1.26-4.69A3.44,3.44,0,0,1,2188.55,4308.1Zm0.06-17.53a3.44,3.44,0,1,1,4.69,1.26A3.44,3.44,0,0,1,2188.61,4290.57Zm10.4,17.24a3.44,3.44,0,1,1,1.26-4.69A3.44,3.44,0,0,1,2199,4307.81Zm3-10.15a3.44,3.44,0,1,1,1.26-4.69A3.44,3.44,0,0,1,2202,4297.65Z" transform="translate(-1854.46 -4161.22)"/></svg>