<svg id="Interactive_elements" data-name="Interactive elements" xmlns="http://www.w3.org/2000/svg" viewBox="0 0 313.85 150.56"><defs><style>.cls-1{fill:#e8f3fc;}.cls-2{fill:#2e8bbd;}.cls-3{fill:#fe961c;}</style></defs><title>button_blog</title><path class="cls-1" d="M2661.88,6095.77H2377.06c-8,0-14.52,6.52-14.52,12.78v125c0,6.26,6.53,12.78,14.52,12.78h284.82c8,0,14.52-6.52,14.52-12.78v-125C2676.39,6102.29,2669.86,6095.77,2661.88,6095.77Z" transform="translate(-2362.54 -6095.77)"/><path class="cls-2" d="M2457.9,6199.64l0.31-2.66a9,9,0,0,0,5.23,1.68c2.06,0,4-.7,4-2.59s-1.92-2.62-4.34-3.38c-2.78-.89-5.47-1.7-5.47-4.58,0-2.09,1.44-4.85,6-4.85a12.4,12.4,0,0,1,5.28,1.15l-0.24,2.42a10.89,10.89,0,0,0-4.82-1.51c-1.73,0-3.77.72-3.77,2.47,0,1.56,1.61,2.18,3.63,2.81,3,0.91,6.19,1.8,6.19,5.45,0,1.78-.74,4.68-6.55,4.68A12.54,12.54,0,0,1,2457.9,6199.64Z" transform="translate(-2362.54 -6095.77)"/><path class="cls-2" d="M2479.74,6200.38l-0.24-1.3a3.64,3.64,0,0,1-3.26,1.54c-2.76,0-4.34-1.63-4.34-5.16v-6.84H2474v6.24c0,2.5.79,3.84,2.74,3.84a3.07,3.07,0,0,0,2.71-1.34v-8.74h2.16v11.76h-1.92Z" transform="translate(-2362.54 -6095.77)"/><path class="cls-2" d="M2486.72,6198.9l-0.24,1.49h-1.92v-18h2.16v7.51a4.71,4.71,0,0,1,3.65-1.51c3.29,0,5.3,2.9,5.3,6.12,0,3.43-2.33,6.12-5.33,6.12A5,5,0,0,1,2486.72,6198.9Zm-0.12-4.39c0,3,1.78,4.2,3.5,4.2,2.06,0,3.36-1.9,3.36-4.2s-1.3-4.2-3.36-4.2C2488.38,6190.3,2486.6,6191.67,2486.6,6194.5Z" transform="translate(-2362.54 -6095.77)"/><path class="cls-2" d="M2497.21,6199.59l0.26-2.09a5.85,5.85,0,0,0,3.67,1.2c1.51,0,2.35-.53,2.35-1.46,0-1.22-1.39-1.68-2.35-1.94-1.61-.43-3.7-1-3.7-3.38,0-1.8,1.2-3.53,4.42-3.53a6.51,6.51,0,0,1,3.19.77l-0.26,2a4.25,4.25,0,0,0-2.88-1c-1.34,0-2.28.48-2.28,1.58s0.89,1.39,2.74,1.94c1.15,0.34,3.36,1.06,3.36,3.5,0,1.56-.89,3.5-4.49,3.5A7.35,7.35,0,0,1,2497.21,6199.59Z" transform="translate(-2362.54 -6095.77)"/><path class="cls-2" d="M2507.17,6194.48c0-3.43,1.92-6.1,5.83-6.1a7.61,7.61,0,0,1,3.62.7l-0.34,1.94a6.87,6.87,0,0,0-3-.72c-2.62,0-3.86,1.56-3.86,4.18s1.25,4.25,3.86,4.25a7,7,0,0,0,3.07-.72l0.29,1.73a6,6,0,0,1-3.58.89C2509.11,6200.62,2507.17,6197.77,2507.17,6194.48Z" transform="translate(-2362.54 -6095.77)"/><path class="cls-2" d="M2524.47,6190.57h-0.74a3.58,3.58,0,0,0-2.69,1.51v8.3h-2.3v-11.76h1.78l0.26,1.94c1.42-1.61,2.54-2.38,4-2.38H2525Z" transform="translate(-2362.54 -6095.77)"/><path class="cls-2" d="M2526.44,6186v-2.4h2.16v2.4h-2.16Zm0,14.4v-11.76h2.16v11.76h-2.16Z" transform="translate(-2362.54 -6095.77)"/><path class="cls-2" d="M2533.67,6198.9l-0.24,1.49h-1.92v-18h2.16v7.51a4.71,4.71,0,0,1,3.65-1.51c3.29,0,5.3,2.9,5.3,6.12,0,3.43-2.33,6.12-5.33,6.12A5,5,0,0,1,2533.67,6198.9Zm-0.12-4.39c0,3,1.78,4.2,3.5,4.2,2.06,0,3.36-1.9,3.36-4.2s-1.3-4.2-3.36-4.2C2535.32,6190.3,2533.54,6191.67,2533.54,6194.5Z" transform="translate(-2362.54 -6095.77)"/><path class="cls-2" d="M2546.34,6194.5c0.31,3.26,2.18,4.2,4.42,4.2a8.47,8.47,0,0,0,3.38-.7l0.29,1.7a9.4,9.4,0,0,1-3.94.91,5.94,5.94,0,0,1-6.36-6.22c0-3.29,2.11-6,5.76-6a4.7,4.7,0,0,1,5.06,5,6.73,6.73,0,0,1-.1,1.15h-8.52Zm0.19-1.49h6.19c0-1.66-.91-2.71-2.88-2.71A3.12,3.12,0,0,0,2546.53,6193Z" transform="translate(-2362.54 -6095.77)"/><path class="cls-2" d="M2568.54,6200.62h-1.94a2.72,2.72,0,0,1-3.07-2.81v-7.51h-2l0.19-1.68h1.82v-2.9l2.16-.22v3.12h3.1v1.68h-3.1v6.19c0,2.26.14,2.4,2.47,2.4h0.55Z" transform="translate(-2362.54 -6095.77)"/><path class="cls-2" d="M2569.83,6194.5c0-3.41,2.14-6.12,5.83-6.12s5.83,2.71,5.83,6.12-2.16,6.12-5.83,6.12S2569.83,6197.91,2569.83,6194.5Zm2.21,0c0,2.64,1.3,4.2,3.62,4.2s3.62-1.56,3.62-4.2-1.3-4.2-3.62-4.2S2572,6191.86,2572,6194.5Z" transform="translate(-2362.54 -6095.77)"/><path class="cls-2" d="M2447.48,6230.62h-1.94a2.72,2.72,0,0,1-3.07-2.81v-7.51h-2l0.19-1.68h1.82v-2.9l2.16-.22v3.12h3.1v1.68h-3.1v6.19c0,2.26.14,2.4,2.47,2.4h0.55Z" transform="translate(-2362.54 -6095.77)"/><path class="cls-2" d="M2457.61,6230.38v-6.29c0-2.79-.72-3.79-2.81-3.79a3.29,3.29,0,0,0-3.07,1.54v8.54h-2.18v-18h2.18v7.51a4,4,0,0,1,3.41-1.51c3.38,0,4.63,2.33,4.63,5.71v6.29h-2.16Z" transform="translate(-2362.54 -6095.77)"/><path class="cls-2" d="M2464.07,6224.5c0.31,3.26,2.18,4.2,4.42,4.2a8.47,8.47,0,0,0,3.38-.7l0.29,1.7a9.4,9.4,0,0,1-3.94.91,5.94,5.94,0,0,1-6.36-6.22c0-3.29,2.11-6,5.76-6a4.7,4.7,0,0,1,5.06,5,6.73,6.73,0,0,1-.1,1.15h-8.52Zm0.19-1.49h6.19c0-1.66-.91-2.71-2.88-2.71A3.12,3.12,0,0,0,2464.26,6223Z" transform="translate(-2362.54 -6095.77)"/><path class="cls-2" d="M2480.72,6230.38v-16.8h6.22c4.87,0,8.35,3.1,8.35,8.4s-3.48,8.4-8.35,8.4h-6.22Zm2.28-14.74v12.67h3.94c3.84,0,5.86-2.57,5.86-6.34s-2-6.34-5.86-6.34H2483Z" transform="translate(-2362.54 -6095.77)"/><path class="cls-2" d="M2499.06,6224.5c0.31,3.26,2.18,4.2,4.42,4.2a8.47,8.47,0,0,0,3.38-.7l0.29,1.7a9.4,9.4,0,0,1-3.94.91,5.94,5.94,0,0,1-6.36-6.22c0-3.29,2.11-6,5.76-6a4.7,4.7,0,0,1,5.06,5,6.73,6.73,0,0,1-.1,1.15h-8.52Zm0.19-1.49h6.19c0-1.66-.91-2.71-2.88-2.71A3.12,3.12,0,0,0,2499.25,6223Z" transform="translate(-2362.54 -6095.77)"/><path class="cls-2" d="M2509.19,6224.48c0-3.43,1.92-6.1,5.83-6.1a7.61,7.61,0,0,1,3.62.7l-0.34,1.94a6.87,6.87,0,0,0-3-.72c-2.62,0-3.86,1.56-3.86,4.18s1.25,4.25,3.86,4.25a7,7,0,0,0,3.07-.72l0.29,1.73a6,6,0,0,1-3.58.89C2511.13,6230.62,2509.19,6227.77,2509.19,6224.48Z" transform="translate(-2362.54 -6095.77)"/><path class="cls-2" d="M2520.73,6230.38v-18h2.16v11.54l4.32-5.3h2.64L2525,6224l5,6.34h-2.64l-4.44-6v6h-2.16Z" transform="translate(-2362.54 -6095.77)"/><path class="cls-2" d="M2532.46,6224.5c0.31,3.26,2.18,4.2,4.42,4.2a8.47,8.47,0,0,0,3.38-.7l0.29,1.7a9.4,9.4,0,0,1-3.94.91,5.94,5.94,0,0,1-6.36-6.22c0-3.29,2.11-6,5.76-6a4.7,4.7,0,0,1,5.06,5,6.73,6.73,0,0,1-.1,1.15h-8.52Zm0.19-1.49h6.19c0-1.66-.91-2.71-2.88-2.71A3.12,3.12,0,0,0,2532.66,6223Z" transform="translate(-2362.54 -6095.77)"/><path class="cls-2" d="M2549,6220.57h-0.74a3.58,3.58,0,0,0-2.69,1.51v8.3h-2.3v-11.76H2545l0.26,1.94c1.42-1.61,2.54-2.38,4-2.38h0.19Z" transform="translate(-2362.54 -6095.77)"/><path class="cls-2" d="M2558.5,6228.9l-0.24,1.49h-1.92v-18h2.16v7.51a4.71,4.71,0,0,1,3.65-1.51c3.29,0,5.3,2.9,5.3,6.12,0,3.43-2.33,6.12-5.33,6.12A5,5,0,0,1,2558.5,6228.9Zm-0.12-4.39c0,3,1.78,4.2,3.5,4.2,2.06,0,3.36-1.9,3.36-4.2s-1.3-4.2-3.36-4.2C2560.16,6220.3,2558.38,6221.67,2558.38,6224.5Z" transform="translate(-2362.54 -6095.77)"/><path class="cls-2" d="M2573.41,6230.62h-0.7c-2.28,0-3-1.42-3-2.83v-15.41h2.16v14.16c0,2,.24,2.35,1.9,2.35Z" transform="translate(-2362.54 -6095.77)"/><path class="cls-2" d="M2574.54,6224.5c0-3.41,2.14-6.12,5.83-6.12s5.83,2.71,5.83,6.12-2.16,6.12-5.83,6.12S2574.54,6227.91,2574.54,6224.5Zm2.21,0c0,2.64,1.3,4.2,3.62,4.2s3.62-1.56,3.62-4.2-1.3-4.2-3.62-4.2S2576.75,6221.86,2576.75,6224.5Z" transform="translate(-2362.54 -6095.77)"/><path class="cls-2" d="M2587.59,6232.83a2.74,2.74,0,0,1,2.09-2.64,1.73,1.73,0,0,1-1.2-1.49,2.09,2.09,0,0,1,1.39-1.75,4.7,4.7,0,0,1,2.76-8.57,5.38,5.38,0,0,1,3,.86,6,6,0,0,1,2.86-.67h0.19l-0.26,1.44h-0.55a8,8,0,0,0-1.39.17,4.13,4.13,0,0,1,1.08,2.81,4.57,4.57,0,0,1-4.75,4.68,6.42,6.42,0,0,1-1.68-.22,0.93,0.93,0,0,0-.58.72c0,0.6.86,0.77,3.65,1.25,1.85,0.31,4.8,1,4.8,3.26,0,1.9-2,3.7-5.91,3.7C2589,6236.39,2587.59,6234.39,2587.59,6232.83Zm3.94-2.11a2.47,2.47,0,0,0-1.87,2.06c0,1.08,1.27,1.92,3.53,1.92s3.62-1,3.62-1.87-1-1.44-3.14-1.82Zm-1.63-7.68a2.72,2.72,0,0,0,2.81,3,2.76,2.76,0,0,0,2.78-3A2.8,2.8,0,1,0,2589.9,6223Z" transform="translate(-2362.54 -6095.77)"/><path class="cls-3" d="M2533.76,6118.07h-28.58a7.58,7.58,0,0,0-7.58,7.58v28.58a7.58,7.58,0,0,0,7.58,7.58h28.58a7.58,7.58,0,0,0,7.58-7.58v-28.58A7.58,7.58,0,0,0,2533.76,6118.07Zm-24.08,35.14a3.39,3.39,0,1,1,3.39-3.38A3.38,3.38,0,0,1,2509.68,6153.21Zm9.79,0a12.39,12.39,0,0,0-3.84-8.36,12.18,12.18,0,0,0-8.3-3.88v-4.72c8.82,0.18,16.69,8.18,16.87,17h-4.73Zm8.78-.1a20.85,20.85,0,0,0-20.83-20.83v-4.73a25.55,25.55,0,0,1,25.56,25.56h-4.73Z" transform="translate(-2362.54 -6095.77)"/></svg>