<svg id="Interactive_elements" data-name="Interactive elements" xmlns="http://www.w3.org/2000/svg" viewBox="0 0 313.85 150.56"><defs><style>.cls-1{fill:#e8f3fc;}.cls-2{fill:#2e8bbd;}.cls-3{fill:#c53a43;}</style></defs><title>button_grid</title><path class="cls-1" d="M3001,6095.77H2716.17c-8,0-14.52,6.52-14.52,12.78v125c0,6.26,6.53,12.78,14.52,12.78H3001c8,0,14.52-6.52,14.52-12.78v-125C3015.5,6102.29,3009,6095.77,3001,6095.77Z" transform="translate(-2701.65 -6095.77)"/><path class="cls-2" d="M2729.12,6200.38v-16.8h6.22c4.87,0,8.35,3.1,8.35,8.4s-3.48,8.4-8.35,8.4h-6.22Zm2.28-14.74v12.67h3.94c3.84,0,5.86-2.57,5.86-6.34s-2-6.34-5.86-6.34h-3.94Z" transform="translate(-2701.65 -6095.77)"/><path class="cls-2" d="M2745.27,6194.5c0-3.41,2.14-6.12,5.83-6.12s5.83,2.71,5.83,6.12-2.16,6.12-5.83,6.12S2745.27,6197.91,2745.27,6194.5Zm2.21,0c0,2.64,1.3,4.2,3.62,4.2s3.62-1.56,3.62-4.2-1.3-4.2-3.62-4.2S2747.48,6191.86,2747.48,6194.5Z" transform="translate(-2701.65 -6095.77)"/><path class="cls-2" d="M2771.16,6200.38h-2.42l-2.45-8.69-2.47,8.69h-2.42l-3.53-11.76h2.54l2.26,9.38,2.5-9h2.23l2.52,9,2.26-9.38h2.54Z" transform="translate(-2701.65 -6095.77)"/><path class="cls-2" d="M2784.89,6200.38v-6.48c0-2.5-.84-3.6-3.07-3.6a3.56,3.56,0,0,0-3.22,1.54v8.54h-2.16v-11.76h1.68l0.24,1.25a5.48,5.48,0,0,1,3.89-1.49c3.43,0,4.8,2.14,4.8,5.52v6.48h-2.16Z" transform="translate(-2701.65 -6095.77)"/><path class="cls-2" d="M2793.58,6200.62h-0.7c-2.28,0-3-1.42-3-2.83v-15.41H2792v14.16c0,2,.24,2.35,1.9,2.35Z" transform="translate(-2701.65 -6095.77)"/><path class="cls-2" d="M2794.71,6194.5c0-3.41,2.14-6.12,5.83-6.12s5.83,2.71,5.83,6.12-2.16,6.12-5.83,6.12S2794.71,6197.91,2794.71,6194.5Zm2.21,0c0,2.64,1.3,4.2,3.62,4.2s3.62-1.56,3.62-4.2-1.3-4.2-3.62-4.2S2796.91,6191.86,2796.91,6194.5Z" transform="translate(-2701.65 -6095.77)"/><path class="cls-2" d="M2818.13,6200.62H2818c-2.09,0-2.54-.62-3-1.73a4.65,4.65,0,0,1-3.6,1.73,3.36,3.36,0,0,1-3.62-3.41c0-3.31,4-4.15,7-4.2,0-2.23-.91-2.71-2.57-2.71a5.12,5.12,0,0,0-3.1,1.06l-0.31-1.75a6.78,6.78,0,0,1,4-1.22c3,0,4.15,1.39,4.15,5.64v2.4c0,1.68.1,2.47,1.34,2.47h0.22Zm-3.38-6.12c-3.43.12-4.82,0.84-4.82,2.59a1.63,1.63,0,0,0,1.82,1.8,3.81,3.81,0,0,0,3-1.58v-2.81Z" transform="translate(-2701.65 -6095.77)"/><path class="cls-2" d="M2828.62,6200.38l-0.24-1.49a5,5,0,0,1-3.6,1.73c-3,0-5.35-2.69-5.35-6.12,0-3.22,2.06-6.12,5.35-6.12a4.59,4.59,0,0,1,3.6,1.49v-7.49h2.16v18h-1.92Zm-7-5.88c0,2.3,1.25,4.2,3.31,4.2,1.73,0,3.67-1.18,3.67-4.13s-1.94-4.27-3.67-4.27C2822.88,6190.3,2821.63,6192.1,2821.63,6194.5Z" transform="translate(-2701.65 -6095.77)"/><path class="cls-2" d="M2848.37,6200.62h-0.17c-2.09,0-2.54-.62-3-1.73a4.65,4.65,0,0,1-3.6,1.73,3.36,3.36,0,0,1-3.62-3.41c0-3.31,4-4.15,7-4.2,0-2.23-.91-2.71-2.57-2.71a5.12,5.12,0,0,0-3.1,1.06l-0.31-1.75a6.78,6.78,0,0,1,4-1.22c3,0,4.15,1.39,4.15,5.64v2.4c0,1.68.1,2.47,1.34,2.47h0.22Zm-3.38-6.12c-3.43.12-4.82,0.84-4.82,2.59a1.63,1.63,0,0,0,1.82,1.8,3.81,3.81,0,0,0,3-1.58v-2.81Z" transform="translate(-2701.65 -6095.77)"/><path class="cls-2" d="M2856.22,6200.38v-16.8h6.22c4.87,0,8.35,3.1,8.35,8.4s-3.48,8.4-8.35,8.4h-6.22Zm2.28-14.74v12.67h3.94c3.84,0,5.86-2.57,5.86-6.34s-2-6.34-5.86-6.34h-3.94Z" transform="translate(-2701.65 -6095.77)"/><path class="cls-2" d="M2874.55,6194.5c0.31,3.26,2.18,4.2,4.42,4.2a8.47,8.47,0,0,0,3.38-.7l0.29,1.7a9.4,9.4,0,0,1-3.94.91,5.94,5.94,0,0,1-6.36-6.22c0-3.29,2.11-6,5.76-6a4.7,4.7,0,0,1,5.06,5,6.73,6.73,0,0,1-.1,1.15h-8.52Zm0.19-1.49h6.19c0-1.66-.91-2.71-2.88-2.71A3.12,3.12,0,0,0,2874.74,6193Z" transform="translate(-2701.65 -6095.77)"/><path class="cls-2" d="M2884.68,6194.48c0-3.43,1.92-6.1,5.83-6.1a7.61,7.61,0,0,1,3.62.7l-0.34,1.94a6.87,6.87,0,0,0-3-.72c-2.62,0-3.86,1.56-3.86,4.18s1.25,4.25,3.86,4.25a7,7,0,0,0,3.07-.72l0.29,1.73a6,6,0,0,1-3.58.89C2886.62,6200.62,2884.68,6197.77,2884.68,6194.48Z" transform="translate(-2701.65 -6095.77)"/><path class="cls-2" d="M2896.22,6200.38v-18h2.16v11.54l4.32-5.3h2.64l-4.85,5.42,5,6.34h-2.64l-4.44-6v6h-2.16Z" transform="translate(-2701.65 -6095.77)"/><path class="cls-2" d="M2908,6194.5c0.31,3.26,2.18,4.2,4.42,4.2a8.47,8.47,0,0,0,3.38-.7l0.29,1.7a9.4,9.4,0,0,1-3.94.91,5.94,5.94,0,0,1-6.36-6.22c0-3.29,2.11-6,5.76-6a4.7,4.7,0,0,1,5.06,5,6.73,6.73,0,0,1-.1,1.15H2908Zm0.19-1.49h6.19c0-1.66-.91-2.71-2.88-2.71A3.12,3.12,0,0,0,2908.15,6193Z" transform="translate(-2701.65 -6095.77)"/><path class="cls-2" d="M2924.5,6190.57h-0.74a3.58,3.58,0,0,0-2.69,1.51v8.3h-2.3v-11.76h1.78l0.26,1.94c1.42-1.61,2.54-2.38,4-2.38H2925Z" transform="translate(-2701.65 -6095.77)"/><path class="cls-2" d="M2931.34,6192c0-5.3,3.53-8.71,8.42-8.71a14,14,0,0,1,5,1l-0.22,2a15.44,15.44,0,0,0-4.71-.89c-4.1,0-6,3-6,6.67s2,6.67,6.38,6.67a8.24,8.24,0,0,0,2.81-.46V6194h-2.64V6192h4.92v7.49a14.32,14.32,0,0,1-5.74,1.27C2934.91,6200.72,2931.34,6197.31,2931.34,6192Z" transform="translate(-2701.65 -6095.77)"/><path class="cls-2" d="M2953.58,6190.57h-0.74a3.58,3.58,0,0,0-2.69,1.51v8.3h-2.3v-11.76h1.78l0.26,1.94c1.42-1.61,2.54-2.38,4-2.38h0.19Z" transform="translate(-2701.65 -6095.77)"/><path class="cls-2" d="M2955.55,6186v-2.4h2.16v2.4h-2.16Zm0,14.4v-11.76h2.16v11.76h-2.16Z" transform="translate(-2701.65 -6095.77)"/><path class="cls-2" d="M2969.14,6200.38l-0.24-1.49a5,5,0,0,1-3.6,1.73c-3,0-5.35-2.69-5.35-6.12,0-3.22,2.06-6.12,5.35-6.12a4.59,4.59,0,0,1,3.6,1.49v-7.49h2.16v18h-1.92Zm-7-5.88c0,2.3,1.25,4.2,3.31,4.2,1.73,0,3.67-1.18,3.67-4.13s-1.94-4.27-3.67-4.27C2963.4,6190.3,2962.15,6192.1,2962.15,6194.5Z" transform="translate(-2701.65 -6095.77)"/><path class="cls-2" d="M2979.31,6184.78h-2.4v7.51h-1.22v-7.51h-2.45v-1.2h6.22Zm4.78,5-2.21-3.91-0.79,6.46h-1.25l1.13-8.71h0.7l2.52,4.3,2.5-4.3h0.7l1.15,8.71h-1.3l-0.74-6.43-2.26,3.89h-0.14Z" transform="translate(-2701.65 -6095.77)"/><path class="cls-2" d="M2812.43,6220.3v10.08h-2.16V6220.3h-2l0.29-1.68h1.75v-3c0-1.9.94-3.26,2.74-3.26a6.66,6.66,0,0,1,2.45.31l-0.34,1.82a4.57,4.57,0,0,0-1.44-.22c-1.13,0-1.25.48-1.25,2.88v1.44h3.17v1.68h-3.17Z" transform="translate(-2701.65 -6095.77)"/><path class="cls-2" d="M2816.46,6224.5c0-3.41,2.14-6.12,5.83-6.12s5.83,2.71,5.83,6.12-2.16,6.12-5.83,6.12S2816.46,6227.91,2816.46,6224.5Zm2.21,0c0,2.64,1.3,4.2,3.62,4.2s3.62-1.56,3.62-4.2-1.3-4.2-3.62-4.2S2818.67,6221.86,2818.67,6224.5Z" transform="translate(-2701.65 -6095.77)"/><path class="cls-2" d="M2836.09,6220.57h-0.74a3.58,3.58,0,0,0-2.69,1.51v8.3h-2.3v-11.76h1.78l0.26,1.94c1.42-1.61,2.54-2.38,4-2.38h0.19Z" transform="translate(-2701.65 -6095.77)"/><path class="cls-2" d="M2853,6230.62h-0.17c-2.09,0-2.54-.62-3-1.73a4.65,4.65,0,0,1-3.6,1.73,3.36,3.36,0,0,1-3.62-3.41c0-3.31,4-4.15,7-4.2,0-2.23-.91-2.71-2.57-2.71a5.12,5.12,0,0,0-3.1,1.06l-0.31-1.75a6.78,6.78,0,0,1,4-1.22c3,0,4.15,1.39,4.15,5.64v2.4c0,1.68.1,2.47,1.34,2.47h0.22Zm-3.38-6.12c-3.43.12-4.82,0.84-4.82,2.59a1.63,1.63,0,0,0,1.82,1.8,3.81,3.81,0,0,0,3-1.58v-2.81Z" transform="translate(-2701.65 -6095.77)"/><path class="cls-2" d="M2863.43,6230.38v-6.48c0-2.5-.84-3.6-3.07-3.6a3.56,3.56,0,0,0-3.22,1.54v8.54H2855v-11.76h1.68l0.24,1.25a5.48,5.48,0,0,1,3.89-1.49c3.43,0,4.8,2.14,4.8,5.52v6.48h-2.16Z" transform="translate(-2701.65 -6095.77)"/><path class="cls-2" d="M2877.92,6230.62h-0.17c-2.09,0-2.54-.62-3-1.73a4.65,4.65,0,0,1-3.6,1.73,3.36,3.36,0,0,1-3.62-3.41c0-3.31,4-4.15,7-4.2,0-2.23-.91-2.71-2.57-2.71a5.12,5.12,0,0,0-3.1,1.06l-0.31-1.75a6.78,6.78,0,0,1,4-1.22c3,0,4.15,1.39,4.15,5.64v2.4c0,1.68.1,2.47,1.34,2.47h0.22Zm-3.38-6.12c-3.43.12-4.82,0.84-4.82,2.59a1.63,1.63,0,0,0,1.82,1.8,3.81,3.81,0,0,0,3-1.58v-2.81Z" transform="translate(-2701.65 -6095.77)"/><path class="cls-2" d="M2883.64,6230.62h-0.7c-2.28,0-3-1.42-3-2.83v-15.41h2.16v14.16c0,2,.24,2.35,1.9,2.35Z" transform="translate(-2701.65 -6095.77)"/><path class="cls-2" d="M2884.76,6224.5c0-3.41,2.14-6.12,5.83-6.12s5.83,2.71,5.83,6.12-2.16,6.12-5.83,6.12S2884.76,6227.91,2884.76,6224.5Zm2.21,0c0,2.64,1.3,4.2,3.62,4.2s3.62-1.56,3.62-4.2-1.3-4.2-3.62-4.2S2887,6221.86,2887,6224.5Z" transform="translate(-2701.65 -6095.77)"/><path class="cls-2" d="M2897.82,6232.83a2.74,2.74,0,0,1,2.09-2.64,1.73,1.73,0,0,1-1.2-1.49,2.09,2.09,0,0,1,1.39-1.75,4.7,4.7,0,0,1,2.76-8.57,5.38,5.38,0,0,1,3,.86,6,6,0,0,1,2.86-.67h0.19l-0.26,1.44h-0.55a8,8,0,0,0-1.39.17,4.13,4.13,0,0,1,1.08,2.81,4.57,4.57,0,0,1-4.75,4.68,6.42,6.42,0,0,1-1.68-.22,0.93,0.93,0,0,0-.58.72c0,0.6.86,0.77,3.65,1.25,1.85,0.31,4.8,1,4.8,3.26,0,1.9-2,3.7-5.91,3.7C2899.24,6236.39,2897.82,6234.39,2897.82,6232.83Zm3.94-2.11a2.47,2.47,0,0,0-1.87,2.06c0,1.08,1.27,1.92,3.53,1.92s3.62-1,3.62-1.87-1-1.44-3.14-1.82Zm-1.63-7.68a2.72,2.72,0,0,0,2.81,3,2.76,2.76,0,0,0,2.78-3A2.8,2.8,0,1,0,2900.12,6223Z" transform="translate(-2701.65 -6095.77)"/><path class="cls-3" d="M2858.57,6163.06a23.12,23.12,0,1,1,23.12-23.12A23.14,23.14,0,0,1,2858.57,6163.06Zm0-42.47a19.35,19.35,0,1,0,19.35,19.35A19.37,19.37,0,0,0,2858.57,6120.59Z" transform="translate(-2701.65 -6095.77)"/><path class="cls-3" d="M2860.3,6136.46v-8.84s0-.08,0-0.11h-3.36s0,0.07,0,.11v8.84l-4.68,0,6.37,8.67,6.3-8.67Z" transform="translate(-2701.65 -6095.77)"/><rect class="cls-3" x="146.86" y="52.07" width="20.12" height="3.25"/></svg>