<svg id="Interactive_elements" data-name="Interactive elements" xmlns="http://www.w3.org/2000/svg" viewBox="0 0 264.97 83.91"><defs><style>.cls-1{fill:#2e8bbd;}.cls-2{fill:#fff;}.cls-3,.cls-4{fill:none;stroke:#2e8bbd;stroke-linecap:square;stroke-miterlimit:10;stroke-width:1.75px;}.cls-4{stroke-dasharray:0.99 3.96;}</style></defs><title>posture-fill</title><path class="cls-1" d="M543.39,7161H297.83c-5.34,0-9.7,4.36-9.7,8.54v66.83c0,4.18,4.37,8.54,9.7,8.54H543.39c5.34,0,9.7-4.36,9.7-8.54v-66.83C553.09,7165.35,548.73,7161,543.39,7161Z" transform="translate(-288.13 -7160.99)"/><path class="cls-2" d="M386.66,7223.09v5.06h-2.82v-15.4h4.36c4.27,0,6.6.66,6.6,4.88,0,4.42-3.21,5.46-5.39,5.46h-2.75Zm0-8v5.35H389c2,0,2.9-.7,2.9-2.79,0-1.76-.62-2.55-3-2.55h-2.31Z" transform="translate(-288.13 -7160.99)"/><path class="cls-2" d="M396.16,7222.67a5.57,5.57,0,1,1,5.57,5.7A5.4,5.4,0,0,1,396.16,7222.67Zm2.79,0c0,2,1,3.45,2.77,3.45s2.77-1.41,2.77-3.45-1-3.45-2.77-3.45S399,7220.62,399,7222.67Z" transform="translate(-288.13 -7160.99)"/><path class="cls-2" d="M409.14,7227.56l0.24-2.33a6.39,6.39,0,0,0,3.39,1.1c1.32,0,1.67-.66,1.67-1.21,0-.92-0.95-1.23-2-1.56-1.54-.46-3.17-1-3.17-3.08,0-1.54.92-3.5,4-3.5a7.21,7.21,0,0,1,3.45.81l-0.24,2.33a4.8,4.8,0,0,0-3-1.19c-0.95,0-1.83.33-1.83,1.21,0,1.06,1.12,1.23,2.51,1.63s3,1.1,3,3.37c0,1.34-.55,3.23-4.31,3.23A7.42,7.42,0,0,1,409.14,7227.56Z" transform="translate(-288.13 -7160.99)"/><path class="cls-2" d="M425.13,7228.37h-2a2.75,2.75,0,0,1-2.95-2.88v-6.09h-1.56l0.24-2.24h1.32v-2.42l2.73-.29v2.71h2.42v2.24H423v5c0,1.67.13,1.76,1.67,1.76h0.75Z" transform="translate(-288.13 -7160.99)"/><path class="cls-2" d="M434.75,7228.15l0-.66a4.34,4.34,0,0,1-2.44.88c-3.43,0-4.67-2.2-4.67-5.3v-5.92h2.73v5.92c0,2,.64,3,2.18,3a2.56,2.56,0,0,0,2.07-.92v-8h2.73v11h-2.55Z" transform="translate(-288.13 -7160.99)"/><path class="cls-2" d="M446.14,7219.55h-1a2.25,2.25,0,0,0-2,1.1v7.5H440.4v-11H443l0.07,1.17a4.32,4.32,0,0,1,2.93-1.34h0.73Z" transform="translate(-288.13 -7160.99)"/><path class="cls-2" d="M450.46,7223.24a3.19,3.19,0,0,0,3.28,2.88,8.27,8.27,0,0,0,3.39-.9l0.13,2.31a8,8,0,0,1-3.67.84c-4,0-6-2.62-6-5.7s1.89-5.7,5.28-5.7a4.59,4.59,0,0,1,4.84,4.77,7.29,7.29,0,0,1-.18,1.5h-7.11Zm0.07-1.85H455a2,2,0,0,0-2-2.18A2.44,2.44,0,0,0,450.52,7221.39Z" transform="translate(-288.13 -7160.99)"/><path class="cls-2" d="M411.82,7203.51H431a28.48,28.48,0,0,0-3.16-12.73c-1-1.55-2.18-2.92-2.18-2.92l1-2.5A3.94,3.94,0,0,0,430,7184c0.55-.51.34-2.72,0.57-3.3,0.43-1.07,1.86-.85,1.53-2s-2.1-2.37-2.15-5c-0.06-2.92-4.41-5.68-8.43-5.68-4.78,0-8.61,4.1-7.29,10.16,0.56,2.57,2.54,4,3.82,6.77v1.85a15.37,15.37,0,0,0-3.45,2.75c-1.4,1.68-3.38,5.29-3,11.77C411.69,7202.17,411.76,7202.87,411.82,7203.51Z" transform="translate(-288.13 -7160.99)"/><line class="cls-3" x1="133.73" y1="7.83" x2="133.73" y2="8.33"/><line class="cls-4" x1="133.73" y1="12.29" x2="133.73" y2="40.03"/><line class="cls-3" x1="133.73" y1="42.01" x2="133.73" y2="42.51"/></svg>