<svg id="Interactive_elements" data-name="Interactive elements" xmlns="http://www.w3.org/2000/svg" viewBox="0 0 30.37 30.37"><defs><style>.cls-1{fill:#a7a7a7;}.cls-2{fill:#d5e8f2;}.cls-3{fill:#fff;}</style></defs><title>number4-gray</title><circle class="cls-1" cx="15.19" cy="15.19" r="15.19"/><path class="cls-2" d="M6957.33,8629.34h1.56v1.8a0.58,0.58,0,0,1-.62.59h-0.93v3.47h-2.8v-3.47h-6.08a0.87,0.87,0,0,1-.54-0.19,0.79,0.79,0,0,1-.31-0.47l-0.33-1.59,7-9.39h3.07v9.24Zm-2.8-3.94q0-.36,0-0.78t0.08-.87l-4,5.59h3.89v-3.94Z" transform="translate(-6938.27 -8612.72)"/><path class="cls-3" d="M6957.33,8629.34h1.56v1.8a0.58,0.58,0,0,1-.62.59h-0.93v3.47h-2.8v-3.47h-6.08a0.87,0.87,0,0,1-.54-0.19,0.79,0.79,0,0,1-.31-0.47l-0.33-1.59,7-9.39h3.07v9.24Zm-2.8-3.94q0-.36,0-0.78t0.08-.87l-4,5.59h3.89v-3.94Z" transform="translate(-6938.27 -8612.72)"/></svg>