<svg id="Interactive_elements" data-name="Interactive elements" xmlns="http://www.w3.org/2000/svg" viewBox="0 0 30.37 30.37"><defs><style>.cls-1{fill:#2e8bbd;}.cls-2{fill:#fff;}</style></defs><title>number1-blue</title><circle class="cls-1" cx="15.19" cy="15.19" r="15.19"/><path class="cls-2" d="M670.23,8407.32h2.9v-7.62q0-.56,0-1.17l-1.71,1.42a1.08,1.08,0,0,1-.33.19,1,1,0,0,1-.32.06,1,1,0,0,1-.48-0.12,1,1,0,0,1-.32-0.25l-1-1.35,4.71-4h2.65v12.79h2.49v2.32h-8.61v-2.32Z" transform="translate(-658.68 -8387.16)"/><path class="cls-2" d="M670.23,8407.32h2.9v-7.62q0-.56,0-1.17l-1.71,1.42a1.08,1.08,0,0,1-.33.19,1,1,0,0,1-.32.06,1,1,0,0,1-.48-0.12,1,1,0,0,1-.32-0.25l-1-1.35,4.71-4h2.65v12.79h2.49v2.32h-8.61v-2.32Z" transform="translate(-658.68 -8387.16)"/></svg>