<svg id="Interactive_elements" data-name="Interactive elements" xmlns="http://www.w3.org/2000/svg" viewBox="0 0 30.37 30.37"><defs><style>.cls-1{fill:#a7a7a7;}.cls-2{fill:#fff;}</style></defs><title>number2-gray</title><circle class="cls-1" cx="15.19" cy="15.19" r="15.19"/><path class="cls-2" d="M6992.19,8256.91a5.87,5.87,0,0,1,2,.33,4.53,4.53,0,0,1,1.53.91,3.91,3.91,0,0,1,1,1.38,4.53,4.53,0,0,1,.34,1.77,4.86,4.86,0,0,1-.23,1.53,6,6,0,0,1-.64,1.34,9.34,9.34,0,0,1-.94,1.23q-0.53.6-1.14,1.21l-3,3a10.74,10.74,0,0,1,1.13-.26,6,6,0,0,1,1-.1h2.82a1.15,1.15,0,0,1,.82.29,1,1,0,0,1,.3.75v1.87h-10.62v-1a1.89,1.89,0,0,1,.12-0.64,1.55,1.55,0,0,1,.44-0.62l4.35-4.39a14.28,14.28,0,0,0,1-1.07,6.59,6.59,0,0,0,.68-1,4.59,4.59,0,0,0,.4-1,4,4,0,0,0,.13-1,2,2,0,0,0-.43-1.38,1.67,1.67,0,0,0-1.31-.48,2,2,0,0,0-.66.1,2,2,0,0,0-.54.28,1.84,1.84,0,0,0-.41.42,2.17,2.17,0,0,0-.27.52,1.5,1.5,0,0,1-.42.67,1.06,1.06,0,0,1-.69.21h-0.22l-0.24,0-1.7-.3a5.67,5.67,0,0,1,.64-2,4.65,4.65,0,0,1,2.77-2.23A6.64,6.64,0,0,1,6992.19,8256.91Z" transform="translate(-6977.01 -8249.7)"/><path class="cls-2" d="M6992.19,8256.91a5.87,5.87,0,0,1,2,.33,4.53,4.53,0,0,1,1.53.91,3.91,3.91,0,0,1,1,1.38,4.53,4.53,0,0,1,.34,1.77,4.86,4.86,0,0,1-.23,1.53,6,6,0,0,1-.64,1.34,9.34,9.34,0,0,1-.94,1.23q-0.53.6-1.14,1.21l-3,3a10.74,10.74,0,0,1,1.13-.26,6,6,0,0,1,1-.1h2.82a1.15,1.15,0,0,1,.82.29,1,1,0,0,1,.3.75v1.87h-10.62v-1a1.89,1.89,0,0,1,.12-0.64,1.55,1.55,0,0,1,.44-0.62l4.35-4.39a14.28,14.28,0,0,0,1-1.07,6.59,6.59,0,0,0,.68-1,4.59,4.59,0,0,0,.4-1,4,4,0,0,0,.13-1,2,2,0,0,0-.43-1.38,1.67,1.67,0,0,0-1.31-.48,2,2,0,0,0-.66.1,2,2,0,0,0-.54.28,1.84,1.84,0,0,0-.41.42,2.17,2.17,0,0,0-.27.52,1.5,1.5,0,0,1-.42.67,1.06,1.06,0,0,1-.69.21h-0.22l-0.24,0-1.7-.3a5.67,5.67,0,0,1,.64-2,4.65,4.65,0,0,1,2.77-2.23A6.64,6.64,0,0,1,6992.19,8256.91Z" transform="translate(-6977.01 -8249.7)"/></svg>