<svg xmlns="http://www.w3.org/2000/svg" viewBox="0 0 336.82 41.76"><defs><style>.cls-1{fill:#ffca00;}.cls-2{fill:#fff;}</style></defs><title>Asset 2</title><g id="Layer_2" data-name="Layer 2"><g id="Interactive_elements" data-name="Interactive elements"><rect class="cls-1" width="336.82" height="41.76"/><path class="cls-2" d="M15.42,20.82c0-4.66,3.11-7.64,7.35-7.64a10.16,10.16,0,0,1,4.07.86l-.21,1.85a11.24,11.24,0,0,0-3.86-.9c-3.38,0-5.17,2.58-5.17,5.84s1.79,5.84,5.21,5.84a11.23,11.23,0,0,0,3.82-.88l.21,1.85a10.38,10.38,0,0,1-4.05.84C18.53,28.46,15.42,25.48,15.42,20.82Z"/><path class="cls-2" d="M36.61,28.17v-5.5c0-2.44-.63-3.32-2.46-3.32a2.88,2.88,0,0,0-2.69,1.34v7.47H29.56V12.42h1.91V19a3.48,3.48,0,0,1,3-1.32c3,0,4.05,2,4.05,5v5.5Z"/><path class="cls-2" d="M50.21,28.38h-.15c-1.83,0-2.23-.55-2.65-1.51a4.07,4.07,0,0,1-3.15,1.51,2.94,2.94,0,0,1-3.17-3c0-2.9,3.53-3.63,6.15-3.67,0-2-.8-2.37-2.25-2.37a4.48,4.48,0,0,0-2.71.92L42,18.74a5.93,5.93,0,0,1,3.49-1.07c2.6,0,3.63,1.22,3.63,4.93v2.1c0,1.47.08,2.16,1.18,2.16h.19Zm-3-5.35c-3,.1-4.22.73-4.22,2.27a1.42,1.42,0,0,0,1.6,1.57,3.33,3.33,0,0,0,2.62-1.39Z"/><path class="cls-2" d="M60.28,28.17V22.5c0-2.18-.73-3.15-2.69-3.15a3.11,3.11,0,0,0-2.81,1.34v7.47H52.89V17.88h1.47L54.57,19a4.79,4.79,0,0,1,3.4-1.3c3,0,4.2,1.87,4.2,4.83v5.67Z"/><path class="cls-2" d="M64.79,30.31A2.4,2.4,0,0,1,66.62,28c-.88-.42-1-1-1-1.3a1.83,1.83,0,0,1,1.22-1.53A3.92,3.92,0,0,1,65,21.81a3.94,3.94,0,0,1,4.2-4.14,4.71,4.71,0,0,1,2.63.76,5.28,5.28,0,0,1,2.5-.59h.17l-.23,1.26h-.48a7,7,0,0,0-1.22.15,3.62,3.62,0,0,1,.95,2.46,4,4,0,0,1-4.16,4.09,5.64,5.64,0,0,1-1.47-.19c-.29.17-.5.38-.5.63,0,.52.76.67,3.19,1.09,1.62.27,4.2.84,4.2,2.86,0,1.66-1.76,3.23-5.17,3.23C66,33.42,64.79,31.68,64.79,30.31Zm3.44-1.85a2.16,2.16,0,0,0-1.64,1.81c0,.94,1.11,1.68,3.09,1.68s3.17-.84,3.17-1.64-.88-1.26-2.75-1.6Zm-1.43-6.72a2.38,2.38,0,0,0,2.46,2.6,2.41,2.41,0,0,0,2.44-2.67,2.45,2.45,0,1,0-4.89.06Z"/><path class="cls-2" d="M78,23c.27,2.86,1.91,3.67,3.86,3.67a7.4,7.4,0,0,0,3-.61l.25,1.49a8.22,8.22,0,0,1-3.44.8,5.2,5.2,0,0,1-5.56-5.44,4.93,4.93,0,0,1,5-5.27A4.11,4.11,0,0,1,85.55,22a6,6,0,0,1-.08,1Zm.17-1.3H83.6a2.2,2.2,0,0,0-2.52-2.37A2.73,2.73,0,0,0,78.18,21.72Z"/><path class="cls-2" d="M94.08,27.52l.27-2.33a7.83,7.83,0,0,0,4.58,1.47c1.81,0,3.51-.61,3.51-2.27s-1.68-2.29-3.8-3c-2.44-.78-4.79-1.49-4.79-4,0-1.83,1.26-4.24,5.29-4.24a10.85,10.85,0,0,1,4.62,1l-.21,2.12A9.52,9.52,0,0,0,99.33,15c-1.51,0-3.3.63-3.3,2.16,0,1.36,1.41,1.91,3.17,2.46,2.58.8,5.42,1.57,5.42,4.77,0,1.55-.65,4.09-5.73,4.09A11,11,0,0,1,94.08,27.52Z"/><path class="cls-2" d="M108.92,23c.27,2.86,1.91,3.67,3.86,3.67a7.4,7.4,0,0,0,3-.61l.25,1.49a8.22,8.22,0,0,1-3.44.8A5.2,5.2,0,0,1,107,22.94a4.93,4.93,0,0,1,5-5.27A4.11,4.11,0,0,1,116.46,22a5.87,5.87,0,0,1-.08,1Zm.17-1.3h5.42A2.2,2.2,0,0,0,112,19.35,2.73,2.73,0,0,0,109.09,21.72Z"/><path class="cls-2" d="M124.47,28.38h-1.7a2.38,2.38,0,0,1-2.69-2.46V19.35h-1.76l.17-1.47h1.6V15.34l1.89-.19v2.73h2.71v1.47H122v5.42c0,2,.13,2.1,2.16,2.1h.48Z"/><path class="cls-2" d="M132.85,28.38h-1.7a2.38,2.38,0,0,1-2.69-2.46V19.35H126.7l.17-1.47h1.6V15.34l1.89-.19v2.73h2.71v1.47h-2.71v5.42c0,2,.13,2.1,2.16,2.1H133Z"/><path class="cls-2" d="M135.52,15.57v-2.1h1.89v2.1Zm0,12.6V17.88h1.89V28.17Z"/><path class="cls-2" d="M148.23,28.17V22.5c0-2.18-.73-3.15-2.69-3.15a3.11,3.11,0,0,0-2.81,1.34v7.47h-1.89V17.88h1.47l.21,1.09a4.79,4.79,0,0,1,3.4-1.3c3,0,4.2,1.87,4.2,4.83v5.67Z"/><path class="cls-2" d="M152.74,30.31A2.4,2.4,0,0,1,154.56,28c-.88-.42-1-1-1-1.3a1.83,1.83,0,0,1,1.22-1.53,3.92,3.92,0,0,1-1.79-3.36,3.94,3.94,0,0,1,4.2-4.14,4.71,4.71,0,0,1,2.63.76,5.28,5.28,0,0,1,2.5-.59h.17l-.23,1.26h-.48a7,7,0,0,0-1.22.15,3.62,3.62,0,0,1,.95,2.46,4,4,0,0,1-4.16,4.09,5.64,5.64,0,0,1-1.47-.19c-.29.17-.5.38-.5.63,0,.52.76.67,3.19,1.09,1.62.27,4.2.84,4.2,2.86,0,1.66-1.76,3.23-5.17,3.23C154,33.42,152.74,31.68,152.74,30.31Zm3.44-1.85a2.16,2.16,0,0,0-1.64,1.81c0,.94,1.11,1.68,3.09,1.68s3.17-.84,3.17-1.64-.88-1.26-2.75-1.6Zm-1.43-6.72a2.38,2.38,0,0,0,2.46,2.6,2.41,2.41,0,0,0,2.44-2.67,2.45,2.45,0,1,0-4.89.06Z"/><path class="cls-2" d="M164.19,27.48l.23-1.83a5.13,5.13,0,0,0,3.21,1c1.32,0,2.06-.46,2.06-1.28,0-1.07-1.22-1.47-2.06-1.7-1.41-.38-3.23-.88-3.23-3,0-1.57,1-3.09,3.86-3.09a5.68,5.68,0,0,1,2.79.67l-.23,1.72a3.72,3.72,0,0,0-2.52-.9c-1.18,0-2,.42-2,1.39s.78,1.22,2.39,1.7c1,.29,2.94.92,2.94,3.07,0,1.36-.78,3.07-3.93,3.07A6.43,6.43,0,0,1,164.19,27.48Z"/><path class="cls-2" d="M189.55,28.17l-.92-1a5.38,5.38,0,0,1-3.95,1.45c-3.51,0-4.89-1.74-4.89-3.88,0-1.62.78-3,2.65-4.28a5.61,5.61,0,0,1-1.57-3.57c0-2.2,1.87-3.51,4.09-3.51s3,1.15,3,2.65c0,2-1.76,3.59-3.44,4.64l4,4.09c.61-.76.78-3.11.82-4H191a11,11,0,0,1-1.37,5.27l1.83,2.1Zm-6.24-6.57a3.77,3.77,0,0,0-1.7,3c0,1.43.94,2.6,3.11,2.6a3.64,3.64,0,0,0,3-1.26ZM182.56,17a4.24,4.24,0,0,0,1.16,2.69c1.62-1.28,2.64-1.93,2.64-3.21a1.49,1.49,0,0,0-1.66-1.57A2,2,0,0,0,182.56,17Z"/><path class="cls-2" d="M199.76,27.52l.27-2.33a7.83,7.83,0,0,0,4.58,1.47c1.81,0,3.51-.61,3.51-2.27s-1.68-2.29-3.8-3c-2.44-.78-4.79-1.49-4.79-4,0-1.83,1.26-4.24,5.29-4.24a10.85,10.85,0,0,1,4.62,1l-.21,2.12A9.52,9.52,0,0,0,205,15c-1.51,0-3.3.63-3.3,2.16,0,1.36,1.41,1.91,3.17,2.46,2.58.8,5.42,1.57,5.42,4.77,0,1.55-.65,4.09-5.73,4.09A11,11,0,0,1,199.76,27.52Z"/><path class="cls-2" d="M218,28.38h-1.7a2.38,2.38,0,0,1-2.69-2.46V19.35h-1.76l.17-1.47h1.6V15.34l1.89-.19v2.73h2.71v1.47h-2.71v5.42c0,2,.13,2.1,2.16,2.1h.48Z"/><path class="cls-2" d="M229.31,28.38h-.15c-1.83,0-2.23-.55-2.65-1.51a4.07,4.07,0,0,1-3.15,1.51,2.94,2.94,0,0,1-3.17-3c0-2.9,3.53-3.63,6.15-3.67,0-2-.8-2.37-2.25-2.37a4.48,4.48,0,0,0-2.71.92l-.27-1.53a5.93,5.93,0,0,1,3.49-1.07c2.6,0,3.63,1.22,3.63,4.93v2.1c0,1.47.08,2.16,1.18,2.16h.19Zm-3-5.35c-3,.1-4.22.73-4.22,2.27a1.42,1.42,0,0,0,1.6,1.57,3.33,3.33,0,0,0,2.62-1.39Z"/><path class="cls-2" d="M237,19.58h-.65A3.13,3.13,0,0,0,234,20.91v7.26h-2V17.88h1.55l.23,1.7c1.24-1.41,2.23-2.08,3.49-2.08h.17Z"/><path class="cls-2" d="M245.36,28.38h-1.7A2.38,2.38,0,0,1,241,25.92V19.35h-1.76l.17-1.47H241V15.34l1.89-.19v2.73h2.71v1.47h-2.71v5.42c0,2,.13,2.1,2.16,2.1h.48Z"/><path class="cls-2" d="M253.55,20.82c0-4.66,3-7.64,7.24-7.64s7.24,3,7.24,7.64-3,7.64-7.24,7.64S253.55,25.48,253.55,20.82Zm2.18,0c0,3.25,1.7,5.84,5.06,5.84s5.06-2.58,5.06-5.84S264.15,15,260.8,15,255.74,17.57,255.74,20.82Z"/><path class="cls-2" d="M276.17,28.17h-2.12l-3.93-10.29h2.1l2.88,8.21L278,17.88h2.12Z"/><path class="cls-2" d="M283.43,23c.27,2.86,1.91,3.67,3.86,3.67a7.4,7.4,0,0,0,3-.61l.25,1.49a8.23,8.23,0,0,1-3.44.8,5.2,5.2,0,0,1-5.56-5.44,4.93,4.93,0,0,1,5-5.27A4.11,4.11,0,0,1,291,22a5.87,5.87,0,0,1-.08,1Zm.17-1.3H289a2.2,2.2,0,0,0-2.52-2.37A2.73,2.73,0,0,0,283.6,21.72Z"/><path class="cls-2" d="M298.85,19.58h-.65a3.13,3.13,0,0,0-2.35,1.32v7.26h-2V17.88h1.55l.23,1.7c1.24-1.41,2.23-2.08,3.49-2.08h.17Z"/><polygon class="cls-2" points="311.67 29.1 322.82 20.9 311.67 12.8 311.67 29.1"/></g></g></svg>