<svg id="Layer_1" data-name="Layer 1" xmlns="http://www.w3.org/2000/svg" viewBox="0 0 96.55 41.76"><defs><style>.cls-1{fill:#ffd100;}.cls-2{fill:#fff;}</style></defs><title>NextButton_Depressed</title><rect class="cls-1" width="96.55" height="41.76"/><path class="cls-2" d="M34.14,36.32L26.41,24.71V36.32h-2V21.62h2.16l7.24,11v-11h2v14.7h-1.7Z" transform="translate(-8.14 -8.15)"/><path class="cls-2" d="M41,31.17C41.32,34,43,34.85,44.91,34.85a7.4,7.4,0,0,0,3-.61l0.25,1.49a8.23,8.23,0,0,1-3.44.8,5.2,5.2,0,0,1-5.56-5.44,4.93,4.93,0,0,1,5-5.27,4.11,4.11,0,0,1,4.43,4.35,5.92,5.92,0,0,1-.08,1H41Zm0.17-1.3h5.42a2.2,2.2,0,0,0-2.52-2.37A2.73,2.73,0,0,0,41.21,29.87Z" transform="translate(-8.14 -8.15)"/><path class="cls-2" d="M57.74,36.32l-2.6-4.05L52.5,36.32H50.38L54,31.19,50.46,26h2.12l2.58,4.07L57.53,26h2.2l-3.38,5,3.51,5.29H57.74Z" transform="translate(-8.14 -8.15)"/><path class="cls-2" d="M67.87,36.53h-1.7a2.38,2.38,0,0,1-2.69-2.46V27.5H61.72L61.88,26h1.6V23.49l1.89-.19V26h2.71V27.5H65.37v5.42c0,2,.13,2.1,2.16,2.1H68Z" transform="translate(-8.14 -8.15)"/><polygon class="cls-2" points="71.66 29.1 82.81 20.9 71.66 12.8 71.66 29.1"/></svg>