<svg id="Interactive_elements" data-name="Interactive elements" xmlns="http://www.w3.org/2000/svg" xmlns:xlink="http://www.w3.org/1999/xlink" viewBox="0 0 546.14 480.79"><defs><style>.cls-1,.cls-4,.cls-5,.cls-6,.cls-7,.cls-9{fill:none;}.cls-2{clip-path:url(#clip-path);}.cls-3{fill:#d5e8f2;}.cls-4,.cls-6{stroke:#bdbdbd;}.cls-4,.cls-5{stroke-width:0.93px;}.cls-5{stroke:#bdbcbc;}.cls-6{stroke-width:0.93px;}.cls-7,.cls-9{stroke:#a7a7a7;stroke-linecap:round;stroke-width:2.8px;}.cls-8{fill:#a7a7a7;}.cls-9{stroke-linejoin:round;}.cls-10{fill:#2e8bbd;}</style><clipPath id="clip-path" transform="translate(-8107.09 -8150.78)"><rect class="cls-1" x="8096.75" y="8142.74" width="566.83" height="489.12"/></clipPath></defs><title>cornerstones-2-pov</title><g class="cls-2"><path class="cls-3" d="M8387.45,8156.47s-7.31-12.81-14.62,0L8109,8618.76s-7.81,12.81,7.91,12.81h526.37s15.24,0,7.93-12.81Z" transform="translate(-8107.09 -8150.78)"/></g><path class="cls-4" d="M8476.79,8593v10.18a1.33,1.33,0,0,0,1.4,1.4h125.1a1.33,1.33,0,0,0,1.4-1.4v-10.27" transform="translate(-8107.09 -8150.78)"/><path class="cls-4" d="M8214.45,8492.69v10.18a1.33,1.33,0,0,0,1.4,1.4h125.1a1.33,1.33,0,0,0,1.4-1.4V8492.6" transform="translate(-8107.09 -8150.78)"/><path class="cls-4" d="M8153.77,8593v10.18a1.33,1.33,0,0,0,1.4,1.4h125.1a1.33,1.33,0,0,0,1.4-1.4v-10.27" transform="translate(-8107.09 -8150.78)"/><path class="cls-5" d="M8316.21,8238.05v10.18a1.33,1.33,0,0,0,1.4,1.4h125.1a1.33,1.33,0,0,0,1.4-1.4V8238" transform="translate(-8107.09 -8150.78)"/><path class="cls-4" d="M8414.24,8492.69v10.18a1.33,1.33,0,0,0,1.4,1.4h125.1a1.33,1.33,0,0,0,1.4-1.4V8492.6" transform="translate(-8107.09 -8150.78)"/><path class="cls-6" d="M8316.34,8373.34l0,10.25a1.36,1.36,0,0,0,1.43,1.41h124.94a1.67,1.67,0,0,0,1-.42,1.3,1.3,0,0,0,.33-1v-10.28" transform="translate(-8107.09 -8150.78)"/><path class="cls-7" d="M8304.25,8219.26s-65.68,35.43-107.78,106c-30.84,51.69-29.94,109.55-28.09,132.32" transform="translate(-8107.09 -8150.78)"/><polygon class="cls-8" points="54.68 302.74 61.14 304.73 67.06 301.45 62.4 316.77 54.68 302.74"/><path class="cls-9" d="M8464.19,8354c49.11-31.57,41.1-112-4.67-134.88" transform="translate(-8107.09 -8150.78)"/><polygon class="cls-8" points="359.1 64.6 354.28 69.33 354.34 76.1 343.09 64.7 359.1 64.6"/><circle cx="272.42" cy="250.73" r="11.79"/><path class="cls-3" d="M8376.69,8405.38h2.25v-5.92c0-.29,0-0.59,0-0.91l-1.33,1.1a0.83,0.83,0,0,1-.26.15,0.77,0.77,0,0,1-.25,0,0.75,0.75,0,0,1-.37-0.09,0.8,0.8,0,0,1-.25-0.2l-0.79-1,3.66-3.07h2.06v9.94h1.93v1.8h-6.68v-1.8Z" transform="translate(-8107.09 -8150.78)"/><path class="cls-3" d="M8376.69,8405.38h2.25v-5.92c0-.29,0-0.59,0-0.91l-1.33,1.1a0.83,0.83,0,0,1-.26.15,0.77,0.77,0,0,1-.25,0,0.75,0.75,0,0,1-.37-0.09,0.8,0.8,0,0,1-.25-0.2l-0.79-1,3.66-3.07h2.06v9.94h1.93v1.8h-6.68v-1.8Z" transform="translate(-8107.09 -8150.78)"/><circle class="cls-8" cx="198.22" cy="388.4" r="11.79"/><path class="cls-3" d="M8305.54,8533a4.53,4.53,0,0,1,1.55.25,3.47,3.47,0,0,1,1.14.66,2.81,2.81,0,0,1,.71,1,2.88,2.88,0,0,1,.24,1.16,3.86,3.86,0,0,1-.11,1,2.27,2.27,0,0,1-.33.73,2.09,2.09,0,0,1-.55.53,3.24,3.24,0,0,1-.75.36,2.61,2.61,0,0,1,1.95,2.65,3.67,3.67,0,0,1-.34,1.63,3.34,3.34,0,0,1-.91,1.15,3.88,3.88,0,0,1-1.32.69,5.32,5.32,0,0,1-1.56.23,5.59,5.59,0,0,1-1.49-.18,3.41,3.41,0,0,1-1.16-.56,3.73,3.73,0,0,1-.89-1,6.57,6.57,0,0,1-.66-1.42l1.11-.45a1.24,1.24,0,0,1,.29-0.09l0.28,0a1,1,0,0,1,.46.1,0.68,0.68,0,0,1,.31.29,2.93,2.93,0,0,0,.77,1,1.56,1.56,0,0,0,1,.3,1.75,1.75,0,0,0,.73-0.14,1.6,1.6,0,0,0,.51-0.36,1.5,1.5,0,0,0,.31-0.5,1.62,1.62,0,0,0,.11-0.57,4,4,0,0,0-.05-0.68,0.89,0.89,0,0,0-.29-0.52,1.67,1.67,0,0,0-.73-0.33,6.17,6.17,0,0,0-1.36-.12V8538a5,5,0,0,0,1.18-.11,1.81,1.81,0,0,0,.7-0.31,0.94,0.94,0,0,0,.33-0.48,2.26,2.26,0,0,0,.08-0.62,1.55,1.55,0,0,0-.33-1.07,1.29,1.29,0,0,0-1-.37,1.55,1.55,0,0,0-.52.08,1.5,1.5,0,0,0-.42.22,1.47,1.47,0,0,0-.32.32,1.72,1.72,0,0,0-.21.4,1.17,1.17,0,0,1-.33.52,0.82,0.82,0,0,1-.54.16h-0.17l-0.19,0-1.32-.23a4.4,4.4,0,0,1,.5-1.53,3.61,3.61,0,0,1,2.15-1.73A5.13,5.13,0,0,1,8305.54,8533Z" transform="translate(-8107.09 -8150.78)"/><path class="cls-3" d="M8305.54,8533a4.53,4.53,0,0,1,1.55.25,3.47,3.47,0,0,1,1.14.66,2.81,2.81,0,0,1,.71,1,2.88,2.88,0,0,1,.24,1.16,3.86,3.86,0,0,1-.11,1,2.27,2.27,0,0,1-.33.73,2.09,2.09,0,0,1-.55.53,3.24,3.24,0,0,1-.75.36,2.61,2.61,0,0,1,1.95,2.65,3.67,3.67,0,0,1-.34,1.63,3.34,3.34,0,0,1-.91,1.15,3.88,3.88,0,0,1-1.32.69,5.32,5.32,0,0,1-1.56.23,5.59,5.59,0,0,1-1.49-.18,3.41,3.41,0,0,1-1.16-.56,3.73,3.73,0,0,1-.89-1,6.57,6.57,0,0,1-.66-1.42l1.11-.45a1.24,1.24,0,0,1,.29-0.09l0.28,0a1,1,0,0,1,.46.1,0.68,0.68,0,0,1,.31.29,2.93,2.93,0,0,0,.77,1,1.56,1.56,0,0,0,1,.3,1.75,1.75,0,0,0,.73-0.14,1.6,1.6,0,0,0,.51-0.36,1.5,1.5,0,0,0,.31-0.5,1.62,1.62,0,0,0,.11-0.57,4,4,0,0,0-.05-0.68,0.89,0.89,0,0,0-.29-0.52,1.67,1.67,0,0,0-.73-0.33,6.17,6.17,0,0,0-1.36-.12V8538a5,5,0,0,0,1.18-.11,1.81,1.81,0,0,0,.7-0.31,0.94,0.94,0,0,0,.33-0.48,2.26,2.26,0,0,0,.08-0.62,1.55,1.55,0,0,0-.33-1.07,1.29,1.29,0,0,0-1-.37,1.55,1.55,0,0,0-.52.08,1.5,1.5,0,0,0-.42.22,1.47,1.47,0,0,0-.32.32,1.72,1.72,0,0,0-.21.4,1.17,1.17,0,0,1-.33.52,0.82,0.82,0,0,1-.54.16h-0.17l-0.19,0-1.32-.23a4.4,4.4,0,0,1,.5-1.53,3.61,3.61,0,0,1,2.15-1.73A5.13,5.13,0,0,1,8305.54,8533Z" transform="translate(-8107.09 -8150.78)"/><circle class="cls-8" cx="344.84" cy="388.4" r="11.79"/><path class="cls-3" d="M8454.94,8540.29h1.21v1.4a0.45,0.45,0,0,1-.48.46h-0.72v2.7h-2.17v-2.7H8448a0.67,0.67,0,0,1-.42-0.15,0.61,0.61,0,0,1-.24-0.36l-0.26-1.23,5.43-7.29h2.38v7.17Zm-2.17-3.06c0-.19,0-0.39,0-0.61s0-.44.06-0.67l-3.1,4.34h3v-3.06Z" transform="translate(-8107.09 -8150.78)"/><path class="cls-3" d="M8454.94,8540.29h1.21v1.4a0.45,0.45,0,0,1-.48.46h-0.72v2.7h-2.17v-2.7H8448a0.67,0.67,0,0,1-.42-0.15,0.61,0.61,0,0,1-.24-0.36l-0.26-1.23,5.43-7.29h2.38v7.17Zm-2.17-3.06c0-.19,0-0.39,0-0.61s0-.44.06-0.67l-3.1,4.34h3v-3.06Z" transform="translate(-8107.09 -8150.78)"/><circle class="cls-10" cx="272.42" cy="115.07" r="11.79"/><path class="cls-3" d="M8379.51,8259.65a4.53,4.53,0,0,1,1.57.25,3.49,3.49,0,0,1,1.19.7,3,3,0,0,1,.75,1.08,3.51,3.51,0,0,1,.26,1.37,3.79,3.79,0,0,1-.18,1.19,4.69,4.69,0,0,1-.5,1,7.18,7.18,0,0,1-.73,1c-0.28.31-.57,0.62-0.88,0.94l-2.29,2.35a8.78,8.78,0,0,1,.87-0.21,4.67,4.67,0,0,1,.81-0.08h2.19a0.88,0.88,0,0,1,.64.22,0.77,0.77,0,0,1,.23.58v1.45h-8.24v-0.81a1.46,1.46,0,0,1,.1-0.5,1.19,1.19,0,0,1,.34-0.48l3.38-3.41a11.08,11.08,0,0,0,.76-0.83,5.08,5.08,0,0,0,.53-0.78,3.51,3.51,0,0,0,.31-0.76,3,3,0,0,0,.11-0.81,1.57,1.57,0,0,0-.33-1.08,1.3,1.3,0,0,0-1-.37,1.54,1.54,0,0,0-.93.3,1.49,1.49,0,0,0-.32.32,1.72,1.72,0,0,0-.21.4,1.16,1.16,0,0,1-.33.52,0.82,0.82,0,0,1-.54.16h-0.17l-0.19,0-1.32-.23a4.42,4.42,0,0,1,.5-1.53,3.61,3.61,0,0,1,2.15-1.73A5.12,5.12,0,0,1,8379.51,8259.65Z" transform="translate(-8107.09 -8150.78)"/><path class="cls-3" d="M8379.51,8259.65a4.53,4.53,0,0,1,1.57.25,3.49,3.49,0,0,1,1.19.7,3,3,0,0,1,.75,1.08,3.51,3.51,0,0,1,.26,1.37,3.79,3.79,0,0,1-.18,1.19,4.69,4.69,0,0,1-.5,1,7.18,7.18,0,0,1-.73,1c-0.28.31-.57,0.62-0.88,0.94l-2.29,2.35a8.78,8.78,0,0,1,.87-0.21,4.67,4.67,0,0,1,.81-0.08h2.19a0.88,0.88,0,0,1,.64.22,0.77,0.77,0,0,1,.23.58v1.45h-8.24v-0.81a1.46,1.46,0,0,1,.1-0.5,1.19,1.19,0,0,1,.34-0.48l3.38-3.41a11.08,11.08,0,0,0,.76-0.83,5.08,5.08,0,0,0,.53-0.78,3.51,3.51,0,0,0,.31-0.76,3,3,0,0,0,.11-0.81,1.57,1.57,0,0,0-.33-1.08,1.3,1.3,0,0,0-1-.37,1.54,1.54,0,0,0-.93.3,1.49,1.49,0,0,0-.32.32,1.72,1.72,0,0,0-.21.4,1.16,1.16,0,0,1-.33.52,0.82,0.82,0,0,1-.54.16h-0.17l-0.19,0-1.32-.23a4.42,4.42,0,0,1,.5-1.53,3.61,3.61,0,0,1,2.15-1.73A5.12,5.12,0,0,1,8379.51,8259.65Z" transform="translate(-8107.09 -8150.78)"/><path d="M8367.15,8235.3v3.89h-1.59v-11.11h3.55c2.06,0,3.87.48,3.87,3.46s-2,3.76-3.43,3.76h-2.41Zm0-5.87v4.52h2.13c1.54,0,2.14-.86,2.14-2.35s-0.63-2.17-2.59-2.17h-1.68Z" transform="translate(-8107.09 -8150.78)"/><path d="M8374.38,8233.63c0-3.52,2.3-5.78,5.47-5.78s5.47,2.25,5.47,5.78-2.3,5.78-5.47,5.78S8374.38,8237.15,8374.38,8233.63Zm1.65,0c0,2.46,1.29,4.41,3.82,4.41s3.82-2,3.82-4.41-1.29-4.41-3.82-4.41S8376,8231.17,8376,8233.63Z" transform="translate(-8107.09 -8150.78)"/><path d="M8391.7,8239.19h-1.59l-4.25-11.11h1.59l3.48,9.38,3.44-9.38H8396Z" transform="translate(-8107.09 -8150.78)"/><path d="M8351.81,8370.77v-11.11h1.51v9.74h5.09v1.36h-6.6Z" transform="translate(-8107.09 -8150.78)"/><path d="M8359.48,8361.25v-1.59h1.43v1.59h-1.43Zm0,9.52V8363h1.43v7.78h-1.43Z" transform="translate(-8107.09 -8150.78)"/><path d="M8362.31,8370.24l0.17-1.38a3.87,3.87,0,0,0,2.43.79c1,0,1.56-.35,1.56-1,0-.81-0.92-1.11-1.56-1.29-1.06-.29-2.44-0.67-2.44-2.24,0-1.19.79-2.33,2.92-2.33a4.3,4.3,0,0,1,2.11.51l-0.17,1.3a2.81,2.81,0,0,0-1.9-.68c-0.89,0-1.51.32-1.51,1s0.59,0.92,1.81,1.29c0.76,0.22,2.22.7,2.22,2.32,0,1-.59,2.32-3,2.32A4.85,4.85,0,0,1,8362.31,8370.24Z" transform="translate(-8107.09 -8150.78)"/><path d="M8373.19,8370.93h-1.29a1.8,1.8,0,0,1-2-1.86v-5h-1.33l0.13-1.11h1.21v-1.92l1.43-.14V8363h2v1.11h-2v4.09c0,1.49.1,1.59,1.63,1.59h0.37Z" transform="translate(-8107.09 -8150.78)"/><path d="M8375.28,8366.88c0.21,2.16,1.44,2.78,2.92,2.78a5.58,5.58,0,0,0,2.24-.46l0.19,1.13a6.22,6.22,0,0,1-2.6.6,3.93,3.93,0,0,1-4.21-4.11,3.73,3.73,0,0,1,3.81-4,3.11,3.11,0,0,1,3.35,3.29,4.44,4.44,0,0,1-.06.76h-5.63Zm0.13-1h4.09a1.66,1.66,0,0,0-1.9-1.79A2.07,2.07,0,0,0,8375.41,8365.89Z" transform="translate(-8107.09 -8150.78)"/><path d="M8388,8370.77v-4.28c0-1.65-.56-2.38-2-2.38a2.35,2.35,0,0,0-2.13,1v5.65h-1.43V8363h1.11l0.16,0.83a3.62,3.62,0,0,1,2.57-1c2.27,0,3.17,1.41,3.17,3.65v4.28H8388Z" transform="translate(-8107.09 -8150.78)"/><path d="M8392.16,8366.88c0.21,2.16,1.44,2.78,2.92,2.78a5.58,5.58,0,0,0,2.24-.46l0.19,1.13a6.22,6.22,0,0,1-2.6.6,3.93,3.93,0,0,1-4.21-4.11,3.73,3.73,0,0,1,3.81-4,3.11,3.11,0,0,1,3.35,3.29,4.44,4.44,0,0,1-.06.76h-5.63Zm0.13-1h4.09a1.66,1.66,0,0,0-1.9-1.79A2.07,2.07,0,0,0,8392.29,8365.89Z" transform="translate(-8107.09 -8150.78)"/><path d="M8403,8364.28h-0.49a2.37,2.37,0,0,0-1.78,1v5.49h-1.52V8363h1.17l0.17,1.29c0.94-1.06,1.68-1.57,2.63-1.57h0.13Z" transform="translate(-8107.09 -8150.78)"/><path d="M8403.83,8370.24l0.17-1.38a3.87,3.87,0,0,0,2.43.79c1,0,1.56-.35,1.56-1,0-.81-0.92-1.11-1.56-1.29-1.06-.29-2.44-0.67-2.44-2.24,0-1.19.79-2.33,2.92-2.33a4.29,4.29,0,0,1,2.11.51l-0.17,1.3a2.81,2.81,0,0,0-1.9-.68c-0.89,0-1.51.32-1.51,1s0.59,0.92,1.81,1.29c0.76,0.22,2.22.7,2.22,2.32,0,1-.59,2.32-3,2.32A4.85,4.85,0,0,1,8403.83,8370.24Z" transform="translate(-8107.09 -8150.78)"/><path d="M8251.32,8464.49a5.4,5.4,0,0,1,5.59-5.78,9.27,9.27,0,0,1,3.31.64l-0.14,1.32a10.21,10.21,0,0,0-3.12-.59c-2.72,0-4,2-4,4.43s1.34,4.43,4.24,4.43a5.5,5.5,0,0,0,1.86-.3v-2.77h-1.75v-1.37h3.27v5a9.51,9.51,0,0,1-3.81.84C8253.7,8470.3,8251.32,8468,8251.32,8464.49Z" transform="translate(-8107.09 -8150.78)"/><path d="M8263.45,8466.18c0.21,2.17,1.45,2.79,2.93,2.79a5.61,5.61,0,0,0,2.25-.46l0.19,1.13a6.26,6.26,0,0,1-2.61.6,3.94,3.94,0,0,1-4.22-4.13,3.74,3.74,0,0,1,3.82-4,3.12,3.12,0,0,1,3.36,3.3,4.5,4.5,0,0,1-.06.77h-5.66Zm0.13-1h4.11a1.67,1.67,0,0,0-1.91-1.8A2.08,2.08,0,0,0,8263.58,8465.19Z" transform="translate(-8107.09 -8150.78)"/><path d="M8276.18,8470.08v-4.3c0-1.66-.56-2.39-2-2.39a2.36,2.36,0,0,0-2.13,1v5.67h-1.43v-7.81h1.12l0.16,0.83a3.64,3.64,0,0,1,2.58-1c2.28,0,3.19,1.42,3.19,3.66v4.3h-1.43Z" transform="translate(-8107.09 -8150.78)"/><path d="M8280.39,8466.18c0.21,2.17,1.45,2.79,2.93,2.79a5.61,5.61,0,0,0,2.25-.46l0.19,1.13a6.26,6.26,0,0,1-2.61.6,4,4,0,0,1-4.22-4.13,3.74,3.74,0,0,1,3.82-4,3.12,3.12,0,0,1,3.36,3.3,4.41,4.41,0,0,1-.06.77h-5.65Zm0.13-1h4.11a1.67,1.67,0,0,0-1.91-1.8A2.08,2.08,0,0,0,8280.52,8465.19Z" transform="translate(-8107.09 -8150.78)"/><path d="M8291.32,8463.56h-0.49a2.38,2.38,0,0,0-1.79,1v5.51h-1.53v-7.81h1.18l0.17,1.29c0.94-1.07,1.69-1.58,2.64-1.58h0.13Z" transform="translate(-8107.09 -8150.78)"/><path d="M8298.81,8470.24h-0.11c-1.39,0-1.69-.41-2-1.15a3.08,3.08,0,0,1-2.39,1.15,2.23,2.23,0,0,1-2.41-2.26c0-2.2,2.68-2.76,4.67-2.79,0-1.48-.61-1.8-1.7-1.8a3.41,3.41,0,0,0-2.05.7l-0.21-1.16a4.49,4.49,0,0,1,2.64-.81c2,0,2.76.92,2.76,3.74v1.59c0,1.12.06,1.64,0.89,1.64H8299Zm-2.25-4.06c-2.28.08-3.2,0.56-3.2,1.72a1.08,1.08,0,0,0,1.21,1.19,2.53,2.53,0,0,0,2-1.05v-1.86Z" transform="translate(-8107.09 -8150.78)"/><path d="M8302.53,8470.24h-0.46a1.79,1.79,0,0,1-2-1.88v-10.23h1.43v9.4c0,1.34.16,1.56,1.26,1.56Z" transform="translate(-8107.09 -8150.78)"/><path d="M8247.8,8488.5l-1.07-3h-4.27l-1.07,3h-1.59l4-11.15h1.59l4,11.15h-1.59Zm-3.2-9-1.66,4.65h3.31Z" transform="translate(-8107.09 -8150.78)"/><path d="M8249.87,8484.58c0-2.28,1.27-4,3.87-4a5.05,5.05,0,0,1,2.41.46l-0.22,1.29a4.55,4.55,0,0,0-2-.48c-1.74,0-2.57,1-2.57,2.77s0.83,2.82,2.57,2.82a4.63,4.63,0,0,0,2-.48l0.19,1.15a4,4,0,0,1-2.37.59A3.76,3.76,0,0,1,8249.87,8484.58Z" transform="translate(-8107.09 -8150.78)"/><path d="M8261.63,8488.66h-1.29a1.8,1.8,0,0,1-2-1.86v-5H8257l0.13-1.12h1.21v-1.93l1.43-.14v2.07h2.06v1.12h-2.06v4.11c0,1.5.1,1.59,1.64,1.59h0.37Z" transform="translate(-8107.09 -8150.78)"/><path d="M8262.89,8478.95v-1.59h1.43v1.59h-1.43Zm0,9.56v-7.81h1.43v7.81h-1.43Z" transform="translate(-8107.09 -8150.78)"/><path d="M8265.74,8484.6a3.88,3.88,0,1,1,3.87,4.06A3.77,3.77,0,0,1,8265.74,8484.6Zm1.47,0c0,1.75.86,2.79,2.41,2.79s2.41-1,2.41-2.79-0.86-2.79-2.41-2.79S8267.2,8482.85,8267.2,8484.6Z" transform="translate(-8107.09 -8150.78)"/><path d="M8280.5,8488.5v-4.3c0-1.66-.56-2.39-2-2.39a2.36,2.36,0,0,0-2.13,1v5.67h-1.43v-7.81H8276l0.16,0.83a3.64,3.64,0,0,1,2.58-1c2.28,0,3.19,1.42,3.19,3.66v4.3h-1.43Z" transform="translate(-8107.09 -8150.78)"/><path d="M8287.22,8488l0.21-1.77a5.93,5.93,0,0,0,3.47,1.12c1.37,0,2.66-.46,2.66-1.72s-1.27-1.74-2.88-2.25c-1.85-.59-3.63-1.13-3.63-3,0-1.39,1-3.22,4-3.22a8.23,8.23,0,0,1,3.5.76l-0.16,1.61a7.24,7.24,0,0,0-3.2-1c-1.15,0-2.5.48-2.5,1.64s1.07,1.45,2.4,1.86c2,0.61,4.11,1.19,4.11,3.62,0,1.18-.49,3.11-4.35,3.11A8.34,8.34,0,0,1,8287.22,8488Z" transform="translate(-8107.09 -8150.78)"/><path d="M8300.32,8488.66H8299a1.8,1.8,0,0,1-2-1.86v-5h-1.34l0.13-1.12H8297v-1.93l1.43-.14v2.07h2.06v1.12h-2.06v4.11c0,1.5.1,1.59,1.64,1.59h0.37Z" transform="translate(-8107.09 -8150.78)"/><path d="M8302.42,8484.6c0.21,2.17,1.45,2.79,2.93,2.79a5.62,5.62,0,0,0,2.25-.46l0.19,1.13a6.23,6.23,0,0,1-2.61.61,4,4,0,0,1-4.22-4.13,3.74,3.74,0,0,1,3.82-4,3.12,3.12,0,0,1,3.36,3.3,4.38,4.38,0,0,1-.06.76h-5.65Zm0.13-1h4.11a1.67,1.67,0,0,0-1.91-1.8A2.07,2.07,0,0,0,8302.55,8483.61Z" transform="translate(-8107.09 -8150.78)"/><path d="M8311,8487.52v4.84h-1.43V8480.7h1.12l0.16,1.12a3,3,0,0,1,2.63-1.28c2.18,0,3.47,1.93,3.47,4.06s-1.18,4.06-3.49,4.06A3.44,3.44,0,0,1,8311,8487.52Zm-0.08-2.92c0,2,1.23,2.79,2.37,2.79,1.37,0,2.18-1.26,2.18-2.79s-0.81-2.79-2.18-2.79A2.5,2.5,0,0,0,8310.89,8484.6Z" transform="translate(-8107.09 -8150.78)"/><path d="M8191.54,8570.34l0.21-1.76a5.92,5.92,0,0,0,3.46,1.11c1.37,0,2.65-.46,2.65-1.71s-1.27-1.73-2.87-2.24c-1.84-.59-3.62-1.13-3.62-3,0-1.38,1-3.21,4-3.21a8.21,8.21,0,0,1,3.49.76l-0.16,1.6a7.21,7.21,0,0,0-3.19-1c-1.14,0-2.49.48-2.49,1.63s1.06,1.44,2.4,1.86c2,0.6,4.09,1.19,4.09,3.6,0,1.17-.49,3.09-4.33,3.09A8.3,8.3,0,0,1,8191.54,8570.34Z" transform="translate(-8107.09 -8150.78)"/><path d="M8202.39,8569.84v4.82H8201v-11.62h1.11l0.16,1.11a3,3,0,0,1,2.62-1.27c2.17,0,3.46,1.92,3.46,4s-1.17,4-3.48,4A3.42,3.42,0,0,1,8202.39,8569.84Zm-0.08-2.9c0,2,1.22,2.78,2.36,2.78,1.36,0,2.17-1.25,2.17-2.78s-0.81-2.78-2.17-2.78A2.49,2.49,0,0,0,8202.31,8566.94Z" transform="translate(-8107.09 -8150.78)"/><path d="M8210.77,8566.94c0.21,2.16,1.44,2.78,2.92,2.78a5.58,5.58,0,0,0,2.24-.46l0.19,1.13a6.23,6.23,0,0,1-2.6.6,3.93,3.93,0,0,1-4.21-4.11,3.73,3.73,0,0,1,3.81-4,3.11,3.11,0,0,1,3.35,3.29,4.44,4.44,0,0,1-.06.76h-5.63Zm0.13-1H8215a1.66,1.66,0,0,0-1.9-1.79A2.07,2.07,0,0,0,8210.9,8566Z" transform="translate(-8107.09 -8150.78)"/><path d="M8217.46,8566.92c0-2.27,1.27-4,3.86-4a5,5,0,0,1,2.4.46l-0.22,1.29a4.53,4.53,0,0,0-2-.48c-1.73,0-2.55,1-2.55,2.76s0.83,2.81,2.55,2.81a4.61,4.61,0,0,0,2-.48l0.19,1.14a4,4,0,0,1-2.36.59A3.74,3.74,0,0,1,8217.46,8566.92Z" transform="translate(-8107.09 -8150.78)"/><path d="M8224.9,8561.31v-1.59h1.43v1.59h-1.43Zm0,9.52v-7.78h1.43v7.78h-1.43Z" transform="translate(-8107.09 -8150.78)"/><path d="M8230.15,8564.16v6.67h-1.43v-6.67h-1.35l0.19-1.11h1.16v-2c0-1.25.62-2.16,1.81-2.16a4.42,4.42,0,0,1,1.62.21l-0.22,1.21a3,3,0,0,0-1-.14c-0.75,0-.83.32-0.83,1.9v1h2.09v1.11h-2.09Z" transform="translate(-8107.09 -8150.78)"/><path d="M8233.32,8561.31v-1.59h1.43v1.59h-1.43Zm0,9.52v-7.78h1.43v7.78h-1.43Z" transform="translate(-8107.09 -8150.78)"/><path d="M8236.19,8566.92c0-2.27,1.27-4,3.86-4a5,5,0,0,1,2.4.46l-0.22,1.29a4.53,4.53,0,0,0-2-.48c-1.73,0-2.55,1-2.55,2.76s0.83,2.81,2.55,2.81a4.61,4.61,0,0,0,2-.48l0.19,1.14a4,4,0,0,1-2.36.59A3.74,3.74,0,0,1,8236.19,8566.92Z" transform="translate(-8107.09 -8150.78)"/><path d="M8186.14,8589.26l-1.06-3h-4.25l-1.06,3h-1.59l4-11.11h1.59l4,11.11h-1.59Zm-3.19-9-1.65,4.63h3.3Z" transform="translate(-8107.09 -8150.78)"/><path d="M8188.21,8585.35c0-2.27,1.27-4,3.86-4a5,5,0,0,1,2.4.46l-0.22,1.29a4.55,4.55,0,0,0-2-.48c-1.73,0-2.56,1-2.56,2.76s0.83,2.81,2.56,2.81a4.62,4.62,0,0,0,2-.47l0.19,1.14a4,4,0,0,1-2.36.59A3.74,3.74,0,0,1,8188.21,8585.35Z" transform="translate(-8107.09 -8150.78)"/><path d="M8199.93,8589.41h-1.29a1.8,1.8,0,0,1-2-1.86v-5h-1.33l0.13-1.11h1.21v-1.92l1.43-.14v2.06h2v1.11h-2v4.09c0,1.49.1,1.59,1.63,1.59H8200Z" transform="translate(-8107.09 -8150.78)"/><path d="M8201.18,8579.73v-1.59h1.43v1.59h-1.43Zm0,9.52v-7.78h1.43v7.78h-1.43Z" transform="translate(-8107.09 -8150.78)"/><path d="M8204,8585.37a3.86,3.86,0,1,1,3.86,4A3.76,3.76,0,0,1,8204,8585.37Zm1.46,0c0,1.75.86,2.78,2.4,2.78s2.4-1,2.4-2.78-0.86-2.78-2.4-2.78S8205.48,8583.62,8205.48,8585.37Z" transform="translate(-8107.09 -8150.78)"/><path d="M8218.73,8589.26V8585c0-1.65-.55-2.38-2-2.38a2.35,2.35,0,0,0-2.13,1v5.65h-1.43v-7.78h1.11l0.16,0.82a3.62,3.62,0,0,1,2.57-1c2.27,0,3.17,1.41,3.17,3.65v4.29h-1.43Z" transform="translate(-8107.09 -8150.78)"/><path d="M8225.43,8588.76l0.21-1.76a5.92,5.92,0,0,0,3.46,1.11c1.37,0,2.65-.46,2.65-1.71s-1.27-1.73-2.87-2.24c-1.84-.59-3.62-1.13-3.62-3,0-1.38,1-3.21,4-3.21a8.19,8.19,0,0,1,3.49.76l-0.16,1.6a7.21,7.21,0,0,0-3.19-1c-1.14,0-2.49.48-2.49,1.63s1.06,1.45,2.4,1.86c2,0.6,4.09,1.19,4.09,3.6,0,1.18-.49,3.1-4.33,3.1A8.28,8.28,0,0,1,8225.43,8588.76Z" transform="translate(-8107.09 -8150.78)"/><path d="M8238.47,8589.41h-1.29a1.8,1.8,0,0,1-2-1.86v-5h-1.33l0.13-1.11h1.21v-1.92l1.43-.14v2.06h2v1.11h-2v4.09c0,1.49.1,1.59,1.63,1.59h0.37Z" transform="translate(-8107.09 -8150.78)"/><path d="M8240.57,8585.37c0.21,2.16,1.44,2.78,2.92,2.78a5.62,5.62,0,0,0,2.24-.46l0.19,1.13a6.2,6.2,0,0,1-2.6.6,3.93,3.93,0,0,1-4.21-4.11,3.73,3.73,0,0,1,3.81-4,3.11,3.11,0,0,1,3.35,3.28,4.44,4.44,0,0,1-.06.76h-5.63Zm0.13-1h4.09a1.66,1.66,0,0,0-1.9-1.79A2.07,2.07,0,0,0,8240.69,8584.38Z" transform="translate(-8107.09 -8150.78)"/><path d="M8249.09,8588.27v4.82h-1.43v-11.62h1.11l0.16,1.11a3,3,0,0,1,2.62-1.27c2.17,0,3.46,1.92,3.46,4s-1.17,4-3.48,4A3.42,3.42,0,0,1,8249.09,8588.27Zm-0.08-2.9c0,2,1.22,2.78,2.37,2.78,1.36,0,2.17-1.25,2.17-2.78s-0.81-2.78-2.17-2.78A2.49,2.49,0,0,0,8249,8585.37Z" transform="translate(-8107.09 -8150.78)"/><path d="M8453.74,8491v-11.11h2.51c2.6,0,4.19.4,4.19,2.74a2.9,2.9,0,0,1-.9,2.45,2.5,2.5,0,0,1,1.86,2.62c0,2.84-2,3.3-3.84,3.3h-3.81Zm1.51-9.76v3.27h1.87c0.89,0,1.76-.1,1.76-1.76,0-1.4-1-1.51-2.21-1.51h-1.43Zm0,4.63v3.76h1.55c1.83,0,3-.19,3-1.79s-1-2-2.22-2h-2.35Z" transform="translate(-8107.09 -8150.78)"/><path d="M8464.34,8487.07c0.21,2.16,1.44,2.78,2.92,2.78a5.61,5.61,0,0,0,2.24-.46l0.19,1.13a6.23,6.23,0,0,1-2.6.6,3.93,3.93,0,0,1-4.21-4.11,3.73,3.73,0,0,1,3.81-4,3.11,3.11,0,0,1,3.35,3.29,4.47,4.47,0,0,1-.06.76h-5.63Zm0.13-1h4.09a1.66,1.66,0,0,0-1.9-1.79A2.07,2.07,0,0,0,8464.46,8486.08Z" transform="translate(-8107.09 -8150.78)"/><path d="M8477.41,8491v-4.28c0-1.65-.55-2.38-2-2.38a2.35,2.35,0,0,0-2.13,1V8491h-1.43v-7.78h1.11l0.16,0.83a3.62,3.62,0,0,1,2.57-1c2.27,0,3.17,1.41,3.17,3.65V8491h-1.43Z" transform="translate(-8107.09 -8150.78)"/><path d="M8482,8487.07c0.21,2.16,1.44,2.78,2.92,2.78a5.61,5.61,0,0,0,2.24-.46l0.19,1.13a6.23,6.23,0,0,1-2.6.6,3.93,3.93,0,0,1-4.21-4.11,3.73,3.73,0,0,1,3.81-4,3.11,3.11,0,0,1,3.35,3.29,4.47,4.47,0,0,1-.06.76H8482Zm0.13-1h4.09a1.66,1.66,0,0,0-1.9-1.79A2.07,2.07,0,0,0,8482.13,8486.08Z" transform="translate(-8107.09 -8150.78)"/><path d="M8489.86,8483.64h-1.22v-1.06h1.22v-1.27a2,2,0,0,1,2.24-2.11,5.28,5.28,0,0,1,.59,0v1.06l-0.45,0a1,1,0,0,0-1.11,1.06v1.24h1.49v1.06h-1.49V8491h-1.27v-7.31Zm4.06-4.11h1.29v1.38h-1.29v-1.38Zm0,3h1.25V8491h-1.25v-8.38Z" transform="translate(-8107.09 -8150.78)"/><path d="M8501.59,8491.11h-1.29a1.8,1.8,0,0,1-2-1.86v-5h-1.33l0.13-1.11h1.21v-1.92l1.43-.14v2.06h2v1.11h-2v4.09c0,1.49.09,1.59,1.63,1.59h0.36Z" transform="translate(-8107.09 -8150.78)"/><path d="M8516.29,8591.23v-11.11h2.51c2.6,0,4.19.4,4.19,2.75a2.9,2.9,0,0,1-.9,2.44,2.5,2.5,0,0,1,1.86,2.62c0,2.84-2,3.3-3.84,3.3h-3.81Zm1.51-9.76v3.27h1.87c0.89,0,1.76-.1,1.76-1.76,0-1.4-1-1.51-2.21-1.51h-1.43Zm0,4.63v3.76h1.56c1.82,0,3-.19,3-1.79s-1-2-2.22-2h-2.35Z" transform="translate(-8107.09 -8150.78)"/><path d="M8526.88,8587.35c0.21,2.16,1.44,2.78,2.92,2.78a5.61,5.61,0,0,0,2.24-.46l0.19,1.13a6.21,6.21,0,0,1-2.6.6,3.93,3.93,0,0,1-4.21-4.11,3.73,3.73,0,0,1,3.81-4,3.11,3.11,0,0,1,3.35,3.28,4.45,4.45,0,0,1-.06.76h-5.63Zm0.13-1h4.09a1.66,1.66,0,0,0-1.9-1.79A2.07,2.07,0,0,0,8527,8586.36Z" transform="translate(-8107.09 -8150.78)"/><path d="M8540,8591.23v-4.29c0-1.65-.56-2.38-2-2.38a2.35,2.35,0,0,0-2.13,1v5.65h-1.43v-7.78h1.11l0.16,0.82a3.62,3.62,0,0,1,2.57-1c2.27,0,3.17,1.41,3.17,3.65v4.29H8540Z" transform="translate(-8107.09 -8150.78)"/><path d="M8544.55,8587.35c0.21,2.16,1.44,2.78,2.92,2.78a5.61,5.61,0,0,0,2.24-.46l0.19,1.13a6.21,6.21,0,0,1-2.6.6,3.93,3.93,0,0,1-4.21-4.11,3.73,3.73,0,0,1,3.81-4,3.11,3.11,0,0,1,3.35,3.28,4.45,4.45,0,0,1-.06.76h-5.63Zm0.13-1h4.09a1.66,1.66,0,0,0-1.9-1.79A2.07,2.07,0,0,0,8544.68,8586.36Z" transform="translate(-8107.09 -8150.78)"/><path d="M8552.41,8583.92h-1.22v-1.06h1.22v-1.27a2,2,0,0,1,2.24-2.11,4.94,4.94,0,0,1,.59,0v1.06l-0.44,0a1,1,0,0,0-1.11,1.06v1.24h1.49v1.06h-1.49v7.32h-1.27v-7.32Zm4.06-4.11h1.29v1.38h-1.29v-1.38Zm0,3h1.25v8.38h-1.25v-8.38Z" transform="translate(-8107.09 -8150.78)"/><path d="M8564.14,8591.39h-1.29a1.8,1.8,0,0,1-2-1.86v-5h-1.33l0.13-1.11h1.21v-1.92l1.43-.14v2.06h2v1.11h-2v4.09c0,1.49.09,1.59,1.63,1.59h0.37Z" transform="translate(-8107.09 -8150.78)"/><path class="cls-7" d="M8325,8571.32s16.29,13.81,53.85,13.81a98.17,98.17,0,0,0,46-10.94" transform="translate(-8107.09 -8150.78)"/><polygon class="cls-8" points="316.84 431.05 315.88 424.36 310.39 420.41 326.23 418.08 316.84 431.05"/></svg>