<svg id="Interactive_elements" data-name="Interactive elements" xmlns="http://www.w3.org/2000/svg" viewBox="0 0 67.58 73.63"><defs><style>.cls-1{fill:#badef5;}.cls-2{fill:#6cc5f5;}.cls-3{fill:none;}.cls-4{fill:#2e8bbd;}.cls-5{fill:#14608a;}</style></defs><title>speaker</title><path class="cls-1" d="M446.94,4924.93l0.28-.21-0.29.08A1.28,1.28,0,0,1,446.94,4924.93Z" transform="translate(-414.62 -4916.61)"/><path class="cls-2" d="M449.14,4924.15a3.41,3.41,0,0,0-1.91.57C447.86,4924.54,448.51,4924.3,449.14,4924.15Z" transform="translate(-414.62 -4916.61)"/><path class="cls-2" d="M444.64,4924.69l0.29,0.12,0.1-.14a4.77,4.77,0,0,1,1.35-1.15c-0.73-1.17-2-2.45-3.18-2.47a7.66,7.66,0,0,0-1.08.05A4.86,4.86,0,0,0,444.64,4924.69Z" transform="translate(-414.62 -4916.61)"/><path class="cls-2" d="M446.37,4923.53a4.77,4.77,0,0,0-1.35,1.15l-0.1.14a3.46,3.46,0,0,0,2,0,1.31,1.31,0,0,0-.09-0.37A6.06,6.06,0,0,0,446.37,4923.53Z" transform="translate(-414.62 -4916.61)"/><path class="cls-2" d="M441.8,4921.14l0,0h0Z" transform="translate(-414.62 -4916.61)"/><path class="cls-3" d="M469.41,4930.08a3.92,3.92,0,0,0-.82-1.84A10.91,10.91,0,0,1,469.41,4930.08Z" transform="translate(-414.62 -4916.61)"/><path class="cls-1" d="M467.49,4928c-0.31.17-.7,0.42-1,0.6A3.52,3.52,0,0,0,467.49,4928Z" transform="translate(-414.62 -4916.61)"/><path class="cls-1" d="M442.79,4968.16c2,2,6.12,3.37,9.38,4.18,0.5,0.12,5.78.24,5.78,0.24s3.11-1.75,3.39-2.55-0.43-2.79-.43-2.79l-0.18-.93a11,11,0,0,1-.48-3.84c0.39-2.79,3.7-1.22,6.08-4.08,6.2-7.43,3.53-18.78,3.81-20.55a15.77,15.77,0,0,0,.08-3.78l-0.45-1.86c-0.11-.58-0.2-1.36-0.37-2.11a10.91,10.91,0,0,0-.82-1.84,1.38,1.38,0,0,0-.62-0.38,0.87,0.87,0,0,0-.47.16,3.52,3.52,0,0,1-1,.6,2,2,0,0,1-.39.19,5.43,5.43,0,0,1-1.72.14c-4.47-.07-11-3.83-13.68-4.58a5.54,5.54,0,0,0-1.55-.22c-0.63.15-1.28,0.39-1.91,0.57l-0.28.21c0,0.91-1,1.74-1.61,2.53a30.84,30.84,0,0,0-1.09,4.52,5.44,5.44,0,0,0-.08.6c0,1.53.09,3.06-.05,4.59-0.11,1.16-.42,1.3-0.86,1.07-0.86.34-3.38-1.4-4.28,1.21,0.9-2.6,3.42-.87,4.28-1.21-0.86-.45-2.21-2.35-3.42-0.67l-1,1.8v0a18.25,18.25,0,0,0,2.7,9.52c0.93,1.4,1.35,4.85-.16,12l-0.06.25-0.14.73A6.27,6.27,0,0,0,442.79,4968.16Z" transform="translate(-414.62 -4916.61)"/><path class="cls-1" d="M444.31,4930.48a16.31,16.31,0,0,0-.15,2.1,5.44,5.44,0,0,1,.08-0.6,30.84,30.84,0,0,1,1.09-4.52,3.19,3.19,0,0,0-.47.72A6.56,6.56,0,0,0,444.31,4930.48Z" transform="translate(-414.62 -4916.61)"/><path class="cls-1" d="M457.18,4926.62a19.46,19.46,0,0,0-6.54-2.58,4,4,0,0,0-1.5.11,5.54,5.54,0,0,1,1.55.22c2.71,0.76,9.21,4.52,13.68,4.58l-0.61,0A17.53,17.53,0,0,1,457.18,4926.62Z" transform="translate(-414.62 -4916.61)"/><path class="cls-2" d="M446.37,4923.53c5-2.94,16.88,0,20.55,2.75a5.68,5.68,0,0,1,1.12,1.14,4.07,4.07,0,0,0,.46-0.83,4.07,4.07,0,0,1-.46.83,7.8,7.8,0,0,1,.54.83,3.92,3.92,0,0,1,.82,1.84,16.93,16.93,0,0,1,.82,4l0.06,0.26c0-3.16.88-8.36,0.35-11.66s-3.9-4.45-7-5.34c-3.79-1.08-19.78-1.32-21.31,2.25a3,3,0,0,0-.2,1.55,7.66,7.66,0,0,1,1.08-.05C444.41,4921.08,445.65,4922.36,446.37,4923.53Z" transform="translate(-414.62 -4916.61)"/><path class="cls-2" d="M466.09,4928.82a2,2,0,0,0,.39-0.19,5.54,5.54,0,0,1-2.11.33A5.43,5.43,0,0,0,466.09,4928.82Z" transform="translate(-414.62 -4916.61)"/><path class="cls-2" d="M468,4927.42a5.68,5.68,0,0,0-1.12-1.14c-3.67-2.74-15.55-5.69-20.55-2.75a6.06,6.06,0,0,1,.47.9,1.31,1.31,0,0,1,.09.37l0.29-.08a3.41,3.41,0,0,1,1.91-.57,4,4,0,0,1,1.5-.11,19.46,19.46,0,0,1,6.54,2.58,17.53,17.53,0,0,0,6.58,2.29l0.61,0a5.54,5.54,0,0,0,2.11-.33c0.31-.18.7-0.44,1-0.6A3.42,3.42,0,0,0,468,4927.42Z" transform="translate(-414.62 -4916.61)"/><path class="cls-2" d="M469.77,4932.19l0.45,1.86a16.93,16.93,0,0,0-.82-4C469.58,4930.83,469.67,4931.61,469.77,4932.19Z" transform="translate(-414.62 -4916.61)"/><path class="cls-2" d="M467.49,4928a0.87,0.87,0,0,1,.47-0.16,1.38,1.38,0,0,1,.62.38,7.8,7.8,0,0,0-.54-0.83A3.42,3.42,0,0,1,467.49,4928Z" transform="translate(-414.62 -4916.61)"/><path class="cls-2" d="M443.48,4934.95c0.05-.57.07-1.17,0.08-1.79q0-.27-0.07-0.52l-0.69-4.85a26.9,26.9,0,0,1,.69,4.85l0.07,0.47c0-2.85-.25-6.11,1.37-8.3l-0.29-.12a4.86,4.86,0,0,1-2.52-3.58l-0.32,0-2.8,17.31C439.7,4935.47,443.34,4937.59,443.48,4934.95Z" transform="translate(-414.62 -4916.61)"/><path class="cls-2" d="M441.76,4921.16c-3.15.57-4.31,3.3-4.53,6.55A7.66,7.66,0,0,1,441.76,4921.16Z" transform="translate(-414.62 -4916.61)"/><path class="cls-2" d="M438.91,4939l0,0.12c-0.29-1.1-.63-2.35-0.93-3.67,0.32,1.59.68,3,.93,3.9,0,0,0-.1,0-0.15S438.9,4939.07,438.91,4939Z" transform="translate(-414.62 -4916.61)"/><path class="cls-2" d="M445.33,4927.47c0.65-.79,1.61-1.62,1.61-2.53A5.87,5.87,0,0,0,445.33,4927.47Z" transform="translate(-414.62 -4916.61)"/><path class="cls-2" d="M443.25,4938.25c0.44,0.23.75,0.09,0.86-1.07,0.14-1.53,0-3.06.05-4.59-0.15,1.69.14,4.37-.73,5.53A0.41,0.41,0,0,1,443.25,4938.25Z" transform="translate(-414.62 -4916.61)"/><path class="cls-2" d="M439.84,4937.58c1.21-1.68,2.55.22,3.42,0.67a0.41,0.41,0,0,0,.18-0.13c0.86-1.15.58-3.84,0.73-5.53a16.31,16.31,0,0,1,.15-2.1,6.56,6.56,0,0,1,.55-2.29,3.19,3.19,0,0,1,.47-0.72,5.87,5.87,0,0,1,1.61-2.53,1.28,1.28,0,0,0,0-.14,3.46,3.46,0,0,1-2,0c-1.62,2.19-1.35,5.45-1.37,8.3l0.1,0.7c0-.23-0.07-0.44-0.1-0.65,0,0.62,0,1.22-.08,1.79-0.14,2.65-3.78.52-4.49,3.52l-0.09.54c0,0.07,0,.13,0,0.21s0,0.1,0,.15v0Z" transform="translate(-414.62 -4916.61)"/><path class="cls-2" d="M437.23,4927.72a23.59,23.59,0,0,0,.72,7.74A30.58,30.58,0,0,1,437.23,4927.72Z" transform="translate(-414.62 -4916.61)"/><path class="cls-2" d="M438.91,4939a4.26,4.26,0,0,1,.09-0.54l2.8-17.31h0a7.66,7.66,0,0,0-4.53,6.55,30.58,30.58,0,0,0,.72,7.74c0.3,1.32.64,2.57,0.93,3.67Z" transform="translate(-414.62 -4916.61)"/><path class="cls-2" d="M439,4938.47a4.26,4.26,0,0,0-.09.54Z" transform="translate(-414.62 -4916.61)"/><path class="cls-2" d="M443.49,4932.64a26.9,26.9,0,0,0-.69-4.85Z" transform="translate(-414.62 -4916.61)"/><path class="cls-2" d="M443.56,4933.16v0l-0.07-.47Q443.52,4932.89,443.56,4933.16Z" transform="translate(-414.62 -4916.61)"/><path class="cls-2" d="M443.66,4933.81l-0.1-.7v0C443.59,4933.37,443.62,4933.58,443.66,4933.81Z" transform="translate(-414.62 -4916.61)"/><path class="cls-4" d="M481.56,4980.6c-0.25-2.12-.07-5.26-2-6.71a23.63,23.63,0,0,0-11.39-4.11c-1-.11-2.55-0.24-3.89-0.42l-0.55-.09,0.55,0.09a10.81,10.81,0,0,0-.62-2.13,7.47,7.47,0,0,0-3.36-3.17l0.43,2.25h0l0.18,0.93s0.76,1.88.43,2.79-1.57,1.4-3.69,1.95a11.54,11.54,0,0,1-5.74.1c-3.31-.59-7.13-1.88-9.12-3.92a6.27,6.27,0,0,1-1.56-6.27l0.14-.73,0.19-1a6.86,6.86,0,0,0-4.33,3,18.51,18.51,0,0,0-2.08,5.08c-1.48.48-3.45,0.43-5.31,0.79a33.56,33.56,0,0,0-11.72,5c-1.16.88-2.4,7.17-3.5,16.15H482.2C481.71,4985.91,481.74,4982.18,481.56,4980.6Zm-18.25-11.42-0.08,0Zm-0.54-.15h0Zm-0.44-.17h0Z" transform="translate(-414.62 -4916.61)"/><path class="cls-5" d="M458.82,4983.28l-0.1-1.18a14.53,14.53,0,0,1-1.8,2.22A3.53,3.53,0,0,0,458.82,4983.28Z" transform="translate(-414.62 -4916.61)"/><path class="cls-5" d="M452.57,4990.24h6.83l-0.34-4-0.58-7,0.82-3.15s-1.21-2.8-3.31-2.8-4,2.89-4,2.89l1.53,3.44-0.35,3.94-0.25,2.76S452.57,4990.24,452.57,4990.24Z" transform="translate(-414.62 -4916.61)"/></svg>