<svg id="Interactive_elements" data-name="Interactive elements" xmlns="http://www.w3.org/2000/svg" viewBox="0 0 200.3 128.08"><defs><style>.cls-1{fill:#f1f297;}.cls-2{fill:#ffca00;opacity:0.5;}.cls-3{fill:#fe961c;}.cls-4{fill:none;stroke:#a7a7a7;stroke-miterlimit:10;stroke-width:0.5px;fill-rule:evenodd;}</style></defs><title>sticky-2-high</title><rect class="cls-1" x="2.25" y="2.02" width="197.81" height="125.81"/><rect class="cls-2" x="2.28" y="2" width="197.82" height="11.79"/><path class="cls-3" d="M816.31,9319.08l-1.39-1.39,2.18-2.18-2.18-2.18,1.4-1.4,2.18,2.18,2.18-2.18,1.39,1.39-2.18,2.18,2.19,2.19-1.4,1.4-2.19-2.19Z" transform="translate(-624.94 -9307.65)"/><polyline class="cls-4" points="3.25 127.83 200.05 127.83 200.05 3.02"/><rect class="cls-1" y="0.02" width="197.81" height="125.81"/><rect class="cls-2" x="0.03" width="197.82" height="11.79"/><path class="cls-3" d="M814.06,9317.08l-1.39-1.39,2.18-2.18-2.18-2.18,1.4-1.4,2.18,2.18,2.18-2.18,1.39,1.39-2.18,2.18,2.19,2.19-1.4,1.4-2.19-2.19Z" transform="translate(-624.94 -9307.65)"/><polyline class="cls-4" points="1 125.83 197.81 125.83 197.81 1.02"/></svg>