<svg id="Interactive_elements" data-name="Interactive elements" xmlns="http://www.w3.org/2000/svg" viewBox="0 0 85.21 35.19"><defs><style>.cls-1{fill:#ffca00;}.cls-2{fill:#fff;}</style></defs><title>post-button_hover-depressed</title><rect class="cls-1" width="85.21" height="35.02"/><path class="cls-2" d="M8619.66,15222.25v4.42h-1.8l0-12.62h4c2.34,0,4.4.54,4.41,3.93s-2.21,4.28-3.89,4.28h-2.74Zm0-6.67v5.14h2.42c1.75,0,2.43-1,2.43-2.67s-0.72-2.47-2.94-2.47h-1.91Z" transform="translate(-8575.86 -15202.67)"/><path class="cls-2" d="M8628,15222.24a4.39,4.39,0,1,1,4.39,4.59A4.27,4.27,0,0,1,8628,15222.24Zm1.66,0c0,2,1,3.15,2.73,3.15s2.72-1.18,2.72-3.16-1-3.15-2.73-3.15S8629.62,15220.25,8629.62,15222.24Z" transform="translate(-8575.86 -15202.67)"/><path class="cls-2" d="M8638.68,15226l0.2-1.57a4.39,4.39,0,0,0,2.76.9c1.14,0,1.77-.4,1.77-1.1,0-.92-1-1.26-1.77-1.46-1.21-.32-2.78-0.75-2.78-2.54,0-1.35.9-2.65,3.32-2.66a4.9,4.9,0,0,1,2.4.57l-0.2,1.48a3.19,3.19,0,0,0-2.17-.77c-1,0-1.71.36-1.71,1.19s0.67,1,2.06,1.46c0.87,0.25,2.53.79,2.53,2.63,0,1.17-.66,2.63-3.37,2.64A5.53,5.53,0,0,1,8638.68,15226Z" transform="translate(-8575.86 -15202.67)"/><path class="cls-2" d="M8651.93,15226.81h-1.46a2,2,0,0,1-2.31-2.11v-5.65h-1.51l0.14-1.26h1.37v-2.18l1.62-.16v2.34h2.33v1.26h-2.33v4.65c0,1.7.11,1.8,1.86,1.8h0.42Z" transform="translate(-8575.86 -15202.67)"/><path class="cls-2" d="M8596.73,15214.12v-2.82h-1.41l-9.18-1.15a0.71,0.71,0,0,0-.71.71v8.47a0.71,0.71,0,0,0,.71.71l9,1v2.82a27.84,27.84,0,0,0,8.41-1c4-1.22,9.24-5.1,9.36-6.62S8605.79,15217.47,8596.73,15214.12Z" transform="translate(-8575.86 -15202.67)"/><path class="cls-2" d="M8586.15,15210.15a0.63,0.63,0,0,0-.71.52v27.18h1.41v-27.18A0.63,0.63,0,0,0,8586.15,15210.15Z" transform="translate(-8575.86 -15202.67)"/></svg>