<svg id="Interactive_elements" data-name="Interactive elements" xmlns="http://www.w3.org/2000/svg" viewBox="0 0 29.03 47.33"><defs><style>.cls-1{fill:#c53a43;}</style></defs><title>red-arrow_down-left</title><path class="cls-1" d="M2394.16,15165.2a1,1,0,0,0-1.56.06c-3.05,4.06-5,7.75-7.32,11.2-0.95,1.38-7.7,13-8.75,14.8-2.3,3.84-4.4,8.11-5.87,10.86a19.85,19.85,0,0,1,.05-6.5,19.53,19.53,0,0,0,.62-3.6,2.82,2.82,0,0,0-1.09-2.63c-1.21-.8-3.26-1.17-3.93-0.22a5,5,0,0,0-.06,2.36,36.14,36.14,0,0,1,0,3.89,107.84,107.84,0,0,0,.51,14c0.11,1.29.23,2.2,0.79,2.57s1.24,0.27,2.62-.15a31.85,31.85,0,0,0,11.08-6,31.8,31.8,0,0,1,4.47-3,3.9,3.9,0,0,0,1.34-1,3.49,3.49,0,0,0-.67-4.41,1,1,0,0,0-1.22.19c-0.89.79-2,1.89-3.26,3.1a24.14,24.14,0,0,1-7.8,5.23l0,0a54.44,54.44,0,0,1,4.81-10.56c0.87-1.66,7.42-13.35,8.34-14.68,1.74-2.53,3.31-5.56,5-8a27.22,27.22,0,0,0,2.69-4.92A2.23,2.23,0,0,0,2394.16,15165.2Z" transform="translate(-2366.15 -15164.88)"/></svg>