<svg id="Interactive_elements" data-name="Interactive elements" xmlns="http://www.w3.org/2000/svg" viewBox="0 0 39.64 38.44"><defs><style>.cls-1{fill:#c53a43;}</style></defs><title>red-arrow_down-right</title><path class="cls-1" d="M239.39,15185.41a1,1,0,0,0-.34,1.53c3.15,4,6.24,6.75,9,9.92,1.09,1.27,10.64,10.75,12.1,12.21,3.13,3.2,6.73,6.32,9,8.43a19.85,19.85,0,0,1-6.28-1.7,19.53,19.53,0,0,0-3.33-1.51,2.82,2.82,0,0,0-2.82.39c-1.08,1-2,2.86-1.21,3.74a5,5,0,0,0,2.27.66,36.13,36.13,0,0,1,3.77.94,107.84,107.84,0,0,0,13.7,3.06c1.28,0.22,2.19.34,2.68-.11s0.57-1.13.52-2.57a31.85,31.85,0,0,0-3-12.24,31.8,31.8,0,0,1-1.72-5.07,3.9,3.9,0,0,0-.61-1.54,3.49,3.49,0,0,0-4.44-.47,1,1,0,0,0-.13,1.23c0.54,1.07,1.32,2.41,2.18,3.94a24.14,24.14,0,0,1,3.09,8.88l0,0a54.44,54.44,0,0,1-9-7.33c-1.38-1.26-11-10.56-12.09-11.79-2-2.32-4.54-4.62-6.51-6.9a27.22,27.22,0,0,0-4.08-3.85A2.23,2.23,0,0,0,239.39,15185.41Z" transform="translate(-238.83 -15184.83)"/></svg>