<svg id="Interactive_elements" data-name="Interactive elements" xmlns="http://www.w3.org/2000/svg" viewBox="0 0 270.81 147.83"><defs><style>.cls-1{fill:#f37573;}.cls-2{fill:#c53a43;}.cls-3{fill:#88252b;}.cls-4{fill:#ffca00;}.cls-5{fill:#fff;}</style></defs><title>character-pivot-points</title><path class="cls-1" d="M220.5,7418.2s-7.51-7.43-4,5.23c1.3,4.76,9.08,9.33,9.08,9.33s2,9.21,6.49,12.41a43.9,43.9,0,0,1,6.27,5.11l-0.61,32,22.2-2.79,0.14-31.46s6.31-4.83,8.52-8.71,3.29-13.93,3.29-13.93,3.19-1.45,4.7-10.77c1.63-10.05-5-4.07-5-4.07l-5.47-21.17L222.31,7396Z" transform="translate(-195.82 -7376.36)"/><path class="cls-2" d="M235.58,7459.61s-25.18,3.18-30,8.49-6.37,9-7.2,18c-0.39,4.23-2.59,33.6-2.59,33.6l103.62,0.33s-0.85-32.26-.85-36.51-0.64-10.16-5.44-15.47-31.18-8.49-31.18-8.49-3.73,6.93-13.32,6.93-13.06-6.93-13.06-6.93" transform="translate(-195.82 -7376.36)"/><path class="cls-3" d="M224.35,7434.68c3.47,6.2,14.57,20,24.36,19s15.19-4.68,19.57-11.4,4.64-32.53,3.53-38.69c-0.48-2.69-3-4.35-2.5,1.46,1.68,18.87-2.49,23.44-3.81,26.43-2.35,5.3-10.38-.15-18.76.47s-13.44,7.64-18.3,2.59c-0.89-.93-5.17-8.15-6.61-22.23-0.29-2.86-1.65-7.64-2.23-7.73-2-.3,1.77,24.79,4.76,30.13" transform="translate(-195.82 -7376.36)"/><path class="cls-3" d="M273.18,7392.35c-2.29-7.09-9.09-17.37-29.33-15.83s-27.14,15.84-29,22.83c-1.46,5.36,3.58,16.31,5.62,20.54,0.62,1.28,4.07-12.64,4.07-12.64s9,5.88,17.76,5a19.25,19.25,0,0,0,7.4-2.88c-0.56,1.84-1,3.33-1.31,4.19,2.16-1.58,3.86-4.18,5.41-6.94,1.56-1.16,3.06-2.38,4.43-3.55a23.62,23.62,0,0,1-2.49,7.94,43.87,43.87,0,0,0,8.1-13.15c0.61-.61.95-1,0.95-1l7.54,17.53s3.18-15,.89-22.05" transform="translate(-195.82 -7376.36)"/><path class="cls-1" d="M267.95,7447.62c0.49-1.76-.7-3-3-2.73-2.48.29-4.79,2.32-6.87,3.55-4.74,2.8-8,7.72-13,10.24-8.81,4.43-2.42-9.13-4.63-13-0.86-1.51-3.27-3.25-5.15-2.63-3.47,1.14-.89,2.12-0.5,4.19,1.28,6.79,1.3,7.6-2.66,13.92a11.89,11.89,0,0,0-1.28,8.64c0.28,1.46,1.77,2.5,1.93,4.26,0.93,10.06-22.37,23.42-15.31,32.21,4.61,5.74,11.78,10.48,16.43,3.88,5-7.06,6.75-18.49,10.4-26.07,1.7-3.54,3.55-7.78,6.69-10.25,2.82-2.22,6.71-3.25,8.33-6.75,1.74-3.77-1.49-8.38.42-12,1.56-2.94,5.82-3.52,7.61-6.28A4.46,4.46,0,0,0,267.95,7447.62Z" transform="translate(-195.82 -7376.36)"/><path class="cls-3" d="M240.72,7451.51c-0.3,2.33-1.88,9.36,2.8,8.13a13.3,13.3,0,0,0,4.58-2.88c2.6-2.11,5-4.45,7.48-6.72a0.68,0.68,0,0,0-1-1c-3,2.76-5.91,5.8-9.28,8.09-0.67.46-2.1,1.56-3,1.24-1.72-.59-0.41-5.72-0.26-6.9,0.11-.86-1.24-0.85-1.35,0h0Z" transform="translate(-195.82 -7376.36)"/><path class="cls-3" d="M256.13,7457.34a16.84,16.84,0,0,1-6.06,5.39,0.68,0.68,0,0,0,.68,1.17,18.27,18.27,0,0,0,6.55-5.87c0.48-.73-0.69-1.41-1.17-0.68h0Z" transform="translate(-195.82 -7376.36)"/><path class="cls-3" d="M256.58,7462.29a6.79,6.79,0,0,1-2.69,2.91,0.68,0.68,0,0,0,.68,1.17,8,8,0,0,0,3.17-3.4c0.34-.79-0.82-1.48-1.17-0.68h0Z" transform="translate(-195.82 -7376.36)"/><path class="cls-4" d="M297.6,7427.79a7.69,7.69,0,0,0-.51,12.54c3.32,2.27,7.9,2.78,12.06-1.72C313.6,7433.81,307.72,7420.51,297.6,7427.79Z" transform="translate(-195.82 -7376.36)"/><path class="cls-4" d="M283.21,7437.48c-2.94,2.45-1.1,8.6,5.13,6.33S289.57,7432.2,283.21,7437.48Z" transform="translate(-195.82 -7376.36)"/><path class="cls-4" d="M369.85,7511.3c-14.33,6.37-32.74,1.75-42.35-10.65a24.68,24.68,0,0,0-4.14-4.77,26.59,26.59,0,0,0-5.69-2.8c-13.61-6-20.9-23.38-15.62-37.27s22.29-22.06,36.43-17.49c3.67-11.57,12.17-22.26,23.87-25.48s26.1,3.29,28.92,15.09c5.85-6.17,12.43-11.94,20.37-15s17.48-2.94,24.39,2,9.92,15.39,5.22,22.48c13.93-1.36,26.63,12.73,25.29,26.67s-14.84,25.05-28.84,25.33c6.2,7.65,1.18,19.31-6.73,25.18C416.4,7525.45,382.26,7530.4,369.85,7511.3Z" transform="translate(-195.82 -7376.36)"/><path class="cls-5" d="M327.17,7458.11a0.92,0.92,0,0,0-.14,1c0,0.29.12,0.59,0.19,0.87,0.13,0.55.29,1.09,0.43,1.64,0.38,1.54.76,3.56-.07,5.11a1.83,1.83,0,0,1-1,.94,1.64,1.64,0,0,1-1.32-.35c-0.92-.6-2-1-2.85-1.63a0.49,0.49,0,0,0-.32-0.12,0.24,0.24,0,0,0-.1.22,3.34,3.34,0,0,1-.86,2.14,1.61,1.61,0,0,1-.71.53,1.43,1.43,0,0,1-1.09-.22c-2.63-1.33-3.71-3.27-5.35-5.38a0.87,0.87,0,0,1-.2-0.34,0.91,0.91,0,0,1,.78-1.07,1.59,1.59,0,0,1,1.33.13,5.25,5.25,0,0,1,1.15,1.68,11.22,11.22,0,0,0,2.41,3,0.6,0.6,0,0,0,.51.21,0.46,0.46,0,0,0,.25-0.36c0.27-.92-0.57-2.63.55-2.95,1.38-.4,3.8,1.76,5,2.29a0.3,0.3,0,0,0,.24.05,0.47,0.47,0,0,0,.17-0.44,10.64,10.64,0,0,0-.33-3.45c-0.34-1.34-.92-2.6-1.31-3.91l0-.09a0.83,0.83,0,0,1,.77-1c0.85-.22,2.07,0,2.25.81A0.59,0.59,0,0,1,327.17,7458.11Z" transform="translate(-195.82 -7376.36)"/><path class="cls-5" d="M339.28,7464.52a0.7,0.7,0,0,1-.8-0.26l-0.25-.6a7.31,7.31,0,0,0-1.23-1.73c-0.51-.57-0.64-1.34-1.1-1.86a0.31,0.31,0,0,0-.29-0.11,0.23,0.23,0,0,0-.19.17c-0.12.21-.18,0.43-0.27,0.63a10,10,0,0,1-1,1.74c-0.52.76-.47,1.69-1,2.43a1.44,1.44,0,0,1-.83.47,0.78,0.78,0,0,1-1-.3c-0.18-.5-0.33-1-0.51-1.53-0.39-1.11-.81-2.23-1.18-3.34a32.7,32.7,0,0,1-1.15-3.72l-0.06-.27a8.53,8.53,0,0,1-.21-1.3,0.73,0.73,0,0,1,.71-0.75c0.62-.14,1.63,0,1.75.59a0.55,0.55,0,0,1,0,.25,12.39,12.39,0,0,0,.43,2.93l0.05,0.23a26.58,26.58,0,0,0,1,3.54c0.2,0.5.32,0.56,0.5,0.24,0.78-1.25,1.22-2.65,2.12-3.88a1.55,1.55,0,0,1,.9-0.68,1.18,1.18,0,0,1,1.07.44,15.78,15.78,0,0,1,1.46,2.19,22.7,22.7,0,0,0,2.05,2.83,1.11,1.11,0,0,1,.23.44A1.23,1.23,0,0,1,339.28,7464.52Z" transform="translate(-195.82 -7376.36)"/><path class="cls-5" d="M352.56,7462.69a0.68,0.68,0,0,1-.43-0.1,5.83,5.83,0,0,1-2.6-3.08,0.51,0.51,0,0,0-.46-0.4,0.71,0.71,0,0,0-.4.25c-0.29.31-.52,0.64-0.8,1a14.51,14.51,0,0,1-2.6,2.31,3.91,3.91,0,0,1-1.57.67,2.21,2.21,0,0,1-2.61-1.76,1.75,1.75,0,0,1,.17-1.14,10.16,10.16,0,0,1,4.35-3.93,4.35,4.35,0,0,1,1.47-.56c1-.13,1.29.42,1.64,0.37s0.35-.58,1-0.65a1.55,1.55,0,0,1,1.3.58c0.76,1.11.41,3.53,1.6,4.35a1.24,1.24,0,0,0,.58.23,0.52,0.52,0,0,1,.42.51A1.38,1.38,0,0,1,352.56,7462.69Zm-6.1-4.61a1.68,1.68,0,0,0-.55.3,9.2,9.2,0,0,0-2.63,2.47,0.39,0.39,0,0,0,0,.27,0.54,0.54,0,0,0,.7.33c0.59-.09,1.51-1.16,2-1.54a5.69,5.69,0,0,1,.7-0.45l0.22-.11A0.27,0.27,0,0,0,347,7459C346.95,7458.78,346.82,7458,346.45,7458.08Z" transform="translate(-195.82 -7376.36)"/><path class="cls-5" d="M362.39,7456.44a5.14,5.14,0,0,1-3.24,1.12c-0.47,0-1,0-1.4.07a0.36,0.36,0,0,0-.39.31,6.12,6.12,0,0,0,.68,2.23,2.94,2.94,0,0,1,.56,1.11,1.05,1.05,0,0,1-1,.94c-1.65.14-1.72-2.39-1.9-3.33a3.57,3.57,0,0,0-.43-1.09c-0.26-.45-1.83-0.22-1.93-1.24a1,1,0,0,1,1.08-1c0.17,0,.35,0,0.53,0s0.34-.09.31-0.18a17.65,17.65,0,0,1-1-3.35,0.77,0.77,0,0,1,.87-0.78c0.76-.07,1.82.32,1.88,1a0.84,0.84,0,0,1,0,.24,4.47,4.47,0,0,0-.12,1.44,8.6,8.6,0,0,0,.31,1.6,0.37,0.37,0,0,0,.44.27c0.55,0,1.09,0,1.61-.09a6.51,6.51,0,0,0,1.94-.33A1.74,1.74,0,0,1,362,7455a0.71,0.71,0,0,1,.74.71A1,1,0,0,1,362.39,7456.44Z" transform="translate(-195.82 -7376.36)"/><path class="cls-5" d="M380.15,7461.7a0.68,0.68,0,0,1-.42-0.16,5.85,5.85,0,0,1-2.1-3.44,0.51,0.51,0,0,0-.4-0.47,0.69,0.69,0,0,0-.43.19c-0.33.27-.61,0.55-0.94,0.82a14.56,14.56,0,0,1-2.91,1.89,3.9,3.9,0,0,1-1.65.43,2.2,2.2,0,0,1-2.3-2.13,1.72,1.72,0,0,1,.34-1.1,10.12,10.12,0,0,1,4.88-3.23,4.31,4.31,0,0,1,1.53-.33c1,0,1.22.61,1.56,0.61s0.43-.52,1-0.5a1.54,1.54,0,0,1,1.2.77c0.58,1.21-.12,3.55.93,4.54a1.22,1.22,0,0,0,.54.32,0.52,0.52,0,0,1,.34.56A1.38,1.38,0,0,1,380.15,7461.7Zm-5.33-5.47a1.69,1.69,0,0,0-.59.21,9.08,9.08,0,0,0-3,2,0.38,0.38,0,0,0-.08.26,0.54,0.54,0,0,0,.64.43c0.59,0,1.67-.91,2.2-1.22a5.44,5.44,0,0,1,.75-0.34l0.24-.07a0.27,0.27,0,0,0,.18-0.33C375.19,7457,375.18,7456.23,374.82,7456.23Z" transform="translate(-195.82 -7376.36)"/><path class="cls-5" d="M388.28,7457c-0.3,0-.55-0.21-0.85-0.23a0.6,0.6,0,0,0-.49.22c-0.92,1-.8,2.33-1.45,3.42a1.12,1.12,0,0,1-1.05.5,0.92,0.92,0,0,1-.91-0.69c-0.19-.76-0.39-1.48-0.62-2.22s-1.14-1.72-1.11-2.54a0.88,0.88,0,0,1,1.07-.8,1.37,1.37,0,0,1,.65.2,1.88,1.88,0,0,1,1,1.59c0,0.2,0,.42.09,0.63a0.13,0.13,0,0,0,.12.12,0.24,0.24,0,0,0,.2-0.15c0.62-.87.12-1.91,1.82-2.12a4.14,4.14,0,0,1,.68,0c0.81,0.06,1.78.46,1.72,1.24A0.87,0.87,0,0,1,388.28,7457Z" transform="translate(-195.82 -7376.36)"/><path class="cls-5" d="M399.43,7463.06a8.35,8.35,0,0,1-3.61.22,8.79,8.79,0,0,1-2.29-.57c-1.6-.64-3.73-1.69-3.57-3.45a4.49,4.49,0,0,1,.09-0.5c0.49-1.77,1.82-2.47,3.66-3.2a7.33,7.33,0,0,1,3.59-.6c1.29,0.16,3,1,2.77,2.22a1.8,1.8,0,0,1-.88,1.22c-1.41.87-2.77,0.63-4.33,1a5.58,5.58,0,0,1-1.81.16,1.38,1.38,0,0,1-.83-0.33c-0.08-.08-0.17-0.07-0.18.05-0.11,1.12,1.68,1.72,2.67,2.06a9.1,9.1,0,0,0,1.91.48,19,19,0,0,0,2.37.08h0.17a0.62,0.62,0,0,1,.59.69A0.5,0.5,0,0,1,399.43,7463.06Zm-1.82-6.43a6.32,6.32,0,0,0-.84,0,8.46,8.46,0,0,0-4.19,1.27c-0.14.15-.07,0.19,0.18,0.13,0.73-.12,1.45-0.13,2.22-0.19,0.55,0,2.88-.3,3-0.84A0.34,0.34,0,0,0,397.61,7456.62Z" transform="translate(-195.82 -7376.36)"/><path class="cls-5" d="M419.23,7467.19a1.1,1.1,0,0,1-.45-0.21c-1.05-.95-1-2.13-1-3.29a5.11,5.11,0,0,0,0-.85,0.27,0.27,0,0,0-.2-0.29,7.27,7.27,0,0,0-2.3,1.15,1.11,1.11,0,0,1-1,.22,2.59,2.59,0,0,1-1.44-1.93c-0.05-.16-0.17-0.17-0.32-0.07-1.1.71-1.84,1.79-3.13,2.28a2,2,0,0,1-1,0,0.85,0.85,0,0,1-.83-0.72c0-.39,0-0.79,0-1.18,0-.69-0.09-1.35-0.14-2a5.2,5.2,0,0,1,0-1.33,3.72,3.72,0,0,1,.71-1.53,0.67,0.67,0,0,1,.72-0.23,1.5,1.5,0,0,1,1.27,1.42c-0.1.5-.33,1-0.43,1.46a3.77,3.77,0,0,0,0,1.39,0.15,0.15,0,0,0,.27.07,8.73,8.73,0,0,0,2.68-2.62,1.06,1.06,0,0,1,1.14-.26,1,1,0,0,1,.82.65c0.07,0.69.1,1.41,0.19,2.12a0.22,0.22,0,0,0,.12.23,0.73,0.73,0,0,0,.33-0.06c1.55-.5,1.52-1.23,2.57-2a0.88,0.88,0,0,1,.76-0.13,1.53,1.53,0,0,1,1.15,1.13c0,0.57,0,1.14,0,1.71a17.23,17.23,0,0,0,.58,4.15,0.7,0.7,0,0,1,0,.38A1,1,0,0,1,419.23,7467.19Z" transform="translate(-195.82 -7376.36)"/><path class="cls-5" d="M430.65,7465.33c-1.13,1-2.33,1.93-3.5,2.81a30,30,0,0,0-4.29,3.78,1.33,1.33,0,0,1-1.14.26,0.52,0.52,0,0,1-.47-0.64,0.77,0.77,0,0,1,.07-0.19,12.59,12.59,0,0,1,3.07-3.2c0.26-.23.54-0.47,0.86-0.73s0.35-.26.12-0.49c-1.66-1.75-3.16-3.59-3.59-5.55a1.21,1.21,0,0,1,0-.31,1.25,1.25,0,0,1,1.41-.64,1,1,0,0,1,.63.55,22.06,22.06,0,0,0,2.86,4.64c0.2,0.23.32,0.36,0.59,0.22a9,9,0,0,0,2.21-2.1,0.88,0.88,0,0,1,1-.34,1.22,1.22,0,0,1,.84,1.27A2.12,2.12,0,0,1,430.65,7465.33Z" transform="translate(-195.82 -7376.36)"/><path class="cls-5" d="M336.95,7480.58a4.44,4.44,0,0,1-3.15,2.6c-0.34.08-.39,0.11-0.34,0.31,0.25,0.82.73,1.55,0.93,2.38a2.25,2.25,0,0,1-.51,2.26,0.88,0.88,0,0,1-.39.23,0.36,0.36,0,0,1-.48-0.22l-0.26-.7-0.66-1.9q-1.23-3.44-2.14-7c-0.25-1,.87-2,1.82-2.26l0.24,0a5.55,5.55,0,0,1,4.56,1.55,2.11,2.11,0,0,1,.62,1.08A2.72,2.72,0,0,1,336.95,7480.58Zm-4.56-2.4a0.75,0.75,0,0,0-.6.8c0.12,0.48.92,0.28,1.1,1a1.2,1.2,0,0,1-.25,1,0.19,0.19,0,0,0,.09.22,1.27,1.27,0,0,0,1.13.29c0.81-.2,1.84-1.16,1.66-2S333.24,7478,332.38,7478.18Z" transform="translate(-195.82 -7376.36)"/><path class="cls-5" d="M340.1,7477.19a2.77,2.77,0,0,1-.51.16,2.48,2.48,0,0,1-2.25-.75,0.63,0.63,0,0,1-.22-0.35,0.85,0.85,0,0,1,.82-0.84c0.67-.14,2.69,0,2.83.78A1.07,1.07,0,0,1,340.1,7477.19Zm2,8.54a1.07,1.07,0,0,1-.8-0.1,3.49,3.49,0,0,1-1.49-1.93c-0.24-.9-0.43-1.79-0.61-2.7l-0.25-1.21a0.61,0.61,0,0,1,.54-0.78,1.29,1.29,0,0,1,1.51.83c0.15,0.79.06,1.6,0.21,2.37,0.33,1.7,1.9,2.14,2,2.64S342.46,7485.66,342.07,7485.74Z" transform="translate(-195.82 -7376.36)"/><path class="cls-5" d="M350.62,7478.76a1.39,1.39,0,0,0-.5.78,8.23,8.23,0,0,0-.21,1.41,12.8,12.8,0,0,1-1.11,4.23,1.38,1.38,0,0,1-.73.83,1.5,1.5,0,0,1-1-.62,28.4,28.4,0,0,1-3-3.64,5.37,5.37,0,0,0-1.37-1.66,1.06,1.06,0,0,1-.53-0.66,1.33,1.33,0,0,1,1.2-1.2,1.11,1.11,0,0,1,.44,0,1.66,1.66,0,0,1,1.33,1.44,7.26,7.26,0,0,0,2.18,3,0.5,0.5,0,0,0,.34.21,0.47,0.47,0,0,0,.22-0.28,8.47,8.47,0,0,0,.72-3c0-.52,0-1,0.07-1.54a7.77,7.77,0,0,1,0-1,0.57,0.57,0,0,1,.45-0.56c0.74-.1,1.67,1.1,1.74,1.69A0.56,0.56,0,0,1,350.62,7478.76Z" transform="translate(-195.82 -7376.36)"/><path class="cls-5" d="M358.7,7480.31c-0.25,1.63-1.27,3.49-3.11,3.69a3.25,3.25,0,0,1-2-6.06,10.48,10.48,0,0,0,1.51-1.3,1.68,1.68,0,0,1,1.09-.62,1.17,1.17,0,0,1,1.19.64,8.65,8.65,0,0,1,1.35,3A2.92,2.92,0,0,1,358.7,7480.31Zm-1.85-1.39a0.11,0.11,0,0,0-.19,0,0.89,0.89,0,0,1-.55.29,4.82,4.82,0,0,1-1-.28,1.31,1.31,0,0,0-.6.34,1.59,1.59,0,0,0-.7,1.58,1.45,1.45,0,0,0,1.77,1.42,2,2,0,0,0,1.64-2.2A2.83,2.83,0,0,0,356.85,7478.92Z" transform="translate(-195.82 -7376.36)"/><path class="cls-5" d="M367.27,7478.1a4.15,4.15,0,0,1-2.88,1c-0.42,0-.84,0-1.24,0a0.32,0.32,0,0,0-.34.29,6.75,6.75,0,0,0,.57,2.25,3.25,3.25,0,0,1,.48,1.12,1,1,0,0,1-.93.91c-1.46.09-1.49-2.44-1.63-3.38a3.65,3.65,0,0,0-.36-1.11c-0.22-.46-1.61-0.28-1.69-1.29a0.88,0.88,0,0,1,1-1c0.16,0,.31,0,0.47,0s0.3-.08.28-0.17a19.5,19.5,0,0,1-.83-3.37,0.7,0.7,0,0,1,.78-0.75,1.51,1.51,0,0,1,1.65,1.06,1.08,1.08,0,0,1,0,.24,5,5,0,0,0-.13,1.43,9.1,9.1,0,0,0,.25,1.61,0.34,0.34,0,0,0,.38.29c0.48,0,1,0,1.43,0a5.11,5.11,0,0,0,1.72-.28,1.44,1.44,0,0,1,.72-0.34,0.69,0.69,0,0,1,.64.73A1.06,1.06,0,0,1,367.27,7478.1Z" transform="translate(-195.82 -7376.36)"/><path class="cls-5" d="M379.7,7476.83a4.42,4.42,0,0,1-3.68,1.71c-0.35,0-.4,0-0.4.21,0,0.86.31,1.68,0.3,2.54a2.26,2.26,0,0,1-1.06,2.06,0.91,0.91,0,0,1-.43.12,0.36,0.36,0,0,1-.4-0.33c0-.25,0-0.5-0.07-0.75l-0.16-2c-0.22-2.42-.3-4.85-0.29-7.29,0-1,1.34-1.74,2.32-1.72l0.24,0a5.52,5.52,0,0,1,4,2.65,2.16,2.16,0,0,1,.32,1.2A2.78,2.78,0,0,1,379.7,7476.83Zm-3.78-3.48a0.75,0.75,0,0,0-.78.63c0,0.49.82,0.5,0.8,1.27a1.23,1.23,0,0,1-.48.87,0.19,0.19,0,0,0,0,.24,1.27,1.27,0,0,0,1,.57c0.82,0,2.06-.65,2.1-1.51S376.8,7473.36,375.93,7473.35Z" transform="translate(-195.82 -7376.36)"/><path class="cls-5" d="M386.53,7480.27c-0.52,1.57-1.84,3.23-3.69,3.11a3.44,3.44,0,0,1-3.15-3.3,3.49,3.49,0,0,1,2.19-3,10.79,10.79,0,0,0,1.71-1,1.68,1.68,0,0,1,1.18-.43,1.16,1.16,0,0,1,1.07.83,8.48,8.48,0,0,1,.83,3.16A2.66,2.66,0,0,1,386.53,7480.27Zm-1.59-1.68c0-.08-0.08-0.13-0.19-0.05a0.89,0.89,0,0,1-.59.2,4.7,4.7,0,0,1-.91-0.44,1.29,1.29,0,0,0-.65.23,1.59,1.59,0,0,0-1,1.44,1.45,1.45,0,0,0,1.51,1.69,2,2,0,0,0,2-1.89A2.89,2.89,0,0,0,384.94,7478.59Z" transform="translate(-195.82 -7376.36)"/><path class="cls-5" d="M390,7474.88a2.68,2.68,0,0,1-.53,0,2.46,2.46,0,0,1-1.93-1.37,0.65,0.65,0,0,1-.1-0.39,0.85,0.85,0,0,1,1-.57c0.68,0.06,2.56.8,2.47,1.56A1.07,1.07,0,0,1,390,7474.88Zm-0.59,8.75a1.06,1.06,0,0,1-.73-0.33,3.49,3.49,0,0,1-.86-2.28c0-.93.11-1.84,0.2-2.76l0.11-1.23a0.61,0.61,0,0,1,.74-0.59,1.29,1.29,0,0,1,1.2,1.24c-0.08.8-.41,1.55-0.49,2.33-0.17,1.72,1.19,2.6,1.13,3.11S389.85,7483.67,389.46,7483.63Z" transform="translate(-195.82 -7376.36)"/><path class="cls-5" d="M398.12,7485.74a1.57,1.57,0,0,1-.55-0.22c-1.59-1-.43-3.29-0.86-4.37a0.85,0.85,0,0,0-.28-0.46,0.27,0.27,0,0,0-.23.1c-0.76.66-.87,1.81-1.86,2.26a1.47,1.47,0,0,1-.8.17,1.4,1.4,0,0,1-.94-1.59l0-.31a5.51,5.51,0,0,0-.5-3.23,0.51,0.51,0,0,1-.08-0.34,1.5,1.5,0,0,1,1.56-1.1,1,1,0,0,1,.47.17c0.63,0.43.3,2.37,0.42,3.1,0,0.09,0,.33.17,0.35a0.51,0.51,0,0,0,.31-0.16,6.5,6.5,0,0,0,1.31-1.73,0.56,0.56,0,0,1,.62-0.24,1.74,1.74,0,0,1,1.18.86,8.68,8.68,0,0,1,.35,3.1c0,0.43-.08,1.87.29,2.13a0.85,0.85,0,0,1,.49.84A0.94,0.94,0,0,1,398.12,7485.74Z" transform="translate(-195.82 -7376.36)"/><path class="cls-5" d="M408.37,7481.84a4.19,4.19,0,0,1-3.06.29c-0.41-.08-0.82-0.2-1.21-0.28a0.32,0.32,0,0,0-.41.2,6.93,6.93,0,0,0,0,2.32,3.25,3.25,0,0,1,.19,1.21,1,1,0,0,1-1.13.65c-1.44-.27-0.85-2.73-0.75-3.68a3.86,3.86,0,0,0-.08-1.16c-0.1-.5-1.5-0.67-1.33-1.67a0.88,0.88,0,0,1,1.19-.74c0.15,0,.3.09,0.45,0.12s0.31,0,.31-0.09a19.43,19.43,0,0,1,0-3.48,0.71,0.71,0,0,1,.94-0.53,1.52,1.52,0,0,1,1.35,1.44,0.87,0.87,0,0,1-.06.23,4.9,4.9,0,0,0-.48,1.36,9.38,9.38,0,0,0-.15,1.62,0.33,0.33,0,0,0,.3.37c0.47,0.13.94,0.22,1.4,0.31a5.17,5.17,0,0,0,1.75.16,1.46,1.46,0,0,1,.79-0.15,0.69,0.69,0,0,1,.45.86A1,1,0,0,1,408.37,7481.84Z" transform="translate(-195.82 -7376.36)"/><path class="cls-5" d="M415,7482.24a1.52,1.52,0,0,1-1.44.48c-0.6-.15-0.07-0.92-0.39-1-0.11,0-1.13.23-1.55,0.3a0.22,0.22,0,0,0-.21.14,0.17,0.17,0,0,0,0,.14c0.2,0.33.42,0.63,0.63,0.94a19.82,19.82,0,0,1,1.41,2.4,1.64,1.64,0,0,1,.11,1.08,1.44,1.44,0,0,1-.79.95,7,7,0,0,1-3.7.37,1.6,1.6,0,0,1-.76-0.36,1.16,1.16,0,0,1-.42-1,0.79,0.79,0,0,1,1-.56c0.33,0.08.58,0.34,0.92,0.42s1.59,0.06,1.69-.34a1.43,1.43,0,0,0-.18-0.68,7.79,7.79,0,0,0-1.71-2.31,1.81,1.81,0,0,1-.57-1.75,1.24,1.24,0,0,1,1.08-1,11,11,0,0,1,3.71-.45,1.47,1.47,0,0,1,.26.08,1.54,1.54,0,0,1,1,1.75A2.18,2.18,0,0,1,415,7482.24Z" transform="translate(-195.82 -7376.36)"/><path class="cls-5" d="M419.5,7483.06a4.52,4.52,0,0,0-1.41,2,1,1,0,0,1-1,.65c-0.59-.16-0.59-1.22-0.48-1.66,0.5-1.89,3.75-3.27,3.94-3.89a1.76,1.76,0,0,0-1.06-.78c-0.69-.19-1.39.1-2.1-0.09a1.71,1.71,0,0,1-1.26-1.77c0.21-.83,2.05-0.38,2.71-0.2a11.64,11.64,0,0,1,3,1.42,1.21,1.21,0,0,1,.6,1.47C422.1,7481.38,420.37,7482.27,419.5,7483.06Zm-3.14,6.08a1.69,1.69,0,0,1-.89-1.44c0.17-.65,1.25-0.77,1.82-0.61a1.05,1.05,0,0,1,.67,1.31A1.42,1.42,0,0,1,416.36,7489.14Z" transform="translate(-195.82 -7376.36)"/></svg>