<svg xmlns="http://www.w3.org/2000/svg" viewBox="0 0 265.34 84.46"><defs><style>.cls-1{fill:#2e8bbd;}.cls-2{font-size:22px;font-family:Cabin-Bold, Cabin;font-weight:700;letter-spacing:-0.03em;}.cls-2,.cls-6{fill:#fff;}.cls-3{letter-spacing:0.03em;}.cls-4{letter-spacing:-0.01em;}.cls-5{letter-spacing:0.02em;}.cls-6{stroke:#fff;stroke-miterlimit:10;stroke-width:0.3px;}</style></defs><title>Asset 1fill</title><g id="Layer_2" data-name="Layer 2"><g id="Interactive_elements" data-name="Interactive elements"><path class="cls-1" d="M255.26,0H9.7C4.37,0,0,4.36,0,8.54V75.37c0,4.18,4.37,8.54,9.7,8.54H255.26c5.34,0,9.7-4.36,9.7-8.54V8.54C265,4.36,260.6,0,255.26,0Z"/><text class="cls-2" transform="translate(67.03 67.16)">V<tspan class="cls-3" x="13.88" y="0">ocal </tspan><tspan class="cls-4" x="60.54" y="0">V</tspan><tspan class="cls-5" x="74.67" y="0">ariety</tspan></text><path class="cls-6" d="M107.73,30.85a.37.37,0,0,0-.38.37v7.61a.38.38,0,0,0,.75,0V31.22A.37.37,0,0,0,107.73,30.85Z"/><path class="cls-6" d="M111.47,21.24a.39.39,0,0,0-.38.4V39.06a.38.38,0,1,0,.75,0V21.64A.39.39,0,0,0,111.47,21.24Z"/><path class="cls-6" d="M115.21,16a.38.38,0,0,0-.38.39V38.88a.38.38,0,1,0,.75,0V16.34A.38.38,0,0,0,115.21,16Z"/><path class="cls-6" d="M119,12.94a.38.38,0,0,0-.38.39V39.16a.38.38,0,1,0,.75,0V13.33A.38.38,0,0,0,119,12.94Z"/><path class="cls-6" d="M122.7,13.12a.37.37,0,0,0-.38.37V39.1a.38.38,0,0,0,.75,0V13.49A.37.37,0,0,0,122.7,13.12Z"/><path class="cls-6" d="M126.44,17.72a.39.39,0,0,0-.38.4V39.07a.38.38,0,1,0,.75,0V18.12A.39.39,0,0,0,126.44,17.72Z"/><path class="cls-6" d="M130.18,30.77a.37.37,0,0,0-.38.37v8a.38.38,0,0,0,.75,0v-8A.37.37,0,0,0,130.18,30.77Z"/><path class="cls-6" d="M141.5,31a.37.37,0,0,0-.38.37V39a.38.38,0,0,0,.75,0V31.35A.37.37,0,0,0,141.5,31Z"/><path class="cls-6" d="M145.1,26.81a.37.37,0,0,0-.38.37V39a.38.38,0,0,0,.75,0V27.18A.37.37,0,0,0,145.1,26.81Z"/><path class="cls-6" d="M148.71,29.05a.37.37,0,0,0-.38.37V39a.38.38,0,0,0,.75,0V29.42A.37.37,0,0,0,148.71,29.05Z"/><path class="cls-6" d="M152.55,39.3a.5.5,0,0,1-.46-.31c0-.08-.83-2.07-1.13-2.91-.47-1.33-1-2.57-1.56-3.88l-.34-.8c-1.11-2.61-2.45-3.81-3.33-4.06a1.76,1.76,0,0,0-1.56.34c-1.46,1-2,3-2.67,5.08a14.56,14.56,0,0,1-1.83,4.36,5.08,5.08,0,0,1-4.4,2.11c-1.86,0-3.35-1.28-4.44-3.81A32.66,32.66,0,0,1,129.1,29c-.14-.74-.26-1.38-.39-1.87s-.21-.87-.33-1.4c-1-4.26-2.78-12.19-7.24-12.24h-.07a7.8,7.8,0,0,0-5.76,3,21.06,21.06,0,0,0-3.53,5.81c-4.21,10.16-6.27,16.63-6.29,16.7a.5.5,0,0,1-.95-.3c0-.06,2.09-6.57,6.32-16.78a22.07,22.07,0,0,1,3.71-6.09c2-2.22,4.22-3.33,6.58-3.31,5.25.06,7.17,8.49,8.2,13,.12.53.23,1,.32,1.39s.25,1.17.4,1.92c.68,3.53,1.81,9.45,5.18,9.45,3.55,0,4.35-2.67,5.28-5.76.65-2.14,1.31-4.36,3-5.6a2.73,2.73,0,0,1,2.41-.49c2.12.59,3.58,3.69,4,4.63l.34.8c.57,1.33,1.1,2.58,1.59,3.95.29.82,1.1,2.85,1.11,2.87a.5.5,0,0,1-.46.68Z"/><path class="cls-6" d="M156.46,39.65h-56c-.18,0-.33-.21-.33-.48s.15-.48.33-.48h56c.18,0,.33.21.33.48S156.64,39.65,156.46,39.65Z"/></g></g></svg>