<svg id="Interactive_elements" data-name="Interactive elements" xmlns="http://www.w3.org/2000/svg" xmlns:xlink="http://www.w3.org/1999/xlink" viewBox="0 0 711.82 626.64"><defs><style>.cls-1,.cls-4,.cls-6{fill:none;}.cls-2{clip-path:url(#clip-path);}.cls-3{fill:#d5e8f2;}.cls-4,.cls-6{stroke:#a7a7a7;stroke-linecap:round;stroke-width:3.5px;}.cls-5{fill:#a7a7a7;}.cls-6{stroke-linejoin:round;}.cls-7{fill:#2e8bbd;}.cls-8{fill:#fff;}</style><clipPath id="clip-path" transform="translate(-195.35 -8114.98)"><rect class="cls-1" x="181.87" y="8104.5" width="738.78" height="637.49"/></clipPath></defs><title>cornerstones-1-listeners</title><g class="cls-2"><path class="cls-3" d="M560.76,8122.4s-9.52-16.69-19,0L197.89,8724.93s-10.19,16.69,10.31,16.69H894.25s19.86,0,10.33-16.69Z" transform="translate(-195.35 -8114.98)"/></g><path class="cls-4" d="M441.94,8223.63s-86.37,32.74-138.81,136.51c-34.95,69.14-36.49,142.15-35.5,170.74" transform="translate(-195.35 -8114.98)"/><polygon class="cls-5" points="64.27 410.42 72.22 413.3 79.8 409.58 73.03 428.41 64.27 410.42"/><path class="cls-6" d="M692.92,8387.23C729,8354.36,731,8312,699.23,8278.14" transform="translate(-195.35 -8114.98)"/><polygon class="cls-5" points="513.45 161.75 505.67 165.04 502.63 172.93 494.79 154.53 513.45 161.75"/><circle class="cls-7" cx="478.51" cy="287.37" r="15.19"/><path class="cls-8" d="M670.23,8407.32h2.9v-7.62q0-.56,0-1.17l-1.71,1.42a1.08,1.08,0,0,1-.33.19,1,1,0,0,1-.32.06,1,1,0,0,1-.48-0.12,1,1,0,0,1-.32-0.25l-1-1.35,4.71-4h2.65v12.79h2.49v2.32h-8.61v-2.32Z" transform="translate(-195.35 -8114.98)"/><path class="cls-8" d="M670.23,8407.32h2.9v-7.62q0-.56,0-1.17l-1.71,1.42a1.08,1.08,0,0,1-.33.19,1,1,0,0,1-.32.06,1,1,0,0,1-.48-0.12,1,1,0,0,1-.32-0.25l-1-1.35,4.71-4h2.65v12.79h2.49v2.32h-8.61v-2.32Z" transform="translate(-195.35 -8114.98)"/><circle class="cls-5" cx="258.96" cy="501.66" r="15.19"/><path class="cls-3" d="M454.6,8608.66a5.81,5.81,0,0,1,2,.32,4.46,4.46,0,0,1,1.47.86,3.61,3.61,0,0,1,.91,1.25,3.69,3.69,0,0,1,.31,1.5,4.91,4.91,0,0,1-.15,1.26,2.88,2.88,0,0,1-.43.94,2.69,2.69,0,0,1-.71.68,4.22,4.22,0,0,1-1,.47,3.35,3.35,0,0,1,2.51,3.41,4.72,4.72,0,0,1-.44,2.09,4.31,4.31,0,0,1-1.17,1.48,5,5,0,0,1-1.7.89,6.82,6.82,0,0,1-2,.3,7.19,7.19,0,0,1-1.92-.23,4.42,4.42,0,0,1-1.49-.73,4.8,4.8,0,0,1-1.15-1.26,8.46,8.46,0,0,1-.86-1.83l1.43-.58a1.53,1.53,0,0,1,.37-0.11,2.14,2.14,0,0,1,.36,0,1.33,1.33,0,0,1,.6.13,0.88,0.88,0,0,1,.4.38,3.77,3.77,0,0,0,1,1.25,2,2,0,0,0,1.23.39,2.25,2.25,0,0,0,.94-0.18,2,2,0,0,0,.66-0.47,1.94,1.94,0,0,0,.4-0.65,2.1,2.1,0,0,0,.13-0.74,5.17,5.17,0,0,0-.07-0.88,1.14,1.14,0,0,0-.38-0.67,2.15,2.15,0,0,0-.94-0.43,7.92,7.92,0,0,0-1.75-.15v-2.22a6.5,6.5,0,0,0,1.52-.14,2.34,2.34,0,0,0,.9-0.4,1.21,1.21,0,0,0,.42-0.62,2.9,2.9,0,0,0,.1-0.8,2,2,0,0,0-.43-1.37,1.67,1.67,0,0,0-1.31-.48,2,2,0,0,0-.66.1,2,2,0,0,0-.54.28,1.85,1.85,0,0,0-.41.42,2.19,2.19,0,0,0-.27.52,1.5,1.5,0,0,1-.42.67,1.06,1.06,0,0,1-.69.21h-0.22l-0.24,0-1.7-.3a5.67,5.67,0,0,1,.64-2,4.65,4.65,0,0,1,2.77-2.23A6.64,6.64,0,0,1,454.6,8608.66Z" transform="translate(-195.35 -8114.98)"/><path class="cls-8" d="M454.6,8608.66a5.81,5.81,0,0,1,2,.32,4.46,4.46,0,0,1,1.47.86,3.61,3.61,0,0,1,.91,1.25,3.69,3.69,0,0,1,.31,1.5,4.91,4.91,0,0,1-.15,1.26,2.88,2.88,0,0,1-.43.94,2.69,2.69,0,0,1-.71.68,4.22,4.22,0,0,1-1,.47,3.35,3.35,0,0,1,2.51,3.41,4.72,4.72,0,0,1-.44,2.09,4.31,4.31,0,0,1-1.17,1.48,5,5,0,0,1-1.7.89,6.82,6.82,0,0,1-2,.3,7.19,7.19,0,0,1-1.92-.23,4.42,4.42,0,0,1-1.49-.73,4.8,4.8,0,0,1-1.15-1.26,8.46,8.46,0,0,1-.86-1.83l1.43-.58a1.53,1.53,0,0,1,.37-0.11,2.14,2.14,0,0,1,.36,0,1.33,1.33,0,0,1,.6.13,0.88,0.88,0,0,1,.4.38,3.77,3.77,0,0,0,1,1.25,2,2,0,0,0,1.23.39,2.25,2.25,0,0,0,.94-0.18,2,2,0,0,0,.66-0.47,1.94,1.94,0,0,0,.4-0.65,2.1,2.1,0,0,0,.13-0.74,5.17,5.17,0,0,0-.07-0.88,1.14,1.14,0,0,0-.38-0.67,2.15,2.15,0,0,0-.94-0.43,7.92,7.92,0,0,0-1.75-.15v-2.22a6.5,6.5,0,0,0,1.52-.14,2.34,2.34,0,0,0,.9-0.4,1.21,1.21,0,0,0,.42-0.62,2.9,2.9,0,0,0,.1-0.8,2,2,0,0,0-.43-1.37,1.67,1.67,0,0,0-1.31-.48,2,2,0,0,0-.66.1,2,2,0,0,0-.54.28,1.85,1.85,0,0,0-.41.42,2.19,2.19,0,0,0-.27.52,1.5,1.5,0,0,1-.42.67,1.06,1.06,0,0,1-.69.21h-0.22l-0.24,0-1.7-.3a5.67,5.67,0,0,1,.64-2,4.65,4.65,0,0,1,2.77-2.23A6.64,6.64,0,0,1,454.6,8608.66Z" transform="translate(-195.35 -8114.98)"/><circle class="cls-5" cx="439.78" cy="501.66" r="15.19"/><path class="cls-3" d="M639,8618.07h1.56v1.8a0.58,0.58,0,0,1-.62.59H639v3.47h-2.8v-3.47h-6.08a0.87,0.87,0,0,1-.54-0.19,0.79,0.79,0,0,1-.31-0.47l-0.33-1.59,7-9.39H639v9.24Zm-2.8-3.94q0-.36,0-0.78t0.08-.87l-4,5.59h3.89v-3.94Z" transform="translate(-195.35 -8114.98)"/><path class="cls-8" d="M639,8618.07h1.56v1.8a0.58,0.58,0,0,1-.62.59H639v3.47h-2.8v-3.47h-6.08a0.87,0.87,0,0,1-.54-0.19,0.79,0.79,0,0,1-.31-0.47l-0.33-1.59,7-9.39H639v9.24Zm-2.8-3.94q0-.36,0-0.78t0.08-.87l-4,5.59h3.89v-3.94Z" transform="translate(-195.35 -8114.98)"/><circle class="cls-5" cx="478.51" cy="138.64" r="15.19"/><path class="cls-8" d="M673.86,8245.64a5.86,5.86,0,0,1,2,.33,4.52,4.52,0,0,1,1.53.91,3.91,3.91,0,0,1,1,1.38,4.53,4.53,0,0,1,.34,1.77,4.86,4.86,0,0,1-.23,1.53,6,6,0,0,1-.64,1.34,9.34,9.34,0,0,1-.94,1.23q-0.53.6-1.14,1.21l-3,3a10.76,10.76,0,0,1,1.12-.26,6,6,0,0,1,1-.1h2.82a1.14,1.14,0,0,1,.82.29,1,1,0,0,1,.3.75v1.87H668.3v-1a1.89,1.89,0,0,1,.12-0.64,1.55,1.55,0,0,1,.44-0.62l4.35-4.39a14.36,14.36,0,0,0,1-1.07,6.6,6.6,0,0,0,.68-1,4.57,4.57,0,0,0,.4-1,3.94,3.94,0,0,0,.13-1,2,2,0,0,0-.43-1.38,1.67,1.67,0,0,0-1.31-.48,2,2,0,0,0-.66.1,2,2,0,0,0-.54.28,1.85,1.85,0,0,0-.41.42,2.18,2.18,0,0,0-.27.52,1.5,1.5,0,0,1-.42.67,1.06,1.06,0,0,1-.69.21h-0.22l-0.24,0-1.7-.3a5.67,5.67,0,0,1,.64-2,4.65,4.65,0,0,1,2.77-2.23A6.64,6.64,0,0,1,673.86,8245.64Z" transform="translate(-195.35 -8114.98)"/><path class="cls-8" d="M673.86,8245.64a5.86,5.86,0,0,1,2,.33,4.52,4.52,0,0,1,1.53.91,3.91,3.91,0,0,1,1,1.38,4.53,4.53,0,0,1,.34,1.77,4.86,4.86,0,0,1-.23,1.53,6,6,0,0,1-.64,1.34,9.34,9.34,0,0,1-.94,1.23q-0.53.6-1.14,1.21l-3,3a10.76,10.76,0,0,1,1.12-.26,6,6,0,0,1,1-.1h2.82a1.14,1.14,0,0,1,.82.29,1,1,0,0,1,.3.75v1.87H668.3v-1a1.89,1.89,0,0,1,.12-0.64,1.55,1.55,0,0,1,.44-0.62l4.35-4.39a14.36,14.36,0,0,0,1-1.07,6.6,6.6,0,0,0,.68-1,4.57,4.57,0,0,0,.4-1,3.94,3.94,0,0,0,.13-1,2,2,0,0,0-.43-1.38,1.67,1.67,0,0,0-1.31-.48,2,2,0,0,0-.66.1,2,2,0,0,0-.54.28,1.85,1.85,0,0,0-.41.42,2.18,2.18,0,0,0-.27.52,1.5,1.5,0,0,1-.42.67,1.06,1.06,0,0,1-.69.21h-0.22l-0.24,0-1.7-.3a5.67,5.67,0,0,1,.64-2,4.65,4.65,0,0,1,2.77-2.23A6.64,6.64,0,0,1,673.86,8245.64Z" transform="translate(-195.35 -8114.98)"/><path class="cls-4" d="M474.66,8643s20.66,18.5,69,18.5c27.81,0,48.42-8.5,59.94-14.86" transform="translate(-195.35 -8114.98)"/><polygon class="cls-5" points="407.33 541.27 406 532.93 399.06 528.1 418.81 524.88 407.33 541.27"/></svg>