<svg id="Interactive_elements" data-name="Interactive elements" xmlns="http://www.w3.org/2000/svg" viewBox="0 0 30.37 30.37"><defs><style>.cls-1{fill:#2e8bbd;}.cls-2{fill:#fff;}</style></defs><title>number2-blue</title><circle class="cls-1" cx="15.19" cy="15.19" r="15.19"/><path class="cls-2" d="M2282,8240.91a5.86,5.86,0,0,1,2,.33,4.52,4.52,0,0,1,1.53.91,3.91,3.91,0,0,1,1,1.38,4.53,4.53,0,0,1,.34,1.77,4.85,4.85,0,0,1-.23,1.53,6,6,0,0,1-.64,1.34,9.34,9.34,0,0,1-.94,1.23q-0.53.6-1.14,1.21l-3,3a10.75,10.75,0,0,1,1.12-.26,6,6,0,0,1,1-.1h2.82a1.15,1.15,0,0,1,.82.29,1,1,0,0,1,.3.75v1.87h-10.62v-1a1.89,1.89,0,0,1,.12-0.64,1.55,1.55,0,0,1,.44-0.62l4.35-4.39a14.44,14.44,0,0,0,1-1.07,6.59,6.59,0,0,0,.68-1,4.58,4.58,0,0,0,.4-1,3.94,3.94,0,0,0,.13-1,2,2,0,0,0-.43-1.38,1.67,1.67,0,0,0-1.31-.48,2,2,0,0,0-.66.1,2,2,0,0,0-.54.28,1.86,1.86,0,0,0-.41.42,2.19,2.19,0,0,0-.27.52,1.5,1.5,0,0,1-.42.67,1.06,1.06,0,0,1-.69.21h-0.22l-0.24,0-1.7-.3a5.68,5.68,0,0,1,.64-2,4.65,4.65,0,0,1,2.77-2.23A6.64,6.64,0,0,1,2282,8240.91Z" transform="translate(-2266.83 -8233.7)"/><path class="cls-2" d="M2282,8240.91a5.86,5.86,0,0,1,2,.33,4.52,4.52,0,0,1,1.53.91,3.91,3.91,0,0,1,1,1.38,4.53,4.53,0,0,1,.34,1.77,4.85,4.85,0,0,1-.23,1.53,6,6,0,0,1-.64,1.34,9.34,9.34,0,0,1-.94,1.23q-0.53.6-1.14,1.21l-3,3a10.75,10.75,0,0,1,1.12-.26,6,6,0,0,1,1-.1h2.82a1.15,1.15,0,0,1,.82.29,1,1,0,0,1,.3.75v1.87h-10.62v-1a1.89,1.89,0,0,1,.12-0.64,1.55,1.55,0,0,1,.44-0.62l4.35-4.39a14.44,14.44,0,0,0,1-1.07,6.59,6.59,0,0,0,.68-1,4.58,4.58,0,0,0,.4-1,3.94,3.94,0,0,0,.13-1,2,2,0,0,0-.43-1.38,1.67,1.67,0,0,0-1.31-.48,2,2,0,0,0-.66.1,2,2,0,0,0-.54.28,1.86,1.86,0,0,0-.41.42,2.19,2.19,0,0,0-.27.52,1.5,1.5,0,0,1-.42.67,1.06,1.06,0,0,1-.69.21h-0.22l-0.24,0-1.7-.3a5.68,5.68,0,0,1,.64-2,4.65,4.65,0,0,1,2.77-2.23A6.64,6.64,0,0,1,2282,8240.91Z" transform="translate(-2266.83 -8233.7)"/></svg>