<svg id="Interactive_elements" data-name="Interactive elements" xmlns="http://www.w3.org/2000/svg" viewBox="0 0 30.37 30.37"><defs><style>.cls-1{fill:#a7a7a7;}.cls-2{fill:#ededed;}.cls-3{fill:#fff;}</style></defs><title>number3-gray</title><circle class="cls-1" cx="15.19" cy="15.19" r="15.19"/><path class="cls-2" d="M6772.93,8619.93a5.81,5.81,0,0,1,2,.32,4.46,4.46,0,0,1,1.47.86,3.61,3.61,0,0,1,.91,1.25,3.69,3.69,0,0,1,.31,1.5,4.91,4.91,0,0,1-.15,1.26,2.88,2.88,0,0,1-.43.94,2.68,2.68,0,0,1-.71.68,4.22,4.22,0,0,1-1,.47,3.35,3.35,0,0,1,2.51,3.41,4.71,4.71,0,0,1-.44,2.09,4.31,4.31,0,0,1-1.17,1.48,5,5,0,0,1-1.7.89,6.81,6.81,0,0,1-2,.3,7.19,7.19,0,0,1-1.92-.23,4.42,4.42,0,0,1-1.49-.73,4.8,4.8,0,0,1-1.15-1.26,8.43,8.43,0,0,1-.86-1.83l1.43-.58a1.53,1.53,0,0,1,.37-0.11,2.14,2.14,0,0,1,.36,0,1.33,1.33,0,0,1,.6.13,0.88,0.88,0,0,1,.4.38,3.77,3.77,0,0,0,1,1.25,2,2,0,0,0,1.23.39,2.25,2.25,0,0,0,.94-0.18,2,2,0,0,0,.66-0.47,1.93,1.93,0,0,0,.4-0.65,2.1,2.1,0,0,0,.13-0.74,5.15,5.15,0,0,0-.07-0.88,1.14,1.14,0,0,0-.38-0.67,2.15,2.15,0,0,0-.94-0.43,7.92,7.92,0,0,0-1.75-.15v-2.22a6.5,6.5,0,0,0,1.52-.14,2.34,2.34,0,0,0,.9-0.4,1.21,1.21,0,0,0,.42-0.62,2.91,2.91,0,0,0,.1-0.8,2,2,0,0,0-.43-1.37,1.67,1.67,0,0,0-1.31-.48,2,2,0,0,0-.66.1,2,2,0,0,0-.54.28,1.85,1.85,0,0,0-.41.42,2.21,2.21,0,0,0-.27.52,1.5,1.5,0,0,1-.42.67,1.06,1.06,0,0,1-.69.21h-0.22l-0.24,0-1.7-.3a5.67,5.67,0,0,1,.64-2,4.65,4.65,0,0,1,2.77-2.23A6.64,6.64,0,0,1,6772.93,8619.93Z" transform="translate(-6757.46 -8612.72)"/><path class="cls-3" d="M6772.93,8619.93a5.81,5.81,0,0,1,2,.32,4.46,4.46,0,0,1,1.47.86,3.61,3.61,0,0,1,.91,1.25,3.69,3.69,0,0,1,.31,1.5,4.91,4.91,0,0,1-.15,1.26,2.88,2.88,0,0,1-.43.94,2.68,2.68,0,0,1-.71.68,4.22,4.22,0,0,1-1,.47,3.35,3.35,0,0,1,2.51,3.41,4.71,4.71,0,0,1-.44,2.09,4.31,4.31,0,0,1-1.17,1.48,5,5,0,0,1-1.7.89,6.81,6.81,0,0,1-2,.3,7.19,7.19,0,0,1-1.92-.23,4.42,4.42,0,0,1-1.49-.73,4.8,4.8,0,0,1-1.15-1.26,8.43,8.43,0,0,1-.86-1.83l1.43-.58a1.53,1.53,0,0,1,.37-0.11,2.14,2.14,0,0,1,.36,0,1.33,1.33,0,0,1,.6.13,0.88,0.88,0,0,1,.4.38,3.77,3.77,0,0,0,1,1.25,2,2,0,0,0,1.23.39,2.25,2.25,0,0,0,.94-0.18,2,2,0,0,0,.66-0.47,1.93,1.93,0,0,0,.4-0.65,2.1,2.1,0,0,0,.13-0.74,5.15,5.15,0,0,0-.07-0.88,1.14,1.14,0,0,0-.38-0.67,2.15,2.15,0,0,0-.94-0.43,7.92,7.92,0,0,0-1.75-.15v-2.22a6.5,6.5,0,0,0,1.52-.14,2.34,2.34,0,0,0,.9-0.4,1.21,1.21,0,0,0,.42-0.62,2.91,2.91,0,0,0,.1-0.8,2,2,0,0,0-.43-1.37,1.67,1.67,0,0,0-1.31-.48,2,2,0,0,0-.66.1,2,2,0,0,0-.54.28,1.85,1.85,0,0,0-.41.42,2.21,2.21,0,0,0-.27.52,1.5,1.5,0,0,1-.42.67,1.06,1.06,0,0,1-.69.21h-0.22l-0.24,0-1.7-.3a5.67,5.67,0,0,1,.64-2,4.65,4.65,0,0,1,2.77-2.23A6.64,6.64,0,0,1,6772.93,8619.93Z" transform="translate(-6757.46 -8612.72)"/></svg>