<?xml version="1.0" encoding="utf-8"?>
<!-- Generator: Adobe Illustrator 19.2.1, SVG Export Plug-In . SVG Version: 6.00 Build 0)  -->
<svg version="1.1" id="Main_screen" xmlns="http://www.w3.org/2000/svg" xmlns:xlink="http://www.w3.org/1999/xlink" x="0px"
	 y="0px" viewBox="0 0 31.4 30.9" style="enable-background:new 0 0 31.4 30.9;" xml:space="preserve">
<style type="text/css">
	.st0{fill:#DCDCDC;}
</style>
<title>close-ws-X-w-text</title>
<path class="st0" d="M0,27.3c-0.1-1.9,1.2-3.5,3.1-3.6c0.1,0,0.2,0,0.3,0c0.7,0,1.4,0.1,2,0.4l-0.1,1.2c-0.6-0.3-1.2-0.4-1.8-0.4
	c-1.4,0-2,1-2,2.4s0.7,2.4,2,2.4c0.6,0,1.3-0.1,1.8-0.4l0.1,1.2c-0.6,0.3-1.3,0.4-2,0.4C1.6,31,0,29.5,0,27.6C0,27.5,0,27.4,0,27.3z
	"/>
<path class="st0" d="M7,30.8v-7h1.3v5.8h2.9v1.2L7,30.8L7,30.8z"/>
<path class="st0" d="M12,26.8c0.1-1.9,1.7-3.4,3.6-3.3c1.9,0.1,3.2,1.6,3.2,3.9c0,2-1.6,3.5-3.4,3.5c-1.9,0-3.4-1.4-3.5-3.3
	C11.9,27.5,12,26.9,12,26.8z M13.4,27.3c0,1.4,0.7,2.4,2,2.4s2-1,2-2.4s-0.7-2.4-2-2.4S13.4,25.9,13.4,27.3z"/>
<path class="st0" d="M20.2,30.4l0.2-1.5c0.6,0.5,1.4,0.8,2.2,0.7c0.8,0,1.2-0.2,1.2-0.8s-0.8-1-1.6-1.2s-2.1-0.7-2.1-1.9
	c0-0.9,0.6-2.1,2.5-2.1c0.8,0,1.5,0.2,2.2,0.5l-0.1,1.3c-0.6-0.4-1.3-0.6-2-0.6c-0.5,0-1.3,0.1-1.3,0.7s0.7,0.8,1.4,1
	c1.1,0.3,2.4,0.7,2.4,2.3c0,0.8-0.3,2-2.7,2C21.7,30.9,20.9,30.8,20.2,30.4z"/>
<path class="st0" d="M26.8,30.8v-7h4.5V25h-3.2v1.5h2.5v1.2h-2.5v1.8h3.3v1.2L26.8,30.8L26.8,30.8z"/>
<path class="st0" d="M19.5,9.2l5.6-5.6c0.8-0.8,0.8-2.1,0-2.9s-2.1-0.8-2.9,0l0,0l-5.6,5.6l-5.6-5.6c-0.8-0.8-2.1-0.8-2.9,0
	S7.2,2.7,8,3.5l0,0l5.6,5.6L8,14.8c-0.8,0.8-0.8,2.1,0,2.9s2.1,0.8,2.9,0l0,0l5.6-5.6l5.6,5.6c0.9,0.7,2.2,0.6,2.9-0.3
	c0.6-0.8,0.6-1.9,0-2.6L19.5,9.2z"/>
</svg>
