<svg id="Layer_1" data-name="Layer 1" xmlns="http://www.w3.org/2000/svg" viewBox="0 0 285 12.59"><defs><style>.cls-1{fill:#c63d44;}</style></defs><title>Communicate-to-Influence</title><path class="cls-1" d="M138.88,496.41v0a6.16,6.16,0,0,1,6.28-6.3,6.35,6.35,0,0,1,4.77,1.9l-1.37,1.58a4.84,4.84,0,0,0-3.41-1.51,4.09,4.09,0,0,0-4,4.3v0a4.12,4.12,0,0,0,4,4.33,4.77,4.77,0,0,0,3.5-1.58l1.37,1.39a6.28,6.28,0,0,1-4.94,2.16A6.12,6.12,0,0,1,138.88,496.41Z" transform="translate(-138.88 -490.08)"/><path class="cls-1" d="M151.67,496.41v0a6.37,6.37,0,0,1,12.73,0v0A6.37,6.37,0,0,1,151.67,496.41Zm10.49,0v0A4.17,4.17,0,0,0,158,492a4.11,4.11,0,0,0-4.1,4.3v0a4.17,4.17,0,0,0,4.14,4.33A4.11,4.11,0,0,0,162.16,496.41Z" transform="translate(-138.88 -490.08)"/><path class="cls-1" d="M167.26,490.29h2.28l3.7,5.76,3.7-5.76h2.28v12.17h-2.14v-8.73l-3.84,5.74h-0.07l-3.81-5.7v8.7h-2.1V490.29Z" transform="translate(-138.88 -490.08)"/><path class="cls-1" d="M182.71,490.29H185l3.7,5.76,3.7-5.76h2.28v12.17h-2.14v-8.73l-3.84,5.74h-0.07l-3.81-5.7v8.7h-2.1V490.29Z" transform="translate(-138.88 -490.08)"/><path class="cls-1" d="M198.2,497.3v-7h2.14v6.92c0,2.26,1.17,3.48,3.08,3.48s3.06-1.15,3.06-3.39v-7h2.14v6.91c0,3.63-2.05,5.46-5.24,5.46S198.2,500.83,198.2,497.3Z" transform="translate(-138.88 -490.08)"/><path class="cls-1" d="M212.13,490.29h2l6.52,8.42v-8.42h2.1v12.17H221l-6.71-8.66v8.66h-2.1V490.29Z" transform="translate(-138.88 -490.08)"/><path class="cls-1" d="M226.52,490.29h2.14v12.17h-2.14V490.29Z" transform="translate(-138.88 -490.08)"/><path class="cls-1" d="M231.75,496.41v0a6.16,6.16,0,0,1,6.28-6.3,6.35,6.35,0,0,1,4.77,1.9l-1.37,1.58A4.84,4.84,0,0,0,238,492a4.09,4.09,0,0,0-4,4.3v0a4.12,4.12,0,0,0,4,4.33,4.77,4.77,0,0,0,3.5-1.58l1.37,1.39a6.28,6.28,0,0,1-4.94,2.16A6.12,6.12,0,0,1,231.75,496.41Z" transform="translate(-138.88 -490.08)"/><path class="cls-1" d="M249.83,490.2h2l5.36,12.26h-2.26l-1.23-2.94h-5.76l-1.25,2.94h-2.19Zm3.06,7.43-2.1-4.87-2.09,4.87h4.19Z" transform="translate(-138.88 -490.08)"/><path class="cls-1" d="M261,492.27h-3.86v-2H267v2h-3.86v10.19H261V492.27Z" transform="translate(-138.88 -490.08)"/><path class="cls-1" d="M269.51,490.29h9v1.91h-6.89v3.17h6.1v1.91h-6.1v3.27h7v1.91h-9.11V490.29Z" transform="translate(-138.88 -490.08)"/><path class="cls-1" d="M290.25,492.27h-3.86v-2h9.88v2h-3.86v10.19h-2.16V492.27Z" transform="translate(-138.88 -490.08)"/><path class="cls-1" d="M297.79,496.41v0a6.37,6.37,0,0,1,12.73,0v0A6.37,6.37,0,0,1,297.79,496.41Zm10.49,0v0a4.17,4.17,0,0,0-4.14-4.33,4.11,4.11,0,0,0-4.1,4.3v0a4.17,4.17,0,0,0,4.14,4.33A4.11,4.11,0,0,0,308.27,496.41Z" transform="translate(-138.88 -490.08)"/><path class="cls-1" d="M319.32,490.29h2.14v12.17h-2.14V490.29Z" transform="translate(-138.88 -490.08)"/><path class="cls-1" d="M325.14,490.29h2l6.52,8.42v-8.42h2.1v12.17H334l-6.71-8.66v8.66h-2.1V490.29Z" transform="translate(-138.88 -490.08)"/><path class="cls-1" d="M339.4,490.29h9.06v1.95h-6.92v3.32h6.14v1.95h-6.14v5H339.4V490.29Z" transform="translate(-138.88 -490.08)"/><path class="cls-1" d="M351.25,490.29h2.14v10.23h6.4v1.95h-8.54V490.29Z" transform="translate(-138.88 -490.08)"/><path class="cls-1" d="M361.39,497.3v-7h2.14v6.92c0,2.26,1.17,3.48,3.08,3.48s3.06-1.15,3.06-3.39v-7h2.14v6.91c0,3.63-2.05,5.46-5.24,5.46S361.39,500.83,361.39,497.3Z" transform="translate(-138.88 -490.08)"/><path class="cls-1" d="M375.27,490.29h9v1.91h-6.89v3.17h6.1v1.91h-6.1v3.27h7v1.91h-9.11V490.29Z" transform="translate(-138.88 -490.08)"/><path class="cls-1" d="M387.42,490.29h2l6.52,8.42v-8.42H398v12.17h-1.79l-6.71-8.66v8.66h-2.1V490.29Z" transform="translate(-138.88 -490.08)"/><path class="cls-1" d="M401.06,496.41v0a6.16,6.16,0,0,1,6.28-6.3,6.35,6.35,0,0,1,4.77,1.9l-1.37,1.58a4.84,4.84,0,0,0-3.41-1.51,4.09,4.09,0,0,0-4,4.3v0a4.12,4.12,0,0,0,4,4.33,4.77,4.77,0,0,0,3.5-1.58l1.37,1.39a6.28,6.28,0,0,1-4.94,2.16A6.12,6.12,0,0,1,401.06,496.41Z" transform="translate(-138.88 -490.08)"/><path class="cls-1" d="M414.76,490.29h9v1.91H416.9v3.17H423v1.91h-6.1v3.27h7v1.91h-9.11V490.29Z" transform="translate(-138.88 -490.08)"/></svg>