<svg id="Main_screen" data-name="Main screen" xmlns="http://www.w3.org/2000/svg" viewBox="0 0 77.2 41.84"><defs><style>.cls-1{fill:#dcdcda;}.cls-2{fill:#010101;}.cls-3{fill:#fff;}</style></defs><title>Help_icon_w-text_rollover</title><circle class="cls-1" cx="20.92" cy="20.92" r="20.92"/><path class="cls-2" d="M599.89,390.28h-1.07v-3.59h-4.25v3.59H593.5V382.4h1.07v3.51h4.25V382.4h1.07v7.88Z" transform="translate(-544.25 -364.36)"/><path class="cls-2" d="M607.52,382.4v0.87h-3.78v2.62h3.06v0.84h-3.06v2.69h3.78v0.87h-4.86V382.4h4.86Z" transform="translate(-544.25 -364.36)"/><path class="cls-2" d="M610.76,389.38h3.41v0.9h-4.48V382.4h1.07v7Z" transform="translate(-544.25 -364.36)"/><path class="cls-2" d="M617.26,387.33v2.95h-1.06V382.4h2.33a4.36,4.36,0,0,1,1.3.17,2.49,2.49,0,0,1,.92.49,2,2,0,0,1,.54.77,2.71,2.71,0,0,1,.18,1,2.57,2.57,0,0,1-.19,1,2.17,2.17,0,0,1-.56.79,2.61,2.61,0,0,1-.92.51,4,4,0,0,1-1.26.18h-1.27Zm0-.85h1.27a2.46,2.46,0,0,0,.81-0.12,1.65,1.65,0,0,0,.59-0.34,1.41,1.41,0,0,0,.36-0.52,1.78,1.78,0,0,0,.12-0.67,1.51,1.51,0,0,0-.46-1.18,2,2,0,0,0-1.41-.42h-1.27v3.25Z" transform="translate(-544.25 -364.36)"/><path class="cls-3" d="M560,380.31a5.63,5.63,0,0,1,1.18-1.87A5.3,5.3,0,0,1,563,377.2a6.17,6.17,0,0,1,2.39-.44,7.52,7.52,0,0,1,2.84.47,5.53,5.53,0,0,1,1.84,1.16,4.21,4.21,0,0,1,1,1.5,4.31,4.31,0,0,1,.3,1.5,5.11,5.11,0,0,1-.3,1.9,4.69,4.69,0,0,1-.74,1.27,5,5,0,0,1-1,.9q-0.54.37-1,.74a4.79,4.79,0,0,0-.85.85,2.45,2.45,0,0,0-.47,1.2v0.91h-3.24v-1.08a4.68,4.68,0,0,1,1.15-2.92,6,6,0,0,1,.91-0.85q0.48-.36.89-0.72a3.22,3.22,0,0,0,.66-0.79,2,2,0,0,0,.23-1.08,2.19,2.19,0,0,0-.54-1.63,2.06,2.06,0,0,0-1.5-.53,2.32,2.32,0,0,0-1.12.25,2.23,2.23,0,0,0-.77.67,2.92,2.92,0,0,0-.44,1,4.9,4.9,0,0,0-.14,1.21h-3.53A6.85,6.85,0,0,1,560,380.31Zm7.19,10.3v3.7h-3.77v-3.7h3.77Z" transform="translate(-544.25 -364.36)"/></svg>