<svg id="Layer_1" data-name="Layer 1" xmlns="http://www.w3.org/2000/svg" viewBox="0 0 44 247.25"><defs><style>.cls-1{fill:#dbdbd9;}.cls-2{fill:#6c6c6c;}</style></defs><title>my-work-station-vert-tab_closed</title><path class="cls-1" d="M347.28,384.53V187.12c0-7.83.83-8.52,3.8-11,21.43-18.14,40.2-32.51,40.2-32.51V390.82H352.77c-4.42,0-5.48-1-5.48-6.29" transform="translate(-347.28 -143.57)"/><path class="cls-2" d="M370.39,361.22l-10.58,1.32,7.26,3.8-7.26,3.88,10.58,1.32v2l-14-1.88V370l6.94-3.68-6.94-3.64v-1.64l14-1.86v2Z" transform="translate(-347.28 -143.57)"/><path class="cls-2" d="M375.23,353.52v2l-5.28-2.26-9.36,4.08v-2l7.28-3.06-7.28-2.76v-2Z" transform="translate(-347.28 -143.57)"/><path class="cls-2" d="M370.39,325.16v2.1l-11.48,3.3L370.39,334v2.1l-14,3.92v-2l11.84-3.1-11.56-3.5v-1.72l11.54-3.54-11.82-3.08v-2Z" transform="translate(-347.28 -143.57)"/><path class="cls-2" d="M365.49,319.66c-2.84,0-5.1-1.78-5.1-4.86s2.26-4.86,5.1-4.86,5.1,1.8,5.1,4.86S368.33,319.66,365.49,319.66Zm0-1.84c2.2,0,3.5-1.08,3.5-3s-1.3-3-3.5-3-3.5,1.08-3.5,3S363.28,317.82,365.49,317.82Z" transform="translate(-347.28 -143.57)"/><path class="cls-2" d="M362.2,302.11v0.62a3,3,0,0,0,1.26,2.24h6.92v1.92h-9.8v-1.48l1.62-.22c-1.34-1.18-2-2.12-2-3.32v-0.16Z" transform="translate(-347.28 -143.57)"/><path class="cls-2" d="M370.39,299.21h-15v-1.8H365l-4.42-3.6v-2.2l4.52,4,5.28-4.14v2.2l-5,3.7h5v1.8Z" transform="translate(-347.28 -143.57)"/><path class="cls-2" d="M369.77,283.33l-2.22-.26a7.46,7.46,0,0,0,1.4-4.36c0-1.72-.58-3.34-2.16-3.34S364.6,277,364,279c-0.74,2.32-1.42,4.56-3.82,4.56-1.74,0-4-1.2-4-5a10.34,10.34,0,0,1,1-4.4l2,0.2a9.07,9.07,0,0,0-1.26,4c0,1.44.6,3.14,2.06,3.14,1.3,0,1.82-1.34,2.34-3,0.76-2.46,1.5-5.16,4.54-5.16,1.48,0,3.9.62,3.9,5.46A10.45,10.45,0,0,1,369.77,283.33Z" transform="translate(-347.28 -143.57)"/><path class="cls-2" d="M370.59,265.62v1.62a2.27,2.27,0,0,1-2.34,2.56H362v1.68l-1.4-.16V269.8h-2.42L358,268h2.6v-2.58H362V268h5.16c1.88,0,2-.12,2-2.06v-0.46Z" transform="translate(-347.28 -143.57)"/><path class="cls-2" d="M370.59,254.57v0.14c0,1.74-.52,2.12-1.44,2.52a3.88,3.88,0,0,1,1.44,3,2.8,2.8,0,0,1-2.84,3c-2.76,0-3.46-3.36-3.5-5.86-1.86,0-2.26.76-2.26,2.14a4.27,4.27,0,0,0,.88,2.58l-1.46.26a5.65,5.65,0,0,1-1-3.32c0-2.48,1.16-3.46,4.7-3.46h2c1.4,0,2.06-.08,2.06-1.12v-0.18Zm-5.1,2.82c0.1,2.86.7,4,2.16,4a1.36,1.36,0,0,0,1.5-1.52,3.18,3.18,0,0,0-1.32-2.5h-2.34Z" transform="translate(-347.28 -143.57)"/><path class="cls-2" d="M370.59,247.12v1.62a2.27,2.27,0,0,1-2.34,2.56H362V253l-1.4-.16V251.3h-2.42L358,249.5h2.6v-2.58H362v2.58h5.16c1.88,0,2-.12,2-2.06V247Z" transform="translate(-347.28 -143.57)"/><path class="cls-2" d="M358.38,244.27h-2v-1.8h2v1.8Zm12,0h-9.8v-1.8h9.8v1.8Z" transform="translate(-347.28 -143.57)"/><path class="cls-2" d="M365.49,239.42c-2.84,0-5.1-1.78-5.1-4.86s2.26-4.86,5.1-4.86,5.1,1.8,5.1,4.86S368.33,239.42,365.49,239.42Zm0-1.84c2.2,0,3.5-1.08,3.5-3s-1.3-3-3.5-3-3.5,1.08-3.5,3S363.28,237.58,365.49,237.58Z" transform="translate(-347.28 -143.57)"/><path class="cls-2" d="M370.39,219.6H365c-2.08,0-3,.7-3,2.56a3,3,0,0,0,1.28,2.68h7.12v1.8h-9.8v-1.4l1-.2a4.57,4.57,0,0,1-1.24-3.24c0-2.86,1.78-4,4.6-4h5.4v1.8Z" transform="translate(-347.28 -143.57)"/><path class="cls-2" d="M370.39,361.22l-10.58,1.32,7.26,3.8-7.26,3.88,10.58,1.32v2l-14-1.88V370l6.94-3.68-6.94-3.64v-1.64l14-1.86v2Z" transform="translate(-347.28 -143.57)"/><path class="cls-2" d="M375.23,353.52v2l-5.28-2.26-9.36,4.08v-2l7.28-3.06-7.28-2.76v-2Z" transform="translate(-347.28 -143.57)"/><path class="cls-2" d="M370.39,325.16v2.1l-11.48,3.3L370.39,334v2.1l-14,3.92v-2l11.84-3.1-11.56-3.5v-1.72l11.54-3.54-11.82-3.08v-2Z" transform="translate(-347.28 -143.57)"/><path class="cls-2" d="M365.49,319.66c-2.84,0-5.1-1.78-5.1-4.86s2.26-4.86,5.1-4.86,5.1,1.8,5.1,4.86S368.33,319.66,365.49,319.66Zm0-1.84c2.2,0,3.5-1.08,3.5-3s-1.3-3-3.5-3-3.5,1.08-3.5,3S363.28,317.82,365.49,317.82Z" transform="translate(-347.28 -143.57)"/><path class="cls-2" d="M362.2,302.11v0.62a3,3,0,0,0,1.26,2.24h6.92v1.92h-9.8v-1.48l1.62-.22c-1.34-1.18-2-2.12-2-3.32v-0.16Z" transform="translate(-347.28 -143.57)"/><path class="cls-2" d="M370.39,299.21h-15v-1.8H365l-4.42-3.6v-2.2l4.52,4,5.28-4.14v2.2l-5,3.7h5v1.8Z" transform="translate(-347.28 -143.57)"/><path class="cls-2" d="M369.77,283.33l-2.22-.26a7.46,7.46,0,0,0,1.4-4.36c0-1.72-.58-3.34-2.16-3.34S364.6,277,364,279c-0.74,2.32-1.42,4.56-3.82,4.56-1.74,0-4-1.2-4-5a10.34,10.34,0,0,1,1-4.4l2,0.2a9.07,9.07,0,0,0-1.26,4c0,1.44.6,3.14,2.06,3.14,1.3,0,1.82-1.34,2.34-3,0.76-2.46,1.5-5.16,4.54-5.16,1.48,0,3.9.62,3.9,5.46A10.45,10.45,0,0,1,369.77,283.33Z" transform="translate(-347.28 -143.57)"/><path class="cls-2" d="M370.59,265.62v1.62a2.27,2.27,0,0,1-2.34,2.56H362v1.68l-1.4-.16V269.8h-2.42L358,268h2.6v-2.58H362V268h5.16c1.88,0,2-.12,2-2.06v-0.46Z" transform="translate(-347.28 -143.57)"/><path class="cls-2" d="M370.59,254.57v0.14c0,1.74-.52,2.12-1.44,2.52a3.88,3.88,0,0,1,1.44,3,2.8,2.8,0,0,1-2.84,3c-2.76,0-3.46-3.36-3.5-5.86-1.86,0-2.26.76-2.26,2.14a4.27,4.27,0,0,0,.88,2.58l-1.46.26a5.65,5.65,0,0,1-1-3.32c0-2.48,1.16-3.46,4.7-3.46h2c1.4,0,2.06-.08,2.06-1.12v-0.18Zm-5.1,2.82c0.1,2.86.7,4,2.16,4a1.36,1.36,0,0,0,1.5-1.52,3.18,3.18,0,0,0-1.32-2.5h-2.34Z" transform="translate(-347.28 -143.57)"/><path class="cls-2" d="M370.59,247.12v1.62a2.27,2.27,0,0,1-2.34,2.56H362V253l-1.4-.16V251.3h-2.42L358,249.5h2.6v-2.58H362v2.58h5.16c1.88,0,2-.12,2-2.06V247Z" transform="translate(-347.28 -143.57)"/><path class="cls-2" d="M358.38,244.27h-2v-1.8h2v1.8Zm12,0h-9.8v-1.8h9.8v1.8Z" transform="translate(-347.28 -143.57)"/><path class="cls-2" d="M365.49,239.42c-2.84,0-5.1-1.78-5.1-4.86s2.26-4.86,5.1-4.86,5.1,1.8,5.1,4.86S368.33,239.42,365.49,239.42Zm0-1.84c2.2,0,3.5-1.08,3.5-3s-1.3-3-3.5-3-3.5,1.08-3.5,3S363.28,237.58,365.49,237.58Z" transform="translate(-347.28 -143.57)"/><path class="cls-2" d="M370.39,219.6H365c-2.08,0-3,.7-3,2.56a3,3,0,0,0,1.28,2.68h7.12v1.8h-9.8v-1.4l1-.2a4.57,4.57,0,0,1-1.24-3.24c0-2.86,1.78-4,4.6-4h5.4v1.8Z" transform="translate(-347.28 -143.57)"/><path class="cls-2" d="M364.88,188.24a1.5,1.5,0,0,1,1.5,1.5v14.53a1.5,1.5,0,1,1-3,0V189.74A1.5,1.5,0,0,1,364.88,188.24Z" transform="translate(-347.28 -143.57)"/><path class="cls-2" d="M357.61,195.51h14.53a1.5,1.5,0,0,1,0,3H357.61A1.5,1.5,0,0,1,357.61,195.51Z" transform="translate(-347.28 -143.57)"/></svg>