<svg id="Layer_1" data-name="Layer 1" xmlns="http://www.w3.org/2000/svg" viewBox="0 0 19.43 16.65"><defs><style>.cls-1{fill:#999;}.cls-2{fill:#fff;}</style></defs><title>print_icon</title><path class="cls-1" d="M390.47,297.67h-2.74V297.3a0.41,0.41,0,0,0-.11-0.28l-1.06-1.1a0.41,0.41,0,0,0-.29-0.12h-8.68a0.41,0.41,0,0,0-.41.4v1.48H374.4a1.68,1.68,0,0,0-1.68,1.68v7.06a1.68,1.68,0,0,0,1.68,1.68h16.06a1.68,1.68,0,0,0,1.68-1.68v-7.06A1.68,1.68,0,0,0,390.47,297.67ZM378,296.59h8.11l0.83,0.86v2.64H378Zm12.82,9.81a0.33,0.33,0,0,1-.33.33H374.4a0.33,0.33,0,0,1-.33-0.33v-7.06a0.33,0.33,0,0,1,.33-0.33h2.74v1.47a0.39,0.39,0,0,0,0,.13,0.4,0.4,0,0,0,.1.16,0.41,0.41,0,0,0,.29.12h0l9.73,0h0a0.41,0.41,0,0,0,.39-0.4V299h2.75a0.33,0.33,0,0,1,.33.33v7.06Z" transform="translate(-372.72 -295.78)"/><rect class="cls-1" x="7.32" y="8.26" width="5.03" height="1.82"/><circle class="cls-1" cx="16.53" cy="9.63" r="0.31"/><polygon class="cls-1" points="4.92 2.54 0.9 2.83 1.16 11.42 18.45 11.35 18.45 2.8 14.58 2.46 14.51 4.92 4.81 4.8 4.92 2.54"/><rect class="cls-2" x="4.76" y="10.12" width="9.78" height="6.14"/><path class="cls-1" d="M386.9,311.61H378v-5.69h-0.81V312a0.41,0.41,0,0,0,.41.41l9.75,0h0a0.41,0.41,0,0,0,.41-0.41v-6.11H386.9v5.71Z" transform="translate(-372.72 -295.78)"/><path class="cls-1" d="M379.53,310.4h5.81a0.27,0.27,0,1,0,0-.54h-5.81A0.27,0.27,0,1,0,379.53,310.4Z" transform="translate(-372.72 -295.78)"/><path class="cls-1" d="M379.53,308.78h5.81a0.27,0.27,0,0,0,0-.54h-5.81A0.27,0.27,0,0,0,379.53,308.78Z" transform="translate(-372.72 -295.78)"/><path class="cls-1" d="M379.53,307.15h5.81a0.27,0.27,0,1,0,0-.54h-5.81A0.27,0.27,0,1,0,379.53,307.15Z" transform="translate(-372.72 -295.78)"/></svg>