<svg id="Main_screen" data-name="Main screen" xmlns="http://www.w3.org/2000/svg" viewBox="0 0 105.03 41.84"><defs><style>.cls-1{fill:#dcdcda;}.cls-2{fill:#fff;}.cls-3{fill:#4c4c4c;}</style></defs><title>Settings_icon_w-text</title><circle class="cls-1" cx="20.92" cy="20.92" r="20.92"/><path class="cls-2" d="M557.07,383.76v10.65a0.52,0.52,0,0,0,.52.52h0.55a0.52,0.52,0,0,0,.52-0.52V383.76h-1.6Z" transform="translate(-544.25 -364.36)"/><path class="cls-2" d="M558.66,376.85v-0.7a0.52,0.52,0,0,0-.52-0.52h-0.55a0.52,0.52,0,0,0-.52.52v0.7h1.6Z" transform="translate(-544.25 -364.36)"/><path class="cls-2" d="M559.66,377.89h-3.6a0.37,0.37,0,0,0-.39.33v4.16a0.37,0.37,0,0,0,.39.33h3.6a0.37,0.37,0,0,0,.39-0.33v-4.16A0.37,0.37,0,0,0,559.66,377.89Z" transform="translate(-544.25 -364.36)"/><path class="cls-2" d="M564.4,392v2.45a0.52,0.52,0,0,0,.52.52h0.55a0.52,0.52,0,0,0,.52-0.52V392h-1.6Z" transform="translate(-544.25 -364.36)"/><path class="cls-2" d="M566,385v-8.9a0.52,0.52,0,0,0-.52-0.52h-0.55a0.52,0.52,0,0,0-.52.52V385H566Z" transform="translate(-544.25 -364.36)"/><path class="cls-2" d="M567,386.1h-3.6a0.37,0.37,0,0,0-.39.33v4.16a0.37,0.37,0,0,0,.39.33H567a0.36,0.36,0,0,0,.39-0.33v-4.16A0.36,0.36,0,0,0,567,386.1Z" transform="translate(-544.25 -364.36)"/><path class="cls-2" d="M573.34,379.74v-3.6a0.52,0.52,0,0,0-.52-0.52h-0.55a0.52,0.52,0,0,0-.52.52v3.6h1.6Z" transform="translate(-544.25 -364.36)"/><path class="cls-2" d="M571.74,386.66v7.75a0.52,0.52,0,0,0,.52.52h0.55a0.52,0.52,0,0,0,.52-0.52v-7.75h-1.6Z" transform="translate(-544.25 -364.36)"/><path class="cls-2" d="M574.28,380.79h-3.6a0.37,0.37,0,0,0-.39.33v4.16a0.37,0.37,0,0,0,.39.33h3.6a0.36,0.36,0,0,0,.39-0.33v-4.16A0.37,0.37,0,0,0,574.28,380.79Z" transform="translate(-544.25 -364.36)"/><path class="cls-3" d="M597.54,383.63a0.43,0.43,0,0,1-.1.12,0.23,0.23,0,0,1-.14,0,0.38,0.38,0,0,1-.22-0.09l-0.31-.21a2.56,2.56,0,0,0-.46-0.21,2,2,0,0,0-.65-0.09,1.91,1.91,0,0,0-.63.1,1.35,1.35,0,0,0-.46.26,1.07,1.07,0,0,0-.28.39,1.23,1.23,0,0,0-.09.48,0.89,0.89,0,0,0,.16.55,1.4,1.4,0,0,0,.43.37,3.29,3.29,0,0,0,.6.27l0.69,0.23q0.36,0.12.69,0.27a2.45,2.45,0,0,1,.6.38,1.74,1.74,0,0,1,.43.57,1.88,1.88,0,0,1,.16.82,2.66,2.66,0,0,1-.18,1,2.23,2.23,0,0,1-.51.79,2.42,2.42,0,0,1-.83.53,3.06,3.06,0,0,1-1.12.19,3.41,3.41,0,0,1-1.39-.28,3.26,3.26,0,0,1-1.08-.75l0.31-.51a0.4,0.4,0,0,1,.11-0.1,0.25,0.25,0,0,1,.14,0,0.44,0.44,0,0,1,.26.12,4.36,4.36,0,0,0,.37.27,2.8,2.8,0,0,0,.54.27,2.12,2.12,0,0,0,.77.12,2,2,0,0,0,.68-0.1,1.44,1.44,0,0,0,.5-0.29,1.28,1.28,0,0,0,.32-0.45A1.52,1.52,0,0,0,597,388a1,1,0,0,0-.16-0.59,1.34,1.34,0,0,0-.43-0.38,3,3,0,0,0-.6-0.26l-0.69-.22a6.83,6.83,0,0,1-.69-0.26,2.24,2.24,0,0,1-.6-0.38,1.76,1.76,0,0,1-.43-0.59,2.27,2.27,0,0,1,0-1.69,2.08,2.08,0,0,1,.47-0.69,2.29,2.29,0,0,1,.76-0.48,2.79,2.79,0,0,1,1-.18,3.34,3.34,0,0,1,1.2.21,2.78,2.78,0,0,1,1,.61Z" transform="translate(-544.25 -364.36)"/><path class="cls-3" d="M605.09,382.4v0.87h-3.78v2.62h3.06v0.84h-3.06v2.69h3.78v0.87h-4.86V382.4h4.86Z" transform="translate(-544.25 -364.36)"/><path class="cls-3" d="M613,382.4v0.9h-2.55v7h-1.07v-7h-2.56v-0.9H613Z" transform="translate(-544.25 -364.36)"/><path class="cls-3" d="M620.7,382.4v0.9h-2.55v7h-1.07v-7h-2.56v-0.9h6.17Z" transform="translate(-544.25 -364.36)"/><path class="cls-3" d="M623.81,390.28h-1.07V382.4h1.07v7.88Z" transform="translate(-544.25 -364.36)"/><path class="cls-3" d="M627.43,382.43a0.55,0.55,0,0,1,.16.15l4.56,5.94c0-.1,0-0.19,0-0.28s0-.18,0-0.26V382.4h0.94v7.88h-0.54a0.46,0.46,0,0,1-.21,0,0.54,0.54,0,0,1-.17-0.15l-4.56-5.94c0,0.09,0,.18,0,0.27s0,0.17,0,.24v5.62h-0.94V382.4h0.55A0.48,0.48,0,0,1,627.43,382.43Z" transform="translate(-544.25 -364.36)"/><path class="cls-3" d="M639.38,389.51a5.37,5.37,0,0,0,.59,0,3.83,3.83,0,0,0,.5-0.09,3.4,3.4,0,0,0,.45-0.15l0.42-.19V387.3h-1.22a0.23,0.23,0,0,1-.17-0.06,0.2,0.2,0,0,1-.06-0.15v-0.6h2.42v3a4.44,4.44,0,0,1-.62.37,4.2,4.2,0,0,1-.69.27,4.94,4.94,0,0,1-.78.16,7.27,7.27,0,0,1-.91.05,4.11,4.11,0,0,1-1.57-.29,3.63,3.63,0,0,1-1.23-.83,3.75,3.75,0,0,1-.81-1.27,4.47,4.47,0,0,1-.29-1.63,4.58,4.58,0,0,1,.28-1.64,3.54,3.54,0,0,1,2.08-2.1,4.56,4.56,0,0,1,1.67-.29,5.15,5.15,0,0,1,.87.07,4,4,0,0,1,.75.2,3.45,3.45,0,0,1,.64.31,3.86,3.86,0,0,1,.54.42l-0.3.48a0.28,0.28,0,0,1-.24.15,0.39,0.39,0,0,1-.19-0.06l-0.31-.19a2.65,2.65,0,0,0-.42-0.21,3.36,3.36,0,0,0-.58-0.17,3.82,3.82,0,0,0-.79-0.07,3.19,3.19,0,0,0-1.2.22,2.54,2.54,0,0,0-.92.62,2.75,2.75,0,0,0-.58,1,3.84,3.84,0,0,0-.2,1.29,3.91,3.91,0,0,0,.21,1.33,2.82,2.82,0,0,0,.6,1,2.57,2.57,0,0,0,.91.62A3.08,3.08,0,0,0,639.38,389.51Z" transform="translate(-544.25 -364.36)"/><path class="cls-3" d="M648.85,383.63a0.43,0.43,0,0,1-.1.12,0.23,0.23,0,0,1-.14,0,0.38,0.38,0,0,1-.22-0.09l-0.31-.21a2.56,2.56,0,0,0-.46-0.21,2,2,0,0,0-.65-0.09,1.91,1.91,0,0,0-.63.1,1.35,1.35,0,0,0-.46.26,1.07,1.07,0,0,0-.28.39,1.23,1.23,0,0,0-.09.48,0.89,0.89,0,0,0,.16.55,1.4,1.4,0,0,0,.43.37,3.29,3.29,0,0,0,.6.27l0.69,0.23q0.36,0.12.69,0.27a2.45,2.45,0,0,1,.6.38,1.74,1.74,0,0,1,.43.57,1.88,1.88,0,0,1,.16.82,2.66,2.66,0,0,1-.18,1,2.23,2.23,0,0,1-.51.79,2.42,2.42,0,0,1-.83.53,3.06,3.06,0,0,1-1.12.19,3.41,3.41,0,0,1-1.39-.28,3.26,3.26,0,0,1-1.08-.75l0.31-.51a0.4,0.4,0,0,1,.11-0.1,0.25,0.25,0,0,1,.14,0,0.44,0.44,0,0,1,.26.12,4.36,4.36,0,0,0,.37.27,2.8,2.8,0,0,0,.54.27,2.12,2.12,0,0,0,.77.12,2,2,0,0,0,.68-0.1,1.44,1.44,0,0,0,.5-0.29,1.28,1.28,0,0,0,.32-0.45,1.52,1.52,0,0,0,.11-0.59,1,1,0,0,0-.16-0.59,1.34,1.34,0,0,0-.43-0.38,3,3,0,0,0-.6-0.26l-0.69-.22a6.83,6.83,0,0,1-.69-0.26,2.24,2.24,0,0,1-.6-0.38,1.76,1.76,0,0,1-.43-0.59,2.27,2.27,0,0,1,0-1.69,2.08,2.08,0,0,1,.47-0.69,2.29,2.29,0,0,1,.76-0.48,2.79,2.79,0,0,1,1-.18,3.34,3.34,0,0,1,1.2.21,2.78,2.78,0,0,1,1,.61Z" transform="translate(-544.25 -364.36)"/></svg>