<svg id="Interactive_elements" data-name="Interactive elements" xmlns="http://www.w3.org/2000/svg" viewBox="0 0 41.08 41.08"><defs><style>.cls-1{fill:#ffca00;}.cls-2,.cls-3{fill:none;stroke:#14608a;stroke-linecap:round;stroke-miterlimit:10;}.cls-3{stroke-width:1.6px;}</style></defs><title>mood-multitasking</title><circle class="cls-1" cx="20.54" cy="20.54" r="20.54"/><path class="cls-2" d="M2185.71,3901.13a5.16,5.16,0,0,1-7.1-1.69,4.13,4.13,0,0,1,1.35-5.68,3.3,3.3,0,0,1,4.54,1.08,2.64,2.64,0,0,1-.87,3.63,2.11,2.11,0,0,1-2.91-.69,1.69,1.69,0,0,1,.55-2.33,1.35,1.35,0,0,1,1.86.44,1.08,1.08,0,0,1-.35,1.49" transform="translate(-2166.79 -3881.65)"/><path class="cls-2" d="M2196.65,3901.13a5.16,5.16,0,0,1-7.1-1.69,4.13,4.13,0,0,1,1.35-5.68,3.3,3.3,0,0,1,4.54,1.08,2.64,2.64,0,0,1-.87,3.63,2.11,2.11,0,0,1-2.91-.69,1.69,1.69,0,0,1,.55-2.33,1.35,1.35,0,0,1,1.86.44,1.08,1.08,0,0,1-.35,1.49" transform="translate(-2166.79 -3881.65)"/><path class="cls-3" d="M2176.42,3909.63s2.88-1.24,10.12-1.6a43.91,43.91,0,0,1,8.73.43" transform="translate(-2166.79 -3881.65)"/></svg>