<svg id="Interactive_elements" data-name="Interactive elements" xmlns="http://www.w3.org/2000/svg" viewBox="0 0 616.09 423.27"><defs><style>.cls-1{fill:#f37573;}.cls-2{fill:#88252b;}.cls-3{fill:#6cc5f5;}.cls-4{fill:#c53a43;}.cls-5{fill:none;stroke:#c53a43;stroke-miterlimit:10;}.cls-6{fill:#fe961c;}.cls-7{fill:#fff;}</style></defs><title>click-allow-instrux</title><path class="cls-1" d="M5913.78,552.58c3.16,1,40.42-13.47,35.41-35.77-1.62-7.2-43.64-32.35-30.92-105.71,3.67-21.18,3.7-28.62,41.84-26.83s68.94-16.59,67.61,43c-0.87,38.87-17.14,58.86-23.9,71.22-4.18,7.64-11.29,11.24-10.62,15.17,5.16,30.67,42.59,41.9,42.59,41.9l-49.4,26.95Z" transform="translate(-5785.99 -251.7)"/><path class="cls-2" d="M6039.86,460.59a72.89,72.89,0,0,0-1.86-44.83c-0.81-10.5-2.94-19.22-6.18-24.47-24.37-39.44-75.74-11-75.74-11s-21.91-8.39-35.7,4.08l-0.93.59A53.57,53.57,0,0,0,5899,410.74a24.4,24.4,0,0,1,8.22-7.51,46.25,46.25,0,0,0-3.48,17.3,48.81,48.81,0,0,0-1.32,12.3,39.61,39.61,0,0,1,1.81-5.73,42.22,42.22,0,0,0,2.22,8.47c3,8.1-.86,28.17,9.2,48,1.45,8.47,4.13,16.51,9,23.37a82.34,82.34,0,0,1-.86-11.33,66.89,66.89,0,0,0,8.6,8.24,96.89,96.89,0,0,0,5.54,8.74c-0.55-2-1.18-4-1.88-6,4.78,3.39,6.23,5.9,12.82,8.82-1.11-2.93-2.86-6.48-5.54-8.61-27.54-22-18.82-68.8-7.88-82.75,17.21-22,24.1,3.66,68.85,11,15.38,2.51,14,55.22-8.61,71.44-4.32,3.11-1.82,10.77-1.82,10.77s26.33-9.17,34.86-38.75c-1,3.39-.14,7.06-0.47,10.58,4.93-6.46,7.25-14.81,7.89-23.09a91.69,91.69,0,0,0-.12-13.84q0.6-3.38,1-6.75a37,37,0,0,1,2.82,15.19" transform="translate(-5785.99 -251.7)"/><path class="cls-3" d="M5998.32,631.62l0,0Z" transform="translate(-5785.99 -251.7)"/><path class="cls-1" d="M5831.37,560.16l-4.16-5.46a99.73,99.73,0,0,0-1.17-15.92c-0.27-1.43-1.43-4.22-4.17-8.88-3.74-6.37-2.64-13.54-7.08-13.25-3.71.24-3.17,6.12-3.56,5.49-1.59-2.57-5-8.5-5.89-10.12-3.66-6.5-8.07-13.18-11.25-11.16-3.79,2.41,5.93,18.61,5.93,18.61s-1.45-2.93-4.17-3a3.88,3.88,0,0,0-3.72,3.85c0.18,2.71,1,3.55,1,3.55a3.36,3.36,0,0,0-4.45,1.53c-1.46,2.47,1.66,7.28,1.66,7.28s-2.68-1.25-3.72.8c-1.32,2.59-.17,3.49,1.14,6.53s1.92,9.13,7.24,14.09c4.49,4.19,7.46,8.08,10.62,9.54s9.45,9,9.45,9Z" transform="translate(-5785.99 -251.7)"/><path class="cls-4" d="M6058.94,558.49c-0.94-4.53-3-9-6.79-11.22-13.81-8.23-49-14-49-14s-6.21,21.75-29.46,21.75-29.71-21.75-29.71-21.75-32.87,5.2-41.81,14.15c-7.52,7.52-27.27,34.55-40,40.91l-30-31.65-22.11,16.38,22.06,32.54s13.22,22.08,31.87,20.63c8.13-.63,20.35-8,28.13-13.36a245.57,245.57,0,0,0,22.73-18.18l6.36,33.25h99.55l5.37-28.63L6031.5,628h30.41S6062.69,576.59,6058.94,558.49Z" transform="translate(-5785.99 -251.7)"/><path class="cls-5" d="M5810.82,521.79a16.38,16.38,0,0,0,1,4.77l2.57,6.63s-3.57,1.05-4.52,3.74,0.71,8.68.71,8.68" transform="translate(-5785.99 -251.7)"/><path class="cls-6" d="M6347.62,590.72c10.6,75.13-63.66,82-98.44,83.41-33.93,1.35-119,8-129.86-57.28-13.33-80.23,49.11-124.79,95-124.79C6260.88,492.06,6336.46,511.62,6347.62,590.72Z" transform="translate(-5785.99 -251.7)"/><path class="cls-6" d="M6139.29,539.34a57.9,57.9,0,0,0-14.82-14.71c-5.16-3.66-10.78-6.71-16.15-10.1-1.44-.91-0.78-3.42,1.07-3.59,8.3-.78,16.72.84,24.67,2.41,8.67,1.71,17.21,3.87,25.72,6.06C6162.37,520.08,6139.89,540.23,6139.29,539.34Z" transform="translate(-5785.99 -251.7)"/><path class="cls-7" d="M6200.33,548.82c-0.93.1-2.06-.34-2.16-1.19a0.51,0.51,0,0,0-.29-0.58,5.38,5.38,0,0,0-2.2-.23c-4,.52-7.52,6.09-8.38,9a9.08,9.08,0,0,0-.42,4.38,5.61,5.61,0,0,0,3,4.13c1.66,0.89,4.21.64,6.08,0.38s3.78-.76,5.69-1c1-.11,2.22,0,2.33,1a2,2,0,0,1-1.61,2.06l-1.76.28c-1.25.19-2.5,0.42-3.75,0.6l-0.12,0a27.44,27.44,0,0,1-5.16.3,8.44,8.44,0,0,1-8.14-7.08,10.93,10.93,0,0,1,1-6.93c1.88-3.89,5.22-9.44,10.79-10.18,2.42-.33,6.66-0.11,6.92,2.48A2.07,2.07,0,0,1,6200.33,548.82Z" transform="translate(-5785.99 -251.7)"/><path class="cls-7" d="M6211.3,559.79c0,0.94.1,1.91,0,2.81a1.2,1.2,0,0,1-1.32,1.11,2.16,2.16,0,0,1-2.23-1.18,13.18,13.18,0,0,1-.76-3.47c-0.18-1.94,0-3.9-.2-5.84-0.29-3.3-2.1-7.29-3.63-10.25a1.24,1.24,0,0,1-.18-0.52c-0.13-1.22,1.75-1.95,3-2.06s2.22,0.14,2.43,1.21c0.69,3.09,1.77,6.07,2.25,9.21,0.17,1.21.34,2.39,0.43,3.58C6211.28,556.18,6211.29,558,6211.3,559.79Z" transform="translate(-5785.99 -251.7)"/><path class="cls-7" d="M6218.71,546.25a6,6,0,0,1-1.15.16,5.55,5.55,0,0,1-4.59-2.1,1.21,1.21,0,0,1-.35-0.74c-0.06-.9,1.09-1.37,2-1.42,1.48-.09,5.78.82,5.82,2.34A2.22,2.22,0,0,1,6218.71,546.25Zm1.33,17.28a2.4,2.4,0,0,1-1.65-.44,6.75,6.75,0,0,1-2.5-4.2c-0.22-1.82-.32-3.62-0.42-5.46l-0.13-2.44a1.26,1.26,0,0,1,1.41-1.37c1.35-.06,2.91.84,2.95,2.07,0.06,1.58-.42,3.15-0.36,4.7,0.15,3.41,3.29,4.75,3.31,5.76S6220.87,563.5,6220,563.53Z" transform="translate(-5785.99 -251.7)"/><path class="cls-7" d="M6243.74,553.78a2,2,0,0,1-1.76-1.36,1.09,1.09,0,0,0-1.1-.53c-2.14-.12-6.49,1.33-8.48,2.1s-3.28,1.56-3.77,3.43a0.54,0.54,0,0,0,0,.25c0,1.9,4,3.58,5.62,4a9.28,9.28,0,0,0,1.68.23c1.64,0,3.08-.79,4.73-0.71a1.43,1.43,0,0,1,1.5,1.23,1.74,1.74,0,0,1-1.43,1.26,16.24,16.24,0,0,1-5.69,1.18,8.53,8.53,0,0,1-1.86-.26c-3.93-1-8.19-2.89-8.28-7.14V557c0.29-4.11,4.91-5.5,8.81-6.64a34.14,34.14,0,0,1,8.53-1.23,3.41,3.41,0,0,1,.59,0c1.69,0.1,2.95,1,2.84,2.52C6245.58,552.56,6245.07,553.87,6243.74,553.78Z" transform="translate(-5785.99 -251.7)"/><path class="cls-7" d="M6262.49,564a12.68,12.68,0,0,1-2.54-.1,35.31,35.31,0,0,1-6.12-1.71,4.66,4.66,0,0,0-1-.29,0.4,0.4,0,0,0-.52.35c-0.08.86,1.2,2.47,1.13,3.12s-1.07.72-1.62,0.67c-0.83-.08-2.14-0.49-2.43-1.31a25.85,25.85,0,0,1-1.67-8.16c0-2.67.17-5.36,0-8a9.46,9.46,0,0,0-1.94-5.95,1.2,1.2,0,0,1-.33-1,2.41,2.41,0,0,1,2.52-2.13,2.66,2.66,0,0,1,1.25.42c3.28,1.9,2,5.3,2.27,8a24.36,24.36,0,0,1,0,3.54,18.9,18.9,0,0,0-.08,2.67,0.43,0.43,0,0,0,.37.5,1,1,0,0,0,.69-0.22c1.73-1.14,5.39-3.89,7.75-3.58a2,2,0,0,1,1.87,2.28,1.89,1.89,0,0,1-1.93,1.81c-0.33,0-.57-0.18-0.9-0.22-1-.13-4,2-5,2.54-0.35.18-.46,0.42-0.19,0.6a28.06,28.06,0,0,0,8.33,3.21,1.31,1.31,0,0,1,1.34,1.54A1.62,1.62,0,0,1,6262.49,564Z" transform="translate(-5785.99 -251.7)"/><path class="cls-7" d="M6172.9,606.26a1.34,1.34,0,0,1-1.2-.28c-2.61-1.76-6.75-4.56-7.81-7.75-0.63-1.93-.14-4.82,2.11-5.51a1.63,1.63,0,0,1,2.24,1c0.31,1-.14,2.29.31,3.78,0.93,3,4.73,5.54,5.11,6.92A1.4,1.4,0,0,1,6172.9,606.26Zm4.55-3.19a1.18,1.18,0,0,1-1.24-.47c-1.53-1.79-5.46-5.34-6.11-7.49-0.38-1.29,1-2.71,2.22-3.05a1.47,1.47,0,0,1,1.68.53c0.51,0.62,4.62,7.63,4.67,7.94A2.18,2.18,0,0,1,6177.45,603.07Z" transform="translate(-5785.99 -251.7)"/><path class="cls-7" d="M6198.43,620.16a2.26,2.26,0,0,1-2.38-1.55c-0.91-2.29-1.12-4.85-2-7.14-0.14-.32-0.26-0.57-0.65-0.49q-2,.38-4,0.8a2.18,2.18,0,0,0-1.9,2.23c0,3.45.53,4.66-.37,8.15a2.76,2.76,0,0,1-1.75,2.16c-1.14.29-2.1-.63-2.43-1.88-0.63-2.34.49-6.91,0.27-7.87s-1.5-.87-1.84-2.21a2.75,2.75,0,0,1,1.4-3.06,1.26,1.26,0,0,0,1.11-1.38c0.29-1.75.47-3.48,0.62-5.24a71.18,71.18,0,0,1,1-9.42,2.74,2.74,0,0,1,1.93-2.38,3.18,3.18,0,0,1,3.09,1.74A48.54,48.54,0,0,1,6195.1,604c1.34,4.67,2.59,8.76,4.36,13.29a6.3,6.3,0,0,1,.21.8A1.66,1.66,0,0,1,6198.43,620.16ZM6190.12,599a0.78,0.78,0,0,0-.84-0.63,0.85,0.85,0,0,0-.62.92c-0.24,2.56-.38,5.1-0.71,7.6-0.09.55,1.44,0.27,1.83,0.19s1-.17,1.57-0.27,1-.25.93-0.66C6191.53,603.72,6190.93,601.46,6190.12,599Z" transform="translate(-5785.99 -251.7)"/><path class="cls-7" d="M6207.6,609.45c0,1.12.22,2.28,0.22,3.36a1.21,1.21,0,0,1-1.18,1.36,2.1,2.1,0,0,1-2.2-1.38,19.84,19.84,0,0,1-1-4.14c-0.31-2.31-.3-4.67-0.61-7-0.51-3.94-2.56-8.68-4.3-12.18a1.75,1.75,0,0,1-.22-0.62c-0.22-1.45,1.59-2.37,2.85-2.53s2.21,0.12,2.49,1.39c0.88,3.68,2.13,7.23,2.79,11,0.24,1.45.48,2.86,0.64,4.28C6207.35,605.13,6207.47,607.29,6207.6,609.45Z" transform="translate(-5785.99 -251.7)"/><path class="cls-7" d="M6218.23,608.56c0,1.12.09,2.29,0,3.37a1.21,1.21,0,0,1-1.25,1.29,2.09,2.09,0,0,1-2.12-1.5,19.89,19.89,0,0,1-.74-4.19c-0.18-2.33,0-4.67-.21-7-0.29-4-2.07-8.81-3.6-12.41a1.76,1.76,0,0,1-.19-0.63c-0.13-1.47,1.72-2.27,3-2.36s2.2,0.24,2.41,1.53c0.67,3.72,1.72,7.34,2.17,11.12,0.16,1.46.32,2.88,0.4,4.31C6218.23,604.23,6218.23,606.39,6218.23,608.56Z" transform="translate(-5785.99 -251.7)"/><path class="cls-7" d="M6238,606.24c-1,3.76-3.56,7.82-7.28,7.78-3.3,0-6.69-3.45-6.82-7.38-0.09-3.41,1.55-5.71,4.14-7.45a23.76,23.76,0,0,0,3.48-2.66,3.37,3.37,0,0,1,2.45-1.16,2.47,2.47,0,0,1,2.33,1.85c0.78,2.27,2.06,5,1.93,7.39A7.52,7.52,0,0,1,6238,606.24Zm-3.41-3.81c-0.08-.18-0.19-0.31-0.4-0.1a1.76,1.76,0,0,1-1.21.53c-0.91,0-1.42-.93-1.94-0.94a2.57,2.57,0,0,0-1.32.64,3.84,3.84,0,0,0-1.82,3.54c0,2.38,1.09,3.79,3.27,3.82s3.83-2.42,3.91-4.71A7.6,7.6,0,0,0,6234.59,602.44Z" transform="translate(-5785.99 -251.7)"/><path class="cls-7" d="M6257.45,616.31c-1.18-.19-2.16-2-2.75-3.08-0.49-.86-1.06-1.85-1.52-2.73-0.19-.33-0.36-0.22-0.48.11a16.34,16.34,0,0,1-1.17,2.25,4.92,4.92,0,0,1-4.42,2.5,3.3,3.3,0,0,1-2.86-2.65c-1.34-4.49-1.69-9.19-2.18-13.9,0-.13,0-0.31,0-0.43,0.08-1.25,1.22-1.61,2.2-1.53s3,0.86,2.85,2.24l0,0.22c-0.15,1.2-.42,2.34-0.53,3.55a15.36,15.36,0,0,0,.7,6.75c0.15,0.41.45,1.26,0.95,1.31s1.07-.93,1.3-1.34a17.51,17.51,0,0,0,1.84-6.1c0.21-1.11,1-2.32,2.17-2.17,1.65,0.21,2.21,3.52,2.56,5,0.27,1,1.28,4.51,2.19,4.65s1.5-2.69,1.61-3.37c0.22-1.37.13-2.78,0.35-4.14a1.53,1.53,0,0,1,1.9-1.35,2.78,2.78,0,0,1,2.19,3.33C6263.82,607.94,6260,616.72,6257.45,616.31Z" transform="translate(-5785.99 -251.7)"/><path class="cls-7" d="M6272.36,600.59a1.36,1.36,0,0,1-1.23.4,2.06,2.06,0,0,1-1.43-2.24,1.37,1.37,0,0,1,.41-0.75,14.43,14.43,0,0,0,3.32-6.45c0.23-.66.39-1.37,0.62-2a1.17,1.17,0,0,1,1.56-.76c1.33,0.3,2.84,1.76,2.49,3.19A18.11,18.11,0,0,1,6272.36,600.59Zm4.36,2.93a1.31,1.31,0,0,1-1.14.34,1.4,1.4,0,0,1-.89-1.77,2.4,2.4,0,0,1,.41-0.83c2.67-3.5,2.87-5.13,4.5-9,0.45-1.09,1.48-2.53,2.9-2.16,1.88,0.49,1.37,3.58,1,4.91C6282.54,598.46,6279.5,601.49,6276.72,603.52Z" transform="translate(-5785.99 -251.7)"/><path class="cls-7" d="M6287.87,611.1c-0.21.66-.42,1.32-0.65,1.92a1.42,1.42,0,0,1-1.79,1.07,1.58,1.58,0,0,1-1-2.05l0.21-.7a66,66,0,0,0,1.65-7.53c0.5-2.69,1.06-5.36,1.8-8l0.13-.46a1.84,1.84,0,0,1,2.46-.93c1,0.31,2,1.17,1.66,2.32s-0.82,2.46-1.21,3.69c-0.94,3-1.8,6-2.74,8.92Zm-5.76,11.06c-1.16-.35-0.83-2.14-0.53-3.14,0.34-1.16,1.35-3.35,2.78-2.91a2,2,0,0,1,1.1,1.34c0.38,0.89,1.28,1.86.93,2.93C6285.92,621.77,6283.19,622.48,6282.11,622.16Z" transform="translate(-5785.99 -251.7)"/><path class="cls-3" d="M6208.87,436.25c-66,0-155.85-45-136.67-125.91,15.61-65.9,138-59.15,186.8-57.8,50,1.39,156.86,8.35,141.61,84.15C6384.55,416.51,6275.82,436.25,6208.87,436.25Z" transform="translate(-5785.99 -251.7)"/><path class="cls-3" d="M6135.48,417.43a72.75,72.75,0,0,1-8.59,23.15c-3.63,6.45-8,12.45-11.94,18.7-1.06,1.68.7,4.12,2.64,3.44,8.73-3.06,16.53-8.81,23.88-14.27,8-6,15.71-12.36,23.36-18.79C6167.15,427.71,6135.7,416.18,6135.48,417.43Z" transform="translate(-5785.99 -251.7)"/><path class="cls-7" d="M6119.67,310.55a40.24,40.24,0,0,0-1.93,4.28c-0.39,1.1-.73,2.2-1,3.3-0.49,1.77.38,2.08-.93,3.9a16.75,16.75,0,0,0-.85,3.28c-0.27,1.43-.53,2.9-0.83,4.34a16.62,16.62,0,0,1-.38,1.93,1.18,1.18,0,0,1-1,.87,1.15,1.15,0,0,1-1.32-1.18,18.93,18.93,0,0,1,.31-5.55c0.12-.76.74-3.2,1-4.5,0.14-.7.12-0.87-0.18-1-0.71-.22-1.57-0.47-2.41-0.81a25.62,25.62,0,0,1-8.68-6,1.76,1.76,0,0,1-.49-1,2.21,2.21,0,0,1,2-2.2,1.24,1.24,0,0,1,1.06.28c1,0.77,1.92,1.69,2.89,2.49a24.22,24.22,0,0,0,6.56,4.19,0.67,0.67,0,0,0,.86-0.44c0.16-.5.3-1.51,0.45-2.1a31.21,31.21,0,0,1,1.83-5.71,1.22,1.22,0,0,1,1.12-.77c0.94-.1,2.2.41,2.3,1.39A1.68,1.68,0,0,1,6119.67,310.55Z" transform="translate(-5785.99 -251.7)"/><path class="cls-7" d="M6136.9,325.94c-1.29,1.11-4.16,1.73-5.82,1.89a13,13,0,0,1-4-.15c-2.88-.56-6.76-1.71-7.12-5a7.93,7.93,0,0,1,0-1c0.17-3.41,2.07-5.15,4.76-7.17a11.31,11.31,0,0,1,5.51-2.47c2.12-.21,5.09.54,5.31,2.91a3.48,3.48,0,0,1-.91,2.58c-1.92,2.16-4.21,2.28-6.6,3.58a8.22,8.22,0,0,1-2.88,1,2.12,2.12,0,0,1-1.47-.29c-0.16-.12-0.29-0.07-0.27.17,0.22,2.1,3.39,2.51,5.13,2.75a13.28,13.28,0,0,0,3.31.12,26.63,26.63,0,0,0,3.9-.82c0.11,0,.21-0.06.28-0.06a1.08,1.08,0,0,1,1.24,1A1,1,0,0,1,6136.9,325.94ZM6131.37,315a9.77,9.77,0,0,0-1.34.34,13.69,13.69,0,0,0-6.28,3.92c-0.18.33,0,.38,0.34,0.17,1.14-.49,2.3-0.78,3.52-1.18,0.87-.26,4.52-1.68,4.42-2.69A0.6,0.6,0,0,0,6131.37,315Z" transform="translate(-5785.99 -251.7)"/><path class="cls-7" d="M6149.35,313.4a2.81,2.81,0,0,1-2.24,1.72c-1.14.1-.67-1.58-1.28-1.53-0.22,0-1.86,1.08-2.55,1.44a0.41,0.41,0,0,0-.29.37,0.33,0.33,0,0,0,.16.23c0.54,0.47,1.12.86,1.66,1.29a38.77,38.77,0,0,1,3.94,3.39,3.08,3.08,0,0,1,.86,1.84,2.67,2.67,0,0,1-.83,2.15,13,13,0,0,1-6.46,2.87,3,3,0,0,1-1.59-.2,2.16,2.16,0,0,1-1.36-1.62,1.5,1.5,0,0,1,1.47-1.56c0.64-.05,1.24.26,1.91,0.21s2.9-.83,2.83-1.61a2.67,2.67,0,0,0-.74-1.1,14.91,14.91,0,0,0-4.4-3.1,3.35,3.35,0,0,1-2-2.79,2.32,2.32,0,0,1,1.34-2.41c1.58-.89,4.46-2.81,6.22-3a2.46,2.46,0,0,1,.51,0c1.51,0.25,2.75.9,2.87,2.46A4,4,0,0,1,6149.35,313.4Z" transform="translate(-5785.99 -251.7)"/><path class="cls-7" d="M6157.3,322a28.17,28.17,0,0,0-1.73,3.64,20.88,20.88,0,0,1-1.78,3.78,1.46,1.46,0,0,1-1.15.67,1.22,1.22,0,0,1-1.44-1.11c-0.09-1.05,2.38-6.9,3-8.24a1.49,1.49,0,0,1,1.33-.88,1.82,1.82,0,0,1,2,1.35A1.25,1.25,0,0,1,6157.3,322Z" transform="translate(-5785.99 -251.7)"/><path class="cls-7" d="M6182,313.45c-1.33,1.46-3.46,1.87-5.39,2-0.79,0-1.58,0-2.33.06a0.6,0.6,0,0,0-.65.55,12.55,12.55,0,0,0,1.06,4.2,6,6,0,0,1,.9,2.1,1.81,1.81,0,0,1-1.79,1.7c-2.8.16-2.8-4.57-3-6.33a7.07,7.07,0,0,0-.66-2.07c-0.41-.86-3-0.56-3.13-2.46-0.08-1.22.65-1.78,1.83-1.85,0.29,0,.58,0,0.87,0s0.57-.14.52-0.3a35.79,35.79,0,0,1-1.46-6.31,1.31,1.31,0,0,1,1.44-1.38c1.23-.07,2.94.71,3,2a1.66,1.66,0,0,1,0,.44,9.46,9.46,0,0,0-.25,2.67,17.28,17.28,0,0,0,.46,3,0.63,0.63,0,0,0,.71.54c0.9,0,1.8,0,2.66-.08a9.37,9.37,0,0,0,3.21-.54,2.71,2.71,0,0,1,1.34-.65,1.28,1.28,0,0,1,1.22,1.34A2,2,0,0,1,6182,313.45Z" transform="translate(-5785.99 -251.7)"/><path class="cls-7" d="M6198.68,322.61a1.15,1.15,0,0,1-1.27-.71l-0.25-1.18a15,15,0,0,0-1.59-3.55c-0.69-1.2-.7-2.66-1.32-3.76a0.5,0.5,0,0,0-.44-0.29,0.39,0.39,0,0,0-.35.25c-0.24.35-.4,0.73-0.61,1.08a17.45,17.45,0,0,1-2.11,2.87c-1.06,1.23-1.24,2.94-2.4,4.11a2.24,2.24,0,0,1-1.51.58,1.3,1.3,0,0,1-1.53-.88c-0.15-1-.23-2-0.39-3-0.31-2.16-.67-4.36-0.95-6.52a70.26,70.26,0,0,1-.77-7.21l0-.51a18.07,18.07,0,0,1,0-2.45,1.2,1.2,0,0,1,1.33-1.12c1,0,2.57.6,2.62,1.69a1.1,1.1,0,0,1-.09.45A26.59,26.59,0,0,0,6187,308l0,0.44a54.41,54.41,0,0,0,.58,6.81c0.19,1,.37,1.14.74,0.61,1.63-2,2.72-4.47,4.48-6.44a2.43,2.43,0,0,1,1.62-1,1.94,1.94,0,0,1,1.62,1.13,32,32,0,0,1,1.84,4.46,41.93,41.93,0,0,0,2.69,5.8,2.06,2.06,0,0,1,.28.88A2.11,2.11,0,0,1,6198.68,322.61Z" transform="translate(-5785.99 -251.7)"/><path class="cls-7" d="M6221.23,322.4a1.07,1.07,0,0,1-.71-0.26c-2.29-1.64-3-3.77-3.79-6.24a0.93,0.93,0,0,0-.69-0.84,1.13,1.13,0,0,0-.71.39c-0.53.52-1,1.07-1.51,1.59a23,23,0,0,1-4.77,3.67,5.94,5.94,0,0,1-2.75.85,3.88,3.88,0,0,1-3.92-3.94,3.51,3.51,0,0,1,.55-2.06c2-3,4.68-4.65,8-6.18a6.56,6.56,0,0,1,2.51-.69c1.58,0,2,1.06,2.61,1s0.67-1,1.68-1a2.53,2.53,0,0,1,2,1.33c1.07,2.2.08,6.63,1.92,8.38a1.94,1.94,0,0,0,.93.53,1,1,0,0,1,.61,1C6223.17,320.92,6222.33,322.39,6221.23,322.4Zm-9.28-9.82a2.7,2.7,0,0,0-1,.43,15.81,15.81,0,0,0-4.85,3.92,0.76,0.76,0,0,0-.13.48,0.92,0.92,0,0,0,1.09.79c1,0,2.74-1.76,3.62-2.36a8.75,8.75,0,0,1,1.24-.67l0.39-.14a0.51,0.51,0,0,0,.27-0.62C6212.62,314,6212.56,312.57,6211.95,312.57Z" transform="translate(-5785.99 -251.7)"/><path class="cls-7" d="M6238.44,312.26c-1.41,1.38-3.55,1.68-5.49,1.68-0.79,0-1.57-.07-2.33-0.07a0.6,0.6,0,0,0-.68.51,12.53,12.53,0,0,0,.83,4.25,6,6,0,0,1,.79,2.14,1.81,1.81,0,0,1-1.88,1.6c-2.8,0-2.54-4.72-2.69-6.48a7,7,0,0,0-.55-2.11c-0.36-.88-3-0.73-3-2.63,0-1.22.74-1.74,1.93-1.75,0.29,0,.58.06,0.86,0.06s0.57-.1.54-0.27a35.8,35.8,0,0,1-1.12-6.39,1.3,1.3,0,0,1,1.51-1.3c1.23,0,2.9.88,2.9,2.17a1.65,1.65,0,0,1,0,.44,9.43,9.43,0,0,0-.39,2.65,17.29,17.29,0,0,0,.29,3,0.63,0.63,0,0,0,.68.58c0.9,0.07,1.8.07,2.66,0.07a9.3,9.3,0,0,0,3.23-.37,2.7,2.7,0,0,1,1.37-.57,1.28,1.28,0,0,1,1.14,1.4A2,2,0,0,1,6238.44,312.26Z" transform="translate(-5785.99 -251.7)"/><path class="cls-7" d="M6255.05,318.31a0.85,0.85,0,0,0-.94.69,4.36,4.36,0,0,0-.13,1.19c0,1.49.51,3,.47,4.5,0,1-.57,3.49-1.88,3.46-0.74,0-1.32-1-1.6-1.56a12.23,12.23,0,0,1-1.21-5.94c0-1.67.27-3.36,0.3-5.06a15.25,15.25,0,0,0-.57-4.4,1.92,1.92,0,0,1-.06-0.48c0-2,3.76-3.23,5.49-3.19,3,0.06,5.74,2.56,5.65,5.44C6260.51,315.65,6257.77,318,6255.05,318.31Zm-0.38-7.18c-0.9,0-1.06.76-1.07,1.44a13.62,13.62,0,0,0,.16,2.55,0.24,0.24,0,0,0,.25.14,3.26,3.26,0,0,0,.79-0.12c1-.25,2.59-0.72,2.62-2S6255.82,311.15,6254.67,311.12Z" transform="translate(-5785.99 -251.7)"/><path class="cls-7" d="M6275.66,316.32c-0.84,3-3.25,6.16-6.8,6-3.16-.11-6.2-3-6.11-6,0.08-2.69,1.67-4.41,4-5.69a18.87,18.87,0,0,0,3.13-2,3.13,3.13,0,0,1,2.16-.87,2.16,2.16,0,0,1,2,1.47c0.69,1.79,1.85,3.92,1.77,5.82A5.12,5.12,0,0,1,6275.66,316.32Zm-3.1-3c-0.07-.14-0.17-0.25-0.36-0.08a1.69,1.69,0,0,1-1.09.4c-0.82,0-1.26-.76-1.73-0.78a2.47,2.47,0,0,0-1.2.47,3,3,0,0,0-1.74,2.73,2.71,2.71,0,0,0,2.93,3.09,3.79,3.79,0,0,0,3.64-3.64A5.41,5.41,0,0,0,6272.55,313.3Z" transform="translate(-5785.99 -251.7)"/><path class="cls-7" d="M6283.38,319.33a0.86,0.86,0,0,0-1,.67,4.34,4.34,0,0,0-.17,1.18c-0.07,1.49.42,3,.35,4.51,0,0.95-.67,3.47-2,3.41-0.74,0-1.29-1-1.55-1.6a12.24,12.24,0,0,1-1-6c0.07-1.67.36-3.35,0.44-5.05a15.24,15.24,0,0,0-.45-4.41,1.9,1.9,0,0,1-.05-0.48c0.08-2,3.85-3.13,5.58-3,3,0.15,5.66,2.71,5.5,5.6C6288.91,316.82,6286.11,319.05,6283.38,319.33Zm-0.18-7.19c-0.9,0-1.08.74-1.11,1.41a13.7,13.7,0,0,0,.09,2.56,0.24,0.24,0,0,0,.24.15,3.06,3.06,0,0,0,.79-0.1c1-.22,2.61-0.65,2.68-1.91S6284.35,312.19,6283.2,312.13Z" transform="translate(-5785.99 -251.7)"/><path class="cls-7" d="M6298.7,316.83c-0.5,0-1-.17-1.53-0.2-1.39-.09-2.73,0-4.12,0a10.06,10.06,0,0,1-1.42-.19,1.66,1.66,0,0,1-1-1.76,1.14,1.14,0,0,1,1.08-1.23c0.93,0,1.87,0,2.76.06a20.84,20.84,0,0,1,4.84.81,0.93,0.93,0,0,1,.65,1.06A1.47,1.47,0,0,1,6298.7,316.83Z" transform="translate(-5785.99 -251.7)"/><path class="cls-7" d="M6315.64,326.11c-2.23-.18-2.64-6.28-3.43-6.34a0.56,0.56,0,0,0-.38.34c-1.33,1.88-2.59,3.93-5.32,3.73-4.25-.31-4.71-4.69-4.49-7.91a27.56,27.56,0,0,1,1-5.89,1.39,1.39,0,0,1,1.53-.75c0.94,0.06,2,.62,1.95,1.6,0,0.14-.05.23-0.06,0.34a16.77,16.77,0,0,0-.82,4c-0.07,1,0,5,1.35,5.14a1.8,1.8,0,0,0,1.27-.69,7.89,7.89,0,0,0,2.6-5c0-.27,0-0.55,0-0.82,0.07-.91,1.32-1.3,2.15-1.23a1.82,1.82,0,0,1,1.76,1.4c0.49,2.05,1.24,7.43,2.69,8.81a1.77,1.77,0,0,1,.67,1.42A2.45,2.45,0,0,1,6315.64,326.11Z" transform="translate(-5785.99 -251.7)"/><path class="cls-7" d="M6325.23,322.26a0.86,0.86,0,0,0-1,.63,4.36,4.36,0,0,0-.21,1.18c-0.13,1.49.3,3,.17,4.52-0.09.95-.81,3.44-2.11,3.33-0.74-.06-1.25-1.1-1.49-1.67a12.23,12.23,0,0,1-.8-6c0.14-1.66.5-3.33,0.64-5a15.25,15.25,0,0,0-.27-4.42,1.92,1.92,0,0,1,0-.48c0.16-2,4-3,5.7-2.81,3,0.27,5.55,2.94,5.28,5.82C6330.86,320,6328,322.09,6325.23,322.26Zm0.11-7.19c-0.89-.08-1.11.69-1.17,1.36a13.61,13.61,0,0,0,0,2.56,0.24,0.24,0,0,0,.24.16,3.05,3.05,0,0,0,.8-0.06c1.06-.18,2.64-0.54,2.75-1.8S6326.49,315.16,6325.34,315.06Z" transform="translate(-5785.99 -251.7)"/><path class="cls-7" d="M6347.51,311.17a4.67,4.67,0,0,1-1,0,4.49,4.49,0,0,1-3.5-2.6,1.23,1.23,0,0,1-.18-0.74c0.09-.85,1.1-1.11,1.9-1,1.23,0.13,4.65,1.54,4.49,3A2,2,0,0,1,6347.51,311.17Zm-1.24,16.31a2.06,2.06,0,0,1-1.4-.63,6.4,6.4,0,0,1-1.58-4.28c0.08-1.74.26-3.43,0.45-5.15l0.25-2.3a1.13,1.13,0,0,1,1.39-1.08,2.41,2.41,0,0,1,2.21,2.33c-0.17,1.49-.79,2.89-1,4.34-0.35,3.21,2.22,4.87,2.12,5.81S6347,327.57,6346.27,327.49Z" transform="translate(-5785.99 -251.7)"/><path class="cls-7" d="M6362.57,318.3a2.81,2.81,0,0,1-2.55,1.22c-1.14-.14-0.34-1.69-0.94-1.76-0.21,0-2,.68-2.79.89a0.41,0.41,0,0,0-.36.3,0.35,0.35,0,0,0,.11.25c0.44,0.57.92,1.07,1.36,1.6a38.88,38.88,0,0,1,3.17,4.13,3.07,3.07,0,0,1,.47,2,2.67,2.67,0,0,1-1.25,1.93,13.08,13.08,0,0,1-6.92,1.49,3.13,3.13,0,0,1-1.51-.52,2.16,2.16,0,0,1-1-1.86,1.5,1.5,0,0,1,1.76-1.23c0.64,0.07,1.16.51,1.83,0.59s3-.22,3.1-1a2.68,2.68,0,0,0-.5-1.23,15,15,0,0,0-3.68-3.93,3.35,3.35,0,0,1-1.41-3.14,2.31,2.31,0,0,1,1.8-2.08c1.73-.55,4.94-1.84,6.7-1.63a2.46,2.46,0,0,1,.5.1c1.42,0.55,2.51,1.44,2.32,3A4,4,0,0,1,6362.57,318.3Z" transform="translate(-5785.99 -251.7)"/><path class="cls-7" d="M6135.36,358.7c-1.17,1.48-4.76,1.57-6.51,2.06a0.72,0.72,0,0,0-.66.92c0.09,0.84.62,3,1.82,2.85l0.2,0c0.72-.07,1,0.78,1.07,1.36,0.09,0.91-.13,1.76-1.15,1.86-2.78.29-3.89-1.67-4.36-4.09-0.09-.47-0.23-2.47-0.85-2.4s-1.14.33-1.72,0.39a2.21,2.21,0,0,1-2.7-1.82c-0.13-1.18.69-1.3,1.65-1.42,0.65-.07,1.35-0.07,2-0.15,0.27,0,.58-0.1.54-0.44l-0.13-1.18c-0.09-.84-0.22-1.72-0.31-2.56a48.47,48.47,0,0,1-.31-6.4,2.34,2.34,0,0,1,2.34-2.47c2.93-.31,8.35,2.71,8.63,5.72a3.63,3.63,0,0,1-1.12,2.81,2.42,2.42,0,0,1-1.24.84c-0.72.07-.8-0.67-0.85-1.18s0-1.05-.09-1.56a3,3,0,0,0-.91-2.06c-0.61-.52-1.87-1.55-2.74-1.46-1.46.15-1.14,3.85-1,4.79a30.43,30.43,0,0,0,.65,3.9,0.7,0.7,0,0,0,.76.67,8.44,8.44,0,0,0,1.28-.06c1.72-.18,3.39-0.75,5.11-0.92a0.82,0.82,0,0,1,1.07.65A2.22,2.22,0,0,1,6135.36,358.7Z" transform="translate(-5785.99 -251.7)"/><path class="cls-7" d="M6149.71,359.62c-0.44,3-2.34,6.51-5.74,6.81a6.29,6.29,0,0,1-6.58-5.26c-0.26-2.67,1-4.57,3.13-6.13a18.15,18.15,0,0,0,2.74-2.36,2.94,2.94,0,0,1,2-1.13,2.08,2.08,0,0,1,2.12,1.22c0.87,1.7,2.25,3.66,2.41,5.56A5.32,5.32,0,0,1,6149.71,359.62Zm-3.33-2.62c-0.08-.13-0.19-0.22-0.35,0a1.57,1.57,0,0,1-1,.53c-0.79.07-1.3-.6-1.75-0.56a2.3,2.3,0,0,0-1.09.61,3,3,0,0,0-1.32,2.92,2.66,2.66,0,0,0,3.17,2.72c1.91-.17,3.17-2.26,3-4.05A5.58,5.58,0,0,0,6146.38,357Z" transform="translate(-5785.99 -251.7)"/><path class="cls-7" d="M6161.17,356c-0.48,0-.92-0.24-1.4-0.21a1,1,0,0,0-.72.53c-1.2,2-.67,4.51-1.43,6.69a1.77,1.77,0,0,1-1.56,1.18,1.51,1.51,0,0,1-1.63-1.07c-0.48-1.36-1-2.65-1.52-4s-2.2-2.93-2.33-4.45a1.49,1.49,0,0,1,1.49-1.72,2,2,0,0,1,1.06.22,3.53,3.53,0,0,1,2,2.71c0.1,0.37.16,0.77,0.3,1.14a0.22,0.22,0,0,0,.22.19,0.4,0.4,0,0,0,.29-0.33c0.76-1.76-.27-3.56,2.34-4.37a5.83,5.83,0,0,1,1.06-.18c1.28-.09,2.9.38,3,1.83A1.55,1.55,0,0,1,6161.17,356Z" transform="translate(-5785.99 -251.7)"/><path class="cls-7" d="M6187.14,354.06c-1.28,1.45-3.32,1.86-5.18,1.95-0.76,0-1.51,0-2.24,0a0.58,0.58,0,0,0-.63.54,13,13,0,0,0,1,4.2,6.13,6.13,0,0,1,.86,2.1,1.76,1.76,0,0,1-1.72,1.69c-2.69.15-2.68-4.58-2.92-6.34a7.3,7.3,0,0,0-.63-2.08c-0.39-.86-2.9-0.58-3-2.48a1.6,1.6,0,0,1,1.76-1.84c0.28,0,.56,0,0.83,0s0.55-.13.5-0.3a37.1,37.1,0,0,1-1.4-6.32,1.27,1.27,0,0,1,1.39-1.37c1.18-.07,2.83.73,2.9,2a1.77,1.77,0,0,1,0,.44,9.73,9.73,0,0,0-.24,2.67,17.89,17.89,0,0,0,.44,3,0.61,0.61,0,0,0,.69.54c0.86,0,1.73,0,2.55-.06a8.64,8.64,0,0,0,3.08-.52,2.56,2.56,0,0,1,1.28-.64,1.27,1.27,0,0,1,1.17,1.34A2,2,0,0,1,6187.14,354.06Z" transform="translate(-5785.99 -251.7)"/><path class="cls-7" d="M6203.13,363.29a1.1,1.1,0,0,1-1.22-.71l-0.24-1.18a15.19,15.19,0,0,0-1.52-3.56c-0.66-1.21-.67-2.66-1.26-3.77a0.47,0.47,0,0,0-.42-0.29,0.37,0.37,0,0,0-.34.25c-0.23.35-.39,0.73-0.58,1.07a17.42,17.42,0,0,1-2,2.86c-1,1.23-1.19,2.94-2.31,4.1a2.1,2.1,0,0,1-1.45.57,1.25,1.25,0,0,1-1.47-.89c-0.14-1-.22-2-0.37-3-0.3-2.17-.63-4.36-0.9-6.53-0.35-2.4-.62-4.81-0.73-7.22l0-.51a18.69,18.69,0,0,1,0-2.45,1.16,1.16,0,0,1,1.28-1.11c1,0,2.47.62,2.51,1.7a1.17,1.17,0,0,1-.09.44,27.73,27.73,0,0,0-.13,5.52l0,0.44a56.46,56.46,0,0,0,.55,6.82c0.18,1,.36,1.14.71,0.62,1.57-2,2.62-4.45,4.32-6.42a2.32,2.32,0,0,1,1.56-1,1.88,1.88,0,0,1,1.56,1.14,32.78,32.78,0,0,1,1.76,4.47,42.67,42.67,0,0,0,2.57,5.81,2.14,2.14,0,0,1,.26.88A2.06,2.06,0,0,1,6203.13,363.29Z" transform="translate(-5785.99 -251.7)"/><path class="cls-7" d="M6209.84,345.84a4.44,4.44,0,0,1-.93.12,4.28,4.28,0,0,1-3.67-2.12,1.27,1.27,0,0,1-.26-0.71,1.5,1.5,0,0,1,1.67-1.27c1.19,0,4.62.91,4.65,2.34A1.94,1.94,0,0,1,6209.84,345.84Zm0.91,16.34a1.93,1.93,0,0,1-1.41-.44,6.51,6.51,0,0,1-2-4c-0.15-1.73-.19-3.43-0.23-5.16l-0.06-2.31a1.11,1.11,0,0,1,1.18-1.25,2.34,2.34,0,0,1,2.4,2c0,1.49-.38,3-0.35,4.43,0.07,3.23,2.74,4.53,2.75,5.49S6211.46,362.16,6210.75,362.18Z" transform="translate(-5785.99 -251.7)"/><path class="cls-7" d="M6225.07,350.92a2.69,2.69,0,0,1-2.26,1.55c-1.1,0-.53-1.63-1.12-1.62-0.21,0-1.85.94-2.54,1.25a0.41,0.41,0,0,0-.31.34,0.35,0.35,0,0,0,.14.24c0.49,0.5,1,.94,1.5,1.41a38.07,38.07,0,0,1,3.54,3.67,3.15,3.15,0,0,1,.7,1.9,2.71,2.71,0,0,1-.94,2.08,12.14,12.14,0,0,1-6.38,2.39,2.88,2.88,0,0,1-1.5-.32,2.15,2.15,0,0,1-1.19-1.71,1.46,1.46,0,0,1,1.51-1.45c0.61,0,1.17.35,1.82,0.35s2.83-.61,2.82-1.4a2.73,2.73,0,0,0-.63-1.15,14.55,14.55,0,0,0-4-3.41,3.38,3.38,0,0,1-1.74-2.93,2.32,2.32,0,0,1,1.45-2.3c1.58-.77,4.46-2.48,6.16-2.49a2.29,2.29,0,0,1,.49,0c1.42,0.36,2.57,1.1,2.58,2.66A4.17,4.17,0,0,1,6225.07,350.92Z" transform="translate(-5785.99 -251.7)"/><path class="cls-7" d="M6252.34,352.67a1.7,1.7,0,0,1-1.49-1.22,0.86,0.86,0,0,0-.92-0.46c-1.76,0-5.34,1.41-7,2.14s-2.73,1.47-3.16,3.23a0.57,0.57,0,0,0,0,.24c0,1.8,3.33,3.39,4.76,3.72a7.06,7.06,0,0,0,1.43.19c1.4,0,2.61-.81,4-0.79a1.25,1.25,0,0,1,1.31,1.11,1.56,1.56,0,0,1-1.18,1.24,12.29,12.29,0,0,1-4.86,1.25,6.6,6.6,0,0,1-1.6-.22c-3.4-.92-7-2.77-7-6.79,0-.14,0-0.27,0-0.41,0.32-3.87,4.16-5.11,7.35-6.23a28,28,0,0,1,7-1.36,2.54,2.54,0,0,1,2.89,2.23C6253.82,351.44,6253.45,352.69,6252.34,352.67Z" transform="translate(-5785.99 -251.7)"/><path class="cls-7" d="M6266.93,356.81c-0.79,3-3.09,6.18-6.49,6.09a6.28,6.28,0,0,1-5.91-6c0.06-2.68,1.58-4.42,3.82-5.72a18.16,18.16,0,0,0,3-2,3,3,0,0,1,2.07-.89,2.08,2.08,0,0,1,2,1.46c0.67,1.79,1.8,3.9,1.73,5.81A5.33,5.33,0,0,1,6266.93,356.81Zm-3-3c-0.06-.14-0.16-0.25-0.34-0.08a1.59,1.59,0,0,1-1,.41c-0.79,0-1.22-.75-1.67-0.76a2.34,2.34,0,0,0-1.15.48,3,3,0,0,0-1.66,2.74,2.66,2.66,0,0,0,2.83,3.07c1.91,0.06,3.42-1.87,3.48-3.67A5.57,5.57,0,0,0,6263.93,353.82Z" transform="translate(-5785.99 -251.7)"/><path class="cls-7" d="M6283.16,364.83c-2.14-.11-2.7-6.19-3.46-6.23a0.54,0.54,0,0,0-.36.36c-1.22,1.92-2.38,4-5,3.89-4.09-.17-4.64-4.54-4.52-7.77a28.66,28.66,0,0,1,.85-5.92,1.33,1.33,0,0,1,1.45-.79c0.9,0,2,.56,1.91,1.54,0,0.14,0,.24,0,0.34a17.44,17.44,0,0,0-.68,4c0,1,.14,5,1.44,5.1a1.74,1.74,0,0,0,1.2-.73,8.06,8.06,0,0,0,2.36-5c0-.27,0-0.54,0-0.82,0-.92,1.24-1.34,2-1.3a1.75,1.75,0,0,1,1.73,1.34c0.52,2,1.38,7.39,2.82,8.72a1.79,1.79,0,0,1,.68,1.4A2.38,2.38,0,0,1,6283.16,364.83Z" transform="translate(-5785.99 -251.7)"/><path class="cls-7" d="M6296.7,355.61c-0.48,0-.87-0.36-1.35-0.39a1,1,0,0,0-.79.43c-1.46,1.85-1.27,4.38-2.32,6.43a1.77,1.77,0,0,1-1.7,1,1.51,1.51,0,0,1-1.47-1.28c-0.3-1.41-.6-2.76-1-4.14s-1.79-3.2-1.7-4.73a1.49,1.49,0,0,1,1.71-1.51,1.92,1.92,0,0,1,1,.36,3.54,3.54,0,0,1,1.63,3c0,0.38.06,0.78,0.14,1.17a0.22,0.22,0,0,0,.19.22,0.4,0.4,0,0,0,.33-0.29c1-1.64.21-3.57,2.91-4a5.85,5.85,0,0,1,1.08,0c1.28,0.08,2.83.77,2.73,2.22A1.55,1.55,0,0,1,6296.7,355.61Z" transform="translate(-5785.99 -251.7)"/><path class="cls-7" d="M6310.31,354a2.68,2.68,0,0,1-2.39,1.35c-1.1-.08-0.39-1.67-1-1.71-0.21,0-1.93.78-2.64,1a0.4,0.4,0,0,0-.33.32,0.35,0.35,0,0,0,.12.25c0.44,0.54.93,1,1.37,1.53a38.45,38.45,0,0,1,3.22,4,3.14,3.14,0,0,1,.54,2,2.71,2.71,0,0,1-1.12,2,12.19,12.19,0,0,1-6.57,1.83,2.89,2.89,0,0,1-1.47-.44,2.15,2.15,0,0,1-1-1.81,1.46,1.46,0,0,1,1.63-1.32c0.61,0,1.13.46,1.78,0.5s2.87-.37,2.93-1.15a2.72,2.72,0,0,0-.53-1.2,14.51,14.51,0,0,0-3.69-3.74,3.37,3.37,0,0,1-1.48-3.07,2.32,2.32,0,0,1,1.64-2.17c1.64-.64,4.66-2.09,6.36-2a2.22,2.22,0,0,1,.48.07c1.39,0.48,2.47,1.31,2.35,2.87A4.13,4.13,0,0,1,6310.31,354Z" transform="translate(-5785.99 -251.7)"/><path class="cls-7" d="M6327.08,366.89c-1.42.85-4.24,0.93-5.83,0.79a12.14,12.14,0,0,1-3.72-.88c-2.61-1.08-6.06-2.93-5.8-6.22a8.41,8.41,0,0,1,.14-0.94c0.78-3.31,2.9-4.68,5.8-6.17a10.61,10.61,0,0,1,5.65-1.41c2,0.18,4.7,1.46,4.47,3.83a3.55,3.55,0,0,1-1.33,2.37c-2.21,1.77-4.39,1.47-6.88,2.31a7.67,7.67,0,0,1-2.9.43,2,2,0,0,1-1.33-.56c-0.13-.15-0.26-0.13-0.28.11-0.17,2.1,2.73,3.1,4.33,3.65a12.29,12.29,0,0,0,3.1.72,24.81,24.81,0,0,0,3.82-.09c0.1,0,.21,0,0.28,0a1.06,1.06,0,0,1,1,1.22A1,1,0,0,1,6327.08,366.89Zm-3.2-11.78a8.38,8.38,0,0,0-1.33.08,13,13,0,0,0-6.64,2.69c-0.23.29-.1,0.37,0.29,0.23a34.89,34.89,0,0,1,3.54-.51c0.87-.1,4.57-0.82,4.67-1.83A0.58,0.58,0,0,0,6323.87,355.11Z" transform="translate(-5785.99 -251.7)"/><path class="cls-7" d="M6334.15,358.23c-0.06.54-.11,1.08-0.2,1.59a1.16,1.16,0,0,1-1.32,1.09,1.29,1.29,0,0,1-1.17-1.45l0.06-.58a50.56,50.56,0,0,0,.12-6.07c0-2.16,0-4.3.19-6.47l0-.37a1.47,1.47,0,0,1,1.79-1.08,1.59,1.59,0,0,1,1.67,1.54c-0.1,1-.24,2-0.35,3-0.25,2.43-.43,4.87-0.68,7.31Zm-2.92,9.41c-1.09-.11-1.12-1.54-1-2.36s0.59-2.78,1.88-2.65a1.77,1.77,0,0,1,1.19.87c0.49,0.63,1.46,1.24,1.37,2.12C6334.51,366.77,6332.24,367.74,6331.23,367.64Z" transform="translate(-5785.99 -251.7)"/></svg>