<svg id="Interactive_elements" data-name="Interactive elements" xmlns="http://www.w3.org/2000/svg" viewBox="0 0 375.47 339.5"><defs><style>.cls-1{fill:#e8f3fc;}.cls-2{fill:#c53a43;}.cls-3{fill:#89d1f7;}.cls-4{fill:#999;}.cls-5{fill:#dcdcdc;}.cls-6,.cls-8{fill:#fff;}.cls-6{stroke:#777;stroke-linecap:round;stroke-miterlimit:10;stroke-width:0.3px;}.cls-7{fill:red;}.cls-9{fill:#2e8bbd;}.cls-10{fill:#14608a;}.cls-11{fill:#c43c43;}.cls-12{fill:#777;}</style></defs><title>find-camera</title><circle class="cls-1" cx="223.98" cy="188.01" r="151.48"/><path class="cls-2" d="M988,384.31a5.61,5.61,0,0,1-1.78.38,8.17,8.17,0,0,0-3,.86,4.78,4.78,0,0,1-1.82.48c-0.84,0-.91-0.46-1-1.18-0.17-1.46-.34-3-0.46-4.44s-0.19-3.07-.26-4.61a16.35,16.35,0,0,0-1-3.67,1.17,1.17,0,0,1,0-.29,1.24,1.24,0,0,1,1.06-1.3,1.1,1.1,0,0,1,.74.31c1.25,1,1.32,3.41,1.37,4.87a40.16,40.16,0,0,0,.36,6.79c0,0.24,0,.43.34,0.43,1.39,0,2.62-.94,4-0.94a3.28,3.28,0,0,1,.7,0,1.54,1.54,0,0,1,1.18,1.46A0.77,0.77,0,0,1,988,384.31Z" transform="translate(-887.75 -368.26)"/><path class="cls-2" d="M998.66,380.62c-0.48,2.11-2,4.44-4.42,4.44a4.4,4.4,0,0,1-4.25-4.13,4.68,4.68,0,0,1,2.57-4.1,12.33,12.33,0,0,0,2-1.49,2,2,0,0,1,1.42-.67,1.45,1.45,0,0,1,1.39,1c0.5,1.25,1.34,2.71,1.34,4.06A3.8,3.8,0,0,1,998.66,380.62Zm-2.16-2c0-.1-0.12-0.17-0.24,0a1.09,1.09,0,0,1-.72.31,5.7,5.7,0,0,1-1.18-.5,1.6,1.6,0,0,0-.79.36,2.11,2.11,0,0,0-1.1,2,1.87,1.87,0,0,0,2,2.11,2.62,2.62,0,0,0,2.35-2.66A4,4,0,0,0,996.5,378.58Z" transform="translate(-887.75 -368.26)"/><path class="cls-2" d="M1009.32,380.62c-0.48,2.11-2,4.44-4.42,4.44a4.4,4.4,0,0,1-4.25-4.13,4.68,4.68,0,0,1,2.57-4.1,12.33,12.33,0,0,0,2-1.49,2,2,0,0,1,1.42-.67,1.45,1.45,0,0,1,1.39,1c0.5,1.25,1.34,2.71,1.34,4.06A3.8,3.8,0,0,1,1009.32,380.62Zm-2.16-2c0-.1-0.12-0.17-0.24,0a1.09,1.09,0,0,1-.72.31,5.7,5.7,0,0,1-1.18-.5,1.6,1.6,0,0,0-.79.36,2.11,2.11,0,0,0-1.1,2,1.87,1.87,0,0,0,2,2.11,2.62,2.62,0,0,0,2.35-2.66A4,4,0,0,0,1007.16,378.58Z" transform="translate(-887.75 -368.26)"/><path class="cls-2" d="M1021.29,383.5a6.35,6.35,0,0,1-1.51.17A16.54,16.54,0,0,1,1016,383a2.61,2.61,0,0,0-.62-0.12,0.25,0.25,0,0,0-.29.26c0,0.58.86,1.56,0.86,2s-0.6.55-.94,0.55a1.71,1.71,0,0,1-1.54-.72,17.82,17.82,0,0,1-1.39-5.33c-0.14-1.78-.14-3.58-0.34-5.35a7.19,7.19,0,0,0-1.32-3.86,0.89,0.89,0,0,1-.22-0.65,1.49,1.49,0,0,1,1.3-1.54,1.25,1.25,0,0,1,.7.22c1.87,1.08,1.34,3.41,1.63,5.21a19.41,19.41,0,0,1,.19,2.35,14.42,14.42,0,0,0,.1,1.78c0,0.14,0,.31.24,0.31a0.54,0.54,0,0,0,.38-0.19c0.94-.86,2.83-3,4.18-3a1.4,1.4,0,0,1,.26,2.71c-0.19,0-.34-0.07-0.53-0.07-0.58,0-2.16,1.63-2.69,2.06-0.19.14-.24,0.31-0.07,0.41a13.4,13.4,0,0,0,5.09,1.44,0.82,0.82,0,0,1,.91.89A1.08,1.08,0,0,1,1021.29,383.5Z" transform="translate(-887.75 -368.26)"/><path class="cls-2" d="M1040.56,379.06c-0.91,1-3.41.77-4.66,1a0.5,0.5,0,0,0-.53.6c0,0.6.22,2.14,1.06,2.14h0.14a0.89,0.89,0,0,1,.65,1,1,1,0,0,1-.94,1.22c-2,0-2.59-1.46-2.74-3.19,0-.34,0-1.75-0.41-1.75s-0.82.14-1.22,0.14a1.54,1.54,0,0,1-1.73-1.49c0-.84.58-0.86,1.25-0.86,0.46,0,.94,0,1.39,0,0.19,0,.41,0,0.41-0.26v-0.84c0-.6,0-1.22,0-1.82a35.3,35.3,0,0,1,.26-4.51,1.62,1.62,0,0,1,1.78-1.56c2,0,5.52,2.5,5.52,4.63a2.58,2.58,0,0,1-1,1.9,1.66,1.66,0,0,1-.91.5c-0.5,0-.5-0.53-0.5-0.89s0-.74,0-1.1a2.16,2.16,0,0,0-.48-1.51,3.47,3.47,0,0,0-1.78-1.22c-1,0-1.06,2.62-1.06,3.29a21.67,21.67,0,0,0,.17,2.78,0.49,0.49,0,0,0,.48.53,5.5,5.5,0,0,0,.89,0c1.2,0,2.4-.29,3.6-0.29a0.57,0.57,0,0,1,.7.53A1.57,1.57,0,0,1,1040.56,379.06Z" transform="translate(-887.75 -368.26)"/><path class="cls-2" d="M1051.08,380.62c-0.48,2.11-2,4.44-4.42,4.44a4.4,4.4,0,0,1-4.25-4.13,4.68,4.68,0,0,1,2.57-4.1,12.33,12.33,0,0,0,2-1.49,2,2,0,0,1,1.42-.67,1.45,1.45,0,0,1,1.39,1c0.5,1.25,1.34,2.71,1.34,4.06A3.8,3.8,0,0,1,1051.08,380.62Zm-2.16-2c0-.1-0.12-0.17-0.24,0a1.09,1.09,0,0,1-.72.31,5.7,5.7,0,0,1-1.18-.5,1.6,1.6,0,0,0-.79.36,2.11,2.11,0,0,0-1.1,2,1.87,1.87,0,0,0,2,2.11,2.62,2.62,0,0,0,2.35-2.66A4,4,0,0,0,1048.92,378.58Z" transform="translate(-887.75 -368.26)"/><path class="cls-2" d="M1059.84,378.72c-0.34,0-.62-0.22-1-0.22a0.65,0.65,0,0,0-.53.34c-0.94,1.37-.7,3.14-1.34,4.63a1.24,1.24,0,0,1-1.15.74,1.06,1.06,0,0,1-1.08-.84c-0.26-1-.53-1.92-0.84-2.88s-1.37-2.18-1.37-3.26a1,1,0,0,1,1.13-1.13,1.33,1.33,0,0,1,.72.22,2.51,2.51,0,0,1,1.25,2c0,0.26.07,0.55,0.14,0.82a0.15,0.15,0,0,0,.14.14,0.28,0.28,0,0,0,.22-0.22c0.62-1.2,0-2.52,1.85-3a3.9,3.9,0,0,1,.74-0.07c0.89,0,2,.41,2,1.44A1.09,1.09,0,0,1,1059.84,378.72Z" transform="translate(-887.75 -368.26)"/><path class="cls-2" d="M1082.23,385.51a0.71,0.71,0,0,1-.48-0.19c-1.54-1.18-2-2.69-2.5-4.44a0.65,0.65,0,0,0-.46-0.6,0.74,0.74,0,0,0-.48.26c-0.36.36-.67,0.74-1,1.1a15.2,15.2,0,0,1-3.26,2.52,3.87,3.87,0,0,1-1.87.55,2.69,2.69,0,0,1-2.57-2.86,2.57,2.57,0,0,1,.41-1.44,11.93,11.93,0,0,1,5.42-4.22,4.18,4.18,0,0,1,1.68-.46c1.06,0,1.34.77,1.73,0.77s0.46-.7,1.13-0.7a1.7,1.7,0,0,1,1.34,1c0.7,1.56,0,4.68,1.22,5.93a1.31,1.31,0,0,0,.62.38,0.69,0.69,0,0,1,.41.72A1.74,1.74,0,0,1,1082.23,385.51Zm-6.14-7a1.7,1.7,0,0,0-.65.29,10.9,10.9,0,0,0-3.31,2.69,0.55,0.55,0,0,0-.1.34,0.62,0.62,0,0,0,.72.58c0.67,0,1.87-1.2,2.47-1.61a5.71,5.71,0,0,1,.84-0.46l0.26-.1a0.37,0.37,0,0,0,.19-0.43C1076.51,379.49,1076.49,378.48,1076.08,378.48Z" transform="translate(-887.75 -368.26)"/><path class="cls-2" d="M1101.59,378.39a5,5,0,0,1-3.67,1.2c-0.53,0-1.06,0-1.56,0a0.41,0.41,0,0,0-.46.36,9.21,9.21,0,0,0,.55,3,4.37,4.37,0,0,1,.53,1.51,1.24,1.24,0,0,1-1.27,1.13c-1.9,0-1.7-3.34-1.8-4.58a5.19,5.19,0,0,0-.36-1.49c-0.24-.62-2-0.53-2-1.87a1.12,1.12,0,0,1,1.3-1.22c0.19,0,.38,0,0.58,0s0.38-.07.36-0.19a26.36,26.36,0,0,1-.72-4.51,0.88,0.88,0,0,1,1-.91,1.88,1.88,0,0,1,1.92,1.54,1.27,1.27,0,0,1,0,.31,7.05,7.05,0,0,0-.26,1.87,12.85,12.85,0,0,0,.19,2.14,0.43,0.43,0,0,0,.46.41c0.6,0,1.2,0,1.78,0a5.88,5.88,0,0,0,2.16-.26,1.76,1.76,0,0,1,.91-0.41,0.89,0.89,0,0,1,.77,1A1.43,1.43,0,0,1,1101.59,378.39Z" transform="translate(-887.75 -368.26)"/><path class="cls-2" d="M1105.29,373.13a3,3,0,0,1-.65.07,2.94,2.94,0,0,1-2.5-1.56,0.9,0.9,0,0,1-.17-0.5,1,1,0,0,1,1.18-.86c0.82,0,3.17.72,3.17,1.73A1.36,1.36,0,0,1,1105.29,373.13Zm0.38,11.54a1.34,1.34,0,0,1-1-.34,4.59,4.59,0,0,1-1.37-2.88c-0.07-1.22-.07-2.42-0.07-3.65v-1.63a0.78,0.78,0,0,1,.84-0.86,1.64,1.64,0,0,1,1.63,1.46c0,1.06-.31,2.09-0.31,3.12,0,2.28,1.85,3.24,1.85,3.91S1106.18,384.67,1105.67,384.67Z" transform="translate(-887.75 -368.26)"/><path class="cls-2" d="M1117.72,385.95a2,2,0,0,1-.74-0.17c-2.23-1-1.18-4.2-1.92-5.52a1.12,1.12,0,0,0-.43-0.55,0.35,0.35,0,0,0-.26.17c-0.84,1-.77,2.52-1.94,3.29a1.82,1.82,0,0,1-1,.36c-0.91,0-1.44-1.13-1.44-1.92v-0.41a7.65,7.65,0,0,0-1.1-4.15,0.72,0.72,0,0,1-.14-0.43,1.92,1.92,0,0,1,1.75-1.68,1.23,1.23,0,0,1,.6.14c0.84,0.46.74,3,1,4a0.45,0.45,0,0,0,.26.43,0.65,0.65,0,0,0,.36-0.26,8.32,8.32,0,0,0,1.32-2.5,0.69,0.69,0,0,1,.72-0.43,2.16,2.16,0,0,1,1.61.89,12.21,12.21,0,0,1,1,4c0.1,0.55.26,2.45,0.79,2.71a1.13,1.13,0,0,1,.79,1A1.22,1.22,0,0,1,1117.72,385.95Z" transform="translate(-887.75 -368.26)"/><path class="cls-2" d="M1130.66,378.51c-0.84,1.73-1.8,3.36-2.76,4.92a48.74,48.74,0,0,0-3.43,6.38,1.49,1.49,0,0,1-1.18.74,0.63,0.63,0,0,1-.72-0.65,1.3,1.3,0,0,1,0-.26,18.71,18.71,0,0,1,2.35-5.16c0.22-.38.43-0.79,0.7-1.25s0.29-.46,0-0.67c-2.33-1.58-4.46-3.41-5.47-5.76a1.92,1.92,0,0,1-.12-0.38,1.48,1.48,0,0,1,1.3-1.3,1,1,0,0,1,.82.48,23.42,23.42,0,0,0,4.42,4.82c0.29,0.22.46,0.34,0.7,0a12,12,0,0,0,1.63-3.5,1,1,0,0,1,.91-0.82,1.43,1.43,0,0,1,1.3,1.25A3,3,0,0,1,1130.66,378.51Z" transform="translate(-887.75 -368.26)"/><path class="cls-2" d="M1152.11,384.31c-1.13,0-1.8-1-2.18-2a10.94,10.94,0,0,0-.65-1.54,0.49,0.49,0,0,0-.46-0.24,0.39,0.39,0,0,0-.34.17c-0.22.29-.41,0.65-0.62,0.94a7.72,7.72,0,0,1-3.26,2.81,5.66,5.66,0,0,1-2.23.55,2.35,2.35,0,0,1-2.57-2.21,2.12,2.12,0,0,1,.43-1.25c1.85-2.38,4.56-3.79,7.15-5.26a0.76,0.76,0,0,0,.48-0.46,24.27,24.27,0,0,0-.53-4.15v-0.17a0.82,0.82,0,0,1,.89-0.79,1.07,1.07,0,0,1,.74.29,4.7,4.7,0,0,1,1.68,3.46c0.07,2.3.14,7,2.47,8.16a0.92,0.92,0,0,1,.65.67C1153.77,384,1152.64,384.31,1152.11,384.31Zm-4.54-5.83a0.34,0.34,0,0,0-.14,0c-1.61.89-4,2.23-5.16,3.67a0.48,0.48,0,0,0-.1.31,0.47,0.47,0,0,0,.55.48,2.1,2.1,0,0,0,.65-0.14,10.26,10.26,0,0,0,3.7-3.19,2.57,2.57,0,0,0,.7-1A0.17,0.17,0,0,0,1147.58,378.48Z" transform="translate(-887.75 -368.26)"/><path class="cls-2" d="M1164.33,380.62c-0.48,2.11-2,4.44-4.42,4.44a4.4,4.4,0,0,1-4.25-4.13,4.68,4.68,0,0,1,2.57-4.1,12.33,12.33,0,0,0,2-1.49,2,2,0,0,1,1.42-.67,1.45,1.45,0,0,1,1.39,1c0.5,1.25,1.34,2.71,1.34,4.06A3.8,3.8,0,0,1,1164.33,380.62Zm-2.16-2c0-.1-0.12-0.17-0.24,0a1.09,1.09,0,0,1-.72.31,5.7,5.7,0,0,1-1.18-.5,1.6,1.6,0,0,0-.79.36,2.11,2.11,0,0,0-1.1,2,1.87,1.87,0,0,0,2,2.11,2.62,2.62,0,0,0,2.35-2.66A4,4,0,0,0,1162.17,378.58Z" transform="translate(-887.75 -368.26)"/><path class="cls-2" d="M1175.87,378.39a5,5,0,0,1-3.67,1.2c-0.53,0-1.06,0-1.56,0a0.41,0.41,0,0,0-.46.36,9.21,9.21,0,0,0,.55,3,4.37,4.37,0,0,1,.53,1.51,1.24,1.24,0,0,1-1.27,1.13c-1.9,0-1.7-3.34-1.8-4.58a5.19,5.19,0,0,0-.36-1.49c-0.24-.62-2-0.53-2-1.87a1.12,1.12,0,0,1,1.3-1.22c0.19,0,.38,0,0.58,0s0.38-.07.36-0.19a26.36,26.36,0,0,1-.72-4.51,0.88,0.88,0,0,1,1-.91,1.88,1.88,0,0,1,1.92,1.54,1.27,1.27,0,0,1,0,.31,7.05,7.05,0,0,0-.26,1.87,12.85,12.85,0,0,0,.19,2.14,0.43,0.43,0,0,0,.46.41c0.6,0,1.2,0,1.78,0a5.88,5.88,0,0,0,2.16-.26,1.76,1.76,0,0,1,.91-0.41,0.89,0.89,0,0,1,.77,1A1.43,1.43,0,0,1,1175.87,378.39Z" transform="translate(-887.75 -368.26)"/><path class="cls-2" d="M1193.06,380.62c-0.48,2.11-2,4.44-4.42,4.44a4.4,4.4,0,0,1-4.25-4.13,4.68,4.68,0,0,1,2.57-4.1,12.33,12.33,0,0,0,2-1.49,2,2,0,0,1,1.42-.67,1.45,1.45,0,0,1,1.39,1c0.5,1.25,1.34,2.71,1.34,4.06A3.8,3.8,0,0,1,1193.06,380.62Zm-2.16-2c0-.1-0.12-0.17-0.24,0a1.09,1.09,0,0,1-.72.31,5.7,5.7,0,0,1-1.18-.5,1.6,1.6,0,0,0-.79.36,2.11,2.11,0,0,0-1.1,2,1.87,1.87,0,0,0,2,2.11,2.62,2.62,0,0,0,2.35-2.66A4,4,0,0,0,1190.9,378.58Z" transform="translate(-887.75 -368.26)"/><path class="cls-2" d="M1201.82,378.72c-0.34,0-.62-0.22-1-0.22a0.65,0.65,0,0,0-.53.34c-0.94,1.37-.7,3.14-1.34,4.63a1.24,1.24,0,0,1-1.15.74,1.06,1.06,0,0,1-1.08-.84c-0.26-1-.53-1.92-0.84-2.88s-1.37-2.18-1.37-3.26a1,1,0,0,1,1.13-1.13,1.33,1.33,0,0,1,.72.22,2.51,2.51,0,0,1,1.25,2c0,0.26.07,0.55,0.14,0.82a0.15,0.15,0,0,0,.14.14,0.28,0.28,0,0,0,.22-0.22c0.62-1.2,0-2.52,1.85-3a3.9,3.9,0,0,1,.74-0.07c0.89,0,2,.41,2,1.44A1.09,1.09,0,0,1,1201.82,378.72Z" transform="translate(-887.75 -368.26)"/><path class="cls-2" d="M1214.68,381.87c0,0.62,0,1.27-.1,1.87a0.73,0.73,0,0,1-.84.67,1.29,1.29,0,0,1-1.27-.91,9.69,9.69,0,0,1-.26-2.35c0-1.3.19-2.59,0.19-3.89a25.19,25.19,0,0,0-1.49-7,1,1,0,0,1-.07-0.36c0-.82,1.06-1.18,1.75-1.18a1.09,1.09,0,0,1,1.27.94c0.24,2.09.72,4.13,0.86,6.24,0,0.82.1,1.61,0.1,2.4C1214.82,379.47,1214.75,380.67,1214.68,381.87Z" transform="translate(-887.75 -368.26)"/><path class="cls-2" d="M1220,373.13a3,3,0,0,1-.65.07,2.94,2.94,0,0,1-2.5-1.56,0.9,0.9,0,0,1-.17-0.5,1,1,0,0,1,1.18-.86c0.82,0,3.17.72,3.17,1.73A1.36,1.36,0,0,1,1220,373.13Zm0.38,11.54a1.34,1.34,0,0,1-1-.34,4.59,4.59,0,0,1-1.37-2.88c-0.07-1.22-.07-2.42-0.07-3.65v-1.63a0.78,0.78,0,0,1,.84-0.86,1.64,1.64,0,0,1,1.63,1.46c0,1.06-.31,2.09-0.31,3.12,0,2.28,1.85,3.24,1.85,3.91S1220.87,384.67,1220.37,384.67Z" transform="translate(-887.75 -368.26)"/><path class="cls-2" d="M1230.71,389.81a4.48,4.48,0,0,1-3.41,1.9,4.69,4.69,0,0,1-4.27-3.86,2.71,2.71,0,0,1-.12-0.77,1,1,0,0,1,.94-1.15c2,0-.34,3.55,2.93,3.55,2.64,0,4.13-3.41,4.13-5.66a20.69,20.69,0,0,0-.24-3.36s0-.26-0.14-0.26c-0.41,0-1.82,3-3.74,3a2,2,0,0,1-.53-0.07,2.91,2.91,0,0,1-2.3-2.74c0-2.57,3.74-5.38,6.17-5.38a2.11,2.11,0,0,1,2,1.08,3.82,3.82,0,0,1,.62,2c0,0.58-.1,1.1-0.1,1.68,0,1.13.17,2.26,0.17,3.38A10.16,10.16,0,0,1,1230.71,389.81Zm-1.39-12.34a2,2,0,0,0-.58.24c-0.5.24-1,.53-1.51,0.79a2.1,2.1,0,0,0-1.08,1.78,0.69,0.69,0,0,0,.65.79,2.1,2.1,0,0,0,1.39-1,12.47,12.47,0,0,0,1.34-2.35A0.22,0.22,0,0,0,1229.32,377.47Z" transform="translate(-887.75 -368.26)"/><path class="cls-2" d="M1245.5,385.32a0.78,0.78,0,0,1-.84-0.53l-0.14-.84a11,11,0,0,0-1-2.54c-0.43-.86-0.41-1.9-0.79-2.69a0.34,0.34,0,0,0-.29-0.22,0.26,0.26,0,0,0-.24.17c-0.17.24-.29,0.5-0.43,0.74a12.11,12.11,0,0,1-1.49,2c-0.74.84-.91,2-1.73,2.83a1.47,1.47,0,0,1-1,.36,0.88,0.88,0,0,1-1-.67c-0.07-.7-0.1-1.42-0.17-2.11-0.14-1.54-.31-3.1-0.43-4.63-0.17-1.7-.29-3.41-0.29-5.11v-0.36a13.65,13.65,0,0,1,.1-1.73,0.8,0.8,0,0,1,.91-0.74,1.64,1.64,0,0,1,1.68,1.27,0.83,0.83,0,0,1-.07.31,20,20,0,0,0-.24,3.89V375a40.34,40.34,0,0,0,.19,4.82c0.1,0.7.22,0.82,0.48,0.46,1.15-1.39,1.94-3.07,3.17-4.42a1.61,1.61,0,0,1,1.1-.65,1.31,1.31,0,0,1,1.06.84,23.94,23.94,0,0,1,1.13,3.19,29.48,29.48,0,0,0,1.68,4.15,1.52,1.52,0,0,1,.17.62A1.45,1.45,0,0,1,1245.5,385.32Z" transform="translate(-887.75 -368.26)"/><path class="cls-2" d="M1258.29,378.39a5,5,0,0,1-3.67,1.2c-0.53,0-1.06,0-1.56,0a0.41,0.41,0,0,0-.46.36,9.21,9.21,0,0,0,.55,3,4.37,4.37,0,0,1,.53,1.51,1.24,1.24,0,0,1-1.27,1.13c-1.9,0-1.7-3.34-1.8-4.58a5.19,5.19,0,0,0-.36-1.49c-0.24-.62-2-0.53-2-1.87a1.12,1.12,0,0,1,1.3-1.22c0.19,0,.38,0,0.58,0s0.38-.07.36-0.19a26.36,26.36,0,0,1-.72-4.51,0.88,0.88,0,0,1,1-.91,1.88,1.88,0,0,1,1.92,1.54,1.27,1.27,0,0,1,0,.31,7.05,7.05,0,0,0-.26,1.87,12.85,12.85,0,0,0,.19,2.14,0.43,0.43,0,0,0,.46.41c0.6,0,1.2,0,1.78,0a5.88,5.88,0,0,0,2.16-.26,1.76,1.76,0,0,1,.91-0.41,0.89,0.89,0,0,1,.77,1A1.43,1.43,0,0,1,1258.29,378.39Z" transform="translate(-887.75 -368.26)"/><path class="cls-2" d="M1038.55,415.51a0.71,0.71,0,0,1-.48-0.19c-1.54-1.18-2-2.69-2.5-4.44a0.65,0.65,0,0,0-.46-0.6,0.74,0.74,0,0,0-.48.26c-0.36.36-.67,0.74-1,1.1a15.2,15.2,0,0,1-3.26,2.52,3.87,3.87,0,0,1-1.87.55,2.69,2.69,0,0,1-2.57-2.86,2.57,2.57,0,0,1,.41-1.44,11.93,11.93,0,0,1,5.42-4.22,4.18,4.18,0,0,1,1.68-.46c1.06,0,1.34.77,1.73,0.77s0.46-.7,1.13-0.7a1.7,1.7,0,0,1,1.34,1c0.7,1.56,0,4.68,1.22,5.93a1.31,1.31,0,0,0,.62.38,0.69,0.69,0,0,1,.41.72A1.74,1.74,0,0,1,1038.55,415.51Zm-6.14-7a1.7,1.7,0,0,0-.65.29,10.9,10.9,0,0,0-3.31,2.69,0.55,0.55,0,0,0-.1.34,0.62,0.62,0,0,0,.72.58c0.67,0,1.87-1.2,2.47-1.61a5.71,5.71,0,0,1,.84-0.46l0.26-.1a0.37,0.37,0,0,0,.19-0.43C1032.84,409.49,1032.81,408.48,1032.4,408.48Z" transform="translate(-887.75 -368.26)"/><path class="cls-2" d="M1052.11,411.29c-0.86,2.76-3.22,3.72-5.69,4.68a3.13,3.13,0,0,1-1.25.24,1.23,1.23,0,0,1-1.49-1,1.27,1.27,0,0,1,0-.31c0.17-.86.29-2.28,1.46-2.28,1,0,.7,1.22,1.06,1.22a0.56,0.56,0,0,0,.19,0c1.37-.58,2.74-1,3.36-2.54a2.86,2.86,0,0,0,.26-1.08c0-1-1.3-1.51-2.16-1.51a2.12,2.12,0,0,0-2,1.3,5.17,5.17,0,0,1-1.3,2.54,2,2,0,0,1-1.27.53,1,1,0,0,1-1-1.1c0-.62.1-1.22,0.1-1.85a11.83,11.83,0,0,0-.53-3.17,5.55,5.55,0,0,0-1.73-3.14,1.1,1.1,0,0,1-.41-0.86,1.91,1.91,0,0,1,1.56-1.73,0.64,0.64,0,0,1,.53.26c0.22,0.29.43,0.62,0.62,0.94a14.73,14.73,0,0,1,1.92,4.51,0.4,0.4,0,0,0,.26.41c0.26,0,1.44-1.37,3.17-1.37a3.77,3.77,0,0,1,1.54.34A4,4,0,0,1,1052.11,411.29Z" transform="translate(-887.75 -368.26)"/><path class="cls-2" d="M1063.27,410.62c-0.48,2.11-2,4.44-4.42,4.44a4.4,4.4,0,0,1-4.25-4.13,4.68,4.68,0,0,1,2.57-4.1,12.33,12.33,0,0,0,2-1.49,2,2,0,0,1,1.42-.67,1.45,1.45,0,0,1,1.39,1c0.5,1.25,1.34,2.71,1.34,4.06A3.8,3.8,0,0,1,1063.27,410.62Zm-2.16-2c0-.1-0.12-0.17-0.24,0a1.09,1.09,0,0,1-.72.31,5.7,5.7,0,0,1-1.18-.5,1.6,1.6,0,0,0-.79.36,2.11,2.11,0,0,0-1.1,2,1.87,1.87,0,0,0,2,2.11,2.62,2.62,0,0,0,2.35-2.66A4,4,0,0,0,1061.11,408.58Z" transform="translate(-887.75 -368.26)"/><path class="cls-2" d="M1074.57,407.43a1.82,1.82,0,0,0-.74.94,11.79,11.79,0,0,0-.5,1.8,16.32,16.32,0,0,1-2.18,5.3,1.77,1.77,0,0,1-1.1.94,1.93,1.93,0,0,1-1.13-1,33.19,33.19,0,0,1-3-5.4,7.45,7.45,0,0,0-1.32-2.47,1.41,1.41,0,0,1-.5-1c0-.79,1-1.27,1.73-1.27a1.29,1.29,0,0,1,.53.1c1.08,0.5,1.15,1.1,1.32,2.16a9.45,9.45,0,0,0,2.09,4.39,0.67,0.67,0,0,0,.38.34,0.61,0.61,0,0,0,.34-0.31,11.05,11.05,0,0,0,1.46-3.82c0.14-.67.24-1.32,0.36-2a11.24,11.24,0,0,1,.22-1.3,0.72,0.72,0,0,1,.65-0.65c0.91,0,1.85,1.73,1.85,2.52A0.75,0.75,0,0,1,1074.57,407.43Z" transform="translate(-887.75 -368.26)"/><path class="cls-2" d="M1087.56,414.94a8.05,8.05,0,0,1-4,.94,8.33,8.33,0,0,1-2.66-.38c-1.9-.6-4.42-1.7-4.42-4a5.89,5.89,0,0,1,0-.67c0.36-2.38,1.75-3.46,3.67-4.68a7.33,7.33,0,0,1,3.82-1.34c1.42,0,3.34.72,3.34,2.4a2.51,2.51,0,0,1-.77,1.75c-1.42,1.39-3,1.32-4.63,2.06a5.27,5.27,0,0,1-2,.48,1.36,1.36,0,0,1-1-.31c-0.1-.1-0.19-0.07-0.19.1,0,1.49,2.09,2,3.24,2.3a8.46,8.46,0,0,0,2.21.31,16.79,16.79,0,0,0,2.66-.31l0.19,0a0.75,0.75,0,0,1,.77.79A0.69,0.69,0,0,1,1087.56,414.94Zm-3-8.06a6,6,0,0,0-.91.14,9.1,9.1,0,0,0-4.44,2.3c-0.14.22,0,.26,0.22,0.14,0.79-.26,1.58-0.38,2.42-0.58,0.6-.12,3.12-0.86,3.12-1.58A0.41,0.41,0,0,0,1084.55,406.87Z" transform="translate(-887.75 -368.26)"/><path class="cls-2" d="M1106.59,408.39a5,5,0,0,1-3.67,1.2c-0.53,0-1.06,0-1.56,0a0.41,0.41,0,0,0-.46.36,9.21,9.21,0,0,0,.55,3,4.37,4.37,0,0,1,.53,1.51,1.24,1.24,0,0,1-1.27,1.13c-1.9,0-1.7-3.34-1.8-4.58a5.19,5.19,0,0,0-.36-1.49c-0.24-.62-2-0.53-2-1.87a1.12,1.12,0,0,1,1.3-1.22c0.19,0,.38,0,0.58,0s0.38-.07.36-0.19a26.36,26.36,0,0,1-.72-4.51,0.88,0.88,0,0,1,1-.91,1.88,1.88,0,0,1,1.92,1.54,1.27,1.27,0,0,1,0,.31,7.05,7.05,0,0,0-.26,1.87,12.85,12.85,0,0,0,.19,2.14,0.43,0.43,0,0,0,.46.41c0.6,0,1.2,0,1.78,0a5.88,5.88,0,0,0,2.16-.26,1.76,1.76,0,0,1,.91-0.41,0.89,0.89,0,0,1,.77,1A1.43,1.43,0,0,1,1106.59,408.39Z" transform="translate(-887.75 -368.26)"/><path class="cls-2" d="M1118.13,415.32a0.78,0.78,0,0,1-.84-0.53l-0.14-.84a11,11,0,0,0-1-2.54c-0.43-.86-0.41-1.9-0.79-2.69a0.34,0.34,0,0,0-.29-0.22,0.26,0.26,0,0,0-.24.17c-0.17.24-.29,0.5-0.43,0.74a12.11,12.11,0,0,1-1.49,2c-0.74.84-.91,2-1.73,2.83a1.47,1.47,0,0,1-1,.36,0.88,0.88,0,0,1-1-.67c-0.07-.7-0.1-1.42-0.17-2.11-0.14-1.54-.31-3.1-0.43-4.63-0.17-1.7-.29-3.41-0.29-5.11v-0.36a13.65,13.65,0,0,1,.1-1.73,0.8,0.8,0,0,1,.91-0.74,1.64,1.64,0,0,1,1.68,1.27,0.83,0.83,0,0,1-.07.31,20,20,0,0,0-.24,3.89V405a40.34,40.34,0,0,0,.19,4.82c0.1,0.7.22,0.82,0.48,0.46,1.15-1.39,1.94-3.07,3.17-4.42a1.61,1.61,0,0,1,1.1-.65,1.31,1.31,0,0,1,1.06.84,23.94,23.94,0,0,1,1.13,3.19,29.48,29.48,0,0,0,1.68,4.15,1.52,1.52,0,0,1,.17.62A1.45,1.45,0,0,1,1118.13,415.32Z" transform="translate(-887.75 -368.26)"/><path class="cls-2" d="M1132.55,414.94a8.05,8.05,0,0,1-4,.94,8.33,8.33,0,0,1-2.66-.38c-1.9-.6-4.42-1.7-4.42-4a5.89,5.89,0,0,1,0-.67c0.36-2.38,1.75-3.46,3.67-4.68a7.33,7.33,0,0,1,3.82-1.34c1.42,0,3.34.72,3.34,2.4a2.51,2.51,0,0,1-.77,1.75c-1.42,1.39-3,1.32-4.63,2.06a5.27,5.27,0,0,1-2,.48,1.36,1.36,0,0,1-1-.31c-0.1-.1-0.19-0.07-0.19.1,0,1.49,2.09,2,3.24,2.3a8.46,8.46,0,0,0,2.21.31,16.79,16.79,0,0,0,2.66-.31l0.19,0a0.75,0.75,0,0,1,.77.79A0.69,0.69,0,0,1,1132.55,414.94Zm-3-8.06a6,6,0,0,0-.91.14,9.1,9.1,0,0,0-4.44,2.3c-0.14.22,0,.26,0.22,0.14,0.79-.26,1.58-0.38,2.42-0.58,0.6-.12,3.12-0.86,3.12-1.58A0.41,0.41,0,0,0,1129.55,406.87Z" transform="translate(-887.75 -368.26)"/><path class="cls-2" d="M1149.38,406.87a1.87,1.87,0,0,1-1.58,1.08c-0.77,0-.36-1.15-0.77-1.15-0.14,0-1.3.65-1.78,0.86a0.28,0.28,0,0,0-.22.24,0.24,0.24,0,0,0,.1.17c0.34,0.36.7,0.67,1,1a27.89,27.89,0,0,1,2.45,2.62,2.24,2.24,0,0,1,.48,1.34,1.92,1.92,0,0,1-.67,1.46,8.46,8.46,0,0,1-4.51,1.63,2,2,0,0,1-1.06-.24,1.52,1.52,0,0,1-.82-1.22,1,1,0,0,1,1.08-1c0.43,0,.82.26,1.27,0.26s2-.41,2-1a1.93,1.93,0,0,0-.43-0.82,10.34,10.34,0,0,0-2.76-2.45,2.39,2.39,0,0,1-1.18-2.09,1.64,1.64,0,0,1,1-1.61c1.1-.53,3.12-1.7,4.3-1.7a1.57,1.57,0,0,1,.34,0,2,2,0,0,1,1.78,1.9A3,3,0,0,1,1149.38,406.87Z" transform="translate(-887.75 -368.26)"/><path class="cls-2" d="M1162.39,408a1.18,1.18,0,0,1-1.06-.84,0.6,0.6,0,0,0-.65-0.31,16.63,16.63,0,0,0-4.85,1.58,3.34,3.34,0,0,0-2.18,2.3,0.41,0.41,0,0,0,0,.17c0,1.27,2.35,2.38,3.36,2.59a4.82,4.82,0,0,0,1,.12c1,0,1.82-.6,2.81-0.6a0.88,0.88,0,0,1,.94.77,1.1,1.1,0,0,1-.82.89,8.51,8.51,0,0,1-3.41.94,4.54,4.54,0,0,1-1.13-.14c-2.4-.62-4.94-1.92-4.94-4.75V410.4c0.22-2.74,2.88-3.62,5.09-4.44a19.68,19.68,0,0,1,4.82-1,1.71,1.71,0,0,1,.34,0,1.54,1.54,0,0,1,1.7,1.56C1163.39,407.09,1163.15,408,1162.39,408Z" transform="translate(-887.75 -368.26)"/><path class="cls-2" d="M1171.34,408.72c-0.34,0-.62-0.22-1-0.22a0.65,0.65,0,0,0-.53.34c-0.94,1.37-.7,3.14-1.34,4.63a1.24,1.24,0,0,1-1.15.74,1.06,1.06,0,0,1-1.08-.84c-0.26-1-.53-1.92-0.84-2.88s-1.37-2.18-1.37-3.26a1,1,0,0,1,1.13-1.13,1.33,1.33,0,0,1,.72.22,2.51,2.51,0,0,1,1.25,2c0,0.26.07,0.55,0.14,0.82a0.15,0.15,0,0,0,.14.14,0.28,0.28,0,0,0,.22-0.22c0.62-1.2,0-2.52,1.85-3a3.9,3.9,0,0,1,.74-0.07c0.89,0,2,.41,2,1.44A1.09,1.09,0,0,1,1171.34,408.72Z" transform="translate(-887.75 -368.26)"/><path class="cls-2" d="M1185.14,414.94a8.05,8.05,0,0,1-4,.94,8.33,8.33,0,0,1-2.66-.38c-1.9-.6-4.42-1.7-4.42-4a5.89,5.89,0,0,1,0-.67c0.36-2.38,1.75-3.46,3.67-4.68a7.33,7.33,0,0,1,3.82-1.34c1.42,0,3.34.72,3.34,2.4a2.51,2.51,0,0,1-.77,1.75c-1.42,1.39-3,1.32-4.63,2.06a5.27,5.27,0,0,1-2,.48,1.36,1.36,0,0,1-1-.31c-0.1-.1-0.19-0.07-0.19.1,0,1.49,2.09,2,3.24,2.3a8.46,8.46,0,0,0,2.21.31,16.79,16.79,0,0,0,2.66-.31l0.19,0a0.75,0.75,0,0,1,.77.79A0.68,0.68,0,0,1,1185.14,414.94Zm-3-8.06a6,6,0,0,0-.91.14,9.1,9.1,0,0,0-4.44,2.3c-0.14.22,0,.26,0.22,0.14,0.79-.26,1.58-0.38,2.42-0.58,0.6-.12,3.12-0.86,3.12-1.58A0.41,0.41,0,0,0,1182.14,406.87Z" transform="translate(-887.75 -368.26)"/><path class="cls-2" d="M1198.62,414.94a8.05,8.05,0,0,1-4,.94,8.33,8.33,0,0,1-2.66-.38c-1.9-.6-4.42-1.7-4.42-4a5.89,5.89,0,0,1,0-.67c0.36-2.38,1.75-3.46,3.67-4.68a7.33,7.33,0,0,1,3.82-1.34c1.42,0,3.34.72,3.34,2.4a2.51,2.51,0,0,1-.77,1.75c-1.42,1.39-3,1.32-4.63,2.06a5.27,5.27,0,0,1-2,.48,1.36,1.36,0,0,1-1-.31c-0.1-.1-0.19-0.07-0.19.1,0,1.49,2.09,2,3.24,2.3a8.46,8.46,0,0,0,2.21.31,16.79,16.79,0,0,0,2.66-.31l0.19,0a0.75,0.75,0,0,1,.77.79A0.69,0.69,0,0,1,1198.62,414.94Zm-3-8.06a6,6,0,0,0-.91.14,9.1,9.1,0,0,0-4.44,2.3c-0.14.22,0,.26,0.22,0.14,0.79-.26,1.58-0.38,2.42-0.58,0.6-.12,3.12-0.86,3.12-1.58A0.41,0.41,0,0,0,1195.62,406.87Z" transform="translate(-887.75 -368.26)"/><path class="cls-2" d="M1209.59,415.95a2,2,0,0,1-.74-0.17c-2.23-1-1.18-4.2-1.92-5.52a1.12,1.12,0,0,0-.43-0.55,0.35,0.35,0,0,0-.26.17c-0.84,1-.77,2.52-1.94,3.29a1.82,1.82,0,0,1-1,.36c-0.91,0-1.44-1.13-1.44-1.92v-0.41a7.65,7.65,0,0,0-1.1-4.15,0.72,0.72,0,0,1-.14-0.43,1.92,1.92,0,0,1,1.75-1.68,1.23,1.23,0,0,1,.6.14c0.84,0.46.74,3,1,4a0.45,0.45,0,0,0,.26.43,0.65,0.65,0,0,0,.36-0.26,8.32,8.32,0,0,0,1.32-2.5,0.69,0.69,0,0,1,.72-0.43,2.16,2.16,0,0,1,1.61.89,12.21,12.21,0,0,1,1,4c0.1,0.55.26,2.45,0.79,2.71a1.13,1.13,0,0,1,.79,1A1.22,1.22,0,0,1,1209.59,415.95Z" transform="translate(-887.75 -368.26)"/><path class="cls-3" d="M1008.25,489.13c-1.38-18.22-11.57-25.76-26.31-36-6.11-4.27-13.6-7.09-21-6.07-6.16.85-11.72,4.28-16.18,8.61-10.59,10.27-15.48,25.71-14.15,40.41s19.57,6.21,19.57,6.21c7.5,12.71,9.61,32.76,20.36,22.66,0.85-.8,2.79-0.87,5.32-0.54l-10.06,21a285.32,285.32,0,0,0,30.78-1.2c2.22-.24,4.66-0.64,6.09-2.35,1.83-2.18,1.26-5.59,2.82-8l-0.37-2.11c-2.18-3-4-5.08-4.14-8.78,2.33-.76,5.32-2.45,7.72-2,0.34-1.81.6-3.64,0.8-5.45,0.3-2.65,6.19-6,6.24-8.66S1008.46,491.83,1008.25,489.13Z" transform="translate(-887.75 -368.26)"/><rect class="cls-4" x="159.89" y="206.09" width="138.37" height="15.46"/><path class="cls-4" d="M1187.95,586.83l0,3.73a8.52,8.52,0,0,1-2.1,5.1l-40.1,41.07a7.26,7.26,0,0,1-5,1.9L996.43,627.75A6.35,6.35,0,0,1,992,625l-1.48-2.51" transform="translate(-887.75 -368.26)"/><polygon class="cls-5" points="154.16 116.06 154.21 210.59 300.19 216.19 300.19 110.37 154.16 116.06"/><path class="cls-6" d="M1118.47,489.11a3.69,3.69,0,0,1-3.54,3.68,3.42,3.42,0,0,1-3.54-3.45,3.7,3.7,0,0,1,3.54-3.68A3.41,3.41,0,0,1,1118.47,489.11Z" transform="translate(-887.75 -368.26)"/><path class="cls-6" d="M1112.59,489.55a2.7,2.7,0,0,1,2.58-2.69" transform="translate(-887.75 -368.26)"/><path class="cls-7" d="M1108.16,489.45a2,2,0,0,1-2,2,1.88,1.88,0,0,1-2-1.89,2,2,0,0,1,2-2A1.88,1.88,0,0,1,1108.16,489.45Z" transform="translate(-887.75 -368.26)"/><polygon class="cls-8" points="293.91 208.72 160.49 204.31 160.46 130.34 293.91 126.73 293.91 208.72"/><polygon class="cls-5" points="255.3 263.17 102.74 254.25 154.06 212.86 300.19 218.57 255.3 263.17"/><path class="cls-4" d="M1187.7,478.63l2.36,1.51a5.91,5.91,0,0,1,2.36,4.48V580a4,4,0,0,1-2.23,3.69l-2.23.72" transform="translate(-887.75 -368.26)"/><path class="cls-3" d="M989.93,534.27c-0.29,4.33-1.65,13.43-1.8,16.19-0.5,8.75,13.32,17.93,13.43,21.15,0.86,23.49-73.37,6-68.81-12.69,1-3.92,14.93-5.24,14.79-11.77-0.18-8.94,2.65-30.64,3.07-36.14,1.11-14.4,39.87,15,39.32,23.26" transform="translate(-887.75 -368.26)"/><path class="cls-9" d="M995.66,464.25c2-6.21,3.36-11,5.35-17.23A206.43,206.43,0,0,0,951.83,432a146.52,146.52,0,0,1-21.52,21.63c-2.59,2.11-5.34,4.24-6.79,7.24s-1.09,7.19,1.73,9c-9.89,1.87-11.21,15.91-10.2,21.29a31.83,31.83,0,0,0,4.5,11.29,63.55,63.55,0,0,0,9.14,10.45l16.2,16a4,4,0,0,0,4,1.48l12.68-.75a3.16,3.16,0,0,0,1.6-.38,3.27,3.27,0,0,0,1.07-2.11A59.4,59.4,0,0,1,973.76,506,26.8,26.8,0,0,1,971,498.7a9,9,0,0,1,1.64-7.39,7,7,0,0,1,10-.17c1.12,1.23,2.13,3,3.79,2.91,2.11-.17,2.43-3.17,1.89-5.22A29.7,29.7,0,0,0,977,472.41C981.77,467.82,989.14,463.19,995.66,464.25Z" transform="translate(-887.75 -368.26)"/><path class="cls-10" d="M939.43,554s-0.35,2.25-12.57,1.74c-7.24-.3-16-1.87-22.48,6.47-2.58,3.32-8.57,17.14-11.55,34-3,17.27-5.08,57.09-5.08,57.09,43.15-.46,106.88.84,150,1.69,0.14-24.94-3.18-44.35-8.38-68.74-0.62-2.89-2.88-5.67-6.61-7.72-8.08-4.42-19.28-10.87-24.87-13.38C983.09,572.61,939.25,567.34,939.43,554Z" transform="translate(-887.75 -368.26)"/><path class="cls-9" d="M949.9,434.71a16.73,16.73,0,0,1,10.21-7.79,40.56,40.56,0,0,0-7.06,9.77A17.8,17.8,0,0,1,967,430.16a40.64,40.64,0,0,0-12.8,9.22,2.49,2.49,0,0,1-1.48-.71" transform="translate(-887.75 -368.26)"/><path class="cls-9" d="M925,470a21.63,21.63,0,0,0-14.42,17.61,53.66,53.66,0,0,1,9.48-10.25c-3.53,5.83-7.07,13.69-6.3,20.46,1-4.36,4.63-9.45,6.72-13.41,1.18-2.24,3.18-4.72,5.67-4.23" transform="translate(-887.75 -368.26)"/><path class="cls-11" d="M1123.55,525.06l-0.32-.08a2.52,2.52,0,0,0-.55,0,1.92,1.92,0,0,0-.89.22,2,2,0,0,0-.64.54,2.42,2.42,0,0,0-.39.76,3,3,0,0,0-.14.86,3.48,3.48,0,0,0,.12.95,2.28,2.28,0,0,0,.36.76,1.7,1.7,0,0,0,.59.5,1.67,1.67,0,0,0,.8.18,1.59,1.59,0,0,0,.59-0.12,1.38,1.38,0,0,0,.44-0.3l0,0.3h0.71l0.05-6.34-0.77,0Zm-0.11.69,0.11,0.05,0,2.74a1.13,1.13,0,0,1-.91.48,1.07,1.07,0,0,1-.54-0.12,1.1,1.1,0,0,1-.38-0.34,1.55,1.55,0,0,1-.22-0.53,2.86,2.86,0,0,1-.07-0.68,2.39,2.39,0,0,1,.09-0.63,1.74,1.74,0,0,1,.26-0.55,1.36,1.36,0,0,1,.43-0.39,1.26,1.26,0,0,1,.61-0.16H1123l0.23,0Z" transform="translate(-887.75 -368.26)"/><path class="cls-11" d="M1126,523.2a0.46,0.46,0,0,0-.35.19,0.65,0.65,0,0,0-.15.42,0.61,0.61,0,0,0,.14.41,0.43,0.43,0,0,0,.35.17,0.46,0.46,0,0,0,.35-0.18,0.65,0.65,0,0,0,.15-0.42,0.62,0.62,0,0,0-.14-0.41A0.43,0.43,0,0,0,1126,523.2Z" transform="translate(-887.75 -368.26)"/><polygon class="cls-11" points="237.79 161.31 238.58 161.3 238.61 156.71 237.83 156.73 237.79 161.31"/><path class="cls-11" d="M1130.86,528.75a2.15,2.15,0,0,0-.69-0.21,6.39,6.39,0,0,0-.92-0.06,2.67,2.67,0,0,1-.72-0.07c-0.17-.06-0.16-0.14-0.16-0.16a0.19,0.19,0,0,1,.1-0.16,0.59,0.59,0,0,1,.23-0.09l0.26,0h0.29a2.51,2.51,0,0,0,.69-0.11,1.77,1.77,0,0,0,.6-0.31,1.56,1.56,0,0,0,.59-1.25,1.52,1.52,0,0,0-.09-0.56,1.61,1.61,0,0,0-.22-0.4l0.57-.63-0.5-.49-0.63.69a2,2,0,0,0-.45-0.14,2.42,2.42,0,0,0-1.17.07,1.86,1.86,0,0,0-.59.31,1.52,1.52,0,0,0-.59,1.23,1.48,1.48,0,0,0,.08.51,1.53,1.53,0,0,0,.2.38,1.3,1.3,0,0,0,.26.27l0.13,0.09a1.15,1.15,0,0,0-.36.22,0.63,0.63,0,0,0-.21.48,0.58,0.58,0,0,0,.11.37,0.75,0.75,0,0,0,.19.17,1.24,1.24,0,0,0-.56,1.08,1.15,1.15,0,0,0,.57,1.08,3.56,3.56,0,0,0,2.34.22,2.12,2.12,0,0,0,.65-0.29,1.49,1.49,0,0,0,.44-0.48,1.37,1.37,0,0,0,.17-0.68,1.4,1.4,0,0,0-.14-0.68A1.05,1.05,0,0,0,1130.86,528.75Zm-2.74.72a1,1,0,0,1,.33-0.3,7.14,7.14,0,0,0,.78,0h0a5.75,5.75,0,0,1,.75,0,1.47,1.47,0,0,1,.46.13,0.48,0.48,0,0,1,.22.21,0.7,0.7,0,0,1,.06.31,0.67,0.67,0,0,1-.35.59,1.79,1.79,0,0,1-.95.24,2.93,2.93,0,0,1-.59,0,1.64,1.64,0,0,1-.46-0.15,0.82,0.82,0,0,1-.29-0.25,0.56,0.56,0,0,1-.1-0.34A0.82,0.82,0,0,1,1128.11,529.47Zm0.09-3a0.87,0.87,0,0,1,.09-0.4,0.86,0.86,0,0,1,.24-0.29,1.12,1.12,0,0,1,.34-0.18,1.39,1.39,0,0,1,.8,0,1,1,0,0,1,.34.16,0.8,0.8,0,0,1,.23.28,0.83,0.83,0,0,1,.08.39,1,1,0,0,1-.1.45,0.85,0.85,0,0,1-.26.3,1.11,1.11,0,0,1-.36.17,1.35,1.35,0,0,1-.83,0,1,1,0,0,1-.32-0.21,0.92,0.92,0,0,1-.2-0.3A1,1,0,0,1,1128.2,526.43Z" transform="translate(-887.75 -368.26)"/><polygon class="cls-11" points="244.57 161.22 245.35 161.21 245.38 156.57 244.6 156.59 244.57 161.22"/><path class="cls-11" d="M1132.76,523a0.46,0.46,0,0,0-.35.19,0.67,0.67,0,0,0-.15.42,0.62,0.62,0,0,0,.14.42,0.43,0.43,0,0,0,.35.17,0.46,0.46,0,0,0,.35-0.18,0.66,0.66,0,0,0,.15-0.43,0.63,0.63,0,0,0-.14-0.41A0.42,0.42,0,0,0,1132.76,523Z" transform="translate(-887.75 -368.26)"/><path class="cls-11" d="M1136.35,528.57a1.4,1.4,0,0,1-.26.18,0.63,0.63,0,0,1-.29.07,0.36,0.36,0,0,1-.26-0.09,0.56,0.56,0,0,1-.09-0.4l0-2.84,1.09,0v-0.72l-1.08,0v-1.24l-0.77,0v1.24H1134v0.72h0.71l0,2.92a1.16,1.16,0,0,0,.26.84,1,1,0,0,0,.75.27,1.35,1.35,0,0,0,.57-0.11,2.19,2.19,0,0,0,.41-0.27l0,0-0.31-.6Z" transform="translate(-887.75 -368.26)"/><path class="cls-11" d="M1138.92,524.59a2,2,0,0,0-.88.2,1.75,1.75,0,0,0-.62.58l0,0,0.55,0.42,0,0a1.28,1.28,0,0,1,.39-0.36,1,1,0,0,1,.5-0.14,0.74,0.74,0,0,1,.6.22,1.16,1.16,0,0,1,.2.78,5.15,5.15,0,0,0-.81.09,2.94,2.94,0,0,0-.82.28,1.87,1.87,0,0,0-.62.53,1.39,1.39,0,0,0-.26.84,1.54,1.54,0,0,0,.12.64,1.35,1.35,0,0,0,.33.46,1.34,1.34,0,0,0,.46.27,1.58,1.58,0,0,0,.54.09,1.54,1.54,0,0,0,.64-0.14,1.61,1.61,0,0,0,.44-0.3l0,0.33h0.71l0-3A1.86,1.86,0,0,0,1140,525,1.45,1.45,0,0,0,1138.92,524.59Zm0.72,2.4v1.33a2.1,2.1,0,0,1-.43.31,1,1,0,0,1-.8.1,0.64,0.64,0,0,1-.24-0.13,0.71,0.71,0,0,1-.25-0.58,0.79,0.79,0,0,1,.17-0.52,1.12,1.12,0,0,1,.43-0.31,2.3,2.3,0,0,1,.58-0.15Z" transform="translate(-887.75 -368.26)"/><polygon class="cls-11" points="253.95 154.56 253.9 161.09 254.67 161.08 254.73 154.54 253.95 154.56"/><path class="cls-12" d="M1093.13,530h0c-1.42-1.23-3.22-1.29-5.41-1.25l-6.39.11h-0.13v1.17h0.88c1.28,0,1.6.26,1.61,1.22l-0.08,9c0,1-.37,1.24-1.64,1.26h-0.88v1.17h0.13l6.35,0.05c2.26,0,4.14-.07,5.67-1.52a8.29,8.29,0,0,0,2.1-5.48A7.83,7.83,0,0,0,1093.13,530Zm-5.56,11.55h-2l0.1-11.59,2,0c3.8,0,5.42,1.69,5.4,5.65C1093,539.82,1091.44,541.6,1087.57,541.6Z" transform="translate(-887.75 -368.26)"/><path class="cls-12" d="M1126,541.48a2.19,2.19,0,0,1-1.7-.85l-2.92-3.5,2.2-1.91a2.72,2.72,0,0,1,2-.82H1126v-1.26h-0.13l-5.37,0h-0.13v1.24h1a2.93,2.93,0,0,1,.69.05c0.14,0,.14.07,0.14,0.09a1.1,1.1,0,0,1-.5.67l-3,2.52,0.09-10.85v-0.14h-0.13l-3.56.07H1115V528h0.62c1.07,0,1.32.2,1.34,0.94l-0.1,11.48c0,0.83-.06.93-1,1h-0.63v1.23h0.13l4.72,0h0.13v-1.24h-0.43c-0.95,0-1-.1-1-1v-1.1l1.37-1.1,2.23,2.63a0.52,0.52,0,0,1,.18.33c0,0.07,0,.22-0.77.22h-0.61v1.25h0.13l5.07,0h0.13v-1.26H1126Z" transform="translate(-887.75 -368.26)"/><path class="cls-12" d="M1104.47,534.83a3.49,3.49,0,0,0-1-1.15,4.24,4.24,0,0,0-2.6-.74c-2.69,0-4.52,2-4.55,5s1.78,5,4.47,5h0a3.8,3.8,0,0,0,4.09-3.4v0l0-.12h-1.35l0,0.1a2.55,2.55,0,0,1-2.65,2.11c-1.69,0-2.55-1.12-2.54-3.33h6.82v-0.14A6.51,6.51,0,0,0,1104.47,534.83Zm-3.65-.66c1.52,0,2.22.82,2.28,2.75h-4.66C1098.61,535.13,1099.43,534.19,1100.82,534.17Z" transform="translate(-887.75 -368.26)"/><path class="cls-12" d="M1133.64,533.47a4.09,4.09,0,0,0-2.6-.78c-2.69,0-4.52,2.15-4.55,5.24s1.78,5.22,4.47,5.25h0c2.24,0,3.65-1.21,4.09-3.58v-0.05l0-.13h-1.35l0,0.11a2.58,2.58,0,0,1-2.65,2.21c-1.69,0-2.54-1.18-2.54-3.51h6.82V538.1a7.25,7.25,0,0,0-.68-3.36A3.65,3.65,0,0,0,1133.64,533.47ZM1131,534c1.52,0,2.22.87,2.28,2.9h-4.66C1128.78,535,1129.61,534,1131,534Z" transform="translate(-887.75 -368.26)"/><path class="cls-12" d="M1144.06,534.73a2.12,2.12,0,0,0-2.18-2.06,2.93,2.93,0,0,0-2.53,1.86V533h-0.13l-3.29,0h-0.13v1.27h0.65c0.95,0,1,.11,1.05,1l0,5.28c0,0.91-.11,1-1.07,1h-0.65v1.29h0.13l5.37,0.05h0.13v-1.3h-1c-1,0-1-.15-1-1l0-2.28c0-2.88,1.33-4.38,2.48-4.39a1,1,0,0,1,.52.13,1.25,1.25,0,0,0-.31.82,1.06,1.06,0,0,0,1,1.16h0a1.22,1.22,0,0,0,1-1.28s0,0,0,0h0Z" transform="translate(-887.75 -368.26)"/><path class="cls-12" d="M1111,541.56c-1.69,0-2.76-1.39-2.74-3.58,0-2.47,1.1-3.88,2.88-3.9a2.37,2.37,0,0,1,2.14.93,1.15,1.15,0,0,0-.45.91,1.07,1.07,0,0,0,1,1.11,1.1,1.1,0,0,0,1.06-1.12h0a0.24,0.24,0,0,0,0,0h0c0-1.74-1.73-3-3.91-3a4.88,4.88,0,0,0-4.81,5.13c0,3,1.84,5,4.62,5h0c2.24,0,3.63-1.23,4.05-3.63h-1.21A2.66,2.66,0,0,1,1111,541.56Z" transform="translate(-887.75 -368.26)"/><path class="cls-2" d="M1106,424a0.77,0.77,0,0,0-1,.65c-0.34,3.76-.09,6.83-0.25,9.94-0.06,1.24.23,11.23,0.27,12.77,0,3.32.39,6.85,0.54,9.15a14.75,14.75,0,0,1-2.51-4.13,14.51,14.51,0,0,0-1-2.52,2.09,2.09,0,0,0-1.72-1.24c-1.08,0-2.52.54-2.57,1.4a3.75,3.75,0,0,0,.88,1.51,26.85,26.85,0,0,1,1.55,2.44,80.11,80.11,0,0,0,5.81,8.66c0.58,0.77,1,1.3,1.5,1.32a2.46,2.46,0,0,0,1.6-1.12,23.66,23.66,0,0,0,4.65-8.12,23.63,23.63,0,0,1,1.67-3.61,2.9,2.9,0,0,0,.46-1.14,2.59,2.59,0,0,0-2.15-2.52,0.72,0.72,0,0,0-.7.6c-0.25.85-.53,2-0.84,3.23a17.93,17.93,0,0,1-2.88,6.36v0a40.45,40.45,0,0,1-1.1-8.55c-0.1-1.39-.53-11.33-0.47-12.53,0.11-2.28-.08-4.81,0-7a20.22,20.22,0,0,0-.22-4.16A1.66,1.66,0,0,0,1106,424Z" transform="translate(-887.75 -368.26)"/></svg>