<svg id="Interactive_elements" data-name="Interactive elements" xmlns="http://www.w3.org/2000/svg" viewBox="0 0 57.84 52.75"><defs><style>.cls-1{fill:#c53a43;}</style></defs><title>hand-drawn-circle</title><path class="cls-1" d="M3872.92,1381.92c-11.11-4.35-22.83,4.34-24,15.71-1.49,14.11,9.76,24.87,22.23,28.93,13,4.23,27,2.28,32.94-11.37,4.56-10.5,3.26-24.86-6.22-32.3-10-7.87-35.22-12.57-38.79,4.59-0.39,1.88,2.5,2.69,2.89.8,3.52-16.9,31.81-8.63,38.25,1.71,6.61,10.61,3.74,29.47-8.86,34.38-12.19,4.76-30.14-2.37-36.53-13.5-3.55-6.18-4.41-14.45-.19-20.54a14.9,14.9,0,0,1,17.51-5.52c1.8,0.7,2.58-2.2.8-2.89h0Z" transform="translate(-3848.76 -1375.8)"/></svg>