<svg id="Interactive_elements" data-name="Interactive elements" xmlns="http://www.w3.org/2000/svg" viewBox="0 0 85.63 85.63"><defs><style>.cls-1{fill:#777;}.cls-2{fill:none;stroke:#c53a43;stroke-miterlimit:10;stroke-width:4.67px;}</style></defs><title>no-broadcasting</title><path class="cls-1" d="M578.51,781.57v-8.74h3.22a6.11,6.11,0,0,1,1.54.17,2.94,2.94,0,0,1,1,.47,1.8,1.8,0,0,1,.58.74,2.52,2.52,0,0,1,.18,1,1.92,1.92,0,0,1-.08.57,1.67,1.67,0,0,1-.26.51,2,2,0,0,1-.46.43,3,3,0,0,1-.68.34,2.41,2.41,0,0,1,1.28.68,1.76,1.76,0,0,1,.41,1.21,2.5,2.5,0,0,1-.22,1,2.38,2.38,0,0,1-.63.84,3,3,0,0,1-1,.56,4.48,4.48,0,0,1-1.4.2h-3.49Zm2-5.06h1.06a3.48,3.48,0,0,0,.61,0,1.26,1.26,0,0,0,.46-0.17A0.77,0.77,0,0,0,583,776a1.24,1.24,0,0,0,.1-0.53,1.49,1.49,0,0,0-.08-0.52,0.74,0.74,0,0,0-.24-0.33,1,1,0,0,0-.41-0.18,2.81,2.81,0,0,0-.59-0.05h-1.19v2.16Zm0,1.36V780H582a1.79,1.79,0,0,0,.66-0.1,1,1,0,0,0,.4-0.26,0.88,0.88,0,0,0,.2-0.37,1.6,1.6,0,0,0,.05-0.41,1.38,1.38,0,0,0-.06-0.43,0.72,0.72,0,0,0-.22-0.32,1.06,1.06,0,0,0-.41-0.2,2.36,2.36,0,0,0-.64-0.07h-1.42Z" transform="translate(-570.86 -739.97)"/><path class="cls-1" d="M588.33,778.33v3.23h-2v-8.74h2.84a5.83,5.83,0,0,1,1.62.2,3,3,0,0,1,1.09.54,2.05,2.05,0,0,1,.61.82,2.73,2.73,0,0,1,.19,1,2.77,2.77,0,0,1-.11.8,2.43,2.43,0,0,1-.34.7,2.62,2.62,0,0,1-.55.57,2.94,2.94,0,0,1-.75.41,1.91,1.91,0,0,1,.38.25,1.49,1.49,0,0,1,.31.37l1.86,3h-1.84a0.78,0.78,0,0,1-.73-0.38l-1.45-2.54a0.61,0.61,0,0,0-.23-0.24,0.75,0.75,0,0,0-.36-0.07h-0.52Zm0-1.4h0.82a2.09,2.09,0,0,0,.71-0.1,1.27,1.27,0,0,0,.48-0.29,1.11,1.11,0,0,0,.27-0.43,1.67,1.67,0,0,0,.08-0.54,1.13,1.13,0,0,0-.37-0.9,1.75,1.75,0,0,0-1.16-.32h-0.82v2.59Z" transform="translate(-570.86 -739.97)"/><path class="cls-1" d="M602.49,777.19a4.7,4.7,0,0,1-.33,1.76,4.17,4.17,0,0,1-2.35,2.36,5.22,5.22,0,0,1-3.72,0,4.17,4.17,0,0,1-2.36-2.36,4.92,4.92,0,0,1,0-3.53,4.2,4.2,0,0,1,.92-1.42,4.28,4.28,0,0,1,1.44-.94,4.89,4.89,0,0,1,1.86-.34,4.83,4.83,0,0,1,1.86.34,4.28,4.28,0,0,1,1.43.95,4.22,4.22,0,0,1,.92,1.42A4.68,4.68,0,0,1,602.49,777.19Zm-2.08,0a3.79,3.79,0,0,0-.17-1.17,2.47,2.47,0,0,0-.48-0.88,2.08,2.08,0,0,0-.77-0.55,2.65,2.65,0,0,0-1-.19,2.69,2.69,0,0,0-1,.19,2.08,2.08,0,0,0-.77.55,2.47,2.47,0,0,0-.48.88,4.16,4.16,0,0,0,0,2.34,2.47,2.47,0,0,0,.48.88,2,2,0,0,0,.77.55,2.73,2.73,0,0,0,1,.19,2.69,2.69,0,0,0,1-.19,2.06,2.06,0,0,0,.77-0.55,2.47,2.47,0,0,0,.48-0.88A3.81,3.81,0,0,0,600.41,777.19Z" transform="translate(-570.86 -739.97)"/><path class="cls-1" d="M611,781.57h-1.57a0.73,0.73,0,0,1-.43-0.12,0.64,0.64,0,0,1-.24-0.31l-0.52-1.52H605l-0.52,1.52a0.7,0.7,0,0,1-.66.44H602.2l3.38-8.74h2.08Zm-5.62-3.34h2.39l-0.8-2.39-0.18-.54q-0.11-.31-0.21-0.67-0.1.37-.2,0.68t-0.19.54Z" transform="translate(-570.86 -739.97)"/><path class="cls-1" d="M619.47,777.19a4.58,4.58,0,0,1-.33,1.75,4.09,4.09,0,0,1-.92,1.39,4.17,4.17,0,0,1-1.43.91,5.06,5.06,0,0,1-1.86.33h-3.4v-8.74h3.4a5,5,0,0,1,1.86.33,4.24,4.24,0,0,1,1.43.91,4.06,4.06,0,0,1,.92,1.38A4.57,4.57,0,0,1,619.47,777.19Zm-2.08,0a3.81,3.81,0,0,0-.17-1.17,2.5,2.5,0,0,0-.48-0.89,2.1,2.1,0,0,0-.77-0.56,2.62,2.62,0,0,0-1-.2h-1.36V780h1.36a2.62,2.62,0,0,0,1-.19,2.1,2.1,0,0,0,.77-0.56,2.5,2.5,0,0,0,.48-0.89A3.83,3.83,0,0,0,617.4,777.19Z" transform="translate(-570.86 -739.97)"/><path class="cls-1" d="M626.25,779.3l0.14,0a0.39,0.39,0,0,1,.14.09l0.8,0.85a3.34,3.34,0,0,1-1.32,1,4.63,4.63,0,0,1-1.88.35,4.48,4.48,0,0,1-1.79-.34,3.87,3.87,0,0,1-1.34-.94,4.12,4.12,0,0,1-.84-1.42,5.23,5.23,0,0,1-.29-1.78,4.69,4.69,0,0,1,.34-1.8,4.19,4.19,0,0,1,.94-1.41,4.24,4.24,0,0,1,1.44-.92,5,5,0,0,1,1.85-.33,4.72,4.72,0,0,1,.93.09,4.54,4.54,0,0,1,.81.24,3.84,3.84,0,0,1,.7.37,3.37,3.37,0,0,1,.56.47l-0.68.92a0.87,0.87,0,0,1-.16.15,0.41,0.41,0,0,1-.25.07,0.45,0.45,0,0,1-.2,0l-0.2-.12-0.24-.15a1.84,1.84,0,0,0-.31-0.15,2.54,2.54,0,0,0-.41-0.12,2.83,2.83,0,0,0-.56,0,2.54,2.54,0,0,0-1,.2,2.21,2.21,0,0,0-.78.56,2.58,2.58,0,0,0-.51.88,3.45,3.45,0,0,0-.18,1.16,3.6,3.6,0,0,0,.18,1.19,2.62,2.62,0,0,0,.5.88,2.11,2.11,0,0,0,.74.54,2.2,2.2,0,0,0,.9.19l0.5,0a2.07,2.07,0,0,0,.42-0.09,1.94,1.94,0,0,0,.37-0.17,2.47,2.47,0,0,0,.36-0.26l0.16-.1A0.41,0.41,0,0,1,626.25,779.3Z" transform="translate(-570.86 -739.97)"/><path class="cls-1" d="M636.22,781.57h-1.57a0.73,0.73,0,0,1-.43-0.12,0.64,0.64,0,0,1-.24-0.31l-0.52-1.52h-3.32l-0.52,1.52a0.7,0.7,0,0,1-.66.44h-1.58l3.38-8.74h2.08Zm-5.62-3.34H633l-0.8-2.39-0.18-.54q-0.11-.31-0.21-0.67-0.1.37-.2,0.68t-0.19.54Z" transform="translate(-570.86 -739.97)"/><path class="cls-1" d="M641.74,774.6a0.75,0.75,0,0,1-.19.22,0.42,0.42,0,0,1-.25.07,0.62,0.62,0,0,1-.3-0.09l-0.36-.19a3,3,0,0,0-.46-0.2,1.84,1.84,0,0,0-.59-0.09,1.26,1.26,0,0,0-.85.24,0.83,0.83,0,0,0-.28.66,0.61,0.61,0,0,0,.17.44,1.45,1.45,0,0,0,.44.3,4.69,4.69,0,0,0,.62.23l0.72,0.23a6.38,6.38,0,0,1,.72.3,2.4,2.4,0,0,1,.62.44,2.07,2.07,0,0,1,.44.66,2.33,2.33,0,0,1,.17.93,3,3,0,0,1-.21,1.13,2.65,2.65,0,0,1-.61.92,2.83,2.83,0,0,1-1,.62,3.69,3.69,0,0,1-1.33.22,4.27,4.27,0,0,1-.83-0.08,4.92,4.92,0,0,1-.82-0.24,4.75,4.75,0,0,1-.74-0.36,3.16,3.16,0,0,1-.61-0.47l0.6-.95a0.49,0.49,0,0,1,.19-0.17,0.53,0.53,0,0,1,.26-0.07,0.68,0.68,0,0,1,.36.11l0.41,0.25a3.34,3.34,0,0,0,.53.25,2,2,0,0,0,.71.11,1.35,1.35,0,0,0,.86-0.24,0.93,0.93,0,0,0,.31-0.77,0.73,0.73,0,0,0-.17-0.5,1.3,1.3,0,0,0-.44-0.32,4.06,4.06,0,0,0-.62-0.22l-0.71-.21a5.23,5.23,0,0,1-.71-0.29,2.25,2.25,0,0,1-.62-0.45,2.1,2.1,0,0,1-.44-0.7,2.77,2.77,0,0,1-.17-1,2.44,2.44,0,0,1,.2-1,2.48,2.48,0,0,1,.58-0.83,2.87,2.87,0,0,1,.94-0.59,3.48,3.48,0,0,1,1.28-.22,4.79,4.79,0,0,1,.78.06,4.13,4.13,0,0,1,.72.19,4,4,0,0,1,.64.29,2.94,2.94,0,0,1,.53.39Z" transform="translate(-570.86 -739.97)"/><path class="cls-1" d="M649.59,772.82v1.61h-2.46v7.13h-2v-7.13h-2.46v-1.61h6.95Z" transform="translate(-570.86 -739.97)"/><path class="cls-1" d="M585.27,797.13h-2v-8.74h2v8.74Z" transform="translate(-570.86 -739.97)"/><path class="cls-1" d="M588,788.4l0.16,0a0.55,0.55,0,0,1,.14.09l0.15,0.16,4.15,5.25q0-.25,0-0.49t0-.45v-4.63h1.79v8.74h-1.06a1,1,0,0,1-.4-0.07,0.85,0.85,0,0,1-.31-0.26l-4.12-5.21q0,0.23,0,.45t0,0.41v4.69h-1.79v-8.74H588Z" transform="translate(-570.86 -739.97)"/><path class="cls-1" d="M602.74,790.16a0.76,0.76,0,0,1-.19.22,0.42,0.42,0,0,1-.26.07,0.62,0.62,0,0,1-.3-0.09l-0.36-.2a3,3,0,0,0-.46-0.2,1.84,1.84,0,0,0-.59-0.09,1.27,1.27,0,0,0-.85.24,0.83,0.83,0,0,0-.28.66,0.61,0.61,0,0,0,.17.44,1.44,1.44,0,0,0,.44.3,4.69,4.69,0,0,0,.62.23l0.72,0.23a6.4,6.4,0,0,1,.72.3,2.39,2.39,0,0,1,.62.44,2.08,2.08,0,0,1,.44.66,2.34,2.34,0,0,1,.17.93,3,3,0,0,1-.21,1.13,2.65,2.65,0,0,1-.61.92,2.83,2.83,0,0,1-1,.62,3.68,3.68,0,0,1-1.33.23,4.25,4.25,0,0,1-.83-0.08,4.94,4.94,0,0,1-.82-0.24,4.73,4.73,0,0,1-.74-0.36,3.16,3.16,0,0,1-.61-0.47l0.6-.95A0.49,0.49,0,0,1,598,795a0.53,0.53,0,0,1,.26-0.07,0.69,0.69,0,0,1,.36.11l0.41,0.25a3.34,3.34,0,0,0,.53.25,2,2,0,0,0,.71.11,1.35,1.35,0,0,0,.86-0.24,0.92,0.92,0,0,0,.31-0.77,0.73,0.73,0,0,0-.17-0.5,1.29,1.29,0,0,0-.44-0.32,4.06,4.06,0,0,0-.62-0.22l-0.71-.21a5.2,5.2,0,0,1-.71-0.29,2.25,2.25,0,0,1-.62-0.45,2.1,2.1,0,0,1-.44-0.7,2.77,2.77,0,0,1-.17-1,2.44,2.44,0,0,1,.2-1,2.48,2.48,0,0,1,.58-0.83,2.86,2.86,0,0,1,.94-0.58,3.48,3.48,0,0,1,1.28-.22,4.79,4.79,0,0,1,.78.06,4.15,4.15,0,0,1,.72.19,4,4,0,0,1,.64.29,2.94,2.94,0,0,1,.53.39Z" transform="translate(-570.86 -739.97)"/><path class="cls-1" d="M609.91,788.39v1.56h-3.59v2h2.75v1.5h-2.75v2.08h3.59v1.56h-5.63v-8.74h5.63Z" transform="translate(-570.86 -739.97)"/><path class="cls-1" d="M615.82,790.16a0.76,0.76,0,0,1-.19.22,0.42,0.42,0,0,1-.26.07,0.62,0.62,0,0,1-.3-0.09l-0.36-.2a3,3,0,0,0-.46-0.2,1.84,1.84,0,0,0-.59-0.09,1.27,1.27,0,0,0-.85.24,0.83,0.83,0,0,0-.28.66,0.61,0.61,0,0,0,.17.44,1.44,1.44,0,0,0,.44.3,4.69,4.69,0,0,0,.62.23l0.72,0.23a6.4,6.4,0,0,1,.72.3,2.39,2.39,0,0,1,.62.44,2.08,2.08,0,0,1,.44.66,2.34,2.34,0,0,1,.17.93,3,3,0,0,1-.21,1.13,2.65,2.65,0,0,1-.61.92,2.83,2.83,0,0,1-1,.62,3.68,3.68,0,0,1-1.33.23,4.25,4.25,0,0,1-.83-0.08,4.94,4.94,0,0,1-.82-0.24,4.73,4.73,0,0,1-.74-0.36,3.16,3.16,0,0,1-.61-0.47l0.6-.95a0.49,0.49,0,0,1,.19-0.17,0.53,0.53,0,0,1,.26-0.07,0.69,0.69,0,0,1,.36.11l0.41,0.25a3.34,3.34,0,0,0,.53.25,2,2,0,0,0,.71.11,1.35,1.35,0,0,0,.86-0.24,0.92,0.92,0,0,0,.31-0.77,0.73,0.73,0,0,0-.17-0.5,1.29,1.29,0,0,0-.44-0.32,4.06,4.06,0,0,0-.62-0.22l-0.71-.21a5.2,5.2,0,0,1-.71-0.29,2.25,2.25,0,0,1-.62-0.45,2.1,2.1,0,0,1-.44-0.7,2.77,2.77,0,0,1-.17-1,2.44,2.44,0,0,1,.2-1,2.48,2.48,0,0,1,.58-0.83,2.86,2.86,0,0,1,.94-0.58,3.48,3.48,0,0,1,1.28-.22,4.79,4.79,0,0,1,.78.06,4.15,4.15,0,0,1,.72.19,4,4,0,0,1,.64.29,2.94,2.94,0,0,1,.53.39Z" transform="translate(-570.86 -739.97)"/><path class="cls-1" d="M622.16,790.16a0.76,0.76,0,0,1-.19.22,0.42,0.42,0,0,1-.26.07,0.62,0.62,0,0,1-.3-0.09l-0.36-.2a3,3,0,0,0-.46-0.2,1.84,1.84,0,0,0-.59-0.09,1.27,1.27,0,0,0-.85.24,0.83,0.83,0,0,0-.28.66,0.61,0.61,0,0,0,.17.44,1.44,1.44,0,0,0,.44.3,4.69,4.69,0,0,0,.62.23l0.72,0.23a6.4,6.4,0,0,1,.72.3,2.39,2.39,0,0,1,.62.44,2.08,2.08,0,0,1,.44.66,2.34,2.34,0,0,1,.17.93,3,3,0,0,1-.21,1.13,2.65,2.65,0,0,1-.61.92,2.83,2.83,0,0,1-1,.62,3.68,3.68,0,0,1-1.33.23,4.25,4.25,0,0,1-.83-0.08,4.94,4.94,0,0,1-.82-0.24,4.73,4.73,0,0,1-.74-0.36,3.16,3.16,0,0,1-.61-0.47l0.6-.95a0.49,0.49,0,0,1,.19-0.17,0.53,0.53,0,0,1,.26-0.07,0.69,0.69,0,0,1,.36.11l0.41,0.25a3.34,3.34,0,0,0,.53.25,2,2,0,0,0,.71.11,1.35,1.35,0,0,0,.86-0.24,0.92,0.92,0,0,0,.31-0.77,0.73,0.73,0,0,0-.17-0.5,1.29,1.29,0,0,0-.44-0.32,4.06,4.06,0,0,0-.62-0.22l-0.71-.21a5.2,5.2,0,0,1-.71-0.29,2.25,2.25,0,0,1-.62-0.45,2.1,2.1,0,0,1-.44-0.7,2.77,2.77,0,0,1-.17-1,2.44,2.44,0,0,1,.2-1,2.48,2.48,0,0,1,.58-0.83,2.86,2.86,0,0,1,.94-0.58,3.48,3.48,0,0,1,1.28-.22,4.79,4.79,0,0,1,.78.06,4.15,4.15,0,0,1,.72.19,4,4,0,0,1,.64.29,2.94,2.94,0,0,1,.53.39Z" transform="translate(-570.86 -739.97)"/><path class="cls-1" d="M625.85,797.13h-2v-8.74h2v8.74Z" transform="translate(-570.86 -739.97)"/><path class="cls-1" d="M635.93,792.76a4.7,4.7,0,0,1-.33,1.76,4.17,4.17,0,0,1-2.35,2.36,5.22,5.22,0,0,1-3.72,0,4.17,4.17,0,0,1-2.36-2.36,4.92,4.92,0,0,1,0-3.53,4.2,4.2,0,0,1,.92-1.42,4.27,4.27,0,0,1,1.44-.94,4.89,4.89,0,0,1,1.86-.34,4.83,4.83,0,0,1,1.86.35,4.28,4.28,0,0,1,1.43.94,4.22,4.22,0,0,1,.92,1.42A4.68,4.68,0,0,1,635.93,792.76Zm-2.08,0a3.79,3.79,0,0,0-.17-1.17,2.47,2.47,0,0,0-.48-0.88,2.08,2.08,0,0,0-.77-0.55,2.66,2.66,0,0,0-1-.19,2.69,2.69,0,0,0-1,.19,2.08,2.08,0,0,0-.77.55,2.47,2.47,0,0,0-.48.88,4.16,4.16,0,0,0,0,2.34,2.47,2.47,0,0,0,.48.88,2,2,0,0,0,.77.55,2.73,2.73,0,0,0,1,.19,2.69,2.69,0,0,0,1-.19,2.06,2.06,0,0,0,.77-0.55,2.47,2.47,0,0,0,.48-0.88A3.81,3.81,0,0,0,633.85,792.76Z" transform="translate(-570.86 -739.97)"/><path class="cls-1" d="M638.11,788.4l0.16,0a0.55,0.55,0,0,1,.14.09l0.15,0.16,4.15,5.25c0-.17,0-0.33,0-0.49s0-.31,0-0.45v-4.63h1.79v8.74H643.4a1,1,0,0,1-.4-0.07,0.85,0.85,0,0,1-.31-0.26l-4.12-5.21q0,0.23,0,.45t0,0.41v4.69h-1.79v-8.74h1.29Z" transform="translate(-570.86 -739.97)"/><circle class="cls-2" cx="42.81" cy="42.81" r="40.48"/><line class="cls-2" x1="68.33" y1="10.57" x2="18.95" y2="75.66"/></svg>