<svg id="Interactive_elements" data-name="Interactive elements" xmlns="http://www.w3.org/2000/svg" viewBox="0 0 114.51 120.06"><defs><style>.cls-1{fill:#c53a43;}.cls-2{fill:#fe961c;}.cls-3{fill:#ffca00;}.cls-4{fill:#6cc5f5;}.cls-5{fill:#2e8bbd;}.cls-6{fill:#badef5;stroke:#2e8bbd;stroke-miterlimit:10;stroke-width:3.92px;}</style></defs><title>rocket</title><path class="cls-1" d="M9529.72,641.78c-0.6.65-1.46,13.85-8.8,22.69a35.28,35.28,0,0,1-11,9.11s2.43-7.7-1.69-12c-2.78-2.88-9-2.28-15.57,2.87-4.17,3.28-7.78,11.63-7.78,11.63a85.93,85.93,0,0,1,.63-13.82,30,30,0,0,1,3.82-10.52,13.07,13.07,0,0,0-5.39,2.67,17.23,17.23,0,0,0-4.19,4.94s0.85-15.31,7.38-22.73a30.43,30.43,0,0,1,25.49-10.19Z" transform="translate(-9479.79 -556.06)"/><path class="cls-2" d="M9523.65,639.79a29.59,29.59,0,0,1-3.56,14.72,54,54,0,0,1-5.1,7.71s0.28-5.75-6.58-8.06c-8.73-2.93-17.85,6.36-17.85,6.36a27.92,27.92,0,0,1,4.18-9.75,30.3,30.3,0,0,1,7-7.16s-5-.43-7.48.31a27.16,27.16,0,0,0-6.53,3.18s2-8,9.41-11.87c6.39-3.35,13.83-5.84,18.64-4.7S9523.65,639.79,9523.65,639.79Z" transform="translate(-9479.79 -556.06)"/><path class="cls-3" d="M9521.28,635.62a29,29,0,0,1-.84,7.22c-0.91,3.16-3.75,10.15-3.75,10.15s-0.82-6.74-4.6-7.42c-3.08-.55-8.89,2.87-8.89,2.87a62.32,62.32,0,0,1,6-6,30.41,30.41,0,0,1,5.51-3.41,42.33,42.33,0,0,0-7.34-.69,20.43,20.43,0,0,0-5.77,1.49c-1-.18,5-5.35,12.45-6.13,3.53-.37,4.34-0.8,4.34-0.8Z" transform="translate(-9479.79 -556.06)"/><path class="cls-4" d="M9567.39,626.92c26.46-28.6,27-70.84,26.9-70.83s-37.84-.95-68.87,28.28c-24.69,23.26-23.37,39.82-23.37,39.82s5.49,1.66,14.7,10.36,12.06,17.39,12.06,17.39S9544.35,651.82,9567.39,626.92Z" transform="translate(-9479.79 -556.06)"/><polygon class="cls-5" points="78.28 77.09 77.01 101.72 47.65 113.33 48.89 95.74 78.28 77.09"/><polygon class="cls-5" points="41.26 39.23 16.62 40.31 4.78 69.58 22.38 68.48 41.26 39.23"/><polygon class="cls-5" points="61.87 58.32 58.95 55.38 25.39 88.68 28.61 91.33 61.87 58.32"/><circle class="cls-6" cx="9561.95" cy="589.19" r="11.03" transform="translate(-7119.88 6350.46) rotate(-44.78)"/></svg>