<svg id="Interactive_elements" data-name="Interactive elements" xmlns="http://www.w3.org/2000/svg" viewBox="0 0 336.44 129.8"><defs><style>.cls-1{fill:#c53a43;}</style></defs><title>steps1+2_instrux</title><path class="cls-1" d="M4011.82,700.87a1.08,1.08,0,0,1-1.13-1,0.38,0.38,0,0,0-.12-0.41,2.68,2.68,0,0,0-1.2-.34c-2.23,0-4.66,3.29-5.45,5.11a6.9,6.9,0,0,0-.67,2.83,3.87,3.87,0,0,0,1.32,3,5.7,5.7,0,0,0,3.55.86c1.15,0,2.3-.17,3.46-0.17a1.09,1.09,0,0,1,1.32.86,1.29,1.29,0,0,1-1.1,1.25l-1.08,0c-0.77,0-1.54.07-2.3,0.07h-0.07a13.51,13.51,0,0,1-3.12-.31c-2.66-.62-4-3-4-5.59a8.27,8.27,0,0,1,1.32-4.42c1.46-2.33,3.77-5.59,6.84-5.59,1.34,0,3.65.46,3.65,2.18A1.3,1.3,0,0,1,4011.82,700.87Z" transform="translate(-3977.33 -676.11)"/><path class="cls-1" d="M4023.72,707.59c-0.48,2.11-2,4.44-4.42,4.44a4.4,4.4,0,0,1-4.25-4.13,4.68,4.68,0,0,1,2.57-4.1,12.33,12.33,0,0,0,2-1.49,2,2,0,0,1,1.42-.67,1.45,1.45,0,0,1,1.39,1c0.5,1.25,1.34,2.71,1.34,4.06A3.81,3.81,0,0,1,4023.72,707.59Zm-2.16-2c0-.1-0.12-0.17-0.24,0a1.09,1.09,0,0,1-.72.31,5.69,5.69,0,0,1-1.18-.5,1.6,1.6,0,0,0-.79.36,2.11,2.11,0,0,0-1.1,2,1.87,1.87,0,0,0,2,2.11,2.62,2.62,0,0,0,2.35-2.66A4,4,0,0,0,4021.56,705.55Z" transform="translate(-3977.33 -676.11)"/><path class="cls-1" d="M4040.36,712.05a1.09,1.09,0,0,1-.55-0.12c-1.42-.86-1.66-2.4-1.94-3.89a7.91,7.91,0,0,0-.26-1.08,0.33,0.33,0,0,0-.29-0.31c-0.38,0-1.92,1.8-2.18,2.18a1.18,1.18,0,0,1-1,.58c-1,0-1.7-1.3-2-2.06-0.1-.19-0.22-0.17-0.36,0-1,1.22-1.58,2.81-2.9,3.79a2,2,0,0,1-1.08.31,1,1,0,0,1-1.08-.72c-0.07-.5-0.12-1-0.22-1.54-0.17-.89-0.38-1.73-0.58-2.62a8.1,8.1,0,0,1-.22-1.73,5.63,5.63,0,0,1,.46-2.16,0.72,0.72,0,0,1,.72-0.48,1.75,1.75,0,0,1,1.66,1.51c0,0.67-.14,1.32-0.14,2a5.79,5.79,0,0,0,.31,1.8,0.16,0.16,0,0,0,.31,0,11.4,11.4,0,0,0,2.3-4.1,1.11,1.11,0,0,1,1.15-.65,1,1,0,0,1,1,.6c0.24,0.86.46,1.78,0.72,2.66a0.28,0.28,0,0,0,.19.26,0.74,0.74,0,0,0,.34-0.17c1.54-1.1,1.32-2,2.23-3.36a0.9,0.9,0,0,1,.77-0.41,1.67,1.67,0,0,1,1.51,1.08c0.17,0.72.29,1.46,0.48,2.18a23.74,23.74,0,0,0,1.8,5.09,1.09,1.09,0,0,1,.12.48A1.11,1.11,0,0,1,4040.36,712.05Z" transform="translate(-3977.33 -676.11)"/><path class="cls-1" d="M4046.45,709.46a0.58,0.58,0,0,0-.62.5,3.23,3.23,0,0,0-.07.84c0,1.06.38,2.11,0.38,3.17,0,0.67-.34,2.47-1.22,2.47a1.71,1.71,0,0,1-1.1-1.08,8.91,8.91,0,0,1-.89-4.18c0-1.18.14-2.38,0.14-3.58a11.34,11.34,0,0,0-.43-3.1,1.42,1.42,0,0,1,0-.34c0-1.39,2.47-2.33,3.62-2.33a3.9,3.9,0,0,1,3.86,3.74A4.3,4.3,0,0,1,4046.45,709.46Zm-0.36-5.06c-0.6,0-.7.55-0.7,1a10.16,10.16,0,0,0,.14,1.8,0.16,0.16,0,0,0,.17.1,2,2,0,0,0,.53-0.1c0.7-.19,1.73-0.55,1.73-1.44S4046.86,704.4,4046.09,704.4Z" transform="translate(-3977.33 -676.11)"/><path class="cls-1" d="M4055.26,708.84c0,0.62,0,1.27-.1,1.87a0.73,0.73,0,0,1-.84.67,1.29,1.29,0,0,1-1.27-.91,9.7,9.7,0,0,1-.26-2.35c0-1.3.19-2.59,0.19-3.89a25.2,25.2,0,0,0-1.49-7,1,1,0,0,1-.07-0.36c0-.82,1.06-1.18,1.75-1.18a1.09,1.09,0,0,1,1.27.94c0.24,2.09.72,4.13,0.86,6.24,0,0.82.1,1.61,0.1,2.4C4055.4,706.44,4055.33,707.64,4055.26,708.84Z" transform="translate(-3977.33 -676.11)"/><path class="cls-1" d="M4069.4,711.91a8.05,8.05,0,0,1-4,.94,8.32,8.32,0,0,1-2.66-.38c-1.9-.6-4.42-1.7-4.42-4a5.93,5.93,0,0,1,0-.67c0.36-2.38,1.75-3.46,3.67-4.68a7.33,7.33,0,0,1,3.82-1.34c1.42,0,3.34.72,3.34,2.4a2.51,2.51,0,0,1-.77,1.75c-1.42,1.39-3,1.32-4.63,2.06a5.27,5.27,0,0,1-2,.48,1.37,1.37,0,0,1-1-.31c-0.1-.1-0.19-0.07-0.19.1,0,1.49,2.09,2,3.24,2.3a8.45,8.45,0,0,0,2.21.31,16.8,16.8,0,0,0,2.66-.31l0.19,0a0.75,0.75,0,0,1,.77.79A0.69,0.69,0,0,1,4069.4,711.91Zm-3-8.06a6,6,0,0,0-.91.14,9.1,9.1,0,0,0-4.44,2.3c-0.14.22,0,.26,0.22,0.14,0.79-.26,1.58-0.38,2.42-0.58,0.6-.12,3.12-0.86,3.12-1.58A0.41,0.41,0,0,0,4066.4,703.84Z" transform="translate(-3977.33 -676.11)"/><path class="cls-1" d="M4081.25,705.36a5,5,0,0,1-3.67,1.2c-0.53,0-1.06,0-1.56,0a0.41,0.41,0,0,0-.46.36,9.21,9.21,0,0,0,.55,3,4.38,4.38,0,0,1,.53,1.51,1.24,1.24,0,0,1-1.27,1.13c-1.9,0-1.7-3.34-1.8-4.58a5.19,5.19,0,0,0-.36-1.49c-0.24-.62-2-0.53-2-1.87a1.12,1.12,0,0,1,1.3-1.22c0.19,0,.38,0,0.58,0s0.38-.07.36-0.19a26.39,26.39,0,0,1-.72-4.51,0.88,0.88,0,0,1,1-.91,1.88,1.88,0,0,1,1.92,1.54,1.27,1.27,0,0,1,0,.31,7.05,7.05,0,0,0-.26,1.87,12.84,12.84,0,0,0,.19,2.14,0.43,0.43,0,0,0,.46.41c0.6,0,1.2,0,1.78,0a5.88,5.88,0,0,0,2.16-.26,1.76,1.76,0,0,1,.91-0.41,0.89,0.89,0,0,1,.77,1A1.43,1.43,0,0,1,4081.25,705.36Z" transform="translate(-3977.33 -676.11)"/><path class="cls-1" d="M4093.78,711.91a8.05,8.05,0,0,1-4,.94,8.33,8.33,0,0,1-2.66-.38c-1.9-.6-4.42-1.7-4.42-4a5.93,5.93,0,0,1,0-.67c0.36-2.38,1.75-3.46,3.67-4.68a7.33,7.33,0,0,1,3.82-1.34c1.42,0,3.34.72,3.34,2.4a2.52,2.52,0,0,1-.77,1.75c-1.42,1.39-3,1.32-4.63,2.06a5.28,5.28,0,0,1-2,.48,1.37,1.37,0,0,1-1-.31c-0.1-.1-0.19-0.07-0.19.1,0,1.49,2.09,2,3.24,2.3a8.46,8.46,0,0,0,2.21.31,16.8,16.8,0,0,0,2.66-.31l0.19,0a0.75,0.75,0,0,1,.77.79A0.68,0.68,0,0,1,4093.78,711.91Zm-3-8.06a6,6,0,0,0-.91.14,9.1,9.1,0,0,0-4.44,2.3c-0.14.22,0,.26,0.22,0.14,0.79-.26,1.58-0.38,2.42-0.58,0.6-.12,3.12-0.86,3.12-1.58A0.41,0.41,0,0,0,4090.78,703.84Z" transform="translate(-3977.33 -676.11)"/><path class="cls-1" d="M4110.6,703.84a1.87,1.87,0,0,1-1.58,1.08c-0.77,0-.36-1.15-0.77-1.15-0.14,0-1.3.65-1.78,0.86a0.28,0.28,0,0,0-.22.24,0.24,0.24,0,0,0,.1.17c0.34,0.36.7,0.67,1,1a28,28,0,0,1,2.45,2.62,2.24,2.24,0,0,1,.48,1.34,1.92,1.92,0,0,1-.67,1.46,8.45,8.45,0,0,1-4.51,1.63,2,2,0,0,1-1.06-.24,1.52,1.52,0,0,1-.82-1.22,1,1,0,0,1,1.08-1c0.43,0,.82.26,1.27,0.26s2-.41,2-1a1.93,1.93,0,0,0-.43-0.82,10.35,10.35,0,0,0-2.76-2.45,2.39,2.39,0,0,1-1.18-2.09,1.64,1.64,0,0,1,1-1.61c1.1-.53,3.12-1.7,4.3-1.7a1.59,1.59,0,0,1,.34,0,2,2,0,0,1,1.78,1.9A3,3,0,0,1,4110.6,703.84Z" transform="translate(-3977.33 -676.11)"/><path class="cls-1" d="M4122,705.36a5,5,0,0,1-3.67,1.2c-0.53,0-1.06,0-1.56,0a0.41,0.41,0,0,0-.46.36,9.21,9.21,0,0,0,.55,3,4.38,4.38,0,0,1,.53,1.51,1.24,1.24,0,0,1-1.27,1.13c-1.9,0-1.7-3.34-1.8-4.58a5.19,5.19,0,0,0-.36-1.49c-0.24-.62-2-0.53-2-1.87a1.12,1.12,0,0,1,1.3-1.22c0.19,0,.38,0,0.58,0s0.38-.07.36-0.19a26.35,26.35,0,0,1-.72-4.51,0.88,0.88,0,0,1,1-.91,1.88,1.88,0,0,1,1.92,1.54,1.27,1.27,0,0,1,0,.31,7.05,7.05,0,0,0-.26,1.87,12.89,12.89,0,0,0,.19,2.14,0.43,0.43,0,0,0,.46.41c0.6,0,1.2,0,1.78,0a5.88,5.88,0,0,0,2.16-.26,1.76,1.76,0,0,1,.91-0.41,0.89,0.89,0,0,1,.77,1A1.43,1.43,0,0,1,4122,705.36Z" transform="translate(-3977.33 -676.11)"/><path class="cls-1" d="M4134.55,711.91a8.05,8.05,0,0,1-4,.94,8.32,8.32,0,0,1-2.66-.38c-1.9-.6-4.42-1.7-4.42-4a5.93,5.93,0,0,1,0-.67c0.36-2.38,1.75-3.46,3.67-4.68a7.33,7.33,0,0,1,3.82-1.34c1.42,0,3.34.72,3.34,2.4a2.51,2.51,0,0,1-.77,1.75c-1.42,1.39-3,1.32-4.63,2.06a5.27,5.27,0,0,1-2,.48,1.37,1.37,0,0,1-1-.31c-0.1-.1-0.19-0.07-0.19.1,0,1.49,2.09,2,3.24,2.3a8.45,8.45,0,0,0,2.21.31,16.8,16.8,0,0,0,2.66-.31l0.19,0a0.75,0.75,0,0,1,.77.79A0.69,0.69,0,0,1,4134.55,711.91Zm-3-8.06a6,6,0,0,0-.91.14,9.1,9.1,0,0,0-4.44,2.3c-0.14.22,0,.26,0.22,0.14,0.79-.26,1.58-0.38,2.42-0.58,0.6-.12,3.12-0.86,3.12-1.58A0.41,0.41,0,0,0,4131.55,703.84Z" transform="translate(-3977.33 -676.11)"/><path class="cls-1" d="M4140.74,709.46a0.58,0.58,0,0,0-.62.5,3.21,3.21,0,0,0-.07.84c0,1.06.38,2.11,0.38,3.17,0,0.67-.34,2.47-1.22,2.47a1.71,1.71,0,0,1-1.1-1.08,8.91,8.91,0,0,1-.89-4.18c0-1.18.14-2.38,0.14-3.58a11.34,11.34,0,0,0-.43-3.1,1.39,1.39,0,0,1,0-.34c0-1.39,2.47-2.33,3.62-2.33a3.9,3.9,0,0,1,3.86,3.74A4.3,4.3,0,0,1,4140.74,709.46Zm-0.36-5.06c-0.6,0-.7.55-0.7,1a10.11,10.11,0,0,0,.14,1.8,0.16,0.16,0,0,0,.17.1,2,2,0,0,0,.53-0.1c0.7-.19,1.73-0.55,1.73-1.44S4141.15,704.4,4140.38,704.4Z" transform="translate(-3977.33 -676.11)"/><path class="cls-1" d="M4153.82,703.84a1.87,1.87,0,0,1-1.58,1.08c-0.77,0-.36-1.15-0.77-1.15-0.14,0-1.3.65-1.78,0.86a0.28,0.28,0,0,0-.22.24,0.24,0.24,0,0,0,.1.17c0.34,0.36.7,0.67,1,1a28,28,0,0,1,2.45,2.62,2.24,2.24,0,0,1,.48,1.34,1.92,1.92,0,0,1-.67,1.46,8.46,8.46,0,0,1-4.51,1.63,2,2,0,0,1-1.06-.24,1.52,1.52,0,0,1-.82-1.22,1,1,0,0,1,1.08-1c0.43,0,.82.26,1.27,0.26s2-.41,2-1a1.93,1.93,0,0,0-.43-0.82,10.34,10.34,0,0,0-2.76-2.45,2.39,2.39,0,0,1-1.18-2.09,1.64,1.64,0,0,1,1-1.61c1.1-.53,3.12-1.7,4.3-1.7a1.59,1.59,0,0,1,.34,0,2,2,0,0,1,1.78,1.9A3,3,0,0,1,4153.82,703.84Z" transform="translate(-3977.33 -676.11)"/><path class="cls-1" d="M4168.27,713.18a1.18,1.18,0,0,1-1-1.27c-0.29-2.59-.19-5.21-0.48-7.82-0.14-1.37-.17-2.74-0.22-4.13a10,10,0,0,0-.24-2.54,1.08,1.08,0,0,1-.12-0.46,1.14,1.14,0,0,1,1.27-.91c1.32,0,1.58,1.13,1.58,2.18s-0.1,2.35-.1,3.55c0,1,0,2,.12,3,0.1,1.27.07,2.52,0.12,3.79a6.91,6.91,0,0,0,.53,2.88,0.64,0.64,0,0,1,.07.29A1.73,1.73,0,0,1,4168.27,713.18Z" transform="translate(-3977.33 -676.11)"/><path class="cls-1" d="M4194.65,712.49a0.71,0.71,0,0,1-.48-0.19c-1.54-1.18-2-2.69-2.5-4.44a0.65,0.65,0,0,0-.46-0.6,0.74,0.74,0,0,0-.48.26c-0.36.36-.67,0.74-1,1.1a15.2,15.2,0,0,1-3.26,2.52,3.87,3.87,0,0,1-1.87.55,2.69,2.69,0,0,1-2.57-2.86,2.57,2.57,0,0,1,.41-1.44,11.93,11.93,0,0,1,5.42-4.22,4.18,4.18,0,0,1,1.68-.46c1.06,0,1.34.77,1.73,0.77s0.46-.7,1.13-0.7a1.7,1.7,0,0,1,1.34,1c0.7,1.56,0,4.68,1.22,5.93a1.3,1.3,0,0,0,.62.38,0.69,0.69,0,0,1,.41.72A1.74,1.74,0,0,1,4194.65,712.49Zm-6.14-7a1.71,1.71,0,0,0-.65.29,10.9,10.9,0,0,0-3.31,2.69,0.55,0.55,0,0,0-.1.34,0.62,0.62,0,0,0,.72.58c0.67,0,1.87-1.2,2.47-1.61a5.71,5.71,0,0,1,.84-0.46l0.26-.1a0.37,0.37,0,0,0,.19-0.43C4188.94,706.46,4188.91,705.45,4188.5,705.45Z" transform="translate(-3977.33 -676.11)"/><path class="cls-1" d="M4206,712.92a2,2,0,0,1-.74-0.17c-2.23-1-1.18-4.2-1.92-5.52a1.12,1.12,0,0,0-.43-0.55,0.35,0.35,0,0,0-.26.17c-0.84,1-.77,2.52-1.94,3.29a1.82,1.82,0,0,1-1,.36c-0.91,0-1.44-1.13-1.44-1.92v-0.41a7.65,7.65,0,0,0-1.1-4.15,0.72,0.72,0,0,1-.14-0.43,1.92,1.92,0,0,1,1.75-1.68,1.23,1.23,0,0,1,.6.14c0.84,0.46.74,3,1,4a0.45,0.45,0,0,0,.26.43,0.65,0.65,0,0,0,.36-0.26,8.3,8.3,0,0,0,1.32-2.5,0.69,0.69,0,0,1,.72-0.43,2.15,2.15,0,0,1,1.61.89,12.19,12.19,0,0,1,1,4c0.1,0.55.26,2.45,0.79,2.71a1.13,1.13,0,0,1,.79,1A1.22,1.22,0,0,1,4206,712.92Z" transform="translate(-3977.33 -676.11)"/><path class="cls-1" d="M4221,711.29c-1.13,0-1.8-1-2.18-2a10.93,10.93,0,0,0-.65-1.54,0.49,0.49,0,0,0-.46-0.24,0.39,0.39,0,0,0-.34.17c-0.22.29-.41,0.65-0.62,0.94a7.71,7.71,0,0,1-3.26,2.81,5.66,5.66,0,0,1-2.23.55,2.35,2.35,0,0,1-2.57-2.21,2.12,2.12,0,0,1,.43-1.25c1.85-2.38,4.56-3.79,7.15-5.26a0.76,0.76,0,0,0,.48-0.46,24.25,24.25,0,0,0-.53-4.15v-0.17a0.82,0.82,0,0,1,.89-0.79,1.07,1.07,0,0,1,.74.29,4.7,4.7,0,0,1,1.68,3.46c0.07,2.3.14,7,2.47,8.16a0.92,0.92,0,0,1,.65.67C4222.7,710.95,4221.58,711.29,4221,711.29Zm-4.54-5.83a0.34,0.34,0,0,0-.14,0c-1.61.89-4,2.23-5.16,3.67a0.48,0.48,0,0,0-.1.31,0.47,0.47,0,0,0,.55.48,2.11,2.11,0,0,0,.65-0.14,10.27,10.27,0,0,0,3.7-3.19,2.57,2.57,0,0,0,.7-1A0.17,0.17,0,0,0,4216.51,705.45Z" transform="translate(-3977.33 -676.11)"/><path class="cls-1" d="M4241.69,710.78a28.73,28.73,0,0,1-4.15,1.32,18.09,18.09,0,0,1-3.94.38h-0.65a1.54,1.54,0,0,1-1.32-1.73c0-1.13,1.85-3.34,2.54-4.32a18.2,18.2,0,0,0,2.83-5.18,1.88,1.88,0,0,0,.1-0.53,1.32,1.32,0,0,0-1.27-1.42c-1.51,0-2.9,1.56-3.74,1.56s-1.22-1.08-1.22-1.78a1.43,1.43,0,0,1,.55-1.25,8.47,8.47,0,0,1,4.06-1,3.59,3.59,0,0,1,4.15,3.67,6.08,6.08,0,0,1-.91,2.93c-1,1.9-2.47,3.53-3.5,5.4a1.24,1.24,0,0,0-.19.46c0,0.34.7,0.38,1.08,0.38h0.19c1.7,0,4.61-.74,5.11-0.74a1.06,1.06,0,0,1,1,1A0.92,0.92,0,0,1,4241.69,710.78Z" transform="translate(-3977.33 -676.11)"/><path class="cls-1" d="M4006.48,738.26c-0.86,2.76-3.22,3.72-5.69,4.68a3.13,3.13,0,0,1-1.25.24,1.23,1.23,0,0,1-1.49-1,1.27,1.27,0,0,1,0-.31c0.17-.86.29-2.28,1.46-2.28,1,0,.7,1.22,1.06,1.22a0.56,0.56,0,0,0,.19,0c1.37-.58,2.74-1,3.36-2.54a2.86,2.86,0,0,0,.26-1.08c0-1-1.3-1.51-2.16-1.51a2.12,2.12,0,0,0-2,1.3,5.16,5.16,0,0,1-1.3,2.54,2,2,0,0,1-1.27.53,1,1,0,0,1-1-1.1c0-.62.1-1.22,0.1-1.85a11.83,11.83,0,0,0-.53-3.17,5.55,5.55,0,0,0-1.73-3.14,1.1,1.1,0,0,1-.41-0.86,1.91,1.91,0,0,1,1.56-1.73,0.64,0.64,0,0,1,.53.26c0.22,0.29.43,0.62,0.62,0.94a14.72,14.72,0,0,1,1.92,4.51,0.4,0.4,0,0,0,.26.41c0.26,0,1.44-1.37,3.17-1.37a3.77,3.77,0,0,1,1.54.34A4,4,0,0,1,4006.48,738.26Z" transform="translate(-3977.33 -676.11)"/><path class="cls-1" d="M4019,735.48c-0.84,1.73-1.8,3.36-2.76,4.92a48.76,48.76,0,0,0-3.43,6.38,1.49,1.49,0,0,1-1.18.74,0.63,0.63,0,0,1-.72-0.65,1.3,1.3,0,0,1,0-.26,18.72,18.72,0,0,1,2.35-5.16c0.22-.38.43-0.79,0.7-1.25s0.29-.46,0-0.67c-2.33-1.58-4.46-3.41-5.47-5.76a1.9,1.9,0,0,1-.12-0.38,1.48,1.48,0,0,1,1.3-1.3,1,1,0,0,1,.82.48,23.41,23.41,0,0,0,4.42,4.82c0.29,0.22.46,0.34,0.7,0a12,12,0,0,0,1.63-3.5,1,1,0,0,1,.91-0.82,1.43,1.43,0,0,1,1.3,1.25A3,3,0,0,1,4019,735.48Z" transform="translate(-3977.33 -676.11)"/><path class="cls-1" d="M4039.41,734.95a1.18,1.18,0,0,1-1.06-.84,0.6,0.6,0,0,0-.65-0.31,16.63,16.63,0,0,0-4.85,1.58,3.34,3.34,0,0,0-2.18,2.3,0.41,0.41,0,0,0,0,.17c0,1.27,2.35,2.38,3.36,2.59a4.83,4.83,0,0,0,1,.12c1,0,1.82-.6,2.81-0.6a0.88,0.88,0,0,1,.94.77,1.1,1.1,0,0,1-.82.89,8.51,8.51,0,0,1-3.41.94,4.55,4.55,0,0,1-1.13-.14c-2.4-.62-4.94-1.92-4.94-4.75v-0.29c0.22-2.74,2.88-3.62,5.09-4.44a19.67,19.67,0,0,1,4.82-1,1.71,1.71,0,0,1,.34,0,1.54,1.54,0,0,1,1.7,1.56C4040.42,734.06,4040.17,734.95,4039.41,734.95Z" transform="translate(-3977.33 -676.11)"/><path class="cls-1" d="M4044.66,738.84c0,0.62,0,1.27-.1,1.87a0.73,0.73,0,0,1-.84.67,1.29,1.29,0,0,1-1.27-.91,9.69,9.69,0,0,1-.26-2.35c0-1.3.19-2.59,0.19-3.89a25.2,25.2,0,0,0-1.49-7,1,1,0,0,1-.07-0.36c0-.82,1.06-1.18,1.75-1.18a1.09,1.09,0,0,1,1.27.94c0.24,2.09.72,4.13,0.86,6.24,0,0.82.1,1.61,0.1,2.4C4044.81,736.44,4044.73,737.64,4044.66,738.84Z" transform="translate(-3977.33 -676.11)"/><path class="cls-1" d="M4050,730.1a3,3,0,0,1-.65.07,2.94,2.94,0,0,1-2.5-1.56,0.9,0.9,0,0,1-.17-0.5,1,1,0,0,1,1.18-.86c0.82,0,3.17.72,3.17,1.73A1.36,1.36,0,0,1,4050,730.1Zm0.38,11.54a1.34,1.34,0,0,1-1-.34,4.59,4.59,0,0,1-1.37-2.88c-0.07-1.22-.07-2.42-0.07-3.65v-1.63a0.78,0.78,0,0,1,.84-0.86,1.64,1.64,0,0,1,1.63,1.46c0,1.06-.31,2.09-0.31,3.12,0,2.28,1.85,3.24,1.85,3.91S4050.85,741.65,4050.35,741.65Z" transform="translate(-3977.33 -676.11)"/><path class="cls-1" d="M4064.87,734.95a1.18,1.18,0,0,1-1.06-.84,0.6,0.6,0,0,0-.65-0.31,16.63,16.63,0,0,0-4.85,1.58,3.34,3.34,0,0,0-2.18,2.3,0.41,0.41,0,0,0,0,.17c0,1.27,2.35,2.38,3.36,2.59a4.83,4.83,0,0,0,1,.12c1,0,1.82-.6,2.81-0.6a0.88,0.88,0,0,1,.94.77,1.1,1.1,0,0,1-.82.89,8.52,8.52,0,0,1-3.41.94,4.55,4.55,0,0,1-1.13-.14c-2.4-.62-4.94-1.92-4.94-4.75v-0.29c0.22-2.74,2.88-3.62,5.09-4.44a19.67,19.67,0,0,1,4.82-1,1.71,1.71,0,0,1,.34,0,1.54,1.54,0,0,1,1.7,1.56C4065.88,734.06,4065.64,734.95,4064.87,734.95Z" transform="translate(-3977.33 -676.11)"/><path class="cls-1" d="M4077,740.47a6.35,6.35,0,0,1-1.51.17,16.53,16.53,0,0,1-3.74-.65,2.61,2.61,0,0,0-.62-0.12,0.25,0.25,0,0,0-.29.26c0,0.58.86,1.56,0.86,2s-0.6.55-.94,0.55a1.71,1.71,0,0,1-1.54-.72,17.82,17.82,0,0,1-1.39-5.33c-0.14-1.78-.14-3.58-0.34-5.35a7.19,7.19,0,0,0-1.32-3.86,0.89,0.89,0,0,1-.22-0.65,1.49,1.49,0,0,1,1.3-1.54,1.25,1.25,0,0,1,.7.22c1.87,1.08,1.34,3.41,1.63,5.21a19.48,19.48,0,0,1,.19,2.35,14.47,14.47,0,0,0,.1,1.78c0,0.14,0,.31.24,0.31a0.54,0.54,0,0,0,.38-0.19c0.94-.86,2.83-3,4.18-3a1.4,1.4,0,0,1,.26,2.71c-0.19,0-.34-0.07-0.53-0.07-0.58,0-2.16,1.63-2.69,2.06-0.19.14-.24,0.31-0.07,0.41a13.41,13.41,0,0,0,5.09,1.44,0.82,0.82,0,0,1,.91.89A1.08,1.08,0,0,1,4077,740.47Z" transform="translate(-3977.33 -676.11)"/><path class="cls-1" d="M4081.72,730.1a3,3,0,0,1-.65.07,2.94,2.94,0,0,1-2.5-1.56,0.9,0.9,0,0,1-.17-0.5,1,1,0,0,1,1.18-.86c0.82,0,3.17.72,3.17,1.73A1.36,1.36,0,0,1,4081.72,730.1Zm0.38,11.54a1.34,1.34,0,0,1-1-.34,4.59,4.59,0,0,1-1.37-2.88c-0.07-1.22-.07-2.42-0.07-3.65v-1.63a0.78,0.78,0,0,1,.84-0.86,1.64,1.64,0,0,1,1.63,1.46c0,1.06-.31,2.09-0.31,3.12,0,2.28,1.85,3.24,1.85,3.91S4082.61,741.65,4082.1,741.65Z" transform="translate(-3977.33 -676.11)"/><path class="cls-1" d="M4094.15,742.92a2,2,0,0,1-.74-0.17c-2.23-1-1.18-4.2-1.92-5.52a1.12,1.12,0,0,0-.43-0.55,0.35,0.35,0,0,0-.26.17c-0.84,1-.77,2.52-1.94,3.29a1.82,1.82,0,0,1-1,.36c-0.91,0-1.44-1.13-1.44-1.92v-0.41a7.65,7.65,0,0,0-1.1-4.15,0.72,0.72,0,0,1-.14-0.43,1.92,1.92,0,0,1,1.75-1.68,1.23,1.23,0,0,1,.6.14c0.84,0.46.74,3,1,4a0.45,0.45,0,0,0,.26.43,0.65,0.65,0,0,0,.36-0.26,8.34,8.34,0,0,0,1.32-2.5,0.69,0.69,0,0,1,.72-0.43,2.16,2.16,0,0,1,1.61.89,12.22,12.22,0,0,1,1,4c0.1,0.55.26,2.45,0.79,2.71a1.13,1.13,0,0,1,.79,1A1.22,1.22,0,0,1,4094.15,742.92Z" transform="translate(-3977.33 -676.11)"/><path class="cls-1" d="M4104,746.78a4.48,4.48,0,0,1-3.41,1.9,4.69,4.69,0,0,1-4.27-3.86,2.71,2.71,0,0,1-.12-0.77,1,1,0,0,1,.94-1.15c2,0-.34,3.55,2.93,3.55,2.64,0,4.13-3.41,4.13-5.66a20.71,20.71,0,0,0-.24-3.36s0-.26-0.14-0.26c-0.41,0-1.82,3-3.74,3a2,2,0,0,1-.53-0.07,2.91,2.91,0,0,1-2.3-2.74c0-2.57,3.74-5.38,6.17-5.38a2.11,2.11,0,0,1,2,1.08,3.82,3.82,0,0,1,.62,2c0,0.58-.1,1.1-0.1,1.68,0,1.13.17,2.26,0.17,3.38A10.16,10.16,0,0,1,4104,746.78Zm-1.39-12.34a2,2,0,0,0-.58.24c-0.5.24-1,.53-1.51,0.79a2.1,2.1,0,0,0-1.08,1.78,0.69,0.69,0,0,0,.65.79,2.1,2.1,0,0,0,1.39-1,12.48,12.48,0,0,0,1.34-2.35A0.22,0.22,0,0,0,4102.65,734.44Z" transform="translate(-3977.33 -676.11)"/><path class="cls-1" d="M4128,741.29c-1.13,0-1.8-1-2.18-2a10.93,10.93,0,0,0-.65-1.54,0.49,0.49,0,0,0-.46-0.24,0.39,0.39,0,0,0-.34.17c-0.22.29-.41,0.65-0.62,0.94a7.71,7.71,0,0,1-3.26,2.81,5.67,5.67,0,0,1-2.23.55,2.35,2.35,0,0,1-2.57-2.21,2.12,2.12,0,0,1,.43-1.25c1.85-2.38,4.56-3.79,7.15-5.26a0.76,0.76,0,0,0,.48-0.46,24.25,24.25,0,0,0-.53-4.15v-0.17a0.82,0.82,0,0,1,.89-0.79,1.07,1.07,0,0,1,.74.29,4.7,4.7,0,0,1,1.68,3.46c0.07,2.3.14,7,2.47,8.16a0.92,0.92,0,0,1,.65.67C4129.62,740.95,4128.49,741.29,4128,741.29Zm-4.54-5.83a0.34,0.34,0,0,0-.14,0c-1.61.89-4,2.23-5.16,3.67a0.48,0.48,0,0,0-.1.31,0.47,0.47,0,0,0,.55.48,2.11,2.11,0,0,0,.65-0.14,10.27,10.27,0,0,0,3.7-3.19,2.57,2.57,0,0,0,.7-1A0.17,0.17,0,0,0,4123.43,735.45Z" transform="translate(-3977.33 -676.11)"/><path class="cls-1" d="M4133.87,730.1a3,3,0,0,1-.65.07,2.94,2.94,0,0,1-2.5-1.56,0.91,0.91,0,0,1-.17-0.5,1,1,0,0,1,1.18-.86c0.82,0,3.17.72,3.17,1.73A1.36,1.36,0,0,1,4133.87,730.1Zm0.38,11.54a1.34,1.34,0,0,1-1-.34,4.59,4.59,0,0,1-1.37-2.88c-0.07-1.22-.07-2.42-0.07-3.65v-1.63a0.78,0.78,0,0,1,.84-0.86,1.64,1.64,0,0,1,1.63,1.46c0,1.06-.31,2.09-0.31,3.12,0,2.28,1.85,3.24,1.85,3.91S4134.76,741.65,4134.25,741.65Z" transform="translate(-3977.33 -676.11)"/><path class="cls-1" d="M4144.4,735.69c-0.34,0-.62-0.22-1-0.22a0.65,0.65,0,0,0-.53.34c-0.94,1.37-.7,3.14-1.34,4.63a1.24,1.24,0,0,1-1.15.74,1.06,1.06,0,0,1-1.08-.84c-0.26-1-.53-1.92-0.84-2.88s-1.37-2.18-1.37-3.26a1,1,0,0,1,1.13-1.13,1.33,1.33,0,0,1,.72.22,2.51,2.51,0,0,1,1.25,2c0,0.26.07,0.55,0.14,0.82a0.15,0.15,0,0,0,.14.14,0.28,0.28,0,0,0,.22-0.22c0.62-1.2,0-2.52,1.85-3a3.9,3.9,0,0,1,.74-0.07c0.89,0,2,.41,2,1.44A1.09,1.09,0,0,1,4144.4,735.69Z" transform="translate(-3977.33 -676.11)"/><path class="cls-1" d="M4158.21,741.91a8.05,8.05,0,0,1-4,.94,8.33,8.33,0,0,1-2.66-.38c-1.9-.6-4.42-1.7-4.42-4a5.93,5.93,0,0,1,0-.67c0.36-2.38,1.75-3.46,3.67-4.68a7.33,7.33,0,0,1,3.82-1.34c1.42,0,3.34.72,3.34,2.4a2.52,2.52,0,0,1-.77,1.75c-1.42,1.39-3,1.32-4.63,2.06a5.28,5.28,0,0,1-2,.48,1.37,1.37,0,0,1-1-.31c-0.1-.1-0.19-0.07-0.19.1,0,1.49,2.09,2,3.24,2.3a8.46,8.46,0,0,0,2.21.31,16.8,16.8,0,0,0,2.66-.31l0.19,0a0.75,0.75,0,0,1,.77.79A0.68,0.68,0,0,1,4158.21,741.91Zm-3-8.06a6,6,0,0,0-.91.14,9.1,9.1,0,0,0-4.44,2.3c-0.14.22,0,.26,0.22,0.14,0.79-.26,1.58-0.38,2.42-0.58,0.6-.12,3.12-0.86,3.12-1.58A0.41,0.41,0,0,0,4155.21,733.84Z" transform="translate(-3977.33 -676.11)"/><path class="cls-1" d="M4171.65,734.95a1.18,1.18,0,0,1-1.06-.84,0.6,0.6,0,0,0-.65-0.31,16.63,16.63,0,0,0-4.85,1.58,3.34,3.34,0,0,0-2.18,2.3,0.41,0.41,0,0,0,0,.17c0,1.27,2.35,2.38,3.36,2.59a4.83,4.83,0,0,0,1,.12c1,0,1.82-.6,2.81-0.6a0.88,0.88,0,0,1,.94.77,1.1,1.1,0,0,1-.82.89,8.51,8.51,0,0,1-3.41.94,4.55,4.55,0,0,1-1.13-.14c-2.4-.62-4.94-1.92-4.94-4.75v-0.29c0.22-2.74,2.88-3.62,5.09-4.44a19.67,19.67,0,0,1,4.82-1,1.71,1.71,0,0,1,.34,0,1.54,1.54,0,0,1,1.7,1.56C4172.65,734.06,4172.41,734.95,4171.65,734.95Z" transform="translate(-3977.33 -676.11)"/><path class="cls-1" d="M4183.38,735.36a5,5,0,0,1-3.67,1.2c-0.53,0-1.06,0-1.56,0a0.41,0.41,0,0,0-.46.36,9.21,9.21,0,0,0,.55,3,4.38,4.38,0,0,1,.53,1.51,1.24,1.24,0,0,1-1.27,1.13c-1.9,0-1.7-3.34-1.8-4.58a5.19,5.19,0,0,0-.36-1.49c-0.24-.62-2-0.53-2-1.87a1.12,1.12,0,0,1,1.3-1.22c0.19,0,.38,0,0.58,0s0.38-.07.36-0.19a26.35,26.35,0,0,1-.72-4.51,0.88,0.88,0,0,1,1-.91,1.88,1.88,0,0,1,1.92,1.54,1.27,1.27,0,0,1,0,.31,7.05,7.05,0,0,0-.26,1.87,12.89,12.89,0,0,0,.19,2.14,0.43,0.43,0,0,0,.46.41c0.6,0,1.2,0,1.78,0a5.88,5.88,0,0,0,2.16-.26,1.77,1.77,0,0,1,.91-0.41,0.89,0.89,0,0,1,.77,1A1.43,1.43,0,0,1,4183.38,735.36Z" transform="translate(-3977.33 -676.11)"/><path class="cls-1" d="M4187.8,738.84c0,0.62,0,1.27-.1,1.87a0.73,0.73,0,0,1-.84.67,1.29,1.29,0,0,1-1.27-.91,9.69,9.69,0,0,1-.26-2.35c0-1.3.19-2.59,0.19-3.89a25.2,25.2,0,0,0-1.49-7,1,1,0,0,1-.07-0.36c0-.82,1.06-1.18,1.75-1.18a1.09,1.09,0,0,1,1.27.94c0.24,2.09.72,4.13,0.86,6.24,0,0.82.1,1.61,0.1,2.4C4187.94,736.44,4187.87,737.64,4187.8,738.84Z" transform="translate(-3977.33 -676.11)"/><path class="cls-1" d="M4200.76,735.48c-0.84,1.73-1.8,3.36-2.76,4.92a48.7,48.7,0,0,0-3.43,6.38,1.49,1.49,0,0,1-1.18.74,0.63,0.63,0,0,1-.72-0.65,1.27,1.27,0,0,1,0-.26,18.7,18.7,0,0,1,2.35-5.16c0.22-.38.43-0.79,0.7-1.25s0.29-.46,0-0.67c-2.33-1.58-4.46-3.41-5.47-5.76a1.9,1.9,0,0,1-.12-0.38,1.48,1.48,0,0,1,1.3-1.3,1,1,0,0,1,.82.48,23.41,23.41,0,0,0,4.42,4.82c0.29,0.22.46,0.34,0.7,0a12,12,0,0,0,1.63-3.5,1,1,0,0,1,.91-0.82,1.43,1.43,0,0,1,1.3,1.25A3,3,0,0,1,4200.76,735.48Z" transform="translate(-3977.33 -676.11)"/><path class="cls-1" d="M4212.4,730.1a3,3,0,0,1-.65.07,2.94,2.94,0,0,1-2.5-1.56,0.9,0.9,0,0,1-.17-0.5,1,1,0,0,1,1.18-.86c0.82,0,3.17.72,3.17,1.73A1.36,1.36,0,0,1,4212.4,730.1Zm0.38,11.54a1.34,1.34,0,0,1-1-.34,4.59,4.59,0,0,1-1.37-2.88c-0.07-1.22-.07-2.42-0.07-3.65v-1.63a0.78,0.78,0,0,1,.84-0.86,1.64,1.64,0,0,1,1.63,1.46c0,1.06-.31,2.09-0.31,3.12,0,2.28,1.85,3.24,1.85,3.91S4213.28,741.65,4212.78,741.65Z" transform="translate(-3977.33 -676.11)"/><path class="cls-1" d="M4224.83,742.92a2,2,0,0,1-.74-0.17c-2.23-1-1.18-4.2-1.92-5.52a1.12,1.12,0,0,0-.43-0.55,0.35,0.35,0,0,0-.26.17c-0.84,1-.77,2.52-1.94,3.29a1.82,1.82,0,0,1-1,.36c-0.91,0-1.44-1.13-1.44-1.92v-0.41A7.65,7.65,0,0,0,4216,734a0.72,0.72,0,0,1-.14-0.43,1.92,1.92,0,0,1,1.75-1.68,1.23,1.23,0,0,1,.6.14c0.84,0.46.74,3,1,4a0.45,0.45,0,0,0,.26.43,0.65,0.65,0,0,0,.36-0.26,8.34,8.34,0,0,0,1.32-2.5,0.69,0.69,0,0,1,.72-0.43,2.16,2.16,0,0,1,1.61.89,12.22,12.22,0,0,1,1,4c0.1,0.55.26,2.45,0.79,2.71a1.13,1.13,0,0,1,.79,1A1.22,1.22,0,0,1,4224.83,742.92Z" transform="translate(-3977.33 -676.11)"/><path class="cls-1" d="M4237.31,735.36a5,5,0,0,1-3.67,1.2c-0.53,0-1.06,0-1.56,0a0.41,0.41,0,0,0-.46.36,9.21,9.21,0,0,0,.55,3,4.38,4.38,0,0,1,.53,1.51,1.24,1.24,0,0,1-1.27,1.13c-1.9,0-1.7-3.34-1.8-4.58a5.19,5.19,0,0,0-.36-1.49c-0.24-.62-2-0.53-2-1.87a1.12,1.12,0,0,1,1.3-1.22c0.19,0,.38,0,0.58,0s0.38-.07.36-0.19a26.35,26.35,0,0,1-.72-4.51,0.88,0.88,0,0,1,1-.91,1.88,1.88,0,0,1,1.92,1.54,1.25,1.25,0,0,1,0,.31,7.05,7.05,0,0,0-.26,1.87,12.84,12.84,0,0,0,.19,2.14,0.43,0.43,0,0,0,.46.41c0.6,0,1.2,0,1.78,0a5.88,5.88,0,0,0,2.16-.26,1.76,1.76,0,0,1,.91-0.41,0.89,0.89,0,0,1,.77,1A1.43,1.43,0,0,1,4237.31,735.36Z" transform="translate(-3977.33 -676.11)"/><path class="cls-1" d="M4247.31,737.59c-0.48,2.11-2,4.44-4.42,4.44a4.4,4.4,0,0,1-4.25-4.13,4.68,4.68,0,0,1,2.57-4.1,12.31,12.31,0,0,0,2-1.49,2,2,0,0,1,1.42-.67,1.45,1.45,0,0,1,1.39,1c0.5,1.25,1.34,2.71,1.34,4.06A3.78,3.78,0,0,1,4247.31,737.59Zm-2.16-2c0-.1-0.12-0.17-0.24,0a1.09,1.09,0,0,1-.72.31,5.68,5.68,0,0,1-1.18-.5,1.6,1.6,0,0,0-.79.36,2.11,2.11,0,0,0-1.1,2,1.87,1.87,0,0,0,2,2.11,2.62,2.62,0,0,0,2.35-2.66A4,4,0,0,0,4245.15,735.55Z" transform="translate(-3977.33 -676.11)"/><path class="cls-1" d="M4075,765.36a5,5,0,0,1-3.67,1.2c-0.53,0-1.06,0-1.56,0a0.41,0.41,0,0,0-.46.36,9.21,9.21,0,0,0,.55,3,4.38,4.38,0,0,1,.53,1.51,1.24,1.24,0,0,1-1.27,1.13c-1.9,0-1.7-3.34-1.8-4.58a5.19,5.19,0,0,0-.36-1.49c-0.24-.62-2-0.53-2-1.87a1.12,1.12,0,0,1,1.3-1.22c0.19,0,.38,0,0.58,0s0.38-.07.36-0.19a26.35,26.35,0,0,1-.72-4.51,0.88,0.88,0,0,1,1-.91,1.88,1.88,0,0,1,1.92,1.54,1.27,1.27,0,0,1,0,.31,7.05,7.05,0,0,0-.26,1.87,12.89,12.89,0,0,0,.19,2.14,0.43,0.43,0,0,0,.46.41c0.6,0,1.2,0,1.78,0a5.88,5.88,0,0,0,2.16-.26,1.77,1.77,0,0,1,.91-0.41,0.89,0.89,0,0,1,.77,1A1.43,1.43,0,0,1,4075,765.36Z" transform="translate(-3977.33 -676.11)"/><path class="cls-1" d="M4086.58,772.29a0.77,0.77,0,0,1-.84-0.53l-0.14-.84a11,11,0,0,0-1-2.54c-0.43-.86-0.41-1.9-0.79-2.69a0.34,0.34,0,0,0-.29-0.22,0.26,0.26,0,0,0-.24.17c-0.17.24-.29,0.5-0.43,0.74a12.09,12.09,0,0,1-1.49,2c-0.74.84-.91,2-1.73,2.83a1.47,1.47,0,0,1-1,.36,0.88,0.88,0,0,1-1-.67c-0.07-.7-0.1-1.42-0.17-2.11-0.14-1.54-.31-3.1-0.43-4.63-0.17-1.7-.29-3.41-0.29-5.11v-0.36a13.6,13.6,0,0,1,.1-1.73,0.8,0.8,0,0,1,.91-0.74,1.64,1.64,0,0,1,1.68,1.27,0.83,0.83,0,0,1-.07.31,20,20,0,0,0-.24,3.89V762a40.36,40.36,0,0,0,.19,4.82c0.1,0.7.22,0.82,0.48,0.46,1.15-1.39,1.94-3.07,3.17-4.42a1.61,1.61,0,0,1,1.1-.65,1.31,1.31,0,0,1,1.06.84,23.87,23.87,0,0,1,1.13,3.19,29.45,29.45,0,0,0,1.68,4.15,1.52,1.52,0,0,1,.17.62A1.45,1.45,0,0,1,4086.58,772.29Z" transform="translate(-3977.33 -676.11)"/><path class="cls-1" d="M4092.17,760.1a3,3,0,0,1-.65.07,2.94,2.94,0,0,1-2.5-1.56,0.9,0.9,0,0,1-.17-0.5,1,1,0,0,1,1.18-.86c0.82,0,3.17.72,3.17,1.73A1.36,1.36,0,0,1,4092.17,760.1Zm0.38,11.54a1.34,1.34,0,0,1-1-.34,4.59,4.59,0,0,1-1.37-2.88c-0.07-1.22-.07-2.42-0.07-3.65v-1.63a0.78,0.78,0,0,1,.84-0.86,1.64,1.64,0,0,1,1.63,1.46c0,1.06-.31,2.09-0.31,3.12,0,2.28,1.85,3.24,1.85,3.91S4093.06,771.65,4092.55,771.65Z" transform="translate(-3977.33 -676.11)"/><path class="cls-1" d="M4103.28,763.84a1.87,1.87,0,0,1-1.58,1.08c-0.77,0-.36-1.15-0.77-1.15-0.14,0-1.3.65-1.78,0.86a0.28,0.28,0,0,0-.22.24,0.24,0.24,0,0,0,.1.17c0.34,0.36.7,0.67,1,1a28,28,0,0,1,2.45,2.62A2.24,2.24,0,0,1,4103,770a1.92,1.92,0,0,1-.67,1.46,8.45,8.45,0,0,1-4.51,1.63,2,2,0,0,1-1.06-.24,1.52,1.52,0,0,1-.82-1.22,1,1,0,0,1,1.08-1c0.43,0,.82.26,1.27,0.26s2-.41,2-1a1.93,1.93,0,0,0-.43-0.82,10.35,10.35,0,0,0-2.76-2.45,2.39,2.39,0,0,1-1.18-2.09,1.64,1.64,0,0,1,1-1.61c1.1-.53,3.12-1.7,4.3-1.7a1.59,1.59,0,0,1,.34,0,2,2,0,0,1,1.78,1.9A3,3,0,0,1,4103.28,763.84Z" transform="translate(-3977.33 -676.11)"/><path class="cls-1" d="M4122.5,772.05c-0.77,0-1.56-.94-2-1.46s-0.82-.94-1.18-1.39c-0.14-.17-0.24-0.1-0.29.1a8.08,8.08,0,0,1-.55,1.32,3.07,3.07,0,0,1-2.62,1.66,2.05,2.05,0,0,1-2-1.32,33.16,33.16,0,0,1-2-7.61c0-.07,0-0.17,0-0.24a1,1,0,0,1,1.22-.94c0.62,0,1.8.34,1.78,1.1v0.12c0,0.67-.12,1.32-0.12,2a7.64,7.64,0,0,0,.82,3.7,1.1,1.1,0,0,0,.67.67,1.29,1.29,0,0,0,.72-0.82,8.66,8.66,0,0,0,.7-3.48,1.31,1.31,0,0,1,1.13-1.34c1,0,1.58,1.78,1.92,2.54,0.24,0.5,1.18,2.38,1.75,2.38s0.65-1.61.65-2c0-.77-0.19-1.54-0.19-2.3a0.89,0.89,0,0,1,1-.91,1.61,1.61,0,0,1,1.63,1.61C4125.55,766.87,4124.21,772.05,4122.5,772.05Z" transform="translate(-3977.33 -676.11)"/><path class="cls-1" d="M4129.75,760.1a3,3,0,0,1-.65.07,2.94,2.94,0,0,1-2.5-1.56,0.9,0.9,0,0,1-.17-0.5,1,1,0,0,1,1.18-.86c0.82,0,3.17.72,3.17,1.73A1.36,1.36,0,0,1,4129.75,760.1Zm0.38,11.54a1.34,1.34,0,0,1-1-.34,4.59,4.59,0,0,1-1.37-2.88c-0.07-1.22-.07-2.42-0.07-3.65v-1.63a0.78,0.78,0,0,1,.84-0.86,1.64,1.64,0,0,1,1.63,1.46c0,1.06-.31,2.09-0.31,3.12,0,2.28,1.85,3.24,1.85,3.91S4130.64,771.65,4130.14,771.65Z" transform="translate(-3977.33 -676.11)"/><path class="cls-1" d="M4142.18,772.92a2,2,0,0,1-.74-0.17c-2.23-1-1.18-4.2-1.92-5.52a1.12,1.12,0,0,0-.43-0.55,0.35,0.35,0,0,0-.26.17c-0.84,1-.77,2.52-1.94,3.29a1.82,1.82,0,0,1-1,.36c-0.91,0-1.44-1.13-1.44-1.92v-0.41a7.65,7.65,0,0,0-1.1-4.15,0.72,0.72,0,0,1-.14-0.43,1.92,1.92,0,0,1,1.75-1.68,1.23,1.23,0,0,1,.6.14c0.84,0.46.74,3,1,4a0.45,0.45,0,0,0,.26.43,0.65,0.65,0,0,0,.36-0.26,8.31,8.31,0,0,0,1.32-2.5,0.69,0.69,0,0,1,.72-0.43,2.16,2.16,0,0,1,1.61.89,12.21,12.21,0,0,1,1,4c0.1,0.55.26,2.45,0.79,2.71a1.13,1.13,0,0,1,.79,1A1.22,1.22,0,0,1,4142.18,772.92Z" transform="translate(-3977.33 -676.11)"/><path class="cls-1" d="M4157.28,771.29c-1.13,0-1.8-1-2.18-2a11,11,0,0,0-.65-1.54,0.49,0.49,0,0,0-.46-0.24,0.39,0.39,0,0,0-.34.17c-0.22.29-.41,0.65-0.62,0.94a7.72,7.72,0,0,1-3.26,2.81,5.66,5.66,0,0,1-2.23.55,2.35,2.35,0,0,1-2.57-2.21,2.12,2.12,0,0,1,.43-1.25c1.85-2.38,4.56-3.79,7.15-5.26a0.76,0.76,0,0,0,.48-0.46,24.3,24.3,0,0,0-.53-4.15v-0.17a0.82,0.82,0,0,1,.89-0.79,1.07,1.07,0,0,1,.74.29,4.7,4.7,0,0,1,1.68,3.46c0.07,2.3.14,7,2.47,8.16a0.92,0.92,0,0,1,.65.67C4158.94,770.95,4157.81,771.29,4157.28,771.29Zm-4.54-5.83a0.34,0.34,0,0,0-.14,0c-1.61.89-4,2.23-5.16,3.67a0.48,0.48,0,0,0-.1.31,0.48,0.48,0,0,0,.55.48,2.1,2.1,0,0,0,.65-0.14,10.26,10.26,0,0,0,3.7-3.19,2.56,2.56,0,0,0,.7-1A0.17,0.17,0,0,0,4152.74,765.45Z" transform="translate(-3977.33 -676.11)"/><path class="cls-1" d="M4169.5,767.59c-0.48,2.11-2,4.44-4.42,4.44a4.4,4.4,0,0,1-4.25-4.13,4.68,4.68,0,0,1,2.57-4.1,12.33,12.33,0,0,0,2-1.49,2,2,0,0,1,1.42-.67,1.45,1.45,0,0,1,1.39,1c0.5,1.25,1.34,2.71,1.34,4.06A3.81,3.81,0,0,1,4169.5,767.59Zm-2.16-2c0-.1-0.12-0.17-0.24,0a1.09,1.09,0,0,1-.72.31,5.69,5.69,0,0,1-1.18-.5,1.6,1.6,0,0,0-.79.36,2.12,2.12,0,0,0-1.1,2,1.87,1.87,0,0,0,2,2.11,2.62,2.62,0,0,0,2.35-2.66A4,4,0,0,0,4167.34,765.55Z" transform="translate(-3977.33 -676.11)"/><path class="cls-1" d="M4181.66,772.05c-0.77,0-1.56-.94-2-1.46s-0.82-.94-1.18-1.39c-0.14-.17-0.24-0.1-0.29.1a8.08,8.08,0,0,1-.55,1.32,3.07,3.07,0,0,1-2.62,1.66,2.05,2.05,0,0,1-2-1.32,33.16,33.16,0,0,1-2-7.61c0-.07,0-0.17,0-0.24a1,1,0,0,1,1.22-.94c0.62,0,1.8.34,1.78,1.1v0.12c0,0.67-.12,1.32-0.12,2a7.64,7.64,0,0,0,.82,3.7,1.1,1.1,0,0,0,.67.67,1.29,1.29,0,0,0,.72-0.82,8.66,8.66,0,0,0,.7-3.48,1.31,1.31,0,0,1,1.13-1.34c1,0,1.58,1.78,1.92,2.54,0.24,0.5,1.18,2.38,1.75,2.38s0.65-1.61.65-2c0-.77-0.19-1.54-0.19-2.3a0.89,0.89,0,0,1,1-.91,1.61,1.61,0,0,1,1.63,1.61C4184.71,766.87,4183.37,772.05,4181.66,772.05Z" transform="translate(-3977.33 -676.11)"/><path class="cls-1" d="M3983.52,788.49a11,11,0,0,0-3.94,7.18,26.16,26.16,0,0,0-.29,3,7.92,7.92,0,0,0,.07,1.08,2.85,2.85,0,0,0,1.44,2.3c0.22,0.1.43,0.17,0.65,0.24a1,1,0,0,1,.6,1,0.82,0.82,0,0,1-.84.89l-0.22,0c-2.83-.48-3.67-3.65-3.67-6.12a9.18,9.18,0,0,1,.1-1.42c0.5-3.65,2-7.66,5.42-9.53a1.22,1.22,0,0,1,.53-0.12,0.66,0.66,0,0,1,.74.58A1.33,1.33,0,0,1,3983.52,788.49Z" transform="translate(-3977.33 -676.11)"/><path class="cls-1" d="M3993.39,802.92a2,2,0,0,1-.74-0.17c-2.23-1-1.18-4.2-1.92-5.52a1.12,1.12,0,0,0-.43-0.55,0.35,0.35,0,0,0-.26.17c-0.84,1-.77,2.52-1.94,3.29a1.82,1.82,0,0,1-1,.36c-0.91,0-1.44-1.13-1.44-1.92v-0.41a7.65,7.65,0,0,0-1.1-4.15,0.72,0.72,0,0,1-.14-0.43,1.92,1.92,0,0,1,1.75-1.68,1.23,1.23,0,0,1,.6.14c0.84,0.46.74,3,1,4a0.45,0.45,0,0,0,.26.43,0.65,0.65,0,0,0,.36-0.26,8.31,8.31,0,0,0,1.32-2.5,0.69,0.69,0,0,1,.72-0.43,2.16,2.16,0,0,1,1.61.89,12.21,12.21,0,0,1,1,4c0.1,0.55.26,2.45,0.79,2.71a1.13,1.13,0,0,1,.79,1A1.22,1.22,0,0,1,3993.39,802.92Z" transform="translate(-3977.33 -676.11)"/><path class="cls-1" d="M4005,797.59c-0.48,2.11-2,4.44-4.42,4.44a4.4,4.4,0,0,1-4.25-4.13,4.68,4.68,0,0,1,2.57-4.1,12.35,12.35,0,0,0,2-1.49,2,2,0,0,1,1.42-.67,1.45,1.45,0,0,1,1.39,1c0.5,1.25,1.34,2.71,1.34,4.06A3.81,3.81,0,0,1,4005,797.59Zm-2.16-2c0-.1-0.12-0.17-0.24,0a1.09,1.09,0,0,1-.72.31,5.72,5.72,0,0,1-1.18-.5,1.6,1.6,0,0,0-.79.36,2.12,2.12,0,0,0-1.1,2,1.87,1.87,0,0,0,2,2.11,2.62,2.62,0,0,0,2.35-2.66A4,4,0,0,0,4002.82,795.55Z" transform="translate(-3977.33 -676.11)"/><path class="cls-1" d="M4022.81,802.92a2,2,0,0,1-.74-0.17c-2.23-1-1.18-4.2-1.92-5.52a1.12,1.12,0,0,0-.43-0.55,0.35,0.35,0,0,0-.26.17c-0.84,1-.77,2.52-1.94,3.29a1.82,1.82,0,0,1-1,.36c-0.91,0-1.44-1.13-1.44-1.92v-0.41A7.65,7.65,0,0,0,4014,794a0.72,0.72,0,0,1-.14-0.43,1.92,1.92,0,0,1,1.75-1.68,1.24,1.24,0,0,1,.6.14c0.84,0.46.74,3,1,4a0.45,0.45,0,0,0,.26.43,0.65,0.65,0,0,0,.36-0.26,8.31,8.31,0,0,0,1.32-2.5,0.69,0.69,0,0,1,.72-0.43,2.16,2.16,0,0,1,1.61.89,12.21,12.21,0,0,1,1,4c0.1,0.55.26,2.45,0.79,2.71a1.13,1.13,0,0,1,.79,1A1.22,1.22,0,0,1,4022.81,802.92Z" transform="translate(-3977.33 -676.11)"/><path class="cls-1" d="M4036.92,801.91a8.05,8.05,0,0,1-4,.94,8.33,8.33,0,0,1-2.66-.38c-1.9-.6-4.42-1.7-4.42-4a5.91,5.91,0,0,1,0-.67c0.36-2.38,1.75-3.46,3.67-4.68a7.33,7.33,0,0,1,3.82-1.34c1.42,0,3.34.72,3.34,2.4a2.51,2.51,0,0,1-.77,1.75c-1.42,1.39-3,1.32-4.63,2.06a5.27,5.27,0,0,1-2,.48,1.37,1.37,0,0,1-1-.31c-0.1-.1-0.19-0.07-0.19.1,0,1.49,2.09,2,3.24,2.3a8.45,8.45,0,0,0,2.21.31,16.8,16.8,0,0,0,2.66-.31l0.19,0a0.75,0.75,0,0,1,.77.79A0.69,0.69,0,0,1,4036.92,801.91Zm-3-8.06a6,6,0,0,0-.91.14,9.1,9.1,0,0,0-4.44,2.3c-0.14.22,0,.26,0.22,0.14,0.79-.26,1.58-0.38,2.42-0.58,0.6-.12,3.12-0.86,3.12-1.58A0.41,0.41,0,0,0,4033.92,793.84Z" transform="translate(-3977.33 -676.11)"/><path class="cls-1" d="M4050.41,801.91a8.05,8.05,0,0,1-4,.94,8.33,8.33,0,0,1-2.66-.38c-1.9-.6-4.42-1.7-4.42-4a5.8,5.8,0,0,1,0-.67c0.36-2.38,1.75-3.46,3.67-4.68a7.33,7.33,0,0,1,3.82-1.34c1.42,0,3.34.72,3.34,2.4a2.51,2.51,0,0,1-.77,1.75c-1.42,1.39-3,1.32-4.63,2.06a5.28,5.28,0,0,1-2,.48,1.36,1.36,0,0,1-1-.31c-0.1-.1-0.19-0.07-0.19.1,0,1.49,2.09,2,3.24,2.3a8.45,8.45,0,0,0,2.21.31,16.78,16.78,0,0,0,2.66-.31l0.19,0a0.75,0.75,0,0,1,.77.79A0.69,0.69,0,0,1,4050.41,801.91Zm-3-8.06a6,6,0,0,0-.91.14,9.11,9.11,0,0,0-4.44,2.3c-0.14.22,0,.26,0.22,0.14,0.79-.26,1.58-0.38,2.42-0.58,0.6-.12,3.12-0.86,3.12-1.58A0.41,0.41,0,0,0,4047.41,793.84Z" transform="translate(-3977.33 -676.11)"/><path class="cls-1" d="M4064.88,801.29c-1.13,0-1.8-1-2.18-2a10.94,10.94,0,0,0-.65-1.54,0.49,0.49,0,0,0-.46-0.24,0.39,0.39,0,0,0-.34.17c-0.22.29-.41,0.65-0.62,0.94a7.72,7.72,0,0,1-3.26,2.81,5.67,5.67,0,0,1-2.23.55,2.35,2.35,0,0,1-2.57-2.21,2.12,2.12,0,0,1,.43-1.25c1.85-2.38,4.56-3.79,7.15-5.26a0.76,0.76,0,0,0,.48-0.46,24.3,24.3,0,0,0-.53-4.15v-0.17a0.82,0.82,0,0,1,.89-0.79,1.07,1.07,0,0,1,.74.29,4.7,4.7,0,0,1,1.68,3.46c0.07,2.3.14,7,2.47,8.16a0.92,0.92,0,0,1,.65.67C4066.54,800.95,4065.41,801.29,4064.88,801.29Zm-4.54-5.83a0.34,0.34,0,0,0-.14,0c-1.61.89-4,2.23-5.16,3.67a0.48,0.48,0,0,0-.1.31,0.48,0.48,0,0,0,.55.48,2.1,2.1,0,0,0,.65-0.14,10.26,10.26,0,0,0,3.7-3.19,2.58,2.58,0,0,0,.7-1A0.17,0.17,0,0,0,4060.35,795.45Z" transform="translate(-3977.33 -676.11)"/><path class="cls-1" d="M4085.16,795.36a5,5,0,0,1-3.67,1.2c-0.53,0-1.06,0-1.56,0a0.41,0.41,0,0,0-.46.36,9.2,9.2,0,0,0,.55,3,4.38,4.38,0,0,1,.53,1.51,1.24,1.24,0,0,1-1.27,1.13c-1.9,0-1.7-3.34-1.8-4.58a5.21,5.21,0,0,0-.36-1.49c-0.24-.62-2-0.53-2-1.87a1.12,1.12,0,0,1,1.3-1.22c0.19,0,.38,0,0.58,0s0.38-.07.36-0.19a26.35,26.35,0,0,1-.72-4.51,0.88,0.88,0,0,1,1-.91,1.88,1.88,0,0,1,1.92,1.54,1.25,1.25,0,0,1,0,.31,7.05,7.05,0,0,0-.26,1.87,12.84,12.84,0,0,0,.19,2.14,0.43,0.43,0,0,0,.46.41c0.6,0,1.2,0,1.78,0a5.88,5.88,0,0,0,2.16-.26,1.77,1.77,0,0,1,.91-0.41,0.89,0.89,0,0,1,.77,1A1.43,1.43,0,0,1,4085.16,795.36Z" transform="translate(-3977.33 -676.11)"/><path class="cls-1" d="M4095.17,797.59c-0.48,2.11-2,4.44-4.42,4.44a4.4,4.4,0,0,1-4.25-4.13,4.68,4.68,0,0,1,2.57-4.1,12.33,12.33,0,0,0,2-1.49,2,2,0,0,1,1.42-.67,1.45,1.45,0,0,1,1.39,1c0.5,1.25,1.34,2.71,1.34,4.06A3.78,3.78,0,0,1,4095.17,797.59Zm-2.16-2c0-.1-0.12-0.17-0.24,0a1.09,1.09,0,0,1-.72.31,5.7,5.7,0,0,1-1.18-.5,1.6,1.6,0,0,0-.79.36,2.12,2.12,0,0,0-1.1,2,1.87,1.87,0,0,0,2,2.11,2.62,2.62,0,0,0,2.35-2.66A4,4,0,0,0,4093,795.55Z" transform="translate(-3977.33 -676.11)"/><path class="cls-1" d="M4115.52,801.91a8.05,8.05,0,0,1-4,.94,8.33,8.33,0,0,1-2.66-.38c-1.9-.6-4.42-1.7-4.42-4a5.8,5.8,0,0,1,0-.67c0.36-2.38,1.75-3.46,3.67-4.68a7.33,7.33,0,0,1,3.82-1.34c1.42,0,3.34.72,3.34,2.4a2.51,2.51,0,0,1-.77,1.75c-1.42,1.39-3,1.32-4.63,2.06a5.28,5.28,0,0,1-2,.48,1.37,1.37,0,0,1-1-.31c-0.1-.1-0.19-0.07-0.19.1,0,1.49,2.09,2,3.24,2.3a8.45,8.45,0,0,0,2.21.31,16.8,16.8,0,0,0,2.66-.31l0.19,0a0.75,0.75,0,0,1,.77.79A0.68,0.68,0,0,1,4115.52,801.91Zm-3-8.06a6,6,0,0,0-.91.14,9.1,9.1,0,0,0-4.44,2.3c-0.14.22,0,.26,0.22,0.14,0.79-.26,1.58-0.38,2.42-0.58,0.6-.12,3.12-0.86,3.12-1.58A0.41,0.41,0,0,0,4112.52,793.84Z" transform="translate(-3977.33 -676.11)"/><path class="cls-1" d="M4126.92,794.42a5.41,5.41,0,0,0-2.81,1.3,0.85,0.85,0,0,0-.34.48,1,1,0,0,0,.41.58c1,0.86,2.35,1.34,3.38,2.23a1.07,1.07,0,0,1,.43.82,1.15,1.15,0,0,1-1.25,1c-1.46,0-4.2-2.59-4.56-2.59a0.77,0.77,0,0,0-.43.29c-1.13,1.1-1.58,2.71-2.66,3.86a0.94,0.94,0,0,1-.67.36,0.87,0.87,0,0,1-.74-1c0-2.14,2.66-4.63,2.66-5.11a0.74,0.74,0,0,0-.38-0.43c-0.89-.7-1.8-1.06-2.23-2.21a1,1,0,0,1-.07-0.36,1.34,1.34,0,0,1,1.34-1.22c1.37,0,2.18,2.09,3,2.09,0.6,0,2.38-2.14,4.32-2.14,0.6,0,2.09.41,2.09,1.15S4127.38,794.35,4126.92,794.42Z" transform="translate(-3977.33 -676.11)"/><path class="cls-1" d="M4132.3,790.1a3,3,0,0,1-.65.07,2.94,2.94,0,0,1-2.5-1.56,0.91,0.91,0,0,1-.17-0.5,1,1,0,0,1,1.18-.86c0.82,0,3.17.72,3.17,1.73A1.36,1.36,0,0,1,4132.3,790.1Zm0.38,11.54a1.34,1.34,0,0,1-1-.34,4.59,4.59,0,0,1-1.37-2.88c-0.07-1.22-.07-2.42-0.07-3.65v-1.63a0.78,0.78,0,0,1,.84-0.86,1.64,1.64,0,0,1,1.63,1.46c0,1.06-.31,2.09-0.31,3.12,0,2.28,1.85,3.24,1.85,3.91S4133.18,801.65,4132.68,801.65Z" transform="translate(-3977.33 -676.11)"/><path class="cls-1" d="M4145.62,795.36a5,5,0,0,1-3.67,1.2c-0.53,0-1.06,0-1.56,0a0.41,0.41,0,0,0-.46.36,9.21,9.21,0,0,0,.55,3,4.37,4.37,0,0,1,.53,1.51,1.24,1.24,0,0,1-1.27,1.13c-1.9,0-1.7-3.34-1.8-4.58a5.18,5.18,0,0,0-.36-1.49c-0.24-.62-2-0.53-2-1.87a1.12,1.12,0,0,1,1.3-1.22c0.19,0,.38,0,0.58,0s0.38-.07.36-0.19a26.35,26.35,0,0,1-.72-4.51,0.88,0.88,0,0,1,1-.91,1.88,1.88,0,0,1,1.92,1.54,1.27,1.27,0,0,1,0,.31,7.05,7.05,0,0,0-.26,1.87,12.84,12.84,0,0,0,.19,2.14,0.43,0.43,0,0,0,.46.41c0.6,0,1.2,0,1.78,0a5.88,5.88,0,0,0,2.16-.26,1.76,1.76,0,0,1,.91-0.41,0.89,0.89,0,0,1,.77,1A1.43,1.43,0,0,1,4145.62,795.36Z" transform="translate(-3977.33 -676.11)"/><path class="cls-1" d="M4163.69,795.36a5,5,0,0,1-3.67,1.2c-0.53,0-1.06,0-1.56,0a0.41,0.41,0,0,0-.46.36,9.2,9.2,0,0,0,.55,3,4.38,4.38,0,0,1,.53,1.51,1.24,1.24,0,0,1-1.27,1.13c-1.9,0-1.7-3.34-1.8-4.58a5.19,5.19,0,0,0-.36-1.49c-0.24-.62-2-0.53-2-1.87a1.12,1.12,0,0,1,1.3-1.22c0.19,0,.38,0,0.58,0s0.38-.07.36-0.19a26.4,26.4,0,0,1-.72-4.51,0.88,0.88,0,0,1,1-.91,1.88,1.88,0,0,1,1.92,1.54,1.27,1.27,0,0,1,0,.31,7.05,7.05,0,0,0-.26,1.87,12.84,12.84,0,0,0,.19,2.14,0.43,0.43,0,0,0,.46.41c0.6,0,1.2,0,1.78,0a5.88,5.88,0,0,0,2.16-.26,1.76,1.76,0,0,1,.91-0.41,0.89,0.89,0,0,1,.77,1A1.43,1.43,0,0,1,4163.69,795.36Z" transform="translate(-3977.33 -676.11)"/><path class="cls-1" d="M4175.23,802.29a0.78,0.78,0,0,1-.84-0.53l-0.14-.84a10.93,10.93,0,0,0-1-2.54c-0.43-.86-0.41-1.9-0.79-2.69a0.34,0.34,0,0,0-.29-0.22,0.26,0.26,0,0,0-.24.17c-0.17.24-.29,0.5-0.43,0.74a12.09,12.09,0,0,1-1.49,2c-0.74.84-.91,2-1.73,2.83a1.47,1.47,0,0,1-1,.36,0.88,0.88,0,0,1-1-.67c-0.07-.7-0.1-1.42-0.17-2.11-0.14-1.54-.31-3.1-0.43-4.63-0.17-1.7-.29-3.41-0.29-5.11v-0.36a13.69,13.69,0,0,1,.1-1.73,0.8,0.8,0,0,1,.91-0.74,1.64,1.64,0,0,1,1.68,1.27,0.82,0.82,0,0,1-.07.31,20,20,0,0,0-.24,3.89V792a40.36,40.36,0,0,0,.19,4.82c0.1,0.7.22,0.82,0.48,0.46,1.15-1.39,1.94-3.07,3.17-4.42a1.61,1.61,0,0,1,1.1-.65,1.31,1.31,0,0,1,1.06.84,23.94,23.94,0,0,1,1.13,3.19,29.51,29.51,0,0,0,1.68,4.15,1.51,1.51,0,0,1,.17.62A1.45,1.45,0,0,1,4175.23,802.29Z" transform="translate(-3977.33 -676.11)"/><path class="cls-1" d="M4189.66,801.91a8.05,8.05,0,0,1-4,.94,8.33,8.33,0,0,1-2.66-.38c-1.9-.6-4.42-1.7-4.42-4a5.91,5.91,0,0,1,0-.67c0.36-2.38,1.75-3.46,3.67-4.68a7.33,7.33,0,0,1,3.82-1.34c1.42,0,3.34.72,3.34,2.4a2.51,2.51,0,0,1-.77,1.75c-1.42,1.39-3,1.32-4.63,2.06a5.28,5.28,0,0,1-2,.48,1.36,1.36,0,0,1-1-.31c-0.1-.1-0.19-0.07-0.19.1,0,1.49,2.09,2,3.24,2.3a8.46,8.46,0,0,0,2.21.31,16.79,16.79,0,0,0,2.66-.31l0.19,0a0.75,0.75,0,0,1,.77.79A0.69,0.69,0,0,1,4189.66,801.91Zm-3-8.06a6,6,0,0,0-.91.14,9.1,9.1,0,0,0-4.44,2.3c-0.14.22,0,.26,0.22,0.14,0.79-.26,1.58-0.38,2.42-0.58,0.6-.12,3.12-0.86,3.12-1.58A0.41,0.41,0,0,0,4186.66,793.84Z" transform="translate(-3977.33 -676.11)"/><path class="cls-1" d="M4210.27,794.95a1.18,1.18,0,0,1-1.06-.84,0.6,0.6,0,0,0-.65-0.31,16.63,16.63,0,0,0-4.85,1.58,3.34,3.34,0,0,0-2.18,2.3,0.41,0.41,0,0,0,0,.17c0,1.27,2.35,2.38,3.36,2.59a4.81,4.81,0,0,0,1,.12c1,0,1.82-.6,2.81-0.6a0.88,0.88,0,0,1,.94.77,1.1,1.1,0,0,1-.82.89,8.51,8.51,0,0,1-3.41.94,4.55,4.55,0,0,1-1.13-.14c-2.4-.62-4.94-1.92-4.94-4.75v-0.29c0.22-2.74,2.88-3.62,5.09-4.44a19.67,19.67,0,0,1,4.82-1,1.71,1.71,0,0,1,.34,0,1.54,1.54,0,0,1,1.7,1.56C4211.28,794.06,4211,794.95,4210.27,794.95Z" transform="translate(-3977.33 -676.11)"/><path class="cls-1" d="M4221.12,797.59c-0.48,2.11-2,4.44-4.42,4.44a4.4,4.4,0,0,1-4.25-4.13,4.68,4.68,0,0,1,2.57-4.1,12.33,12.33,0,0,0,2-1.49,2,2,0,0,1,1.42-.67,1.45,1.45,0,0,1,1.39,1c0.5,1.25,1.34,2.71,1.34,4.06A3.81,3.81,0,0,1,4221.12,797.59Zm-2.16-2c0-.1-0.12-0.17-0.24,0a1.09,1.09,0,0,1-.72.31,5.69,5.69,0,0,1-1.18-.5,1.6,1.6,0,0,0-.79.36,2.12,2.12,0,0,0-1.1,2,1.87,1.87,0,0,0,2,2.11,2.62,2.62,0,0,0,2.35-2.66A4,4,0,0,0,4219,795.55Z" transform="translate(-3977.33 -676.11)"/><path class="cls-1" d="M4233.33,802.75c-1.51,0-2.11-4.27-2.64-4.27a0.38,0.38,0,0,0-.24.26c-0.79,1.39-1.54,2.9-3.38,2.9-2.88,0-3.38-3.07-3.38-5.35a20.61,20.61,0,0,1,.43-4.2,0.92,0.92,0,0,1,1-.6,1.22,1.22,0,0,1,1.37,1c0,0.1,0,.17,0,0.24a12.56,12.56,0,0,0-.36,2.83c0,0.67.24,3.55,1.15,3.55a1.21,1.21,0,0,0,.82-0.55,5.69,5.69,0,0,0,1.49-3.62c0-.19,0-0.38,0-0.58a1.27,1.27,0,0,1,1.37-1,1.22,1.22,0,0,1,1.25.89c0.43,1.42,1.22,5.16,2.28,6a1.26,1.26,0,0,1,.53,1A1.67,1.67,0,0,1,4233.33,802.75Z" transform="translate(-3977.33 -676.11)"/><path class="cls-1" d="M4243,795.69c-0.34,0-.62-0.22-1-0.22a0.65,0.65,0,0,0-.53.34c-0.94,1.37-.7,3.14-1.34,4.63a1.24,1.24,0,0,1-1.15.74,1.06,1.06,0,0,1-1.08-.84c-0.26-1-.53-1.92-0.84-2.88s-1.37-2.18-1.37-3.26a1,1,0,0,1,1.13-1.13,1.33,1.33,0,0,1,.72.22,2.51,2.51,0,0,1,1.25,2c0,0.26.07,0.55,0.14,0.82a0.16,0.16,0,0,0,.14.14,0.28,0.28,0,0,0,.22-0.22c0.62-1.2,0-2.52,1.85-3A3.9,3.9,0,0,1,4242,793c0.89,0,2,.41,2,1.44A1.09,1.09,0,0,1,4243,795.69Z" transform="translate(-3977.33 -676.11)"/><path class="cls-1" d="M4253,793.84a1.87,1.87,0,0,1-1.58,1.08c-0.77,0-.36-1.15-0.77-1.15-0.14,0-1.3.65-1.78,0.86a0.28,0.28,0,0,0-.22.24,0.24,0.24,0,0,0,.1.17c0.34,0.36.7,0.67,1,1a28,28,0,0,1,2.45,2.62,2.24,2.24,0,0,1,.48,1.34,1.92,1.92,0,0,1-.67,1.46,8.45,8.45,0,0,1-4.51,1.63,2,2,0,0,1-1.06-.24,1.52,1.52,0,0,1-.82-1.22,1,1,0,0,1,1.08-1c0.43,0,.82.26,1.27,0.26s2-.41,2-1a1.93,1.93,0,0,0-.43-0.82,10.35,10.35,0,0,0-2.76-2.45,2.39,2.39,0,0,1-1.18-2.09,1.64,1.64,0,0,1,1-1.61c1.1-.53,3.12-1.7,4.3-1.7a1.59,1.59,0,0,1,.34,0,2,2,0,0,1,1.78,1.9A3,3,0,0,1,4253,793.84Z" transform="translate(-3977.33 -676.11)"/><path class="cls-1" d="M4266,801.91a8.05,8.05,0,0,1-4,.94,8.34,8.34,0,0,1-2.66-.38c-1.9-.6-4.42-1.7-4.42-4a5.91,5.91,0,0,1,0-.67c0.36-2.38,1.75-3.46,3.67-4.68a7.33,7.33,0,0,1,3.82-1.34c1.42,0,3.34.72,3.34,2.4a2.51,2.51,0,0,1-.77,1.75c-1.42,1.39-3,1.32-4.63,2.06a5.28,5.28,0,0,1-2,.48,1.36,1.36,0,0,1-1-.31c-0.1-.1-0.19-0.07-0.19.1,0,1.49,2.09,2,3.24,2.3a8.46,8.46,0,0,0,2.21.31,16.79,16.79,0,0,0,2.66-.31l0.19,0a0.75,0.75,0,0,1,.77.79A0.69,0.69,0,0,1,4266,801.91Zm-3-8.06a6,6,0,0,0-.91.14,9.1,9.1,0,0,0-4.44,2.3c-0.14.22,0,.26,0.22,0.14,0.79-.26,1.58-0.38,2.42-0.58,0.6-.12,3.12-0.86,3.12-1.58A0.41,0.41,0,0,0,4263,793.84Z" transform="translate(-3977.33 -676.11)"/><path class="cls-1" d="M4269,804.17a14.83,14.83,0,0,1-1.54,1.46,1,1,0,0,1-.67.29,0.48,0.48,0,0,1-.55-0.46,1.06,1.06,0,0,1,.34-0.67c0.38-.5.82-1,1.22-1.46,1.87-2.35,3.24-4.73,3.24-7.85a13.2,13.2,0,0,0-.12-1.7,10.48,10.48,0,0,0-2.28-5.5c-0.34-.41-0.7-0.79-1.06-1.18a0.75,0.75,0,0,1-.22-0.5,0.86,0.86,0,0,1,.86-0.77,0.67,0.67,0,0,1,.43.14c3,2.28,4.08,5.59,4.08,9.22A12.64,12.64,0,0,1,4269,804.17Z" transform="translate(-3977.33 -676.11)"/><path class="cls-1" d="M4254.45,704.07a0.77,0.77,0,0,0,.95.67c3.63-1,6.42-2.35,9.37-3.32,1.18-.39,32.92-13.59,34.34-14.18,3.09-1.23,6.26-2.81,8.36-3.77a14.75,14.75,0,0,1-3,3.82,14.51,14.51,0,0,0-2,1.85,2.09,2.09,0,0,0-.54,2c0.35,1,1.4,2.16,2.22,1.9a3.75,3.75,0,0,0,1.1-1.37,26.85,26.85,0,0,1,1.72-2.32,80.11,80.11,0,0,0,6-8.52c0.51-.82.86-1.4,0.69-1.87a2.46,2.46,0,0,0-1.61-1.09,23.66,23.66,0,0,0-9.25-1.44,23.63,23.63,0,0,1-4-.27,2.9,2.9,0,0,0-1.23,0,2.59,2.59,0,0,0-1.59,2.91,0.72,0.72,0,0,0,.81.44c0.88-.07,2-0.21,3.32-0.37a17.93,17.93,0,0,1,7,.42l0,0a40.45,40.45,0,0,1-7.6,4.08c-1.26.59-32.91,13.91-34,14.29-2.17.71-4.46,1.79-6.59,2.49a20.22,20.22,0,0,0-3.81,1.7A1.66,1.66,0,0,0,4254.45,704.07Z" transform="translate(-3977.33 -676.11)"/></svg>