<svg id="Interactive_elements" data-name="Interactive elements" xmlns="http://www.w3.org/2000/svg" viewBox="0 0 313.85 150.56"><defs><style>.cls-1{fill:#e8f3fc;}.cls-2{fill:#2e8bbd;}.cls-3{fill:#6cc5f5;}</style></defs><title>button_linkedin</title><path class="cls-1" d="M3000.21,6269.1H2715.39c-8,0-14.52,6.52-14.52,12.78v125c0,6.26,6.53,12.78,14.52,12.78h284.82c8,0,14.52-6.52,14.52-12.78v-125C3014.72,6275.63,3008.19,6269.1,3000.21,6269.1Z" transform="translate(-2700.87 -6269.1)"/><path class="cls-2" d="M2763.55,6389.14l-0.24-1.34h0.1c1.85,0,2.23-.84,2.23-2.71v-16.87h2.28v17.57c0,2.16-1.22,3.36-4,3.36h-0.38Z" transform="translate(-2700.87 -6269.1)"/><path class="cls-2" d="M2770.27,6379.13c0-3.41,2.14-6.12,5.83-6.12s5.83,2.71,5.83,6.12-2.16,6.12-5.83,6.12S2770.27,6382.54,2770.27,6379.13Zm2.21,0c0,2.64,1.3,4.2,3.62,4.2s3.62-1.56,3.62-4.2-1.3-4.2-3.62-4.2S2772.48,6376.49,2772.48,6379.13Z" transform="translate(-2700.87 -6269.1)"/><path class="cls-2" d="M2784.17,6370.61v-2.4h2.16v2.4h-2.16Zm0,14.4v-11.76h2.16V6385h-2.16Z" transform="translate(-2700.87 -6269.1)"/><path class="cls-2" d="M2797.71,6385v-6.48c0-2.5-.84-3.6-3.07-3.6a3.56,3.56,0,0,0-3.22,1.54V6385h-2.16v-11.76h1.68l0.24,1.25a5.48,5.48,0,0,1,3.89-1.49c3.43,0,4.8,2.14,4.8,5.52V6385h-2.16Z" transform="translate(-2700.87 -6269.1)"/><path class="cls-2" d="M2815.8,6385l-0.24-1.3a3.64,3.64,0,0,1-3.26,1.54c-2.76,0-4.34-1.63-4.34-5.16v-6.84h2.16v6.24c0,2.5.79,3.84,2.74,3.84a3.07,3.07,0,0,0,2.71-1.34v-8.74h2.16V6385h-1.92Z" transform="translate(-2700.87 -6269.1)"/><path class="cls-2" d="M2820,6384.22l0.26-2.09a5.85,5.85,0,0,0,3.67,1.2c1.51,0,2.35-.53,2.35-1.46,0-1.22-1.39-1.68-2.35-1.94-1.61-.43-3.7-1-3.7-3.38,0-1.8,1.2-3.53,4.42-3.53a6.51,6.51,0,0,1,3.19.77l-0.26,2a4.25,4.25,0,0,0-2.88-1c-1.34,0-2.28.48-2.28,1.58s0.89,1.39,2.74,1.94c1.15,0.34,3.36,1.06,3.36,3.5,0,1.56-.89,3.5-4.49,3.5A7.35,7.35,0,0,1,2820,6384.22Z" transform="translate(-2700.87 -6269.1)"/><path class="cls-2" d="M2835.29,6379.13c0-3.41,2.14-6.12,5.83-6.12s5.83,2.71,5.83,6.12-2.16,6.12-5.83,6.12S2835.29,6382.54,2835.29,6379.13Zm2.21,0c0,2.64,1.3,4.2,3.62,4.2s3.62-1.56,3.62-4.2-1.3-4.2-3.62-4.2S2837.49,6376.49,2837.49,6379.13Z" transform="translate(-2700.87 -6269.1)"/><path class="cls-2" d="M2857.63,6385v-6.48c0-2.5-.84-3.6-3.07-3.6a3.56,3.56,0,0,0-3.22,1.54V6385h-2.16v-11.76h1.68l0.24,1.25A5.48,5.48,0,0,1,2855,6373c3.43,0,4.8,2.14,4.8,5.52V6385h-2.16Z" transform="translate(-2700.87 -6269.1)"/><path class="cls-2" d="M2868.45,6385v-16.8h2.28v14.74h7.71V6385h-10Z" transform="translate(-2700.87 -6269.1)"/><path class="cls-2" d="M2880,6370.61v-2.4h2.16v2.4H2880Zm0,14.4v-11.76h2.16V6385H2880Z" transform="translate(-2700.87 -6269.1)"/><path class="cls-2" d="M2893.56,6385v-6.48c0-2.5-.84-3.6-3.07-3.6a3.56,3.56,0,0,0-3.22,1.54V6385h-2.16v-11.76h1.68l0.24,1.25a5.48,5.48,0,0,1,3.89-1.49c3.43,0,4.8,2.14,4.8,5.52V6385h-2.16Z" transform="translate(-2700.87 -6269.1)"/><path class="cls-2" d="M2898.5,6385v-18h2.16v11.54l4.32-5.3h2.64l-4.85,5.42,5,6.34h-2.64l-4.44-6v6h-2.16Z" transform="translate(-2700.87 -6269.1)"/><path class="cls-2" d="M2910.24,6379.13c0.31,3.26,2.18,4.2,4.42,4.2a8.47,8.47,0,0,0,3.38-.7l0.29,1.7a9.4,9.4,0,0,1-3.94.91A5.94,5.94,0,0,1,2908,6379c0-3.29,2.11-6,5.76-6a4.7,4.7,0,0,1,5.06,5,6.73,6.73,0,0,1-.1,1.15h-8.52Zm0.19-1.49h6.19c0-1.66-.91-2.71-2.88-2.71A3.12,3.12,0,0,0,2910.43,6377.64Z" transform="translate(-2700.87 -6269.1)"/><path class="cls-2" d="M2929.53,6385l-0.24-1.49a5,5,0,0,1-3.6,1.73c-3,0-5.35-2.69-5.35-6.12,0-3.22,2.06-6.12,5.35-6.12a4.59,4.59,0,0,1,3.6,1.49V6367h2.16v18h-1.92Zm-7-5.88c0,2.3,1.25,4.2,3.31,4.2,1.73,0,3.67-1.18,3.67-4.13s-1.94-4.27-3.67-4.27C2923.8,6374.93,2922.55,6376.73,2922.55,6379.13Z" transform="translate(-2700.87 -6269.1)"/><path class="cls-2" d="M2934.48,6385v-16.8h2.28V6385h-2.28Z" transform="translate(-2700.87 -6269.1)"/><path class="cls-2" d="M2948.38,6385v-6.48c0-2.5-.84-3.6-3.07-3.6a3.56,3.56,0,0,0-3.22,1.54V6385h-2.16v-11.76h1.68l0.24,1.25a5.48,5.48,0,0,1,3.89-1.49c3.43,0,4.8,2.14,4.8,5.52V6385h-2.16Z" transform="translate(-2700.87 -6269.1)"/><path class="cls-3" d="M2879.2,6326.51v15.82H2870v-14.76c0-3.71-1.33-6.24-4.65-6.24a5,5,0,0,0-4.71,3.35,6.29,6.29,0,0,0-.3,2.24v15.41h-9.18s0.12-25,0-27.59h9.18v3.91l-0.06.09h0.06v-0.09a9.11,9.11,0,0,1,8.27-4.56c6,0,10.56,3.94,10.56,12.42h0Zm-37.6-25.07c-3.14,0-5.19,2.06-5.19,4.77a4.75,4.75,0,0,0,5.07,4.77h0.06c3.2,0,5.19-2.12,5.19-4.77a4.77,4.77,0,0,0-5.13-4.77h0Zm-4.65,40.89h9.17v-27.59h-9.17v27.59Zm0,0" transform="translate(-2700.87 -6269.1)"/></svg>