<svg id="Interactive_elements" data-name="Interactive elements" xmlns="http://www.w3.org/2000/svg" viewBox="0 0 313.85 150.56"><defs><style>.cls-1{fill:#e8f3fc;}.cls-2{fill:#2e8bbd;}.cls-3{fill:#ffca00;}.cls-4{fill:#fff;}</style></defs><title>button_question</title><path class="cls-1" d="M2661.88,6269.1H2377.06c-8,0-14.52,6.52-14.52,12.78v125c0,6.26,6.53,12.78,14.52,12.78h284.82c8,0,14.52-6.52,14.52-12.78v-125C2676.39,6275.63,2669.86,6269.1,2661.88,6269.1Z" transform="translate(-2362.54 -6269.1)"/><path class="cls-2" d="M2444.86,6373.07l-1.61-4.54h-6.43l-1.61,4.54h-2.4l6-16.8h2.4l6,16.8h-2.4Zm-4.82-13.61-2.5,7h5Z" transform="translate(-2362.54 -6269.1)"/><path class="cls-2" d="M2448.19,6372.27l0.26-2.09a5.85,5.85,0,0,0,3.67,1.2c1.51,0,2.35-.53,2.35-1.46,0-1.22-1.39-1.68-2.35-1.94-1.61-.43-3.7-1-3.7-3.38,0-1.8,1.2-3.53,4.42-3.53a6.51,6.51,0,0,1,3.19.77l-0.26,2a4.25,4.25,0,0,0-2.88-1c-1.34,0-2.28.48-2.28,1.58s0.89,1.39,2.74,1.94c1.15,0.34,3.36,1.06,3.36,3.5,0,1.56-.89,3.5-4.49,3.5A7.35,7.35,0,0,1,2448.19,6372.27Z" transform="translate(-2362.54 -6269.1)"/><path class="cls-2" d="M2458.8,6373.07v-18H2461v11.54l4.32-5.3h2.64l-4.85,5.42,5,6.34h-2.64l-4.44-6v6h-2.16Z" transform="translate(-2362.54 -6269.1)"/><path class="cls-2" d="M2482.7,6373.07l-0.24-1.3a3.64,3.64,0,0,1-3.26,1.54c-2.76,0-4.34-1.63-4.34-5.16v-6.84H2477v6.24c0,2.5.79,3.84,2.74,3.84a3.07,3.07,0,0,0,2.71-1.34v-8.74h2.16v11.76h-1.92Z" transform="translate(-2362.54 -6269.1)"/><path class="cls-2" d="M2486.85,6372.27l0.26-2.09a5.85,5.85,0,0,0,3.67,1.2c1.51,0,2.35-.53,2.35-1.46,0-1.22-1.39-1.68-2.35-1.94-1.61-.43-3.7-1-3.7-3.38,0-1.8,1.2-3.53,4.42-3.53a6.51,6.51,0,0,1,3.19.77l-0.26,2a4.25,4.25,0,0,0-2.88-1c-1.34,0-2.28.48-2.28,1.58s0.89,1.39,2.74,1.94c1.15,0.34,3.36,1.06,3.36,3.5,0,1.56-.89,3.5-4.49,3.5A7.35,7.35,0,0,1,2486.85,6372.27Z" transform="translate(-2362.54 -6269.1)"/><path class="cls-2" d="M2512.41,6373.31h-0.17c-2.09,0-2.54-.62-3-1.73a4.65,4.65,0,0,1-3.6,1.73,3.36,3.36,0,0,1-3.62-3.41c0-3.31,4-4.15,7-4.2,0-2.23-.91-2.71-2.57-2.71a5.12,5.12,0,0,0-3.1,1.06l-0.31-1.75a6.78,6.78,0,0,1,4-1.22c3,0,4.15,1.39,4.15,5.64v2.4c0,1.68.1,2.47,1.34,2.47h0.22Zm-3.38-6.12c-3.43.12-4.82,0.84-4.82,2.59a1.63,1.63,0,0,0,1.82,1.8,3.81,3.81,0,0,0,3-1.58v-2.81Z" transform="translate(-2362.54 -6269.1)"/><path class="cls-2" d="M2519.13,6367.19c0-3.22,1.94-6.12,5.23-6.12a4.58,4.58,0,0,1,4,1.92l0.24-1.68h1.68v17.57h-2.16v-7.3a5.17,5.17,0,0,1-3.7,1.73C2520.91,6373.31,2519.13,6370.62,2519.13,6367.19Zm2.21,0c0,2.31,1.22,4.2,3.29,4.2,1.73,0,3.58-1.25,3.58-4.2s-1.85-4.2-3.58-4.2C2522.56,6363,2521.34,6364.79,2521.34,6367.19Z" transform="translate(-2362.54 -6269.1)"/><path class="cls-2" d="M2540.9,6373.07l-0.24-1.3a3.64,3.64,0,0,1-3.26,1.54c-2.76,0-4.34-1.63-4.34-5.16v-6.84h2.16v6.24c0,2.5.79,3.84,2.74,3.84a3.07,3.07,0,0,0,2.71-1.34v-8.74h2.16v11.76h-1.92Z" transform="translate(-2362.54 -6269.1)"/><path class="cls-2" d="M2547.23,6367.19c0.31,3.27,2.18,4.2,4.42,4.2a8.47,8.47,0,0,0,3.38-.7l0.29,1.7a9.4,9.4,0,0,1-3.94.91,5.94,5.94,0,0,1-6.36-6.22c0-3.29,2.11-6,5.76-6a4.7,4.7,0,0,1,5.06,5,6.73,6.73,0,0,1-.1,1.15h-8.52Zm0.19-1.49h6.19c0-1.66-.91-2.71-2.88-2.71A3.12,3.12,0,0,0,2547.43,6365.7Z" transform="translate(-2362.54 -6269.1)"/><path class="cls-2" d="M2557.34,6372.27l0.26-2.09a5.85,5.85,0,0,0,3.67,1.2c1.51,0,2.35-.53,2.35-1.46,0-1.22-1.39-1.68-2.35-1.94-1.61-.43-3.7-1-3.7-3.38,0-1.8,1.2-3.53,4.42-3.53a6.51,6.51,0,0,1,3.19.77l-0.26,2a4.25,4.25,0,0,0-2.88-1c-1.34,0-2.28.48-2.28,1.58s0.89,1.39,2.74,1.94c1.15,0.34,3.36,1.06,3.36,3.5,0,1.56-.89,3.5-4.49,3.5A7.35,7.35,0,0,1,2557.34,6372.27Z" transform="translate(-2362.54 -6269.1)"/><path class="cls-2" d="M2574,6373.31H2572a2.72,2.72,0,0,1-3.07-2.81V6363h-2l0.19-1.68H2569v-2.9l2.16-.22v3.12h3.1V6363h-3.1v6.19c0,2.26.14,2.4,2.47,2.4h0.55Z" transform="translate(-2362.54 -6269.1)"/><path class="cls-2" d="M2576.06,6358.66v-2.4h2.16v2.4h-2.16Zm0,14.4v-11.76h2.16v11.76h-2.16Z" transform="translate(-2362.54 -6269.1)"/><path class="cls-2" d="M2580.45,6367.19c0-3.41,2.14-6.12,5.83-6.12s5.83,2.71,5.83,6.12-2.16,6.12-5.83,6.12S2580.45,6370.59,2580.45,6367.19Zm2.21,0c0,2.64,1.3,4.2,3.62,4.2s3.62-1.56,3.62-4.2-1.3-4.2-3.62-4.2S2582.66,6364.55,2582.66,6367.19Z" transform="translate(-2362.54 -6269.1)"/><path class="cls-2" d="M2602.79,6373.07v-6.48c0-2.5-.84-3.6-3.07-3.6a3.56,3.56,0,0,0-3.22,1.54v8.55h-2.16v-11.76H2596l0.24,1.25a5.48,5.48,0,0,1,3.89-1.49c3.43,0,4.8,2.14,4.8,5.52v6.48h-2.16Z" transform="translate(-2362.54 -6269.1)"/><path class="cls-2" d="M2444.56,6403.31h-0.17c-2.09,0-2.54-.62-3-1.73a4.65,4.65,0,0,1-3.6,1.73,3.36,3.36,0,0,1-3.62-3.41c0-3.31,4-4.15,7-4.2,0-2.23-.91-2.71-2.57-2.71a5.12,5.12,0,0,0-3.1,1.06l-0.31-1.75a6.78,6.78,0,0,1,4-1.22c3,0,4.15,1.39,4.15,5.64v2.4c0,1.68.1,2.47,1.34,2.47h0.22Zm-3.38-6.12c-3.43.12-4.82,0.84-4.82,2.59a1.63,1.63,0,0,0,1.82,1.8,3.81,3.81,0,0,0,3-1.58v-2.81Z" transform="translate(-2362.54 -6269.1)"/><path class="cls-2" d="M2455,6403.07v-6.48c0-2.5-.84-3.6-3.07-3.6a3.56,3.56,0,0,0-3.22,1.54v8.54h-2.16v-11.76h1.68l0.24,1.25a5.48,5.48,0,0,1,3.89-1.49c3.43,0,4.8,2.14,4.8,5.52v6.48H2455Z" transform="translate(-2362.54 -6269.1)"/><path class="cls-2" d="M2468.46,6403.07l-0.24-1.49a5,5,0,0,1-3.6,1.73c-3,0-5.35-2.69-5.35-6.12,0-3.22,2.06-6.12,5.35-6.12a4.59,4.59,0,0,1,3.6,1.49v-7.49h2.16v18h-1.92Zm-7-5.88c0,2.3,1.25,4.2,3.31,4.2,1.73,0,3.67-1.18,3.67-4.13s-1.94-4.27-3.67-4.27C2462.72,6393,2461.47,6394.79,2461.47,6397.19Z" transform="translate(-2362.54 -6269.1)"/><path class="cls-2" d="M2478,6402.27l0.26-2.09a5.85,5.85,0,0,0,3.67,1.2c1.51,0,2.35-.53,2.35-1.46,0-1.22-1.39-1.68-2.35-1.94-1.61-.43-3.7-1-3.7-3.38,0-1.8,1.2-3.53,4.42-3.53a6.51,6.51,0,0,1,3.19.77l-0.26,2a4.25,4.25,0,0,0-2.88-1c-1.34,0-2.28.48-2.28,1.58s0.89,1.39,2.74,1.94c1.15,0.34,3.36,1.06,3.36,3.5,0,1.56-.89,3.5-4.49,3.5A7.35,7.35,0,0,1,2478,6402.27Z" transform="translate(-2362.54 -6269.1)"/><path class="cls-2" d="M2494.62,6403.31h-1.94a2.72,2.72,0,0,1-3.07-2.81V6393h-2l0.19-1.68h1.82v-2.9l2.16-.22v3.12h3.1V6393h-3.1v6.19c0,2.26.14,2.4,2.47,2.4h0.55Z" transform="translate(-2362.54 -6269.1)"/><path class="cls-2" d="M2506.23,6403.31h-0.17c-2.09,0-2.54-.62-3-1.73a4.65,4.65,0,0,1-3.6,1.73,3.36,3.36,0,0,1-3.62-3.41c0-3.31,4-4.15,7-4.2,0-2.23-.91-2.71-2.57-2.71a5.12,5.12,0,0,0-3.1,1.06l-0.31-1.75a6.78,6.78,0,0,1,4-1.22c3,0,4.15,1.39,4.15,5.64v2.4c0,1.68.1,2.47,1.34,2.47h0.22Zm-3.38-6.12c-3.43.12-4.82,0.84-4.82,2.59a1.63,1.63,0,0,0,1.82,1.8,3.81,3.81,0,0,0,3-1.58v-2.81Z" transform="translate(-2362.54 -6269.1)"/><path class="cls-2" d="M2511,6408.88h-2.4l2.71-6.34-4.9-11.23h2.4l3.67,8.74,3.31-8.74h2.4Z" transform="translate(-2362.54 -6269.1)"/><path class="cls-2" d="M2525.26,6388.67v-2.4h2.16v2.4h-2.16Zm0,14.4v-11.76h2.16v11.76h-2.16Z" transform="translate(-2362.54 -6269.1)"/><path class="cls-2" d="M2538.8,6403.07v-6.48c0-2.5-.84-3.6-3.07-3.6a3.56,3.56,0,0,0-3.22,1.54v8.54h-2.16v-11.76H2532l0.24,1.25a5.48,5.48,0,0,1,3.89-1.49c3.43,0,4.8,2.14,4.8,5.52v6.48h-2.16Z" transform="translate(-2362.54 -6269.1)"/><path class="cls-2" d="M2555.17,6403.31h-1.94a2.72,2.72,0,0,1-3.07-2.81V6393h-2l0.19-1.68h1.82v-2.9l2.16-.22v3.12h3.1V6393h-3.1v6.19c0,2.26.14,2.4,2.47,2.4h0.55Z" transform="translate(-2362.54 -6269.1)"/><path class="cls-2" d="M2556.46,6397.19c0-3.41,2.14-6.12,5.83-6.12s5.83,2.71,5.83,6.12-2.16,6.12-5.83,6.12S2556.46,6400.59,2556.46,6397.19Zm2.21,0c0,2.64,1.3,4.2,3.62,4.2s3.62-1.56,3.62-4.2-1.3-4.2-3.62-4.2S2558.67,6394.55,2558.67,6397.19Z" transform="translate(-2362.54 -6269.1)"/><path class="cls-2" d="M2578.09,6403.07l-0.24-1.3a3.64,3.64,0,0,1-3.26,1.54c-2.76,0-4.34-1.63-4.34-5.16v-6.84h2.16v6.24c0,2.5.79,3.84,2.74,3.84a3.07,3.07,0,0,0,2.71-1.34v-8.74H2580v11.76h-1.92Z" transform="translate(-2362.54 -6269.1)"/><path class="cls-2" d="M2582.26,6397.16c0-3.43,1.92-6.1,5.83-6.1a7.61,7.61,0,0,1,3.62.7l-0.34,1.94a6.87,6.87,0,0,0-3-.72c-2.62,0-3.86,1.56-3.86,4.18s1.25,4.25,3.86,4.25a7,7,0,0,0,3.07-.72l0.29,1.73a6,6,0,0,1-3.58.89C2584.21,6403.31,2582.26,6400.45,2582.26,6397.16Z" transform="translate(-2362.54 -6269.1)"/><path class="cls-2" d="M2601.87,6403.07v-6.29c0-2.79-.72-3.79-2.81-3.79a3.29,3.29,0,0,0-3.07,1.54v8.54h-2.18v-18H2596v7.51a4,4,0,0,1,3.41-1.51c3.38,0,4.63,2.33,4.63,5.71v6.29h-2.16Z" transform="translate(-2362.54 -6269.1)"/><circle class="cls-3" cx="156.93" cy="48.13" r="27.22"/><path class="cls-4" d="M2511.42,6305.67a14.33,14.33,0,0,1,1.54-1.18,11.07,11.07,0,0,1,1.81-1,11.29,11.29,0,0,1,2.11-.65,12,12,0,0,1,2.47-.24,10.29,10.29,0,0,1,3.28.5,7.4,7.4,0,0,1,2.54,1.42,6.33,6.33,0,0,1,1.64,2.23,7.12,7.12,0,0,1,.58,2.92,7.39,7.39,0,0,1-.46,2.72,7.51,7.51,0,0,1-1.15,2,9.12,9.12,0,0,1-1.5,1.47l-1.53,1.17a12,12,0,0,0-1.25,1.08,2.12,2.12,0,0,0-.63,1.19l-0.48,3h-3.5l-0.35-3.38a0.92,0.92,0,0,1,0-.18v-0.18a2.76,2.76,0,0,1,.46-1.58,6.47,6.47,0,0,1,1.14-1.26q0.68-.59,1.47-1.15a13.28,13.28,0,0,0,1.47-1.21,6.11,6.11,0,0,0,1.14-1.48,4,4,0,0,0,.46-1.95,3.09,3.09,0,0,0-.28-1.34,3,3,0,0,0-.78-1,3.51,3.51,0,0,0-1.19-.65,4.81,4.81,0,0,0-1.5-.23,6.69,6.69,0,0,0-2,.26,7.39,7.39,0,0,0-1.39.58q-0.57.32-1,.58a1.32,1.32,0,0,1-.7.26,1.13,1.13,0,0,1-1.08-.62Zm3.92,24.43a3.18,3.18,0,0,1,.24-1.22,2.91,2.91,0,0,1,.66-1,3.25,3.25,0,0,1,1-.66,3.12,3.12,0,0,1,1.24-.25,3.07,3.07,0,0,1,1.22.25,3,3,0,0,1,1.66,1.66,3.16,3.16,0,0,1,0,2.46,3.17,3.17,0,0,1-.66,1,3,3,0,0,1-1,.65,3.2,3.2,0,0,1-1.22.24,3.25,3.25,0,0,1-1.24-.24,3.1,3.1,0,0,1-1-.65,2.94,2.94,0,0,1-.66-1A3.16,3.16,0,0,1,2515.34,6330.1Z" transform="translate(-2362.54 -6269.1)"/></svg>