<svg id="Interactive_elements" data-name="Interactive elements" xmlns="http://www.w3.org/2000/svg" viewBox="0 0 43.73 43.73"><defs><style>.cls-1{fill:#fe961c;}</style></defs><title>icon_blog</title><path class="cls-1" d="M2533.76,6118.07h-28.58a7.58,7.58,0,0,0-7.58,7.58v28.58a7.58,7.58,0,0,0,7.58,7.58h28.58a7.58,7.58,0,0,0,7.58-7.58v-28.58A7.58,7.58,0,0,0,2533.76,6118.07Zm-24.08,35.14a3.39,3.39,0,1,1,3.39-3.38A3.38,3.38,0,0,1,2509.68,6153.21Zm9.79,0a12.39,12.39,0,0,0-3.84-8.36,12.18,12.18,0,0,0-8.3-3.88v-4.72c8.82,0.18,16.69,8.18,16.87,17h-4.73Zm8.78-.1a20.85,20.85,0,0,0-20.83-20.83v-4.73a25.55,25.55,0,0,1,25.56,25.56h-4.73Z" transform="translate(-2497.6 -6118.07)"/></svg>