<svg id="Interactive_elements" data-name="Interactive elements" xmlns="http://www.w3.org/2000/svg" viewBox="0 0 54.45 54.45"><defs><style>.cls-1{fill:#ffca00;}.cls-2{fill:#fff;}</style></defs><title>icon_question</title><circle class="cls-1" cx="27.22" cy="27.22" r="27.22"/><path class="cls-2" d="M2511.42,6305.67a14.33,14.33,0,0,1,1.54-1.18,11.07,11.07,0,0,1,1.81-1,11.29,11.29,0,0,1,2.11-.65,12,12,0,0,1,2.47-.24,10.29,10.29,0,0,1,3.28.5,7.4,7.4,0,0,1,2.54,1.42,6.33,6.33,0,0,1,1.64,2.23,7.12,7.12,0,0,1,.58,2.92,7.39,7.39,0,0,1-.46,2.72,7.51,7.51,0,0,1-1.15,2,9.12,9.12,0,0,1-1.5,1.47l-1.53,1.17a12,12,0,0,0-1.25,1.08,2.12,2.12,0,0,0-.63,1.19l-0.48,3h-3.5l-0.35-3.38a0.92,0.92,0,0,1,0-.18v-0.18a2.76,2.76,0,0,1,.46-1.58,6.47,6.47,0,0,1,1.14-1.26q0.68-.59,1.47-1.15a13.28,13.28,0,0,0,1.47-1.21,6.11,6.11,0,0,0,1.14-1.48,4,4,0,0,0,.46-1.95,3.09,3.09,0,0,0-.28-1.34,3,3,0,0,0-.78-1,3.51,3.51,0,0,0-1.19-.65,4.81,4.81,0,0,0-1.5-.23,6.69,6.69,0,0,0-2,.26,7.39,7.39,0,0,0-1.39.58q-0.57.32-1,.58a1.32,1.32,0,0,1-.7.26,1.13,1.13,0,0,1-1.08-.62Zm3.92,24.43a3.18,3.18,0,0,1,.24-1.22,2.91,2.91,0,0,1,.66-1,3.25,3.25,0,0,1,1-.66,3.12,3.12,0,0,1,1.24-.25,3.07,3.07,0,0,1,1.22.25,3,3,0,0,1,1.66,1.66,3.16,3.16,0,0,1,0,2.46,3.17,3.17,0,0,1-.66,1,3,3,0,0,1-1,.65,3.2,3.2,0,0,1-1.22.24,3.25,3.25,0,0,1-1.24-.24,3.1,3.1,0,0,1-1-.65,2.94,2.94,0,0,1-.66-1A3.16,3.16,0,0,1,2515.34,6330.1Z" transform="translate(-2492.25 -6290.02)"/></svg>