<svg id="Interactive_elements" data-name="Interactive elements" xmlns="http://www.w3.org/2000/svg" viewBox="0 0 423.92 43.13"><defs><style>.cls-1{fill:#abd1e5;fill-rule:evenodd;}.cls-2{fill:#fff;}.cls-3{fill:#a1bfd0;}</style></defs><title>flag-log-header_inactive</title><path class="cls-1" d="M8155,14856.8a15.29,15.29,0,0,0-15.23-14.85H7746.41a15.29,15.29,0,0,0-15.23,14.85h-0.06v28.27H8155v-28.27h0Z" transform="translate(-7731.12 -14841.96)"/><path class="cls-2" d="M7808.29,14858.72v3H7813v2.48h-4.68v6.06h-2.56v-14h8.62v2.48h-6.06Z" transform="translate(-7731.12 -14841.96)"/><path class="cls-2" d="M7819.63,14870.44h-0.9a2.39,2.39,0,0,1-2.56-2.62v-12.58h2.48v11.56c0,1.6.22,1.6,1.2,1.6Z" transform="translate(-7731.12 -14841.96)"/><path class="cls-2" d="M7830.35,14870.44h-0.9a2.37,2.37,0,0,1-2.24-1.16,4.2,4.2,0,0,1-3.06,1.16,2.81,2.81,0,0,1-2.9-3c0-2.82,3.74-3.52,5.62-3.58a1.5,1.5,0,0,0-1.8-1.64,5.93,5.93,0,0,0-2.74.76l-0.22-2a8.25,8.25,0,0,1,3.64-.88c2.24,0,3.62,1.12,3.62,4v2.7c0,1.5.16,1.6,0.88,1.6h0.32Zm-3.46-4.9c-1.4.06-3,.62-3,1.8a1.1,1.1,0,0,0,1.34,1.2,2.7,2.7,0,0,0,1.7-.72v-2.28Z" transform="translate(-7731.12 -14841.96)"/><path class="cls-2" d="M7831.57,14872.28a2.55,2.55,0,0,1,1.64-2.24,1.65,1.65,0,0,1-.9-1.44,1.47,1.47,0,0,1,1-1.36,3.88,3.88,0,0,1-1.54-3.22,3.8,3.8,0,0,1,4.06-3.94,4.25,4.25,0,0,1,2.28.6,4.83,4.83,0,0,1,2.14-.44h0.64l-0.16,1.56h-0.9c-0.12,0-.34,0-0.56,0a4.08,4.08,0,0,1,.6,2.2,3.78,3.78,0,0,1-4,3.94,5.92,5.92,0,0,1-1.06-.1,0.34,0.34,0,0,0-.22.32c0,0.48.86,0.62,2.5,0.82,1.42,0.18,4,.6,4,3,0,1.94-1.7,3.22-4.78,3.22C7833,14875.24,7831.57,14873.76,7831.57,14872.28Zm3.44-1.62a1.61,1.61,0,0,0-1.38,1.38c0,0.88.92,1.44,2.54,1.44s2.7-.5,2.7-1.36-1.4-1.14-2.66-1.28Q7835.67,14870.78,7835,14870.66Zm-1-6.64c0,1.28.62,2.12,1.84,2.12s1.82-.84,1.82-2.12-0.62-2.12-1.82-2.12S7834,14862.74,7834,14864Z" transform="translate(-7731.12 -14841.96)"/><path class="cls-2" d="M7848.15,14870.24v-14h2.56v11.52h5.76v2.48h-8.32Z" transform="translate(-7731.12 -14841.96)"/><path class="cls-2" d="M7857.68,14865.26a5.06,5.06,0,1,1,5.06,5.18A4.91,4.91,0,0,1,7857.68,14865.26Zm2.54,0c0,1.86.92,3.14,2.52,3.14s2.52-1.28,2.52-3.14-0.92-3.14-2.52-3.14S7860.22,14863.4,7860.22,14865.26Z" transform="translate(-7731.12 -14841.96)"/><path class="cls-2" d="M7869.23,14872.28a2.55,2.55,0,0,1,1.64-2.24,1.65,1.65,0,0,1-.9-1.44,1.47,1.47,0,0,1,1-1.36,3.87,3.87,0,0,1-1.54-3.22,3.8,3.8,0,0,1,4.06-3.94,4.24,4.24,0,0,1,2.28.6,4.83,4.83,0,0,1,2.14-.44h0.64l-0.16,1.56h-0.9c-0.12,0-.34,0-0.56,0a4.08,4.08,0,0,1,.6,2.2,3.78,3.78,0,0,1-4,3.94,5.92,5.92,0,0,1-1.06-.1,0.34,0.34,0,0,0-.22.32c0,0.48.86,0.62,2.5,0.82,1.42,0.18,4,.6,4,3,0,1.94-1.7,3.22-4.78,3.22C7870.63,14875.24,7869.23,14873.76,7869.23,14872.28Zm3.44-1.62a1.61,1.61,0,0,0-1.38,1.38c0,0.88.92,1.44,2.54,1.44s2.7-.5,2.7-1.36-1.4-1.14-2.66-1.28Q7873.33,14870.78,7872.67,14870.66Zm-1-6.64c0,1.28.62,2.12,1.84,2.12s1.82-.84,1.82-2.12-0.62-2.12-1.82-2.12S7871.65,14862.74,7871.65,14864Z" transform="translate(-7731.12 -14841.96)"/><path class="cls-3" d="M7767.87,14855.59v-3.51h-1.75l-11.4-1.42a0.88,0.88,0,0,0-.88.88v10.53a0.88,0.88,0,0,0,.88.88l11.23,1.21v3.51a34.6,34.6,0,0,0,10.45-1.21c5-1.51,11.49-6.33,11.64-8.23S7779.12,14859.75,7767.87,14855.59Z" transform="translate(-7731.12 -14841.96)"/><path class="cls-3" d="M7754.71,14850.65a0.79,0.79,0,0,0-.88.65v33.79h1.75v-33.79A0.79,0.79,0,0,0,7754.71,14850.65Z" transform="translate(-7731.12 -14841.96)"/></svg>