<svg id="Interactive_elements" data-name="Interactive elements" xmlns="http://www.w3.org/2000/svg" viewBox="0 0 38.59 39.37"><defs><style>.cls-1{fill:#2e8bbd;}.cls-2{fill:#fff;}</style></defs><title>keep-improv_num3</title><rect class="cls-1" width="38.59" height="39.37"/><path class="cls-2" d="M14908,15227.42a5.35,5.35,0,0,1,1.83.29,4.11,4.11,0,0,1,1.36.79,3.31,3.31,0,0,1,.84,1.15,3.39,3.39,0,0,1,.29,1.38,4.53,4.53,0,0,1-.13,1.16,2.68,2.68,0,0,1-.4.87,2.47,2.47,0,0,1-.65.63,3.84,3.84,0,0,1-.88.43,3.09,3.09,0,0,1,2.31,3.14,4.34,4.34,0,0,1-.4,1.93,4,4,0,0,1-1.07,1.37,4.6,4.6,0,0,1-1.56.82,6.28,6.28,0,0,1-1.85.27,6.6,6.6,0,0,1-1.77-.21,4.05,4.05,0,0,1-1.37-.67,4.41,4.41,0,0,1-1.05-1.16,7.74,7.74,0,0,1-.79-1.68l1.32-.54a1.39,1.39,0,0,1,.34-0.1l0.33,0a1.22,1.22,0,0,1,.55.12,0.81,0.81,0,0,1,.37.35,3.46,3.46,0,0,0,.91,1.15,1.84,1.84,0,0,0,1.13.36,2.07,2.07,0,0,0,.86-0.17,1.88,1.88,0,0,0,.61-0.43,1.79,1.79,0,0,0,.37-0.6,1.92,1.92,0,0,0,.12-0.68,4.79,4.79,0,0,0-.06-0.81,1.06,1.06,0,0,0-.35-0.62,2,2,0,0,0-.86-0.4,7.22,7.22,0,0,0-1.61-.14v-2a6,6,0,0,0,1.4-.13,2.16,2.16,0,0,0,.83-0.37,1.12,1.12,0,0,0,.39-0.57,2.68,2.68,0,0,0,.09-0.74,1.84,1.84,0,0,0-.4-1.26,1.54,1.54,0,0,0-1.21-.44,1.87,1.87,0,0,0-.61.1,1.82,1.82,0,0,0-.5.26,1.71,1.71,0,0,0-.38.38,2,2,0,0,0-.25.48,1.39,1.39,0,0,1-.39.62,1,1,0,0,1-.63.19h-0.21l-0.22,0-1.57-.28a5.23,5.23,0,0,1,.59-1.81,4.27,4.27,0,0,1,2.55-2.06A6.09,6.09,0,0,1,14908,15227.42Z" transform="translate(-14888.69 -15214.72)"/></svg>