<svg id="Interactive_elements" data-name="Interactive elements" xmlns="http://www.w3.org/2000/svg" viewBox="0 0 67.86 14.7"><defs><style>.cls-1{fill:#fe961c;}</style></defs><title>NEXT&amp;gt;_link</title><path class="cls-1" d="M1567.39,15221.06l-6.72-10.08v10.08H1558v-14.7h2.65l6.28,9.49v-9.49h2.69v14.7h-2.2Z" transform="translate(-1557.98 -15206.36)"/><path class="cls-1" d="M1573.17,15221.06v-14.7h9.41v2.6h-6.66v3.13h5.17v2.6h-5.17v3.76h6.87v2.6h-9.62Z" transform="translate(-1557.98 -15206.36)"/><path class="cls-1" d="M1594.44,15221.06l-3.57-5.4-3.46,5.4h-3.09l5.19-7.33-5-7.37h3.11l3.4,5.17,3.11-5.17h3.09l-4.83,7.08,5.12,7.62h-3.11Z" transform="translate(-1557.98 -15206.36)"/><path class="cls-1" d="M1605.58,15209v12.09h-2.69V15209h-4.16v-2.6h11v2.6h-4.16Z" transform="translate(-1557.98 -15206.36)"/><path class="cls-1" d="M1620.75,15219.19h-3.53l5.09-4.94-5.09-4.94h3.53l5.09,4.94Z" transform="translate(-1557.98 -15206.36)"/></svg>