<svg id="Interactive_elements" data-name="Interactive elements" xmlns="http://www.w3.org/2000/svg" viewBox="0 0 24.4 53.78"><defs><style>.cls-1{fill:#c53a43;}</style></defs><title>red_arrow_tutorial</title><path class="cls-1" d="M3592.6,15383.63a1,1,0,0,0,1.29-.88c0.45-5.06.11-9.2,0.3-13.38,0.08-1.67-.33-15.12-0.39-17.19-0.08-4.47-.55-9.22-0.75-12.32a19.85,19.85,0,0,1,3.39,5.55,19.53,19.53,0,0,0,1.38,3.39,2.82,2.82,0,0,0,2.31,1.66c1.45,0,3.39-.73,3.45-1.89a5,5,0,0,0-1.19-2,36.14,36.14,0,0,1-2.09-3.28,107.84,107.84,0,0,0-7.85-11.64c-0.78-1-1.36-1.75-2-1.77s-1.2.43-2.15,1.51a31.85,31.85,0,0,0-6.24,10.94,31.8,31.8,0,0,1-2.24,4.87,3.9,3.9,0,0,0-.62,1.54,3.49,3.49,0,0,0,2.9,3.39,1,1,0,0,0,.94-0.8c0.34-1.14.7-2.66,1.13-4.36a24.14,24.14,0,0,1,3.86-8.57v0a54.44,54.44,0,0,1,1.5,11.51c0.14,1.87.75,15.25,0.67,16.87-0.14,3.06.12,6.47,0,9.48a27.22,27.22,0,0,0,.31,5.6A2.23,2.23,0,0,0,3592.6,15383.63Z" transform="translate(-3579.19 -15329.85)"/></svg>