<svg id="Interactive_elements" data-name="Interactive elements" xmlns="http://www.w3.org/2000/svg" viewBox="0 0 53.81 24.4"><defs><style>.cls-1{fill:#c53a43;}</style></defs><title>red-arrow_right</title><path class="cls-1" d="M3993.62,14917.08a1,1,0,0,0,.85,1.31c5,0.54,9.19.28,13.37,0.55,1.67,0.11,15.12,0,17.19-.07,4.47,0,9.23-.37,12.33-0.52a19.85,19.85,0,0,1-5.61,3.29,19.53,19.53,0,0,0-3.41,1.31,2.82,2.82,0,0,0-1.7,2.28c-0.07,1.45.67,3.4,1.82,3.48a5,5,0,0,0,2.06-1.15,36.13,36.13,0,0,1,3.31-2,107.84,107.84,0,0,0,11.79-7.63c1.05-.76,1.77-1.32,1.8-2s-0.4-1.2-1.47-2.17a31.85,31.85,0,0,0-10.83-6.44,31.8,31.8,0,0,1-4.82-2.33,3.9,3.9,0,0,0-1.53-.65,3.49,3.49,0,0,0-3.45,2.83,1,1,0,0,0,.79,1c1.14,0.36,2.64.75,4.33,1.21a24.14,24.14,0,0,1,8.49,4h0a54.44,54.44,0,0,1-11.54,1.28c-1.87.1-15.26,0.46-16.88,0.35-3.06-.2-6.47,0-9.48-0.2a27.22,27.22,0,0,0-5.61.21A2.23,2.23,0,0,0,3993.62,14917.08Z" transform="translate(-3993.61 -14904.32)"/></svg>