<svg id="Interactive_elements" data-name="Interactive elements" xmlns="http://www.w3.org/2000/svg" viewBox="0 0 226.03 525.29"><defs><style>.cls-1{fill:#fff;}.cls-2{fill:#c53a43;}.cls-3{fill:#f37573;}</style></defs><title>analogies</title><rect class="cls-1" width="226.03" height="525.29"/><path class="cls-2" d="M5469.33,11624.12a4.2,4.2,0,0,1-4.72-2.23,1.36,1.36,0,0,1-.25-0.76,1.56,1.56,0,0,1,1.76-1.3c1.22,0,4.75,1.08,4.75,2.59A2,2,0,0,1,5469.33,11624.12Zm0.58,17.31a2,2,0,0,1-1.48-.5,6.88,6.88,0,0,1-2.05-4.32c-0.11-1.84-.11-3.64-0.11-5.47v-2.45a1.17,1.17,0,0,1,1.26-1.3,2.46,2.46,0,0,1,2.45,2.2c0,1.58-.47,3.13-0.47,4.68,0,3.42,2.77,4.86,2.77,5.87S5470.67,11641.43,5469.91,11641.43Z" transform="translate(-5397.68 -11338.64)"/><path class="cls-2" d="M5486,11629.73a2.8,2.8,0,0,1-2.38,1.62c-1.15,0-.54-1.73-1.15-1.73-0.22,0-1.94,1-2.66,1.3a0.42,0.42,0,0,0-.32.36,0.37,0.37,0,0,0,.14.25c0.5,0.54,1,1,1.55,1.51a41.94,41.94,0,0,1,3.67,3.92,3.35,3.35,0,0,1,.72,2,2.88,2.88,0,0,1-1,2.2,12.68,12.68,0,0,1-6.77,2.45,3,3,0,0,1-1.58-.36,2.28,2.28,0,0,1-1.22-1.84,1.55,1.55,0,0,1,1.62-1.51c0.65,0,1.22.4,1.91,0.4s3-.61,3-1.44a2.88,2.88,0,0,0-.65-1.22,15.48,15.48,0,0,0-4.14-3.67,3.58,3.58,0,0,1-1.76-3.13,2.46,2.46,0,0,1,1.55-2.41c1.66-.79,4.68-2.56,6.44-2.56a2.43,2.43,0,0,1,.5,0c1.48,0.4,2.66,1.19,2.66,2.84A4.46,4.46,0,0,1,5486,11629.73Z" transform="translate(-5397.68 -11338.64)"/><path class="cls-2" d="M5514.22,11633c-1.37,1.44-5.11,1.15-7,1.48a0.76,0.76,0,0,0-.79.9c0,0.9.32,3.2,1.58,3.2h0.22c0.76,0,1,.94,1,1.55,0,1-.32,1.84-1.4,1.84-3,0-3.89-2.2-4.1-4.79,0-.5,0-2.63-0.61-2.63s-1.22.22-1.84,0.22a2.32,2.32,0,0,1-2.59-2.23c0-1.26.86-1.3,1.87-1.3,0.68,0,1.4.07,2.09,0.07,0.29,0,.61,0,0.61-0.4v-1.26c0-.9,0-1.84,0-2.74a53,53,0,0,1,.4-6.77,2.44,2.44,0,0,1,2.66-2.34c3,0,8.28,3.74,8.28,6.95a3.86,3.86,0,0,1-1.44,2.84,2.48,2.48,0,0,1-1.37.76c-0.76,0-.76-0.79-0.76-1.33s0.07-1.12.07-1.66a3.24,3.24,0,0,0-.72-2.27c-0.58-.61-1.76-1.83-2.66-1.83-1.51,0-1.58,3.92-1.58,4.93a32.47,32.47,0,0,0,.25,4.18,0.74,0.74,0,0,0,.72.79,8.23,8.23,0,0,0,1.33.07c1.8,0,3.6-.43,5.4-0.43a0.86,0.86,0,0,1,1,.79A2.37,2.37,0,0,1,5514.22,11633Z" transform="translate(-5397.68 -11338.64)"/><path class="cls-2" d="M5530,11635.35c-0.72,3.17-3,6.66-6.62,6.66a6.6,6.6,0,0,1-6.37-6.19c0-2.84,1.55-4.72,3.85-6.16a18.47,18.47,0,0,0,3.06-2.23,3,3,0,0,1,2.12-1,2.17,2.17,0,0,1,2.09,1.48c0.76,1.87,2,4.07,2,6.08A5.7,5.7,0,0,1,5530,11635.35Zm-3.24-3.06c-0.07-.14-0.18-0.25-0.36-0.07a1.63,1.63,0,0,1-1.08.47c-0.83,0-1.3-.76-1.76-0.76a2.4,2.4,0,0,0-1.19.54,3.17,3.17,0,0,0-1.66,3c0,2,1,3.17,3.06,3.17s3.53-2.09,3.53-4A6,6,0,0,0,5526.75,11632.29Z" transform="translate(-5397.68 -11338.64)"/><path class="cls-2" d="M5543.13,11632.5c-0.5,0-.94-0.32-1.44-0.32a1,1,0,0,0-.79.5c-1.4,2.05-1,4.72-2,6.95a1.86,1.86,0,0,1-1.73,1.12,1.59,1.59,0,0,1-1.62-1.26c-0.4-1.48-.79-2.88-1.26-4.32s-2.05-3.28-2.05-4.9a1.57,1.57,0,0,1,1.69-1.69,2,2,0,0,1,1.08.32,3.76,3.76,0,0,1,1.87,3c0.07,0.4.11,0.83,0.22,1.22a0.23,0.23,0,0,0,.22.22,0.42,0.42,0,0,0,.32-0.32c0.94-1.8,0-3.78,2.77-4.43a5.84,5.84,0,0,1,1.12-.11c1.33,0,3,.61,3,2.16A1.64,1.64,0,0,1,5543.13,11632.5Z" transform="translate(-5397.68 -11338.64)"/><path class="cls-2" d="M5448.69,11677a2.08,2.08,0,0,1-2-1.62c-0.47-2-.22-4.14-0.65-6.16a0.49,0.49,0,0,0-.5-0.5h-3.74a2,2,0,0,0-2.16,1.48c-0.68,2.81-.47,3.89-2.09,6.55a2.65,2.65,0,0,1-2.16,1.4,1.87,1.87,0,0,1-1.84-2c0-2,2.09-5.47,2.09-6.3s-1.15-1-1.15-2.16a2.37,2.37,0,0,1,1.91-2.2,1.12,1.12,0,0,0,1.26-.9c0.61-1.37,1.12-2.74,1.58-4.14a73.38,73.38,0,0,1,2.59-7.49,2.31,2.31,0,0,1,2-1.62,2.7,2.7,0,0,1,2.27,1.91,43.1,43.1,0,0,1,2.12,10,89.5,89.5,0,0,0,1.94,11.52,4.39,4.39,0,0,1,.07.68A1.47,1.47,0,0,1,5448.69,11677Zm-4-18.57a0.66,0.66,0,0,0-.61-0.65,0.73,0.73,0,0,0-.68.65c-0.65,2.05-1.22,4.1-2,6.08-0.18.43,1.22,0.47,1.58,0.47s0.94,0,1.44,0,1,0,.94-0.4C5445.09,11662.49,5444.94,11660.54,5444.66,11658.42Z" transform="translate(-5397.68 -11338.64)"/><path class="cls-2" d="M5466.26,11675.34a3,3,0,0,1-1.12-.25c-3.35-1.55-1.76-6.3-2.88-8.28a1.68,1.68,0,0,0-.65-0.83,0.52,0.52,0,0,0-.4.25c-1.26,1.51-1.15,3.78-2.92,4.93a2.73,2.73,0,0,1-1.48.54c-1.37,0-2.16-1.69-2.16-2.88v-0.61a11.47,11.47,0,0,0-1.66-6.23,1.08,1.08,0,0,1-.22-0.65,2.88,2.88,0,0,1,2.63-2.52,1.86,1.86,0,0,1,.9.22c1.26,0.68,1.12,4.57,1.51,6a0.68,0.68,0,0,0,.4.65,1,1,0,0,0,.54-0.4,12.46,12.46,0,0,0,2-3.74,1,1,0,0,1,1.08-.65,3.23,3.23,0,0,1,2.41,1.33c0.9,1.44,1.3,4.25,1.55,5.94,0.14,0.83.4,3.67,1.19,4.07a1.7,1.7,0,0,1,1.19,1.48A1.83,1.83,0,0,1,5466.26,11675.34Z" transform="translate(-5397.68 -11338.64)"/><path class="cls-2" d="M5489.55,11674.69a1.07,1.07,0,0,1-.72-0.29c-2.3-1.76-3-4-3.74-6.66a1,1,0,0,0-.68-0.9,1.11,1.11,0,0,0-.72.4c-0.54.54-1,1.12-1.55,1.66a22.81,22.81,0,0,1-4.9,3.78,5.81,5.81,0,0,1-2.81.83,4,4,0,0,1-3.85-4.28,3.85,3.85,0,0,1,.61-2.16c2.05-3.13,4.82-4.79,8.14-6.34a6.28,6.28,0,0,1,2.52-.68c1.58,0,2,1.15,2.59,1.15s0.68-1,1.69-1a2.55,2.55,0,0,1,2,1.44c1,2.34,0,7,1.84,8.89a2,2,0,0,0,.94.58,1,1,0,0,1,.61,1.08C5491.53,11673.14,5490.66,11674.69,5489.55,11674.69Zm-9.21-10.55a2.56,2.56,0,0,0-1,.43,16.33,16.33,0,0,0-5,4,0.82,0.82,0,0,0-.14.5,0.93,0.93,0,0,0,1.08.86c1,0,2.81-1.8,3.71-2.41a8.59,8.59,0,0,1,1.26-.68l0.4-.14a0.56,0.56,0,0,0,.29-0.65C5481,11665.65,5480.94,11664.14,5480.33,11664.14Z" transform="translate(-5397.68 -11338.64)"/><path class="cls-2" d="M5498.12,11669.22c-0.07.94,0,1.91-.14,2.81a1.1,1.1,0,0,1-1.26,1,1.93,1.93,0,0,1-1.91-1.37,14.53,14.53,0,0,1-.4-3.53c0-1.94.29-3.89,0.29-5.83,0-3.31-1.22-7.45-2.23-10.55a1.44,1.44,0,0,1-.11-0.54c0-1.22,1.58-1.76,2.63-1.76a1.63,1.63,0,0,1,1.91,1.4c0.36,3.13,1.08,6.19,1.3,9.36,0.07,1.22.14,2.41,0.14,3.6C5498.33,11665.62,5498.22,11667.42,5498.12,11669.22Z" transform="translate(-5397.68 -11338.64)"/><path class="cls-2" d="M5515.54,11667.35c-0.72,3.17-3,6.66-6.62,6.66a6.6,6.6,0,0,1-6.37-6.19c0-2.84,1.55-4.72,3.85-6.16a18.51,18.51,0,0,0,3.06-2.23,3,3,0,0,1,2.12-1,2.17,2.17,0,0,1,2.09,1.48c0.76,1.87,2,4.07,2,6.08A5.7,5.7,0,0,1,5515.54,11667.35Zm-3.24-3.06c-0.07-.14-0.18-0.25-0.36-0.07a1.63,1.63,0,0,1-1.08.47c-0.83,0-1.3-.76-1.76-0.76a2.4,2.4,0,0,0-1.19.54,3.17,3.17,0,0,0-1.66,3c0,2,1,3.17,3.06,3.17s3.53-2.09,3.53-4A6,6,0,0,0,5512.3,11664.29Z" transform="translate(-5397.68 -11338.64)"/><path class="cls-2" d="M5529,11681.13a6.72,6.72,0,0,1-5.11,2.84c-3.28,0-5.72-2.81-6.41-5.8a4.05,4.05,0,0,1-.18-1.15,1.46,1.46,0,0,1,1.4-1.73c3,0-.5,5.33,4.39,5.33,4,0,6.19-5.11,6.19-8.5a31.06,31.06,0,0,0-.36-5c0-.07,0-0.4-0.22-0.4-0.61,0-2.74,4.54-5.62,4.54a3,3,0,0,1-.79-0.11,4.37,4.37,0,0,1-3.46-4.1c0-3.85,5.62-8.06,9.25-8.06a3.17,3.17,0,0,1,3,1.62,5.72,5.72,0,0,1,.94,3c0,0.86-.14,1.66-0.14,2.52,0,1.69.25,3.38,0.25,5.08A15.24,15.24,0,0,1,5529,11681.13Zm-2.09-18.5a2.94,2.94,0,0,0-.86.36c-0.76.36-1.51,0.79-2.27,1.19a3.15,3.15,0,0,0-1.62,2.66,1,1,0,0,0,1,1.19,3.15,3.15,0,0,0,2.09-1.51c0.36-.58,2-3,2-3.53A0.33,0.33,0,0,0,5526.88,11662.63Z" transform="translate(-5397.68 -11338.64)"/><path class="cls-2" d="M5539.37,11656.12a4.2,4.2,0,0,1-4.72-2.23,1.36,1.36,0,0,1-.25-0.76,1.56,1.56,0,0,1,1.76-1.3c1.22,0,4.75,1.08,4.75,2.59A2,2,0,0,1,5539.37,11656.12Zm0.58,17.31a2,2,0,0,1-1.48-.5,6.88,6.88,0,0,1-2.05-4.32c-0.11-1.84-.11-3.64-0.11-5.47v-2.45a1.17,1.17,0,0,1,1.26-1.3,2.46,2.46,0,0,1,2.45,2.2c0,1.58-.47,3.13-0.47,4.68,0,3.42,2.77,4.86,2.77,5.87S5540.7,11673.43,5539.95,11673.43Z" transform="translate(-5397.68 -11338.64)"/><path class="cls-2" d="M5561.8,11673.83c-1.4,1-4.36,1.4-6,1.4a12.5,12.5,0,0,1-4-.58c-2.84-.9-6.62-2.56-6.62-6a8.91,8.91,0,0,1,.07-1c0.54-3.56,2.63-5.18,5.51-7a11,11,0,0,1,5.72-2c2.12,0,5,1.08,5,3.6a3.77,3.77,0,0,1-1.15,2.63c-2.12,2.09-4.43,2-6.95,3.09a7.9,7.9,0,0,1-3,.72,2.05,2.05,0,0,1-1.44-.47c-0.14-.14-0.29-0.11-0.29.14,0,2.23,3.13,3,4.86,3.46a12.68,12.68,0,0,0,3.31.47,25.1,25.1,0,0,0,4-.47c0.11,0,.22,0,0.29,0a1.12,1.12,0,0,1,1.15,1.19A1,1,0,0,1,5561.8,11673.83Zm-4.5-12.09a9,9,0,0,0-1.37.22,13.65,13.65,0,0,0-6.66,3.46c-0.22.32-.07,0.4,0.32,0.22,1.19-.4,2.38-0.58,3.64-0.86,0.9-.18,4.68-1.3,4.68-2.38A0.61,0.61,0,0,0,5557.3,11661.73Z" transform="translate(-5397.68 -11338.64)"/><path class="cls-2" d="M5576.27,11661.73a2.8,2.8,0,0,1-2.38,1.62c-1.15,0-.54-1.73-1.15-1.73-0.22,0-1.94,1-2.66,1.3a0.42,0.42,0,0,0-.32.36,0.37,0.37,0,0,0,.14.25c0.5,0.54,1,1,1.55,1.51a42,42,0,0,1,3.67,3.92,3.36,3.36,0,0,1,.72,2,2.88,2.88,0,0,1-1,2.2,12.68,12.68,0,0,1-6.77,2.45,3,3,0,0,1-1.58-.36,2.28,2.28,0,0,1-1.22-1.84,1.55,1.55,0,0,1,1.62-1.51c0.65,0,1.22.4,1.91,0.4s3-.61,3-1.44a2.88,2.88,0,0,0-.65-1.22,15.48,15.48,0,0,0-4.14-3.67,3.58,3.58,0,0,1-1.76-3.13,2.46,2.46,0,0,1,1.55-2.41c1.66-.79,4.68-2.56,6.44-2.56a2.43,2.43,0,0,1,.5,0c1.48,0.4,2.66,1.19,2.66,2.84A4.49,4.49,0,0,1,5576.27,11661.73Z" transform="translate(-5397.68 -11338.64)"/><path class="cls-2" d="M5426.05,11571.29l68.39-166.47h23.71l69.38,166.47h-36.19l-13.48-33.44h-64.14l-13.73,33.44h-33.94Zm57.9-61.65h42.93l-21.46-54.66Z" transform="translate(-5397.68 -11338.64)"/><path class="cls-2" d="M5490.81,11783.16v-7.85h30.91v7.85h-30.91Zm0,13.37v-7.85h30.91v7.85h-30.91Z" transform="translate(-5397.68 -11338.64)"/><rect class="cls-3" x="39.57" y="430.91" width="35.79" height="35.79"/><circle class="cls-3" cx="160.23" cy="448.8" r="20.81"/></svg>