<svg id="Interactive_elements" data-name="Interactive elements" xmlns="http://www.w3.org/2000/svg" xmlns:xlink="http://www.w3.org/1999/xlink" viewBox="0 0 197.95 166.71"><defs><style>.cls-1{fill:none;}.cls-2{fill:#dbedfa;}.cls-3{clip-path:url(#clip-path);}.cls-4{fill:#badef5;}.cls-5{fill:#89d1f7;}.cls-6{fill:#2e8bbd;}.cls-7{fill:#14608a;}.cls-8{fill:#c53a43;}</style><clipPath id="clip-path" transform="translate(-5688.24 -5223.98)"><rect class="cls-1" x="5697.31" y="5223.98" width="183.98" height="129.03"/></clipPath></defs><title>backspace_messy</title><rect class="cls-2" x="9.07" width="183.98" height="129.03"/><g class="cls-3"><path class="cls-4" d="M5688.24,5281.54s17.12,1.6,19.26.53,10.7-5.88,16-7.49,18.72,7.49,23.54,7.49,5.88-12.84,14.44-13.91,49.75,15.51,55.1,16.58,10.7-12.3,15-11.77,10.34,0.47,14.44,3.21c1.6,1.07,9.09-10.7,15.51-11.77s24.61,21.93,24.61,21.93l-1.07,69.55-194.2,2.67Z" transform="translate(-5688.24 -5223.98)"/></g><path class="cls-5" d="M5759.44,5325.64c1.65,0.51,21.14-7,18.52-18.71-0.85-3.77-22.83-16.92-16.17-55.29,1.92-11.08,1.93-15,21.88-14s36.06-8.67,35.37,22.5c-0.45,20.33-9,30.79-12.5,37.25-2.19,4-5.9,5.88-5.56,7.93,2.7,16,22.28,21.91,22.28,21.91l-25.84,14.09Z" transform="translate(-5688.24 -5223.98)"/><path class="cls-6" d="M5825.39,5277.53a38.13,38.13,0,0,0-1-23.45c-0.42-5.49-1.54-10.05-3.23-12.8-12.74-20.63-39.61-5.74-39.61-5.74s-11.46-4.39-18.67,2.14l-0.49.31a28,28,0,0,0-10.71,13.48,12.76,12.76,0,0,1,4.3-3.93,24.19,24.19,0,0,0-1.82,9,25.53,25.53,0,0,0-.69,6.43,20.72,20.72,0,0,1,.95-3,22.08,22.08,0,0,0,1.16,4.43c1.59,4.23-.45,14.74,4.81,25.09a29.32,29.32,0,0,0,4.71,12.22,43.07,43.07,0,0,1-.45-5.93,35,35,0,0,0,4.5,4.31,50.68,50.68,0,0,0,2.9,4.57c-0.29-1.06-.62-2.1-1-3.13a50.57,50.57,0,0,0,8.88,5,9.36,9.36,0,0,0-2.89-4.08c-14.41-11.49-12-36.77-6.3-44.07,9-11.49,12.6,1.91,36,5.74,8,1.32,7.29,27.9-4.26,37.81-1.84,1.58-1.56,2.78-1.93,5.34,9.83-2.33,14.91-10.16,19-20.42,0,1.85-.07,3.69-0.25,5.53a22.78,22.78,0,0,0,4.13-12.08,48,48,0,0,0-.06-7.24q0.31-1.77.54-3.53a19.36,19.36,0,0,1,1.48,7.94" transform="translate(-5688.24 -5223.98)"/><path class="cls-7" d="M5833.73,5353.07c-0.52-9.89-1.25-21.17-2-23.55-2.36-7.57-19-9-19-9s-11.07,12.75-22.86,12.75-20.21-13.53-20.21-13.53-13.33,1-19.5,8c-2.36,2.7-3.5,14.85-4,25.25h87.65Z" transform="translate(-5688.24 -5223.98)"/><path class="cls-6" d="M5708.12,5332.9a0.53,0.53,0,0,1-.21.19,0.46,0.46,0,0,1-.25,0,0.62,0.62,0,0,1-.3-0.16l-0.38-.3a3.53,3.53,0,0,0-.52-0.33,2.36,2.36,0,0,0-.74-0.22,2.24,2.24,0,0,0-.7,0,1.46,1.46,0,0,0-.53.19,1.05,1.05,0,0,0-.36.36,1.33,1.33,0,0,0-.18.5,0.9,0.9,0,0,0,.11.63,1.66,1.66,0,0,0,.47.49,4.92,4.92,0,0,0,.7.42l0.81,0.41a8.41,8.41,0,0,1,.8.48,3,3,0,0,1,.67.62,2.31,2.31,0,0,1,.41.83,2.62,2.62,0,0,1,0,1.1,3.54,3.54,0,0,1-.43,1.25,3,3,0,0,1-.85.94,3.27,3.27,0,0,1-1.21.53,4.12,4.12,0,0,1-1.53,0,4.83,4.83,0,0,1-.94-0.24,5,5,0,0,1-.86-0.41,4.77,4.77,0,0,1-.74-0.54,4,4,0,0,1-.58-0.65l0.68-.82a0.7,0.7,0,0,1,.21-0.14,0.45,0.45,0,0,1,.25,0,0.67,0.67,0,0,1,.36.2l0.43,0.39a3.7,3.7,0,0,0,.6.42,2.54,2.54,0,0,0,.88.28,1.87,1.87,0,0,0,1.3-.19,1.39,1.39,0,0,0,.61-1,1,1,0,0,0-.1-0.68,1.63,1.63,0,0,0-.46-0.5,4,4,0,0,0-.7-0.4l-0.81-.39a7.6,7.6,0,0,1-.8-0.47,2.82,2.82,0,0,1-.67-0.62,2.36,2.36,0,0,1-.41-0.87,3,3,0,0,1,0-1.19,2.82,2.82,0,0,1,1.17-1.88,3.21,3.21,0,0,1,1.14-.49,3.82,3.82,0,0,1,1.44,0,4.77,4.77,0,0,1,1.61.53,3.78,3.78,0,0,1,1.17,1Z" transform="translate(-5688.24 -5223.98)"/><path class="cls-6" d="M5717.61,5332.47l-0.24,1.55-3-.46-1.31,8.57-1.88-.29,1.31-8.57-3.06-.47,0.24-1.55Z" transform="translate(-5688.24 -5223.98)"/><path class="cls-6" d="M5721.57,5341.87a2.51,2.51,0,0,0,1,0,2.05,2.05,0,0,0,.81-0.4,2.26,2.26,0,0,0,.58-0.73,3.34,3.34,0,0,0,.32-1l0.93-6.06,1.88,0.29-0.93,6.06a4.73,4.73,0,0,1-.55,1.62,3.81,3.81,0,0,1-1,1.19,3.86,3.86,0,0,1-1.46.67,5.13,5.13,0,0,1-3.5-.53,3.75,3.75,0,0,1-1.82-2.52,4.71,4.71,0,0,1,0-1.71l0.93-6.06,1.88,0.29-0.92,6.05a3.32,3.32,0,0,0,0,1.07,2.33,2.33,0,0,0,.33.87,2,2,0,0,0,.65.63A2.5,2.5,0,0,0,5721.57,5341.87Z" transform="translate(-5688.24 -5223.98)"/><path class="cls-6" d="M5735.37,5335.18l-0.23,1.5-4.48-.69-0.46,3,3.78,0.58-0.23,1.5-3.78-.58-0.63,4.12-1.9-.29,1.55-10.12Z" transform="translate(-5688.24 -5223.98)"/><path class="cls-6" d="M5743.23,5336.38l-0.23,1.5-4.48-.69-0.46,3,3.78,0.58-0.23,1.5-3.78-.58-0.63,4.12-1.9-.29,1.55-10.12Z" transform="translate(-5688.24 -5223.98)"/><path class="cls-7" d="M5840,5290.88a0.51,0.51,0,0,1-.13.25,0.45,0.45,0,0,1-.23.11,0.61,0.61,0,0,1-.33,0l-0.46-.15a3.47,3.47,0,0,0-.6-0.12,2.37,2.37,0,0,0-.77.05,2.2,2.2,0,0,0-.66.24,1.45,1.45,0,0,0-.43.36,1.07,1.07,0,0,0-.21.46,1.34,1.34,0,0,0,0,.53,0.91,0.91,0,0,0,.32.55,1.69,1.69,0,0,0,.61.29,5,5,0,0,0,.8.14l0.91,0.1a8.23,8.23,0,0,1,.92.17,3,3,0,0,1,.85.34,2.28,2.28,0,0,1,.68.63,2.6,2.6,0,0,1,.42,1,3.52,3.52,0,0,1,0,1.32,3,3,0,0,1-.46,1.18,3.26,3.26,0,0,1-.94.92,4.09,4.09,0,0,1-1.42.56,4.86,4.86,0,0,1-1,.11,4.93,4.93,0,0,1-.95-0.08,4.7,4.7,0,0,1-.88-0.25,3.94,3.94,0,0,1-.78-0.4l0.35-1a0.72,0.72,0,0,1,.15-0.2,0.46,0.46,0,0,1,.22-0.12,0.67,0.67,0,0,1,.4.06l0.54,0.21a3.64,3.64,0,0,0,.71.18,2.54,2.54,0,0,0,.92,0,1.86,1.86,0,0,0,1.15-.64,1.38,1.38,0,0,0,.21-1.18,1,1,0,0,0-.33-0.6,1.64,1.64,0,0,0-.61-0.31,4.13,4.13,0,0,0-.8-0.13l-0.9-.08a7.61,7.61,0,0,1-.92-0.15,2.78,2.78,0,0,1-.85-0.35,2.35,2.35,0,0,1-.69-0.67,3,3,0,0,1-.44-1.11,2.82,2.82,0,0,1,.44-2.17,3.23,3.23,0,0,1,.89-0.86,3.81,3.81,0,0,1,1.34-.54,4.75,4.75,0,0,1,1.69-.07,3.77,3.77,0,0,1,1.44.5Z" transform="translate(-5688.24 -5223.98)"/><path class="cls-7" d="M5848.72,5287.13l0.32,1.53-3,.64,1.79,8.48-1.86.39-1.79-8.48-3,.64-0.32-1.53Z" transform="translate(-5688.24 -5223.98)"/><path class="cls-7" d="M5855.74,5294.54a2.51,2.51,0,0,0,.93-0.38,2.05,2.05,0,0,0,.61-0.66,2.25,2.25,0,0,0,.28-0.88,3.31,3.31,0,0,0-.06-1.07l-1.27-6,1.86-.39,1.27,6a4.72,4.72,0,0,1,.06,1.71,3.8,3.8,0,0,1-.55,1.48,3.84,3.84,0,0,1-1.13,1.13,5.12,5.12,0,0,1-3.46.73,3.8,3.8,0,0,1-1.49-.58,3.85,3.85,0,0,1-1.1-1.14,4.72,4.72,0,0,1-.64-1.59l-1.27-6,1.86-.39,1.27,6a3.29,3.29,0,0,0,.38,1,2.32,2.32,0,0,0,.61.7,2,2,0,0,0,.82.36A2.51,2.51,0,0,0,5855.74,5294.54Z" transform="translate(-5688.24 -5223.98)"/><path class="cls-7" d="M5866.3,5283.42l0.31,1.48-4.44.94,0.63,3,3.75-.79,0.31,1.49-3.75.79,0.86,4.08-1.88.4-2.12-10Z" transform="translate(-5688.24 -5223.98)"/><path class="cls-7" d="M5874.08,5281.77l0.31,1.48-4.44.94,0.63,3,3.75-.79,0.31,1.49-3.75.79,0.86,4.08-1.88.4-2.12-10Z" transform="translate(-5688.24 -5223.98)"/><path class="cls-7" d="M5843.55,5334.41l-0.1,1.15-2.26-.2-0.56,6.37-1.4-.12,0.56-6.37-2.27-.2,0.1-1.15Z" transform="translate(-5688.24 -5223.98)"/><path class="cls-7" d="M5850.12,5342.56l-1.41-.12,0.29-3.28-3.52-.31-0.29,3.28-1.41-.12,0.66-7.51,1.41,0.12-0.28,3.23,3.52,0.31,0.28-3.23,1.41,0.12Z" transform="translate(-5688.24 -5223.98)"/><path class="cls-7" d="M5853.21,5342.84l-1.4-.12,0.66-7.51,1.4,0.12Z" transform="translate(-5688.24 -5223.98)"/><path class="cls-7" d="M5856.44,5335.56l0.11,0,0.09,0.08,0.09,0.13,3.51,5.37c0-.12,0-0.24,0-0.36s0-.23,0-0.33l0.4-4.57,1.23,0.11-0.66,7.51-0.72-.06a0.63,0.63,0,0,1-.27-0.08,0.61,0.61,0,0,1-.2-0.21l-3.5-5.35c0,0.11,0,.22,0,0.33s0,0.21,0,.3l-0.41,4.61-1.23-.11,0.66-7.51,0.73,0.06Z" transform="translate(-5688.24 -5223.98)"/><path class="cls-7" d="M5866.3,5343a3.54,3.54,0,0,0,.83,0,3.49,3.49,0,0,0,.69-0.18l0.12-1.37-0.94-.08a0.3,0.3,0,0,1-.21-0.09,0.25,0.25,0,0,1-.06-0.19l0.07-.79,2.5,0.22-0.27,3a4.24,4.24,0,0,1-.63.31,3.79,3.79,0,0,1-.68.19,5.05,5.05,0,0,1-.76.08,7.08,7.08,0,0,1-.87,0,3.93,3.93,0,0,1-1.49-.42,3.59,3.59,0,0,1-1.12-.9,3.63,3.63,0,0,1-.68-1.29,4.13,4.13,0,0,1-.15-1.57,4.26,4.26,0,0,1,.41-1.53,3.43,3.43,0,0,1,2.19-1.83,4.45,4.45,0,0,1,1.65-.14,4.23,4.23,0,0,1,1.57.41,3.67,3.67,0,0,1,1.08.81l-0.46.6a0.36,0.36,0,0,1-.33.16,0.47,0.47,0,0,1-.25-0.11l-0.32-.23a2.31,2.31,0,0,0-.37-0.21,3.14,3.14,0,0,0-.46-0.16,3.5,3.5,0,0,0-.6-0.1,2.6,2.6,0,0,0-1,.1,2.13,2.13,0,0,0-.81.47,2.41,2.41,0,0,0-.56.79,3.28,3.28,0,0,0-.27,1.08,3.42,3.42,0,0,0,.08,1.17,2.43,2.43,0,0,0,.43.9,2.21,2.21,0,0,0,.73.6A2.6,2.6,0,0,0,5866.3,5343Z" transform="translate(-5688.24 -5223.98)"/><path class="cls-7" d="M5874.84,5338.55a0.38,0.38,0,0,1-.15.15,0.33,0.33,0,0,1-.18,0,0.46,0.46,0,0,1-.23-0.1l-0.29-.21a2.5,2.5,0,0,0-.4-0.22,1.74,1.74,0,0,0-.55-0.13,1.66,1.66,0,0,0-.51,0,1.08,1.08,0,0,0-.38.16,0.78,0.78,0,0,0-.25.28,1,1,0,0,0-.11.38,0.67,0.67,0,0,0,.11.46,1.24,1.24,0,0,0,.37.34,3.73,3.73,0,0,0,.54.27l0.62,0.27a6.17,6.17,0,0,1,.61.32,2.21,2.21,0,0,1,.52.42,1.71,1.71,0,0,1,.34.59,1.94,1.94,0,0,1,.08.81,2.6,2.6,0,0,1-.26.94,2.22,2.22,0,0,1-.58.73,2.41,2.41,0,0,1-.86.45,3,3,0,0,1-1.12.09,3.6,3.6,0,0,1-.7-0.13,3.69,3.69,0,0,1-.65-0.26,3.44,3.44,0,0,1-.57-0.36,2.93,2.93,0,0,1-.46-0.45l0.46-.63a0.51,0.51,0,0,1,.15-0.11,0.33,0.33,0,0,1,.18,0,0.5,0.5,0,0,1,.27.13l0.33,0.27a2.82,2.82,0,0,0,.46.28,1.89,1.89,0,0,0,.66.17,1.37,1.37,0,0,0,1-.2,1,1,0,0,0,.4-0.78,0.77,0.77,0,0,0-.11-0.5,1.2,1.2,0,0,0-.37-0.35,2.93,2.93,0,0,0-.54-0.27l-0.62-.25a5.34,5.34,0,0,1-.61-0.31,2.07,2.07,0,0,1-.52-0.43,1.74,1.74,0,0,1-.34-0.62,2.24,2.24,0,0,1-.07-0.88,2.08,2.08,0,0,1,.77-1.43,2.35,2.35,0,0,1,.81-0.42,2.82,2.82,0,0,1,1.06-.09,3.52,3.52,0,0,1,1.21.32,2.79,2.79,0,0,1,.91.67Z" transform="translate(-5688.24 -5223.98)"/><path class="cls-6" d="M5713.63,5286.15l-0.12,1.41-2.77-.24-0.69,7.8-1.71-.15,0.69-7.8-2.78-.25,0.12-1.41Z" transform="translate(-5688.24 -5223.98)"/><path class="cls-6" d="M5721.67,5296.14l-1.73-.15,0.35-4-4.32-.38-0.35,4-1.73-.15,0.81-9.21,1.73,0.15-0.35,4,4.32,0.38,0.35-4,1.73,0.15Z" transform="translate(-5688.24 -5223.98)"/><path class="cls-6" d="M5725.46,5296.47l-1.72-.15,0.81-9.21,1.72,0.15Z" transform="translate(-5688.24 -5223.98)"/><path class="cls-6" d="M5729.42,5287.55l0.13,0,0.11,0.09,0.11,0.15,4.3,6.58c0-.15,0-0.3,0-0.44s0-.28,0-0.4l0.49-5.6,1.5,0.13-0.81,9.21-0.88-.08a0.78,0.78,0,0,1-.33-0.09,0.76,0.76,0,0,1-.24-0.25l-4.29-6.56c0,0.14,0,.27,0,0.41s0,0.26,0,.37l-0.5,5.65-1.5-.13,0.81-9.21,0.89,0.08Z" transform="translate(-5688.24 -5223.98)"/><path class="cls-6" d="M5741.5,5296.62a4.31,4.31,0,0,0,1,0,4.22,4.22,0,0,0,.84-0.22l0.15-1.67-1.15-.1a0.36,0.36,0,0,1-.25-0.12,0.3,0.3,0,0,1-.08-0.23l0.08-1,3.06,0.27-0.33,3.73a5.11,5.11,0,0,1-.77.38,4.69,4.69,0,0,1-.84.24,6.2,6.2,0,0,1-.94.1,8.56,8.56,0,0,1-1.06,0,4.81,4.81,0,0,1-1.82-.51,4.37,4.37,0,0,1-2.21-2.68,5.05,5.05,0,0,1-.18-1.92,5.22,5.22,0,0,1,.5-1.87,4.21,4.21,0,0,1,2.68-2.24,5.45,5.45,0,0,1,2-.17,5.21,5.21,0,0,1,1.92.51,4.51,4.51,0,0,1,1.32,1l-0.56.73a0.44,0.44,0,0,1-.41.2,0.59,0.59,0,0,1-.3-0.13l-0.4-.28a2.87,2.87,0,0,0-.45-0.25,3.88,3.88,0,0,0-.57-0.2,4.29,4.29,0,0,0-.74-0.12,3.18,3.18,0,0,0-1.25.12,2.61,2.61,0,0,0-1,.57,3,3,0,0,0-.69,1,4,4,0,0,0-.33,1.32,4.17,4.17,0,0,0,.1,1.44,3,3,0,0,0,.53,1.1,2.68,2.68,0,0,0,.9.74A3.18,3.18,0,0,0,5741.5,5296.62Z" transform="translate(-5688.24 -5223.98)"/><path class="cls-6" d="M5752,5291.22a0.48,0.48,0,0,1-.18.18,0.41,0.41,0,0,1-.23,0,0.56,0.56,0,0,1-.28-0.12l-0.36-.25a3.08,3.08,0,0,0-.49-0.26,2.13,2.13,0,0,0-.68-0.16,2,2,0,0,0-.63,0,1.33,1.33,0,0,0-.47.2,1,1,0,0,0-.3.34,1.2,1.2,0,0,0-.13.46,0.82,0.82,0,0,0,.13.56,1.52,1.52,0,0,0,.45.41,4.54,4.54,0,0,0,.66.33l0.76,0.33a7.65,7.65,0,0,1,.75.39,2.71,2.71,0,0,1,.64.52,2.09,2.09,0,0,1,.42.72,2.37,2.37,0,0,1,.1,1,3.18,3.18,0,0,1-.32,1.15,2.71,2.71,0,0,1-.71.89,3,3,0,0,1-1.06.55,3.73,3.73,0,0,1-1.38.11,4.38,4.38,0,0,1-.86-0.16,4.58,4.58,0,0,1-.8-0.32,4.24,4.24,0,0,1-.7-0.45,3.57,3.57,0,0,1-.56-0.55l0.57-.78a0.63,0.63,0,0,1,.18-0.14,0.41,0.41,0,0,1,.23,0,0.6,0.6,0,0,1,.33.16l0.41,0.33a3.37,3.37,0,0,0,.57.34,2.3,2.3,0,0,0,.81.2,1.69,1.69,0,0,0,1.16-.25,1.25,1.25,0,0,0,.49-1,0.93,0.93,0,0,0-.13-0.61,1.47,1.47,0,0,0-.45-0.43,3.6,3.6,0,0,0-.66-0.32l-0.76-.3a6.66,6.66,0,0,1-.75-0.37,2.51,2.51,0,0,1-.64-0.53,2.11,2.11,0,0,1-.42-0.76,2.73,2.73,0,0,1-.09-1.08,2.54,2.54,0,0,1,.95-1.76,2.9,2.9,0,0,1,1-.51,3.44,3.44,0,0,1,1.3-.11,4.32,4.32,0,0,1,1.48.39,3.41,3.41,0,0,1,1.11.82Z" transform="translate(-5688.24 -5223.98)"/><path class="cls-6" d="M5822.38,5312.3a0.36,0.36,0,0,1,.23.19l0.51,1a4.11,4.11,0,0,1-1.79.74,5.27,5.27,0,0,1-2.22-.18,5.17,5.17,0,0,1-1.87-.91,4.5,4.5,0,0,1-1.21-1.45,4.73,4.73,0,0,1-.52-1.86,6.19,6.19,0,0,1,.22-2.12,5.66,5.66,0,0,1,.92-1.94,4.78,4.78,0,0,1,3.36-1.92,5.71,5.71,0,0,1,2.16.19,5,5,0,0,1,1.83.88,4.65,4.65,0,0,1,1.16,1.32l-0.85.69a0.59,0.59,0,0,1-.18.1,0.41,0.41,0,0,1-.25,0,0.55,0.55,0,0,1-.29-0.21,3.91,3.91,0,0,0-.34-0.38,3.61,3.61,0,0,0-.57-0.44,3.82,3.82,0,0,0-2.29-.5,2.93,2.93,0,0,0-1.19.42,3.32,3.32,0,0,0-1,.92,4.36,4.36,0,0,0-.63,1.39,4.47,4.47,0,0,0-.17,1.55,3.36,3.36,0,0,0,.34,1.27,2.84,2.84,0,0,0,.76.94,3,3,0,0,0,1.11.56,5.36,5.36,0,0,0,.69.14,3,3,0,0,0,.59,0,2.56,2.56,0,0,0,.55-0.1,3.17,3.17,0,0,0,.55-0.22l0.17-.06A0.37,0.37,0,0,1,5822.38,5312.3Z" transform="translate(-5688.24 -5223.98)"/><path class="cls-6" d="M5826.37,5314.26l4,1.08-0.41,1.52-5.79-1.58,2.69-9.87,1.84,0.5Z" transform="translate(-5688.24 -5223.98)"/><path class="cls-6" d="M5835.56,5316.8a2.5,2.5,0,0,0,1,.08,2.06,2.06,0,0,0,.85-0.3,2.25,2.25,0,0,0,.66-0.66,3.31,3.31,0,0,0,.43-1l1.61-5.91,1.84,0.5-1.61,5.91a4.71,4.71,0,0,1-.73,1.55,3.81,3.81,0,0,1-1.17,1.07,3.87,3.87,0,0,1-1.52.5,5.12,5.12,0,0,1-3.41-.93,3.75,3.75,0,0,1-1.52-2.71,4.72,4.72,0,0,1,.16-1.71l1.61-5.91,1.84,0.5-1.61,5.91a3.32,3.32,0,0,0-.13,1.07,2.32,2.32,0,0,0,.23.9,2,2,0,0,0,.57.69A2.52,2.52,0,0,0,5835.56,5316.8Z" transform="translate(-5688.24 -5223.98)"/><path class="cls-6" d="M5850.77,5311.93l-0.41,1.51-3-.81-2.28,8.36-1.84-.5,2.28-8.36-3-.81,0.41-1.51Z" transform="translate(-5688.24 -5223.98)"/><path class="cls-6" d="M5858.89,5314.14l-0.41,1.51-3-.81-2.28,8.36-1.84-.5,2.28-8.36-3-.81,0.41-1.51Z" transform="translate(-5688.24 -5223.98)"/><path class="cls-6" d="M5866.29,5316.16l-0.4,1.46-4.38-1.19-0.75,2.74,3.45,0.94-0.38,1.41-3.45-.94-0.76,2.79,4.38,1.19-0.4,1.47-6.23-1.7,2.69-9.87Z" transform="translate(-5688.24 -5223.98)"/><path class="cls-6" d="M5868.14,5323.12l-1.05,3.86-1.84-.5,2.69-9.87,3,0.82a6.53,6.53,0,0,1,1.67.68,3.42,3.42,0,0,1,1,.91,2.33,2.33,0,0,1,.43,1.08,3.26,3.26,0,0,1-.5,2.11,2.81,2.81,0,0,1-.64.69,2.93,2.93,0,0,1-.86.45,3.66,3.66,0,0,1-1,.19,1.87,1.87,0,0,1,.45.73l1.48,4.32-1.65-.45a0.83,0.83,0,0,1-.38-0.21,0.86,0.86,0,0,1-.21-0.35l-1.21-3.73a0.75,0.75,0,0,0-.19-0.32,0.93,0.93,0,0,0-.39-0.19Zm0.36-1.32,1.15,0.31a2.93,2.93,0,0,0,.94.12,1.8,1.8,0,0,0,.73-0.19,1.51,1.51,0,0,0,.52-0.44,2,2,0,0,0,.31-0.66,1.46,1.46,0,0,0-.18-1.29,2.45,2.45,0,0,0-1.4-.82l-1.17-.32Z" transform="translate(-5688.24 -5223.98)"/><path class="cls-7" d="M5717.78,5318.89a3.4,3.4,0,0,1,0,1.29,2.85,2.85,0,0,1-1.33,1.92,3.54,3.54,0,0,1-1.24.46l-2.36.43-1.13-6.19,2.36-.43a3.53,3.53,0,0,1,1.32,0,2.94,2.94,0,0,1,1.11.46,2.89,2.89,0,0,1,.82.86A3.41,3.41,0,0,1,5717.78,5318.89Zm-1.18.22a2.89,2.89,0,0,0-.3-0.89,2,2,0,0,0-.51-0.61,1.72,1.72,0,0,0-.69-0.32,2.15,2.15,0,0,0-.84,0l-1.2.22,0.8,4.36,1.2-.22a2.15,2.15,0,0,0,.79-0.3,1.71,1.71,0,0,0,.54-0.54,2,2,0,0,0,.26-0.76A2.88,2.88,0,0,0,5716.6,5319.1Z" transform="translate(-5688.24 -5223.98)"/><path class="cls-7" d="M5720.55,5321.58l-1.16.21-1.13-6.19,1.16-.21Z" transform="translate(-5688.24 -5223.98)"/><path class="cls-7" d="M5724.33,5315.65a0.31,0.31,0,0,1-.08.15,0.28,0.28,0,0,1-.14.07,0.38,0.38,0,0,1-.2,0l-0.28-.1a2,2,0,0,0-.37-0.09,1.46,1.46,0,0,0-.47,0,1.39,1.39,0,0,0-.41.13,0.9,0.9,0,0,0-.27.21,0.66,0.66,0,0,0-.14.28,0.82,0.82,0,0,0,0,.33,0.56,0.56,0,0,0,.19.34,1,1,0,0,0,.37.19,3,3,0,0,0,.49.1l0.56,0.08a5,5,0,0,1,.56.12,1.85,1.85,0,0,1,.51.22,1.44,1.44,0,0,1,.41.4,1.61,1.61,0,0,1,.24.63,2.17,2.17,0,0,1,0,.81,1.86,1.86,0,0,1-.3.71,2,2,0,0,1-.6.55,2.55,2.55,0,0,1-.88.32,3,3,0,0,1-.59,0,3.08,3.08,0,0,1-.58-0.06,3,3,0,0,1-.54-0.17,2.45,2.45,0,0,1-.47-0.26l0.23-.61a0.46,0.46,0,0,1,.09-0.12,0.29,0.29,0,0,1,.14-0.07,0.42,0.42,0,0,1,.25,0l0.33,0.14a2.27,2.27,0,0,0,.43.12,1.56,1.56,0,0,0,.57,0,1.15,1.15,0,0,0,.72-0.37,0.85,0.85,0,0,0,.15-0.72,0.64,0.64,0,0,0-.19-0.38,1,1,0,0,0-.37-0.2,2.41,2.41,0,0,0-.49-0.09l-0.55-.06a4.29,4.29,0,0,1-.56-0.11,1.69,1.69,0,0,1-.52-0.23,1.43,1.43,0,0,1-.41-0.42,1.86,1.86,0,0,1-.25-0.69,1.73,1.73,0,0,1,.3-1.33,2,2,0,0,1,.56-0.52,2.36,2.36,0,0,1,.83-0.31,2.93,2.93,0,0,1,1,0,2.32,2.32,0,0,1,.88.33Z" transform="translate(-5688.24 -5223.98)"/><path class="cls-7" d="M5729.76,5313.49l0.17,0.95-1.86.34,1,5.24-1.15.21-1-5.24-1.87.34-0.17-.95Z" transform="translate(-5688.24 -5223.98)"/><path class="cls-7" d="M5732.38,5316.91l0.44,2.42-1.15.21-1.13-6.19,1.89-.35a4,4,0,0,1,1.11-.07,2.11,2.11,0,0,1,.81.23,1.44,1.44,0,0,1,.53.49,2,2,0,0,1,.28,1.3,1.73,1.73,0,0,1-.17.55,1.84,1.84,0,0,1-.36.48,2.24,2.24,0,0,1-.53.38,1.17,1.17,0,0,1,.44.29l2,2-1,.19a0.51,0.51,0,0,1-.27,0,0.53,0.53,0,0,1-.21-0.14l-1.66-1.74a0.45,0.45,0,0,0-.19-0.13,0.57,0.57,0,0,0-.27,0Zm-0.15-.83,0.72-.13a1.81,1.81,0,0,0,.55-0.19,1.12,1.12,0,0,0,.36-0.3,0.91,0.91,0,0,0,.17-0.38,1.19,1.19,0,0,0,0-.45,0.9,0.9,0,0,0-.44-0.67,1.51,1.51,0,0,0-1-.08l-0.74.13Z" transform="translate(-5688.24 -5223.98)"/><path class="cls-7" d="M5742.68,5317.52l-0.89.16a0.4,0.4,0,0,1-.26,0,0.44,0.44,0,0,1-.17-0.16l-0.69-1.18-2.56.47-0.23,1.35a0.4,0.4,0,0,1-.1.2,0.38,0.38,0,0,1-.23.13l-0.9.16,1.3-6.64,1.18-.22Zm-4.44-1.6,2-.36-1.13-1.92-0.17-.3-0.2-.38c0,0.15,0,.3,0,0.43s0,0.25-.05.35Z" transform="translate(-5688.24 -5223.98)"/><path class="cls-7" d="M5747.09,5315.21a0.22,0.22,0,0,1,.18,0l0.54,0.41a2.53,2.53,0,0,1-.8.88,3.23,3.23,0,0,1-1.28.49,3.15,3.15,0,0,1-1.28,0,2.77,2.77,0,0,1-1.06-.48,2.91,2.91,0,0,1-.78-0.89,3.81,3.81,0,0,1-.44-1.23,3.48,3.48,0,0,1,0-1.32,2.93,2.93,0,0,1,1.35-2,3.53,3.53,0,0,1,1.25-.47,3.11,3.11,0,0,1,1.25,0,2.85,2.85,0,0,1,1,.42l-0.29.61a0.34,0.34,0,0,1-.07.11,0.25,0.25,0,0,1-.14.06,0.34,0.34,0,0,1-.21,0l-0.29-.12a2.12,2.12,0,0,0-.43-0.09,2.06,2.06,0,0,0-.63,0,2.09,2.09,0,0,0-.77.3,1.82,1.82,0,0,0-.55.55,2,2,0,0,0-.29.76,2.68,2.68,0,0,0,0,.94,2.76,2.76,0,0,0,.32.9,2.08,2.08,0,0,0,.53.61,1.74,1.74,0,0,0,.67.32,1.84,1.84,0,0,0,.76,0,3.15,3.15,0,0,0,.42-0.1,1.75,1.75,0,0,0,.34-0.14,1.64,1.64,0,0,0,.28-0.2,2,2,0,0,0,.25-0.27l0.08-.08Z" transform="translate(-5688.24 -5223.98)"/><path class="cls-7" d="M5752.07,5309.41l0.17,0.95-1.86.34,1,5.24-1.15.21-1-5.24-1.87.34-0.17-.95Z" transform="translate(-5688.24 -5223.98)"/><path class="cls-7" d="M5755.23,5315.22l-1.16.21-1.13-6.19,1.16-.21Z" transform="translate(-5688.24 -5223.98)"/><path class="cls-7" d="M5762,5310.79a3.47,3.47,0,0,1,0,1.3,3,3,0,0,1-.45,1.12,2.94,2.94,0,0,1-.87.84,3.63,3.63,0,0,1-2.56.47,3,3,0,0,1-1.11-.48,3,3,0,0,1-.82-0.89,3.67,3.67,0,0,1-.46-2.52,3,3,0,0,1,.46-1.12,3,3,0,0,1,.87-0.84,3.41,3.41,0,0,1,1.24-.47,3.38,3.38,0,0,1,1.32,0,3,3,0,0,1,1.11.48,3,3,0,0,1,.82.89A3.47,3.47,0,0,1,5762,5310.79Zm-1.18.22a2.91,2.91,0,0,0-.3-0.89,2,2,0,0,0-.51-0.62,1.69,1.69,0,0,0-.69-0.32,2.33,2.33,0,0,0-1.63.3,1.71,1.71,0,0,0-.54.55,2,2,0,0,0-.27.76,3.17,3.17,0,0,0,.33,1.83,1.94,1.94,0,0,0,.52.61,1.72,1.72,0,0,0,.7.32,2.34,2.34,0,0,0,1.63-.3,1.71,1.71,0,0,0,.54-0.54,1.92,1.92,0,0,0,.26-0.76A2.91,2.91,0,0,0,5760.81,5311Z" transform="translate(-5688.24 -5223.98)"/><path class="cls-7" d="M5763.07,5307.4h0.1l0.09,0,0.1,0.08,4,3.54c0-.1-0.06-0.19-0.08-0.29s0-.18-0.06-0.27l-0.69-3.76,1-.19,1.13,6.19-0.59.11a0.52,0.52,0,0,1-.23,0,0.5,0.5,0,0,1-.2-0.12l-4-3.53,0.07,0.27c0,0.09,0,.17.05,0.25l0.7,3.8-1,.19-1.13-6.19,0.6-.11Z" transform="translate(-5688.24 -5223.98)"/><polygon class="cls-8" points="114.2 144.52 110.92 141.24 101.46 150.7 92.01 141.24 88.73 144.52 98.19 153.98 88.73 163.43 92.01 166.71 101.46 157.25 110.92 166.71 114.2 163.43 104.74 153.98 114.2 144.52"/><polygon class="cls-8" points="114.2 144.52 110.92 141.24 101.46 150.7 92.01 141.24 88.73 144.52 98.19 153.98 88.73 163.43 92.01 166.71 101.46 157.25 110.92 166.71 114.2 163.43 104.74 153.98 114.2 144.52"/></svg>