<svg id="Interactive_elements" data-name="Interactive elements" xmlns="http://www.w3.org/2000/svg" viewBox="0 0 272.82 130.54"><defs><style>.cls-1{fill:#e8f3fc;}.cls-2{fill:#2e8bbd;}</style></defs><title>button_webcam-setup</title><path class="cls-1" d="M682.11,5320.14H438.32c-8,0-14.52,6.52-14.52,12.78v105c0,6.26,6.53,12.78,14.52,12.78H682.11c8,0,14.52-6.52,14.52-12.78v-105C696.62,5326.67,690.09,5320.14,682.11,5320.14Z" transform="translate(-423.8 -5320.14)"/><path class="cls-2" d="M493.5,5427.94H491l-4-13.78-4.1,13.78H480.4l-4.7-16.8h2.4l3.72,14.21,4.2-13.87h2.06l4.25,13.85,3.7-14.19h2.4Z" transform="translate(-423.8 -5320.14)"/><path class="cls-2" d="M500.68,5422.06c0.31,3.26,2.18,4.2,4.42,4.2a8.47,8.47,0,0,0,3.38-.7l0.29,1.7a9.4,9.4,0,0,1-3.94.91,5.94,5.94,0,0,1-6.36-6.22c0-3.29,2.11-6,5.76-6a4.7,4.7,0,0,1,5.06,5,6.73,6.73,0,0,1-.1,1.15h-8.52Zm0.19-1.49h6.19c0-1.66-.91-2.71-2.88-2.71A3.12,3.12,0,0,0,500.87,5420.57Z" transform="translate(-423.8 -5320.14)"/><path class="cls-2" d="M513.61,5426.45l-0.24,1.49h-1.92v-18h2.16v7.51a4.71,4.71,0,0,1,3.65-1.51c3.29,0,5.3,2.9,5.3,6.12,0,3.43-2.33,6.12-5.33,6.12A5,5,0,0,1,513.61,5426.45Zm-0.12-4.39c0,3,1.78,4.2,3.5,4.2,2.06,0,3.36-1.9,3.36-4.2s-1.3-4.2-3.36-4.2C515.27,5417.86,513.49,5419.23,513.49,5422.06Z" transform="translate(-423.8 -5320.14)"/><path class="cls-2" d="M524.12,5422c0-3.43,1.92-6.1,5.83-6.1a7.61,7.61,0,0,1,3.62.7l-0.34,1.94a6.87,6.87,0,0,0-3-.72c-2.62,0-3.86,1.56-3.86,4.18s1.25,4.25,3.86,4.25a7,7,0,0,0,3.07-.72l0.29,1.73a6,6,0,0,1-3.58.89C526.07,5428.18,524.12,5425.32,524.12,5422Z" transform="translate(-423.8 -5320.14)"/><path class="cls-2" d="M545.22,5428.18h-0.17c-2.09,0-2.54-.62-3-1.73a4.65,4.65,0,0,1-3.6,1.73,3.36,3.36,0,0,1-3.62-3.41c0-3.31,4-4.15,7-4.2,0-2.23-.91-2.71-2.57-2.71a5.12,5.12,0,0,0-3.1,1.06l-0.31-1.75a6.78,6.78,0,0,1,4-1.22c3,0,4.15,1.39,4.15,5.64v2.4c0,1.68.1,2.47,1.34,2.47h0.22Zm-3.38-6.12c-3.43.12-4.82,0.84-4.82,2.59a1.63,1.63,0,0,0,1.82,1.8,3.81,3.81,0,0,0,3-1.58v-2.81Z" transform="translate(-423.8 -5320.14)"/><path class="cls-2" d="M563.29,5427.94V5421c0-2.21-.82-3.17-2.76-3.17-2.76,0-3.12,1.94-3.12,3.26v6.82h-2.16v-6.48c0-2.88-1.13-3.6-2.76-3.6a3.4,3.4,0,0,0-3.12,1.54v8.54h-2.16v-11.76h1.68l0.24,1.25a4.72,4.72,0,0,1,3.53-1.49,4.17,4.17,0,0,1,4,2.35,4.42,4.42,0,0,1,4.3-2.35c3,0,4.51,1.61,4.51,5.06v6.94h-2.16Z" transform="translate(-423.8 -5320.14)"/><path class="cls-2" d="M573.42,5427.19l0.31-2.66a9,9,0,0,0,5.23,1.68c2.06,0,4-.7,4-2.59s-1.92-2.62-4.34-3.38c-2.78-.89-5.47-1.7-5.47-4.58,0-2.09,1.44-4.85,6-4.85a12.4,12.4,0,0,1,5.28,1.15l-0.24,2.42a10.89,10.89,0,0,0-4.82-1.51c-1.73,0-3.77.72-3.77,2.47,0,1.56,1.61,2.18,3.63,2.81,3,0.91,6.19,1.8,6.19,5.45,0,1.78-.74,4.68-6.55,4.68A12.54,12.54,0,0,1,573.42,5427.19Z" transform="translate(-423.8 -5320.14)"/><path class="cls-2" d="M589.16,5422.06c0.31,3.26,2.18,4.2,4.42,4.2a8.47,8.47,0,0,0,3.38-.7l0.29,1.7a9.4,9.4,0,0,1-3.94.91A5.94,5.94,0,0,1,587,5422c0-3.29,2.11-6,5.76-6a4.7,4.7,0,0,1,5.06,5,6.73,6.73,0,0,1-.1,1.15h-8.52Zm0.19-1.49h6.19c0-1.66-.91-2.71-2.88-2.71A3.12,3.12,0,0,0,589.35,5420.57Z" transform="translate(-423.8 -5320.14)"/><path class="cls-2" d="M606,5428.18H604a2.72,2.72,0,0,1-3.07-2.81v-7.51h-2l0.19-1.68h1.82v-2.9l2.16-.22v3.12h3.1v1.68h-3.1V5424c0,2.26.14,2.4,2.47,2.4h0.55Z" transform="translate(-423.8 -5320.14)"/><path class="cls-2" d="M613.71,5420.81v-9.67H616v8.57c0,3.31.7,6.5,4.68,6.5s4.68-3.22,4.68-6.5v-8.57h2.28v9.67c0,4.61-2.23,7.46-7,7.46S613.71,5425.42,613.71,5420.81Z" transform="translate(-423.8 -5320.14)"/><path class="cls-2" d="M632.6,5426.45v7.3h-2.16v-17.57h1.68l0.24,1.68a4.58,4.58,0,0,1,4-1.92c3.29,0,5.23,2.9,5.23,6.12,0,3.43-1.78,6.12-5.26,6.12A5.17,5.17,0,0,1,632.6,5426.45Zm-0.12-4.39c0,3,1.85,4.2,3.58,4.2,2.06,0,3.29-1.9,3.29-4.2s-1.22-4.2-3.29-4.2C634.33,5417.86,632.48,5419.23,632.48,5422.06Z" transform="translate(-423.8 -5320.14)"/><path class="cls-2" d="M577.83,5375.12h-2.28v-4.79a18.19,18.19,0,0,1-15.88-4.1H555a14.2,14.2,0,0,1-15,8.32v4.5h-0.86l-3-2v7l3-2.07H540v7.44a1.27,1.27,0,0,0,1.27,1.27h33a1.27,1.27,0,0,0,1.27-1.27v-6.26h2.28l6.26,3.67,0-15.47Z" transform="translate(-423.8 -5320.14)"/><path class="cls-2" d="M548.24,5349.64a12.49,12.49,0,1,0,4.57,17.07A12.49,12.49,0,0,0,548.24,5349.64Zm-14.81,10.14a2.59,2.59,0,1,1,3.54.95A2.59,2.59,0,0,1,533.43,5359.79Zm6.18,8.4a2.59,2.59,0,1,1,.95-3.54A2.59,2.59,0,0,1,539.61,5368.19Zm0-13.22a2.59,2.59,0,1,1,3.54.95A2.59,2.59,0,0,1,539.65,5355Zm7.85,13a2.59,2.59,0,1,1,.95-3.54A2.59,2.59,0,0,1,547.5,5368Zm2.25-7.66a2.59,2.59,0,1,1,.95-3.54A2.59,2.59,0,0,1,549.75,5360.31Z" transform="translate(-423.8 -5320.14)"/><path class="cls-2" d="M579.93,5338.22a16.53,16.53,0,1,0,6,22.58A16.53,16.53,0,0,0,579.93,5338.22Zm-19.6,13.42a3.43,3.43,0,1,1,4.68,1.26A3.43,3.43,0,0,1,560.34,5351.64Zm8.17,11.11a3.43,3.43,0,1,1,1.26-4.68A3.43,3.43,0,0,1,568.51,5362.75Zm0.06-17.49a3.43,3.43,0,1,1,4.68,1.26A3.43,3.43,0,0,1,568.57,5345.26Zm10.38,17.2a3.43,3.43,0,1,1,1.26-4.68A3.43,3.43,0,0,1,578.95,5362.46Zm3-10.13a3.43,3.43,0,1,1,1.26-4.68A3.43,3.43,0,0,1,581.92,5352.33Z" transform="translate(-423.8 -5320.14)"/></svg>