<svg id="Interactive_elements" data-name="Interactive elements" xmlns="http://www.w3.org/2000/svg" viewBox="0 0 272.82 130.54"><defs><style>.cls-1{fill:#e8f3fc;}.cls-2{fill:#2e8bbd;}</style></defs><title>button_contact</title><path class="cls-1" d="M1287.37,5320.14H1043.59c-8,0-14.52,6.52-14.52,12.78v105c0,6.26,6.53,12.78,14.52,12.78h243.78c8,0,14.52-6.52,14.52-12.78v-105C1301.89,5326.67,1295.35,5320.14,1287.37,5320.14Z" transform="translate(-1029.07 -5320.14)"/><path class="cls-2" d="M1126.62,5419.54c0-5.33,3.55-8.74,8.4-8.74a11.62,11.62,0,0,1,4.66,1l-0.24,2.11a12.84,12.84,0,0,0-4.42-1c-3.86,0-5.9,3-5.9,6.67s2,6.67,6,6.67a12.83,12.83,0,0,0,4.37-1l0.24,2.11a11.87,11.87,0,0,1-4.63,1C1130.17,5428.27,1126.62,5424.87,1126.62,5419.54Z" transform="translate(-1029.07 -5320.14)"/><path class="cls-2" d="M1140.9,5422.06c0-3.41,2.14-6.12,5.83-6.12s5.83,2.71,5.83,6.12-2.16,6.12-5.83,6.12S1140.9,5425.47,1140.9,5422.06Zm2.21,0c0,2.64,1.3,4.2,3.62,4.2s3.62-1.56,3.62-4.2-1.3-4.2-3.62-4.2S1143.11,5419.42,1143.11,5422.06Z" transform="translate(-1029.07 -5320.14)"/><path class="cls-2" d="M1163.24,5427.94v-6.48c0-2.5-.84-3.6-3.07-3.6a3.56,3.56,0,0,0-3.22,1.54v8.54h-2.16v-11.76h1.68l0.24,1.25a5.48,5.48,0,0,1,3.89-1.49c3.43,0,4.8,2.14,4.8,5.52v6.48h-2.16Z" transform="translate(-1029.07 -5320.14)"/><path class="cls-2" d="M1174,5428.18h-1.94a2.72,2.72,0,0,1-3.07-2.81v-7.51h-2l0.19-1.68H1169v-2.9l2.16-.22v3.12h3.1v1.68h-3.1V5424c0,2.26.14,2.4,2.47,2.4h0.55Z" transform="translate(-1029.07 -5320.14)"/><path class="cls-2" d="M1185.63,5428.18h-0.17c-2.09,0-2.54-.62-3-1.73a4.65,4.65,0,0,1-3.6,1.73,3.36,3.36,0,0,1-3.62-3.41c0-3.31,4-4.15,7-4.2,0-2.23-.91-2.71-2.57-2.71a5.12,5.12,0,0,0-3.1,1.06l-0.31-1.75a6.78,6.78,0,0,1,4-1.22c3,0,4.15,1.39,4.15,5.64v2.4c0,1.68.1,2.47,1.34,2.47H1186Zm-3.38-6.12c-3.43.12-4.82,0.84-4.82,2.59a1.63,1.63,0,0,0,1.82,1.8,3.81,3.81,0,0,0,3-1.58v-2.81Z" transform="translate(-1029.07 -5320.14)"/><path class="cls-2" d="M1187,5422c0-3.43,1.92-6.1,5.83-6.1a7.61,7.61,0,0,1,3.62.7l-0.34,1.94a6.87,6.87,0,0,0-3-.72c-2.62,0-3.86,1.56-3.86,4.18s1.25,4.25,3.86,4.25a7,7,0,0,0,3.07-.72l0.29,1.73a6,6,0,0,1-3.58.89C1188.9,5428.18,1187,5425.32,1187,5422Z" transform="translate(-1029.07 -5320.14)"/><path class="cls-2" d="M1204.52,5428.18h-1.94a2.72,2.72,0,0,1-3.07-2.81v-7.51h-2l0.19-1.68h1.82v-2.9l2.16-.22v3.12h3.1v1.68h-3.1V5424c0,2.26.14,2.4,2.47,2.4h0.55Z" transform="translate(-1029.07 -5320.14)"/><path class="cls-2" d="M1158.44,5362.22a18.29,18.29,0,0,1,5.47-12.79,30.48,30.48,0,0,0-12.26-2.51c-14.25,0-25.81,9.4-25.81,21a19,19,0,0,0,6.93,14.28l-1,8.52,8.87-3.85a30.59,30.59,0,0,0,11,2c8.4,0,15.86-3.27,20.58-8.32C1164,5377.16,1158.44,5370.22,1158.44,5362.22Z" transform="translate(-1029.07 -5320.14)"/><path class="cls-2" d="M1183.81,5345.15c11.69,0,21.17,7.71,21.17,17.22a15.58,15.58,0,0,1-5.68,11.71l0.8,7-7.28-3.16a25.1,25.1,0,0,1-9,1.67c-11.69,0-21.17-7.71-21.17-17.22S1172.12,5345.15,1183.81,5345.15Z" transform="translate(-1029.07 -5320.14)"/></svg>