<svg id="Interactive_elements" data-name="Interactive elements" xmlns="http://www.w3.org/2000/svg" viewBox="0 0 272.82 130.54"><defs><style>.cls-1{fill:#e8f3fc;}.cls-2{fill:#2e8bbd;}</style></defs><title>button_course-curriculum</title><path class="cls-1" d="M682.11,5150H438.32c-8,0-14.52,6.52-14.52,12.78v105c0,6.26,6.53,12.78,14.52,12.78H682.11c8,0,14.52-6.52,14.52-12.78v-105C696.62,5156.49,690.09,5150,682.11,5150Z" transform="translate(-423.8 -5149.97)"/><path class="cls-2" d="M574.84,5172.58h-4.49v3.16h2.92V5213H549.43v-37.25h7v-3.16H545.37c-2,0-4.09,1.07-4.09,3.48v36.62c0,2.4,2.05,3.47,4.09,3.47h29.47a1.58,1.58,0,0,0,1.58-1.58v-40.41A1.58,1.58,0,0,0,574.84,5172.58Z" transform="translate(-423.8 -5149.97)"/><path class="cls-2" d="M558.76,5197.42a0.71,0.71,0,0,0,.24,0h0.07l0.17,0,0.07,0a0.64,0.64,0,0,0,.2-0.13l3.88-3.88,3.89,3.88a0.64,0.64,0,0,0,.2.13l0.07,0,0.17,0h0.07a0.64,0.64,0,0,0,.46-0.2,0.68,0.68,0,0,0,.2-0.49v-25.44a0.68,0.68,0,0,0-.69-0.69H559a0.72,0.72,0,0,0-.19,0h-0.08a0.69,0.69,0,0,0-.42.63v25.44A0.69,0.69,0,0,0,558.76,5197.42Z" transform="translate(-423.8 -5149.97)"/><path class="cls-2" d="M466.89,5246.18c0-5.33,3.55-8.74,8.4-8.74a11.62,11.62,0,0,1,4.66,1l-0.24,2.11a12.84,12.84,0,0,0-4.42-1c-3.86,0-5.9,3-5.9,6.67s2,6.67,6,6.67a12.83,12.83,0,0,0,4.37-1l0.24,2.11a11.87,11.87,0,0,1-4.63,1C470.44,5254.92,466.89,5251.51,466.89,5246.18Z" transform="translate(-423.8 -5149.97)"/><path class="cls-2" d="M481.17,5248.7c0-3.41,2.14-6.12,5.83-6.12s5.83,2.71,5.83,6.12-2.16,6.12-5.83,6.12S481.17,5252.11,481.17,5248.7Zm2.21,0c0,2.64,1.3,4.2,3.62,4.2s3.62-1.56,3.62-4.2-1.3-4.2-3.62-4.2S483.37,5246.06,483.37,5248.7Z" transform="translate(-423.8 -5149.97)"/><path class="cls-2" d="M502.79,5254.58l-0.24-1.3a3.64,3.64,0,0,1-3.26,1.54c-2.76,0-4.34-1.63-4.34-5.16v-6.84h2.16v6.24c0,2.5.79,3.84,2.74,3.84a3.07,3.07,0,0,0,2.71-1.34v-8.74h2.16v11.76h-1.92Z" transform="translate(-423.8 -5149.97)"/><path class="cls-2" d="M513.37,5244.77h-0.74a3.58,3.58,0,0,0-2.69,1.51v8.3h-2.3v-11.76h1.78l0.26,1.94c1.42-1.61,2.54-2.38,4-2.38h0.19Z" transform="translate(-423.8 -5149.97)"/><path class="cls-2" d="M514.65,5253.79l0.26-2.09a5.85,5.85,0,0,0,3.67,1.2c1.51,0,2.35-.53,2.35-1.46,0-1.22-1.39-1.68-2.35-1.94-1.61-.43-3.7-1-3.7-3.38,0-1.8,1.2-3.53,4.42-3.53a6.51,6.51,0,0,1,3.19.77l-0.26,2a4.25,4.25,0,0,0-2.88-1c-1.34,0-2.28.48-2.28,1.58s0.89,1.39,2.74,1.94c1.15,0.34,3.36,1.06,3.36,3.5,0,1.56-.89,3.5-4.49,3.5A7.35,7.35,0,0,1,514.65,5253.79Z" transform="translate(-423.8 -5149.97)"/><path class="cls-2" d="M526.77,5248.7c0.31,3.26,2.18,4.2,4.42,4.2a8.47,8.47,0,0,0,3.38-.7l0.29,1.7a9.4,9.4,0,0,1-3.94.91,5.94,5.94,0,0,1-6.36-6.22c0-3.29,2.11-6,5.76-6a4.7,4.7,0,0,1,5.06,5,6.73,6.73,0,0,1-.1,1.15h-8.52Zm0.19-1.49h6.19c0-1.66-.91-2.71-2.88-2.71A3.12,3.12,0,0,0,527,5247.22Z" transform="translate(-423.8 -5149.97)"/><path class="cls-2" d="M542.44,5246.18c0-5.33,3.55-8.74,8.4-8.74a11.62,11.62,0,0,1,4.66,1l-0.24,2.11a12.84,12.84,0,0,0-4.42-1c-3.86,0-5.9,3-5.9,6.67s2,6.67,6,6.67a12.83,12.83,0,0,0,4.37-1l0.24,2.11a11.87,11.87,0,0,1-4.63,1C546,5254.92,542.44,5251.51,542.44,5246.18Z" transform="translate(-423.8 -5149.97)"/><path class="cls-2" d="M565.12,5254.58l-0.24-1.3a3.64,3.64,0,0,1-3.26,1.54c-2.76,0-4.34-1.63-4.34-5.16v-6.84h2.16v6.24c0,2.5.79,3.84,2.74,3.84a3.07,3.07,0,0,0,2.71-1.34v-8.74H567v11.76h-1.92Z" transform="translate(-423.8 -5149.97)"/><path class="cls-2" d="M575.7,5244.77H575a3.58,3.58,0,0,0-2.69,1.51v8.3H570v-11.76h1.78l0.26,1.94c1.42-1.61,2.54-2.38,4-2.38h0.19Z" transform="translate(-423.8 -5149.97)"/><path class="cls-2" d="M583.4,5244.77h-0.74a3.58,3.58,0,0,0-2.69,1.51v8.3h-2.3v-11.76h1.78l0.26,1.94c1.42-1.61,2.54-2.38,4-2.38h0.19Z" transform="translate(-423.8 -5149.97)"/><path class="cls-2" d="M585.37,5240.18v-2.4h2.16v2.4h-2.16Zm0,14.4v-11.76h2.16v11.76h-2.16Z" transform="translate(-423.8 -5149.97)"/><path class="cls-2" d="M589.79,5248.68c0-3.43,1.92-6.1,5.83-6.1a7.61,7.61,0,0,1,3.62.7l-0.34,1.94a6.87,6.87,0,0,0-3-.72c-2.62,0-3.86,1.56-3.86,4.18s1.25,4.25,3.86,4.25a7,7,0,0,0,3.07-.72l0.29,1.73a6,6,0,0,1-3.58.89C591.73,5254.82,589.79,5252,589.79,5248.68Z" transform="translate(-423.8 -5149.97)"/><path class="cls-2" d="M609.08,5254.58l-0.24-1.3a3.64,3.64,0,0,1-3.26,1.54c-2.76,0-4.34-1.63-4.34-5.16v-6.84h2.16v6.24c0,2.5.79,3.84,2.74,3.84a3.07,3.07,0,0,0,2.71-1.34v-8.74H611v11.76h-1.92Z" transform="translate(-423.8 -5149.97)"/><path class="cls-2" d="M617.65,5254.82H617c-2.28,0-3-1.42-3-2.83v-15.41h2.16v14.16c0,2,.24,2.35,1.9,2.35Z" transform="translate(-423.8 -5149.97)"/><path class="cls-2" d="M627.32,5254.58l-0.24-1.3a3.64,3.64,0,0,1-3.26,1.54c-2.76,0-4.34-1.63-4.34-5.16v-6.84h2.16v6.24c0,2.5.79,3.84,2.74,3.84a3.07,3.07,0,0,0,2.71-1.34v-8.74h2.16v11.76h-1.92Z" transform="translate(-423.8 -5149.97)"/><path class="cls-2" d="M648.25,5254.58v-6.91c0-2.21-.82-3.17-2.76-3.17-2.76,0-3.12,1.94-3.12,3.26v6.82h-2.16v-6.48c0-2.88-1.13-3.6-2.76-3.6a3.4,3.4,0,0,0-3.12,1.54v8.54h-2.16v-11.76h1.68l0.24,1.25a4.72,4.72,0,0,1,3.53-1.49,4.17,4.17,0,0,1,4,2.35,4.42,4.42,0,0,1,4.3-2.35c3,0,4.51,1.61,4.51,5.06v6.94h-2.16Z" transform="translate(-423.8 -5149.97)"/></svg>