<svg id="Interactive_elements" data-name="Interactive elements" xmlns="http://www.w3.org/2000/svg" viewBox="0 0 86.22 86.22"><defs><style>.cls-1{fill:#2e8bbd;}.cls-2{fill:#fff;}</style></defs><title>question_icon</title><circle class="cls-1" cx="43.11" cy="43.11" r="43.11"/><path class="cls-2" d="M10034.13,6146.88a26.92,26.92,0,0,1,2.9-2.22,20.77,20.77,0,0,1,3.4-1.83,21.16,21.16,0,0,1,4-1.23,22.63,22.63,0,0,1,4.63-.45,19.28,19.28,0,0,1,6.17.93,13.86,13.86,0,0,1,4.76,2.66,11.87,11.87,0,0,1,3.07,4.18,13.37,13.37,0,0,1,1.09,5.48,13.86,13.86,0,0,1-.86,5.11,14.08,14.08,0,0,1-2.16,3.75,17.14,17.14,0,0,1-2.82,2.76l-2.88,2.2a22.71,22.71,0,0,0-2.35,2,4,4,0,0,0-1.19,2.24l-0.89,5.68h-6.57l-0.66-6.34a1.69,1.69,0,0,1,0-.33v-0.33a5.18,5.18,0,0,1,.86-3,12.15,12.15,0,0,1,2.14-2.37q1.28-1.11,2.76-2.16a24.83,24.83,0,0,0,2.76-2.28,11.46,11.46,0,0,0,2.14-2.78,7.47,7.47,0,0,0,.86-3.66,5.78,5.78,0,0,0-.53-2.51,5.67,5.67,0,0,0-1.46-1.91,6.55,6.55,0,0,0-2.24-1.23,9,9,0,0,0-2.82-.43,12.58,12.58,0,0,0-3.75.49,13.87,13.87,0,0,0-2.61,1.09q-1.07.6-1.81,1.09a2.49,2.49,0,0,1-1.32.49,2.12,2.12,0,0,1-2-1.17Zm7.35,45.86a6,6,0,0,1,.45-2.29,5.49,5.49,0,0,1,1.24-1.87,6.12,6.12,0,0,1,1.89-1.24,5.86,5.86,0,0,1,2.33-.47,5.77,5.77,0,0,1,2.29.47,5.73,5.73,0,0,1,3.11,3.11,5.92,5.92,0,0,1,0,4.61,5.94,5.94,0,0,1-1.25,1.85,5.62,5.62,0,0,1-1.87,1.23,6,6,0,0,1-2.29.45,6.09,6.09,0,0,1-2.33-.45,5.83,5.83,0,0,1-1.89-1.23,5.52,5.52,0,0,1-1.24-1.85A5.92,5.92,0,0,1,10041.48,6192.73Z" transform="translate(-10004.79 -6124.98)"/></svg>