<svg id="Interactive_elements" data-name="Interactive elements" xmlns="http://www.w3.org/2000/svg" viewBox="0 0 34.75 56.67"><defs><style>.cls-1{fill:#2e8bbd;}</style></defs><title>icon_microphone</title><path class="cls-1" d="M1987.5,5242.84v2.67a10.28,10.28,0,0,0,10.36,9.93c5.84,0,10.35-5.06,10.35-9.93v-2.58a13.49,13.49,0,0,0,2.28-.61v-4.58c0-.62-1.25-1.2-2.05-1.71v-18c0-4.19-4.74-5.11-10.58-5.11s-10.58.93-10.58,5.11v18c-0.8.52-1.81,1.1-1.81,1.71v4.58A8.57,8.57,0,0,0,1987.5,5242.84Z" transform="translate(-1980.49 -5212.87)"/><path class="cls-1" d="M2012.08,5245.48v-1.88h0.5a2.65,2.65,0,1,0,0-5.3h-2.37v7.19a12.36,12.36,0,1,1-24.71,0v-7.19h-2.37a2.65,2.65,0,1,0,0,5.3h0.5v1.88a14.24,14.24,0,0,0,12.72,14.14v2.9c-7.74.19-13.77,1.68-13.77,3.5s6.9,3.52,15.42,3.52,15.42-1.58,15.42-3.52-6.19-3.35-14.07-3.5v-2.9A14.24,14.24,0,0,0,2012.08,5245.48Z" transform="translate(-1980.49 -5212.87)"/></svg>