<svg id="Interactive_elements" data-name="Interactive elements" xmlns="http://www.w3.org/2000/svg" viewBox="0 0 32.12 47.28"><defs><style>.cls-1{fill:#2e8bbd;}</style></defs><title>icon_unlock</title><path class="cls-1" d="M1177.46,5189.62h-2v-10.74a10,10,0,1,0-20,0v3.7h4.29v-3.7a5.73,5.73,0,1,1,11.46,0v10.74h-17.78a4,4,0,0,0-4,4v18.5a4,4,0,0,0,4,4h24.11a4,4,0,0,0,4-4v-18.5A4,4,0,0,0,1177.46,5189.62Zm-10,20h-4.19l-0.79-6.67a2.89,2.89,0,0,1,5.77,0Z" transform="translate(-1149.35 -5168.86)"/></svg>