<svg id="Interactive_elements" data-name="Interactive elements" xmlns="http://www.w3.org/2000/svg" viewBox="0 0 58.7 54.71"><defs><style>.cls-1{fill:#2e8bbd;}</style></defs><title>icon_camera</title><path class="cls-1" d="M5298.77,5216.78h-2.28V5212a18.19,18.19,0,0,1-15.88-4.1h-4.67a14.2,14.2,0,0,1-15,8.32v4.5h-0.86l-3-2v7l3-2.07h0.86v7.44a1.27,1.27,0,0,0,1.27,1.27h33a1.27,1.27,0,0,0,1.27-1.27v-6.26h2.28l6.26,3.67,0-15.47Z" transform="translate(-5250.45 -5177.67)"/><path class="cls-1" d="M5269.19,5191.31a12.49,12.49,0,1,0,4.57,17.07A12.49,12.49,0,0,0,5269.19,5191.31Zm-14.81,10.14a2.59,2.59,0,1,1,3.54.95A2.59,2.59,0,0,1,5254.37,5201.45Zm6.18,8.4a2.59,2.59,0,1,1,.95-3.54A2.59,2.59,0,0,1,5260.55,5209.85Zm0-13.22a2.59,2.59,0,1,1,3.54.95A2.59,2.59,0,0,1,5260.6,5196.63Zm7.85,13a2.59,2.59,0,1,1,.95-3.54A2.59,2.59,0,0,1,5268.44,5209.63Zm2.25-7.66a2.59,2.59,0,1,1,.95-3.54A2.59,2.59,0,0,1,5270.69,5202Z" transform="translate(-5250.45 -5177.67)"/><path class="cls-1" d="M5300.88,5179.89a16.53,16.53,0,1,0,6,22.58A16.53,16.53,0,0,0,5300.88,5179.89Zm-19.6,13.42a3.43,3.43,0,1,1,4.68,1.26A3.43,3.43,0,0,1,5281.28,5193.3Zm8.17,11.11a3.43,3.43,0,1,1,1.26-4.68A3.43,3.43,0,0,1,5289.46,5204.41Zm0.06-17.49a3.43,3.43,0,1,1,4.68,1.26A3.43,3.43,0,0,1,5289.51,5186.92Zm10.38,17.2a3.43,3.43,0,1,1,1.26-4.68A3.43,3.43,0,0,1,5299.89,5204.13Zm3-10.13a3.43,3.43,0,1,1,1.26-4.68A3.43,3.43,0,0,1,5302.87,5194Z" transform="translate(-5250.45 -5177.67)"/></svg>