<svg id="Interactive_elements" data-name="Interactive elements" xmlns="http://www.w3.org/2000/svg" xmlns:xlink="http://www.w3.org/1999/xlink" viewBox="0 0 184.23 166.92"><defs><style>.cls-1{fill:#e8f3fc;}.cls-2{fill:url(#linear-gradient);}.cls-3{fill:#14608a;}.cls-4{fill:#34566a;}.cls-5{fill:#012c45;}.cls-6{fill:#badef5;}.cls-7{fill:#c53a43;}</style><linearGradient id="linear-gradient" x1="101.77" y1="40.8" x2="101.77" y2="129.29" gradientUnits="userSpaceOnUse"><stop offset="0" stop-color="#dbedfa"/><stop offset="1" stop-color="#badef5"/></linearGradient></defs><title>lighting_poor</title><rect class="cls-1" x="0.24" width="183.98" height="129.03"/><polygon class="cls-2" points="44.94 53.42 19.47 129.29 184.07 128.41 184.07 84.16 65.49 40.8 44.94 53.42"/><rect class="cls-3" y="120.56" width="184.07" height="8.85"/><path class="cls-4" d="M7384.53,5315.34c1.65,0.51,21.14-7,18.52-18.71-0.85-3.77-22.83-16.92-16.17-55.29,1.92-11.08,1.93-15,21.88-14s36.06-8.67,35.37,22.5c-0.45,20.33-9,30.79-12.5,37.25-2.19,4-5.9,5.88-5.56,7.93,2.7,16,22.28,21.91,22.28,21.91L7422.51,5331Z" transform="translate(-7301.81 -5213.67)"/><path class="cls-5" d="M7450.48,5267.22a38.13,38.13,0,0,0-1-23.45c-0.42-5.49-1.54-10.05-3.23-12.8-12.74-20.63-39.61-5.74-39.61-5.74s-11.46-4.39-18.67,2.14l-0.49.31a28,28,0,0,0-10.71,13.48,12.76,12.76,0,0,1,4.3-3.93,24.19,24.19,0,0,0-1.82,9,25.53,25.53,0,0,0-.69,6.43,20.72,20.72,0,0,1,.95-3,22.08,22.08,0,0,0,1.16,4.43c1.59,4.23-.45,14.74,4.81,25.09a29.32,29.32,0,0,0,4.71,12.22,43.07,43.07,0,0,1-.45-5.93,35,35,0,0,0,4.5,4.31,50.68,50.68,0,0,0,2.9,4.57c-0.29-1.06-.62-2.1-1-3.13a50.57,50.57,0,0,0,8.88,5,9.36,9.36,0,0,0-2.89-4.08c-14.41-11.49-12-36.77-6.3-44.07,9-11.49,12.6,1.91,36,5.74,8,1.32,7.29,27.9-4.26,37.81-1.84,1.58-1.56,2.78-1.93,5.34,9.83-2.33,14.91-10.16,19-20.42,0,1.85-.07,3.69-0.25,5.53a22.78,22.78,0,0,0,4.13-12.08,48,48,0,0,0-.06-7.24q0.31-1.77.54-3.53a19.36,19.36,0,0,1,1.48,7.94" transform="translate(-7301.81 -5213.67)"/><path class="cls-5" d="M7458.82,5342.76c-0.52-9.89-1.25-21.17-2-23.55-2.36-7.57-19-9-19-9s-11.07,12.75-22.86,12.75-20.21-13.53-20.21-13.53-13.33,1-19.5,8c-2.36,2.7-3.5,14.85-4,25.25h87.65Z" transform="translate(-7301.81 -5213.67)"/><polygon class="cls-5" points="45.44 42.39 16.58 70.03 12.89 65.73 42.49 39.85 45.44 42.39"/><polygon class="cls-5" points="34.1 115.14 14.74 68.8 17.93 66.15 38.05 115.14 34.1 115.14"/><path class="cls-5" d="M7340.5,5251.64l6.09,7.92a19.73,19.73,0,0,0-1.92,7.35,20.64,20.64,0,0,0,1.16,6.52s10.39-.67,15.52-4.72,9-12.9,9-12.9-4.24-4.8-9.72-4.16a36,36,0,0,0-7.63,2.08l-4.86-7.63-3,1.59-2.4-3.43-2.68,1.92,2.88,3.09Z" transform="translate(-7301.81 -5213.67)"/><circle class="cls-5" cx="15.77" cy="67.01" r="5.22"/><path class="cls-5" d="M7358.91,5334.34s-2.37-4.74-18.16-5.53-25.27,5.53-25.27,5.53h43.44Z" transform="translate(-7301.81 -5213.67)"/><ellipse class="cls-6" cx="7358.37" cy="5264.96" rx="15.17" ry="5.12" transform="translate(-8991.3 13.03) rotate(-35.34)"/><polygon class="cls-7" points="105.77 144.73 102.5 141.46 93.04 150.91 83.58 141.46 80.31 144.73 89.77 154.19 80.31 163.65 83.58 166.92 93.04 157.46 102.5 166.92 105.77 163.65 96.31 154.19 105.77 144.73"/></svg>