<svg id="Interactive_elements" data-name="Interactive elements" xmlns="http://www.w3.org/2000/svg" xmlns:xlink="http://www.w3.org/1999/xlink" viewBox="0 0 183.98 165.93"><defs><style>.cls-1{fill:none;}.cls-2{fill:#e8f3fc;}.cls-3{clip-path:url(#clip-path);}.cls-4{fill:#badef5;}.cls-5,.cls-7{fill:#2e8bbd;}.cls-6{fill:#14608a;}.cls-7{stroke:#fff;stroke-width:1px;}</style><clipPath id="clip-path" transform="translate(-10758.95 -5213.29)"><rect class="cls-1" x="10758.95" y="5213.29" width="183.98" height="129.03"/></clipPath></defs><title>posture_good</title><rect class="cls-2" width="183.98" height="129.03"/><g class="cls-3"><path class="cls-4" d="M10825,5263.06s-7.31-7.94-4.38,5.15c1.1,4.92,8.82,10,8.82,10s1.58,9.49,6,13,3,2,3,2l-0.88,15.17-12.83,4.48,24.39,13.38,29.16-11.91-12.35-7-0.85-11.84s5.51-4.68,8-8.54,4-14.06,4-14.06,1.94-.17,3.93-9.61c2.14-10.18-3.52-5.55-3.52-5.55l-4.57-21.86-45,4.59Z" transform="translate(-10758.95 -5213.29)"/><path class="cls-5" d="M10836.46,5308.68s-31.3,7-36.55,12.41-7,9.22-7.88,18.43c-0.42,4.32-1,22.48-1,22.48l121.07,0.34s-0.53-21.85-.53-26.19-0.7-10.38-6-15.8-38.39-12.28-38.39-12.28a22.07,22.07,0,0,1-16.47,7.68c-10.51,0-14.31-7.08-14.31-7.08" transform="translate(-10758.95 -5213.29)"/><path class="cls-6" d="M10827.11,5280.06c3,8.57,13.91,21.08,23.94,20.53s15.73-4,20.52-10.69,6.29-33,5.46-39.31c-0.37-2.76-2.87-4.58-2.62,1.37,0.81,19.34-3.66,23.79-5.16,26.78-2.65,5.3-10.59-.65-19.16-0.42s-14.09,7.15-18.8,1.76c-0.86-1-4.89-8.56-5.68-23-0.16-2.94-1.32-7.87-1.91-8-2-.4.62,25.38,3.41,31" transform="translate(-10758.95 -5213.29)"/><path class="cls-6" d="M10879,5239.21c-2-7.34-8.44-18.16-29.17-17.56s-28.46,14.86-30.73,21.9c-1.74,5.4,2.87,16.82,4.75,21.23,0.57,1.34,4.76-12.71,4.76-12.71s8.87,6.43,17.89,5.94a19.67,19.67,0,0,0,7.69-2.59c-0.66,1.85-1.22,3.35-1.54,4.21,2.28-1.51,4.14-4.08,5.85-6.82,1.65-1.11,3.24-2.28,4.69-3.41a24.13,24.13,0,0,1-2.92,8,44.82,44.82,0,0,0,8.9-13c0.65-.59,1-0.94,1-0.94l6.85,18.25s4-15.12,2-22.46" transform="translate(-10758.95 -5213.29)"/></g><path class="cls-5" d="M10832.68,5365.55s3.86-.22,4.52-0.88,1.87-3.76,3.15-5.13c1-1,1.93-1.27,2.48-2s3.09-6.62,3.09-6.62,0.77-1.32,1.66-1.32,2.1,1.21,1.88,3.09a45.84,45.84,0,0,1-1.1,5.63c-0.22.66-.33,2.32,0.22,2.43s5,0.76,6.07.77c1.7,0,3.87-.15,3.86,2.43,0,2.87-1.1,2.87-1.1,2.87a2.21,2.21,0,0,1,.77,2,3.1,3.1,0,0,1-1.32,2.32s0.87,0.4.54,1.95a2.49,2.49,0,0,1-1.53,1.91,2,2,0,0,1-.55,2.1c-1,.66-4.63,2-10.15,1.1s-5.63-1.21-6.73-1.21-5,.33-5,0.33Z" transform="translate(-10758.95 -5213.29)"/><rect class="cls-7" x="10829.55" y="5364.22" width="5.84" height="14.19" transform="translate(-11238.88 -4110.83) rotate(-5.7)"/></svg>