<svg id="Interactive_elements" data-name="Interactive elements" xmlns="http://www.w3.org/2000/svg" xmlns:xlink="http://www.w3.org/1999/xlink" viewBox="0 0 183.98 173.72"><defs><style>.cls-1{fill:none;}.cls-2{fill:#e8f3fc;}.cls-3{clip-path:url(#clip-path);}.cls-4{fill:#badef5;}.cls-5{fill:#2e8bbd;}.cls-6{fill:#14608a;}.cls-7{fill:#c53a43;}</style><clipPath id="clip-path" transform="translate(-10535.98 -5213.29)"><rect class="cls-1" x="10535.98" y="5213.29" width="183.98" height="129.03"/></clipPath></defs><title>posture_poor</title><rect class="cls-2" width="183.98" height="129.03"/><rect class="cls-2" width="183.98" height="129.03"/><g class="cls-3"><polygon class="cls-4" points="106.53 106.76 75.32 114.85 67.21 81.06 92.88 75.32 106.53 106.76"/><path class="cls-5" d="M10604.7,5304.88s-34.73.66-38.82,10.12c-3.79,8.76-6.31,30-13.25,45.8-0.4.91,1.54,3.42,4.73,4.24,2.21,10.73,21.13,16.33,21.13,16.33l81.31,0.31-29.32-42.36s46.67-12.76,45.71-16.41c-3.61-13.68-39.52-16.5-39.52-16.5s-7.11,9.41-17.82,9.41S10604.7,5304.88,10604.7,5304.88Z" transform="translate(-10535.98 -5213.29)"/><path class="cls-4" d="M10582.5,5276.24c0.77,9.77-2.48,35.91,39.18,26.36,12.11-1.42,16.12-14.29,15.65-20.25,0,0,4.91-3,6.61-5.77,1.28-2.1,2.2-10.69-6.94-8.89-2.51-3.9-8.18-20.59-8.18-20.59l-13.41-3.36-21.15.79S10581.43,5262.71,10582.5,5276.24Z" transform="translate(-10535.98 -5213.29)"/><path class="cls-6" d="M10600.61,5301.13a31.51,31.51,0,0,1-8-10.43c-2.44-4.6-5.08-12.86-5.68-14.48-2.23-6-5.88-4.75-4.81-4.53a4.4,4.4,0,0,1,2.77,2.67c2.16,4.67,4.4,13.74,7.06,18.26a41.36,41.36,0,0,0,9.83,11.86c2.28,2,7,7.08,7,7.08a11.49,11.49,0,0,1,.75-1.92C10615.83,5300.77,10608.72,5308.31,10600.61,5301.13Z" transform="translate(-10535.98 -5213.29)"/><path class="cls-5" d="M10578.49,5381.36l81.31,0.31a44.35,44.35,0,0,1,.06-13.31,63.8,63.8,0,0,0,1.26-8.31l1.78,5.34,24.25-3.31s-10-35.53-11-39.18c-3.61-13.68-39.52-16.5-39.52-16.5" transform="translate(-10535.98 -5213.29)"/><path class="cls-4" d="M10599.09,5302.07c-10.36-5.11-17.84-28.59-17.84-28.59s-2-2.75-4.07-1.54,0.07,6.09-.23,8.53-2.12,5.43,0,9.23,3.94,11.13,12.73,16.83c0,0-3.38,10.31-10.71,28-3.5,8.43-8.24,15.68-11.7,22.64a48,48,0,0,0-3.64,11.87c-0.24,1.25-1.87.79-1.63-.45q0.55-2.87,1.29-5.7a19,19,0,0,0-2.58,1s-4.62,12.73,3.64,17.9c5.6,12.76,26.23-.62,30-7.15,3.94-6.79.44-43.5,7.58-56.63C10601.94,5317.92,10609.44,5307.18,10599.09,5302.07Z" transform="translate(-10535.98 -5213.29)"/><path class="cls-6" d="M10641.32,5267.71c0.51-11.89-6.37-34.63-26.2-30.11-8.69-3.52-29.7,2.87-36.31,11.71-3,4.07-3.4,8.14-3.27,13.22s5.23,21.39,9.58,24c-1.47-4.53-3.88-11.53-1.92-15.87,0.88-2,2.71-6.29,4.81-6.73,1.4-.3,5.87,1,7.21,1.44,8.88,3.25,6.88,16.91,4,25,2.85-4.27,11.75-17.1,10.26-26.59,5.56,0.63,5.42,9.85,5.42,16.62,3.92-5.34,8.19-12.82,6.41-18.52,6.82,0.9,8.84,1.78,11.46,12.9,0.4,1.7,3.58,1.24,4.21-1.86C10635.47,5265.73,10641.32,5267.71,10641.32,5267.71Z" transform="translate(-10535.98 -5213.29)"/><path class="cls-6" d="M10632.32,5272.74c-0.69,8.26-2.3,13.79-4.14,17.93s-19.93-5-27.58,6.44c-2.76,4.14,4.57,10.82,9,12.54s19.55-3.8,23.69-13,4.75-15.79,3.75-23.76S10632.78,5267.23,10632.32,5272.74Z" transform="translate(-10535.98 -5213.29)"/></g><polygon class="cls-7" points="105.07 144.15 101.79 140.87 92.34 150.33 82.88 140.87 79.61 144.15 89.06 153.6 79.61 163.06 82.88 166.34 92.34 156.88 101.79 166.34 105.07 163.06 95.61 153.6 105.07 144.15"/></svg>