<svg id="Interactive_elements" data-name="Interactive elements" xmlns="http://www.w3.org/2000/svg" viewBox="0 0 264.97 83.91"><defs><style>.cls-1{fill:#2e8bbd;}.cls-2{fill:#fff;}</style></defs><title>eye-communication-fill</title><path class="cls-1" d="M4333.8,7092.18H4088.24c-5.34,0-9.7,4.36-9.7,8.54v66.83c0,4.18,4.37,8.54,9.7,8.54H4333.8c5.34,0,9.7-4.36,9.7-8.54v-66.83C4343.51,7096.54,4339.14,7092.18,4333.8,7092.18Z" transform="translate(-4078.54 -7092.18)"/><path class="cls-2" d="M4213.08,7110.71a9.45,9.45,0,1,0,9.5,9.45A9.49,9.49,0,0,0,4213.08,7110.71Zm0,17.91a8.45,8.45,0,1,1,8.5-8.45A8.49,8.49,0,0,1,4213.08,7128.62Z" transform="translate(-4078.54 -7092.18)"/><path class="cls-2" d="M4213.08,7115.06a5.11,5.11,0,1,0,5.13,5.11A5.13,5.13,0,0,0,4213.08,7115.06Zm-4,4.83a5.52,5.52,0,0,1,1-2.22,4.81,4.81,0,0,1,2.08-1.47l0.87,4.08Z" transform="translate(-4078.54 -7092.18)"/><path class="cls-2" d="M4233.93,7119.34c-6.34-6.84-12.84-9.09-20.1-9.09-12.3,0-21.31,9-21.68,9.49a1,1,0,0,0,0,1.23c7.3,8.13,13.9,9.49,21.16,9.49,12.37,0,20.34-9.4,20.68-10A1,1,0,0,0,4233.93,7119.34Zm-20.61,9.24c-6.41,0-12.32-.86-19-8.21,1.94-2.37,9.79-8,19.53-8a25.52,25.52,0,0,1,18,7.7C4230,7121.91,4223.1,7128.58,4213.32,7128.58Z" transform="translate(-4078.54 -7092.18)"/><path class="cls-2" d="M4112.68,7160v-15.4h9.86v2.73h-7v3.28H4121v2.73h-5.41v3.94h7.19V7160h-10.08Z" transform="translate(-4078.54 -7092.18)"/><path class="cls-2" d="M4128.92,7165.32h-2.73l2.44-6.05-4.58-10.28h3l2.82,7.08,2.86-7.08h3Z" transform="translate(-4078.54 -7092.18)"/><path class="cls-2" d="M4139.61,7155.09a3.19,3.19,0,0,0,3.28,2.88,8.27,8.27,0,0,0,3.39-.9l0.13,2.31a8,8,0,0,1-3.67.84c-4,0-6-2.62-6-5.7s1.89-5.7,5.28-5.7a4.59,4.59,0,0,1,4.84,4.77,7.29,7.29,0,0,1-.18,1.5h-7.11Zm0.07-1.85h4.44a2,2,0,0,0-2-2.18A2.44,2.44,0,0,0,4139.68,7153.24Z" transform="translate(-4078.54 -7092.18)"/><path class="cls-2" d="M4154.31,7152.29c0-4.84,3.19-8,7.59-8a10.55,10.55,0,0,1,4.38.9l-0.31,2.68a10.33,10.33,0,0,0-4.07-.88c-3,0-4.51,2.22-4.51,5.3s1.52,5.3,4.51,5.3a10.34,10.34,0,0,0,4.07-.88l0.31,2.68a10.55,10.55,0,0,1-4.38.9C4157.5,7160.3,4154.31,7157.13,4154.31,7152.29Z" transform="translate(-4078.54 -7092.18)"/><path class="cls-2" d="M4167.88,7154.51a5.57,5.57,0,1,1,5.57,5.7A5.4,5.4,0,0,1,4167.88,7154.51Zm2.79,0c0,2,1,3.45,2.77,3.45s2.77-1.41,2.77-3.45-1-3.45-2.77-3.45S4170.67,7152.47,4170.67,7154.51Z" transform="translate(-4078.54 -7092.18)"/><path class="cls-2" d="M4195.34,7160v-5.92c0-2-.53-3-2-3a1.88,1.88,0,0,0-2.18,2.13v6.8h-2.71v-5.92c0-2.38-.66-3-2.2-3a2.52,2.52,0,0,0-2,.9v8h-2.73v-11h2.24l0.15,0.86a4.53,4.53,0,0,1,2.82-1,4,4,0,0,1,3.37,1.67,4.18,4.18,0,0,1,3.65-1.67c3,0,4.38,2.18,4.38,5.26V7160h-2.73Z" transform="translate(-4078.54 -7092.18)"/><path class="cls-2" d="M4214.94,7160v-5.92c0-2-.53-3-2-3a1.88,1.88,0,0,0-2.18,2.13v6.8H4208v-5.92c0-2.38-.66-3-2.2-3a2.52,2.52,0,0,0-2,.9v8h-2.73v-11h2.24l0.15,0.86a4.53,4.53,0,0,1,2.82-1,4,4,0,0,1,3.37,1.67,4.18,4.18,0,0,1,3.65-1.67c3,0,4.38,2.18,4.38,5.26V7160h-2.73Z" transform="translate(-4078.54 -7092.18)"/><path class="cls-2" d="M4227.61,7160l0-.66a4.34,4.34,0,0,1-2.44.88c-3.43,0-4.67-2.2-4.67-5.3V7149h2.73v5.92c0,2,.64,3,2.18,3a2.56,2.56,0,0,0,2.07-.92v-8h2.73v11h-2.55Z" transform="translate(-4078.54 -7092.18)"/><path class="cls-2" d="M4240.24,7160v-5.92c0-2-.64-3-2.18-3a2.55,2.55,0,0,0-2.07.95v8h-2.73v-11h2.55l0,0.66a4.39,4.39,0,0,1,2.42-.84c3.43,0,4.69,2.16,4.69,5.26V7160h-2.73Z" transform="translate(-4078.54 -7092.18)"/><path class="cls-2" d="M4246,7147.32v-2.73h2.73v2.73H4246Zm0,12.67v-11h2.73v11H4246Z" transform="translate(-4078.54 -7092.18)"/><path class="cls-2" d="M4251.13,7154.51c0-3.08,1.83-5.7,5.35-5.7a5.56,5.56,0,0,1,3.3.81l-0.24,2.33a4.94,4.94,0,0,0-2.84-.9c-1.76,0-2.77,1.41-2.77,3.45s1,3.45,2.77,3.45a4.94,4.94,0,0,0,2.84-.9l0.24,2.33a5.56,5.56,0,0,1-3.3.81C4253,7160.21,4251.13,7157.6,4251.13,7154.51Z" transform="translate(-4078.54 -7092.18)"/><path class="cls-2" d="M4271.39,7160.21h-1a2.6,2.6,0,0,1-2.46-1.28,4.62,4.62,0,0,1-3.37,1.28,3.09,3.09,0,0,1-3.19-3.3c0-3.1,4.11-3.87,6.18-3.94-0.07-1.25-.57-1.8-2-1.8a6.53,6.53,0,0,0-3,.84l-0.24-2.22a9.09,9.09,0,0,1,4-1c2.46,0,4,1.23,4,4.42v3c0,1.65.18,1.76,1,1.76h0.35Zm-3.81-5.39c-1.54.07-3.34,0.68-3.34,2a1.21,1.21,0,0,0,1.47,1.32,3,3,0,0,0,1.87-.79v-2.51Z" transform="translate(-4078.54 -7092.18)"/><path class="cls-2" d="M4279.07,7160.21h-2a2.75,2.75,0,0,1-2.95-2.88v-6.09h-1.56l0.24-2.24h1.32v-2.42l2.73-.29V7149h2.42v2.24h-2.42v5c0,1.67.13,1.76,1.67,1.76h0.75Z" transform="translate(-4078.54 -7092.18)"/><path class="cls-2" d="M4281.64,7147.32v-2.73h2.73v2.73h-2.73Zm0,12.67v-11h2.73v11h-2.73Z" transform="translate(-4078.54 -7092.18)"/><path class="cls-2" d="M4286.81,7154.51a5.57,5.57,0,1,1,5.57,5.7A5.4,5.4,0,0,1,4286.81,7154.51Zm2.79,0c0,2,1,3.45,2.77,3.45s2.77-1.41,2.77-3.45-1-3.45-2.77-3.45S4289.6,7152.47,4289.6,7154.51Z" transform="translate(-4078.54 -7092.18)"/><path class="cls-2" d="M4307.36,7160v-5.92c0-2-.64-3-2.18-3a2.55,2.55,0,0,0-2.07.95v8h-2.73v-11h2.55l0,0.66a4.39,4.39,0,0,1,2.42-.84c3.43,0,4.69,2.16,4.69,5.26V7160h-2.73Z" transform="translate(-4078.54 -7092.18)"/></svg>