<svg id="Interactive_elements" data-name="Interactive elements" xmlns="http://www.w3.org/2000/svg" viewBox="0 0 266.84 85.79"><defs><style>.cls-1{fill:#fff;stroke:#2e8bbd;stroke-linecap:square;stroke-linejoin:round;stroke-width:1.88px;}.cls-2{fill:#2e8bbd;}</style></defs><title>gestures</title><path class="cls-1" d="M543.39,7269.34H297.83c-5.34,0-9.7,4.36-9.7,8.54v66.83c0,4.18,4.37,8.54,9.7,8.54H543.39c5.34,0,9.7-4.36,9.7-8.54v-66.83C553.09,7273.7,548.73,7269.34,543.39,7269.34Z" transform="translate(-287.19 -7268.4)"/><path class="cls-2" d="M378.21,7328.78c0-4.82,3.17-8,7.68-8a12.17,12.17,0,0,1,4.62.9l-0.31,2.68a12.39,12.39,0,0,0-4.25-.88c-3.21,0-4.66,2.24-4.66,5.24,0,3.15,1.61,5.37,4.8,5.37a10.72,10.72,0,0,0,2.11-.24v-2.75H386.5v-2.33H391v6.87a12.91,12.91,0,0,1-5.28,1.17C381.42,7336.81,378.21,7333.64,378.21,7328.78Z" transform="translate(-287.19 -7268.4)"/><path class="cls-2" d="M395.94,7331.59a3.19,3.19,0,0,0,3.28,2.88,8.27,8.27,0,0,0,3.39-.9l0.13,2.31a8,8,0,0,1-3.67.84c-4,0-6-2.62-6-5.7s1.89-5.7,5.28-5.7a4.59,4.59,0,0,1,4.84,4.77,7.29,7.29,0,0,1-.18,1.5h-7.11Zm0.07-1.85h4.44a2,2,0,0,0-2-2.18A2.44,2.44,0,0,0,396,7329.74Z" transform="translate(-287.19 -7268.4)"/><path class="cls-2" d="M405,7335.9l0.24-2.33a6.39,6.39,0,0,0,3.39,1.1c1.32,0,1.67-.66,1.67-1.21,0-.92-0.95-1.23-2-1.56-1.54-.46-3.17-1-3.17-3.08,0-1.54.92-3.5,4-3.5a7.21,7.21,0,0,1,3.45.81l-0.24,2.33a4.8,4.8,0,0,0-3-1.19c-0.95,0-1.83.33-1.83,1.21,0,1.06,1.12,1.23,2.51,1.63s3,1.1,3,3.37c0,1.34-.55,3.23-4.31,3.23A7.41,7.41,0,0,1,405,7335.9Z" transform="translate(-287.19 -7268.4)"/><path class="cls-2" d="M421,7336.72h-2a2.75,2.75,0,0,1-2.95-2.88v-6.09h-1.56l0.24-2.24h1.32v-2.42l2.73-.29v2.71h2.42v2.24h-2.42v5c0,1.67.13,1.76,1.67,1.76h0.75Z" transform="translate(-287.19 -7268.4)"/><path class="cls-2" d="M430.66,7336.5l0-.66a4.34,4.34,0,0,1-2.44.88c-3.43,0-4.67-2.2-4.67-5.3v-5.92h2.73v5.92c0,2,.64,3,2.18,3a2.56,2.56,0,0,0,2.07-.92v-8h2.73v11h-2.55Z" transform="translate(-287.19 -7268.4)"/><path class="cls-2" d="M442.05,7327.9h-1a2.25,2.25,0,0,0-2,1.1v7.5h-2.73v-11h2.55l0.07,1.17a4.32,4.32,0,0,1,2.93-1.34h0.73Z" transform="translate(-287.19 -7268.4)"/><path class="cls-2" d="M446.36,7331.59a3.19,3.19,0,0,0,3.28,2.88,8.27,8.27,0,0,0,3.39-.9l0.13,2.31a8,8,0,0,1-3.67.84c-4,0-6-2.62-6-5.7s1.89-5.7,5.28-5.7a4.59,4.59,0,0,1,4.84,4.77,7.29,7.29,0,0,1-.18,1.5h-7.11Zm0.07-1.85h4.44a2,2,0,0,0-2-2.18A2.44,2.44,0,0,0,446.43,7329.74Z" transform="translate(-287.19 -7268.4)"/><path class="cls-2" d="M455.47,7335.9l0.24-2.33a6.39,6.39,0,0,0,3.39,1.1c1.32,0,1.67-.66,1.67-1.21,0-.92-0.95-1.23-2-1.56-1.54-.46-3.17-1-3.17-3.08,0-1.54.92-3.5,4-3.5a7.21,7.21,0,0,1,3.45.81l-0.24,2.33a4.8,4.8,0,0,0-3-1.19c-0.95,0-1.83.33-1.83,1.21,0,1.06,1.12,1.23,2.51,1.63s3,1.1,3,3.37c0,1.34-.55,3.23-4.31,3.23A7.41,7.41,0,0,1,455.47,7335.9Z" transform="translate(-287.19 -7268.4)"/><path class="cls-2" d="M442.35,7302.91c0.78-.45,4.17-2.23,5.94-3.24,0.78-.45,2.52-1.32,2.52-2.3a1.92,1.92,0,0,0-.54-1.35c-0.68-.68-1.89-0.19-2.62.11-1.25.51-2.42,1.21-3.62,1.84-0.8.42-2.87,1.46-3.17,1s3.07-3.46,4.67-5.09a15.7,15.7,0,0,0,2.06-2.46,1.46,1.46,0,0,0-.49-2c-1.24-.88-3,1.06-3.85,1.87s-1.48,1.5-2.24,2.22-2.12,2.59-2.69,2.13,1.77-4,2.66-5.86c0.47-1,1.17-2.29.83-3.41-0.43-1.42-2.1-1-2.91-.22-1.32,1.36-2,3.37-2.72,5.06a13.47,13.47,0,0,1-2.36,4c-0.64.67-3.51,2.3-3.81,0.71-0.39-2,1.42-5.77-1.5-6.67-2.34-.72-2.35,4.43-2.19,5.68,0.25,2-.38,4.09-0.6,6.07a8.7,8.7,0,0,0,.84,5.29c1.58,2.92,5.33,5.17,8.7,4.39,1.87-.43,3.27-1.89,4.87-2.86a13.26,13.26,0,0,1,4.55-1.47,13.67,13.67,0,0,0,4.41-1.44,1.49,1.49,0,0,0,1-1.77,1.82,1.82,0,0,0-.37-0.66,1.73,1.73,0,0,0-1.23-.48,11.2,11.2,0,0,0-3.44.77,21.73,21.73,0,0,1-2.36.58C442.19,7303.41,442.2,7303,442.35,7302.91Z" transform="translate(-287.19 -7268.4)"/><path class="cls-2" d="M398.79,7302.91c-0.78-.45-4.17-2.23-5.94-3.24-0.78-.45-2.52-1.32-2.52-2.3a1.92,1.92,0,0,1,.54-1.35c0.68-.68,1.89-0.19,2.62.11,1.25,0.51,2.42,1.21,3.62,1.84,0.8,0.42,2.87,1.46,3.17,1s-3.07-3.46-4.67-5.09a15.7,15.7,0,0,1-2.06-2.46,1.46,1.46,0,0,1,.49-2c1.24-.88,3,1.06,3.85,1.87s1.48,1.5,2.24,2.22,2.12,2.59,2.69,2.13-1.77-4-2.66-5.86c-0.47-1-1.17-2.29-.83-3.41,0.43-1.42,2.1-1,2.91-.22,1.32,1.36,2,3.37,2.72,5.06a13.47,13.47,0,0,0,2.36,4c0.64,0.67,3.51,2.3,3.81.71,0.39-2-1.42-5.77,1.5-6.67,2.34-.72,2.35,4.43,2.19,5.68-0.25,2,.38,4.09.6,6.07a8.7,8.7,0,0,1-.84,5.29c-1.58,2.92-5.33,5.17-8.7,4.39-1.87-.43-3.27-1.89-4.87-2.86a13.26,13.26,0,0,0-4.55-1.47,13.67,13.67,0,0,1-4.41-1.44,1.49,1.49,0,0,1-1-1.77,1.82,1.82,0,0,1,.37-0.66,1.73,1.73,0,0,1,1.23-.48,11.2,11.2,0,0,1,3.44.77,21.73,21.73,0,0,0,2.36.58C398.94,7303.41,398.94,7303,398.79,7302.91Z" transform="translate(-287.19 -7268.4)"/></svg>