<svg id="Interactive_elements" data-name="Interactive elements" xmlns="http://www.w3.org/2000/svg" viewBox="0 0 266.84 85.79"><defs><style>.cls-1{fill:#fff;stroke:#2e8bbd;stroke-linecap:square;stroke-linejoin:round;stroke-width:1.88px;}.cls-2{fill:#2e8bbd;}</style></defs><title>pausing</title><path class="cls-1" d="M834.22,7054.28H588.66c-5.34,0-9.7,4.36-9.7,8.54v66.83c0,4.18,4.37,8.54,9.7,8.54H834.22c5.34,0,9.7-4.36,9.7-8.54v-66.83C843.92,7058.64,839.55,7054.28,834.22,7054.28Z" transform="translate(-578.01 -7053.34)"/><path class="cls-2" d="M678,7117.43v5.06h-2.82v-15.4h4.36c4.27,0,6.6.66,6.6,4.88,0,4.42-3.21,5.46-5.39,5.46H678Zm0-8v5.35h2.38c2,0,2.9-.7,2.9-2.79,0-1.76-.62-2.55-3-2.55H678Z" transform="translate(-578.01 -7053.34)"/><path class="cls-2" d="M697.33,7122.71h-1a2.6,2.6,0,0,1-2.46-1.28,4.62,4.62,0,0,1-3.37,1.28,3.09,3.09,0,0,1-3.19-3.3c0-3.1,4.11-3.87,6.18-3.94-0.07-1.25-.57-1.8-2-1.8a6.53,6.53,0,0,0-3,.84l-0.24-2.22a9.09,9.09,0,0,1,4-1c2.46,0,4,1.23,4,4.42v3c0,1.65.18,1.76,1,1.76h0.35Zm-3.81-5.39c-1.54.07-3.34,0.68-3.34,2a1.21,1.21,0,0,0,1.47,1.32,3,3,0,0,0,1.87-.79v-2.51Z" transform="translate(-578.01 -7053.34)"/><path class="cls-2" d="M706.59,7122.49l0-.66a4.33,4.33,0,0,1-2.44.88c-3.43,0-4.67-2.2-4.67-5.3v-5.92h2.73v5.92c0,2,.64,3,2.18,3a2.56,2.56,0,0,0,2.07-.92v-8h2.73v11h-2.55Z" transform="translate(-578.01 -7053.34)"/><path class="cls-2" d="M711.65,7121.9l0.24-2.33a6.39,6.39,0,0,0,3.39,1.1c1.32,0,1.67-.66,1.67-1.21,0-.92-0.95-1.23-2-1.56-1.54-.46-3.17-1-3.17-3.08,0-1.54.92-3.5,4-3.5a7.21,7.21,0,0,1,3.45.81l-0.24,2.33a4.8,4.8,0,0,0-3-1.19c-0.95,0-1.83.33-1.83,1.21,0,1.06,1.12,1.23,2.51,1.63s3,1.1,3,3.37c0,1.34-.55,3.23-4.31,3.23A7.41,7.41,0,0,1,711.65,7121.9Z" transform="translate(-578.01 -7053.34)"/><path class="cls-2" d="M722.1,7109.82v-2.73h2.73v2.73H722.1Zm0,12.67v-11h2.73v11H722.1Z" transform="translate(-578.01 -7053.34)"/><path class="cls-2" d="M734.9,7122.49v-5.92c0-2-.64-3-2.18-3a2.55,2.55,0,0,0-2.07.95v8h-2.73v-11h2.55l0,0.66a4.39,4.39,0,0,1,2.42-.84c3.43,0,4.69,2.16,4.69,5.26v5.92H734.9Z" transform="translate(-578.01 -7053.34)"/><path class="cls-2" d="M739.87,7124.74a2.8,2.8,0,0,1,1.8-2.46,1.81,1.81,0,0,1-1-1.58,1.61,1.61,0,0,1,1.1-1.5,4.26,4.26,0,0,1-1.69-3.54,4.18,4.18,0,0,1,4.47-4.33,4.67,4.67,0,0,1,2.51.66,5.32,5.32,0,0,1,2.35-.48h0.7l-0.18,1.72h-1c-0.13,0-.37,0-0.62,0a4.49,4.49,0,0,1,.66,2.42,4.16,4.16,0,0,1-4.44,4.33,6.57,6.57,0,0,1-1.17-.11,0.38,0.38,0,0,0-.24.35c0,0.53.95,0.68,2.75,0.9,1.56,0.2,4.42.66,4.42,3.32,0,2.13-1.87,3.54-5.26,3.54C741.41,7128,739.87,7126.37,739.87,7124.74Zm3.78-1.78a1.77,1.77,0,0,0-1.52,1.52c0,1,1,1.58,2.79,1.58s3-.55,3-1.5-1.54-1.25-2.93-1.41Q744.38,7123.09,743.66,7123Zm-1.12-7.3c0,1.41.68,2.33,2,2.33s2-.92,2-2.33-0.68-2.33-2-2.33S742.54,7114.24,742.54,7115.65Z" transform="translate(-578.01 -7053.34)"/><rect class="cls-2" x="125.72" y="16.44" width="5.11" height="20.73"/><rect class="cls-2" x="136.37" y="16.44" width="5.11" height="20.73"/></svg>