<svg xmlns="http://www.w3.org/2000/svg" viewBox="0 0 266.84 85.79"><defs><style>.cls-1{fill:#fff;stroke-linecap:square;stroke-linejoin:round;stroke-width:1.88px;}.cls-1,.cls-6{stroke:#2e8bbd;}.cls-2{font-size:22px;font-family:Cabin-Bold, Cabin;font-weight:700;letter-spacing:-0.03em;}.cls-2,.cls-6{fill:#2e8bbd;}.cls-3{letter-spacing:0.03em;}.cls-4{letter-spacing:-0.01em;}.cls-5{letter-spacing:0.02em;}.cls-6{stroke-miterlimit:10;stroke-width:0.3px;}</style></defs><title>Asset 1</title><g id="Layer_2" data-name="Layer 2"><g id="Interactive_elements" data-name="Interactive elements"><path class="cls-1" d="M256.2.94H10.64C5.31.94.94,5.3.94,9.48V76.31c0,4.18,4.37,8.54,9.7,8.54H256.2c5.34,0,9.7-4.36,9.7-8.54V9.48C265.9,5.3,261.54.94,256.2.94Z"/><text class="cls-2" transform="translate(67.97 68.1)">V<tspan class="cls-3" x="13.88" y="0">ocal </tspan><tspan class="cls-4" x="60.54" y="0">V</tspan><tspan class="cls-5" x="74.67" y="0">ariety</tspan></text><path class="cls-6" d="M108.67,31.79a.37.37,0,0,0-.38.37v7.61a.38.38,0,0,0,.75,0V32.16A.37.37,0,0,0,108.67,31.79Z"/><path class="cls-6" d="M112.41,22.18a.39.39,0,0,0-.38.4V40a.38.38,0,1,0,.75,0V22.58A.39.39,0,0,0,112.41,22.18Z"/><path class="cls-6" d="M116.15,16.89a.38.38,0,0,0-.38.39V39.81a.38.38,0,1,0,.75,0V17.27A.38.38,0,0,0,116.15,16.89Z"/><path class="cls-6" d="M119.89,13.88a.38.38,0,0,0-.38.39V40.1a.38.38,0,1,0,.75,0V14.27A.38.38,0,0,0,119.89,13.88Z"/><path class="cls-6" d="M123.64,14.06a.37.37,0,0,0-.38.37V40a.38.38,0,0,0,.75,0V14.43A.37.37,0,0,0,123.64,14.06Z"/><path class="cls-6" d="M127.38,18.66a.39.39,0,0,0-.38.4V40a.38.38,0,1,0,.75,0V19.06A.39.39,0,0,0,127.38,18.66Z"/><path class="cls-6" d="M131.12,31.71a.37.37,0,0,0-.38.37v8a.38.38,0,0,0,.75,0v-8A.37.37,0,0,0,131.12,31.71Z"/><path class="cls-6" d="M142.43,31.92a.37.37,0,0,0-.38.37V40a.38.38,0,0,0,.75,0V32.29A.37.37,0,0,0,142.43,31.92Z"/><path class="cls-6" d="M146,27.75a.37.37,0,0,0-.38.37V39.9a.38.38,0,0,0,.75,0V28.12A.37.37,0,0,0,146,27.75Z"/><path class="cls-6" d="M149.65,30a.37.37,0,0,0-.38.37V40a.38.38,0,0,0,.75,0V30.36A.37.37,0,0,0,149.65,30Z"/><path class="cls-6" d="M153.48,40.24a.5.5,0,0,1-.46-.31c0-.08-.83-2.07-1.13-2.91-.47-1.33-1-2.57-1.56-3.88l-.34-.8c-1.11-2.61-2.45-3.81-3.33-4.06a1.76,1.76,0,0,0-1.56.34c-1.46,1-2,3-2.67,5.08a14.56,14.56,0,0,1-1.83,4.36,5.08,5.08,0,0,1-4.4,2.11c-1.86,0-3.35-1.28-4.44-3.81A32.66,32.66,0,0,1,130,29.91c-.14-.74-.26-1.38-.39-1.87s-.21-.87-.33-1.4c-1-4.26-2.78-12.19-7.24-12.24H122a7.8,7.8,0,0,0-5.76,3,21.06,21.06,0,0,0-3.53,5.81c-4.21,10.16-6.27,16.63-6.29,16.7a.5.5,0,0,1-.95-.3c0-.06,2.09-6.57,6.32-16.78a22.07,22.07,0,0,1,3.71-6.09c2-2.22,4.22-3.33,6.58-3.31,5.25.06,7.17,8.49,8.2,13,.12.53.23,1,.32,1.39s.25,1.17.4,1.92c.68,3.53,1.81,9.45,5.18,9.45,3.55,0,4.35-2.67,5.28-5.76.65-2.14,1.31-4.36,3-5.6a2.73,2.73,0,0,1,2.41-.49c2.12.59,3.58,3.69,4,4.63l.34.8c.57,1.33,1.1,2.58,1.59,3.95.29.82,1.1,2.85,1.11,2.87a.5.5,0,0,1-.46.68Z"/><path class="cls-6" d="M157.4,40.59h-56c-.18,0-.33-.21-.33-.48s.15-.48.33-.48h56c.18,0,.33.21.33.48S157.58,40.59,157.4,40.59Z"/></g></g></svg>