<svg id="Interactive_elements" data-name="Interactive elements" xmlns="http://www.w3.org/2000/svg" viewBox="0 0 266.84 85.79"><defs><style>.cls-1{fill:#fff;stroke-linecap:square;stroke-linejoin:round;stroke-width:1.88px;}.cls-1,.cls-3{stroke:#2e8bbd;}.cls-2,.cls-3{fill:#2e8bbd;}.cls-3{stroke-miterlimit:10;stroke-width:0.3px;}</style></defs><title>vocal-pitch</title><path class="cls-1" d="M834.22,7161H588.66c-5.34,0-9.7,4.36-9.7,8.54v66.83c0,4.18,4.37,8.54,9.7,8.54H834.22c5.34,0,9.7-4.36,9.7-8.54v-66.83C843.92,7165.35,839.55,7161,834.22,7161Z" transform="translate(-578.01 -7160.05)"/><path class="cls-2" d="M665.63,7228.15h-3.43l-5.54-15.4h2.93l4.31,11.68,4.25-11.68H671Z" transform="translate(-578.01 -7160.05)"/><path class="cls-2" d="M671.15,7222.67a5.57,5.57,0,1,1,5.57,5.7A5.4,5.4,0,0,1,671.15,7222.67Zm2.79,0c0,2,1,3.45,2.77,3.45s2.77-1.41,2.77-3.45-1-3.45-2.77-3.45S673.94,7220.62,673.94,7222.67Z" transform="translate(-578.01 -7160.05)"/><path class="cls-2" d="M684.06,7222.67c0-3.08,1.83-5.7,5.35-5.7a5.56,5.56,0,0,1,3.3.81l-0.24,2.33a4.94,4.94,0,0,0-2.84-.9c-1.76,0-2.77,1.41-2.77,3.45s1,3.45,2.77,3.45a4.94,4.94,0,0,0,2.84-.9l0.24,2.33a5.56,5.56,0,0,1-3.3.81C685.89,7228.37,684.06,7225.75,684.06,7222.67Z" transform="translate(-578.01 -7160.05)"/><path class="cls-2" d="M704.32,7228.37h-1a2.6,2.6,0,0,1-2.46-1.28,4.62,4.62,0,0,1-3.37,1.28,3.09,3.09,0,0,1-3.19-3.3c0-3.1,4.11-3.87,6.18-3.94-0.07-1.25-.57-1.8-2-1.8a6.53,6.53,0,0,0-3,.84l-0.24-2.22a9.09,9.09,0,0,1,4-1c2.46,0,4,1.23,4,4.42v3c0,1.65.18,1.76,1,1.76h0.35Zm-3.81-5.39c-1.54.07-3.34,0.68-3.34,2a1.21,1.21,0,0,0,1.47,1.32,3,3,0,0,0,1.87-.79V7223Z" transform="translate(-578.01 -7160.05)"/><path class="cls-2" d="M710.44,7228.37h-1a2.63,2.63,0,0,1-2.82-2.88v-13.84h2.73v12.72c0,1.76.24,1.76,1.32,1.76Z" transform="translate(-578.01 -7160.05)"/><path class="cls-2" d="M721.7,7223.09v5.06h-2.82v-15.4h4.36c4.27,0,6.6.66,6.6,4.88,0,4.42-3.21,5.46-5.39,5.46H721.7Zm0-8v5.35h2.38c2,0,2.9-.7,2.9-2.79,0-1.76-.62-2.55-3-2.55H721.7Z" transform="translate(-578.01 -7160.05)"/><path class="cls-2" d="M732,7215.48v-2.73h2.73v2.73H732Zm0,12.67v-11h2.73v11H732Z" transform="translate(-578.01 -7160.05)"/><path class="cls-2" d="M743.37,7228.37h-2a2.75,2.75,0,0,1-2.95-2.88v-6.09H736.9l0.24-2.24h1.32v-2.42l2.73-.29v2.71h2.42v2.24h-2.42v5c0,1.67.13,1.76,1.67,1.76h0.75Z" transform="translate(-578.01 -7160.05)"/><path class="cls-2" d="M745.29,7222.67c0-3.08,1.83-5.7,5.35-5.7a5.56,5.56,0,0,1,3.3.81l-0.24,2.33a4.94,4.94,0,0,0-2.84-.9c-1.76,0-2.77,1.41-2.77,3.45s1,3.45,2.77,3.45a4.94,4.94,0,0,0,2.84-.9l0.24,2.33a5.56,5.56,0,0,1-3.3.81C747.11,7228.37,745.29,7225.75,745.29,7222.67Z" transform="translate(-578.01 -7160.05)"/><path class="cls-2" d="M763.3,7228.15v-5.92c0-2-.64-3-2.18-3a2.55,2.55,0,0,0-2.07.95v8h-2.73v-16.5h2.73v6.07a4.36,4.36,0,0,1,2.29-.75c3.43,0,4.69,2.16,4.69,5.26v5.92H763.3Z" transform="translate(-578.01 -7160.05)"/><path class="cls-3" d="M686.69,7191.84a0.37,0.37,0,0,0-.38.37v7.61a0.38,0.38,0,0,0,.75,0v-7.61A0.37,0.37,0,0,0,686.69,7191.84Z" transform="translate(-578.01 -7160.05)"/><path class="cls-3" d="M690.43,7182.23a0.39,0.39,0,0,0-.38.4v17.42a0.38,0.38,0,1,0,.75,0v-17.42A0.39,0.39,0,0,0,690.43,7182.23Z" transform="translate(-578.01 -7160.05)"/><path class="cls-3" d="M694.17,7176.94a0.38,0.38,0,0,0-.38.39v22.54a0.38,0.38,0,1,0,.75,0v-22.54A0.38,0.38,0,0,0,694.17,7176.94Z" transform="translate(-578.01 -7160.05)"/><path class="cls-3" d="M697.91,7173.94a0.38,0.38,0,0,0-.38.39v25.83a0.38,0.38,0,1,0,.75,0v-25.83A0.38,0.38,0,0,0,697.91,7173.94Z" transform="translate(-578.01 -7160.05)"/><path class="cls-3" d="M701.65,7174.11a0.37,0.37,0,0,0-.38.37v25.61a0.38,0.38,0,0,0,.75,0v-25.61A0.37,0.37,0,0,0,701.65,7174.11Z" transform="translate(-578.01 -7160.05)"/><path class="cls-3" d="M705.39,7178.72a0.39,0.39,0,0,0-.38.4v20.95a0.38,0.38,0,1,0,.75,0v-20.95A0.39,0.39,0,0,0,705.39,7178.72Z" transform="translate(-578.01 -7160.05)"/><path class="cls-3" d="M709.13,7191.76a0.37,0.37,0,0,0-.38.37v8a0.38,0.38,0,0,0,.75,0v-8A0.37,0.37,0,0,0,709.13,7191.76Z" transform="translate(-578.01 -7160.05)"/><path class="cls-3" d="M720.45,7192a0.37,0.37,0,0,0-.38.37V7200a0.38,0.38,0,0,0,.75,0v-7.68A0.37,0.37,0,0,0,720.45,7192Z" transform="translate(-578.01 -7160.05)"/><path class="cls-3" d="M724.06,7187.8a0.37,0.37,0,0,0-.38.37v11.78a0.38,0.38,0,0,0,.75,0v-11.78A0.37,0.37,0,0,0,724.06,7187.8Z" transform="translate(-578.01 -7160.05)"/><path class="cls-3" d="M727.66,7190a0.37,0.37,0,0,0-.38.37V7200a0.38,0.38,0,0,0,.75,0v-9.61A0.37,0.37,0,0,0,727.66,7190Z" transform="translate(-578.01 -7160.05)"/><path class="cls-3" d="M731.5,7200.29A0.5,0.5,0,0,1,731,7200c0-.08-0.83-2.07-1.13-2.91-0.47-1.33-1-2.57-1.56-3.88l-0.34-.8c-1.11-2.61-2.45-3.81-3.33-4.06a1.76,1.76,0,0,0-1.56.34c-1.46,1-2,3-2.67,5.08a14.56,14.56,0,0,1-1.83,4.36,5.08,5.08,0,0,1-4.4,2.11c-1.86,0-3.35-1.28-4.44-3.81a32.66,32.66,0,0,1-1.72-6.45c-0.14-.74-0.26-1.38-0.39-1.87s-0.21-.87-0.33-1.4c-1-4.26-2.78-12.19-7.24-12.24H700a7.8,7.8,0,0,0-5.76,3,21.06,21.06,0,0,0-3.53,5.81c-4.21,10.16-6.27,16.63-6.29,16.7a0.5,0.5,0,0,1-.95-0.3c0-.06,2.09-6.57,6.32-16.78a22.07,22.07,0,0,1,3.71-6.09c2-2.22,4.22-3.33,6.58-3.31,5.25,0.06,7.17,8.49,8.2,13,0.12,0.53.23,1,.32,1.39s0.25,1.17.4,1.92c0.68,3.53,1.81,9.45,5.18,9.45,3.55,0,4.35-2.67,5.28-5.76,0.65-2.14,1.31-4.36,3-5.6a2.73,2.73,0,0,1,2.41-.49c2.12,0.59,3.58,3.69,4,4.63l0.34,0.8c0.57,1.33,1.1,2.58,1.59,3.95,0.29,0.82,1.1,2.85,1.11,2.87A0.5,0.5,0,0,1,731.5,7200.29Z" transform="translate(-578.01 -7160.05)"/><path class="cls-3" d="M735.42,7200.65h-56a0.51,0.51,0,0,1,0-1h56A0.51,0.51,0,0,1,735.42,7200.65Z" transform="translate(-578.01 -7160.05)"/></svg>