<svg id="Interactive_elements" data-name="Interactive elements" xmlns="http://www.w3.org/2000/svg" viewBox="0 0 264.97 83.91"><defs><style>.cls-1{fill:#2e8bbd;}.cls-2,.cls-3{fill:#fff;}.cls-3{stroke:#fff;stroke-miterlimit:10;stroke-width:0.3px;}</style></defs><title>vocal-pitch-fill</title><path class="cls-1" d="M6444.69,7231.07H6199.13c-5.34,0-9.7,4.36-9.7,8.54v66.83c0,4.18,4.37,8.54,9.7,8.54h245.56c5.34,0,9.7-4.36,9.7-8.54v-66.83C6454.39,7235.43,6450,7231.07,6444.69,7231.07Z" transform="translate(-6189.43 -7231.07)"/><path class="cls-2" d="M6276.1,7298.23h-3.43l-5.54-15.4h2.93l4.31,11.68,4.25-11.68h2.9Z" transform="translate(-6189.43 -7231.07)"/><path class="cls-2" d="M6281.62,7292.75a5.57,5.57,0,1,1,5.57,5.7A5.4,5.4,0,0,1,6281.62,7292.75Zm2.79,0c0,2,1,3.45,2.77,3.45s2.77-1.41,2.77-3.45-1-3.45-2.77-3.45S6284.42,7290.7,6284.42,7292.75Z" transform="translate(-6189.43 -7231.07)"/><path class="cls-2" d="M6294.54,7292.75c0-3.08,1.83-5.7,5.35-5.7a5.56,5.56,0,0,1,3.3.81l-0.24,2.33a4.94,4.94,0,0,0-2.84-.9c-1.76,0-2.77,1.41-2.77,3.45s1,3.45,2.77,3.45a4.94,4.94,0,0,0,2.84-.9l0.24,2.33a5.56,5.56,0,0,1-3.3.81C6296.36,7298.45,6294.54,7295.83,6294.54,7292.75Z" transform="translate(-6189.43 -7231.07)"/><path class="cls-2" d="M6314.8,7298.45h-1a2.6,2.6,0,0,1-2.46-1.28,4.61,4.61,0,0,1-3.37,1.28,3.09,3.09,0,0,1-3.19-3.3c0-3.1,4.11-3.87,6.18-3.94-0.07-1.25-.57-1.8-2-1.8a6.53,6.53,0,0,0-3,.84l-0.24-2.22a9.09,9.09,0,0,1,4-1c2.46,0,4,1.23,4,4.42v3c0,1.65.18,1.76,1,1.76H6315Zm-3.81-5.39c-1.54.07-3.34,0.68-3.34,2a1.21,1.21,0,0,0,1.47,1.32,3,3,0,0,0,1.87-.79v-2.51Z" transform="translate(-6189.43 -7231.07)"/><path class="cls-2" d="M6320.91,7298.45h-1a2.63,2.63,0,0,1-2.82-2.88v-13.84h2.73v12.72c0,1.76.24,1.76,1.32,1.76Z" transform="translate(-6189.43 -7231.07)"/><path class="cls-2" d="M6332.18,7293.16v5.06h-2.82v-15.4h4.36c4.27,0,6.6.66,6.6,4.88,0,4.42-3.21,5.46-5.39,5.46h-2.75Zm0-8v5.35h2.38c2,0,2.9-.7,2.9-2.79,0-1.76-.62-2.55-3-2.55h-2.31Z" transform="translate(-6189.43 -7231.07)"/><path class="cls-2" d="M6342.47,7285.55v-2.73h2.73v2.73h-2.73Zm0,12.67v-11h2.73v11h-2.73Z" transform="translate(-6189.43 -7231.07)"/><path class="cls-2" d="M6353.85,7298.45h-2a2.75,2.75,0,0,1-2.95-2.88v-6.09h-1.56l0.24-2.24h1.32v-2.42l2.73-.29v2.71h2.42v2.24h-2.42v5c0,1.67.13,1.76,1.67,1.76h0.75Z" transform="translate(-6189.43 -7231.07)"/><path class="cls-2" d="M6355.76,7292.75c0-3.08,1.83-5.7,5.35-5.7a5.56,5.56,0,0,1,3.3.81l-0.24,2.33a4.94,4.94,0,0,0-2.84-.9c-1.76,0-2.77,1.41-2.77,3.45s1,3.45,2.77,3.45a4.94,4.94,0,0,0,2.84-.9l0.24,2.33a5.56,5.56,0,0,1-3.3.81C6357.59,7298.45,6355.76,7295.83,6355.76,7292.75Z" transform="translate(-6189.43 -7231.07)"/><path class="cls-2" d="M6373.78,7298.23v-5.92c0-2-.64-3-2.18-3a2.55,2.55,0,0,0-2.07.95v8h-2.73v-16.5h2.73v6.07a4.36,4.36,0,0,1,2.29-.75c3.43,0,4.69,2.16,4.69,5.26v5.92h-2.73Z" transform="translate(-6189.43 -7231.07)"/><path class="cls-3" d="M6297.16,7261.92a0.37,0.37,0,0,0-.38.37v7.61a0.38,0.38,0,0,0,.75,0v-7.61A0.37,0.37,0,0,0,6297.16,7261.92Z" transform="translate(-6189.43 -7231.07)"/><path class="cls-3" d="M6300.9,7252.31a0.39,0.39,0,0,0-.38.4v17.42a0.38,0.38,0,1,0,.75,0v-17.42A0.39,0.39,0,0,0,6300.9,7252.31Z" transform="translate(-6189.43 -7231.07)"/><path class="cls-3" d="M6304.64,7247a0.38,0.38,0,0,0-.38.39v22.54a0.38,0.38,0,1,0,.75,0V7247.4A0.38,0.38,0,0,0,6304.64,7247Z" transform="translate(-6189.43 -7231.07)"/><path class="cls-3" d="M6308.38,7244a0.38,0.38,0,0,0-.38.39v25.83a0.38,0.38,0,1,0,.75,0V7244.4A0.38,0.38,0,0,0,6308.38,7244Z" transform="translate(-6189.43 -7231.07)"/><path class="cls-3" d="M6312.13,7244.19a0.37,0.37,0,0,0-.38.37v25.61a0.38,0.38,0,0,0,.75,0v-25.61A0.37,0.37,0,0,0,6312.13,7244.19Z" transform="translate(-6189.43 -7231.07)"/><path class="cls-3" d="M6315.87,7248.79a0.39,0.39,0,0,0-.38.4v20.95a0.38,0.38,0,1,0,.75,0v-20.95A0.39,0.39,0,0,0,6315.87,7248.79Z" transform="translate(-6189.43 -7231.07)"/><path class="cls-3" d="M6319.61,7261.84a0.37,0.37,0,0,0-.38.37v8a0.38,0.38,0,0,0,.75,0v-8A0.37,0.37,0,0,0,6319.61,7261.84Z" transform="translate(-6189.43 -7231.07)"/><path class="cls-3" d="M6330.92,7262a0.37,0.37,0,0,0-.38.37v7.68a0.38,0.38,0,0,0,.75,0v-7.68A0.37,0.37,0,0,0,6330.92,7262Z" transform="translate(-6189.43 -7231.07)"/><path class="cls-3" d="M6334.53,7257.88a0.37,0.37,0,0,0-.38.37V7270a0.38,0.38,0,0,0,.75,0v-11.78A0.37,0.37,0,0,0,6334.53,7257.88Z" transform="translate(-6189.43 -7231.07)"/><path class="cls-3" d="M6338.14,7260.12a0.37,0.37,0,0,0-.38.37v9.61a0.38,0.38,0,0,0,.75,0v-9.61A0.37,0.37,0,0,0,6338.14,7260.12Z" transform="translate(-6189.43 -7231.07)"/><path class="cls-3" d="M6342,7270.37a0.5,0.5,0,0,1-.46-0.31c0-.08-0.83-2.07-1.13-2.91-0.47-1.33-1-2.57-1.56-3.88l-0.34-.8c-1.11-2.61-2.45-3.81-3.33-4.06a1.76,1.76,0,0,0-1.56.34c-1.46,1-2,3-2.67,5.08a14.56,14.56,0,0,1-1.83,4.36,5.08,5.08,0,0,1-4.4,2.11c-1.86,0-3.35-1.28-4.44-3.81a32.66,32.66,0,0,1-1.72-6.45c-0.14-.74-0.26-1.38-0.39-1.87s-0.21-.87-0.33-1.4c-1-4.26-2.78-12.19-7.24-12.24h-0.07a7.8,7.8,0,0,0-5.76,3,21.06,21.06,0,0,0-3.53,5.81c-4.21,10.16-6.27,16.63-6.29,16.7a0.5,0.5,0,0,1-.95-0.3c0-.06,2.09-6.57,6.32-16.78a22.07,22.07,0,0,1,3.71-6.09c2-2.22,4.22-3.33,6.58-3.31,5.25,0.06,7.17,8.49,8.2,13,0.12,0.53.23,1,.32,1.39s0.25,1.17.4,1.92c0.68,3.53,1.81,9.45,5.18,9.45,3.55,0,4.35-2.67,5.28-5.76,0.65-2.14,1.31-4.36,3-5.6a2.73,2.73,0,0,1,2.41-.49c2.12,0.59,3.58,3.69,4,4.63l0.34,0.8c0.57,1.33,1.1,2.58,1.59,3.95,0.29,0.82,1.1,2.85,1.11,2.87A0.5,0.5,0,0,1,6342,7270.37Z" transform="translate(-6189.43 -7231.07)"/><path class="cls-3" d="M6345.89,7270.72h-56a0.51,0.51,0,0,1,0-1h56A0.51,0.51,0,0,1,6345.89,7270.72Z" transform="translate(-6189.43 -7231.07)"/></svg>