<svg id="Interactive_elements" data-name="Interactive elements" xmlns="http://www.w3.org/2000/svg" viewBox="0 0 266.97 85.91"><defs><style>.cls-1{fill:#fff;stroke:#2e8bbd;stroke-linecap:square;stroke-linejoin:round;stroke-width:2px;}.cls-2{fill:#2e8bbd;}</style></defs><title>eye-communication</title><path class="cls-1" d="M543.39,7054.28H297.83c-5.34,0-9.7,4.36-9.7,8.54v66.83c0,4.18,4.37,8.54,9.7,8.54H543.39c5.34,0,9.7-4.36,9.7-8.54v-66.83C553.09,7058.64,548.73,7054.28,543.39,7054.28Z" transform="translate(-287.13 -7053.28)"/><path class="cls-2" d="M322,7122.49v-15.4h9.86v2.73h-7v3.28h5.41v2.73h-5.41v3.94H332v2.73H322Z" transform="translate(-287.13 -7053.28)"/><path class="cls-2" d="M338.19,7127.82h-2.73l2.44-6.05-4.58-10.28h3l2.82,7.08,2.86-7.08h3Z" transform="translate(-287.13 -7053.28)"/><path class="cls-2" d="M348.89,7117.59a3.19,3.19,0,0,0,3.28,2.88,8.27,8.27,0,0,0,3.39-.9l0.13,2.31a8,8,0,0,1-3.67.84c-4,0-6-2.62-6-5.7s1.89-5.7,5.28-5.7a4.59,4.59,0,0,1,4.84,4.77,7.29,7.29,0,0,1-.18,1.5h-7.11Zm0.07-1.85h4.44a2,2,0,0,0-2-2.18A2.44,2.44,0,0,0,349,7115.74Z" transform="translate(-287.13 -7053.28)"/><path class="cls-2" d="M363.58,7114.79c0-4.84,3.19-8,7.59-8a10.55,10.55,0,0,1,4.38.9l-0.31,2.68a10.33,10.33,0,0,0-4.07-.88c-3,0-4.51,2.22-4.51,5.3s1.52,5.3,4.51,5.3a10.34,10.34,0,0,0,4.07-.88l0.31,2.68a10.55,10.55,0,0,1-4.38.9C366.77,7122.8,363.58,7119.63,363.58,7114.79Z" transform="translate(-287.13 -7053.28)"/><path class="cls-2" d="M377.16,7117a5.57,5.57,0,1,1,5.57,5.7A5.4,5.4,0,0,1,377.16,7117Zm2.79,0c0,2,1,3.45,2.77,3.45s2.77-1.41,2.77-3.45-1-3.45-2.77-3.45S379.95,7115,379.95,7117Z" transform="translate(-287.13 -7053.28)"/><path class="cls-2" d="M404.61,7122.49v-5.92c0-2-.53-3-2-3a1.88,1.88,0,0,0-2.18,2.13v6.8h-2.71v-5.92c0-2.38-.66-3-2.2-3a2.52,2.52,0,0,0-2,.9v8h-2.73v-11H393l0.15,0.86a4.53,4.53,0,0,1,2.82-1,4,4,0,0,1,3.37,1.67,4.18,4.18,0,0,1,3.65-1.67c3,0,4.38,2.18,4.38,5.26v5.92h-2.73Z" transform="translate(-287.13 -7053.28)"/><path class="cls-2" d="M424.21,7122.49v-5.92c0-2-.53-3-2-3a1.88,1.88,0,0,0-2.18,2.13v6.8h-2.71v-5.92c0-2.38-.66-3-2.2-3a2.52,2.52,0,0,0-2,.9v8h-2.73v-11h2.24l0.15,0.86a4.53,4.53,0,0,1,2.82-1,4,4,0,0,1,3.37,1.67,4.18,4.18,0,0,1,3.65-1.67c3,0,4.38,2.18,4.38,5.26v5.92h-2.73Z" transform="translate(-287.13 -7053.28)"/><path class="cls-2" d="M436.89,7122.49l0-.66a4.34,4.34,0,0,1-2.44.88c-3.43,0-4.67-2.2-4.67-5.3v-5.92h2.73v5.92c0,2,.64,3,2.18,3a2.56,2.56,0,0,0,2.07-.92v-8h2.73v11h-2.55Z" transform="translate(-287.13 -7053.28)"/><path class="cls-2" d="M449.51,7122.49v-5.92c0-2-.64-3-2.18-3a2.55,2.55,0,0,0-2.07.95v8h-2.73v-11h2.55l0,0.66a4.39,4.39,0,0,1,2.42-.84c3.43,0,4.69,2.16,4.69,5.26v5.92h-2.73Z" transform="translate(-287.13 -7053.28)"/><path class="cls-2" d="M455.23,7109.82v-2.73H458v2.73h-2.73Zm0,12.67v-11H458v11h-2.73Z" transform="translate(-287.13 -7053.28)"/><path class="cls-2" d="M460.4,7117c0-3.08,1.83-5.7,5.35-5.7a5.56,5.56,0,0,1,3.3.81l-0.24,2.33a4.94,4.94,0,0,0-2.84-.9c-1.76,0-2.77,1.41-2.77,3.45s1,3.45,2.77,3.45a4.94,4.94,0,0,0,2.84-.9l0.24,2.33a5.56,5.56,0,0,1-3.3.81C462.23,7122.71,460.4,7120.1,460.4,7117Z" transform="translate(-287.13 -7053.28)"/><path class="cls-2" d="M480.67,7122.71h-1a2.6,2.6,0,0,1-2.46-1.28,4.62,4.62,0,0,1-3.37,1.28,3.09,3.09,0,0,1-3.19-3.3c0-3.1,4.11-3.87,6.18-3.94-0.07-1.25-.57-1.8-2-1.8a6.53,6.53,0,0,0-3,.84l-0.24-2.22a9.09,9.09,0,0,1,4-1c2.46,0,4,1.23,4,4.42v3c0,1.65.18,1.76,1,1.76h0.35Zm-3.81-5.39c-1.54.07-3.34,0.68-3.34,2a1.21,1.21,0,0,0,1.47,1.32,3,3,0,0,0,1.87-.79v-2.51Z" transform="translate(-287.13 -7053.28)"/><path class="cls-2" d="M488.34,7122.71h-2a2.75,2.75,0,0,1-2.95-2.88v-6.09h-1.56l0.24-2.24h1.32v-2.42l2.73-.29v2.71h2.42v2.24h-2.42v5c0,1.67.13,1.76,1.67,1.76h0.75Z" transform="translate(-287.13 -7053.28)"/><path class="cls-2" d="M490.92,7109.82v-2.73h2.73v2.73h-2.73Zm0,12.67v-11h2.73v11h-2.73Z" transform="translate(-287.13 -7053.28)"/><path class="cls-2" d="M496.08,7117a5.57,5.57,0,1,1,5.57,5.7A5.4,5.4,0,0,1,496.08,7117Zm2.79,0c0,2,1,3.45,2.77,3.45s2.77-1.41,2.77-3.45-1-3.45-2.77-3.45S498.88,7115,498.88,7117Z" transform="translate(-287.13 -7053.28)"/><path class="cls-2" d="M516.63,7122.49v-5.92c0-2-.64-3-2.18-3a2.55,2.55,0,0,0-2.07.95v8h-2.73v-11h2.55l0,0.66a4.39,4.39,0,0,1,2.42-.84c3.43,0,4.69,2.16,4.69,5.26v5.92h-2.73Z" transform="translate(-287.13 -7053.28)"/><path class="cls-2" d="M422.35,7073.21a9.45,9.45,0,1,0,9.5,9.45A9.49,9.49,0,0,0,422.35,7073.21Zm0,17.91a8.45,8.45,0,1,1,8.5-8.45A8.49,8.49,0,0,1,422.35,7091.12Z" transform="translate(-287.13 -7053.28)"/><path class="cls-2" d="M422.35,7077.56a5.11,5.11,0,1,0,5.13,5.11A5.13,5.13,0,0,0,422.35,7077.56Zm-4,4.83a5.52,5.52,0,0,1,1-2.22,4.81,4.81,0,0,1,2.08-1.47l0.87,4.08Z" transform="translate(-287.13 -7053.28)"/><path class="cls-2" d="M443.21,7081.84c-6.34-6.84-12.84-9.09-20.1-9.09-12.3,0-21.31,9-21.68,9.49a1,1,0,0,0,0,1.23c7.3,8.13,13.9,9.49,21.16,9.49,12.37,0,20.34-9.4,20.68-10A1,1,0,0,0,443.21,7081.84Zm-20.61,9.24c-6.41,0-12.32-.86-19-8.21,1.94-2.37,9.79-8,19.53-8a25.52,25.52,0,0,1,18,7.7C439.26,7084.41,432.38,7091.08,422.6,7091.08Z" transform="translate(-287.13 -7053.28)"/></svg>