<svg id="Interactive_elements" data-name="Interactive elements" xmlns="http://www.w3.org/2000/svg" viewBox="0 0 202.05 41.76"><defs><style>.cls-1{fill:#fe961c;}.cls-2{fill:#fff;}</style></defs><title>button_clear-recording</title><rect class="cls-1" width="202.05" height="41.76"/><path class="cls-2" d="M5624.53,4022.48c0-4.66,3.11-7.64,7.35-7.64a10.17,10.17,0,0,1,4.07.86l-0.21,1.85a11.24,11.24,0,0,0-3.86-.9c-3.38,0-5.17,2.58-5.17,5.84s1.78,5.84,5.21,5.84a11.23,11.23,0,0,0,3.82-.88l0.21,1.85a10.39,10.39,0,0,1-4.05.84C5627.63,4030.12,5624.53,4027.14,5624.53,4022.48Z" transform="translate(-5609.11 -4001.65)"/><path class="cls-2" d="M5641.94,4030h-0.61a2.35,2.35,0,0,1-2.67-2.48v-13.48h1.89v12.39c0,1.76.21,2.06,1.66,2.06Z" transform="translate(-5609.11 -4001.65)"/><path class="cls-2" d="M5645.61,4024.68c0.27,2.86,1.91,3.67,3.86,3.67a7.4,7.4,0,0,0,3-.61l0.25,1.49a8.23,8.23,0,0,1-3.44.8,5.2,5.2,0,0,1-5.56-5.44,4.93,4.93,0,0,1,5-5.27,4.11,4.11,0,0,1,4.43,4.35,5.92,5.92,0,0,1-.08,1h-7.45Zm0.17-1.3h5.42a2.2,2.2,0,0,0-2.52-2.37A2.73,2.73,0,0,0,5645.78,4023.38Z" transform="translate(-5609.11 -4001.65)"/><path class="cls-2" d="M5664.18,4030H5664c-1.83,0-2.23-.55-2.65-1.51a4.07,4.07,0,0,1-3.15,1.51,2.94,2.94,0,0,1-3.17-3c0-2.9,3.53-3.63,6.15-3.67,0-2-.8-2.37-2.25-2.37a4.48,4.48,0,0,0-2.71.92l-0.27-1.53a5.93,5.93,0,0,1,3.49-1.07c2.6,0,3.63,1.22,3.63,4.93v2.1c0,1.47.08,2.16,1.18,2.16h0.19Zm-3-5.35c-3,.11-4.22.74-4.22,2.27a1.42,1.42,0,0,0,1.6,1.58,3.33,3.33,0,0,0,2.62-1.39v-2.46Z" transform="translate(-5609.11 -4001.65)"/><path class="cls-2" d="M5671.88,4021.24h-0.65a3.13,3.13,0,0,0-2.35,1.32v7.26h-2v-10.29h1.55l0.23,1.7c1.24-1.41,2.23-2.08,3.49-2.08h0.17Z" transform="translate(-5609.11 -4001.65)"/><path class="cls-2" d="M5689.27,4029.82l-3.25-5.73h-3.09v5.73h-2.1v-14.7h4.77c3.07,0,5.08,1,5.08,4.3a4.48,4.48,0,0,1-2.69,4.14l3.42,6.26h-2.14Zm-6.34-13.08v5.42h3.17a2.46,2.46,0,0,0,2.5-2.73c0-1.7-1-2.69-3-2.69h-2.65Z" transform="translate(-5609.11 -4001.65)"/><path class="cls-2" d="M5695.09,4024.68c0.27,2.86,1.91,3.67,3.86,3.67a7.4,7.4,0,0,0,3-.61l0.25,1.49a8.23,8.23,0,0,1-3.44.8,5.2,5.2,0,0,1-5.56-5.44,4.93,4.93,0,0,1,5-5.27,4.11,4.11,0,0,1,4.43,4.35,5.92,5.92,0,0,1-.08,1h-7.45Zm0.17-1.3h5.42a2.2,2.2,0,0,0-2.52-2.37A2.73,2.73,0,0,0,5695.26,4023.38Z" transform="translate(-5609.11 -4001.65)"/><path class="cls-2" d="M5705,4024.66c0-3,1.68-5.33,5.1-5.33a6.67,6.67,0,0,1,3.17.61l-0.29,1.7a6,6,0,0,0-2.67-.63c-2.29,0-3.38,1.36-3.38,3.65s1.09,3.72,3.38,3.72a6.09,6.09,0,0,0,2.69-.63l0.25,1.51a5.29,5.29,0,0,1-3.13.78C5706.66,4030,5705,4027.54,5705,4024.66Z" transform="translate(-5609.11 -4001.65)"/><path class="cls-2" d="M5715.06,4024.68c0-3,1.87-5.35,5.1-5.35s5.1,2.37,5.1,5.35-1.89,5.35-5.1,5.35S5715.06,4027.66,5715.06,4024.68Zm1.93,0c0,2.31,1.13,3.67,3.17,3.67s3.17-1.37,3.17-3.67-1.13-3.67-3.17-3.67S5717,4022.37,5717,4024.68Z" transform="translate(-5609.11 -4001.65)"/><path class="cls-2" d="M5733.16,4021.24h-0.65a3.13,3.13,0,0,0-2.35,1.32v7.26h-2v-10.29h1.55l0.23,1.7c1.24-1.41,2.23-2.08,3.49-2.08h0.17Z" transform="translate(-5609.11 -4001.65)"/><path class="cls-2" d="M5743,4029.82l-0.21-1.3a4.35,4.35,0,0,1-3.15,1.51c-2.62,0-4.68-2.35-4.68-5.35,0-2.81,1.81-5.35,4.68-5.35a4,4,0,0,1,3.15,1.3v-6.55h1.89v15.75H5743Zm-6.11-5.14c0,2,1.09,3.67,2.9,3.67,1.51,0,3.21-1,3.21-3.61a3.41,3.41,0,0,0-3.21-3.74C5738,4021,5736.87,4022.58,5736.87,4024.68Z" transform="translate(-5609.11 -4001.65)"/><path class="cls-2" d="M5748.1,4017.23v-2.1H5750v2.1h-1.89Zm0,12.6v-10.29H5750v10.29h-1.89Z" transform="translate(-5609.11 -4001.65)"/><path class="cls-2" d="M5760.81,4029.82v-5.67c0-2.18-.73-3.15-2.69-3.15a3.11,3.11,0,0,0-2.81,1.34v7.47h-1.89v-10.29h1.47l0.21,1.09a4.79,4.79,0,0,1,3.4-1.3c3,0,4.2,1.87,4.2,4.83v5.67h-1.89Z" transform="translate(-5609.11 -4001.65)"/><path class="cls-2" d="M5765.31,4032a2.4,2.4,0,0,1,1.83-2.31,1.52,1.52,0,0,1-1-1.3,1.83,1.83,0,0,1,1.22-1.53,4.11,4.11,0,0,1,2.41-7.5,4.71,4.71,0,0,1,2.62.76,5.29,5.29,0,0,1,2.5-.59H5775l-0.23,1.26h-0.48a7.07,7.07,0,0,0-1.22.15,3.62,3.62,0,0,1,.94,2.46,4,4,0,0,1-4.16,4.09,5.64,5.64,0,0,1-1.47-.19,0.81,0.81,0,0,0-.5.63c0,0.52.76,0.67,3.19,1.09,1.62,0.27,4.2.84,4.2,2.86,0,1.66-1.76,3.23-5.17,3.23C5766.55,4035.07,5765.31,4033.33,5765.31,4032Zm3.44-1.85a2.16,2.16,0,0,0-1.64,1.81c0,0.94,1.11,1.68,3.09,1.68s3.17-.84,3.17-1.64-0.88-1.26-2.75-1.6Zm-1.43-6.72a2.38,2.38,0,0,0,2.46,2.6,2.41,2.41,0,0,0,2.44-2.67A2.45,2.45,0,1,0,5767.33,4023.4Z" transform="translate(-5609.11 -4001.65)"/><polygon class="cls-2" points="177.66 29.1 188.81 20.9 177.66 12.8 177.66 29.1"/></svg>