<svg id="Layer_1" data-name="Layer 1" xmlns="http://www.w3.org/2000/svg" viewBox="0 0 237.65 69.52"><defs><style>.cls-1{fill:#c43c43;}.cls-2{fill:#777;}</style></defs><title>DeckerDigital_logo</title><path class="cls-1" d="M426.1,241a10.69,10.69,0,0,0-1.19-.32,10.31,10.31,0,0,0-2.06-.18,7.57,7.57,0,0,0-3.35.71,7.13,7.13,0,0,0-2.4,1.87,8,8,0,0,0-1.44,2.65,9.7,9.7,0,0,0-.48,3,11.58,11.58,0,0,0,.47,3.34,8,8,0,0,0,1.37,2.7,6.51,6.51,0,0,0,2.24,1.8,6.81,6.81,0,0,0,3,.66,6.35,6.35,0,0,0,2.24-.39,5.09,5.09,0,0,0,1.63-1l0.16,1.06H429V234.73H426.1V241Zm-0.41,2.4a3,3,0,0,1,.41.19v9.58a4.21,4.21,0,0,1-1.58,1.24,4.64,4.64,0,0,1-1.85.39,4.34,4.34,0,0,1-2-.45,4.2,4.2,0,0,1-1.43-1.23,5.4,5.4,0,0,1-.86-1.87,9.45,9.45,0,0,1-.29-2.38,7.78,7.78,0,0,1,.32-2.19,5.75,5.75,0,0,1,1-1.91,4.82,4.82,0,0,1,1.61-1.33,5,5,0,0,1,2.29-.5,6.29,6.29,0,0,1,.85.06,7.62,7.62,0,0,1,.86.17C425.22,243.28,425.47,243.36,425.69,243.45Z" transform="translate(-266.24 -234.73)"/><path class="cls-1" d="M435.27,234.73a1.72,1.72,0,0,0-1.33.62,2.21,2.21,0,0,0,0,2.9,1.75,1.75,0,0,0,2.65,0,2.21,2.21,0,0,0,0-2.9A1.72,1.72,0,0,0,435.27,234.73Z" transform="translate(-266.24 -234.73)"/><rect class="cls-1" x="167.56" y="6.2" width="2.95" height="15.98"/><path class="cls-1" d="M453.83,254.34a8.86,8.86,0,0,0-2.61-.77,26.45,26.45,0,0,0-3.49-.26A11,11,0,0,1,445,253c-0.63-.2-0.63-0.48-0.63-0.57a0.64,0.64,0,0,1,.36-0.56,2.3,2.3,0,0,1,.87-0.31c0.25,0,.58.09,1,0.13s0.79,0.07,1.08.07a10.18,10.18,0,0,0,2.6-.33,6.75,6.75,0,0,0,2.25-1,5.46,5.46,0,0,0,1.58-1.78,5.1,5.1,0,0,0,.6-2.5,4.92,4.92,0,0,0-.38-2,5.66,5.66,0,0,0-.86-1.4l2.14-2.14-1.9-1.74-2.36,2.36a8,8,0,0,0-1.7-.53,9.87,9.87,0,0,0-4.43.15,7,7,0,0,0-2.2,1,5.34,5.34,0,0,0-1.58,1.75,5,5,0,0,0-.6,2.48,4.82,4.82,0,0,0,.31,1.79,5.34,5.34,0,0,0,.76,1.34,4.89,4.89,0,0,0,1,1l0.5,0.33a4.27,4.27,0,0,0-1.36.75,2.07,2.07,0,0,0-.77,1.66,1.94,1.94,0,0,0,.44,1.31,2.84,2.84,0,0,0,.71.6,4.11,4.11,0,0,0-2.06,3.71,4,4,0,0,0,2.18,3.77,14.62,14.62,0,0,0,8.83.84,8.21,8.21,0,0,0,2.43-1,5.2,5.2,0,0,0,1.66-1.65,4.35,4.35,0,0,0,.62-2.33,4.57,4.57,0,0,0-.57-2.37A4,4,0,0,0,453.83,254.34Zm-10.34,2.36a3.66,3.66,0,0,1,1.24-1,29.38,29.38,0,0,0,3,.19h0a23.76,23.76,0,0,1,2.83.19,6.06,6.06,0,0,1,1.74.47,1.82,1.82,0,0,1,.84.73,2.28,2.28,0,0,1,.24,1.08,2.25,2.25,0,0,1-1.32,2,7.15,7.15,0,0,1-3.57.79,12.06,12.06,0,0,1-2.23-.19,6.66,6.66,0,0,1-1.73-.55,3.11,3.11,0,0,1-1.11-.87,1.87,1.87,0,0,1-.38-1.18A2.65,2.65,0,0,1,443.48,256.7Zm0.24-10.57a2.78,2.78,0,0,1,.33-1.39,2.93,2.93,0,0,1,.89-1,4.24,4.24,0,0,1,1.29-.59,5.71,5.71,0,0,1,3,0,4.24,4.24,0,0,1,1.29.59,3,3,0,0,1,.89,1,2.72,2.72,0,0,1,.33,1.35,3.13,3.13,0,0,1-.37,1.57,2.92,2.92,0,0,1-1,1,4.26,4.26,0,0,1-1.34.56,5.53,5.53,0,0,1-3.13-.1,4,4,0,0,1-1.23-.75,3.33,3.33,0,0,1-.78-1A3.12,3.12,0,0,1,443.72,246.13Z" transform="translate(-266.24 -234.73)"/><rect class="cls-1" x="193.13" y="6.2" width="2.95" height="15.98"/><path class="cls-1" d="M460.84,234.73a1.72,1.72,0,0,0-1.33.62,2.21,2.21,0,0,0,0,2.9,1.75,1.75,0,0,0,2.65,0,2.21,2.21,0,0,0,0-2.9A1.72,1.72,0,0,0,460.84,234.73Z" transform="translate(-266.24 -234.73)"/><path class="cls-1" d="M474.55,254a5.17,5.17,0,0,1-1,.6,2.53,2.53,0,0,1-1.09.24,1.47,1.47,0,0,1-1-.33,1.82,1.82,0,0,1-.37-1.36v-9.76h4.11v-2.46h-4.08v-4.24h-2.92v4.24h-2.68v2.46h2.68v10a3.84,3.84,0,0,0,1,2.9,4,4,0,0,0,2.85,1,5.48,5.48,0,0,0,2.15-.34,8.16,8.16,0,0,0,1.52-.9l0.14-.11-1.19-2.05Z" transform="translate(-266.24 -234.73)"/><path class="cls-1" d="M484.13,240.54a7.9,7.9,0,0,0-3.33.62,6.12,6.12,0,0,0-2.31,1.94l-0.12.17,2.09,1.47,0.12-.15a4.52,4.52,0,0,1,1.45-1.2,4,4,0,0,1,1.88-.45,3,3,0,0,1,2.26.79,3.75,3.75,0,0,1,.77,2.66,21.31,21.31,0,0,0-3.06.26,11.66,11.66,0,0,0-3.09.91,6.67,6.67,0,0,0-2.34,1.77,4.36,4.36,0,0,0-.94,2.87,4.9,4.9,0,0,0,.48,2.21,4.81,4.81,0,0,0,1.24,1.58,5.32,5.32,0,0,0,1.76.95,6.62,6.62,0,0,0,2,.32,6.25,6.25,0,0,0,2.41-.46,6,6,0,0,0,1.64-1l0.11,1.11h2.67V246.55c0-2.14-.51-3.69-1.52-4.62A6,6,0,0,0,484.13,240.54Zm2.8,8.25v4.53a7.75,7.75,0,0,1-1.6,1,4.25,4.25,0,0,1-3,.31,2.59,2.59,0,0,1-.91-0.45,2.69,2.69,0,0,1-.68-0.81,2.37,2.37,0,0,1-.27-1.17,2.48,2.48,0,0,1,.61-1.76,4.11,4.11,0,0,1,1.62-1,9.29,9.29,0,0,1,2.19-.49C485.6,248.87,486.29,248.81,486.93,248.79Z" transform="translate(-266.24 -234.73)"/><rect class="cls-1" x="228.39" width="2.92" height="22.18"/><path class="cls-2" d="M311.34,257h0c-5.39-4.63-12.22-5-20.47-5H266.24v4.41h3.31c4.84,0.09,6.07,1.07,6.14,4.69V295c-0.07,3.62-1.37,4.67-6.14,4.76h-3.31v4.42h24.5c8.54,0,15.64-.41,21.38-5.78,4.53-4.27,7.75-12.71,7.76-20.23C319.87,269.88,316.48,261.38,311.34,257Zm-20.61,42.82h-7.39V256.43h7.46c14.37,0.07,20.51,6.53,20.58,21.16C311.31,293.14,305.35,299.73,290.74,299.81Z" transform="translate(-266.24 -234.73)"/><path class="cls-2" d="M436,298.47a8.53,8.53,0,0,1-6.43-2.93l-11.12-12.25,8.25-6.68c2.7-2.15,4.52-2.83,7.52-2.84h1.54v-4.38H414.43v4.38h3.67a11.92,11.92,0,0,1,2.61.19c0.52,0.15.51,0.24,0.52,0.34,0,0.63-.66,1.42-1.87,2.35l-11.15,8.84V246.66H393.77V251h2.36c4.06,0.09,5,.78,5.07,3.41v40.67c-0.12,2.93-.19,3.28-3.89,3.41h-2.37v4.38H413.8v-4.38h-1.62c-3.59-.12-3.84-0.34-4-3.41v-3.88l5.14-3.91,8.49,9.23a1.8,1.8,0,0,1,.69,1.17c0,0.24,0,.76-2.92.8h-2.29v4.38h20.18v-4.38H436Z" transform="translate(-266.24 -234.73)"/><path class="cls-2" d="M354.35,274.92a13.14,13.14,0,0,0-3.84-4.19,16.72,16.72,0,0,0-9.84-2.77c-10.16,0-17,7.35-17,18.14s6.88,18.13,17,18.15h0.09c8.46,0,13.74-4.27,15.34-12.42l0-.17,0.09-.44h-5.1l-0.11.36c-1.52,5.16-4.77,7.67-9.93,7.7-6.38,0-9.65-4-9.7-12.12h25.77v-0.51C357.12,281.87,356.16,277.94,354.35,274.92Zm-13.82-2.48c5.75,0,8.4,3,8.71,10H331.63C332.2,275.88,335.29,272.47,340.53,272.44Z" transform="translate(-266.24 -234.73)"/><path class="cls-2" d="M464.48,270.73a16.72,16.72,0,0,0-9.83-2.77c-10.17,0-17,7.35-17,18.15s6.87,18.12,17,18.14h0.1c8.46,0,13.73-4.27,15.33-12.42l0-.17,0.08-.43h-5.1l-0.09.38c-1.52,5.15-4.77,7.66-9.93,7.68-6.37,0-9.65-4-9.7-12.12h25.76v-0.51a23.17,23.17,0,0,0-2.67-11.53A13.17,13.17,0,0,0,464.48,270.73Zm-10,1.71c5.75,0,8.4,3,8.71,10H445.6C446.17,275.88,449.26,272.47,454.5,272.44Z" transform="translate(-266.24 -234.73)"/><path class="cls-2" d="M503.88,275.2c-0.08-4.17-4.15-7.09-8.29-7-3.94,0-7.09,2.1-9.5,6.27v-5.23H472.66v4.34h2.45c3.58,0.13,3.89.4,4,3.52v18.05c-0.12,3.11-.38,3.33-4,3.46h-2.45V303h21.28v-4.42H490c-3.74-.13-3.82-0.49-3.95-3.46v-7.78c0-9.81,4.88-14.9,9.22-14.91a4.09,4.09,0,0,1,2,.46,4,4,0,0,0-1.14,2.78,3.81,3.81,0,0,0,3.76,3.95H500c2.15,0,3.86-2.12,3.86-4.32,0,0,0-.08,0-0.12h0Z" transform="translate(-266.24 -234.73)"/><path class="cls-2" d="M379.1,299.11c-6.37,0-10.46-4.94-10.48-12.82,0-8.87,4-13.92,10.74-13.94,3.88,0,6.54,1.16,8.12,3.37a4,4,0,1,0,6.27,3.23s0,0,0,0h0a0.79,0.79,0,0,0,0-.1h0c0-6.18-6.62-10.85-14.88-10.86-10.41,0-18,7.75-18,18.35s7.12,17.92,17.6,17.93h0.09c8.47,0,13.67-4.5,15.19-13h-4.57C387.8,296.42,384,299.1,379.1,299.11Z" transform="translate(-266.24 -234.73)"/></svg>