<svg id="Layer_1" data-name="Layer 1" xmlns="http://www.w3.org/2000/svg" viewBox="0 0 18.45 16.03"><defs><style>.cls-1{fill:#999;}</style></defs><title>download_icon</title><path class="cls-1" d="M416.2,306.63v3.67H401.85v-3.67h-2v4.69a1,1,0,0,0,1,1h16.4a1,1,0,0,0,1-1v-4.69h-2Z" transform="translate(-399.8 -296.31)"/><polygon class="cls-1" points="9.22 12.07 13.56 6.11 10.39 6.12 10.39 0 8.05 0 8.05 6.12 4.89 6.12 9.22 12.07"/><path class="cls-1" d="M416.2,306.63v3.67H401.85v-3.67h-2v4.69a1,1,0,0,0,1,1h16.4a1,1,0,0,0,1-1v-4.69h-2Z" transform="translate(-399.8 -296.31)"/><polygon class="cls-1" points="9.22 12.07 13.56 6.11 10.39 6.12 10.39 0 8.05 0 8.05 6.12 4.89 6.12 9.22 12.07"/></svg>