<svg id="Layer_1" data-name="Layer 1" xmlns="http://www.w3.org/2000/svg" viewBox="0 0 24.59 27.84"><defs><style>.cls-1{fill:#878787;}</style></defs><title>Next-page</title><path class="cls-1" d="M750.29,495.86a12.24,12.24,0,0,1,4.7-3.44l0-4.18,7.72,5.64L755,499.66l0-3.85a9.3,9.3,0,0,0-2.38,2,9.26,9.26,0,1,0,13.15-1l0,0,2.14-2.14a12.29,12.29,0,1,1-20.44,10.2q0-.53,0-1.06A12.2,12.2,0,0,1,750.29,495.86Z" transform="translate(-747.4 -488.24)"/><path class="cls-1" d="M755.06,503.13v-0.83a5.33,5.33,0,0,0,.8-0.08,1.13,1.13,0,0,0,.59-0.32,1.07,1.07,0,0,0,.24-0.44,1,1,0,0,0,0-.25h1v6.17h-1.24v-4.26h-1.45Z" transform="translate(-747.4 -488.24)"/><path class="cls-1" d="M760.92,505.74a1.17,1.17,0,0,0,.28.61,0.78,0.78,0,0,0,.59.21,0.8,0.8,0,0,0,.69-0.32,1.3,1.3,0,0,0,.24-0.8,1.39,1.39,0,0,0-.22-0.8,0.77,0.77,0,0,0-.69-0.33,1.2,1.2,0,0,0-.38.05,0.76,0.76,0,0,0-.43.38l-1.09-.05,0.43-3.41h3.4v1h-2.52L761,503.68a2.53,2.53,0,0,1,.44-0.24,1.84,1.84,0,0,1,.64-0.1,1.86,1.86,0,0,1,1.9,2,2.35,2.35,0,0,1-.55,1.53,2,2,0,0,1-1.64.67,2.18,2.18,0,0,1-1.45-.47,1.84,1.84,0,0,1-.63-1.34h1.21Z" transform="translate(-747.4 -488.24)"/></svg>