<svg id="Interactive_elements" data-name="Interactive elements" xmlns="http://www.w3.org/2000/svg" viewBox="0 0 109.39 30.49"><defs><style>.cls-1{fill:#999;}.cls-2{fill:#626262;}</style></defs><title>start-over_icon</title><path class="cls-1" d="M750,784.68a15.25,15.25,0,1,0,15.25,15.25A15.25,15.25,0,0,0,750,784.68Zm3.1,25.35-0.16,0a0.47,0.47,0,0,1-.2-0.9c2.21-1,3.47-2.54,3.47-4.1,0-2.65-3.66-4.8-8.7-5.13v2.51a0.82,0.82,0,0,1-.45.73l-0.17.06-0.16,0h0a0.81,0.81,0,0,1-.51-0.15L740,797.63a0.82,0.82,0,0,1,0-1.32l6.23-5.46a0.82,0.82,0,0,1,.85-0.07,0.78,0.78,0,0,1,.2.14h0a0.86,0.86,0,0,1,.11.14l0,0a1,1,0,0,1,.06.14l0,0.05a0.82,0.82,0,0,1,0,.2v2.42h0c7.37,0.74,12.71,4.39,12.71,8.66C760.26,805.63,757.57,808.41,753.08,810Z" transform="translate(-734.74 -784.68)"/><path class="cls-2" d="M777.88,795.67a0.45,0.45,0,0,1-.1.12,0.23,0.23,0,0,1-.14,0,0.38,0.38,0,0,1-.22-0.09l-0.31-.21a2.56,2.56,0,0,0-.46-0.21,2,2,0,0,0-.65-0.09,1.9,1.9,0,0,0-.63.1,1.32,1.32,0,0,0-.46.26,1.07,1.07,0,0,0-.28.39,1.23,1.23,0,0,0-.09.48,0.89,0.89,0,0,0,.16.55,1.39,1.39,0,0,0,.43.37,3.23,3.23,0,0,0,.6.27l0.69,0.23q0.36,0.12.69,0.27a2.43,2.43,0,0,1,.6.38,1.74,1.74,0,0,1,.43.57,1.88,1.88,0,0,1,.16.83,2.66,2.66,0,0,1-.18,1,2.23,2.23,0,0,1-.51.79,2.4,2.4,0,0,1-.83.53,3.06,3.06,0,0,1-1.12.19,3.43,3.43,0,0,1-1.39-.28,3.28,3.28,0,0,1-1.08-.75l0.31-.51a0.4,0.4,0,0,1,.11-0.1,0.25,0.25,0,0,1,.14,0,0.44,0.44,0,0,1,.26.12,4.36,4.36,0,0,0,.37.27,2.88,2.88,0,0,0,.54.27,2.14,2.14,0,0,0,.77.12,2,2,0,0,0,.68-0.1,1.43,1.43,0,0,0,.5-0.29,1.27,1.27,0,0,0,.32-0.45,1.52,1.52,0,0,0,.11-0.59,1,1,0,0,0-.16-0.59,1.33,1.33,0,0,0-.43-0.38,2.91,2.91,0,0,0-.6-0.26l-0.69-.22a6.83,6.83,0,0,1-.69-0.26,2.26,2.26,0,0,1-.6-0.38,1.76,1.76,0,0,1-.43-0.59,2.27,2.27,0,0,1,0-1.69,2.07,2.07,0,0,1,.47-0.69,2.28,2.28,0,0,1,.76-0.48,2.79,2.79,0,0,1,1-.18,3.35,3.35,0,0,1,1.2.21,2.77,2.77,0,0,1,1,.61Z" transform="translate(-734.74 -784.68)"/><path class="cls-2" d="M786.05,794.44v0.9H783.5v7h-1.07v-7h-2.56v-0.9h6.17Z" transform="translate(-734.74 -784.68)"/><path class="cls-2" d="M793.66,802.32h-0.82a0.35,0.35,0,0,1-.23-0.07,0.44,0.44,0,0,1-.13-0.18l-0.74-1.9H788.2l-0.74,1.9a0.42,0.42,0,0,1-.13.18,0.35,0.35,0,0,1-.23.08h-0.82l3.15-7.88h1.08Zm-5.16-2.93h2.94l-1.24-3.21a5.92,5.92,0,0,1-.24-0.74l-0.12.42c0,0.13-.08.24-0.11,0.33Z" transform="translate(-734.74 -784.68)"/><path class="cls-2" d="M796.65,799v3.29h-1.06v-7.88h2.23a4.88,4.88,0,0,1,1.29.15,2.48,2.48,0,0,1,.9.44,1.75,1.75,0,0,1,.53.69,2.31,2.31,0,0,1,.17.9,2.26,2.26,0,0,1-.13.78,2.06,2.06,0,0,1-.38.65,2.26,2.26,0,0,1-.61.49,3,3,0,0,1-.82.31,1.13,1.13,0,0,1,.35.33l2.3,3.13h-0.95a0.47,0.47,0,0,1-.43-0.23l-2-2.82a0.6,0.6,0,0,0-.2-0.19,0.74,0.74,0,0,0-.33-0.06h-0.81Zm0-.78h1.12a2.72,2.72,0,0,0,.82-0.11,1.65,1.65,0,0,0,.59-0.32,1.32,1.32,0,0,0,.36-0.49,1.61,1.61,0,0,0,.12-0.63,1.26,1.26,0,0,0-.46-1.06,2.25,2.25,0,0,0-1.38-.36h-1.17v3Z" transform="translate(-734.74 -784.68)"/><path class="cls-2" d="M808.64,794.44v0.9H806.1v7H805v-7h-2.56v-0.9h6.17Z" transform="translate(-734.74 -784.68)"/><path class="cls-2" d="M820.86,798.38a4.55,4.55,0,0,1-.28,1.63,3.73,3.73,0,0,1-.79,1.27,3.55,3.55,0,0,1-1.23.83,4.42,4.42,0,0,1-3.17,0,3.54,3.54,0,0,1-1.23-.83,3.73,3.73,0,0,1-.79-1.27,4.85,4.85,0,0,1,0-3.25,3.74,3.74,0,0,1,.79-1.28,3.56,3.56,0,0,1,1.23-.83,4.38,4.38,0,0,1,3.17,0,3.56,3.56,0,0,1,1.23.83,3.75,3.75,0,0,1,.79,1.28A4.55,4.55,0,0,1,820.86,798.38Zm-1.09,0a4,4,0,0,0-.2-1.3,2.74,2.74,0,0,0-.56-1,2.43,2.43,0,0,0-.88-0.61,3.2,3.2,0,0,0-2.3,0,2.46,2.46,0,0,0-.88.61,2.72,2.72,0,0,0-.56,1,4.38,4.38,0,0,0,0,2.6,2.72,2.72,0,0,0,.56,1,2.42,2.42,0,0,0,.88.61,3.24,3.24,0,0,0,2.3,0,2.39,2.39,0,0,0,.88-0.61,2.75,2.75,0,0,0,.56-1A4,4,0,0,0,819.76,798.38Z" transform="translate(-734.74 -784.68)"/><path class="cls-2" d="M821.95,794.44h0.85a0.35,0.35,0,0,1,.23.07,0.43,0.43,0,0,1,.13.18l2.23,5.56a4,4,0,0,1,.14.41l0.12,0.46q0-.24.11-0.46a3.18,3.18,0,0,1,.13-0.41l2.22-5.56a0.47,0.47,0,0,1,.13-0.17,0.35,0.35,0,0,1,.23-0.08h0.86l-3.21,7.88h-1Z" transform="translate(-734.74 -784.68)"/><path class="cls-2" d="M836.07,794.44v0.87h-3.78v2.62h3.06v0.84h-3.06v2.69h3.78v0.87h-4.86v-7.88h4.86Z" transform="translate(-734.74 -784.68)"/><path class="cls-2" d="M839.36,799v3.29H838.3v-7.88h2.23a4.88,4.88,0,0,1,1.29.15,2.48,2.48,0,0,1,.9.44,1.75,1.75,0,0,1,.53.69,2.31,2.31,0,0,1,.17.9,2.26,2.26,0,0,1-.13.78,2.06,2.06,0,0,1-.38.65,2.26,2.26,0,0,1-.61.49,3,3,0,0,1-.82.31,1.13,1.13,0,0,1,.35.33l2.3,3.13h-0.95a0.47,0.47,0,0,1-.43-0.23l-2-2.82a0.6,0.6,0,0,0-.2-0.19,0.74,0.74,0,0,0-.33-0.06h-0.81Zm0-.78h1.12a2.72,2.72,0,0,0,.82-0.11,1.65,1.65,0,0,0,.59-0.32,1.32,1.32,0,0,0,.36-0.49,1.61,1.61,0,0,0,.12-0.63,1.26,1.26,0,0,0-.46-1.06,2.25,2.25,0,0,0-1.38-.36h-1.17v3Z" transform="translate(-734.74 -784.68)"/></svg>