<svg id="Layer_1" data-name="Layer 1" xmlns="http://www.w3.org/2000/svg" viewBox="0 0 35.37 240.5"><defs><style>.cls-1{fill:#dcdcda;}.cls-2{fill:#fff;}</style></defs><title>Work-Station_tab_closed</title><path class="cls-1" d="M347.28,386V185c0-4,.72-6.45,3.06-8.43,17.13-14.47,32.31-26.29,32.31-26.29V390.8h-31c-2.48,0-4.41-.77-4.41-4.8" transform="translate(-347.28 -150.3)"/><path class="cls-2" d="M373.69,361.82l-10.58,1.32,7.26,3.8-7.26,3.88,10.58,1.32v2l-14-1.88v-1.62l6.94-3.68-6.94-3.64v-1.64l14-1.86v2Z" transform="translate(-347.28 -150.3)"/><path class="cls-2" d="M378.53,354.12v2l-5.28-2.26-9.36,4.08v-2l7.28-3.06-7.28-2.76v-2Z" transform="translate(-347.28 -150.3)"/><path class="cls-2" d="M373.69,325.76v2.1l-11.48,3.3,11.48,3.42v2.1l-14,3.92v-2l11.84-3.1L360,332v-1.72l11.54-3.54-11.82-3.08v-2Z" transform="translate(-347.28 -150.3)"/><path class="cls-2" d="M368.79,320.27c-2.84,0-5.1-1.78-5.1-4.86s2.26-4.86,5.1-4.86,5.1,1.8,5.1,4.86S371.63,320.27,368.79,320.27Zm0-1.84c2.2,0,3.5-1.08,3.5-3s-1.3-3-3.5-3-3.5,1.08-3.5,3S366.59,318.43,368.79,318.43Z" transform="translate(-347.28 -150.3)"/><path class="cls-2" d="M365.51,302.71v0.62a3,3,0,0,0,1.26,2.24h6.92v1.92h-9.8V306l1.62-.22c-1.34-1.18-2-2.12-2-3.32v-0.16Z" transform="translate(-347.28 -150.3)"/><path class="cls-2" d="M373.69,299.82h-15V298h9.62l-4.42-3.6v-2.2l4.52,4,5.28-4.14v2.2l-5,3.7h5v1.8Z" transform="translate(-347.28 -150.3)"/><path class="cls-2" d="M373.07,283.94l-2.22-.26a7.46,7.46,0,0,0,1.4-4.36c0-1.72-.58-3.34-2.16-3.34s-2.18,1.6-2.82,3.62c-0.74,2.32-1.42,4.56-3.82,4.56-1.74,0-4-1.2-4-5a10.34,10.34,0,0,1,1-4.4l2,0.2a9.07,9.07,0,0,0-1.26,4c0,1.44.6,3.14,2.06,3.14,1.3,0,1.82-1.34,2.34-3,0.76-2.46,1.5-5.16,4.54-5.16,1.48,0,3.9.62,3.9,5.46A10.45,10.45,0,0,1,373.07,283.94Z" transform="translate(-347.28 -150.3)"/><path class="cls-2" d="M373.89,266.22v1.62a2.27,2.27,0,0,1-2.34,2.56h-6.26v1.68l-1.4-.16V270.4h-2.42l-0.18-1.8h2.6V266h1.4v2.58h5.16c1.88,0,2-.12,2-2.06v-0.46Z" transform="translate(-347.28 -150.3)"/><path class="cls-2" d="M373.89,255.17v0.14c0,1.74-.52,2.12-1.44,2.52a3.88,3.88,0,0,1,1.44,3,2.8,2.8,0,0,1-2.84,3c-2.76,0-3.46-3.36-3.5-5.86-1.86,0-2.26.76-2.26,2.14a4.27,4.27,0,0,0,.88,2.58l-1.46.26a5.65,5.65,0,0,1-1-3.32c0-2.48,1.16-3.46,4.7-3.46h2c1.4,0,2.06-.08,2.06-1.12v-0.18Zm-5.1,2.82c0.1,2.86.7,4,2.16,4a1.36,1.36,0,0,0,1.5-1.52,3.18,3.18,0,0,0-1.32-2.5h-2.34Z" transform="translate(-347.28 -150.3)"/><path class="cls-2" d="M373.89,247.72v1.62a2.27,2.27,0,0,1-2.34,2.56h-6.26v1.68l-1.4-.16v-1.52h-2.42l-0.18-1.8h2.6v-2.58h1.4v2.58h5.16c1.88,0,2-.12,2-2.06v-0.46Z" transform="translate(-347.28 -150.3)"/><path class="cls-2" d="M361.69,244.87h-2v-1.8h2v1.8Zm12,0h-9.8v-1.8h9.8v1.8Z" transform="translate(-347.28 -150.3)"/><path class="cls-2" d="M368.79,240c-2.84,0-5.1-1.78-5.1-4.86s2.26-4.86,5.1-4.86,5.1,1.8,5.1,4.86S371.63,240,368.79,240Zm0-1.84c2.2,0,3.5-1.08,3.5-3s-1.3-3-3.5-3-3.5,1.08-3.5,3S366.59,238.18,368.79,238.18Z" transform="translate(-347.28 -150.3)"/><path class="cls-2" d="M373.69,220.21h-5.4c-2.08,0-3,.7-3,2.56a3,3,0,0,0,1.28,2.68h7.12v1.8h-9.8v-1.4l1-.2a4.57,4.57,0,0,1-1.24-3.24c0-2.86,1.78-4,4.6-4h5.4v1.8Z" transform="translate(-347.28 -150.3)"/><path class="cls-2" d="M369,205.27a1.5,1.5,0,0,1-1.5-1.5V189.24a1.5,1.5,0,1,1,3,0v14.53A1.5,1.5,0,0,1,369,205.27Z" transform="translate(-347.28 -150.3)"/><path class="cls-2" d="M376.25,198H361.71a1.5,1.5,0,0,1,0-3h14.53A1.5,1.5,0,0,1,376.25,198Z" transform="translate(-347.28 -150.3)"/></svg>