<svg id="Interactive_elements" data-name="Interactive elements" xmlns="http://www.w3.org/2000/svg" xmlns:xlink="http://www.w3.org/1999/xlink" viewBox="0 0 144.77 84.06"><defs><style>.cls-1{fill:none;}.cls-2{fill:#fe961c;}.cls-3{fill:#ffca00;}.cls-4{opacity:0.5;}.cls-5{clip-path:url(#clip-path);}.cls-6{fill:#d7731b;}.cls-7{fill:#badef5;}.cls-8{fill:#b5e2fa;}.cls-9{fill:#14608b;}.cls-10{fill:#6cc5f5;}.cls-11{fill:#14608a;}.cls-12{fill:#2e8bbd;}.cls-13{fill:#f37573;}.cls-14{fill:#c53a43;}</style><clipPath id="clip-path" transform="translate(-546.54 -5180.12)"><rect class="cls-1" x="589.88" y="5180.12" width="25.28" height="18.26"/></clipPath></defs><title>characters_finance</title><path class="cls-2" d="M594.6,5219.31a58.92,58.92,0,0,1,8.26-1.18,39.67,39.67,0,0,1,8.84,1.18s-2.36,6.19-8.55,6S594.6,5219.31,594.6,5219.31Z" transform="translate(-546.54 -5180.12)"/><path class="cls-2" d="M589.88,5195.85s-2.76-1.68-2.76,2.2a11.34,11.34,0,0,0,2.67,6.21,2.71,2.71,0,0,0,1.82.24s1,5.22,2.81,6.92a7.11,7.11,0,0,0,3.71,1.89L597,5221l2.06,4,10.61-1.62-1.94-10a9.48,9.48,0,0,0,3.86-2.73,57.06,57.06,0,0,0,2.36-6.31,1.42,1.42,0,0,0,2,0c0.9-1,1.37-3.92,1.6-6.12,0.49-4.73-2.4-2.8-2.4-2.8a20.22,20.22,0,0,0-3-10.81c-3.3-5.34-15-5.39-18.11-.84a22.17,22.17,0,0,0-4.16,12.17" transform="translate(-546.54 -5180.12)"/><path class="cls-3" d="M597.2,5218.14s-11,1.48-13.12,4-2.79,4.2-3.15,8.39c-0.17,2-2,15.75-2,15.75h47.55s-1.66-15-1.66-16.95a10.64,10.64,0,0,0-2.38-7.2c-2.1-2.47-13.65-4-13.65-4a6.56,6.56,0,0,1-5.83,3.22,6.29,6.29,0,0,1-5.72-3.22" transform="translate(-546.54 -5180.12)"/><g class="cls-4"><g class="cls-5"><path class="cls-6" d="M589.88,5195.85l0.77,2.54s0.94-6.85,2.67-9.69,2.36-5,4.24-5.18,3.77,1.5,6.29,1.84,3.93-2.67,5.5-1.5,1.89,1.34,3.14,4.68a29.47,29.47,0,0,1,1.41,7.85l1.21-1.05s1.31-14.15-11.89-15.15-13.35,15.68-13.35,15.68" transform="translate(-546.54 -5180.12)"/></g></g><path class="cls-7" d="M662.38,5228s2.35-1.52,8.42-1.79,8.56,1.52,8.56,1.52-1.52,7.18-6.63,7.73S662.38,5228,662.38,5228Z" transform="translate(-546.54 -5180.12)"/><path class="cls-8" d="M661,5235.1c1.27,2.51,6.56-3.22,4.82-13-0.31-1.76-11.35-15.23-9.71-25.68s3.28-7,12.29-6.53,19.67-4.36,16,10.46c-2.28,9.15-4,14.31-5.65,17.31-1,1.86-2.25,2.76-2.51,3.69-2.87,10,4.47,13.85,4.47,13.85Z" transform="translate(-546.54 -5180.12)"/><path class="cls-9" d="M671.75,5185.4c-3.39-.07-6.6-1.5-10.76.72-9.84,5.28-10.46,21-6.08,28.57a26.93,26.93,0,0,1,2.15,3.81c0.67,2.71-2.09,3.55-1.79,3.81s4.83-2.61,5.07-2.42c3.74,2.93,6.4,0,6.4,0a21,21,0,0,1-3.26-3c-4.7-6.11-2.89-15.31-2.89-15.31l11.72,0,1.7-3,1.69,2.93,5.16,0s2.26,11.16-3.36,17.77c-1.93,2.26-1.2,3.31-1.2,3.31a7.46,7.46,0,0,0,3.95-.25c2.1-.72,1.58-2.78,1.85-2.93s2.7,3.5,3.67,3.1c1.58-.65-1.52-4.11-0.37-6.41,3.65-7.3,4.44-23.68-4.53-29.11-2.46-1.49-5.34-1.51-9.11-1.59" transform="translate(-546.54 -5180.12)"/><path class="cls-10" d="M664.29,5226.92s1.48,5.29,6.8,5.29,6.75-5.29,6.75-5.29,11,2.58,12.24,4.32,1.23,18.73,1.23,18.73h-7l-1.23-7-1.23,7H661l-2.46-6.53-0.82,6.53h-6.56s0-15.68,2-17.86,11.09-5.19,11.09-5.19" transform="translate(-546.54 -5180.12)"/><path class="cls-10" d="M562.82,5219.87c0.09,1.32.67,8.14,0.55,9-0.05.39-2.16-.46-1.95,1.75,0.68,7.15,19.89,5.32,18.5-.4-0.29-1.2-5.8-3.08-5.76-5.08,0.06-2.73.81-10.68,0.68-12.36-0.34-4.4-12.19,4.57-12,7.11" transform="translate(-546.54 -5180.12)"/><path class="cls-11" d="M576.63,5227.61c0.16-.21,15.41.88,17.8,4.14,8,10.87,1.28,16.16.63,26.18l-46.85.42c-3.3-6.66-1.1-20.18,1.43-25.55,1.38-2.94,16.83-5.36,13.05-3.47-0.42.21,2.17,3.7,6,3.41,4.57-.34,8-2.82,8-4.77" transform="translate(-546.54 -5180.12)"/><path class="cls-10" d="M570.73,5224.11a47.76,47.76,0,0,0,4.5-4,20.23,20.23,0,0,0,5.73-12,15.42,15.42,0,0,0-4.33-12.36,9.07,9.07,0,0,0-4.95-2.63,9.27,9.27,0,0,0-6.42,1.86c-5.84,4.08-7.86,12-7.07,19.1,0.32,2.87,1.12,5.86,3.22,7.83a7.9,7.9,0,0,0,11.68-1.67" transform="translate(-546.54 -5180.12)"/><path class="cls-10" d="M577.91,5206.2a3,3,0,0,1,4.33-1.54,4.16,4.16,0,0,1,1.61,4.67,6.81,6.81,0,0,1-3.42,3.89,20.2,20.2,0,0,1-5,1.68" transform="translate(-546.54 -5180.12)"/><path class="cls-12" d="M558.83,5204.59c-0.44-2.44,1-4.5,1-7a4.51,4.51,0,0,1,.39-2.14,2.73,2.73,0,0,1,1.79-1.57c1.82-.23,2.85-2.48,3.85-2.85,2.12-.8,3.37-0.35,5.86,0,1.5,0.21,5.32-.71,7.45,1.06,4.72,3.94,2,4.76,5.32,7.27,0.48,1.3-.4,5.6-1.14,6.4-2.86-1.91-5,2.56-6.08,5.48,0-.28.07,0,0,0.06s-1.57.11-1.45-.76c0.31-2.19,2.21-8.46,1.86-10.63-0.21-1.28-.74-2.86-2-2.95-0.68,0-7.05,1.79-8.76,2a4.91,4.91,0,0,1-2-.2,1.85,1.85,0,0,1-.07-2.05c-4.24,2.21-4.6,4-6,7.81" transform="translate(-546.54 -5180.12)"/><path class="cls-11" d="M576.92,5246.67a18.27,18.27,0,0,0-9.37,1.26c-3,1.31-5.88,1.59-9.1,2.29-4.71,1-9.78,3.15-10.26,8.13-0.26,2.67,2.61,4.74,4.82,5.52s7.18-.14,9.38-0.85c5.5-1.77,9.22-6.48,14.28-9,1.42-.71,7.58-1.42,8.05-2.37C587.58,5248.1,578.58,5246.91,576.92,5246.67Z" transform="translate(-546.54 -5180.12)"/><path class="cls-11" d="M564.81,5246.67a18.27,18.27,0,0,1,9.37,1.26c3,1.31,5.88,1.59,9.1,2.29,3.94,0.85,12,3.88,12,8.65s-8.55,5-12,4.86c-7.58-.24-12.08-6.4-18.24-9.71-1.42-.71-7.58-1.42-8.05-2.37C554.15,5248.1,563.15,5246.91,564.81,5246.67Z" transform="translate(-546.54 -5180.12)"/><path class="cls-10" d="M578.16,5246a20.36,20.36,0,0,0-4.32,2.1c-2.33,1.58-.94,5.71,2,5.27,1.28-.2,1.89-1.84,3.17-2.31a5.55,5.55,0,0,1,3.61.2c1.3,0.41,2.42,1.25,3.73,1.64a3.08,3.08,0,0,0,1.76.26,1.33,1.33,0,0,0,.14-1.32c3.15,0.54-1.94-4.9-2.47-5.41C583.53,5244.23,581,5245,578.16,5246Z" transform="translate(-546.54 -5180.12)"/><path class="cls-10" d="M554.08,5246.67a4.14,4.14,0,0,0-.33,1.7c0.15,1.27.7,1.28,1.81,1.47,1.64,0.28,3.2,1,4.81,1.23a5.51,5.51,0,0,0,4-1.68c2-1.89-.23-2.3-1.72-3.55-2-1.64-3.33-3.16-6.26-2.33C555.56,5243.76,554.58,5245.31,554.08,5246.67Z" transform="translate(-546.54 -5180.12)"/><path class="cls-13" d="M621.41,5233.25a20.83,20.83,0,0,1,7.46-1.55,26.78,26.78,0,0,1,8.33,1.73s0.54,9.87-6.1,10S621.41,5233.25,621.41,5233.25Z" transform="translate(-546.54 -5180.12)"/><path class="cls-13" d="M629.46,5226.79a47.82,47.82,0,0,1-1,19.78,111,111,0,0,1,14.94-1.91c-3.27-6-3.74-12.89-2.5-19.53-2.82,0-6.29,0-9.11,0a5.53,5.53,0,0,0-2.48.43" transform="translate(-546.54 -5180.12)"/><path class="cls-14" d="M629,5235.48s0.05,6.84,6.32,6.84,6-6.73,6-6.73,14.86,3.56,16.31,5.6,1.45,21.86,1.45,21.86h-8.2l-1.45-8.13L648,5263H623.44l-2.89-7.62-1,7.62h-7.71s0-18.3,2.41-20.84,14.73-6.72,14.73-6.72" transform="translate(-546.54 -5180.12)"/><path class="cls-13" d="M646.58,5204.11a39.12,39.12,0,0,1,0,15.7c-1,4.81-3.38,9.87-7.76,11.48-2.63,1-6,1.26-8.43-.13s-4.09-4.38-5.65-6.83c-4.69-7.37-5.61-17.69-1.07-25.17a10,10,0,0,1,2.82-3.19,8.46,8.46,0,0,1,3.71-1.28c5.71-.7,14.05,3.85,16.4,9.42" transform="translate(-546.54 -5180.12)"/><path class="cls-14" d="M639.6,5195a4.81,4.81,0,0,0,3.05-3.26,5.19,5.19,0,0,0-.88-4.51,7.38,7.38,0,0,0-4.61-2.36,19.24,19.24,0,0,0-6.4-.11,10.41,10.41,0,0,0-5.27,2.15,6.13,6.13,0,0,0-2.22,5.3,6.33,6.33,0,0,0,3.15,4.39c1.56,0.94,3.62-2.69,5.37-2.29" transform="translate(-546.54 -5180.12)"/><path class="cls-14" d="M640.55,5201.48c0.34,2.41-4.23,5.17-6.14,5.79s-11.44,2.08-11.44-2.19c-1.4,1.66-1.69,8.32-1.23,10.66s-0.28,1-.77-2.46c-1.54-11-2.15-11.65.91-16a16,16,0,0,1,12.41-6.91,11.26,11.26,0,0,1,5.45,1c3.53,1.72,8.2,6.28,8.22,10.93a58,58,0,0,1-1.21,13.36c-1.16-6.25-2.8-11.73-6.2-14.18" transform="translate(-546.54 -5180.12)"/><path class="cls-13" d="M646.08,5211.69a2.33,2.33,0,0,1,1.55-1.63,2,2,0,0,1,1.73,1.18,5.15,5.15,0,0,1,.65,2.7,7.26,7.26,0,0,1-1.64,4.1,11.33,11.33,0,0,1-1.77,1.85,1.94,1.94,0,0,1-1.53.61,1.14,1.14,0,0,1-.72-1.49" transform="translate(-546.54 -5180.12)"/><path class="cls-13" d="M622.4,5213a2.4,2.4,0,0,0-2.34-1.41,1.69,1.69,0,0,0-1,.52,3.7,3.7,0,0,0-.71,2.78,6.65,6.65,0,0,0,1,2.73,15,15,0,0,0,5.15,4.71" transform="translate(-546.54 -5180.12)"/></svg>