<svg id="Interactive_elements" data-name="Interactive elements" xmlns="http://www.w3.org/2000/svg" viewBox="0 0 183.58 41.76"><defs><style>.cls-1{fill:#fe961c;}.cls-2{fill:#fff;}</style></defs><title>DeckerDigitalLab_Interactive-elements_04 [Recovered]</title><rect class="cls-1" width="183.58" height="41.76"/><path class="cls-2" d="M12978.45,14144.31c0-4.66,3.11-7.64,7.35-7.64a10.15,10.15,0,0,1,4.07.86l-0.21,1.85a11.22,11.22,0,0,0-3.86-.9c-3.38,0-5.17,2.58-5.17,5.84s1.79,5.84,5.21,5.84a11.24,11.24,0,0,0,3.82-.88l0.21,1.85a10.39,10.39,0,0,1-4.05.84C12981.55,14151.95,12978.45,14149,12978.45,14144.31Z" transform="translate(-12941 -14123.48)"/><path class="cls-2" d="M12999.63,14151.66v-5.5c0-2.44-.63-3.32-2.46-3.32a2.88,2.88,0,0,0-2.69,1.34v7.47h-1.91v-15.75h1.91v6.57a3.48,3.48,0,0,1,3-1.32c3,0,4.05,2,4.05,5v5.5h-1.89Z" transform="translate(-12941 -14123.48)"/><path class="cls-2" d="M13004.28,14146.51c0-3,1.87-5.35,5.1-5.35s5.1,2.37,5.1,5.35-1.89,5.35-5.1,5.35S13004.28,14149.49,13004.28,14146.51Zm1.93,0c0,2.31,1.13,3.67,3.17,3.67s3.17-1.37,3.17-3.67-1.13-3.67-3.17-3.67S13006.21,14144.2,13006.21,14146.51Z" transform="translate(-12941 -14123.48)"/><path class="cls-2" d="M13016.82,14146.51c0-3,1.87-5.35,5.1-5.35s5.1,2.37,5.1,5.35-1.89,5.35-5.1,5.35S13016.82,14149.49,13016.82,14146.51Zm1.93,0c0,2.31,1.13,3.67,3.17,3.67s3.17-1.37,3.17-3.67-1.13-3.67-3.17-3.67S13018.76,14144.2,13018.76,14146.51Z" transform="translate(-12941 -14123.48)"/><path class="cls-2" d="M13029.27,14151l0.23-1.83a5.12,5.12,0,0,0,3.21,1c1.32,0,2.06-.46,2.06-1.28,0-1.07-1.22-1.47-2.06-1.7-1.41-.38-3.23-0.88-3.23-3,0-1.58,1-3.09,3.86-3.09a5.68,5.68,0,0,1,2.79.67l-0.23,1.72a3.72,3.72,0,0,0-2.52-.9c-1.18,0-2,.42-2,1.38s0.78,1.22,2.39,1.7c1,0.29,2.94.92,2.94,3.07,0,1.36-.78,3.07-3.93,3.07A6.43,6.43,0,0,1,13029.27,14151Z" transform="translate(-12941 -14123.48)"/><path class="cls-2" d="M13040.82,14146.51c0.27,2.86,1.91,3.67,3.86,3.67a7.41,7.41,0,0,0,3-.61l0.25,1.49a8.24,8.24,0,0,1-3.44.8,5.2,5.2,0,0,1-5.56-5.44,4.93,4.93,0,0,1,5-5.27,4.11,4.11,0,0,1,4.43,4.35,6,6,0,0,1-.08,1h-7.45Zm0.17-1.3h5.42a2.2,2.2,0,0,0-2.52-2.37A2.73,2.73,0,0,0,13041,14145.21Z" transform="translate(-12941 -14123.48)"/><path class="cls-2" d="M13066.5,14151.66l-1.41-4h-5.63l-1.41,4h-2.1l5.27-14.7h2.1l5.27,14.7h-2.1Zm-4.22-11.91-2.18,6.13h4.37Z" transform="translate(-12941 -14123.48)"/><path class="cls-2" d="M13070.14,14153.8a2.4,2.4,0,0,1,1.83-2.31,1.52,1.52,0,0,1-1-1.3,1.83,1.83,0,0,1,1.22-1.53,4.11,4.11,0,0,1,2.42-7.5,4.71,4.71,0,0,1,2.62.76,5.29,5.29,0,0,1,2.5-.59h0.17l-0.23,1.26h-0.48a7,7,0,0,0-1.22.15,3.61,3.61,0,0,1,.94,2.46,4,4,0,0,1-4.16,4.09,5.65,5.65,0,0,1-1.47-.19,0.81,0.81,0,0,0-.5.63c0,0.52.76,0.67,3.19,1.09,1.62,0.27,4.2.84,4.2,2.86,0,1.66-1.76,3.23-5.17,3.23C13071.38,14156.9,13070.14,14155.16,13070.14,14153.8Zm3.44-1.85a2.16,2.16,0,0,0-1.64,1.81c0,0.94,1.11,1.68,3.09,1.68s3.17-.84,3.17-1.64-0.88-1.26-2.75-1.6Zm-1.43-6.72a2.38,2.38,0,0,0,2.46,2.6,2.41,2.41,0,0,0,2.44-2.67A2.45,2.45,0,1,0,13072.16,14145.23Z" transform="translate(-12941 -14123.48)"/><path class="cls-2" d="M13090.46,14151.87h-0.15c-1.83,0-2.22-.55-2.64-1.51a4.07,4.07,0,0,1-3.15,1.51,2.94,2.94,0,0,1-3.17-3c0-2.9,3.53-3.63,6.15-3.67,0-2-.8-2.37-2.25-2.37a4.48,4.48,0,0,0-2.71.92l-0.27-1.53a5.92,5.92,0,0,1,3.49-1.07c2.6,0,3.63,1.22,3.63,4.93v2.1c0,1.47.08,2.16,1.18,2.16h0.19Zm-3-5.35c-3,.1-4.22.73-4.22,2.27a1.42,1.42,0,0,0,1.6,1.57,3.34,3.34,0,0,0,2.63-1.39v-2.46Z" transform="translate(-12941 -14123.48)"/><path class="cls-2" d="M13093.14,14139.06v-2.1h1.89v2.1h-1.89Zm0,12.6v-10.29h1.89v10.29h-1.89Z" transform="translate(-12941 -14123.48)"/><path class="cls-2" d="M13105.85,14151.66V14146c0-2.18-.73-3.15-2.69-3.15a3.11,3.11,0,0,0-2.81,1.34v7.47h-1.89v-10.29h1.47l0.21,1.09a4.79,4.79,0,0,1,3.4-1.3c3,0,4.2,1.87,4.2,4.83v5.67h-1.89Z" transform="translate(-12941 -14123.48)"/><polygon class="cls-2" points="23.89 29.1 12.73 20.9 23.89 12.8 23.89 29.1"/></svg>