<svg id="Interactive_elements" data-name="Interactive elements" xmlns="http://www.w3.org/2000/svg" viewBox="0 0 118.51 79.7"><defs><style>.cls-1{fill:#14608a;}.cls-2{fill:#6cc5f5;}.cls-3{fill:#fe961c;}.cls-4{fill:#ffd100;}.cls-5{fill:#f58f89;}.cls-6{fill:#85252b;}.cls-7{fill:#c53a43;}.cls-8{fill:#d8731b;}</style></defs><title>characters_direct-reports</title><path class="cls-1" d="M1059.23,5197.82a5.25,5.25,0,0,0,1.26-3.23,1.4,1.4,0,0,1-1.79-1.23c-0.11-.86.73-0.44,0.56-1.12a10.11,10.11,0,0,0-1.12-1.84c-0.29-.57-0.06-0.42,0-1.07s-0.31-1.48-.92-1.38a0.71,0.71,0,0,1,.12,1.14,1.32,1.32,0,0,1-1.26.17,3.64,3.64,0,0,1-2.39-2.33c-1.61.18-2.4,1.57-2.42,1.35-0.22-2.13-1.58,0-2-1.57a0.67,0.67,0,0,1,.6-0.92,2.64,2.64,0,0,0-2.17-.36,1.38,1.38,0,0,0-.72,1.92,0.85,0.85,0,0,1-.72-0.45,2.23,2.23,0,0,0-1.74-.37s0.4,2.28-1.56.71a0.9,0.9,0,0,1-.39-1,2.08,2.08,0,0,0-1.09,2c-0.07,1.36-2.88,1-2-1.07a3.62,3.62,0,0,1,.32-0.5c-2.23.19-2.82,2.62-2.21,2.87-1.39-.58-3,0.69-3,0.69a2.28,2.28,0,0,1,1,.12,1,1,0,0,1,.12.68s-2.75.71-2.23,0.73c2,0.1,1,2.49.65,2.9-0.69.19-2.29,0.32-1.58,1.84-0.25-.54,1.54-0.25,1.47,1.25,0,0.53-.26.84-0.25,1.38a1.31,1.31,0,0,0,.63,1.23,2.2,2.2,0,0,1,.3,1.46c0,1.23.87,2.21,1.58,3.19,0,0,22.78-2.16,23.05-3.35a6.37,6.37,0,0,1,.84-1.88,2.42,2.42,0,0,0-.91-2" transform="translate(-953.46 -5182.06)"/><path class="cls-2" d="M1036.15,5210.89c0.26,2.25.51,4.86,2.54,6.75a22.23,22.23,0,0,1,2.79,3l-1.09,8.67,1.34,8.06,13-2.75-2.1-14.39a12.44,12.44,0,0,0,6.31-10.66c0.42-2.83,1-5.14.49-7.5-1.91-9.22-7.77-10.2-7.77-10.2l-12.29,4.19s-3.53.71-3.6,6.42a69.64,69.64,0,0,0,.34,8.43" transform="translate(-953.46 -5182.06)"/><path class="cls-1" d="M1040.69,5226s-12.29,1.65-14.63,4.4-3.11,4.68-3.51,9.36c-0.19,2.19-1.14,11-1.14,11l50.56,0.17s-0.54-10.27-.54-12.47a11.87,11.87,0,0,0-2.65-8c-2.34-2.75-15.21-4.4-15.21-4.4a7.31,7.31,0,0,1-6.5,3.59,7,7,0,0,1-6.37-3.59" transform="translate(-953.46 -5182.06)"/><path class="cls-2" d="M1057.89,5205.08c0.42-.65,1.63-2.46,1.91-2.45a1.29,1.29,0,0,1,.86,1.65c-0.48,1.42-1.28,2.73-1.24,4.23,0.08,2.72-.88,4-1.9,3.4" transform="translate(-953.46 -5182.06)"/><path class="cls-1" d="M1059.41,5203.39a1.86,1.86,0,0,1-1.2-1.14c-0.19-.32-0.06-2.56-0.26-2.86s-0.65.06-.82-0.17-0.32-1.87-.52-2.13-0.92.13-1-.1c-0.32-1.07-.88-1-1.35-1.49-0.88.81-2.83,2.18-2.83,2.18s1.08-2.27.53-2c-1.49.77-1.26,1.65-2,2.08-0.22.13-1.26,0.52-1.26,0.52s0.53-1.61-.13-1.43c-0.83.23-2.27,2-2.76,2.07s0.33-1.19-.13-1.39a1,1,0,0,0-.84.17l-2.69,1.46c0-.46.12-0.91,0.14-1.37a1.33,1.33,0,0,0-.49-1.2c-0.63-.38-1.38.29-1.69,1a3.87,3.87,0,0,1-1.13,1.92c-0.22.13-.47,0.19-0.68,0.32a2.69,2.69,0,0,0-.93,1.86c-0.16.8,0.09,2.2-.08,3-0.11.54-.63,0.47-0.74,1a2.82,2.82,0,0,1-1-2.33c0.09-3,.28-13,0.43-13.18s21.8-.64,22-0.14a65.19,65.19,0,0,1,1.87,13.42" transform="translate(-953.46 -5182.06)"/><path class="cls-2" d="M1030.12,5205.08c-0.42-.65-1.63-2.46-1.91-2.45a1.29,1.29,0,0,0-.86,1.65c0.48,1.42,1.28,2.73,1.24,4.23-0.08,2.72.88,4,1.9,3.4" transform="translate(-953.46 -5182.06)"/><path class="cls-3" d="M1005.15,5192.54s-3.61-.55-6.18,3.57c-1.37,2.2-2.14,7.67-.27,12.23a28.38,28.38,0,0,1,1.53,13.21c-0.43,2.75-3.11,9.63-3.11,9.63l2.19-.56,1.95-4.69,0.8,4.52,8.6-.13a5,5,0,0,0-1.74-5.59c-7.36-5.42-5.53-16.87-2.66-20.38,4.52-5.53.83,4.6,12.73,6.32,4.09,0.59,5.95,2.43,0,6.59-2.86,2-.56,13.36-0.56,13.36h2.91l0.93-2.17,1.61,2.24,8.24,0.21s-3.71-5.91-4.2-10,6.07-16.66.82-24.49c-6.56-9.79-19.83-5.1-19.83-5.1" transform="translate(-953.46 -5182.06)"/><path class="cls-4" d="M1008.89,5223.22c0.07,1.3.14,5.54,0.09,6.37-0.1,1.62-5.82,1.65-4.74,6.8,1.13,5.39,9.36,13.86,14.16,10.25,1.34-1,5.39-12.76,5.14-14s-5.34-2.34-5.31-4.29c0-2.68.66-10.46,0.56-12.11-0.28-4.31-10,4.48-9.89,7" transform="translate(-953.46 -5182.06)"/><path class="cls-4" d="M1017.52,5227.57a7.26,7.26,0,0,0,3.56-4.3c1.57-4.49,3-11.6,2-16.3s-3.85-9-7.84-11.1a8.3,8.3,0,0,0-5.43-1c-2.2.44-2.91,2.61-4.26,4.56-4.21,6.09-5.39,15.46-2.47,22.39,1.18,2.8,3.41,4.4,6,5.7" transform="translate(-953.46 -5182.06)"/><path class="cls-4" d="M1015.44,5210.92c-0.11-1.89,2-3.42,3.88-3a4.44,4.44,0,0,1,3.19,4.2,7.27,7.27,0,0,1-2.18,5.09,21.61,21.61,0,0,1-4.55,3.38" transform="translate(-953.46 -5182.06)"/><path class="cls-3" d="M1022.2,5195.49c-3.34-2.69-9.69-4.31-13.8-2.92a4.68,4.68,0,0,0-3.2,3.32c-1.51-.37-3.41,1.18-4.31,2.15-1.56,1.68-1.43,4.36-1.36,6.6,0.14,4.43,2.44.11,3.83-1.16l0.43-.39a11.32,11.32,0,0,0,1.65-2,5.88,5.88,0,0,1-2.09,3.63c-0.15.11,0,.36,0.15,0.26a7.93,7.93,0,0,0,2.62-2.64,10.23,10.23,0,0,0,.84,1.61,9.56,9.56,0,0,0,4.42,3.49s0,0,0,0c-1.35-.69-2.45-2.46-3.22-3.71-0.1-.17-0.2-0.34-0.29-0.51a28.14,28.14,0,0,0,5,3.36c3,1.66,6.52,2.17,9.59,3.71,1.62,0.81,3.46,1.95,3.93,3.78l1.56-4.33C1027.43,5204.9,1026.31,5198.8,1022.2,5195.49Z" transform="translate(-953.46 -5182.06)"/><path class="cls-3" d="M1026.39,5214l-2,5.56c1.15-1,2.37-3.8,2.06-5.36C1026.43,5214.18,1026.41,5214.11,1026.39,5214Z" transform="translate(-953.46 -5182.06)"/><path class="cls-5" d="M970,5226.76a31.16,31.16,0,0,1,8.52-1.54,30,30,0,0,1,8.94,1.26s-1.68,6.84-6.7,6.84S970,5226.76,970,5226.76Z" transform="translate(-953.46 -5182.06)"/><path class="cls-5" d="M964.9,5201.92s-1.27.27-1.27,4.59a4.59,4.59,0,0,0,2.54,4,3,3,0,0,0,2,.27s0.51,4.86,2.54,6.75a22.22,22.22,0,0,1,2.79,3l-1.43,9.85,1.69,6.88,12.28-4.09-1.54-12.85a18.43,18.43,0,0,0,4.23-3.84c1.27-1.89,2.28-7,2.28-7a2.59,2.59,0,0,0,3-1.89c1.27-5.13-.25-6.21-0.25-6.21L990,5190.59l-21.57,1.08Z" transform="translate(-953.46 -5182.06)"/><path class="cls-6" d="M972.74,5225.93s-12.29,1.65-14.63,4.4-3.11,4.68-3.51,9.36c-0.19,2.19-1.14,11-1.14,11l50.56,0.17s-0.54-10.27-.54-12.47a11.87,11.87,0,0,0-2.65-8c-2.34-2.75-15.21-4.4-15.21-4.4a7.31,7.31,0,0,1-6.5,3.59,7,7,0,0,1-6.37-3.59" transform="translate(-953.46 -5182.06)"/><path class="cls-7" d="M993.55,5191.79c-0.81-3.78-3.78-9.45-14.31-9.72s-14.85,6.75-16.2,10.26c-1,2.69,1,8.61,1.82,10.91,0.25,0.7,2.77-6.32,2.77-6.32s4.32,3.51,8.91,3.51a10,10,0,0,0,4-1.1c-0.39.92-.71,1.67-0.9,2.09a11.18,11.18,0,0,0,3.16-3.3c0.87-.52,1.71-1.07,2.47-1.6a12.27,12.27,0,0,1-1.7,4,22.77,22.77,0,0,0,4.88-6.37l0.54-.45,3,9.45S994.36,5195.57,993.55,5191.79Z" transform="translate(-953.46 -5182.06)"/><path class="cls-8" d="M1000,5261.76l0.83-13.82a45.38,45.38,0,0,0,.81,6.39c0.67,3.5,1.47,6.87,1.6,7.43H1027a53.21,53.21,0,0,0,1-7.43c0.22-3.83.21-7.1,0.21-7.1l1.42,14.53h7.78c0-1.79-.29-27.15-1.63-28.9s-14.06-4.57-14.06-4.57-1.21,10.41-7.15,10.46-7.3-10.57-7.3-10.57V5228s-10.34,3.86-12.6,6.16c-2.08,2.12-2.06,24-2,27.62H1000Z" transform="translate(-953.46 -5182.06)"/></svg>