<svg id="Interactive_elements" data-name="Interactive elements" xmlns="http://www.w3.org/2000/svg" viewBox="0 0 59.61 77.79"><defs><style>.cls-1{fill:#fe961c;}.cls-2{fill:#ffca00;}.cls-3{fill:#d7731b;}</style></defs><title>you</title><path class="cls-1" d="M3746,4981.88c0,1.51-.27,8.93-0.32,9.89-0.07,1.39,4.55,1.09,4.65,2.3,0.53,6.37-3.67,16.52-10.29,12.33-1.85-1.17-15.76-11-15.41-12.37s6.8-2.26,6.67-4.52c-0.32-5.51-.34-12.7-0.34-14.62C3730.93,4969.85,3745.95,4979,3746,4981.88Z" transform="translate(-3706.95 -4945.25)"/><path class="cls-1" d="M3726.74,4970.35c-0.11-7.21,2.71-16.47,7.54-19.28a11.24,11.24,0,0,1,6.74-1.69,11.5,11.5,0,0,1,7.16,4.15c5.81,6.65,7.09,16.71,4,25a17.8,17.8,0,0,1-7.44,8.55c-4.88,2.73-12.81,1.23-15.17-4.1S3726.83,4976.35,3726.74,4970.35Z" transform="translate(-3706.95 -4945.25)"/><path class="cls-2" d="M3710.55,5000.65c1.14-2.32,16.59-8.21,16.59-8.21s3.84,3.71,7.93,4.68c6.18,1.47,13.95-4.07,11.12-4.55,8.32,1.4,15.55,5.16,16.8,7.37,3.65,6.48,3.55,18.23,3.55,23.08h-59.34c-0.36-4.64-1-13.5,3.34-22.4" transform="translate(-3706.95 -4945.25)"/><path class="cls-3" d="M3757.8,4974.39a41.46,41.46,0,0,0,.67-17.35,18,18,0,0,0-3.08-6.77c-8.32-10.3-19.57-1.58-19.57-1.58s-6.92-1.81-10.92,1.95a1.86,1.86,0,0,0-.28.18c-4.74,4.45-4.6,13.49-4.45,16.76,0.12,2.57,1.73,10.26,1.85,11.4,0.1-.55,1.63-4.57,1.82-5.1,0.19,0.77-.15,1.61.15,3.08a15.07,15.07,0,0,0,3.74,7.39,20.36,20.36,0,0,1-.5-3.1c0.81,0.72,1.22,3.3,1.8,3.95a9.64,9.64,0,0,0,2.15,1.43s0-3.16-.5-4c-3.72-5.86-3.41-17.31-.33-21.4,4.85-6.44,3.51.75,17.45,1.74,4.79,0.34,5.51,15-1.05,20.09-1.1.84-.5,4-1.81,4.41,4.1-1.14,5.51-2,7.5-7.57a27.21,27.21,0,0,1,.07,2.92c1.39-1.89,3-3.74,3.74-5.9a20.4,20.4,0,0,0,.6-5.25,4.3,4.3,0,0,1,.94,2.73" transform="translate(-3706.95 -4945.25)"/></svg>