<svg id="Interactive_elements" data-name="Interactive elements" xmlns="http://www.w3.org/2000/svg" viewBox="0 0 35.06 35.06"><defs><style>.cls-1{fill:#2e8bbd;}.cls-2{fill:#fff;}</style></defs><title>number-2</title><circle class="cls-1" cx="17.53" cy="17.53" r="17.53"/><path class="cls-2" d="M5393.29,8238.11a6.78,6.78,0,0,1,2.33.38,5.22,5.22,0,0,1,1.77,1,4.53,4.53,0,0,1,1.12,1.6,5.24,5.24,0,0,1,.39,2,5.61,5.61,0,0,1-.27,1.77,7,7,0,0,1-.74,1.55,10.79,10.79,0,0,1-1.08,1.42q-0.62.69-1.31,1.39l-3.41,3.5a12.51,12.51,0,0,1,1.3-.31,6.86,6.86,0,0,1,1.2-.11h3.25a1.32,1.32,0,0,1,.95.33,1.14,1.14,0,0,1,.35.87v2.15h-12.26v-1.2a2.18,2.18,0,0,1,.14-0.74,1.79,1.79,0,0,1,.5-0.72l5-5.06a16.35,16.35,0,0,0,1.13-1.23,7.59,7.59,0,0,0,.79-1.16,5.22,5.22,0,0,0,.47-1.14,4.55,4.55,0,0,0,.16-1.2,2.32,2.32,0,0,0-.5-1.6,1.93,1.93,0,0,0-1.51-.56,2.33,2.33,0,0,0-.77.12,2.28,2.28,0,0,0-.62.32,2.15,2.15,0,0,0-.47.48,2.53,2.53,0,0,0-.32.6,1.73,1.73,0,0,1-.48.78,1.22,1.22,0,0,1-.8.24h-0.26l-0.28,0-2-.35a6.55,6.55,0,0,1,.74-2.27,5.37,5.37,0,0,1,3.2-2.58A7.66,7.66,0,0,1,5393.29,8238.11Z" transform="translate(-5375.77 -8229.78)"/><path class="cls-2" d="M5393.29,8238.11a6.78,6.78,0,0,1,2.33.38,5.22,5.22,0,0,1,1.77,1,4.53,4.53,0,0,1,1.12,1.6,5.24,5.24,0,0,1,.39,2,5.61,5.61,0,0,1-.27,1.77,7,7,0,0,1-.74,1.55,10.79,10.79,0,0,1-1.08,1.42q-0.62.69-1.31,1.39l-3.41,3.5a12.51,12.51,0,0,1,1.3-.31,6.86,6.86,0,0,1,1.2-.11h3.25a1.32,1.32,0,0,1,.95.33,1.14,1.14,0,0,1,.35.87v2.15h-12.26v-1.2a2.18,2.18,0,0,1,.14-0.74,1.79,1.79,0,0,1,.5-0.72l5-5.06a16.35,16.35,0,0,0,1.13-1.23,7.59,7.59,0,0,0,.79-1.16,5.22,5.22,0,0,0,.47-1.14,4.55,4.55,0,0,0,.16-1.2,2.32,2.32,0,0,0-.5-1.6,1.93,1.93,0,0,0-1.51-.56,2.33,2.33,0,0,0-.77.12,2.28,2.28,0,0,0-.62.32,2.15,2.15,0,0,0-.47.48,2.53,2.53,0,0,0-.32.6,1.73,1.73,0,0,1-.48.78,1.22,1.22,0,0,1-.8.24h-0.26l-0.28,0-2-.35a6.55,6.55,0,0,1,.74-2.27,5.37,5.37,0,0,1,3.2-2.58A7.66,7.66,0,0,1,5393.29,8238.11Z" transform="translate(-5375.77 -8229.78)"/></svg>