<svg id="Interactive_elements" data-name="Interactive elements" xmlns="http://www.w3.org/2000/svg" viewBox="0 0 35.06 35.06"><defs><style>.cls-1{fill:#2e8bbd;}.cls-2{fill:#fff;}</style></defs><title>number-4</title><circle class="cls-1" cx="17.53" cy="17.53" r="17.53"/><path class="cls-2" d="M5397.15,8249h1.8v2.08a0.67,0.67,0,0,1-.72.68h-1.08v4h-3.23v-4h-7a1,1,0,0,1-.63-0.22,0.91,0.91,0,0,1-.35-0.54l-0.38-1.83,8.07-10.84h3.54V8249Zm-3.23-4.55q0-.42,0-0.9t0.09-1l-4.61,6.45h4.49v-4.55Z" transform="translate(-5375.77 -8229.78)"/><path class="cls-2" d="M5397.15,8249h1.8v2.08a0.67,0.67,0,0,1-.72.68h-1.08v4h-3.23v-4h-7a1,1,0,0,1-.63-0.22,0.91,0.91,0,0,1-.35-0.54l-0.38-1.83,8.07-10.84h3.54V8249Zm-3.23-4.55q0-.42,0-0.9t0.09-1l-4.61,6.45h4.49v-4.55Z" transform="translate(-5375.77 -8229.78)"/></svg>