<svg id="Interactive_elements" data-name="Interactive elements" xmlns="http://www.w3.org/2000/svg" viewBox="0 0 29.03 40.3"><defs><style>.cls-1{fill:#fe961c;}.cls-2{fill:#2e8bbd;}</style></defs><title>flag</title><path class="cls-1" d="M3571.37,15279.2l0-2.79-11.14-1.4a0.74,0.74,0,0,0-.74.74v8.94a0.74,0.74,0,0,0,.74.74l9.53,1v3a29.38,29.38,0,0,0,8.87-1c4.26-1.29,9.75-5.38,9.88-7S3580.92,15282.74,3571.37,15279.2Z" transform="translate(-3559.46 -15275.02)"/><path class="cls-2" d="M3560.2,15275a0.67,0.67,0,0,0-.74.55v39.75h1.49v-39.75A0.67,0.67,0,0,0,3560.2,15275Z" transform="translate(-3559.46 -15275.02)"/></svg>