<svg id="Interactive_elements" data-name="Interactive elements" xmlns="http://www.w3.org/2000/svg" viewBox="0 0 38.59 39.37"><defs><style>.cls-1{fill:#2e8bbd;}.cls-2{fill:#fff;}</style></defs><title>keep-improv_num2</title><rect class="cls-1" width="38.59" height="39.37"/><path class="cls-2" d="M14907.75,15119.34a5.41,5.41,0,0,1,1.86.3,4.16,4.16,0,0,1,1.41.83,3.61,3.61,0,0,1,.89,1.27,4.19,4.19,0,0,1,.31,1.63,4.46,4.46,0,0,1-.21,1.41,5.55,5.55,0,0,1-.59,1.24,8.53,8.53,0,0,1-.86,1.14q-0.49.55-1,1.11l-2.72,2.79a10,10,0,0,1,1-.24,5.51,5.51,0,0,1,1-.09h2.6a1,1,0,0,1,.75.26,0.91,0.91,0,0,1,.28.69v1.72h-9.78v-1a1.72,1.72,0,0,1,.12-0.59,1.43,1.43,0,0,1,.4-0.57l4-4a13.23,13.23,0,0,0,.9-1,6.05,6.05,0,0,0,.63-0.92,4.12,4.12,0,0,0,.37-0.91,3.6,3.6,0,0,0,.13-1,1.85,1.85,0,0,0-.4-1.27,1.54,1.54,0,0,0-1.21-.44,1.86,1.86,0,0,0-.61.1,1.82,1.82,0,0,0-.5.26,1.73,1.73,0,0,0-.38.38,2,2,0,0,0-.25.48,1.37,1.37,0,0,1-.39.62,1,1,0,0,1-.63.19h-0.21l-0.22,0-1.57-.28a5.21,5.21,0,0,1,.59-1.81,4.28,4.28,0,0,1,2.55-2.06A6.09,6.09,0,0,1,14907.75,15119.34Z" transform="translate(-14888.69 -15106.64)"/></svg>