<svg id="Interactive_elements" data-name="Interactive elements" xmlns="http://www.w3.org/2000/svg" viewBox="0 0 230.18 526.15"><defs><style>.cls-1{fill:#fff;}.cls-2{fill:#fe961c;}.cls-3{fill:#ffca00;}.cls-4{fill:#d7731b;}</style></defs><title>humor</title><rect class="cls-1" width="230.18" height="526.15"/><path class="cls-2" d="M3688.43,11638.54a4.2,4.2,0,0,1-4.72-2.23,1.36,1.36,0,0,1-.25-0.76,1.56,1.56,0,0,1,1.76-1.3c1.22,0,4.75,1.08,4.75,2.59A2,2,0,0,1,3688.43,11638.54Zm0.58,17.31a2,2,0,0,1-1.48-.5,6.88,6.88,0,0,1-2.05-4.32c-0.11-1.84-.11-3.64-0.11-5.47v-2.45a1.17,1.17,0,0,1,1.26-1.3,2.46,2.46,0,0,1,2.45,2.2c0,1.58-.47,3.13-0.47,4.68,0,3.42,2.77,4.86,2.77,5.87S3689.77,11655.86,3689,11655.86Z" transform="translate(-3606.11 -11352.83)"/><path class="cls-2" d="M3705.1,11644.16a2.8,2.8,0,0,1-2.38,1.62c-1.15,0-.54-1.73-1.15-1.73-0.22,0-1.94,1-2.66,1.3a0.42,0.42,0,0,0-.32.36,0.37,0.37,0,0,0,.14.25c0.5,0.54,1,1,1.55,1.51a42,42,0,0,1,3.67,3.92,3.35,3.35,0,0,1,.72,2,2.88,2.88,0,0,1-1,2.2,12.68,12.68,0,0,1-6.77,2.45,3,3,0,0,1-1.58-.36,2.28,2.28,0,0,1-1.22-1.84,1.55,1.55,0,0,1,1.62-1.51c0.65,0,1.22.4,1.91,0.4s3-.61,3-1.44a2.88,2.88,0,0,0-.65-1.22,15.48,15.48,0,0,0-4.14-3.67,3.58,3.58,0,0,1-1.76-3.13,2.46,2.46,0,0,1,1.55-2.41c1.66-.79,4.68-2.56,6.44-2.56a2.43,2.43,0,0,1,.5,0c1.48,0.4,2.66,1.19,2.66,2.84A4.46,4.46,0,0,1,3705.1,11644.16Z" transform="translate(-3606.11 -11352.83)"/><path class="cls-2" d="M3733.32,11647.44c-1.37,1.44-5.11,1.15-7,1.48a0.76,0.76,0,0,0-.79.9c0,0.9.32,3.2,1.58,3.2h0.22c0.76,0,1,.94,1,1.55,0,1-.32,1.84-1.4,1.84-3,0-3.89-2.2-4.1-4.79,0-.5,0-2.63-0.61-2.63s-1.22.22-1.84,0.22a2.32,2.32,0,0,1-2.59-2.23c0-1.26.86-1.3,1.87-1.3,0.68,0,1.4.07,2.09,0.07,0.29,0,.61,0,0.61-0.4v-1.26c0-.9,0-1.84,0-2.74a52.92,52.92,0,0,1,.4-6.77,2.43,2.43,0,0,1,2.66-2.34c3,0,8.28,3.74,8.28,6.95a3.86,3.86,0,0,1-1.44,2.84,2.48,2.48,0,0,1-1.37.76c-0.76,0-.76-0.79-0.76-1.33s0.07-1.12.07-1.66a3.24,3.24,0,0,0-.72-2.27c-0.58-.61-1.76-1.83-2.66-1.83-1.51,0-1.58,3.92-1.58,4.93a32.56,32.56,0,0,0,.25,4.18,0.74,0.74,0,0,0,.72.79,8.24,8.24,0,0,0,1.33.07c1.8,0,3.6-.43,5.4-0.43a0.86,0.86,0,0,1,1,.79A2.36,2.36,0,0,1,3733.32,11647.44Z" transform="translate(-3606.11 -11352.83)"/><path class="cls-2" d="M3749.09,11649.78c-0.72,3.17-3,6.66-6.62,6.66a6.6,6.6,0,0,1-6.37-6.19c0-2.84,1.55-4.72,3.85-6.16a18.49,18.49,0,0,0,3.06-2.23,3,3,0,0,1,2.12-1,2.17,2.17,0,0,1,2.09,1.48c0.76,1.87,2,4.07,2,6.08A5.7,5.7,0,0,1,3749.09,11649.78Zm-3.24-3.06c-0.07-.14-0.18-0.25-0.36-0.07a1.63,1.63,0,0,1-1.08.47c-0.83,0-1.3-.76-1.76-0.76a2.4,2.4,0,0,0-1.19.54,3.17,3.17,0,0,0-1.66,3c0,2,1,3.17,3.06,3.17s3.53-2.09,3.53-4A6,6,0,0,0,3745.85,11646.72Z" transform="translate(-3606.11 -11352.83)"/><path class="cls-2" d="M3762.23,11646.93c-0.5,0-.94-0.32-1.44-0.32a1,1,0,0,0-.79.5c-1.4,2.05-1,4.72-2,6.95a1.86,1.86,0,0,1-1.73,1.12,1.59,1.59,0,0,1-1.62-1.26c-0.4-1.48-.79-2.88-1.26-4.32s-2.05-3.28-2.05-4.9a1.57,1.57,0,0,1,1.69-1.69,2,2,0,0,1,1.08.32,3.76,3.76,0,0,1,1.87,3c0.07,0.4.11,0.83,0.22,1.22a0.23,0.23,0,0,0,.22.22,0.43,0.43,0,0,0,.32-0.32c0.94-1.8,0-3.78,2.77-4.43a5.84,5.84,0,0,1,1.12-.11c1.33,0,3,.61,3,2.16A1.64,1.64,0,0,1,3762.23,11646.93Z" transform="translate(-3606.11 -11352.83)"/><path class="cls-2" d="M3694.12,11689.69c0,0.79-1.08,1.12-1.73,1.12a1.54,1.54,0,0,1-1.58-.9c-0.11-.79-0.14-1.62-0.25-2.45a49.54,49.54,0,0,1-.54-6.12v-1c0-.18,0-0.83-0.32-0.83a1.89,1.89,0,0,0-.58.14c-1,.29-2.09.58-3.2,0.79-0.83.14-1.84,0.25-2.63,0.47a0.6,0.6,0,0,0-.54.65,10.8,10.8,0,0,0,.29,1.84,20.46,20.46,0,0,1,.43,3.67c0,0.9-.22,1.33-1.22,1.33a1.81,1.81,0,0,1-1.87-1.22c-0.47-3.28-.68-6.62-1-9.94-0.25-2.77-.58-5.54-1-8.28a12.09,12.09,0,0,1-.18-1.33,1.74,1.74,0,0,1,1.91-1.55,1.46,1.46,0,0,1,1.55,1.12,36.25,36.25,0,0,1,.86,7.38c0,0.65-.07,1.3-0.07,1.94a0.49,0.49,0,0,0,.5.5,47.05,47.05,0,0,0,6.3-.79,0.46,0.46,0,0,0,.5-0.5c0-2.66-.83-5.29-0.83-8.17,0-1.3.47-2.2,1.91-2.2a1.66,1.66,0,0,1,1.84,1.69v1.08a61,61,0,0,0,.72,8.13c0.58,4.43.47,8.86,0.72,13.28v0.14Z" transform="translate(-3606.11 -11352.83)"/><path class="cls-2" d="M3713,11689.51c-2.27,0-3.17-6.41-4-6.41a0.57,0.57,0,0,0-.36.4c-1.19,2.09-2.3,4.36-5.08,4.36-4.32,0-5.08-4.61-5.08-8a30.91,30.91,0,0,1,.65-6.3,1.38,1.38,0,0,1,1.48-.9c0.94,0,2.05.5,2.05,1.55,0,0.14,0,.25,0,0.36a18.79,18.79,0,0,0-.54,4.25c0,1,.36,5.33,1.73,5.33a1.82,1.82,0,0,0,1.22-.83,8.54,8.54,0,0,0,2.23-5.44c0-.29,0-0.58,0-0.86,0-1,1.22-1.48,2.05-1.48a1.83,1.83,0,0,1,1.87,1.33c0.65,2.12,1.84,7.74,3.42,9.07a1.89,1.89,0,0,1,.79,1.44A2.51,2.51,0,0,1,3713,11689.51Z" transform="translate(-3606.11 -11352.83)"/><path class="cls-2" d="M3739.37,11688.47a1.64,1.64,0,0,1-.83-0.18c-2.12-1.3-2.48-3.6-2.92-5.83a11.85,11.85,0,0,0-.4-1.62,0.5,0.5,0,0,0-.43-0.47c-0.58,0-2.88,2.7-3.28,3.28a1.77,1.77,0,0,1-1.51.86c-1.44,0-2.56-1.94-3.06-3.1-0.14-.29-0.32-0.25-0.54,0-1.55,1.84-2.38,4.21-4.36,5.69a2.92,2.92,0,0,1-1.62.47,1.42,1.42,0,0,1-1.62-1.08c-0.11-.76-0.18-1.55-0.32-2.3-0.25-1.33-.58-2.59-0.86-3.92a12.18,12.18,0,0,1-.32-2.59,8.43,8.43,0,0,1,.68-3.24,1.08,1.08,0,0,1,1.08-.72,2.62,2.62,0,0,1,2.48,2.27c0,1-.22,2-0.22,3a8.69,8.69,0,0,0,.47,2.7,0.24,0.24,0,0,0,.47,0,17.09,17.09,0,0,0,3.46-6.16,1.66,1.66,0,0,1,1.73-1,1.5,1.5,0,0,1,1.55.9c0.36,1.3.68,2.66,1.08,4a0.42,0.42,0,0,0,.29.4,1.11,1.11,0,0,0,.5-0.25c2.3-1.66,2-3.06,3.35-5a1.34,1.34,0,0,1,1.15-.61,2.5,2.5,0,0,1,2.27,1.62c0.25,1.08.43,2.2,0.72,3.28a35.64,35.64,0,0,0,2.7,7.63,1.63,1.63,0,0,1,.18.72C3741.24,11688.11,3740.13,11688.47,3739.37,11688.47Z" transform="translate(-3606.11 -11352.83)"/><path class="cls-2" d="M3755.68,11681.78c-0.72,3.17-3,6.66-6.62,6.66a6.6,6.6,0,0,1-6.37-6.19c0-2.84,1.55-4.72,3.85-6.16a18.49,18.49,0,0,0,3.06-2.23,3,3,0,0,1,2.12-1,2.17,2.17,0,0,1,2.09,1.48c0.76,1.87,2,4.07,2,6.08A5.7,5.7,0,0,1,3755.68,11681.78Zm-3.24-3.06c-0.07-.14-0.18-0.25-0.36-0.07a1.63,1.63,0,0,1-1.08.47c-0.83,0-1.3-.76-1.76-0.76a2.4,2.4,0,0,0-1.19.54,3.17,3.17,0,0,0-1.66,3c0,2,1,3.17,3.06,3.17s3.53-2.09,3.53-4A6,6,0,0,0,3752.44,11678.72Z" transform="translate(-3606.11 -11352.83)"/><path class="cls-2" d="M3768.82,11678.93c-0.5,0-.94-0.32-1.44-0.32a1,1,0,0,0-.79.5c-1.4,2.05-1,4.72-2,6.95a1.86,1.86,0,0,1-1.73,1.12,1.59,1.59,0,0,1-1.62-1.26c-0.4-1.48-.79-2.88-1.26-4.32s-2.05-3.28-2.05-4.9a1.57,1.57,0,0,1,1.69-1.69,2,2,0,0,1,1.08.32,3.76,3.76,0,0,1,1.87,3c0.07,0.4.11,0.83,0.22,1.22a0.23,0.23,0,0,0,.22.22,0.43,0.43,0,0,0,.32-0.32c0.94-1.8,0-3.78,2.77-4.43a5.84,5.84,0,0,1,1.12-.11c1.33,0,3,.61,3,2.16A1.64,1.64,0,0,1,3768.82,11678.93Z" transform="translate(-3606.11 -11352.83)"/><path class="cls-2" d="M3661.07,11585.72v-166.47h33.69v65.89h66.14v-65.89h33.69v166.47h-33.69v-70.38h-66.14v70.38h-33.69Z" transform="translate(-3606.11 -11352.83)"/><circle class="cls-3" cx="3725.56" cy="11801.27" r="39.29" transform="translate(-7272.78 -9476.52) rotate(-19.16)"/><ellipse class="cls-4" cx="3713.39" cy="11796.85" rx="5.12" ry="10.12" transform="translate(-7272.01 -9480.75) rotate(-19.16)"/><ellipse class="cls-4" cx="3731.97" cy="11790.4" rx="5.12" ry="10.12" transform="translate(-7268.86 -9475.02) rotate(-19.16)"/><ellipse class="cls-3" cx="3716.24" cy="11802.95" rx="7.16" ry="8.29" transform="translate(-7273.85 -9479.48) rotate(-19.16)"/><ellipse class="cls-3" cx="3734.34" cy="11796.24" rx="7.16" ry="8.29" transform="translate(-7270.64 -9473.91) rotate(-19.16)"/><path class="cls-4" d="M3708.89,11812.84c3.54,8.27,13.44,20.51,26.11,16.11,12.14-4.22,13.26-19.58,10.82-28.94a77,77,0,0,1-17.87,9.27A67.82,67.82,0,0,1,3708.89,11812.84Z" transform="translate(-3606.11 -11352.83)"/><path class="cls-2" d="M3721.44,11827.76s-0.17-6.33,4.38-8.08,6.47,0,6.47,0a6.71,6.71,0,0,1,5.11-4.58c4.08-1,8,2.86,8,2.86A16.51,16.51,0,0,1,3721.44,11827.76Z" transform="translate(-3606.11 -11352.83)"/></svg>