<svg id="Interactive_elements" data-name="Interactive elements" xmlns="http://www.w3.org/2000/svg" viewBox="0 0 217.43 525.5"><defs><style>.cls-1{fill:#fff;}.cls-2{fill:#fe961c;}.cls-3{fill:#ffca00;}.cls-4{fill:#d7731b;}</style></defs><title>pictures-visuals</title><rect class="cls-1" width="217.43" height="525.5"/><path class="cls-2" d="M8993.57,11608.12a4.2,4.2,0,0,1-4.71-2.23,1.35,1.35,0,0,1-.25-0.76,1.56,1.56,0,0,1,1.76-1.3c1.22,0,4.75,1.08,4.75,2.59A2,2,0,0,1,8993.57,11608.12Zm0.58,17.31a2,2,0,0,1-1.48-.5,6.88,6.88,0,0,1-2.05-4.32c-0.11-1.84-.11-3.64-0.11-5.47v-2.45a1.17,1.17,0,0,1,1.26-1.3,2.46,2.46,0,0,1,2.45,2.2c0,1.58-.47,3.13-0.47,4.68,0,3.42,2.77,4.86,2.77,5.87S8994.9,11625.43,8994.14,11625.43Z" transform="translate(-8926.19 -11338.59)"/><path class="cls-2" d="M9010.23,11613.73a2.8,2.8,0,0,1-2.38,1.62c-1.15,0-.54-1.73-1.15-1.73-0.22,0-1.94,1-2.66,1.3a0.42,0.42,0,0,0-.32.36,0.36,0.36,0,0,0,.14.25c0.5,0.54,1,1,1.55,1.51a42,42,0,0,1,3.67,3.92,3.36,3.36,0,0,1,.72,2,2.88,2.88,0,0,1-1,2.2,12.68,12.68,0,0,1-6.77,2.45,3,3,0,0,1-1.58-.36,2.28,2.28,0,0,1-1.22-1.84,1.55,1.55,0,0,1,1.62-1.51c0.65,0,1.22.4,1.91,0.4s3-.61,3-1.44a2.88,2.88,0,0,0-.65-1.22,15.48,15.48,0,0,0-4.14-3.67,3.58,3.58,0,0,1-1.76-3.13,2.46,2.46,0,0,1,1.55-2.41c1.66-.79,4.68-2.56,6.44-2.56a2.43,2.43,0,0,1,.5,0c1.48,0.4,2.66,1.19,2.66,2.84A4.46,4.46,0,0,1,9010.23,11613.73Z" transform="translate(-8926.19 -11338.59)"/><path class="cls-2" d="M9038.46,11617c-1.37,1.44-5.11,1.15-7,1.48a0.76,0.76,0,0,0-.79.9c0,0.9.32,3.2,1.58,3.2h0.22c0.76,0,1,.94,1,1.55,0,1-.32,1.84-1.4,1.84-3,0-3.89-2.2-4.1-4.79,0-.5,0-2.63-0.61-2.63s-1.22.22-1.84,0.22a2.32,2.32,0,0,1-2.59-2.23c0-1.26.86-1.3,1.87-1.3,0.68,0,1.4.07,2.09,0.07,0.29,0,.61,0,0.61-0.4v-1.26c0-.9,0-1.84,0-2.74a52.92,52.92,0,0,1,.4-6.77,2.43,2.43,0,0,1,2.66-2.34c3,0,8.28,3.74,8.28,6.95a3.87,3.87,0,0,1-1.44,2.84,2.49,2.49,0,0,1-1.37.76c-0.76,0-.76-0.79-0.76-1.33s0.07-1.12.07-1.66a3.24,3.24,0,0,0-.72-2.27c-0.58-.61-1.76-1.83-2.66-1.83-1.51,0-1.58,3.92-1.58,4.93a32.56,32.56,0,0,0,.25,4.18,0.74,0.74,0,0,0,.72.79,8.24,8.24,0,0,0,1.33.07c1.8,0,3.6-.43,5.4-0.43a0.86,0.86,0,0,1,1,.79A2.36,2.36,0,0,1,9038.46,11617Z" transform="translate(-8926.19 -11338.59)"/><path class="cls-2" d="M9054.22,11619.35c-0.72,3.17-3,6.66-6.62,6.66a6.6,6.6,0,0,1-6.37-6.19c0-2.84,1.55-4.72,3.85-6.16a18.55,18.55,0,0,0,3.06-2.23,3,3,0,0,1,2.12-1,2.17,2.17,0,0,1,2.09,1.48c0.76,1.87,2,4.07,2,6.08A5.73,5.73,0,0,1,9054.22,11619.35Zm-3.24-3.06c-0.07-.14-0.18-0.25-0.36-0.07a1.63,1.63,0,0,1-1.08.47c-0.83,0-1.3-.76-1.76-0.76a2.4,2.4,0,0,0-1.19.54,3.17,3.17,0,0,0-1.66,3c0,2,1,3.17,3.06,3.17s3.53-2.09,3.53-4A6,6,0,0,0,9051,11616.29Z" transform="translate(-8926.19 -11338.59)"/><path class="cls-2" d="M9067.36,11616.5c-0.5,0-.94-0.32-1.44-0.32a1,1,0,0,0-.79.5c-1.4,2.05-1,4.72-2,6.95a1.86,1.86,0,0,1-1.73,1.12,1.59,1.59,0,0,1-1.62-1.26c-0.4-1.48-.79-2.88-1.26-4.32s-2.05-3.28-2.05-4.9a1.57,1.57,0,0,1,1.69-1.69,2,2,0,0,1,1.08.32,3.76,3.76,0,0,1,1.87,3c0.07,0.4.11,0.83,0.22,1.22a0.23,0.23,0,0,0,.22.22,0.43,0.43,0,0,0,.32-0.32c0.94-1.8,0-3.78,2.77-4.43a5.84,5.84,0,0,1,1.12-.11c1.33,0,3,.61,3,2.16A1.64,1.64,0,0,1,9067.36,11616.5Z" transform="translate(-8926.19 -11338.59)"/><path class="cls-2" d="M8978,11645.41a8,8,0,0,1-6.8,3.6c-0.65,0-.76,0-0.76.43,0.07,1.69.65,3.31,0.65,5s-0.5,3.35-2,4.1a1.71,1.71,0,0,1-.83.25,0.71,0.71,0,0,1-.79-0.65l-0.14-1.48-0.32-4c-0.43-4.79-.61-9.57-0.61-14.4,0-1.94,2.41-3.46,4.18-3.46,0.14,0,.29,0,0.43,0a10.3,10.3,0,0,1,7.42,5,4.53,4.53,0,0,1,.68,2.34A5.63,5.63,0,0,1,8978,11645.41Zm-7.16-6.66a1.41,1.41,0,0,0-1.4,1.26c0,1,1.51,1,1.51,2.48a2.43,2.43,0,0,1-.86,1.73,0.38,0.38,0,0,0,.07.47,2.3,2.3,0,0,0,1.91,1.08c1.55,0,3.82-1.4,3.82-3.1S8972.4,11638.75,8970.81,11638.75Z" transform="translate(-8926.19 -11338.59)"/><path class="cls-2" d="M8985.83,11640.12a4.2,4.2,0,0,1-4.71-2.23,1.35,1.35,0,0,1-.25-0.76,1.56,1.56,0,0,1,1.76-1.3c1.22,0,4.75,1.08,4.75,2.59A2,2,0,0,1,8985.83,11640.12Zm0.58,17.31a2,2,0,0,1-1.48-.5,6.88,6.88,0,0,1-2.05-4.32c-0.11-1.84-.11-3.64-0.11-5.47v-2.45a1.17,1.17,0,0,1,1.26-1.3,2.46,2.46,0,0,1,2.45,2.2c0,1.58-.47,3.13-0.47,4.68,0,3.42,2.77,4.86,2.77,5.87S8987.16,11657.43,8986.4,11657.43Z" transform="translate(-8926.19 -11338.59)"/><path class="cls-2" d="M9008.18,11647.39a1.77,1.77,0,0,1-1.58-1.26,0.89,0.89,0,0,0-1-.47c-1.84,0-5.54,1.58-7.27,2.38s-2.84,1.58-3.28,3.46a0.63,0.63,0,0,0,0,.25c0,1.91,3.53,3.56,5,3.89a7.26,7.26,0,0,0,1.51.18c1.48,0,2.74-.9,4.21-0.9a1.32,1.32,0,0,1,1.4,1.15,1.66,1.66,0,0,1-1.22,1.33,12.77,12.77,0,0,1-5.11,1.4,6.79,6.79,0,0,1-1.69-.22c-3.6-.94-7.42-2.88-7.42-7.13V11651c0.32-4.1,4.32-5.44,7.63-6.66a29.47,29.47,0,0,1,7.23-1.55,2.54,2.54,0,0,1,.5,0,2.31,2.31,0,0,1,2.56,2.34C9009.69,11646.05,9009.33,11647.39,9008.18,11647.39Z" transform="translate(-8926.19 -11338.59)"/><path class="cls-2" d="M9025.79,11648c-1.4,1.48-3.56,1.8-5.51,1.8-0.79,0-1.58-.07-2.34-0.07a0.61,0.61,0,0,0-.68.54,13.81,13.81,0,0,0,.83,4.5,6.56,6.56,0,0,1,.79,2.27,1.86,1.86,0,0,1-1.91,1.69c-2.84,0-2.56-5-2.7-6.87a7.8,7.8,0,0,0-.54-2.23c-0.36-.94-3-0.79-3-2.81a1.68,1.68,0,0,1,1.94-1.83c0.29,0,.58.07,0.86,0.07s0.58-.11.54-0.29a39.48,39.48,0,0,1-1.08-6.77,1.33,1.33,0,0,1,1.51-1.37c1.22,0,2.88.94,2.88,2.3a1.89,1.89,0,0,1,0,.47,10.58,10.58,0,0,0-.4,2.81,19.31,19.31,0,0,0,.29,3.2,0.64,0.64,0,0,0,.68.61c0.9,0.07,1.8.07,2.66,0.07a8.83,8.83,0,0,0,3.24-.4,2.64,2.64,0,0,1,1.37-.61,1.34,1.34,0,0,1,1.15,1.48A2.14,2.14,0,0,1,9025.79,11648Z" transform="translate(-8926.19 -11338.59)"/><path class="cls-2" d="M9043.14,11659.08c-2.27,0-3.17-6.41-4-6.41a0.56,0.56,0,0,0-.36.4c-1.19,2.09-2.3,4.36-5.08,4.36-4.32,0-5.08-4.61-5.08-8a30.87,30.87,0,0,1,.65-6.3,1.38,1.38,0,0,1,1.48-.9c0.94,0,2.05.5,2.05,1.55,0,0.14,0,.25,0,0.36a18.79,18.79,0,0,0-.54,4.25c0,1,.36,5.33,1.73,5.33a1.82,1.82,0,0,0,1.22-.83,8.54,8.54,0,0,0,2.23-5.44c0-.29,0-0.58,0-0.86,0-1,1.22-1.48,2.05-1.48a1.83,1.83,0,0,1,1.87,1.33c0.65,2.12,1.84,7.74,3.42,9.07a1.89,1.89,0,0,1,.79,1.44A2.51,2.51,0,0,1,9043.14,11659.08Z" transform="translate(-8926.19 -11338.59)"/><path class="cls-2" d="M9057.68,11648.5c-0.5,0-.94-0.32-1.44-0.32a1,1,0,0,0-.79.5c-1.4,2.05-1,4.72-2,6.95a1.86,1.86,0,0,1-1.73,1.12,1.59,1.59,0,0,1-1.62-1.26c-0.4-1.48-.79-2.88-1.26-4.32s-2.05-3.28-2.05-4.9a1.57,1.57,0,0,1,1.69-1.69,2,2,0,0,1,1.08.32,3.76,3.76,0,0,1,1.87,3c0.07,0.4.11,0.83,0.22,1.22a0.23,0.23,0,0,0,.22.22,0.43,0.43,0,0,0,.32-0.32c0.94-1.8,0-3.78,2.77-4.43a5.84,5.84,0,0,1,1.12-.11c1.33,0,3,.61,3,2.16A1.64,1.64,0,0,1,9057.68,11648.5Z" transform="translate(-8926.19 -11338.59)"/><path class="cls-2" d="M9078.38,11657.83c-1.4,1-4.36,1.4-6,1.4a12.5,12.5,0,0,1-4-.58c-2.84-.9-6.62-2.56-6.62-6a8.8,8.8,0,0,1,.07-1c0.54-3.56,2.63-5.18,5.51-7a11,11,0,0,1,5.72-2c2.12,0,5,1.08,5,3.6a3.77,3.77,0,0,1-1.15,2.63c-2.12,2.09-4.43,2-6.95,3.09a7.9,7.9,0,0,1-3,.72,2.05,2.05,0,0,1-1.44-.47c-0.14-.14-0.29-0.11-0.29.14,0,2.23,3.13,3,4.86,3.46a12.69,12.69,0,0,0,3.31.47,25.1,25.1,0,0,0,4-.47c0.11,0,.22,0,0.29,0a1.12,1.12,0,0,1,1.15,1.19A1,1,0,0,1,9078.38,11657.83Zm-4.5-12.09a9,9,0,0,0-1.37.22,13.65,13.65,0,0,0-6.66,3.46c-0.22.32-.07,0.4,0.32,0.22,1.19-.4,2.38-0.58,3.63-0.86,0.9-.18,4.68-1.3,4.68-2.38A0.61,0.61,0,0,0,9073.88,11645.73Z" transform="translate(-8926.19 -11338.59)"/><path class="cls-2" d="M9092.85,11645.73a2.8,2.8,0,0,1-2.38,1.62c-1.15,0-.54-1.73-1.15-1.73-0.22,0-1.94,1-2.66,1.3a0.42,0.42,0,0,0-.32.36,0.37,0.37,0,0,0,.14.25c0.5,0.54,1,1,1.55,1.51a42.13,42.13,0,0,1,3.67,3.92,3.35,3.35,0,0,1,.72,2,2.88,2.88,0,0,1-1,2.2,12.67,12.67,0,0,1-6.77,2.45,3,3,0,0,1-1.58-.36,2.28,2.28,0,0,1-1.22-1.84,1.55,1.55,0,0,1,1.62-1.51c0.65,0,1.22.4,1.91,0.4s3-.61,3-1.44a2.88,2.88,0,0,0-.65-1.22,15.49,15.49,0,0,0-4.14-3.67,3.58,3.58,0,0,1-1.76-3.13,2.46,2.46,0,0,1,1.55-2.41c1.66-.79,4.68-2.56,6.44-2.56a2.44,2.44,0,0,1,.5,0c1.48,0.4,2.66,1.19,2.66,2.84A4.52,4.52,0,0,1,9092.85,11645.73Z" transform="translate(-8926.19 -11338.59)"/><path class="cls-2" d="M8979.22,11678.38a47.25,47.25,0,0,1-3.49,4.54q-0.59.65-.22,1c0.65,0.47,1.87,1.3,1.87,2.27a2.29,2.29,0,0,1-2,1.94,1.15,1.15,0,0,1-.79-0.5,23,23,0,0,1-1.51-1.76,0.86,0.86,0,0,0-.54-0.4c-0.79,0-3.38,3.42-6.84,3.42a3.47,3.47,0,0,1-3.74-3.28,4.08,4.08,0,0,1,.43-1.73,23.35,23.35,0,0,1,3.24-4.93l1-1.08a1,1,0,0,0,.32-1.12,25.24,25.24,0,0,1-.54-3.49,4.12,4.12,0,0,1,.22-1.33c0.58-1.94,1.84-4.28,4.18-4.28,1.76,0,3.53,1,3.53,3,0,2.59-3.71,6-3.71,6.8s1.87,3.6,2.66,3.6a0.82,0.82,0,0,0,.58-0.4,25.34,25.34,0,0,0,3.42-5.25,1,1,0,0,1,.72-0.61c0.9,0,1.44,1.94,1.44,2.63A1.91,1.91,0,0,1,8979.22,11678.38Zm-9.61,2.77a3.19,3.19,0,0,0-.76-1.15c-0.83,0-3.49,4-3.49,5a0.58,0.58,0,0,0,.76.61c1.4-.07,2.84-1.22,4.07-1.91a0.89,0.89,0,0,0,.61-0.72C8970.8,11682.45,8969.86,11681.65,8969.61,11681.15Zm-0.36-8.31c0,0.29,0,.65.36,0.65s1.19-1.33,1.19-2a0.26,0.26,0,0,0-.25-0.29A1.43,1.43,0,0,0,8969.25,11672.84Z" transform="translate(-8926.19 -11338.59)"/><path class="cls-2" d="M9006.08,11677c-0.76,1.58-1,4.21-1.26,6a14.94,14.94,0,0,1-2.3,6.41,2.15,2.15,0,0,1-1.62,1.15,2.85,2.85,0,0,1-1.73-1c-4.39-4.46-5.44-8.53-7.74-14.11-0.5-1.26-1.08-2.48-1.69-3.71a1.63,1.63,0,0,1-.18-0.72,1.84,1.84,0,0,1,1.84-1.69,1.72,1.72,0,0,1,1.22.5c2.27,2.2,2.23,6.41,3.67,9.18,0.54,1.12,1,2.27,1.66,3.35a14.41,14.41,0,0,0,2.38,3.1c0.25,0.25.43,0,.58-0.36a30.93,30.93,0,0,0,1.8-6.66c0.22-1.48.25-3,.4-4.43,0.11-1,1.22-1.3,2.09-1.3s3.28,0.54,3.28,1.84S9006.58,11676,9006.08,11677Z" transform="translate(-8926.19 -11338.59)"/><path class="cls-2" d="M9013.2,11672.12a4.2,4.2,0,0,1-4.72-2.23,1.36,1.36,0,0,1-.25-0.76,1.56,1.56,0,0,1,1.76-1.3c1.22,0,4.75,1.08,4.75,2.59A2,2,0,0,1,9013.2,11672.12Zm0.58,17.31a2,2,0,0,1-1.48-.5,6.88,6.88,0,0,1-2.05-4.32c-0.11-1.84-.11-3.64-0.11-5.47v-2.45a1.17,1.17,0,0,1,1.26-1.3,2.46,2.46,0,0,1,2.45,2.2c0,1.58-.47,3.13-0.47,4.68,0,3.42,2.77,4.86,2.77,5.87S9014.54,11689.43,9013.78,11689.43Z" transform="translate(-8926.19 -11338.59)"/><path class="cls-2" d="M9029.87,11677.73a2.8,2.8,0,0,1-2.38,1.62c-1.15,0-.54-1.73-1.15-1.73-0.22,0-1.94,1-2.66,1.3a0.42,0.42,0,0,0-.32.36,0.37,0.37,0,0,0,.14.25c0.5,0.54,1,1,1.55,1.51a41.87,41.87,0,0,1,3.67,3.92,3.35,3.35,0,0,1,.72,2,2.88,2.88,0,0,1-1,2.2,12.68,12.68,0,0,1-6.77,2.45,3,3,0,0,1-1.58-.36,2.28,2.28,0,0,1-1.22-1.84,1.55,1.55,0,0,1,1.62-1.51c0.65,0,1.22.4,1.91,0.4s3-.61,3-1.44a2.88,2.88,0,0,0-.65-1.22,15.49,15.49,0,0,0-4.14-3.67,3.58,3.58,0,0,1-1.76-3.13,2.46,2.46,0,0,1,1.55-2.41c1.66-.79,4.68-2.56,6.44-2.56a2.43,2.43,0,0,1,.5,0c1.48,0.4,2.66,1.19,2.66,2.84A4.46,4.46,0,0,1,9029.87,11677.73Z" transform="translate(-8926.19 -11338.59)"/><path class="cls-2" d="M9048,11691.08c-2.27,0-3.17-6.41-4-6.41a0.57,0.57,0,0,0-.36.4c-1.19,2.09-2.3,4.36-5.08,4.36-4.32,0-5.08-4.61-5.08-8a30.87,30.87,0,0,1,.65-6.3,1.38,1.38,0,0,1,1.48-.9c0.94,0,2.05.5,2.05,1.55,0,0.14,0,.25,0,0.36a18.79,18.79,0,0,0-.54,4.25c0,1,.36,5.33,1.73,5.33a1.82,1.82,0,0,0,1.22-.83,8.54,8.54,0,0,0,2.23-5.44c0-.29,0-0.58,0-0.86,0-1,1.22-1.48,2.05-1.48a1.83,1.83,0,0,1,1.87,1.33c0.65,2.12,1.83,7.74,3.42,9.07a1.89,1.89,0,0,1,.79,1.44A2.51,2.51,0,0,1,9048,11691.08Z" transform="translate(-8926.19 -11338.59)"/><path class="cls-2" d="M9071.31,11690.69a1.07,1.07,0,0,1-.72-0.29c-2.3-1.76-3-4-3.74-6.66a1,1,0,0,0-.68-0.9,1.11,1.11,0,0,0-.72.4c-0.54.54-1,1.12-1.55,1.66a22.8,22.8,0,0,1-4.9,3.78,5.81,5.81,0,0,1-2.81.83,4,4,0,0,1-3.85-4.28,3.85,3.85,0,0,1,.61-2.16c2.05-3.13,4.82-4.79,8.13-6.34a6.28,6.28,0,0,1,2.52-.68c1.58,0,2,1.15,2.59,1.15s0.68-1,1.69-1a2.54,2.54,0,0,1,2,1.44c1,2.34,0,7,1.84,8.89a2,2,0,0,0,.94.58,1,1,0,0,1,.61,1.08C9073.29,11689.14,9072.42,11690.69,9071.31,11690.69Zm-9.21-10.55a2.55,2.55,0,0,0-1,.43,16.33,16.33,0,0,0-5,4,0.82,0.82,0,0,0-.14.5,0.93,0.93,0,0,0,1.08.86c1,0,2.81-1.8,3.71-2.41a8.59,8.59,0,0,1,1.26-.68l0.4-.14a0.56,0.56,0,0,0,.29-0.65C9062.74,11681.65,9062.7,11680.14,9062.09,11680.14Z" transform="translate(-8926.19 -11338.59)"/><path class="cls-2" d="M9079.88,11685.22c-0.07.94,0,1.91-.14,2.81a1.09,1.09,0,0,1-1.26,1,1.93,1.93,0,0,1-1.91-1.37,14.53,14.53,0,0,1-.4-3.53c0-1.94.29-3.89,0.29-5.83,0-3.31-1.22-7.45-2.23-10.55a1.44,1.44,0,0,1-.11-0.54c0-1.22,1.58-1.76,2.63-1.76a1.63,1.63,0,0,1,1.91,1.4c0.36,3.13,1.08,6.19,1.3,9.36,0.07,1.22.14,2.41,0.14,3.6C9080.09,11681.62,9080,11683.42,9079.88,11685.22Z" transform="translate(-8926.19 -11338.59)"/><path class="cls-2" d="M9095.32,11677.73a2.8,2.8,0,0,1-2.38,1.62c-1.15,0-.54-1.73-1.15-1.73-0.22,0-1.94,1-2.66,1.3a0.42,0.42,0,0,0-.32.36,0.37,0.37,0,0,0,.14.25c0.5,0.54,1,1,1.55,1.51a41.89,41.89,0,0,1,3.67,3.92,3.36,3.36,0,0,1,.72,2,2.88,2.88,0,0,1-1,2.2,12.68,12.68,0,0,1-6.77,2.45,3,3,0,0,1-1.58-.36,2.28,2.28,0,0,1-1.22-1.84,1.55,1.55,0,0,1,1.62-1.51c0.65,0,1.22.4,1.91,0.4s3-.61,3-1.44a2.88,2.88,0,0,0-.65-1.22,15.49,15.49,0,0,0-4.14-3.67,3.58,3.58,0,0,1-1.76-3.13,2.46,2.46,0,0,1,1.55-2.41c1.66-.79,4.68-2.56,6.44-2.56a2.43,2.43,0,0,1,.5,0c1.48,0.4,2.66,1.19,2.66,2.84A4.52,4.52,0,0,1,9095.32,11677.73Z" transform="translate(-8926.19 -11338.59)"/><path class="cls-2" d="M8966.05,11571.29v-166.47h52.41a160.17,160.17,0,0,1,23.58,1.62,70.7,70.7,0,0,1,20.59,6.36,38.71,38.71,0,0,1,18.72,17.85,55.41,55.41,0,0,1,6,25.33,59.36,59.36,0,0,1-2,15.1,57,57,0,0,1-5.74,14.1,52.21,52.21,0,0,1-9.23,11.73,41.8,41.8,0,0,1-12.48,8.24,79.94,79.94,0,0,1-17.72,4.87,120.25,120.25,0,0,1-18.22,1.37h-23v59.9h-32.94Zm32.94-88.6h18.72a104.19,104.19,0,0,0,13.1-.75,33.73,33.73,0,0,0,10.11-2.75q7.24-3.24,10.23-9a26.58,26.58,0,0,0-.37-25.21,18.57,18.57,0,0,0-10.61-8.49,50.83,50.83,0,0,0-9-2.25,81.2,81.2,0,0,0-12.23-.75h-20v49.17Z" transform="translate(-8926.19 -11338.59)"/><path class="cls-2" d="M9037,11756.11l-8.92-1.35-1.52-9-26.3,5-21-3.06-1,7.1-12.71,2.26,8.26,44.85,35.16-6.4,21.94,3.14,0.92-7.35,2.81-.59-1.53-8.24Zm-9,38.95-51.4-7.42,5.55-36.62,51.4,7.42Zm-3.84-45.7,0.93,4.9-17-2.25Zm-54.84,10.2,8.48-1.59-3.84,27.69Zm6.76,38.68-1.26-7.38,25.51,3.27Z" transform="translate(-8926.19 -11338.59)"/><circle class="cls-3" cx="8995.57" cy="11764.63" r="4.69" transform="translate(-12858.99 7649.89) rotate(-81.79)"/><polygon class="cls-4" points="96.07 439.47 90.99 443.39 83.21 427.33 71.04 441.93 65.93 434.87 53.44 446.68 93.78 452.5 99.75 453.36 99.4 451.46 96.07 439.47"/><path class="cls-2" d="M9084.64,11815.85h-44.95a1.72,1.72,0,0,0,0,3.43h44.95A1.72,1.72,0,0,0,9084.64,11815.85Z" transform="translate(-8926.19 -11338.59)"/><rect class="cls-2" x="118.46" y="459.78" width="8.72" height="14.76"/><rect class="cls-2" x="131.48" y="465.62" width="8.72" height="8.93"/><rect class="cls-2" x="144.44" y="452.8" width="8.72" height="21.74"/><path class="cls-2" d="M9071.4,11774.12l3.32,2.94-14.07,16.18-10.69-8.65h0l-1.77,2.06s0,0.06.07,0.08L9061,11797l15.84-18.21,3.84,3.18,0.71-10.41Z" transform="translate(-8926.19 -11338.59)"/></svg>