<svg id="Interactive_elements" data-name="Interactive elements" xmlns="http://www.w3.org/2000/svg" xmlns:xlink="http://www.w3.org/1999/xlink" viewBox="0 0 180.12 524.9"><defs><style>.cls-1{fill:#fff;}.cls-2{fill:#2e8bbd;}.cls-3{fill:#14608a;}.cls-4{fill:url(#linear-gradient);}.cls-5{fill:url(#linear-gradient-2);}.cls-6{fill:#badef5;}</style><linearGradient id="linear-gradient" x1="1862.25" y1="11815.25" x2="1890.75" y2="11781.28" gradientUnits="userSpaceOnUse"><stop offset="0" stop-color="#dbedfa"/><stop offset="1" stop-color="#badef5"/></linearGradient><linearGradient id="linear-gradient-2" x1="1914.52" y1="11808.3" x2="1940.37" y2="11777.5" xlink:href="#linear-gradient"/></defs><title>stories</title><rect class="cls-1" width="180.12" height="524.9"/><path class="cls-2" d="M1868.42,11541.54a37.24,37.24,0,0,0,15.47,14.35,48.43,48.43,0,0,0,22,4.87q12.73,0,20.34-5t7.61-13.23a22.9,22.9,0,0,0-1.75-9.23,20.62,20.62,0,0,0-6-7.49,52.67,52.67,0,0,0-11.73-6.86q-7.49-3.37-19-7.36a171.44,171.44,0,0,1-19.34-8,60.05,60.05,0,0,1-14.73-10,39.14,39.14,0,0,1-9.36-13.35,45.93,45.93,0,0,1-3.24-18.09,47.23,47.23,0,0,1,3.62-18.72,39.37,39.37,0,0,1,11-14.72,51.21,51.21,0,0,1,18.34-9.61,99.63,99.63,0,0,1,47.3-1,63.08,63.08,0,0,1,16.22,6.36,53.25,53.25,0,0,1,11.86,9.23,76.81,76.81,0,0,1,8.74,11l-24.21,17.22a45.59,45.59,0,0,0-13.23-13.23q-8-5.24-21.21-5.24-12.73,0-19.34,4.49t-6.61,11.73q0,8.74,8.49,14.35t25.46,11.86a175.27,175.27,0,0,1,22.34,9.48,66.88,66.88,0,0,1,16.1,11.36,43.17,43.17,0,0,1,9.86,14.6,51.24,51.24,0,0,1,3.37,19.47q0,12.23-5.12,21.34a46.11,46.11,0,0,1-13.48,15.1,60,60,0,0,1-19.34,9,85,85,0,0,1-22.46,3q-45.43,0-63.64-30.7Z" transform="translate(-1818.14 -11353.32)"/><path class="cls-2" d="M1868.9,11638.54a4.45,4.45,0,0,1-1,.11,4.41,4.41,0,0,1-3.74-2.34,1.36,1.36,0,0,1-.25-0.76,1.56,1.56,0,0,1,1.76-1.3c1.22,0,4.75,1.08,4.75,2.59A2,2,0,0,1,1868.9,11638.54Zm0.58,17.31a2,2,0,0,1-1.48-.5,6.88,6.88,0,0,1-2.05-4.32c-0.11-1.84-.11-3.64-0.11-5.47v-2.45a1.17,1.17,0,0,1,1.26-1.3,2.46,2.46,0,0,1,2.45,2.2c0,1.58-.47,3.13-0.47,4.68,0,3.42,2.77,4.86,2.77,5.87S1870.23,11655.85,1869.47,11655.85Z" transform="translate(-1818.14 -11353.32)"/><path class="cls-2" d="M1885.56,11644.16a2.8,2.8,0,0,1-2.38,1.62c-1.15,0-.54-1.73-1.15-1.73-0.22,0-1.94,1-2.66,1.3a0.42,0.42,0,0,0-.32.36,0.37,0.37,0,0,0,.14.25c0.5,0.54,1,1,1.55,1.51a42,42,0,0,1,3.67,3.92,3.36,3.36,0,0,1,.72,2,2.88,2.88,0,0,1-1,2.2,12.68,12.68,0,0,1-6.77,2.45,3,3,0,0,1-1.58-.36,2.28,2.28,0,0,1-1.22-1.84,1.55,1.55,0,0,1,1.62-1.51c0.65,0,1.22.4,1.91,0.4s3-.61,3-1.44a2.88,2.88,0,0,0-.65-1.22,15.49,15.49,0,0,0-4.14-3.67,3.58,3.58,0,0,1-1.76-3.13,2.46,2.46,0,0,1,1.55-2.41c1.66-.79,4.68-2.56,6.44-2.56a2.43,2.43,0,0,1,.5,0c1.48,0.4,2.66,1.19,2.66,2.84A4.47,4.47,0,0,1,1885.56,11644.16Z" transform="translate(-1818.14 -11353.32)"/><path class="cls-2" d="M1913.79,11647.43c-1.37,1.44-5.11,1.15-7,1.48a0.76,0.76,0,0,0-.79.9c0,0.9.32,3.2,1.58,3.2h0.22c0.76,0,1,.94,1,1.55,0,1-.32,1.84-1.4,1.84-3,0-3.89-2.2-4.1-4.79,0-.5,0-2.63-0.61-2.63s-1.22.22-1.84,0.22a2.32,2.32,0,0,1-2.59-2.23c0-1.26.86-1.3,1.87-1.3,0.68,0,1.4.07,2.09,0.07,0.29,0,.61,0,0.61-0.4v-1.26c0-.9,0-1.84,0-2.74a52.92,52.92,0,0,1,.4-6.77,2.43,2.43,0,0,1,2.66-2.34c3,0,8.28,3.74,8.28,6.95a3.86,3.86,0,0,1-1.44,2.84,2.48,2.48,0,0,1-1.37.76c-0.76,0-.76-0.79-0.76-1.33s0.07-1.12.07-1.66a3.24,3.24,0,0,0-.72-2.27c-0.58-.61-1.76-1.83-2.66-1.83-1.51,0-1.58,3.92-1.58,4.93a32.51,32.51,0,0,0,.25,4.18,0.74,0.74,0,0,0,.72.79,8.23,8.23,0,0,0,1.33.07c1.8,0,3.6-.43,5.4-0.43a0.86,0.86,0,0,1,1,.79A2.36,2.36,0,0,1,1913.79,11647.43Z" transform="translate(-1818.14 -11353.32)"/><path class="cls-2" d="M1929.55,11649.77c-0.72,3.17-3,6.66-6.62,6.66a6.6,6.6,0,0,1-6.37-6.19c0-2.84,1.55-4.72,3.85-6.16a18.5,18.5,0,0,0,3.06-2.23,3,3,0,0,1,2.12-1,2.17,2.17,0,0,1,2.09,1.48c0.76,1.87,2,4.07,2,6.08A5.69,5.69,0,0,1,1929.55,11649.77Zm-3.24-3.06c-0.07-.14-0.18-0.25-0.36-0.07a1.63,1.63,0,0,1-1.08.47c-0.83,0-1.3-.76-1.76-0.76a2.4,2.4,0,0,0-1.19.54,3.17,3.17,0,0,0-1.66,3c0,2,1,3.17,3.06,3.17s3.53-2.09,3.53-4A6,6,0,0,0,1926.32,11646.71Z" transform="translate(-1818.14 -11353.32)"/><path class="cls-2" d="M1942.69,11646.93c-0.5,0-.94-0.32-1.44-0.32a1,1,0,0,0-.79.5c-1.4,2.05-1,4.72-2,6.95a1.86,1.86,0,0,1-1.73,1.12,1.59,1.59,0,0,1-1.62-1.26c-0.4-1.48-.79-2.88-1.26-4.32s-2.05-3.28-2.05-4.9a1.57,1.57,0,0,1,1.69-1.69,2,2,0,0,1,1.08.32,3.76,3.76,0,0,1,1.87,3c0.07,0.4.11,0.83,0.22,1.22a0.23,0.23,0,0,0,.22.22,0.43,0.43,0,0,0,.32-0.32c0.94-1.8,0-3.78,2.77-4.43a5.84,5.84,0,0,1,1.12-.11c1.33,0,3,.61,3,2.16A1.64,1.64,0,0,1,1942.69,11646.93Z" transform="translate(-1818.14 -11353.32)"/><path class="cls-2" d="M1863.21,11689c-2.92,0-6.59-1.94-9-3.56a1.94,1.94,0,0,1-1-1.33c0-.68.86-0.94,1.4-0.94a2.75,2.75,0,0,1,1.19.29c2.45,1.15,4.25,2.27,7.05,2.27,1.12,0,2.23,0,2.23-1.37,0-.9-0.86-1.55-1.66-2.05-2.38-1.44-6.59-2.16-8.68-2.77a9.85,9.85,0,0,1-3-1.29c-1-.72-2.16-1.8-2.16-3.1s1.15-2.23,2.2-2.77c3.2-1.62,9.39-4.07,12.92-4.07,1.84,0,2.77.54,2.77,2.48a1.32,1.32,0,0,1-1.22,1.58,3,3,0,0,1-1.12-.29,5.87,5.87,0,0,0-1.94-.25,7,7,0,0,0-2.12.29c-1,.25-7.27,2.2-7.27,2.81a1.15,1.15,0,0,0,.5.68,9.76,9.76,0,0,0,2.09.86,55,55,0,0,1,7,2.45,10.34,10.34,0,0,1,4.14,3,4.83,4.83,0,0,1,1,2.77C1868.5,11687.31,1865.62,11689,1863.21,11689Z" transform="translate(-1818.14 -11353.32)"/><path class="cls-2" d="M1886.1,11678.42c-1.4,1.48-3.56,1.8-5.51,1.8-0.79,0-1.58-.07-2.34-0.07a0.61,0.61,0,0,0-.68.54,13.81,13.81,0,0,0,.83,4.5,6.56,6.56,0,0,1,.79,2.27,1.86,1.86,0,0,1-1.91,1.69c-2.84,0-2.56-5-2.7-6.87a7.8,7.8,0,0,0-.54-2.23c-0.36-.94-3-0.79-3-2.81a1.68,1.68,0,0,1,1.94-1.83c0.29,0,.58.07,0.86,0.07s0.58-.11.54-0.29a39.52,39.52,0,0,1-1.08-6.77,1.33,1.33,0,0,1,1.51-1.37c1.22,0,2.88.94,2.88,2.3a1.89,1.89,0,0,1,0,.47,10.58,10.58,0,0,0-.4,2.81,19.28,19.28,0,0,0,.29,3.2,0.64,0.64,0,0,0,.68.61c0.9,0.07,1.8.07,2.66,0.07a8.83,8.83,0,0,0,3.24-.4,2.65,2.65,0,0,1,1.37-.61,1.34,1.34,0,0,1,1.15,1.48A2.14,2.14,0,0,1,1886.1,11678.42Z" transform="translate(-1818.14 -11353.32)"/><path class="cls-2" d="M1901.12,11681.77c-0.72,3.17-3,6.66-6.62,6.66a6.6,6.6,0,0,1-6.37-6.19c0-2.84,1.55-4.72,3.85-6.16a18.5,18.5,0,0,0,3.06-2.23,3,3,0,0,1,2.12-1,2.17,2.17,0,0,1,2.09,1.48c0.76,1.87,2,4.07,2,6.08A5.69,5.69,0,0,1,1901.12,11681.77Zm-3.24-3.06c-0.07-.14-0.18-0.25-0.36-0.07a1.63,1.63,0,0,1-1.08.47c-0.83,0-1.3-.76-1.76-0.76a2.4,2.4,0,0,0-1.19.54,3.17,3.17,0,0,0-1.66,3c0,2,1,3.17,3.06,3.17s3.53-2.09,3.53-4A6,6,0,0,0,1897.88,11678.71Z" transform="translate(-1818.14 -11353.32)"/><path class="cls-2" d="M1914.26,11678.93c-0.5,0-.94-0.32-1.44-0.32a1,1,0,0,0-.79.5c-1.4,2.05-1,4.72-2,6.95a1.86,1.86,0,0,1-1.73,1.12,1.59,1.59,0,0,1-1.62-1.26c-0.4-1.48-.79-2.88-1.26-4.32s-2.05-3.28-2.05-4.9a1.57,1.57,0,0,1,1.69-1.69,2,2,0,0,1,1.08.32,3.76,3.76,0,0,1,1.87,3c0.07,0.4.11,0.83,0.22,1.22a0.23,0.23,0,0,0,.22.22,0.43,0.43,0,0,0,.32-0.32c0.94-1.8,0-3.78,2.77-4.43a5.84,5.84,0,0,1,1.12-.11c1.33,0,3,.61,3,2.16A1.64,1.64,0,0,1,1914.26,11678.93Z" transform="translate(-1818.14 -11353.32)"/><path class="cls-2" d="M1921.71,11670.54a4.2,4.2,0,0,1-4.72-2.23,1.36,1.36,0,0,1-.25-0.76,1.56,1.56,0,0,1,1.76-1.3c1.22,0,4.75,1.08,4.75,2.59A2,2,0,0,1,1921.71,11670.54Zm0.58,17.31a2,2,0,0,1-1.48-.5,6.88,6.88,0,0,1-2.05-4.32c-0.11-1.84-.11-3.64-0.11-5.47v-2.45a1.17,1.17,0,0,1,1.26-1.3,2.46,2.46,0,0,1,2.45,2.2c0,1.58-.47,3.13-0.47,4.68,0,3.42,2.77,4.86,2.77,5.87S1923,11687.85,1922.28,11687.85Z" transform="translate(-1818.14 -11353.32)"/><path class="cls-2" d="M1944.13,11688.25c-1.4,1-4.36,1.4-6,1.4a12.5,12.5,0,0,1-4-.58c-2.84-.9-6.62-2.56-6.62-6a8.8,8.8,0,0,1,.07-1c0.54-3.56,2.63-5.18,5.51-7a11,11,0,0,1,5.72-2c2.12,0,5,1.08,5,3.6a3.77,3.77,0,0,1-1.15,2.63c-2.12,2.09-4.43,2-6.95,3.09a7.9,7.9,0,0,1-3,.72,2,2,0,0,1-1.44-.47c-0.14-.14-0.29-0.11-0.29.14,0,2.23,3.13,3,4.86,3.46a12.68,12.68,0,0,0,3.31.47,25.09,25.09,0,0,0,4-.47c0.11,0,.22,0,0.29,0a1.12,1.12,0,0,1,1.15,1.19A1,1,0,0,1,1944.13,11688.25Zm-4.5-12.09a9,9,0,0,0-1.37.22,13.65,13.65,0,0,0-6.66,3.46c-0.22.32-.07,0.4,0.32,0.22,1.19-.4,2.38-0.58,3.64-0.86,0.9-.18,4.68-1.3,4.68-2.38A0.62,0.62,0,0,0,1939.63,11676.16Z" transform="translate(-1818.14 -11353.32)"/><path class="cls-2" d="M1958.61,11676.16a2.8,2.8,0,0,1-2.38,1.62c-1.15,0-.54-1.73-1.15-1.73-0.22,0-1.94,1-2.66,1.3a0.42,0.42,0,0,0-.32.36,0.37,0.37,0,0,0,.14.25c0.5,0.54,1,1,1.55,1.51a42,42,0,0,1,3.67,3.92,3.35,3.35,0,0,1,.72,2,2.88,2.88,0,0,1-1,2.2,12.68,12.68,0,0,1-6.77,2.45,3,3,0,0,1-1.58-.36,2.28,2.28,0,0,1-1.22-1.84,1.55,1.55,0,0,1,1.62-1.51c0.65,0,1.22.4,1.91,0.4s3-.61,3-1.44a2.88,2.88,0,0,0-.65-1.22,15.49,15.49,0,0,0-4.14-3.67,3.58,3.58,0,0,1-1.76-3.13,2.46,2.46,0,0,1,1.55-2.41c1.66-.79,4.68-2.56,6.44-2.56a2.43,2.43,0,0,1,.5,0c1.48,0.4,2.66,1.19,2.66,2.84A4.47,4.47,0,0,1,1958.61,11676.16Z" transform="translate(-1818.14 -11353.32)"/><path class="cls-3" d="M1931,11780.2l-49,7.74-54.36,2-7,2.71,47.88,36.89,51.57-8.47s5.38,1.37,9,.74a13.13,13.13,0,0,0,6.26-2.58l43.84-4.6-46.23-31.86Z" transform="translate(-1818.14 -11353.32)"/><path class="cls-4" d="M1881.29,11780.51l45.65,31.14s-3.13-3.35-19.52-1.84c-11.52,1.06-37.66,7-37.66,7l-43.7-31.93a228.54,228.54,0,0,1,25.89-5.46c18.09-2.57,29.35,1.1,29.35,1.1" transform="translate(-1818.14 -11353.32)"/><path class="cls-5" d="M1881.63,11780.7l43.65,31.32s6.42-3.26,22-5.36a238.21,238.21,0,0,1,26.06-1.46l-47-30.2s-18.31-.52-31.31.92a31.36,31.36,0,0,0-13.47,4.55" transform="translate(-1818.14 -11353.32)"/><path class="cls-2" d="M1924.73,11811.66s1.66,1.11,4.05,2.95a13.6,13.6,0,0,1,2.95,3.87,67.44,67.44,0,0,1,9.95-2.76c9.39-1.66,31.86-2.95,31.86-2.95l-0.33-7.63s-16.2-.05-25.82.82C1928.85,11807.63,1924.73,11811.66,1924.73,11811.66Z" transform="translate(-1818.14 -11353.32)"/><path class="cls-2" d="M1925.1,11811.47a24.34,24.34,0,0,0-2,3.32,12.11,12.11,0,0,0-.74,4.6s-0.37-.92-13.45.18-39.23,6.45-39.23,6.45l0.09-9.22s21.31-6.23,36.93-7.54S1925.1,11811.47,1925.1,11811.47Z" transform="translate(-1818.14 -11353.32)"/><polygon class="cls-6" points="7.87 431.45 7.69 439.5 51.52 472.7 51.62 463.48 7.87 431.45"/></svg>