<svg id="Layer_1" data-name="Layer 1" xmlns="http://www.w3.org/2000/svg" viewBox="0 0 88.97 73.21"><defs><style>.cls-1{fill:#c53a43;}</style></defs><title>MyDeckerGrid-text</title><path class="cls-1" d="M43.08,862a2,2,0,0,1-1.28-.86,9.78,9.78,0,0,1-1.48-3.79c-0.11-.54-0.68-3.45-0.94-4.42-0.11-.46-0.17-0.6-0.29-0.6a0.47,0.47,0,0,0-.31.4c-0.43,1-2.25,4.14-3.94,4.14-1,0-1.94-1.57-2.65-2.51a0.46,0.46,0,0,0-.31-0.26,0.4,0.4,0,0,0-.14.43v0.6c0,1.17.11,2.31,0.11,3.45a4.8,4.8,0,0,1-.23,1.68,1.74,1.74,0,0,1-1.54,1.08,0.93,0.93,0,0,1-.88-1.08c0-1.68.06-3.34,0.06-5a40,40,0,0,0-.66-7.16,5.69,5.69,0,0,1-.17-1.14,0.91,0.91,0,0,1,1-.94,1.47,1.47,0,0,1,1.31.66c0.29,0.57.51,1.17,0.8,1.71a15.79,15.79,0,0,0,3.25,4.71,1,1,0,0,0,.57.37,0.76,0.76,0,0,0,.54-0.43c1-1.54,1.45-3.45,2.57-5a1.31,1.31,0,0,1,1.11-.6A1.46,1.46,0,0,1,41,848.58c0.83,2.34,1.31,4.82,1.91,7.24,0.34,1.4.77,2.74,1.23,4.08a1.29,1.29,0,0,1,.09.46C44.2,861,43.85,862,43.08,862Z" transform="translate(-28.23 -846.05)"/><path class="cls-1" d="M58.2,853.66c-1,2.05-2.14,4-3.28,5.85a57.89,57.89,0,0,0-4.08,7.59,1.77,1.77,0,0,1-1.4.88,0.74,0.74,0,0,1-.86-0.77,1.54,1.54,0,0,1,0-.31,22.24,22.24,0,0,1,2.79-6.13c0.26-.46.51-0.94,0.83-1.48s0.34-.54,0-0.8c-2.77-1.88-5.3-4-6.5-6.84a2.28,2.28,0,0,1-.14-0.46,1.76,1.76,0,0,1,1.54-1.54,1.22,1.22,0,0,1,1,.57,27.83,27.83,0,0,0,5.25,5.73c0.34,0.26.54,0.4,0.83,0.06a14.31,14.31,0,0,0,1.94-4.16,1.19,1.19,0,0,1,1.08-1,1.7,1.7,0,0,1,1.54,1.48A3.59,3.59,0,0,1,58.2,853.66Z" transform="translate(-28.23 -846.05)"/><path class="cls-1" d="M35.56,891.73a3,3,0,0,1-1.91.6c-1.14,0-2.77-.48-2.77-1.85v-1c0-2.6-.29-5.19-0.4-7.79-0.09-2.28-.77-3.42-1.74-5.39a4.51,4.51,0,0,1-.48-1.91,2.11,2.11,0,0,1,1.48-2.2,11.17,11.17,0,0,1,3.22-.48,10.45,10.45,0,0,1,5.59,1.91,8,8,0,0,1,4.19,7C42.74,885.4,39.12,889,35.56,891.73Zm3.74-14.15a9.34,9.34,0,0,0-5.53-3.05,3.29,3.29,0,0,0-.74-0.09,0.42,0.42,0,0,0-.51.51,2.16,2.16,0,0,0,0,.43,119.15,119.15,0,0,1,.8,13.15,1,1,0,0,0,1.06.71,1.1,1.1,0,0,0,.57-0.17c2.11-1.31,3.62-3.59,4.88-5.68a5.24,5.24,0,0,0,.6-2.57A4.69,4.69,0,0,0,39.29,877.59Z" transform="translate(-28.23 -846.05)"/><path class="cls-1" d="M58.85,889.82c-1.11.83-3.45,1.11-4.79,1.11a9.9,9.9,0,0,1-3.17-.46c-2.25-.71-5.25-2-5.25-4.79a7,7,0,0,1,.06-0.8c0.43-2.82,2.08-4.11,4.36-5.56a8.71,8.71,0,0,1,4.53-1.6c1.68,0,4,.86,4,2.85a3,3,0,0,1-.91,2.08c-1.68,1.65-3.51,1.57-5.5,2.45a6.27,6.27,0,0,1-2.37.57,1.62,1.62,0,0,1-1.14-.37c-0.11-.11-0.23-0.09-0.23.11,0,1.77,2.48,2.4,3.85,2.74a10,10,0,0,0,2.62.37,20,20,0,0,0,3.17-.37c0.09,0,.17,0,0.23,0a0.89,0.89,0,0,1,.91.94A0.81,0.81,0,0,1,58.85,889.82Zm-3.56-9.58a7.14,7.14,0,0,0-1.08.17,10.82,10.82,0,0,0-5.28,2.74c-0.17.26-.06,0.31,0.26,0.17,0.94-.31,1.88-0.46,2.88-0.68,0.71-.14,3.71-1,3.71-1.88A0.49,0.49,0,0,0,55.29,880.24Z" transform="translate(-28.23 -846.05)"/><path class="cls-1" d="M74.82,881.55a1.4,1.4,0,0,1-1.25-1,0.71,0.71,0,0,0-.77-0.37c-1.45,0-4.39,1.25-5.76,1.88s-2.25,1.25-2.6,2.74a0.49,0.49,0,0,0,0,.2c0,1.51,2.79,2.82,4,3.08a5.72,5.72,0,0,0,1.2.14c1.17,0,2.17-.71,3.34-0.71a1,1,0,0,1,1.11.91,1.31,1.31,0,0,1-1,1.06,10.11,10.11,0,0,1-4,1.11,5.4,5.4,0,0,1-1.34-.17c-2.85-.74-5.87-2.28-5.87-5.65v-0.34c0.26-3.25,3.42-4.31,6-5.28a23.38,23.38,0,0,1,5.73-1.23,2,2,0,0,1,.4,0,1.83,1.83,0,0,1,2,1.85C76,880.49,75.74,881.55,74.82,881.55Z" transform="translate(-28.23 -846.05)"/><path class="cls-1" d="M89.28,888.11a7.55,7.55,0,0,1-1.8.2,19.65,19.65,0,0,1-4.45-.77,3.11,3.11,0,0,0-.74-0.14,0.29,0.29,0,0,0-.34.31c0,0.68,1,1.85,1,2.37s-0.71.66-1.11,0.66a2,2,0,0,1-1.83-.86,21.18,21.18,0,0,1-1.65-6.33c-0.17-2.11-.17-4.25-0.4-6.36a8.54,8.54,0,0,0-1.57-4.59,1.06,1.06,0,0,1-.26-0.77A1.78,1.78,0,0,1,77.7,870a1.49,1.49,0,0,1,.83.26c2.22,1.28,1.6,4,1.94,6.19a23.08,23.08,0,0,1,.23,2.79,17.13,17.13,0,0,0,.11,2.11c0,0.17.06,0.37,0.29,0.37a0.64,0.64,0,0,0,.46-0.23c1.11-1,3.37-3.51,5-3.51a1.45,1.45,0,0,1,1.45,1.6c0,0.68-.34,1.63-1.14,1.63-0.23,0-.4-0.09-0.63-0.09-0.68,0-2.57,1.94-3.19,2.45-0.23.17-.29,0.37-0.09,0.48a15.92,15.92,0,0,0,6,1.71,1,1,0,0,1,1.08,1.06A1.29,1.29,0,0,1,89.28,888.11Z" transform="translate(-28.23 -846.05)"/><path class="cls-1" d="M105.34,889.82c-1.11.83-3.45,1.11-4.79,1.11a9.9,9.9,0,0,1-3.17-.46c-2.25-.71-5.25-2-5.25-4.79a7,7,0,0,1,.06-0.8c0.43-2.82,2.08-4.11,4.36-5.56a8.71,8.71,0,0,1,4.53-1.6c1.68,0,4,.86,4,2.85a3,3,0,0,1-.91,2.08c-1.68,1.65-3.51,1.57-5.5,2.45a6.27,6.27,0,0,1-2.37.57,1.62,1.62,0,0,1-1.14-.37c-0.11-.11-0.23-0.09-0.23.11,0,1.77,2.48,2.4,3.85,2.74a10.05,10.05,0,0,0,2.62.37,20,20,0,0,0,3.17-.37c0.09,0,.17,0,0.23,0a0.89,0.89,0,0,1,.91.94A0.81,0.81,0,0,1,105.34,889.82Zm-3.56-9.58a7.14,7.14,0,0,0-1.08.17,10.82,10.82,0,0,0-5.28,2.74c-0.17.26-.06,0.31,0.26,0.17,0.94-.31,1.88-0.46,2.88-0.68,0.71-.14,3.71-1,3.71-1.88A0.49,0.49,0,0,0,101.77,880.24Z" transform="translate(-28.23 -846.05)"/><path class="cls-1" d="M116.12,882.43c-0.4,0-.74-0.26-1.14-0.26a0.77,0.77,0,0,0-.63.4c-1.11,1.63-.83,3.74-1.6,5.5a1.47,1.47,0,0,1-1.37.88,1.26,1.26,0,0,1-1.28-1c-0.31-1.17-.63-2.28-1-3.42s-1.63-2.6-1.63-3.88a1.24,1.24,0,0,1,1.34-1.34,1.58,1.58,0,0,1,.86.26,3,3,0,0,1,1.48,2.4c0.06,0.31.09,0.66,0.17,1a0.18,0.18,0,0,0,.17.17,0.34,0.34,0,0,0,.26-0.26c0.74-1.43,0-3,2.2-3.51a4.63,4.63,0,0,1,.88-0.09c1.06,0,2.37.48,2.37,1.71A1.3,1.3,0,0,1,116.12,882.43Z" transform="translate(-28.23 -846.05)"/><path class="cls-1" d="M43.91,915.26c-1.85,2.45-3.91,4-7.1,4-3.59,0-8.58-2.28-8.58-6.42,0-5,5.45-9.67,9.53-11.69a4.63,4.63,0,0,1,2.05-.48c1.11,0,2.71.6,2.71,1.94A1.54,1.54,0,0,1,41,904c-1,0-.51-1-1-1a1.67,1.67,0,0,0-.54.11,14.31,14.31,0,0,0-6.9,4.71A6.75,6.75,0,0,0,30.85,912a5.1,5.1,0,0,0,5,4.91A9.58,9.58,0,0,0,42,914.26a1.69,1.69,0,0,0,.51-0.83c0-.6-2.17-0.74-2.62-0.74-0.66,0-1.31.11-1.94,0.11a1.43,1.43,0,0,1-1.48-1.37,1.34,1.34,0,0,1,1.57-1.2l1.83,0c1.83,0,4.73.57,4.73,2.94A3.55,3.55,0,0,1,43.91,915.26Z" transform="translate(-28.23 -846.05)"/><path class="cls-1" d="M54.92,911c-0.4,0-.74-0.26-1.14-0.26a0.77,0.77,0,0,0-.63.4c-1.11,1.63-.83,3.74-1.6,5.5a1.47,1.47,0,0,1-1.37.88,1.26,1.26,0,0,1-1.28-1c-0.31-1.17-.63-2.28-1-3.42s-1.63-2.6-1.63-3.88a1.24,1.24,0,0,1,1.34-1.34,1.58,1.58,0,0,1,.86.26A3,3,0,0,1,50,910.5c0.06,0.31.09,0.66,0.17,1a0.18,0.18,0,0,0,.17.17,0.34,0.34,0,0,0,.26-0.26c0.74-1.43,0-3,2.2-3.51a4.64,4.64,0,0,1,.88-0.09c1.06,0,2.37.48,2.37,1.71A1.3,1.3,0,0,1,54.92,911Z" transform="translate(-28.23 -846.05)"/><path class="cls-1" d="M60.82,904.31a3.54,3.54,0,0,1-.77.09,3.49,3.49,0,0,1-3-1.85,1.08,1.08,0,0,1-.2-0.6,1.24,1.24,0,0,1,1.4-1c1,0,3.76.86,3.76,2.05A1.61,1.61,0,0,1,60.82,904.31ZM61.28,918a1.59,1.59,0,0,1-1.17-.4,5.45,5.45,0,0,1-1.63-3.42c-0.09-1.45-.09-2.88-0.09-4.33v-1.94a0.92,0.92,0,0,1,1-1,2,2,0,0,1,1.94,1.74c0,1.25-.37,2.48-0.37,3.71,0,2.71,2.2,3.85,2.2,4.65S61.88,918,61.28,918Z" transform="translate(-28.23 -846.05)"/><path class="cls-1" d="M79.76,917.6c-1.34,0-2.14-1.23-2.6-2.34a13,13,0,0,0-.77-1.83,0.59,0.59,0,0,0-.54-0.29,0.46,0.46,0,0,0-.4.2c-0.26.34-.48,0.77-0.74,1.11a9.17,9.17,0,0,1-3.88,3.34,6.73,6.73,0,0,1-2.65.66,2.8,2.8,0,0,1-3.05-2.62,2.52,2.52,0,0,1,.51-1.48c2.2-2.82,5.42-4.51,8.5-6.25a0.9,0.9,0,0,0,.57-0.54,28.83,28.83,0,0,0-.63-4.93v-0.2a1,1,0,0,1,1.06-.94,1.28,1.28,0,0,1,.88.34,5.59,5.59,0,0,1,2,4.11c0.09,2.74.17,8.27,2.94,9.7a1.09,1.09,0,0,1,.77.8C81.73,917.2,80.38,917.6,79.76,917.6Zm-5.39-6.93a0.41,0.41,0,0,0-.17.06c-1.91,1.06-4.76,2.65-6.13,4.36a0.57,0.57,0,0,0-.11.37,0.56,0.56,0,0,0,.66.57,2.5,2.5,0,0,0,.77-0.17,12.19,12.19,0,0,0,4.39-3.79,3.06,3.06,0,0,0,.83-1.2A0.2,0.2,0,0,0,74.37,910.67Z" transform="translate(-28.23 -846.05)"/><path class="cls-1" d="M90.39,901.88a1,1,0,0,0-.43.74,3.07,3.07,0,0,0,.2.88,6.19,6.19,0,0,1,.31,2.05c0,0.4-.06,2-0.68,2-1,0-1.08-1.23-1.17-2s-0.37-2.88-1.37-2.88-1.8.54-2.74,0.54a1.82,1.82,0,0,1-1.43-1.48,0.71,0.71,0,0,1,.68-0.63c0.63-.14,1.31-0.2,2-0.31a22.78,22.78,0,0,0,2.42-.48,41.73,41.73,0,0,0,4.19-1.25,0.84,0.84,0,0,1,.29-0.06,1.81,1.81,0,0,1,1.54,1.54C94.19,901.88,91.16,901.17,90.39,901.88Zm11.66,3.71c-1.28,0-1.4-2.62-1.74-2.62s-1.25,1.43-2,1.43-1.43-1-1.85-1.4a0.76,0.76,0,0,1-.14-0.17s0,0,0,0c-0.31.68-.48,2.4-1,3a0.84,0.84,0,0,1-.66.26,1.44,1.44,0,0,1-1.51-1.2c0-.77,1.65-2.25,1.65-3.65,0-.29-0.06-0.57-0.06-0.86a1.09,1.09,0,0,1,.88-0.94,2.2,2.2,0,0,1,.83-0.29c0.8,0,1.4,2.62,2.2,2.62a0.61,0.61,0,0,0,.51-0.54c0-.2-0.06-0.43-0.06-0.63a1.91,1.91,0,0,1,1.57-1.6,0.75,0.75,0,0,1,.66.43c0.63,1.11.74,2.51,1.34,3.68a3,3,0,0,1,.31,1.23A1.08,1.08,0,0,1,102.06,905.59Z" transform="translate(-28.23 -846.05)"/></svg>