<svg id="Main_screen" data-name="Main screen" xmlns="http://www.w3.org/2000/svg" viewBox="0 0 173.53 115.25"><defs><style>.cls-1{fill:#6c6c6c;}.cls-2{fill:#badff6;}</style></defs><title>Help_Dropdown_rollovers</title><rect class="cls-1" y="12.31" width="173.53" height="102.94"/><path class="cls-2" d="M275.45,318.76h-0.28c-4.92,0-8.87,2.94-9,6.68,0,0,0,.09,0,0.13a6.58,6.58,0,0,0,3.55,5.5c-0.15.27-.41,0.67-0.73,1.16-0.22.34-.43,0.67-0.61,1l-0.06.12a1.87,1.87,0,0,0-.28.83,0.87,0.87,0,0,0,.61.9h0.05l0.22,0h0a2.66,2.66,0,0,0,1.12-.4l0.21-.11c0.47-.26,1-0.6,1.57-0.93l0.78-.47c0.4-.24.74-0.44,1-0.57l0.32-.14h0c0.39,0,.78.08,1.19,0.09h0.27c4.92,0,8.87-2.94,9-6.69,0,0,0-.08,0-0.13C284.36,321.94,280.43,318.87,275.45,318.76Zm-4.41,13,0.05-.1a2,2,0,0,0,.3-0.88,0.88,0.88,0,0,0-.48-0.82c-2-1-3.23-2.7-3.22-4.44v-0.08c0-2.88,3.38-5.23,7.48-5.23h0.23c4.09,0.09,7.52,2.59,7.49,5.47v0.09c0,2.88-3.39,5.22-7.48,5.22h-0.24a10.7,10.7,0,0,1-1.09-.08,0.78,0.78,0,0,0-.18,0,2.5,2.5,0,0,0-1.07.38l-0.24.13c-0.44.24-1,.56-1.48,0.88l-0.64.39C270.68,332.42,270.88,332.1,271,331.81Z" transform="translate(-245.39 -241.51)"/><path class="cls-2" d="M290.9,325.75l-0.06-.11c-0.14-.25-0.33-0.53-0.51-0.82s-0.46-.71-0.59-0.94a5.6,5.6,0,0,0,3-4.66s0-.07,0-0.1c-0.1-3.19-3.45-5.69-7.63-5.69h-0.23c-3.37.07-6.28,1.77-7.26,4.21l-0.13.32,0.34,0c0.28,0,.55.08,0.81,0.13l0.21,0,0.09-.19c0.86-1.86,3.26-3.14,6-3.2h0.19c3.44,0,6.25,2,6.28,4.38v0.07a4.39,4.39,0,0,1-2.7,3.71,0.78,0.78,0,0,0-.43.73,1.7,1.7,0,0,0,.25.77l0,0.09c0.11,0.19.24,0.41,0.38,0.62l-0.43-.26c-0.43-.26-0.85-0.52-1.22-0.73l-0.19-.1a2.16,2.16,0,0,0-.94-0.33H286l-0.28,0-0.44,0,0.06,0.39c0,0.1,0,.2,0,0.3l0,0.12,0,0.55,0.3,0,0.41,0h0l0.26,0.12c0.23,0.12.52,0.29,0.84,0.48l0.66,0.4c0.46,0.28.93,0.57,1.33,0.79l0.17,0.09a2.28,2.28,0,0,0,1,.34h0l0.17,0h0.05a0.78,0.78,0,0,0,.57-0.78A1.68,1.68,0,0,0,290.9,325.75Z" transform="translate(-245.39 -241.51)"/><polygon class="cls-1" points="145.99 0 133.08 15.83 158.63 15.83 145.99 0"/><path class="cls-2" d="M275.17,279.23a5.17,5.17,0,0,1,1.08-1.72,4.86,4.86,0,0,1,1.67-1.13,5.65,5.65,0,0,1,2.19-.41,6.9,6.9,0,0,1,2.61.43,5.06,5.06,0,0,1,1.68,1.07,3.86,3.86,0,0,1,.91,1.38,4,4,0,0,1,.27,1.38,4.69,4.69,0,0,1-.27,1.74,4.28,4.28,0,0,1-.68,1.17,4.54,4.54,0,0,1-.9.83q-0.5.34-.94,0.68a4.38,4.38,0,0,0-.78.78,2.24,2.24,0,0,0-.43,1.1v0.84h-3v-1a4.51,4.51,0,0,1,.36-1.58,4.57,4.57,0,0,1,.69-1.09,5.54,5.54,0,0,1,.84-0.78q0.44-.33.81-0.66a3,3,0,0,0,.61-0.73,1.81,1.81,0,0,0,.21-1,2,2,0,0,0-.5-1.5,1.88,1.88,0,0,0-1.37-.48,2.12,2.12,0,0,0-1,.23,2,2,0,0,0-.7.62,2.68,2.68,0,0,0-.41.9,4.48,4.48,0,0,0-.13,1.11h-3.23A6.27,6.27,0,0,1,275.17,279.23Zm6.59,9.44v3.39h-3.45v-3.39h3.45Z" transform="translate(-245.39 -241.51)"/><path class="cls-2" d="M311.88,288.34h-1.07v-3.59h-4.25v3.59h-1.07v-7.88h1.07V284h4.25v-3.51h1.07v7.88Z" transform="translate(-245.39 -241.51)"/><path class="cls-2" d="M319.51,280.46v0.87h-3.78v2.62h3.06v0.84h-3.06v2.69h3.78v0.87h-4.86v-7.88h4.86Z" transform="translate(-245.39 -241.51)"/><path class="cls-2" d="M322.75,287.44h3.41v0.9h-4.48v-7.88h1.07v7Z" transform="translate(-245.39 -241.51)"/><path class="cls-2" d="M329.25,285.39v2.95h-1.06v-7.88h2.33a4.36,4.36,0,0,1,1.3.17,2.49,2.49,0,0,1,.92.49,2,2,0,0,1,.54.77,2.71,2.71,0,0,1,.18,1,2.57,2.57,0,0,1-.19,1,2.17,2.17,0,0,1-.56.79,2.61,2.61,0,0,1-.92.51,4,4,0,0,1-1.26.18h-1.27Zm0-.85h1.27a2.46,2.46,0,0,0,.81-0.12,1.65,1.65,0,0,0,.59-0.34,1.41,1.41,0,0,0,.36-0.52,1.78,1.78,0,0,0,.12-0.67,1.51,1.51,0,0,0-.46-1.18,2,2,0,0,0-1.41-.42h-1.27v3.25Z" transform="translate(-245.39 -241.51)"/><path class="cls-2" d="M311,326.21a0.22,0.22,0,0,1,.16.07l0.42,0.46a3.37,3.37,0,0,1-1.17.87,4,4,0,0,1-1.66.31,3.92,3.92,0,0,1-1.55-.29,3.39,3.39,0,0,1-1.18-.83,3.73,3.73,0,0,1-.76-1.27,4.75,4.75,0,0,1-.27-1.63,4.47,4.47,0,0,1,.29-1.63,3.73,3.73,0,0,1,.81-1.28,3.63,3.63,0,0,1,1.25-.83,4.26,4.26,0,0,1,1.61-.29,3.59,3.59,0,0,1,2.62,1l-0.35.49-0.09.09a0.24,0.24,0,0,1-.14,0,0.28,0.28,0,0,1-.15-0.05l-0.19-.13-0.26-.17a2.27,2.27,0,0,0-.35-0.16,2.85,2.85,0,0,0-.47-0.13,3.3,3.3,0,0,0-.62-0.05,3,3,0,0,0-1.16.22,2.58,2.58,0,0,0-.9.62,2.81,2.81,0,0,0-.59,1,3.73,3.73,0,0,0-.21,1.29,3.8,3.8,0,0,0,.21,1.31,2.9,2.9,0,0,0,.58,1,2.43,2.43,0,0,0,.87.61,2.77,2.77,0,0,0,1.08.21,4.4,4.4,0,0,0,.63,0,2.63,2.63,0,0,0,.52-0.13,2.18,2.18,0,0,0,.45-0.22,3.51,3.51,0,0,0,.42-0.32A0.28,0.28,0,0,1,311,326.21Z" transform="translate(-245.39 -241.51)"/><path class="cls-2" d="M320.89,323.9a4.55,4.55,0,0,1-.28,1.63,3.72,3.72,0,0,1-.79,1.27,3.53,3.53,0,0,1-1.23.83,4.41,4.41,0,0,1-3.17,0,3.53,3.53,0,0,1-1.23-.83,3.71,3.71,0,0,1-.79-1.27,4.84,4.84,0,0,1,0-3.25,3.75,3.75,0,0,1,.79-1.28,3.55,3.55,0,0,1,1.23-.83,4.37,4.37,0,0,1,3.17,0,3.55,3.55,0,0,1,1.23.83,3.76,3.76,0,0,1,.79,1.28A4.55,4.55,0,0,1,320.89,323.9Zm-1.09,0a4,4,0,0,0-.2-1.3,2.76,2.76,0,0,0-.56-1,2.43,2.43,0,0,0-.88-0.61,3.2,3.2,0,0,0-2.3,0,2.46,2.46,0,0,0-.88.61,2.73,2.73,0,0,0-.56,1,4.39,4.39,0,0,0,0,2.6,2.73,2.73,0,0,0,.56,1,2.43,2.43,0,0,0,.88.61,3.24,3.24,0,0,0,2.3,0,2.4,2.4,0,0,0,.88-0.61,2.76,2.76,0,0,0,.56-1A4,4,0,0,0,319.8,323.9Z" transform="translate(-245.39 -241.51)"/><path class="cls-2" d="M324,320a0.55,0.55,0,0,1,.16.15l4.56,5.94c0-.1,0-0.19,0-0.28s0-.18,0-0.26V320h0.94v7.88h-0.54a0.46,0.46,0,0,1-.21,0,0.54,0.54,0,0,1-.17-0.15l-4.56-5.93c0,0.09,0,.18,0,0.27s0,0.17,0,.24v5.62H323.2V320h0.55A0.48,0.48,0,0,1,324,320Z" transform="translate(-245.39 -241.51)"/><path class="cls-2" d="M337.71,320v0.9h-2.55v7h-1.07v-7h-2.56V320h6.17Z" transform="translate(-245.39 -241.51)"/><path class="cls-2" d="M345.32,327.84h-0.82a0.36,0.36,0,0,1-.23-0.07,0.44,0.44,0,0,1-.13-0.18l-0.74-1.9h-3.54l-0.74,1.9a0.43,0.43,0,0,1-.13.18,0.35,0.35,0,0,1-.23.08h-0.82l3.15-7.88h1.08Zm-5.16-2.93h2.94l-1.24-3.21a6,6,0,0,1-.24-0.74l-0.12.42q-0.06.19-.11,0.33Z" transform="translate(-245.39 -241.51)"/><path class="cls-2" d="M352.44,326.21a0.22,0.22,0,0,1,.16.07l0.42,0.46a3.37,3.37,0,0,1-1.17.87,4,4,0,0,1-1.66.31,3.92,3.92,0,0,1-1.55-.29,3.39,3.39,0,0,1-1.18-.83,3.73,3.73,0,0,1-.76-1.27,4.75,4.75,0,0,1-.27-1.63,4.47,4.47,0,0,1,.29-1.63,3.73,3.73,0,0,1,.81-1.28,3.63,3.63,0,0,1,1.25-.83,4.26,4.26,0,0,1,1.61-.29,3.59,3.59,0,0,1,2.62,1l-0.35.49-0.09.09a0.24,0.24,0,0,1-.14,0,0.28,0.28,0,0,1-.15-0.05l-0.19-.13-0.26-.17a2.27,2.27,0,0,0-.35-0.16,2.85,2.85,0,0,0-.47-0.13,3.3,3.3,0,0,0-.62-0.05,3,3,0,0,0-1.16.22,2.58,2.58,0,0,0-.9.62,2.81,2.81,0,0,0-.59,1,3.73,3.73,0,0,0-.21,1.29,3.8,3.8,0,0,0,.21,1.31,2.9,2.9,0,0,0,.58,1,2.43,2.43,0,0,0,.87.61,2.77,2.77,0,0,0,1.08.21,4.4,4.4,0,0,0,.63,0,2.63,2.63,0,0,0,.52-0.13,2.18,2.18,0,0,0,.45-0.22,3.51,3.51,0,0,0,.42-0.32A0.28,0.28,0,0,1,352.44,326.21Z" transform="translate(-245.39 -241.51)"/><path class="cls-2" d="M360.85,320v0.9H358.3v7h-1.07v-7h-2.56V320h6.17Z" transform="translate(-245.39 -241.51)"/><path class="cls-2" d="M368.81,327a2.2,2.2,0,0,0,.87-0.17,1.84,1.84,0,0,0,.65-0.46,2,2,0,0,0,.41-0.71,2.8,2.8,0,0,0,.14-0.91V320h1.06v4.79a3.6,3.6,0,0,1-.22,1.26,2.94,2.94,0,0,1-.62,1,2.84,2.84,0,0,1-1,.67,3.67,3.67,0,0,1-2.62,0,2.86,2.86,0,0,1-1-.67,2.92,2.92,0,0,1-.62-1,3.59,3.59,0,0,1-.22-1.26V320h1.06v4.78a2.81,2.81,0,0,0,.14.91,2,2,0,0,0,.41.71,1.86,1.86,0,0,0,.65.46A2.19,2.19,0,0,0,368.81,327Z" transform="translate(-245.39 -241.51)"/><path class="cls-2" d="M378.59,321.19a0.43,0.43,0,0,1-.1.12,0.23,0.23,0,0,1-.14,0,0.38,0.38,0,0,1-.22-0.09l-0.31-.21a2.56,2.56,0,0,0-.46-0.21,2,2,0,0,0-.65-0.09,1.91,1.91,0,0,0-.63.1,1.35,1.35,0,0,0-.46.26,1.07,1.07,0,0,0-.28.39,1.23,1.23,0,0,0-.09.48,0.89,0.89,0,0,0,.16.55,1.4,1.4,0,0,0,.43.37,3.29,3.29,0,0,0,.6.27l0.69,0.23q0.36,0.12.69,0.27a2.45,2.45,0,0,1,.6.38,1.74,1.74,0,0,1,.43.57,1.88,1.88,0,0,1,.16.82,2.66,2.66,0,0,1-.18,1,2.23,2.23,0,0,1-.51.79,2.41,2.41,0,0,1-.83.53,3.05,3.05,0,0,1-1.12.19,3.41,3.41,0,0,1-1.39-.28,3.27,3.27,0,0,1-1.08-.75l0.31-.51a0.4,0.4,0,0,1,.11-0.1,0.25,0.25,0,0,1,.14,0,0.44,0.44,0,0,1,.26.12,4.36,4.36,0,0,0,.37.27,2.85,2.85,0,0,0,.54.27,2.13,2.13,0,0,0,.77.12,2,2,0,0,0,.68-0.1,1.44,1.44,0,0,0,.5-0.29,1.28,1.28,0,0,0,.32-0.45,1.52,1.52,0,0,0,.11-0.59,1,1,0,0,0-.16-0.59,1.34,1.34,0,0,0-.43-0.38,3,3,0,0,0-.6-0.26l-0.69-.22a6.83,6.83,0,0,1-.69-0.26,2.24,2.24,0,0,1-.6-0.38,1.76,1.76,0,0,1-.43-0.59,2.27,2.27,0,0,1,0-1.69,2.08,2.08,0,0,1,.47-0.69,2.29,2.29,0,0,1,.76-0.48,2.79,2.79,0,0,1,1-.18,3.34,3.34,0,0,1,1.2.21,2.78,2.78,0,0,1,1,.61Z" transform="translate(-245.39 -241.51)"/></svg>