<svg id="Layer_1" data-name="Layer 1" xmlns="http://www.w3.org/2000/svg" viewBox="0 0 44.51 44.51"><defs><style>.cls-1{fill:#c53b43;}.cls-2{fill:#fff;}</style></defs><title>lab-red-circle</title><circle class="cls-1" cx="22.26" cy="22.26" r="22.26"/><path class="cls-2" d="M635.88,514.54H638v8.39h4.64v1.85h-6.75V514.54Z" transform="translate(-626.52 -497.24)"/><path class="cls-2" d="M648.3,514.45h0.18l4.68,10.33H651l-0.48-1.16h-4.16l-0.48,1.16h-2Zm1.42,7.41L649,520.08c-0.3-.72-0.62-1.84-0.62-1.84a18.7,18.7,0,0,1-.6,1.84L647,521.86h2.7Z" transform="translate(-626.52 -497.24)"/><path class="cls-2" d="M654.7,514.54h4a2.69,2.69,0,0,1,3,2.65,1.9,1.9,0,0,1-1.45,1.88,2.45,2.45,0,0,1,2.08,2.54,3.12,3.12,0,0,1-3.43,3.16H654.7V514.54Zm3.74,3.78a1,1,0,0,0,1.13-1,0.92,0.92,0,0,0-1-1h-1.73v1.93h1.63Zm0.32,4.61a1.32,1.32,0,0,0,1.4-1.42,1.36,1.36,0,0,0-1.52-1.4h-1.82v2.82h1.94Z" transform="translate(-626.52 -497.24)"/></svg>