<svg id="Layer_1" data-name="Layer 1" xmlns="http://www.w3.org/2000/svg" viewBox="0 0 49.74 52.5"><defs><style>.cls-1{fill:#fff;}.cls-2{fill:#2e8bbd;}.cls-3{fill:#fe961c;}</style></defs><title>checkbox-true</title><rect class="cls-1" width="49.74" height="52.5"/><path class="cls-2" d="M435.46,551.06V575h-23.9v-23.9h23.9m1-1h-25.9V576h25.9v-25.9h0Z" transform="translate(-403.72 -529.61)"/><path class="cls-3" d="M407.73,554.45a3.48,3.48,0,0,0-.67,4.41L418,570.57a3.09,3.09,0,0,0,2.3,1h0.08a3,3,0,0,0,2.32-1.12s23.3-25.66,25-27.64c1.48-1.68,2.85-5,.59-6.72s-5-.47-6.59,1.48c-2.3,2.83-21.6,27.65-21.6,27.65l-7.86-10.53A3.46,3.46,0,0,0,407.73,554.45Z" transform="translate(-403.72 -529.61)"/></svg>