<svg id="Interactive_elements" data-name="Interactive elements" xmlns="http://www.w3.org/2000/svg" viewBox="0 0 462.22 469.98"><defs><style>.cls-1{fill:#e8f3fc;}.cls-2{fill:#6cc5f5;}.cls-3{fill:#2e8bbd;}.cls-4{fill:#14608a;}.cls-15,.cls-16,.cls-17,.cls-18,.cls-5{fill:none;stroke-miterlimit:10;}.cls-5{stroke:#2e8bbd;stroke-width:5.18px;}.cls-6{fill:#e0eef5;}.cls-7{fill:#cbe2ee;}.cls-8{fill:#d5e8f2;}.cls-9{fill:#fe961c;}.cls-10{fill:#ffca00;}.cls-11{fill:#c53a43;}.cls-12{fill:#88252b;}.cls-13{fill:#fff;}.cls-14{fill:#d7731b;}.cls-15{stroke:#fff;opacity:0.6;}.cls-15,.cls-16,.cls-17,.cls-18{stroke-linecap:round;}.cls-15,.cls-16{stroke-width:3.3px;}.cls-16{stroke:#badef5;}.cls-17{stroke:#ffca00;stroke-width:4.22px;}.cls-18{stroke:#f37573;stroke-width:3.79px;}</style></defs><title>to-the-lab</title><circle class="cls-1" cx="205.18" cy="232.25" r="184.05"/><polygon class="cls-2" points="107.66 336.09 97.75 336.09 97.75 353.35 107.66 353.35 107.66 353.34 121.07 361.2 121.11 328.09 107.66 336.09"/><polygon class="cls-2" points="24.86 344.47 18.4 340.29 18.4 355.22 24.86 350.8 24.86 350.81 28.48 350.81 28.48 344.47 24.86 344.47"/><path class="cls-3" d="M3823.05,4437.35a38.8,38.8,0,0,1-25.68-9.68h-10a30.39,30.39,0,0,1-32.11,17.79v31.89a2.72,2.72,0,0,0,2.72,2.72h70.65a2.72,2.72,0,0,0,2.72-2.72v-40.9A39.09,39.09,0,0,1,3823.05,4437.35Z" transform="translate(-3728.57 -4110.61)"/><path class="cls-4" d="M3759.66,4451.27c3.06,0.2,20.89-3.25,28.75-23.55h7.36c6.85,9.32,17.33,15.12,27.28,15.12a29.68,29.68,0,0,0,3.9-.18c1.34-.17,4.4-0.63,4.4-0.63v-5.58a38.92,38.92,0,0,1-34-8.78h-10a30.39,30.39,0,0,1-32.11,17.79v5.45S3756.61,4451.07,3759.66,4451.27Z" transform="translate(-3728.57 -4110.61)"/><path class="cls-3" d="M4080.95,4275.46" transform="translate(-3728.57 -4110.61)"/><path class="cls-4" d="M4123.83,4262.2v7.36s4.87-1.38,4.87-2.09v-3.19C4128.71,4263.5,4123.83,4262.2,4123.83,4262.2Z" transform="translate(-3728.57 -4110.61)"/><path class="cls-4" d="M4067.69,4262.82v6.46s-4.87-1-4.87-1.75v-4.71C4062.81,4262,4067.69,4262.82,4067.69,4262.82Z" transform="translate(-3728.57 -4110.61)"/><ellipse class="cls-2" cx="367.61" cy="224.29" rx="42.88" ry="9.78"/><path class="cls-3" d="M4099.92,4331.37c0,3.41-8.33,3.66-8.33,0v-18.65h8.33v18.65Z" transform="translate(-3728.57 -4110.61)"/><path class="cls-2" d="M4066.34,4263.59v-62.27c0-11.64,13.17-14.22,29.42-14.22s29.42,2.58,29.42,14.22v62.27" transform="translate(-3728.57 -4110.61)"/><path class="cls-2" d="M4066.34,4263.59v-62.27c0-11.64,13.17-14.22,29.42-14.22s29.42,2.58,29.42,14.22v62.27" transform="translate(-3728.57 -4110.61)"/><path class="cls-2" d="M4095.76,4308a29.42,29.42,0,0,0,29.42-29.42v-15.92c0-5.61-13.17-10.19-29.42-10.19s-29.42,4.57-29.42,10.19v15.92A29.42,29.42,0,0,0,4095.76,4308Z" transform="translate(-3728.57 -4110.61)"/><path class="cls-5" d="M4058.81,4257.79v20a36.95,36.95,0,1,0,73.9,0v-20" transform="translate(-3728.57 -4110.61)"/><path class="cls-3" d="M4132.71,4272.54h4a7.38,7.38,0,0,0,0-14.75h-4v14.75Z" transform="translate(-3728.57 -4110.61)"/><path class="cls-3" d="M4058.81,4272.54h-4a7.38,7.38,0,0,1,0-14.75h4v14.75Z" transform="translate(-3728.57 -4110.61)"/><path class="cls-1" d="M4137.49,4175.35a38.35,38.35,0,0,0-10.51-7c-1.55-.68-3.88.36-5.22,2.33s-1.2,4.11.35,4.8h0a33,33,0,0,1,9.36,6.23,33.89,33.89,0,0,1,6.84,9.09c0.77,1.5,2.94,1.5,4.84,0a6.31,6.31,0,0,0,.74-0.67c1.36-1.45,1.93-3.4,1.27-4.68A39.07,39.07,0,0,0,4137.49,4175.35Z" transform="translate(-3728.57 -4110.61)"/><path class="cls-1" d="M4190.73,4177c-3.13-15.07-10-27.64-19.91-37s-22.86-15.43-38.09-17.66c-1.79-.26-4,1.22-5,3.28s-0.36,4,1.42,4.22h0c14.29,2.08,26.39,7.81,35.68,16.56s15.75,20.5,18.67,34.64c0.36,1.77,2.29,2.29,4.32,1.16a6.37,6.37,0,0,0,1.46-1.15A4.93,4.93,0,0,0,4190.73,4177Z" transform="translate(-3728.57 -4110.61)"/><path class="cls-1" d="M4154,4157.82a51.17,51.17,0,0,0-21.3-12c-1.67-.48-4,0.79-5.15,2.82s-0.79,4.06.88,4.54a47.22,47.22,0,0,1,19.55,11,48,48,0,0,1,12.23,19c0.58,1.63,2.64,1.9,4.59.59a6.08,6.08,0,0,0,1.1-.93c1.25-1.33,1.87-3.1,1.41-4.41A52.48,52.48,0,0,0,4154,4157.82Z" transform="translate(-3728.57 -4110.61)"/><path class="cls-6" d="M4137.49,4175.35a38.35,38.35,0,0,0-10.51-7c-1.55-.68-3.88.36-5.22,2.33s-1.2,4.11.35,4.8h0a33,33,0,0,1,9.36,6.23,33.89,33.89,0,0,1,6.84,9.09c0.77,1.5,2.94,1.5,4.84,0a6.31,6.31,0,0,0,.74-0.67c1.36-1.45,1.93-3.4,1.27-4.68A39.07,39.07,0,0,0,4137.49,4175.35Z" transform="translate(-3728.57 -4110.61)"/><path class="cls-7" d="M4190.73,4177c-3.13-15.07-10-27.64-19.91-37s-22.86-15.43-38.09-17.66c-1.79-.26-4,1.22-5,3.28s-0.36,4,1.42,4.22h0c14.29,2.08,26.39,7.81,35.68,16.56s15.75,20.5,18.67,34.64c0.36,1.77,2.29,2.29,4.32,1.16a6.37,6.37,0,0,0,1.46-1.15A4.93,4.93,0,0,0,4190.73,4177Z" transform="translate(-3728.57 -4110.61)"/><path class="cls-8" d="M4154,4157.82a51.17,51.17,0,0,0-21.3-12c-1.67-.48-4,0.79-5.15,2.82s-0.79,4.06.88,4.54a47.22,47.22,0,0,1,19.55,11,48,48,0,0,1,12.23,19c0.58,1.63,2.64,1.9,4.59.59a6.08,6.08,0,0,0,1.1-.93c1.25-1.33,1.87-3.1,1.41-4.41A52.48,52.48,0,0,0,4154,4157.82Z" transform="translate(-3728.57 -4110.61)"/><path class="cls-9" d="M3868.72,4302.94a6.07,6.07,0,0,1-9.36-5.82h0c0.06-.5,5.9-50.26-16-71.48-20-19.38-48.48-13.74-52.66-12.78-4.09,1.18-31.74,10.08-39.82,36.74-4.55,15,1.21,33.15,6.84,45.75a150.92,150.92,0,0,0,13.86,24.51,6.07,6.07,0,0,1-9.81,7.16c-1.36-1.86-33.13-46-22.52-80.94,9.73-32.07,40.82-42.77,47.74-44.79v0l0.47-.12,0.4-.1,0.45-.12v0c7-1.6,39.41-7.34,63.48,16,26.26,25.44,19.89,79.41,19.61,81.7A6.06,6.06,0,0,1,3868.72,4302.94Z" transform="translate(-3728.57 -4110.61)"/><circle class="cls-10" cx="3960.59" cy="4251.96" r="17.51" transform="translate(-5090.64 -2189.9) rotate(-23.38)"/><circle class="cls-11" cx="3943.7" cy="4151.63" r="22.54" transform="translate(-5052.22 -2204.84) rotate(-23.38)"/><circle class="cls-2" cx="3902.32" cy="4127.53" r="16.91" transform="translate(-5046.05 -2223.23) rotate(-23.38)"/><circle class="cls-9" cx="3925.78" cy="4209.09" r="27.6" transform="translate(-5076.49 -2207.23) rotate(-23.38)"/><circle class="cls-12" cx="3993.59" cy="4475.11" r="105.47" transform="translate(-4336.74 -3482.48) rotate(-8.36)"/><rect class="cls-12" x="3935.56" y="4297.19" width="78.24" height="100.04" transform="translate(-4318.34 -3486.59) rotate(-8.36)"/><path class="cls-12" d="M4009.23,4294.11l-82.47,12.12a7.5,7.5,0,0,1-2.18-14.85l82.47-12.12A7.5,7.5,0,0,1,4009.23,4294.11Z" transform="translate(-3728.57 -4110.61)"/><circle class="cls-11" cx="3993.69" cy="4475.49" r="89.96" transform="translate(-4336.79 -3482.46) rotate(-8.36)"/><path class="cls-13" d="M3932.58,4477.58l9.88-1.45,5.78,39.33,21.75-3.2,1.28,8.68-31.63,4.65Z" transform="translate(-3728.57 -4110.61)"/><path class="cls-13" d="M3990.16,4468.68l0.85-.12,29.08,45.21-10.38,1.53-3.06-5.1-19.49,2.86-1.46,5.77-9.53,1.4Zm11.74,33.76-4.68-7.82c-1.91-3.18-4.16-8.19-4.16-8.19a87.87,87.87,0,0,1-1.56,9l-2.24,8.84Z" transform="translate(-3728.57 -4110.61)"/><path class="cls-13" d="M4020.23,4464.7l18.57-2.73c9-1.32,14.81,3.59,15.81,10.37,0.65,4.45-1.51,7.87-5.48,9.82,6.79,0.59,10.62,4.5,11.5,10.5,1.26,8.54-3.89,15.72-13.92,17.19l-19.42,2.85Zm20.11,15.15c3.18-.47,5-2.54,4.63-5.3s-2.43-4.26-5.47-3.81l-8.12,1.19,1.33,9Zm4.66,21.39c4-.59,6.17-3.65,5.59-7.6s-3.58-6.18-8.1-5.52l-8.54,1.26,1.94,13.2Z" transform="translate(-3728.57 -4110.61)"/><path class="cls-13" d="M3942.42,4458.71l-1.38-9.38-2.26.33-0.52-3.51,2.26-.33-0.72-4.9,4.08-.6,0.72,4.9,4.79-.7,0.52,3.51-4.79.7,1.28,8.74a2,2,0,0,0,2.52,1.91,5.55,5.55,0,0,0,2.44-1l0.49,3.34a7.23,7.23,0,0,1-3.54,1.45C3945.32,4463.63,3943,4462.63,3942.42,4458.71Z" transform="translate(-3728.57 -4110.61)"/><path class="cls-13" d="M3953.36,4453.14v-0.07a9.61,9.61,0,0,1,19-2.86v0.07a9.42,9.42,0,0,1-8.19,10.69A9.32,9.32,0,0,1,3953.36,4453.14Zm14.92-2.19v-0.07a5.57,5.57,0,0,0-6.31-4.94,5.41,5.41,0,0,0-4.53,6.46v0.07a5.58,5.58,0,0,0,6.28,4.94A5.43,5.43,0,0,0,3968.28,4450.95Z" transform="translate(-3728.57 -4110.61)"/><path class="cls-13" d="M3987,4452.16l-1.38-9.38-2.26.33-0.52-3.51,2.26-.33-0.72-4.9,4.08-.6,0.72,4.9,4.79-.7,0.52,3.51-4.79.7,1.29,8.74a2,2,0,0,0,2.52,1.9,5.54,5.54,0,0,0,2.44-1l0.49,3.34a7.23,7.23,0,0,1-3.55,1.45C3989.94,4457.08,3987.62,4456.07,3987,4452.16Z" transform="translate(-3728.57 -4110.61)"/><path class="cls-13" d="M3997.25,4430.52l4.08-.6,1.41,9.59a6.48,6.48,0,0,1,5.11-4c4-.59,6.74,1.77,7.35,5.92l1.67,11.34-4.08.6-1.49-10.13c-0.41-2.77-2-4.15-4.45-3.79s-3.77,2.24-3.37,5l1.48,10.06-4.08.6Z" transform="translate(-3728.57 -4110.61)"/><path class="cls-13" d="M4019.72,4443.35v-0.07c-0.75-5.1,2.25-9.81,7.35-10.56,5.67-.83,9.19,3.2,9.95,8.33,0.05,0.37.08,0.75,0.1,1.16l-13.1,1.92a5,5,0,0,0,5.8,3.77,6.54,6.54,0,0,0,4.51-2.84l2.71,1.77a9.11,9.11,0,0,1-6.8,4.41A9,9,0,0,1,4019.72,4443.35Zm13-3.26c-0.66-2.59-2.51-4.42-5.21-4-2.5.37-4,2.55-3.94,5.37Z" transform="translate(-3728.57 -4110.61)"/><circle class="cls-3" cx="94.34" cy="287.56" r="39.68"/><circle class="cls-3" cx="30.84" cy="304.76" r="30.84"/><circle class="cls-3" cx="94.34" cy="287.56" r="39.68"/><circle class="cls-4" cx="30.84" cy="304.76" r="23.02"/><path class="cls-2" d="M3772.93,4392.2a26.73,26.73,0,1,0,9.78,36.52A26.73,26.73,0,0,0,3772.93,4392.2Zm-31.7,21.7a5.55,5.55,0,1,1,7.58,2A5.55,5.55,0,0,1,3741.23,4413.9Zm13.22,18a5.55,5.55,0,1,1,2-7.58A5.55,5.55,0,0,1,3754.45,4431.87Zm0.09-28.29a5.55,5.55,0,1,1,7.58,2A5.55,5.55,0,0,1,3754.55,4403.58Zm16.79,27.82a5.55,5.55,0,1,1,2-7.58A5.55,5.55,0,0,1,3771.33,4431.41Zm4.81-16.39a5.55,5.55,0,1,1,2-7.58A5.55,5.55,0,0,1,3776.15,4415Z" transform="translate(-3728.57 -4110.61)"/><circle class="cls-4" cx="94.34" cy="287.56" r="30.3"/><path class="cls-2" d="M3840.73,4367.76a35.36,35.36,0,1,0,12.94,48.3A35.36,35.36,0,0,0,3840.73,4367.76Zm-41.93,28.71a7.34,7.34,0,1,1,10,2.69A7.34,7.34,0,0,1,3798.81,4396.47Zm17.49,23.77a7.34,7.34,0,1,1,2.69-10A7.34,7.34,0,0,1,3816.3,4420.24Zm0.12-37.42a7.34,7.34,0,1,1,10,2.69A7.34,7.34,0,0,1,3816.42,4382.82Zm22.21,36.81a7.34,7.34,0,1,1,2.69-10A7.34,7.34,0,0,1,3838.62,4419.62Zm6.37-21.68a7.34,7.34,0,1,1,2.69-10A7.34,7.34,0,0,1,3845,4397.95Z" transform="translate(-3728.57 -4110.61)"/><path class="cls-3" d="M4118.51,4260s-15.76-5.82-37.47-2.59a36.63,36.63,0,0,0-14.74,5.42l0.07,15.66s4.51-7.88,17.19-13.36C4100.65,4257.8,4118.51,4260,4118.51,4260Z" transform="translate(-3728.57 -4110.61)"/><path class="cls-4" d="M4095.76,4247.53c-18.2,0-32.95,4.77-32.95,10.63v9.49c0-5.86,14.75-10.34,32.95-10.34s32.95,4.38,32.95,10.24v-9.39C4128.71,4252.31,4114,4247.53,4095.76,4247.53Z" transform="translate(-3728.57 -4110.61)"/><path class="cls-3" d="M4095.76,4243.11c-18.2,0-32.95,4.77-32.95,10.63v10.82c0-5.86,14.75-10.63,32.95-10.63s32.95,4.77,32.95,10.63v-10.82C4128.71,4247.89,4114,4243.11,4095.76,4243.11Z" transform="translate(-3728.57 -4110.61)"/><path class="cls-14" d="M3755.83,4290.88a7.88,7.88,0,0,0-3.66,7c0.06,7.2,9,28.56,10.26,29.92a5.85,5.85,0,0,0,6.72,1.22c0.63-.32,1.11-0.64,1.11-0.64Z" transform="translate(-3728.57 -4110.61)"/><path class="cls-9" d="M3798.22,4329.72L3783,4338a6.79,6.79,0,0,1-9.19-2.7l-19.58-35.92a6.79,6.79,0,0,1,2.7-9.19l15.21-8.24a6.79,6.79,0,0,1,9.19,2.7l19.58,35.92A6.79,6.79,0,0,1,3798.22,4329.72Z" transform="translate(-3728.57 -4110.61)"/><path class="cls-10" d="M3772.59,4281.66l-7.4,4,25.6,48,7.43-3.77a6.8,6.8,0,0,0,2.79-9.18l-19.26-36.29A6.8,6.8,0,0,0,3772.59,4281.66Z" transform="translate(-3728.57 -4110.61)"/><path class="cls-14" d="M3859,4264.83s4-1,7.11,7.67c2.41,6.79,5.45,27,4.46,28.59a6.33,6.33,0,0,1-5,2.88,5.46,5.46,0,0,1-1.55-.2Z" transform="translate(-3728.57 -4110.61)"/><path class="cls-9" d="M3840.12,4319.08l17.3-.18a6.79,6.79,0,0,0,6.72-6.82l-0.32-40.91a6.79,6.79,0,0,0-6.82-6.72l-17.3.18a6.79,6.79,0,0,0-6.72,6.82l0.32,40.91A6.79,6.79,0,0,0,3840.12,4319.08Z" transform="translate(-3728.57 -4110.61)"/><path class="cls-10" d="M3839.2,4264.63l8.44-.09,0.94,54.56-8.33.18a6.8,6.8,0,0,1-6.9-6.67l-0.78-41.06A6.8,6.8,0,0,1,3839.2,4264.63Z" transform="translate(-3728.57 -4110.61)"/><path class="cls-15" d="M3953.38,4241.39a13.78,13.78,0,0,1,9.89-1.47c5.68,1.28,7,3.48,7,3.48" transform="translate(-3728.57 -4110.61)"/><path class="cls-16" d="M3894.7,4117.7a13.78,13.78,0,0,1,9.89-1.47c5.68,1.28,7,3.48,7,3.48" transform="translate(-3728.57 -4110.61)"/><path class="cls-17" d="M3917.27,4190.21a17.66,17.66,0,0,1,12.67-1.88c7.27,1.64,8.92,4.46,8.92,4.46" transform="translate(-3728.57 -4110.61)"/><path class="cls-18" d="M3935.78,4137.16a15.85,15.85,0,0,1,11.38-1.69c6.53,1.47,8,4,8,4" transform="translate(-3728.57 -4110.61)"/></svg>