<svg id="Interactive_elements" data-name="Interactive elements" xmlns="http://www.w3.org/2000/svg" viewBox="0 0 158.8 101"><defs><style>.cls-1{fill:#2e8bbd;}.cls-2{fill:#f1f297;}.cls-3{fill:#c53a43;}</style></defs><title>SHARP-closing</title><path class="cls-1" d="M10207.79,9931.46l0.26-2.25a7.56,7.56,0,0,0,4.42,1.42c1.74,0,3.39-.59,3.39-2.19s-1.62-2.21-3.67-2.86c-2.35-.75-4.62-1.44-4.62-3.87,0-1.76,1.22-4.1,5.11-4.1a10.48,10.48,0,0,1,4.46,1l-0.2,2a9.19,9.19,0,0,0-4.08-1.28c-1.46,0-3.18.61-3.18,2.09,0,1.32,1.36,1.85,3.06,2.37,2.49,0.77,5.23,1.52,5.23,4.6,0,1.5-.63,4-5.54,4A10.59,10.59,0,0,1,10207.79,9931.46Z" transform="translate(-10198.6 -9838.61)"/><path class="cls-1" d="M10230.57,9932.09v-6.51h-8v6.51h-1.93v-14.2h1.93v5.86h8v-5.86h1.93v14.2h-1.93Z" transform="translate(-10198.6 -9838.61)"/><path class="cls-1" d="M10244.79,9932.09l-1.36-3.83H10238l-1.36,3.83h-2l5.09-14.2h2l5.09,14.2h-2Zm-4.08-11.5-2.11,5.92h4.22Z" transform="translate(-10198.6 -9838.61)"/><path class="cls-1" d="M10257.08,9932.09l-3.14-5.54h-3v5.54h-2v-14.2h4.6c3,0,4.91,1,4.91,4.16a4.32,4.32,0,0,1-2.6,4l3.31,6h-2.07Zm-6.12-12.63v5.23h3.06a2.37,2.37,0,0,0,2.41-2.64c0-1.64-1-2.6-2.92-2.6H10251Z" transform="translate(-10198.6 -9838.61)"/><path class="cls-1" d="M10263.52,9927.12v5h-2v-14.2h4.54c2.64,0,4.95.61,4.95,4.42s-2.49,4.81-4.38,4.81h-3.08Zm0-7.5v5.78h2.72c2,0,2.74-1.09,2.74-3s-0.81-2.78-3.31-2.78h-2.15Z" transform="translate(-10198.6 -9838.61)"/><rect class="cls-2" width="158.8" height="101"/><path class="cls-3" d="M10241.9,9868.17l-1.32-3.71h-5.11l-1.32,3.71h-2.92l5.46-15.35h2.65l5.46,15.35h-2.92Zm-3.88-10.92-1.58,4.5h3.18Z" transform="translate(-10198.6 -9838.61)"/><path class="cls-3" d="M10253.83,9868.17l0-.61a4.28,4.28,0,0,1-2.67.83c-3.51,0-5.37-2.61-5.37-5.68s1.86-5.68,5.37-5.68a4.34,4.34,0,0,1,2.57.72v-6h2.72v16.45h-2.57Zm-5.31-5.46c0,2,1,3.44,2.76,3.44s2.52-1.4,2.52-3.44-0.77-3.44-2.52-3.44S10248.53,9860.67,10248.53,9862.71Z" transform="translate(-10198.6 -9838.61)"/><path class="cls-3" d="M10266.82,9868.17l0-.61a4.28,4.28,0,0,1-2.67.83c-3.51,0-5.37-2.61-5.37-5.68s1.86-5.68,5.37-5.68a4.34,4.34,0,0,1,2.57.72v-6h2.72v16.45h-2.57Zm-5.31-5.46c0,2,1,3.44,2.76,3.44s2.52-1.4,2.52-3.44-0.77-3.44-2.52-3.44S10261.52,9860.67,10261.52,9862.71Z" transform="translate(-10198.6 -9838.61)"/><path class="cls-3" d="M10281.53,9873.48h-2.72l2.43-6-4.56-10.24h3l2.81,7.06,2.85-7.06h3Z" transform="translate(-10198.6 -9838.61)"/><path class="cls-3" d="M10289,9862.71a5.55,5.55,0,1,1,5.55,5.68A5.38,5.38,0,0,1,10289,9862.71Zm2.78,0c0,2,1,3.44,2.76,3.44s2.76-1.4,2.76-3.44-1-3.44-2.76-3.44S10291.81,9860.67,10291.81,9862.71Z" transform="translate(-10198.6 -9838.61)"/><path class="cls-3" d="M10309.46,9868.17l0-.66a4.32,4.32,0,0,1-2.43.88c-3.42,0-4.65-2.19-4.65-5.29v-5.9h2.72v5.9c0,2,.64,3,2.17,3a2.55,2.55,0,0,0,2.06-.92v-8h2.72v11h-2.54Z" transform="translate(-10198.6 -9838.61)"/><path class="cls-3" d="M10320.68,9859.6h-1a2.25,2.25,0,0,0-2,1.1v7.48H10315v-11h2.54l0.07,1.16a4.3,4.3,0,0,1,2.92-1.34h0.72Z" transform="translate(-10198.6 -9838.61)"/><path class="cls-3" d="M10242.87,9888.39c0-3.07,1.82-5.68,5.33-5.68a5.55,5.55,0,0,1,3.29.81l-0.24,2.32a4.92,4.92,0,0,0-2.83-.9c-1.75,0-2.76,1.4-2.76,3.44s1,3.44,2.76,3.44a4.93,4.93,0,0,0,2.83-.9l0.24,2.32a5.55,5.55,0,0,1-3.29.81C10244.69,9894.07,10242.87,9891.46,10242.87,9888.39Z" transform="translate(-10198.6 -9838.61)"/><path class="cls-3" d="M10257.6,9894.07h-1a2.62,2.62,0,0,1-2.81-2.87V9877.4h2.72v12.67c0,1.75.24,1.75,1.32,1.75Z" transform="translate(-10198.6 -9838.61)"/><path class="cls-3" d="M10259.12,9888.39a5.55,5.55,0,1,1,5.55,5.68A5.38,5.38,0,0,1,10259.12,9888.39Zm2.78,0c0,2,1,3.44,2.76,3.44s2.76-1.4,2.76-3.44-1-3.44-2.76-3.44S10261.9,9886.35,10261.9,9888.39Z" transform="translate(-10198.6 -9838.61)"/><path class="cls-3" d="M10271.9,9893.26l0.24-2.32a6.36,6.36,0,0,0,3.38,1.1c1.32,0,1.67-.66,1.67-1.21,0-.92-0.94-1.23-2-1.56-1.54-.46-3.16-1-3.16-3.07,0-1.54.92-3.49,4-3.49a7.18,7.18,0,0,1,3.44.81l-0.24,2.32a4.77,4.77,0,0,0-3-1.18c-0.94,0-1.82.33-1.82,1.21,0,1.05,1.12,1.23,2.5,1.62s3,1.1,3,3.35c0,1.34-.55,3.22-4.3,3.22A7.4,7.4,0,0,1,10271.9,9893.26Z" transform="translate(-10198.6 -9838.61)"/><path class="cls-3" d="M10282.28,9881.22v-2.72h2.72v2.72h-2.72Zm0,12.63v-11h2.72v11h-2.72Z" transform="translate(-10198.6 -9838.61)"/><path class="cls-3" d="M10294.88,9893.85V9888c0-2-.64-3-2.17-3a2.54,2.54,0,0,0-2.06.94v8h-2.72v-11h2.54l0,0.66a4.38,4.38,0,0,1,2.41-.83c3.42,0,4.67,2.15,4.67,5.24v5.9h-2.72Z" transform="translate(-10198.6 -9838.61)"/><path class="cls-3" d="M10299.64,9896.09a2.79,2.79,0,0,1,1.8-2.46,1.81,1.81,0,0,1-1-1.58,1.61,1.61,0,0,1,1.1-1.49,4.25,4.25,0,0,1-1.69-3.53,4.17,4.17,0,0,1,4.45-4.32,4.66,4.66,0,0,1,2.5.66,5.3,5.3,0,0,1,2.35-.48h0.7l-0.18,1.71h-1c-0.13,0-.37,0-0.61,0a4.47,4.47,0,0,1,.66,2.41,4.15,4.15,0,0,1-4.43,4.32,6.58,6.58,0,0,1-1.16-.11,0.38,0.38,0,0,0-.24.35c0,0.53.94,0.68,2.74,0.9,1.56,0.2,4.41.66,4.41,3.31,0,2.13-1.86,3.53-5.24,3.53C10301.17,9899.33,10299.64,9897.71,10299.64,9896.09Zm3.77-1.78a1.76,1.76,0,0,0-1.51,1.51c0,1,1,1.58,2.78,1.58s3-.55,3-1.49-1.53-1.25-2.92-1.4Q10304.13,9894.44,10303.41,9894.31Zm-1.12-7.28c0,1.4.68,2.32,2,2.32s2-.92,2-2.32-0.68-2.32-2-2.32S10302.29,9885.63,10302.29,9887Z" transform="translate(-10198.6 -9838.61)"/><path class="cls-3" d="M10219.78,9918.72l0.33-3.2a7,7,0,0,0,4.82,1.62c1.64,0,2.74-.42,2.74-1.67,0-1.56-1.71-2.1-3.57-2.74-2.17-.75-4.54-1.51-4.54-4.25,0-2,1.4-4.61,5.55-4.61a10.13,10.13,0,0,1,4.89,1.18l-0.29,2.87a9.24,9.24,0,0,0-4.5-1.38c-1.18,0-2.81.31-2.81,1.62s1.43,1.71,3.09,2.21c2.39,0.72,5.31,1.6,5.31,5,0,1.75-.77,4.47-5.94,4.47A10.23,10.23,0,0,1,10219.78,9918.72Z" transform="translate(-10198.6 -9838.61)"/><path class="cls-3" d="M10243.64,9919.53v-6.64h-7.24v6.64h-2.81v-15.35h2.81v6h7.24v-6h2.81v15.35h-2.81Z" transform="translate(-10198.6 -9838.61)"/><path class="cls-3" d="M10259.21,9919.53l-1.32-3.71h-5.11l-1.32,3.71h-2.92l5.46-15.35h2.65l5.46,15.35h-2.92Zm-3.88-10.92-1.58,4.5h3.18Z" transform="translate(-10198.6 -9838.61)"/><path class="cls-3" d="M10273.08,9919.53l-3.18-5.7H10267v5.7h-2.81v-15.35h5.61c3,0,5.28,1.1,5.28,4.43a4.84,4.84,0,0,1-2.61,4.47l3.46,6.45h-2.92Zm-6-13v4.67h2.06c2.54,0,3.09-1,3.09-2.39s-0.57-2.28-3-2.28H10267Z" transform="translate(-10198.6 -9838.61)"/><path class="cls-3" d="M10281.14,9914.49v5h-2.81v-15.35h4.34c4.25,0,6.58.66,6.58,4.87,0,4.41-3.2,5.44-5.37,5.44h-2.74Zm0-8v5.33h2.37c2,0,2.89-.7,2.89-2.78,0-1.75-.61-2.54-3-2.54h-2.3Z" transform="translate(-10198.6 -9838.61)"/><path class="cls-3" d="M10303.94,9919.53v-5.9c0-2-.64-3-2.17-3a2.53,2.53,0,0,0-2.06.94v8H10297v-16.45h2.72v6.05a4.35,4.35,0,0,1,2.28-.75c3.42,0,4.67,2.15,4.67,5.24v5.9h-2.72Z" transform="translate(-10198.6 -9838.61)"/><path class="cls-3" d="M10311.7,9914.64a3.18,3.18,0,0,0,3.27,2.87,8.23,8.23,0,0,0,3.38-.9l0.13,2.3a8,8,0,0,1-3.66.83c-4,0-5.94-2.61-5.94-5.68s1.89-5.68,5.26-5.68a4.57,4.57,0,0,1,4.82,4.76,7.27,7.27,0,0,1-.17,1.49h-7.08Zm0.07-1.84h4.43a2,2,0,0,0-2-2.17A2.43,2.43,0,0,0,10311.76,9912.8Z" transform="translate(-10198.6 -9838.61)"/><path class="cls-3" d="M10327.08,9911h-1a2.25,2.25,0,0,0-2,1.1v7.48h-2.72v-11h2.54l0.07,1.16a4.3,4.3,0,0,1,2.92-1.34h0.72Z" transform="translate(-10198.6 -9838.61)"/><path class="cls-3" d="M10331.26,9914.64a3.18,3.18,0,0,0,3.27,2.87,8.23,8.23,0,0,0,3.38-.9l0.13,2.3a8,8,0,0,1-3.66.83c-4,0-5.94-2.61-5.94-5.68s1.89-5.68,5.26-5.68a4.57,4.57,0,0,1,4.82,4.76,7.21,7.21,0,0,1-.18,1.49h-7.08Zm0.07-1.84h4.43a2,2,0,0,0-2-2.17A2.43,2.43,0,0,0,10331.32,9912.8Z" transform="translate(-10198.6 -9838.61)"/><path class="cls-3" d="M10225.78,9932.64c37.19-.47,74.26-6.36,111.49-3.48,2,0.16,2-3,0-3.13-37.22-2.88-74.29,3-111.49,3.48-2,0-2,3.16,0,3.13h0Z" transform="translate(-10198.6 -9838.61)"/></svg>