<svg id="Interactive_elements" data-name="Interactive elements" xmlns="http://www.w3.org/2000/svg" viewBox="0 0 158.8 101"><defs><style>.cls-1{fill:#2e8bbd;}.cls-2{fill:#f1f297;}.cls-3{fill:#c53a43;}</style></defs><title>SHARP-opening</title><path class="cls-1" d="M9673.16,9416.3l0.26-2.25a7.56,7.56,0,0,0,4.42,1.42c1.74,0,3.39-.59,3.39-2.19s-1.62-2.21-3.67-2.86c-2.35-.75-4.62-1.44-4.62-3.87,0-1.76,1.22-4.1,5.11-4.1a10.48,10.48,0,0,1,4.46,1l-0.2,2a9.19,9.19,0,0,0-4.08-1.28c-1.46,0-3.18.61-3.18,2.09,0,1.32,1.36,1.85,3.06,2.37,2.49,0.77,5.23,1.52,5.23,4.6,0,1.5-.63,4-5.54,4A10.58,10.58,0,0,1,9673.16,9416.3Z" transform="translate(-9664.54 -9323.72)"/><path class="cls-1" d="M9695.93,9416.93v-6.51h-8v6.51H9686v-14.2h1.93v5.86h8v-5.86h1.93v14.2h-1.93Z" transform="translate(-9664.54 -9323.72)"/><path class="cls-1" d="M9710.15,9416.93l-1.36-3.83h-5.43l-1.36,3.83h-2l5.09-14.2h2l5.09,14.2h-2Zm-4.08-11.5-2.11,5.92h4.22Z" transform="translate(-9664.54 -9323.72)"/><path class="cls-1" d="M9722.44,9416.93l-3.14-5.54h-3v5.54h-2v-14.2h4.6c3,0,4.91,1,4.91,4.16a4.32,4.32,0,0,1-2.6,4l3.3,6h-2.07Zm-6.12-12.63v5.23h3.06a2.37,2.37,0,0,0,2.41-2.64c0-1.64-1-2.6-2.92-2.6h-2.56Z" transform="translate(-9664.54 -9323.72)"/><path class="cls-1" d="M9728.88,9412v5h-2v-14.2h4.54c2.64,0,4.95.61,4.95,4.42s-2.49,4.81-4.38,4.81h-3.08Zm0-7.5v5.78h2.72c2,0,2.74-1.09,2.74-3s-0.81-2.78-3.31-2.78h-2.15Z" transform="translate(-9664.54 -9323.72)"/><rect class="cls-2" width="158.8" height="101"/><path class="cls-3" d="M9705.46,9355.44l-1.32-3.71H9699l-1.32,3.71h-2.92l5.46-15.35h2.65l5.46,15.35h-2.92Zm-3.88-10.92L9700,9349h3.18Z" transform="translate(-9664.54 -9323.72)"/><path class="cls-3" d="M9717.4,9355.44l0-.61a4.28,4.28,0,0,1-2.67.83c-3.51,0-5.37-2.61-5.37-5.68s1.86-5.68,5.37-5.68a4.34,4.34,0,0,1,2.57.72v-6H9720v16.45h-2.57Zm-5.31-5.46c0,2,1,3.44,2.76,3.44s2.52-1.4,2.52-3.44-0.77-3.44-2.52-3.44S9712.09,9347.94,9712.09,9350Z" transform="translate(-9664.54 -9323.72)"/><path class="cls-3" d="M9730.39,9355.44l0-.61a4.28,4.28,0,0,1-2.67.83c-3.51,0-5.37-2.61-5.37-5.68s1.86-5.68,5.37-5.68a4.34,4.34,0,0,1,2.57.72v-6H9733v16.45h-2.57Zm-5.31-5.46c0,2,1,3.44,2.76,3.44s2.52-1.4,2.52-3.44-0.77-3.44-2.52-3.44S9725.08,9347.94,9725.08,9350Z" transform="translate(-9664.54 -9323.72)"/><path class="cls-3" d="M9745.1,9360.75h-2.72l2.43-6-4.56-10.24h3l2.81,7.06,2.85-7.06h3Z" transform="translate(-9664.54 -9323.72)"/><path class="cls-3" d="M9752.59,9350a5.55,5.55,0,1,1,5.55,5.68A5.38,5.38,0,0,1,9752.59,9350Zm2.78,0c0,2,1,3.44,2.76,3.44s2.76-1.4,2.76-3.44-1-3.44-2.76-3.44S9755.38,9347.94,9755.38,9350Z" transform="translate(-9664.54 -9323.72)"/><path class="cls-3" d="M9773,9355.44l0-.66a4.32,4.32,0,0,1-2.43.88c-3.42,0-4.65-2.19-4.65-5.29v-5.9h2.72v5.9c0,2,.64,3,2.17,3a2.55,2.55,0,0,0,2.06-.92v-8h2.72v11H9773Z" transform="translate(-9664.54 -9323.72)"/><path class="cls-3" d="M9784.25,9346.87h-1a2.25,2.25,0,0,0-2,1.1v7.48h-2.72v-11h2.54l0.07,1.16a4.3,4.3,0,0,1,2.92-1.34h0.72Z" transform="translate(-9664.54 -9323.72)"/><path class="cls-3" d="M9700.73,9375.66a5.55,5.55,0,1,1,5.55,5.68A5.38,5.38,0,0,1,9700.73,9375.66Zm2.78,0c0,2,1,3.44,2.76,3.44s2.76-1.4,2.76-3.44-1-3.44-2.76-3.44S9703.51,9373.62,9703.51,9375.66Z" transform="translate(-9664.54 -9323.72)"/><path class="cls-3" d="M9716.89,9380.6v5.83h-2.72v-16.27h2.37l0.22,0.64a4.38,4.38,0,0,1,2.7-.81c3.51,0,5.37,2.61,5.37,5.68s-1.86,5.68-5.37,5.68A4.19,4.19,0,0,1,9716.89,9380.6Zm-0.13-4.93c0,2,.77,3.44,2.52,3.44s2.76-1.4,2.76-3.44-1-3.44-2.76-3.44S9716.75,9373.62,9716.75,9375.66Z" transform="translate(-9664.54 -9323.72)"/><path class="cls-3" d="M9729.37,9376.23a3.18,3.18,0,0,0,3.27,2.87,8.23,8.23,0,0,0,3.38-.9l0.13,2.3a8,8,0,0,1-3.66.83c-4,0-5.94-2.61-5.94-5.68s1.89-5.68,5.26-5.68a4.57,4.57,0,0,1,4.82,4.76,7.21,7.21,0,0,1-.18,1.49h-7.08Zm0.07-1.84h4.43a2,2,0,0,0-2-2.17A2.43,2.43,0,0,0,9729.43,9374.39Z" transform="translate(-9664.54 -9323.72)"/><path class="cls-3" d="M9746,9381.12v-5.9c0-2-.64-3-2.17-3a2.54,2.54,0,0,0-2.06.94v8H9739v-11h2.54l0,0.66a4.38,4.38,0,0,1,2.41-.83c3.42,0,4.67,2.15,4.67,5.24v5.9H9746Z" transform="translate(-9664.54 -9323.72)"/><path class="cls-3" d="M9751.56,9368.49v-2.72h2.72v2.72h-2.72Zm0,12.63v-11h2.72v11h-2.72Z" transform="translate(-9664.54 -9323.72)"/><path class="cls-3" d="M9764.16,9381.12v-5.9c0-2-.64-3-2.17-3a2.54,2.54,0,0,0-2.06.94v8h-2.72v-11h2.54l0,0.66a4.38,4.38,0,0,1,2.41-.83c3.42,0,4.67,2.15,4.67,5.24v5.9h-2.72Z" transform="translate(-9664.54 -9323.72)"/><path class="cls-3" d="M9768.92,9383.36a2.79,2.79,0,0,1,1.8-2.46,1.81,1.81,0,0,1-1-1.58,1.61,1.61,0,0,1,1.1-1.49,4.25,4.25,0,0,1-1.69-3.53,4.17,4.17,0,0,1,4.45-4.32,4.66,4.66,0,0,1,2.5.66,5.3,5.3,0,0,1,2.35-.48h0.7l-0.18,1.71h-1c-0.13,0-.37,0-0.61,0a4.47,4.47,0,0,1,.66,2.41,4.15,4.15,0,0,1-4.43,4.32,6.58,6.58,0,0,1-1.16-.11,0.38,0.38,0,0,0-.24.35c0,0.53.94,0.68,2.74,0.9,1.56,0.2,4.41.66,4.41,3.31,0,2.13-1.86,3.53-5.24,3.53C9770.45,9386.6,9768.92,9385,9768.92,9383.36Zm3.77-1.78a1.76,1.76,0,0,0-1.51,1.51c0,1,1,1.58,2.78,1.58s3-.55,3-1.49-1.53-1.25-2.92-1.4Q9773.41,9381.71,9772.69,9381.58Zm-1.12-7.28c0,1.4.68,2.32,2,2.32s2-.92,2-2.32-0.68-2.32-2-2.32S9771.57,9372.9,9771.57,9374.3Z" transform="translate(-9664.54 -9323.72)"/><path class="cls-3" d="M9683.35,9406l0.33-3.2a7,7,0,0,0,4.82,1.62c1.64,0,2.74-.42,2.74-1.67,0-1.56-1.71-2.1-3.57-2.74-2.17-.75-4.54-1.51-4.54-4.25,0-2,1.4-4.61,5.55-4.61a10.13,10.13,0,0,1,4.89,1.18l-0.29,2.87a9.24,9.24,0,0,0-4.5-1.38c-1.18,0-2.81.31-2.81,1.62s1.43,1.71,3.09,2.21c2.39,0.72,5.31,1.6,5.31,5,0,1.75-.77,4.47-5.94,4.47A10.23,10.23,0,0,1,9683.35,9406Z" transform="translate(-9664.54 -9323.72)"/><path class="cls-3" d="M9707.21,9406.8v-6.64H9700v6.64h-2.81v-15.35H9700v6h7.24v-6H9710v15.35h-2.81Z" transform="translate(-9664.54 -9323.72)"/><path class="cls-3" d="M9722.78,9406.8l-1.32-3.71h-5.11l-1.32,3.71h-2.92l5.46-15.35h2.65l5.46,15.35h-2.92Zm-3.88-10.92-1.58,4.5h3.18Z" transform="translate(-9664.54 -9323.72)"/><path class="cls-3" d="M9736.65,9406.8l-3.18-5.7h-2.85v5.7h-2.81v-15.35h5.61c3,0,5.28,1.1,5.28,4.43a4.84,4.84,0,0,1-2.61,4.47l3.46,6.45h-2.92Zm-6-13v4.67h2.06c2.54,0,3.09-1,3.09-2.39s-0.57-2.28-3-2.28h-2.17Z" transform="translate(-9664.54 -9323.72)"/><path class="cls-3" d="M9744.71,9401.76v5h-2.81v-15.35h4.34c4.25,0,6.58.66,6.58,4.87,0,4.41-3.2,5.44-5.37,5.44h-2.74Zm0-8v5.33h2.37c2,0,2.89-.7,2.89-2.78,0-1.75-.61-2.54-3-2.54h-2.3Z" transform="translate(-9664.54 -9323.72)"/><path class="cls-3" d="M9767.5,9406.8v-5.9c0-2-.64-3-2.17-3a2.53,2.53,0,0,0-2.06.94v8h-2.72v-16.45h2.72v6.05a4.35,4.35,0,0,1,2.28-.75c3.42,0,4.67,2.15,4.67,5.24v5.9h-2.72Z" transform="translate(-9664.54 -9323.72)"/><path class="cls-3" d="M9775.26,9401.91a3.18,3.18,0,0,0,3.27,2.87,8.23,8.23,0,0,0,3.38-.9l0.13,2.3a8,8,0,0,1-3.66.83c-4,0-5.94-2.61-5.94-5.68s1.89-5.68,5.26-5.68a4.57,4.57,0,0,1,4.82,4.76,7.21,7.21,0,0,1-.18,1.49h-7.08Zm0.07-1.84h4.43a2,2,0,0,0-2-2.17A2.43,2.43,0,0,0,9775.33,9400.07Z" transform="translate(-9664.54 -9323.72)"/><path class="cls-3" d="M9790.65,9398.23h-1a2.25,2.25,0,0,0-2,1.1v7.48h-2.72v-11h2.54l0.07,1.16a4.3,4.3,0,0,1,2.92-1.34h0.72Z" transform="translate(-9664.54 -9323.72)"/><path class="cls-3" d="M9794.82,9401.91a3.18,3.18,0,0,0,3.27,2.87,8.23,8.23,0,0,0,3.38-.9l0.13,2.3a8,8,0,0,1-3.66.83c-4,0-5.94-2.61-5.94-5.68s1.89-5.68,5.26-5.68a4.57,4.57,0,0,1,4.82,4.76,7.27,7.27,0,0,1-.17,1.49h-7.08Zm0.07-1.84h4.43a2,2,0,0,0-2-2.17A2.43,2.43,0,0,0,9794.89,9400.07Z" transform="translate(-9664.54 -9323.72)"/><path class="cls-3" d="M9689.35,9419.91c37.19-.47,74.27-6.36,111.49-3.48,2,0.16,2-3,0-3.13-37.22-2.88-74.29,3-111.49,3.48-2,0-2,3.16,0,3.13h0Z" transform="translate(-9664.54 -9323.72)"/></svg>