<svg id="Interactive_elements" data-name="Interactive elements" xmlns="http://www.w3.org/2000/svg" viewBox="0 0 313.85 150.56"><defs><style>.cls-1{fill:#e8f3fc;}.cls-2{fill:#2e8bbd;}.cls-3{fill:#c53a43;}</style></defs><title>button_book</title><path class="cls-1" d="M2325.87,6095.77H2041.05c-8,0-14.52,6.52-14.52,12.78v125c0,6.26,6.53,12.78,14.52,12.78h284.82c8,0,14.52-6.52,14.52-12.78v-125C2340.39,6102.29,2333.85,6095.77,2325.87,6095.77Z" transform="translate(-2026.54 -6095.77)"/><path class="cls-2" d="M2116.43,6192c0-5.3,3.53-8.71,8.42-8.71a14,14,0,0,1,5,1l-0.22,2a15.44,15.44,0,0,0-4.71-.89c-4.1,0-6,3-6,6.67s2,6.67,6.38,6.67a8.24,8.24,0,0,0,2.81-.46V6194h-2.64V6192h4.92v7.49a14.32,14.32,0,0,1-5.74,1.27C2120,6200.72,2116.43,6197.31,2116.43,6192Z" transform="translate(-2026.54 -6095.77)"/><path class="cls-2" d="M2134.45,6194.5c0.31,3.26,2.18,4.2,4.42,4.2a8.47,8.47,0,0,0,3.38-.7l0.29,1.7a9.4,9.4,0,0,1-3.94.91,5.94,5.94,0,0,1-6.36-6.22c0-3.29,2.11-6,5.76-6a4.7,4.7,0,0,1,5.06,5,6.73,6.73,0,0,1-.1,1.15h-8.52Zm0.19-1.49h6.19c0-1.66-.91-2.71-2.88-2.71A3.12,3.12,0,0,0,2134.65,6193Z" transform="translate(-2026.54 -6095.77)"/><path class="cls-2" d="M2151.25,6200.62h-1.94a2.72,2.72,0,0,1-3.07-2.81v-7.51h-2l0.19-1.68h1.82v-2.9l2.16-.22v3.12h3.1v1.68h-3.1v6.19c0,2.26.14,2.4,2.47,2.4h0.55Z" transform="translate(-2026.54 -6095.77)"/><path class="cls-2" d="M2164.74,6200.62h-1.94a2.72,2.72,0,0,1-3.07-2.81v-7.51h-2l0.19-1.68h1.82v-2.9l2.16-.22v3.12h3.1v1.68h-3.1v6.19c0,2.26.14,2.4,2.47,2.4h0.55Z" transform="translate(-2026.54 -6095.77)"/><path class="cls-2" d="M2174.87,6200.38v-6.29c0-2.79-.72-3.79-2.81-3.79a3.29,3.29,0,0,0-3.07,1.54v8.54h-2.18v-18H2169v7.51a4,4,0,0,1,3.41-1.51c3.38,0,4.63,2.33,4.63,5.71v6.29h-2.16Z" transform="translate(-2026.54 -6095.77)"/><path class="cls-2" d="M2181.32,6194.5c0.31,3.26,2.18,4.2,4.42,4.2a8.47,8.47,0,0,0,3.38-.7l0.29,1.7a9.4,9.4,0,0,1-3.94.91,5.94,5.94,0,0,1-6.36-6.22c0-3.29,2.11-6,5.76-6a4.7,4.7,0,0,1,5.06,5,6.73,6.73,0,0,1-.1,1.15h-8.52Zm0.19-1.49h6.19c0-1.66-.91-2.71-2.88-2.71A3.12,3.12,0,0,0,2181.52,6193Z" transform="translate(-2026.54 -6095.77)"/><path class="cls-2" d="M2199.66,6198.9l-0.24,1.49h-1.92v-18h2.16v7.51a4.71,4.71,0,0,1,3.65-1.51c3.29,0,5.3,2.9,5.3,6.12,0,3.43-2.33,6.12-5.33,6.12A5,5,0,0,1,2199.66,6198.9Zm-0.12-4.39c0,3,1.78,4.2,3.5,4.2,2.06,0,3.36-1.9,3.36-4.2s-1.3-4.2-3.36-4.2C2201.32,6190.3,2199.54,6191.67,2199.54,6194.5Z" transform="translate(-2026.54 -6095.77)"/><path class="cls-2" d="M2210.15,6194.5c0-3.41,2.14-6.12,5.83-6.12s5.83,2.71,5.83,6.12-2.16,6.12-5.83,6.12S2210.15,6197.91,2210.15,6194.5Zm2.21,0c0,2.64,1.3,4.2,3.62,4.2s3.62-1.56,3.62-4.2-1.3-4.2-3.62-4.2S2212.36,6191.86,2212.36,6194.5Z" transform="translate(-2026.54 -6095.77)"/><path class="cls-2" d="M2223.35,6194.5c0-3.41,2.14-6.12,5.83-6.12s5.83,2.71,5.83,6.12-2.16,6.12-5.83,6.12S2223.35,6197.91,2223.35,6194.5Zm2.21,0c0,2.64,1.3,4.2,3.62,4.2s3.62-1.56,3.62-4.2-1.3-4.2-3.62-4.2S2225.56,6191.86,2225.56,6194.5Z" transform="translate(-2026.54 -6095.77)"/><path class="cls-2" d="M2237.22,6200.38v-18h2.16v11.54l4.32-5.3h2.64l-4.85,5.42,5,6.34h-2.64l-4.44-6v6h-2.16Z" transform="translate(-2026.54 -6095.77)"/><path class="cls-2" d="M2247.9,6191.89v-2.06h2.16v2.06h-2.16Zm0,8.5v-2.06h2.16v2.06h-2.16Z" transform="translate(-2026.54 -6095.77)"/><path class="cls-2" d="M2048.26,6222c0-5.33,3.55-8.74,8.4-8.74a11.62,11.62,0,0,1,4.66,1l-0.24,2.11a12.84,12.84,0,0,0-4.42-1c-3.86,0-5.9,3-5.9,6.67s2,6.67,6,6.67a12.83,12.83,0,0,0,4.37-1l0.24,2.11a11.87,11.87,0,0,1-4.63,1C2051.81,6230.72,2048.26,6227.31,2048.26,6222Z" transform="translate(-2026.54 -6095.77)"/><path class="cls-2" d="M2062.54,6224.5c0-3.41,2.14-6.12,5.83-6.12s5.83,2.71,5.83,6.12-2.16,6.12-5.83,6.12S2062.54,6227.91,2062.54,6224.5Zm2.21,0c0,2.64,1.3,4.2,3.62,4.2s3.62-1.56,3.62-4.2-1.3-4.2-3.62-4.2S2064.75,6221.86,2064.75,6224.5Z" transform="translate(-2026.54 -6095.77)"/><path class="cls-2" d="M2092.52,6230.38v-6.91c0-2.21-.82-3.17-2.76-3.17-2.76,0-3.12,1.94-3.12,3.26v6.82h-2.16v-6.48c0-2.88-1.13-3.6-2.76-3.6a3.4,3.4,0,0,0-3.12,1.54v8.54h-2.16v-11.76h1.68l0.24,1.25a4.72,4.72,0,0,1,3.53-1.49,4.17,4.17,0,0,1,4,2.35,4.42,4.42,0,0,1,4.3-2.35c3,0,4.51,1.61,4.51,5.06v6.94h-2.16Z" transform="translate(-2026.54 -6095.77)"/><path class="cls-2" d="M2113.56,6230.38v-6.91c0-2.21-.82-3.17-2.76-3.17-2.76,0-3.12,1.94-3.12,3.26v6.82h-2.16v-6.48c0-2.88-1.13-3.6-2.76-3.6a3.4,3.4,0,0,0-3.12,1.54v8.54h-2.16v-11.76h1.68l0.24,1.25a4.72,4.72,0,0,1,3.53-1.49,4.17,4.17,0,0,1,4,2.35,4.42,4.42,0,0,1,4.3-2.35c3,0,4.51,1.61,4.51,5.06v6.94h-2.16Z" transform="translate(-2026.54 -6095.77)"/><path class="cls-2" d="M2126.26,6230.38l-0.24-1.3a3.64,3.64,0,0,1-3.26,1.54c-2.76,0-4.34-1.63-4.34-5.16v-6.84h2.16v6.24c0,2.5.79,3.84,2.74,3.84a3.07,3.07,0,0,0,2.71-1.34v-8.74h2.16v11.76h-1.92Z" transform="translate(-2026.54 -6095.77)"/><path class="cls-2" d="M2139.56,6230.38v-6.48c0-2.5-.84-3.6-3.07-3.6a3.56,3.56,0,0,0-3.22,1.54v8.54h-2.16v-11.76h1.68l0.24,1.25a5.48,5.48,0,0,1,3.89-1.49c3.43,0,4.8,2.14,4.8,5.52v6.48h-2.16Z" transform="translate(-2026.54 -6095.77)"/><path class="cls-2" d="M2144.52,6216v-2.4h2.16v2.4h-2.16Zm0,14.4v-11.76h2.16v11.76h-2.16Z" transform="translate(-2026.54 -6095.77)"/><path class="cls-2" d="M2148.94,6224.48c0-3.43,1.92-6.1,5.83-6.1a7.61,7.61,0,0,1,3.62.7l-0.34,1.94a6.87,6.87,0,0,0-3-.72c-2.62,0-3.86,1.56-3.86,4.18s1.25,4.25,3.86,4.25a7,7,0,0,0,3.07-.72l0.29,1.73a6,6,0,0,1-3.58.89C2150.88,6230.62,2148.94,6227.77,2148.94,6224.48Z" transform="translate(-2026.54 -6095.77)"/><path class="cls-2" d="M2170,6230.62h-0.17c-2.09,0-2.54-.62-3-1.73a4.65,4.65,0,0,1-3.6,1.73,3.36,3.36,0,0,1-3.62-3.41c0-3.31,4-4.15,7-4.2,0-2.23-.91-2.71-2.57-2.71a5.12,5.12,0,0,0-3.1,1.06l-0.31-1.75a6.78,6.78,0,0,1,4-1.22c3,0,4.15,1.39,4.15,5.64v2.4c0,1.68.1,2.47,1.34,2.47h0.22Zm-3.38-6.12c-3.43.12-4.82,0.84-4.82,2.59a1.63,1.63,0,0,0,1.82,1.8,3.81,3.81,0,0,0,3-1.58v-2.81Z" transform="translate(-2026.54 -6095.77)"/><path class="cls-2" d="M2177.79,6230.62h-1.94a2.72,2.72,0,0,1-3.07-2.81v-7.51h-2l0.19-1.68h1.82v-2.9l2.16-.22v3.12h3.1v1.68h-3.1v6.19c0,2.26.14,2.4,2.47,2.4H2178Z" transform="translate(-2026.54 -6095.77)"/><path class="cls-2" d="M2181.27,6224.5c0.31,3.26,2.18,4.2,4.42,4.2a8.47,8.47,0,0,0,3.38-.7l0.29,1.7a9.4,9.4,0,0,1-3.94.91,5.94,5.94,0,0,1-6.36-6.22c0-3.29,2.11-6,5.76-6a4.7,4.7,0,0,1,5.06,5,6.73,6.73,0,0,1-.1,1.15h-8.52Zm0.19-1.49h6.19c0-1.66-.91-2.71-2.88-2.71A3.12,3.12,0,0,0,2181.46,6223Z" transform="translate(-2026.54 -6095.77)"/><path class="cls-2" d="M2203.54,6215.65v14.74h-2.28v-14.74h-4.9v-2.06h12.07v2.06h-4.9Z" transform="translate(-2026.54 -6095.77)"/><path class="cls-2" d="M2207.67,6224.5c0-3.41,2.14-6.12,5.83-6.12s5.83,2.71,5.83,6.12-2.16,6.12-5.83,6.12S2207.67,6227.91,2207.67,6224.5Zm2.21,0c0,2.64,1.3,4.2,3.62,4.2s3.62-1.56,3.62-4.2-1.3-4.2-3.62-4.2S2209.87,6221.86,2209.87,6224.5Z" transform="translate(-2026.54 -6095.77)"/><path class="cls-2" d="M2227.42,6230.38v-16.8h2.28v16.8h-2.28Z" transform="translate(-2026.54 -6095.77)"/><path class="cls-2" d="M2241.31,6230.38v-6.48c0-2.5-.84-3.6-3.07-3.6a3.56,3.56,0,0,0-3.22,1.54v8.54h-2.16v-11.76h1.68l0.24,1.25a5.48,5.48,0,0,1,3.89-1.49c3.43,0,4.8,2.14,4.8,5.52v6.48h-2.16Z" transform="translate(-2026.54 -6095.77)"/><path class="cls-2" d="M2249.14,6220.3v10.08H2247V6220.3h-2l0.29-1.68H2247v-3c0-1.9.94-3.26,2.74-3.26a6.66,6.66,0,0,1,2.45.31l-0.34,1.82a4.57,4.57,0,0,0-1.44-.22c-1.13,0-1.25.48-1.25,2.88v1.44h3.17v1.68h-3.17Z" transform="translate(-2026.54 -6095.77)"/><path class="cls-2" d="M2257.82,6230.62h-0.7c-2.28,0-3-1.42-3-2.83v-15.41h2.16v14.16c0,2,.24,2.35,1.9,2.35Z" transform="translate(-2026.54 -6095.77)"/><path class="cls-2" d="M2267.5,6230.38l-0.24-1.3a3.64,3.64,0,0,1-3.26,1.54c-2.76,0-4.34-1.63-4.34-5.16v-6.84h2.16v6.24c0,2.5.79,3.84,2.74,3.84a3.07,3.07,0,0,0,2.71-1.34v-8.74h2.16v11.76h-1.92Z" transform="translate(-2026.54 -6095.77)"/><path class="cls-2" d="M2273.83,6224.5c0.31,3.26,2.18,4.2,4.42,4.2a8.47,8.47,0,0,0,3.38-.7l0.29,1.7a9.4,9.4,0,0,1-3.94.91,5.94,5.94,0,0,1-6.36-6.22c0-3.29,2.11-6,5.76-6a4.7,4.7,0,0,1,5.06,5,6.73,6.73,0,0,1-.1,1.15h-8.52ZM2274,6223h6.19c0-1.66-.91-2.71-2.88-2.71A3.12,3.12,0,0,0,2274,6223Z" transform="translate(-2026.54 -6095.77)"/><path class="cls-2" d="M2293.08,6230.38v-6.48c0-2.5-.84-3.6-3.07-3.6a3.56,3.56,0,0,0-3.22,1.54v8.54h-2.16v-11.76h1.68l0.24,1.25a5.48,5.48,0,0,1,3.89-1.49c3.43,0,4.8,2.14,4.8,5.52v6.48h-2.16Z" transform="translate(-2026.54 -6095.77)"/><path class="cls-2" d="M2297.38,6224.48c0-3.43,1.92-6.1,5.83-6.1a7.61,7.61,0,0,1,3.62.7l-0.34,1.94a6.87,6.87,0,0,0-3-.72c-2.62,0-3.86,1.56-3.86,4.18s1.25,4.25,3.86,4.25a7,7,0,0,0,3.07-.72l0.29,1.73a6,6,0,0,1-3.58.89C2299.32,6230.62,2297.38,6227.77,2297.38,6224.48Z" transform="translate(-2026.54 -6095.77)"/><path class="cls-2" d="M2310.27,6224.5c0.31,3.26,2.18,4.2,4.42,4.2a8.47,8.47,0,0,0,3.38-.7l0.29,1.7a9.4,9.4,0,0,1-3.94.91,5.94,5.94,0,0,1-6.36-6.22c0-3.29,2.11-6,5.76-6a4.7,4.7,0,0,1,5.06,5,6.73,6.73,0,0,1-.1,1.15h-8.52Zm0.19-1.49h6.19c0-1.66-.91-2.71-2.88-2.71A3.12,3.12,0,0,0,2310.46,6223Z" transform="translate(-2026.54 -6095.77)"/><path class="cls-3" d="M2198.49,6119.82a1.75,1.75,0,0,0-1.66-.12l-20.5,9.25-3.83-2,1.08-.65,16.18-7.66a1.74,1.74,0,1,0-1.49-3.15l-19.63,9.29a1.74,1.74,0,0,0-1,1.58v33a1.74,1.74,0,0,0,1,1.58l7.34,3.45a1.75,1.75,0,0,0,.74.16,1.79,1.79,0,0,0,.7-0.15l20.81-9.14a1.74,1.74,0,0,0,1-1.6v-32.36A1.75,1.75,0,0,0,2198.49,6119.82Z" transform="translate(-2026.54 -6095.77)"/></svg>