<svg id="Interactive_elements" data-name="Interactive elements" xmlns="http://www.w3.org/2000/svg" viewBox="0 0 313.85 150.56"><defs><style>.cls-1{fill:#e8f3fc;}.cls-2{fill:#2e8bbd;}.cls-3{fill:#6cc5f5;}</style></defs><title>button_twitter</title><path class="cls-1" d="M2324.88,6269.1H2040.06c-8,0-14.52,6.52-14.52,12.78v125c0,6.26,6.53,12.78,14.52,12.78h284.82c8,0,14.52-6.52,14.52-12.78v-125C2339.39,6275.63,2332.86,6269.1,2324.88,6269.1Z" transform="translate(-2025.54 -6269.1)"/><path class="cls-2" d="M2061.93,6370.28v4.92h6.14v2.06h-6.14V6385h-2.28v-16.8h10.25v2.06h-8Z" transform="translate(-2025.54 -6269.1)"/><path class="cls-2" d="M2070,6379.13c0-3.41,2.14-6.12,5.83-6.12s5.83,2.71,5.83,6.12-2.16,6.12-5.83,6.12S2070,6382.54,2070,6379.13Zm2.21,0c0,2.64,1.3,4.2,3.62,4.2s3.62-1.56,3.62-4.2-1.3-4.2-3.62-4.2S2072.2,6376.49,2072.2,6379.13Z" transform="translate(-2025.54 -6269.1)"/><path class="cls-2" d="M2087.61,6385.25h-0.7c-2.28,0-3-1.42-3-2.83V6367H2086v14.16c0,2,.24,2.35,1.9,2.35Z" transform="translate(-2025.54 -6269.1)"/><path class="cls-2" d="M2093.27,6385.25h-0.7c-2.28,0-3-1.42-3-2.83V6367h2.16v14.16c0,2,.24,2.35,1.9,2.35Z" transform="translate(-2025.54 -6269.1)"/><path class="cls-2" d="M2094.4,6379.13c0-3.41,2.14-6.12,5.83-6.12s5.83,2.71,5.83,6.12-2.16,6.12-5.83,6.12S2094.4,6382.54,2094.4,6379.13Zm2.21,0c0,2.64,1.3,4.2,3.62,4.2s3.62-1.56,3.62-4.2-1.3-4.2-3.62-4.2S2096.61,6376.49,2096.61,6379.13Z" transform="translate(-2025.54 -6269.1)"/><path class="cls-2" d="M2120.3,6385h-2.42l-2.45-8.69L2113,6385h-2.42l-3.53-11.76h2.54l2.26,9.38,2.5-9h2.23l2.52,9,2.26-9.38h2.54Z" transform="translate(-2025.54 -6269.1)"/><path class="cls-2" d="M2131.43,6385v-16.8h6.22c4.87,0,8.35,3.1,8.35,8.4s-3.48,8.4-8.35,8.4h-6.22Zm2.28-14.74v12.67h3.94c3.84,0,5.86-2.57,5.86-6.34s-2-6.34-5.86-6.34h-3.94Z" transform="translate(-2025.54 -6269.1)"/><path class="cls-2" d="M2149.77,6379.13c0.31,3.26,2.18,4.2,4.42,4.2a8.47,8.47,0,0,0,3.38-.7l0.29,1.7a9.4,9.4,0,0,1-3.94.91,5.94,5.94,0,0,1-6.36-6.22c0-3.29,2.11-6,5.76-6a4.7,4.7,0,0,1,5.06,5,6.73,6.73,0,0,1-.1,1.15h-8.52Zm0.19-1.49h6.19c0-1.66-.91-2.71-2.88-2.71A3.12,3.12,0,0,0,2150,6377.64Z" transform="translate(-2025.54 -6269.1)"/><path class="cls-2" d="M2159.89,6379.11c0-3.43,1.92-6.1,5.83-6.1a7.61,7.61,0,0,1,3.62.7l-0.34,1.94a6.87,6.87,0,0,0-3-.72c-2.62,0-3.86,1.56-3.86,4.18s1.25,4.25,3.86,4.25a7,7,0,0,0,3.07-.72l0.29,1.73a6,6,0,0,1-3.58.89C2161.84,6385.25,2159.89,6382.4,2159.89,6379.11Z" transform="translate(-2025.54 -6269.1)"/><path class="cls-2" d="M2171.44,6385v-18h2.16v11.54l4.32-5.3h2.64l-4.85,5.42,5,6.34H2178l-4.44-6v6h-2.16Z" transform="translate(-2025.54 -6269.1)"/><path class="cls-2" d="M2183.17,6379.13c0.31,3.26,2.18,4.2,4.42,4.2a8.47,8.47,0,0,0,3.38-.7l0.29,1.7a9.4,9.4,0,0,1-3.94.91A5.94,5.94,0,0,1,2181,6379c0-3.29,2.11-6,5.76-6a4.7,4.7,0,0,1,5.06,5,6.73,6.73,0,0,1-.1,1.15h-8.52Zm0.19-1.49h6.19c0-1.66-.91-2.71-2.88-2.71A3.12,3.12,0,0,0,2183.37,6377.64Z" transform="translate(-2025.54 -6269.1)"/><path class="cls-2" d="M2199.71,6375.2H2199a3.58,3.58,0,0,0-2.69,1.51v8.3H2194v-11.76h1.78l0.26,1.94c1.42-1.61,2.54-2.38,4-2.38h0.19Z" transform="translate(-2025.54 -6269.1)"/><path class="cls-2" d="M2206.38,6379.13c0-3.41,2.14-6.12,5.83-6.12s5.83,2.71,5.83,6.12-2.16,6.12-5.83,6.12S2206.38,6382.54,2206.38,6379.13Zm2.21,0c0,2.64,1.3,4.2,3.62,4.2s3.62-1.56,3.62-4.2-1.3-4.2-3.62-4.2S2208.59,6376.49,2208.59,6379.13Z" transform="translate(-2025.54 -6269.1)"/><path class="cls-2" d="M2228.73,6385v-6.48c0-2.5-.84-3.6-3.07-3.6a3.56,3.56,0,0,0-3.22,1.54V6385h-2.16v-11.76H2222l0.24,1.25a5.48,5.48,0,0,1,3.89-1.49c3.43,0,4.8,2.14,4.8,5.52V6385h-2.16Z" transform="translate(-2025.54 -6269.1)"/><path class="cls-2" d="M2245.17,6370.28V6385h-2.28v-14.74H2238v-2.06h12.07v2.06h-4.9Z" transform="translate(-2025.54 -6269.1)"/><path class="cls-2" d="M2262.23,6385h-2.42l-2.45-8.69-2.47,8.69h-2.42l-3.53-11.76h2.54l2.26,9.38,2.5-9h2.23l2.52,9,2.26-9.38h2.54Z" transform="translate(-2025.54 -6269.1)"/><path class="cls-2" d="M2267.51,6370.61v-2.4h2.16v2.4h-2.16Zm0,14.4v-11.76h2.16V6385h-2.16Z" transform="translate(-2025.54 -6269.1)"/><path class="cls-2" d="M2278.6,6385.25h-1.94a2.72,2.72,0,0,1-3.07-2.81v-7.51h-2l0.19-1.68h1.82v-2.9l2.16-.22v3.12h3.1v1.68h-3.1v6.19c0,2.26.14,2.4,2.47,2.4h0.55Z" transform="translate(-2025.54 -6269.1)"/><path class="cls-2" d="M2286.68,6385.25h-1.94a2.72,2.72,0,0,1-3.07-2.81v-7.51h-2l0.19-1.68h1.82v-2.9l2.16-.22v3.12h3.1v1.68h-3.1v6.19c0,2.26.14,2.4,2.47,2.4h0.55Z" transform="translate(-2025.54 -6269.1)"/><path class="cls-2" d="M2290.16,6379.13c0.31,3.26,2.18,4.2,4.42,4.2a8.47,8.47,0,0,0,3.38-.7l0.29,1.7a9.4,9.4,0,0,1-3.94.91A5.94,5.94,0,0,1,2288,6379c0-3.29,2.11-6,5.76-6a4.7,4.7,0,0,1,5.06,5,6.73,6.73,0,0,1-.1,1.15h-8.52Zm0.19-1.49h6.19c0-1.66-.91-2.71-2.88-2.71A3.12,3.12,0,0,0,2290.36,6377.64Z" transform="translate(-2025.54 -6269.1)"/><path class="cls-2" d="M2306.7,6375.2H2306a3.58,3.58,0,0,0-2.69,1.51v8.3H2301v-11.76h1.78l0.26,1.94c1.42-1.61,2.54-2.38,4-2.38h0.19Z" transform="translate(-2025.54 -6269.1)"/><path class="cls-3" d="M2205.93,6308.6a19.25,19.25,0,0,1-5.53,1.52,9.66,9.66,0,0,0,4.23-5.33,19.28,19.28,0,0,1-6.11,2.34,9.64,9.64,0,0,0-16.41,8.78,27.34,27.34,0,0,1-19.85-10.06,9.64,9.64,0,0,0,3,12.86,9.59,9.59,0,0,1-4.36-1.2s0,0.08,0,.12a9.64,9.64,0,0,0,7.72,9.44,9.65,9.65,0,0,1-4.35.16,9.64,9.64,0,0,0,9,6.69,19.32,19.32,0,0,1-12,4.12,19.54,19.54,0,0,1-2.3-.13,27.25,27.25,0,0,0,14.76,4.33c17.71,0,27.4-14.67,27.4-27.4q0-.63,0-1.25A19.56,19.56,0,0,0,2205.93,6308.6Z" transform="translate(-2025.54 -6269.1)"/></svg>