<svg id="Interactive_elements" data-name="Interactive elements" xmlns="http://www.w3.org/2000/svg" viewBox="0 0 42.8 40.89"><defs><style>.cls-1{fill:#6cc5f5;}</style></defs><title>icon_linkedin</title><path class="cls-1" d="M2879.2,6326.51v15.82H2870v-14.76c0-3.71-1.33-6.24-4.65-6.24a5,5,0,0,0-4.71,3.35,6.29,6.29,0,0,0-.3,2.24v15.41h-9.18s0.12-25,0-27.59h9.18v3.91l-0.06.09h0.06v-0.09a9.11,9.11,0,0,1,8.27-4.56c6,0,10.56,3.94,10.56,12.42h0Zm-37.6-25.07c-3.14,0-5.19,2.06-5.19,4.77a4.75,4.75,0,0,0,5.07,4.77h0.06c3.2,0,5.19-2.12,5.19-4.77a4.77,4.77,0,0,0-5.13-4.77h0Zm-4.65,40.89h9.17v-27.59h-9.17v27.59Zm0,0" transform="translate(-2836.4 -6301.43)"/></svg>