<svg id="Interactive_elements" data-name="Interactive elements" xmlns="http://www.w3.org/2000/svg" viewBox="0 0 31.65 49.19"><defs><style>.cls-1{fill:#c53a43;}</style></defs><title>icon_book</title><path class="cls-1" d="M2198.49,6119.82a1.75,1.75,0,0,0-1.66-.12l-20.5,9.25-3.83-2,1.08-.65,16.18-7.66a1.74,1.74,0,1,0-1.49-3.15l-19.63,9.29a1.74,1.74,0,0,0-1,1.58v33a1.74,1.74,0,0,0,1,1.58l7.34,3.45a1.75,1.75,0,0,0,.74.16,1.79,1.79,0,0,0,.7-0.15l20.81-9.14a1.74,1.74,0,0,0,1-1.6v-32.36A1.75,1.75,0,0,0,2198.49,6119.82Z" transform="translate(-2167.64 -6115.34)"/></svg>