<svg id="Interactive_elements" data-name="Interactive elements" xmlns="http://www.w3.org/2000/svg" viewBox="0 0 46.93 38.14"><defs><style>.cls-1{fill:#6cc5f5;}</style></defs><title>icon_twitter</title><path class="cls-1" d="M2205.93,6308.6a19.25,19.25,0,0,1-5.53,1.52,9.66,9.66,0,0,0,4.23-5.33,19.28,19.28,0,0,1-6.11,2.34,9.64,9.64,0,0,0-16.41,8.78,27.34,27.34,0,0,1-19.85-10.06,9.64,9.64,0,0,0,3,12.86,9.59,9.59,0,0,1-4.36-1.2s0,0.08,0,.12a9.64,9.64,0,0,0,7.72,9.44,9.65,9.65,0,0,1-4.35.16,9.64,9.64,0,0,0,9,6.69,19.32,19.32,0,0,1-12,4.12,19.54,19.54,0,0,1-2.3-.13,27.25,27.25,0,0,0,14.76,4.33c17.71,0,27.4-14.67,27.4-27.4q0-.63,0-1.25A19.56,19.56,0,0,0,2205.93,6308.6Z" transform="translate(-2159 -6304.09)"/></svg>