<svg id="Interactive_elements" data-name="Interactive elements" xmlns="http://www.w3.org/2000/svg" viewBox="0 0 311.06 315.06"><defs><style>.cls-1{fill:#e8f3fc;}.cls-2{fill:#c53a43;}.cls-3{fill:#999;}.cls-4{fill:#dcdcdc;}.cls-5,.cls-7{fill:#fff;}.cls-5{stroke:#777;stroke-linecap:round;stroke-miterlimit:10;stroke-width:0.37px;}.cls-6{fill:red;}.cls-8{fill:#c43c43;}.cls-9{fill:#777;}</style></defs><title>laptop-question-mark</title><circle class="cls-1" cx="88.28" cy="88.28" r="88.28"/><path class="cls-2" d="M1088.41,2855a46.66,46.66,0,0,1,5-3.83,36,36,0,0,1,5.88-3.16,36.6,36.6,0,0,1,6.85-2.12,39.09,39.09,0,0,1,8-.77,33.31,33.31,0,0,1,10.65,1.61,24,24,0,0,1,8.23,4.6,20.53,20.53,0,0,1,5.31,7.22,23.09,23.09,0,0,1,1.88,9.47,23.94,23.94,0,0,1-1.48,8.84,24.35,24.35,0,0,1-3.73,6.48,29.62,29.62,0,0,1-4.87,4.77q-2.62,2-5,3.8a39.23,39.23,0,0,0-4.06,3.49,6.9,6.9,0,0,0-2,3.86l-1.55,9.81h-11.36l-1.14-11a3,3,0,0,1-.07-0.57V2897a9,9,0,0,1,1.48-5.14,21,21,0,0,1,3.7-4.1q2.22-1.91,4.77-3.73a42.82,42.82,0,0,0,4.77-3.93,19.79,19.79,0,0,0,3.7-4.8,12.91,12.91,0,0,0,1.48-6.32,10,10,0,0,0-.91-4.33,9.8,9.8,0,0,0-2.52-3.29,11.33,11.33,0,0,0-3.86-2.12,15.55,15.55,0,0,0-4.87-.74,21.71,21.71,0,0,0-6.48.84,24,24,0,0,0-4.5,1.88q-1.85,1-3.12,1.88a4.29,4.29,0,0,1-2.28.84,3.67,3.67,0,0,1-3.49-2Zm12.7,79.22a10.33,10.33,0,0,1,.77-4A9.47,9.47,0,0,1,1104,2927a10.58,10.58,0,0,1,3.26-2.15,10.13,10.13,0,0,1,4-.81,10,10,0,0,1,4,.81,9.88,9.88,0,0,1,5.38,5.38,10.23,10.23,0,0,1,0,8,10.26,10.26,0,0,1-2.15,3.19,9.72,9.72,0,0,1-3.23,2.12,10.35,10.35,0,0,1-4,.77,10.51,10.51,0,0,1-4-.77,10.08,10.08,0,0,1-3.26-2.12,9.53,9.53,0,0,1-2.15-3.19A10.25,10.25,0,0,1,1101.1,2934.17Z" transform="translate(-1026.22 -2804.2)"/><rect class="cls-3" x="131.36" y="235.23" width="171.76" height="19.19"/><path class="cls-3" d="M1331.74,3054.93l0,4.63a10.57,10.57,0,0,1-2.6,6.33l-49.78,51a9,9,0,0,1-6.26,2.36L1094,3105.73a7.88,7.88,0,0,1-5.52-3.39l-1.84-3.12" transform="translate(-1026.22 -2804.2)"/><polygon class="cls-4" points="124.24 123.48 124.3 240.82 305.52 247.78 305.52 116.42 124.24 123.48"/><path class="cls-5" d="M1245.49,2933.63a4.58,4.58,0,0,1-4.39,4.57,4.25,4.25,0,0,1-4.39-4.28,4.6,4.6,0,0,1,4.39-4.57A4.23,4.23,0,0,1,1245.49,2933.63Z" transform="translate(-1026.22 -2804.2)"/><path class="cls-5" d="M1238.2,2934.17a3.36,3.36,0,0,1,3.21-3.34" transform="translate(-1026.22 -2804.2)"/><path class="cls-6" d="M1232.7,2934a2.52,2.52,0,0,1-2.42,2.51,2.33,2.33,0,0,1-2.42-2.35,2.52,2.52,0,0,1,2.42-2.51A2.33,2.33,0,0,1,1232.7,2934Z" transform="translate(-1026.22 -2804.2)"/><polygon class="cls-7" points="297.72 238.5 132.1 233.03 132.06 141.21 297.72 136.72 297.72 238.5"/><polygon class="cls-4" points="249.8 306.09 60.41 295.02 124.12 243.65 305.52 250.73 249.8 306.09"/><path class="cls-3" d="M1331.42,2920.62l2.92,1.88a7.34,7.34,0,0,1,2.92,5.57V3046.5c0,2-1.25,4.09-2.77,4.59l-2.77.9" transform="translate(-1026.22 -2804.2)"/><path class="cls-8" d="M1254.51,2977.2a3.83,3.83,0,0,0-.46-0.12,3.71,3.71,0,0,0-.8-0.06,2.83,2.83,0,0,0-1.31.32,2.94,2.94,0,0,0-.94.8,3.56,3.56,0,0,0-.57,1.12,4.38,4.38,0,0,0-.2,1.26,5.13,5.13,0,0,0,.17,1.39,3.36,3.36,0,0,0,.53,1.12,2.5,2.5,0,0,0,.87.74,2.46,2.46,0,0,0,1.18.26,2.34,2.34,0,0,0,.87-0.17,2,2,0,0,0,.64-0.44l0.06,0.44h1l0.08-9.33-1.14,0Zm-0.17,1,0.16,0.07,0,4a1.67,1.67,0,0,1-1.34.71,1.57,1.57,0,0,1-.79-0.18,1.62,1.62,0,0,1-.55-0.51,2.28,2.28,0,0,1-.33-0.78,4.2,4.2,0,0,1-.1-1,3.52,3.52,0,0,1,.13-0.92,2.56,2.56,0,0,1,.38-0.81,2,2,0,0,1,.63-0.57,1.85,1.85,0,0,1,.89-0.23l0.33,0,0.33,0.07Z" transform="translate(-1026.22 -2804.2)"/><path class="cls-8" d="M1258.11,2974.46a0.67,0.67,0,0,0-.52.28,1,1,0,0,0-.22.61,0.9,0.9,0,0,0,.21.61,0.63,0.63,0,0,0,.51.24,0.68,0.68,0,0,0,.52-0.27,1,1,0,0,0,.22-0.62,0.91,0.91,0,0,0-.21-0.6A0.63,0.63,0,0,0,1258.11,2974.46Z" transform="translate(-1026.22 -2804.2)"/><polygon class="cls-8" points="231.24 179.63 232.39 179.62 232.44 172.87 231.29 172.9 231.24 179.63"/><path class="cls-8" d="M1265.27,2982.63a3.17,3.17,0,0,0-1-.31,9.41,9.41,0,0,0-1.36-.09,3.93,3.93,0,0,1-1.06-.1c-0.24-.08-0.24-0.2-0.24-0.24a0.28,0.28,0,0,1,.14-0.24,0.87,0.87,0,0,1,.34-0.14l0.38,0,0.42,0a3.69,3.69,0,0,0,1-.16,2.61,2.61,0,0,0,.88-0.46,2.29,2.29,0,0,0,.86-1.83,2.23,2.23,0,0,0-.14-0.83,2.37,2.37,0,0,0-.33-0.59l0.84-.93-0.73-.73-0.93,1a2.87,2.87,0,0,0-.66-0.21,3.55,3.55,0,0,0-1.73.1,2.73,2.73,0,0,0-.86.45,2.23,2.23,0,0,0-.86,1.81,2.17,2.17,0,0,0,.11.75,2.25,2.25,0,0,0,.29.56,1.92,1.92,0,0,0,.38.4l0.19,0.14a1.69,1.69,0,0,0-.53.33,0.93,0.93,0,0,0-.31.71,0.85,0.85,0,0,0,.17.55,1.1,1.1,0,0,0,.27.25,1.82,1.82,0,0,0-.82,1.58,1.69,1.69,0,0,0,.83,1.58,5.24,5.24,0,0,0,3.44.32,3.11,3.11,0,0,0,.95-0.43,2.19,2.19,0,0,0,.65-0.71,2,2,0,0,0,.25-1,2.06,2.06,0,0,0-.21-1A1.55,1.55,0,0,0,1265.27,2982.63Zm-4,1.06a1.51,1.51,0,0,1,.49-0.44,10.5,10.5,0,0,0,1.15.06h0a8.46,8.46,0,0,1,1.1.07,2.17,2.17,0,0,1,.67.19,0.71,0.71,0,0,1,.33.31,1,1,0,0,1,.09.46,1,1,0,0,1-.52.86,2.63,2.63,0,0,1-1.39.35,4.31,4.31,0,0,1-.87-0.07,2.41,2.41,0,0,1-.67-0.23,1.2,1.2,0,0,1-.43-0.36,0.83,0.83,0,0,1-.15-0.5A1.21,1.21,0,0,1,1261.23,2983.69Zm0.13-4.48a1.29,1.29,0,0,1,.13-0.59,1.26,1.26,0,0,1,.35-0.42,1.65,1.65,0,0,1,.51-0.26,2,2,0,0,1,1.18,0,1.54,1.54,0,0,1,.5.24,1.17,1.17,0,0,1,.34.41,1.22,1.22,0,0,1,.12.57,1.45,1.45,0,0,1-.15.67,1.25,1.25,0,0,1-.38.44,1.63,1.63,0,0,1-.52.25,2,2,0,0,1-1.22,0,1.47,1.47,0,0,1-.48-0.31,1.36,1.36,0,0,1-.3-0.44A1.4,1.4,0,0,1,1261.36,2979.21Z" transform="translate(-1026.22 -2804.2)"/><polygon class="cls-8" points="241.2 179.5 242.35 179.48 242.41 172.66 241.26 172.69 241.2 179.5"/><path class="cls-8" d="M1268.07,2974.22a0.67,0.67,0,0,0-.52.28,1,1,0,0,0-.22.62,0.92,0.92,0,0,0,.21.62,0.63,0.63,0,0,0,.51.25,0.67,0.67,0,0,0,.52-0.27,1,1,0,0,0,.22-0.63,0.93,0.93,0,0,0-.21-0.61A0.62,0.62,0,0,0,1268.07,2974.22Z" transform="translate(-1026.22 -2804.2)"/><path class="cls-8" d="M1273.34,2982.37a2.05,2.05,0,0,1-.38.26,0.93,0.93,0,0,1-.43.11,0.53,0.53,0,0,1-.39-0.14,0.82,0.82,0,0,1-.14-0.58l0-4.18,1.6,0v-1.06l-1.59,0V2975l-1.14,0v1.82l-1,0v1.05l1,0,0,4.29a1.71,1.71,0,0,0,.38,1.24,1.44,1.44,0,0,0,1.11.39,2,2,0,0,0,.84-0.16,3.22,3.22,0,0,0,.6-0.4l0.06,0-0.45-.88Z" transform="translate(-1026.22 -2804.2)"/><path class="cls-8" d="M1277.12,2976.51a2.87,2.87,0,0,0-1.3.3,2.57,2.57,0,0,0-.91.85l0,0.07,0.81,0.62,0-.07a1.89,1.89,0,0,1,.57-0.53,1.47,1.47,0,0,1,.73-0.21,1.09,1.09,0,0,1,.88.32,1.71,1.71,0,0,1,.29,1.14,7.58,7.58,0,0,0-1.19.14,4.33,4.33,0,0,0-1.21.42,2.75,2.75,0,0,0-.92.78,2,2,0,0,0-.38,1.24,2.26,2.26,0,0,0,.18.95,2,2,0,0,0,.48.67,2,2,0,0,0,.68.4,2.33,2.33,0,0,0,.79.13,2.26,2.26,0,0,0,.94-0.21,2.37,2.37,0,0,0,.64-0.45l0,0.48h1l0-4.48a2.74,2.74,0,0,0-.58-2A2.14,2.14,0,0,0,1277.12,2976.51Zm1.06,3.54,0,2a3.1,3.1,0,0,1-.63.46,1.52,1.52,0,0,1-1.18.15,1,1,0,0,1-.35-0.19,1,1,0,0,1-.36-0.85,1.16,1.16,0,0,1,.25-0.76,1.65,1.65,0,0,1,.63-0.46,3.39,3.39,0,0,1,.85-0.23C1277.66,2980.09,1277.93,2980.06,1278.18,2980Z" transform="translate(-1026.22 -2804.2)"/><polygon class="cls-8" points="255.02 169.71 254.94 179.32 256.07 179.31 256.15 169.68 255.02 169.71"/><path class="cls-9" d="M1209.75,2984.53h0c-2.08-1.81-4.74-1.9-8-1.85l-9.41.16h-0.2v1.72h0.2l1.1,0c1.88,0,2.36.38,2.37,1.8l-0.12,13.28c0,1.42-.55,1.82-2.41,1.85H1192v1.72h0.2l9.35,0.08c3.33,0,6.1-.11,8.35-2.23A12.2,12.2,0,0,0,1213,2993C1213,2989.64,1211.74,2986.26,1209.75,2984.53Zm-8.18,17-2.88,0,0.15-17,2.91,0c5.6-.06,8,2.48,7.94,8.31C1209.61,2998.93,1207.27,3001.54,1201.57,3001.53Z" transform="translate(-1026.22 -2804.2)"/><path class="cls-9" d="M1258.16,3001.36a3.22,3.22,0,0,1-2.5-1.25l-4.29-5.15,3.24-2.81a4,4,0,0,1,2.94-1.21h0.6v-1.85H1258l-7.9.06h-0.2V2991h1.43a4.31,4.31,0,0,1,1,.07c0.2,0.06.2,0.1,0.2,0.14a1.62,1.62,0,0,1-.74,1l-4.37,3.7,0.13-16v-0.21h-0.2l-5.24.1h-0.2v1.78h0.92c1.58,0,1.95.29,2,1.39l-0.14,16.89c-0.06,1.22-.09,1.36-1.53,1.41h-0.92v1.81h0.2l7,0.06h0.2v-1.83h-0.63c-1.4-.06-1.5-0.15-1.53-1.43v-1.62l2-1.62,3.27,3.87a0.77,0.77,0,0,1,.27.49c0,0.1,0,.32-1.14.33h-0.89v1.83h0.2l7.47,0.07h0.2v-1.85h-0.6Z" transform="translate(-1026.22 -2804.2)"/><path class="cls-9" d="M1226.44,2991.58a5.13,5.13,0,0,0-1.48-1.69,6.23,6.23,0,0,0-3.82-1.09c-4,0-6.65,3-6.7,7.33s2.62,7.28,6.57,7.33h0c3.3,0,5.37-1.69,6-5v-0.07l0-.18h-2l0,0.15a3.76,3.76,0,0,1-3.9,3.1c-2.48,0-3.74-1.65-3.74-4.9h10v-0.21A9.58,9.58,0,0,0,1226.44,2991.58Zm-5.37-1c2.24,0,3.26,1.21,3.36,4h-6.86C1217.81,2992,1219,2990.63,1221.07,2990.61Z" transform="translate(-1026.22 -2804.2)"/><path class="cls-9" d="M1269.36,2989.58a6,6,0,0,0-3.82-1.15c-4,0-6.65,3.16-6.7,7.72s2.61,7.68,6.57,7.72h0c3.29,0,5.36-1.77,6-5.26v-0.07l0-.18h-2l0,0.16c-0.61,2.2-1.88,3.26-3.9,3.26-2.48,0-3.74-1.74-3.74-5.16h10v-0.22a10.66,10.66,0,0,0-1-4.94A5.37,5.37,0,0,0,1269.36,2989.58Zm-3.89.75c2.24,0,3.26,1.28,3.36,4.27H1262C1262.21,2991.81,1263.42,2990.35,1265.47,2990.33Z" transform="translate(-1026.22 -2804.2)"/><path class="cls-9" d="M1284.69,2991.43a3.12,3.12,0,0,0-3.2-3c-1.53,0-2.77.93-3.72,2.73l0-2v-0.22h-0.2l-4.84,0h-0.2v1.86h1c1.39,0,1.52.16,1.55,1.51L1275,3000c-0.06,1.34-.16,1.43-1.57,1.48h-1v1.89h0.2l7.9,0.07h0.2v-1.91h-1.52c-1.46-.06-1.49-0.22-1.53-1.5l0-3.36c0-4.23,2-6.44,3.64-6.45a1.45,1.45,0,0,1,.77.2,1.84,1.84,0,0,0-.45,1.21,1.57,1.57,0,0,0,1.45,1.71h0a1.79,1.79,0,0,0,1.52-1.88s0,0,0-.05h0Z" transform="translate(-1026.22 -2804.2)"/><path class="cls-9" d="M1236,3001.47c-2.48,0-4.06-2-4-5.27,0-3.63,1.61-5.71,4.23-5.73a3.48,3.48,0,0,1,3.15,1.37,1.69,1.69,0,0,0-.66,1.33,1.58,1.58,0,0,0,1.53,1.64,1.62,1.62,0,0,0,1.56-1.65v0h0a0.35,0.35,0,0,0,0,0h0c0-2.56-2.54-4.47-5.76-4.44-4.06,0-7,3.22-7.08,7.54s2.71,7.33,6.8,7.37h0c3.3,0,5.34-1.81,6-5.34H1240A3.92,3.92,0,0,1,1236,3001.47Z" transform="translate(-1026.22 -2804.2)"/></svg>