<svg id="Interactive_elements" data-name="Interactive elements" xmlns="http://www.w3.org/2000/svg" viewBox="0 0 181.62 126.06"><defs><style>.cls-1{fill:#c53a43;}</style></defs><title>step1</title><path class="cls-1" d="M3921.64,519.88a0.77,0.77,0,0,0-.26,1.13c2.32,3,4.61,5,6.62,7.42,0.81,0.95,18.47,20.54,19.55,21.64,2.31,2.39,5,4.73,6.65,6.31a14.75,14.75,0,0,1-4.66-1.29,14.51,14.51,0,0,0-2.46-1.14,2.09,2.09,0,0,0-2.1.27c-0.81.71-1.47,2.12-.92,2.77a3.75,3.75,0,0,0,1.68.5,26.85,26.85,0,0,1,2.8.72,80.11,80.11,0,0,0,10.16,2.34c1,0.17,1.62.26,2-.07a2.46,2.46,0,0,0,.4-1.91,23.66,23.66,0,0,0-2.16-9.11,23.63,23.63,0,0,1-1.25-3.78,2.9,2.9,0,0,0-.44-1.15,2.59,2.59,0,0,0-3.29-.37,0.72,0.72,0,0,0-.1.91c0.4,0.79,1,1.8,1.6,2.94a17.93,17.93,0,0,1,2.25,6.61l0,0a40.45,40.45,0,0,1-6.65-5.49c-1-.95-18.76-20.41-19.54-21.32-1.48-1.74-3.35-3.45-4.8-5.16a20.22,20.22,0,0,0-3-2.88A1.66,1.66,0,0,0,3921.64,519.88Z" transform="translate(-3779.49 -434.64)"/><path class="cls-1" d="M3788.61,451.8c-1.94,0-4.39-1.3-6-2.38a1.29,1.29,0,0,1-.7-0.89,0.84,0.84,0,0,1,.94-0.62,1.83,1.83,0,0,1,.79.19c1.63,0.77,2.83,1.51,4.7,1.51,0.74,0,1.49,0,1.49-.91a1.89,1.89,0,0,0-1.1-1.37c-1.58-1-4.39-1.44-5.78-1.85a6.57,6.57,0,0,1-2-.86,3,3,0,0,1-1.44-2.06,2.32,2.32,0,0,1,1.46-1.85c2.14-1.08,6.26-2.71,8.62-2.71,1.22,0,1.85.36,1.85,1.66a0.88,0.88,0,0,1-.82,1.06,2,2,0,0,1-.74-0.19,3.93,3.93,0,0,0-1.3-.17,4.7,4.7,0,0,0-1.42.19c-0.65.17-4.85,1.46-4.85,1.87a0.76,0.76,0,0,0,.34.46,6.51,6.51,0,0,0,1.39.58,36.6,36.6,0,0,1,4.68,1.63,6.9,6.9,0,0,1,2.76,2,3.22,3.22,0,0,1,.67,1.85C3792.14,450.7,3790.22,451.8,3788.61,451.8Z" transform="translate(-3779.49 -434.64)"/><path class="cls-1" d="M3803.88,444.77a5,5,0,0,1-3.67,1.2c-0.53,0-1.06,0-1.56,0a0.41,0.41,0,0,0-.46.36,9.2,9.2,0,0,0,.55,3,4.38,4.38,0,0,1,.53,1.51,1.24,1.24,0,0,1-1.27,1.13c-1.9,0-1.7-3.34-1.8-4.58a5.19,5.19,0,0,0-.36-1.49c-0.24-.62-2-0.53-2-1.87a1.12,1.12,0,0,1,1.3-1.22c0.19,0,.38,0,0.58,0s0.38-.07.36-0.19a26.4,26.4,0,0,1-.72-4.51,0.88,0.88,0,0,1,1-.91,1.88,1.88,0,0,1,1.92,1.54,1.27,1.27,0,0,1,0,.31,7.05,7.05,0,0,0-.26,1.87,12.84,12.84,0,0,0,.19,2.14,0.43,0.43,0,0,0,.46.41c0.6,0,1.2,0,1.78,0a5.88,5.88,0,0,0,2.16-.26,1.76,1.76,0,0,1,.91-0.41,0.89,0.89,0,0,1,.77,1A1.43,1.43,0,0,1,3803.88,444.77Z" transform="translate(-3779.49 -434.64)"/><path class="cls-1" d="M3816.4,451.32a8.05,8.05,0,0,1-4,.94,8.33,8.33,0,0,1-2.66-.38c-1.9-.6-4.42-1.7-4.42-4a5.92,5.92,0,0,1,0-.67c0.36-2.38,1.75-3.46,3.67-4.68a7.33,7.33,0,0,1,3.82-1.34c1.42,0,3.34.72,3.34,2.4a2.51,2.51,0,0,1-.77,1.75c-1.42,1.39-3,1.32-4.63,2.06a5.28,5.28,0,0,1-2,.48,1.36,1.36,0,0,1-1-.31c-0.1-.1-0.19-0.07-0.19.1,0,1.49,2.09,2,3.24,2.3a8.45,8.45,0,0,0,2.21.31,16.78,16.78,0,0,0,2.66-.31l0.19,0a0.75,0.75,0,0,1,.77.79A0.68,0.68,0,0,1,3816.4,451.32Zm-3-8.06a6,6,0,0,0-.91.14,9.11,9.11,0,0,0-4.44,2.3c-0.14.22,0,.26,0.22,0.14,0.79-.26,1.58-0.38,2.42-0.58,0.6-.12,3.12-0.86,3.12-1.58A0.41,0.41,0,0,0,3813.4,443.26Z" transform="translate(-3779.49 -434.64)"/><path class="cls-1" d="M3822.59,448.87a0.58,0.58,0,0,0-.62.5,3.23,3.23,0,0,0-.07.84c0,1.06.38,2.11,0.38,3.17,0,0.67-.34,2.47-1.22,2.47a1.71,1.71,0,0,1-1.1-1.08,8.91,8.91,0,0,1-.89-4.18c0-1.18.14-2.38,0.14-3.58a11.34,11.34,0,0,0-.43-3.1,1.45,1.45,0,0,1,0-.34c0-1.39,2.47-2.33,3.62-2.33a3.9,3.9,0,0,1,3.86,3.74A4.3,4.3,0,0,1,3822.59,448.87Zm-0.36-5.06c-0.6,0-.7.55-0.7,1a10.16,10.16,0,0,0,.14,1.8,0.16,0.16,0,0,0,.17.1,2,2,0,0,0,.53-0.1c0.7-.19,1.73-0.55,1.73-1.44S3823,443.81,3822.23,443.81Z" transform="translate(-3779.49 -434.64)"/><path class="cls-1" d="M3840.91,452.6a1.18,1.18,0,0,1-1-1.27c-0.29-2.59-.19-5.21-0.48-7.82-0.14-1.37-.17-2.74-0.22-4.13a10,10,0,0,0-.24-2.54,1.08,1.08,0,0,1-.12-0.46,1.13,1.13,0,0,1,1.27-.91c1.32,0,1.58,1.13,1.58,2.18s-0.1,2.35-.1,3.55c0,1,0,2,.12,3,0.1,1.27.07,2.52,0.12,3.79a6.9,6.9,0,0,0,.53,2.88,0.63,0.63,0,0,1,.07.29A1.73,1.73,0,0,1,3840.91,452.6Z" transform="translate(-3779.49 -434.64)"/><path class="cls-1" d="M3850.79,444.7a1.55,1.55,0,0,1-1.13.91,1,1,0,0,1-.36-0.07,2.2,2.2,0,0,1-1.7-2.06,1.26,1.26,0,0,1,1.37-1.27,2.29,2.29,0,0,1,1.06.26c0.46,0.24,1.37.5,1.37,1.13A2.39,2.39,0,0,1,3850.79,444.7Zm-1,6.12c-1.18,0-1.85-.31-1.85-1.66a1.47,1.47,0,0,1,1.58-1.54,2,2,0,0,1,2,1.94C3851.61,450.46,3850.58,450.82,3849.83,450.82Z" transform="translate(-3779.49 -434.64)"/><path class="cls-1" d="M3871.27,440.28a1.08,1.08,0,0,1-1.13-1,0.38,0.38,0,0,0-.12-0.41,2.68,2.68,0,0,0-1.2-.34c-2.23,0-4.66,3.29-5.45,5.11a6.91,6.91,0,0,0-.67,2.83,3.87,3.87,0,0,0,1.32,3,5.7,5.7,0,0,0,3.55.86c1.15,0,2.3-.17,3.46-0.17a1.09,1.09,0,0,1,1.32.86,1.29,1.29,0,0,1-1.1,1.25l-1.08,0c-0.77,0-1.54.07-2.3,0.07h-0.07a13.49,13.49,0,0,1-3.12-.31c-2.66-.62-4-3-4-5.59a8.27,8.27,0,0,1,1.32-4.42c1.46-2.33,3.77-5.59,6.84-5.59,1.34,0,3.65.46,3.65,2.18A1.3,1.3,0,0,1,3871.27,440.28Z" transform="translate(-3779.49 -434.64)"/><path class="cls-1" d="M3877.58,448.25c0,0.62,0,1.27-.1,1.87a0.73,0.73,0,0,1-.84.67,1.29,1.29,0,0,1-1.27-.91,9.69,9.69,0,0,1-.26-2.35c0-1.3.19-2.59,0.19-3.89a25.18,25.18,0,0,0-1.49-7,1,1,0,0,1-.07-0.36c0-.82,1.06-1.18,1.75-1.18a1.09,1.09,0,0,1,1.27.94c0.24,2.09.72,4.13,0.86,6.24,0,0.82.1,1.61,0.1,2.4C3877.72,445.85,3877.65,447.05,3877.58,448.25Z" transform="translate(-3779.49 -434.64)"/><path class="cls-1" d="M3882.88,439.51a3,3,0,0,1-.65.07,2.94,2.94,0,0,1-2.5-1.56,0.9,0.9,0,0,1-.17-0.5,1,1,0,0,1,1.18-.86c0.82,0,3.17.72,3.17,1.73A1.36,1.36,0,0,1,3882.88,439.51Zm0.38,11.54a1.34,1.34,0,0,1-1-.34,4.59,4.59,0,0,1-1.37-2.88c-0.07-1.22-.07-2.42-0.07-3.65v-1.63a0.78,0.78,0,0,1,.84-0.86,1.64,1.64,0,0,1,1.63,1.46c0,1.06-.31,2.09-0.31,3.12,0,2.28,1.85,3.24,1.85,3.91S3883.77,451.06,3883.27,451.06Z" transform="translate(-3779.49 -434.64)"/><path class="cls-1" d="M3897.79,444.36a1.18,1.18,0,0,1-1.06-.84,0.6,0.6,0,0,0-.65-0.31,16.63,16.63,0,0,0-4.85,1.58,3.34,3.34,0,0,0-2.18,2.3,0.41,0.41,0,0,0,0,.17c0,1.27,2.35,2.38,3.36,2.59a4.81,4.81,0,0,0,1,.12c1,0,1.82-.6,2.81-0.6a0.88,0.88,0,0,1,.94.77,1.1,1.1,0,0,1-.82.89,8.51,8.51,0,0,1-3.41.94,4.55,4.55,0,0,1-1.13-.14c-2.4-.62-4.94-1.92-4.94-4.75v-0.29c0.22-2.74,2.88-3.62,5.09-4.44a19.68,19.68,0,0,1,4.82-1,1.71,1.71,0,0,1,.34,0,1.54,1.54,0,0,1,1.7,1.56C3898.79,443.47,3898.55,444.36,3897.79,444.36Z" transform="translate(-3779.49 -434.64)"/><path class="cls-1" d="M3910,449.88a6.35,6.35,0,0,1-1.51.17,16.54,16.54,0,0,1-3.74-.65,2.62,2.62,0,0,0-.62-0.12,0.25,0.25,0,0,0-.29.26c0,0.58.86,1.56,0.86,2s-0.6.55-.94,0.55a1.71,1.71,0,0,1-1.54-.72,17.82,17.82,0,0,1-1.39-5.33c-0.14-1.78-.14-3.58-0.34-5.35a7.19,7.19,0,0,0-1.32-3.86,0.89,0.89,0,0,1-.22-0.65,1.49,1.49,0,0,1,1.3-1.54,1.25,1.25,0,0,1,.7.22c1.87,1.08,1.34,3.41,1.63,5.21a19.49,19.49,0,0,1,.19,2.35,14.37,14.37,0,0,0,.1,1.78c0,0.14,0,.31.24,0.31a0.54,0.54,0,0,0,.38-0.19c0.94-.86,2.83-3,4.18-3a1.4,1.4,0,0,1,.26,2.71c-0.19,0-.34-0.07-0.53-0.07-0.58,0-2.16,1.63-2.69,2.06-0.19.14-.24,0.31-0.07,0.41a13.4,13.4,0,0,0,5.09,1.44,0.82,0.82,0,0,1,.91.89A1.08,1.08,0,0,1,3910,449.88Z" transform="translate(-3779.49 -434.64)"/><path class="cls-1" d="M3804.08,474.77a5,5,0,0,1-3.67,1.2c-0.53,0-1.06,0-1.56,0a0.41,0.41,0,0,0-.46.36,9.21,9.21,0,0,0,.55,3,4.38,4.38,0,0,1,.53,1.51,1.24,1.24,0,0,1-1.27,1.13c-1.9,0-1.7-3.34-1.8-4.58a5.19,5.19,0,0,0-.36-1.49c-0.24-.62-2-0.53-2-1.87a1.12,1.12,0,0,1,1.3-1.22c0.19,0,.38,0,0.58,0s0.38-.07.36-0.19a26.35,26.35,0,0,1-.72-4.51,0.88,0.88,0,0,1,1-.91,1.88,1.88,0,0,1,1.92,1.54,1.27,1.27,0,0,1,0,.31,7.05,7.05,0,0,0-.26,1.87,12.9,12.9,0,0,0,.19,2.14,0.43,0.43,0,0,0,.46.41c0.6,0,1.2,0,1.78,0a5.88,5.88,0,0,0,2.16-.26,1.76,1.76,0,0,1,.91-0.41,0.89,0.89,0,0,1,.77,1A1.43,1.43,0,0,1,3804.08,474.77Z" transform="translate(-3779.49 -434.64)"/><path class="cls-1" d="M3815.62,481.71a0.78,0.78,0,0,1-.84-0.53l-0.14-.84a11,11,0,0,0-1-2.54c-0.43-.86-0.41-1.9-0.79-2.69a0.34,0.34,0,0,0-.29-0.22,0.26,0.26,0,0,0-.24.17c-0.17.24-.29,0.5-0.43,0.74a12.13,12.13,0,0,1-1.49,2c-0.74.84-.91,2-1.73,2.83a1.47,1.47,0,0,1-1,.36,0.88,0.88,0,0,1-1-.67c-0.07-.7-0.1-1.42-0.17-2.11-0.14-1.54-.31-3.1-0.43-4.63-0.17-1.7-.29-3.41-0.29-5.11v-0.36a13.69,13.69,0,0,1,.1-1.73,0.81,0.81,0,0,1,.91-0.74,1.64,1.64,0,0,1,1.68,1.27,0.83,0.83,0,0,1-.07.31,20,20,0,0,0-.24,3.89v0.31a40.36,40.36,0,0,0,.19,4.82c0.1,0.7.22,0.82,0.48,0.46,1.15-1.39,1.94-3.07,3.17-4.42a1.61,1.61,0,0,1,1.1-.65,1.31,1.31,0,0,1,1.06.84,23.94,23.94,0,0,1,1.13,3.19,29.48,29.48,0,0,0,1.68,4.15,1.51,1.51,0,0,1,.17.62A1.45,1.45,0,0,1,3815.62,481.71Z" transform="translate(-3779.49 -434.64)"/><path class="cls-1" d="M3830,481.32a8.05,8.05,0,0,1-4,.94,8.33,8.33,0,0,1-2.66-.38c-1.9-.6-4.42-1.7-4.42-4a5.81,5.81,0,0,1,0-.67c0.36-2.38,1.75-3.46,3.67-4.68a7.33,7.33,0,0,1,3.82-1.34c1.42,0,3.34.72,3.34,2.4a2.51,2.51,0,0,1-.77,1.75c-1.42,1.39-3,1.32-4.63,2.06a5.28,5.28,0,0,1-2,.48,1.36,1.36,0,0,1-1-.31c-0.1-.1-0.19-0.07-0.19.1,0,1.49,2.09,2,3.24,2.3a8.45,8.45,0,0,0,2.21.31,16.78,16.78,0,0,0,2.66-.31l0.19,0a0.75,0.75,0,0,1,.77.79A0.69,0.69,0,0,1,3830,481.32Zm-3-8.06a6,6,0,0,0-.91.14,9.1,9.1,0,0,0-4.44,2.3c-0.14.22,0,.26,0.22,0.14,0.79-.26,1.58-0.38,2.42-0.58,0.6-.12,3.12-0.86,3.12-1.58A0.41,0.41,0,0,0,3827,473.26Z" transform="translate(-3779.49 -434.64)"/><path class="cls-1" d="M3842.67,472.71a0.78,0.78,0,0,1-.62-0.34c-1.18-1.34-2.93-3.53-2.93-5.4,0-1.13.74-2.57,2-2.57a0.9,0.9,0,0,1,1,.91c0,0.6-.43,1.2-0.43,2.06,0,1.75,1.68,3.7,1.68,4.49A0.78,0.78,0,0,1,3842.67,472.71Zm3-1a0.68,0.68,0,0,1-.62-0.43c-0.6-1.18-2.18-3.67-2.18-4.92a1.62,1.62,0,0,1,1.63-1.3,0.81,0.81,0,0,1,.82.53c0.17,0.41,1.42,4.75,1.42,4.92A1.22,1.22,0,0,1,3845.72,471.67Z" transform="translate(-3779.49 -434.64)"/><path class="cls-1" d="M3855.49,483.43a1.39,1.39,0,0,1-1.34-1.08c-0.31-1.34-.14-2.76-0.43-4.1a0.33,0.33,0,0,0-.34-0.34h-2.5a1.34,1.34,0,0,0-1.44,1c-0.46,1.87-.31,2.59-1.39,4.37a1.77,1.77,0,0,1-1.44.94,1.24,1.24,0,0,1-1.22-1.34c0-1.34,1.39-3.65,1.39-4.2s-0.77-.67-0.77-1.44a1.58,1.58,0,0,1,1.27-1.46,0.75,0.75,0,0,0,.84-0.6c0.41-.91.74-1.82,1.06-2.76a48.93,48.93,0,0,1,1.73-5,1.54,1.54,0,0,1,1.32-1.08,1.8,1.8,0,0,1,1.51,1.27,28.76,28.76,0,0,1,1.42,6.67,59.76,59.76,0,0,0,1.3,7.68,2.9,2.9,0,0,1,0,.46A1,1,0,0,1,3855.49,483.43Zm-2.69-12.38a0.44,0.44,0,0,0-.41-0.43,0.49,0.49,0,0,0-.46.43c-0.43,1.37-.82,2.74-1.32,4.06-0.12.29,0.82,0.31,1.06,0.31l1,0c0.34,0,.65,0,0.62-0.26C3853.09,473.76,3853,472.47,3852.8,471.05Z" transform="translate(-3779.49 -434.64)"/><path class="cls-1" d="M3861.6,478.25c0,0.62,0,1.27-.1,1.87a0.73,0.73,0,0,1-.84.67,1.29,1.29,0,0,1-1.27-.91,9.69,9.69,0,0,1-.26-2.35c0-1.3.19-2.59,0.19-3.89a25.19,25.19,0,0,0-1.49-7,1,1,0,0,1-.07-0.36c0-.82,1.06-1.18,1.75-1.18a1.09,1.09,0,0,1,1.27.94c0.24,2.09.72,4.13,0.86,6.24,0,0.82.1,1.61,0.1,2.4C3861.75,475.85,3861.68,477.05,3861.6,478.25Z" transform="translate(-3779.49 -434.64)"/><path class="cls-1" d="M3867.63,478.25c0,0.62,0,1.27-.1,1.87a0.73,0.73,0,0,1-.84.67,1.29,1.29,0,0,1-1.27-.91,9.69,9.69,0,0,1-.26-2.35c0-1.3.19-2.59,0.19-3.89a25.19,25.19,0,0,0-1.49-7,1,1,0,0,1-.07-0.36c0-.82,1.06-1.18,1.75-1.18a1.09,1.09,0,0,1,1.27.94c0.24,2.09.72,4.13,0.86,6.24,0,0.82.1,1.61,0.1,2.4C3867.77,475.85,3867.7,477.05,3867.63,478.25Z" transform="translate(-3779.49 -434.64)"/><path class="cls-1" d="M3879.25,477c-0.48,2.11-2,4.44-4.42,4.44a4.4,4.4,0,0,1-4.25-4.13,4.68,4.68,0,0,1,2.57-4.1,12.34,12.34,0,0,0,2-1.49,2,2,0,0,1,1.42-.67,1.45,1.45,0,0,1,1.39,1c0.5,1.25,1.34,2.71,1.34,4.06A3.78,3.78,0,0,1,3879.25,477Zm-2.16-2c0-.1-0.12-0.17-0.24,0a1.09,1.09,0,0,1-.72.31,5.69,5.69,0,0,1-1.18-.5,1.6,1.6,0,0,0-.79.36,2.12,2.12,0,0,0-1.1,2,1.87,1.87,0,0,0,2,2.11,2.62,2.62,0,0,0,2.35-2.66A4,4,0,0,0,3877.09,475Z" transform="translate(-3779.49 -434.64)"/><path class="cls-1" d="M3891.41,481.47c-0.77,0-1.56-.94-2-1.46s-0.82-.94-1.18-1.39c-0.14-.17-0.24-0.1-0.29.1a8.06,8.06,0,0,1-.55,1.32,3.07,3.07,0,0,1-2.62,1.66,2.05,2.05,0,0,1-2-1.32,33.16,33.16,0,0,1-2-7.61c0-.07,0-0.17,0-0.24a1,1,0,0,1,1.22-.94c0.62,0,1.8.34,1.78,1.1v0.12c0,0.67-.12,1.32-0.12,2a7.64,7.64,0,0,0,.82,3.7,1.1,1.1,0,0,0,.67.67,1.29,1.29,0,0,0,.72-0.82,8.68,8.68,0,0,0,.7-3.48,1.31,1.31,0,0,1,1.13-1.34c1,0,1.58,1.78,1.92,2.54,0.24,0.5,1.18,2.38,1.75,2.38s0.65-1.61.65-2c0-.77-0.19-1.54-0.19-2.3a0.89,0.89,0,0,1,1-.91,1.61,1.61,0,0,1,1.63,1.61C3894.46,476.28,3893.12,481.47,3891.41,481.47Z" transform="translate(-3779.49 -434.64)"/><path class="cls-1" d="M3897.94,471.34a0.79,0.79,0,0,1-.65.36,1.16,1.16,0,0,1-1.08-1.06,0.74,0.74,0,0,1,.14-0.46,7.65,7.65,0,0,0,1.08-3.89c0-.38,0-0.79.1-1.18a0.65,0.65,0,0,1,.74-0.6,1.72,1.72,0,0,1,1.73,1.42A9.45,9.45,0,0,1,3897.94,471.34Zm2.86,1a0.77,0.77,0,0,1-.6.34,0.79,0.79,0,0,1-.74-0.84,1.29,1.29,0,0,1,.12-0.5c1-2.23.91-3.14,1.27-5.47,0.1-.65.46-1.56,1.25-1.56,1.06,0,1.22,1.73,1.22,2.5A9,9,0,0,1,3900.8,472.37Z" transform="translate(-3779.49 -434.64)"/><path class="cls-1" d="M3789.14,505.11c-0.34,0-.62-0.22-1-0.22a0.65,0.65,0,0,0-.53.34c-0.94,1.37-.7,3.14-1.34,4.63a1.24,1.24,0,0,1-1.15.74,1.06,1.06,0,0,1-1.08-.84c-0.26-1-.53-1.92-0.84-2.88s-1.37-2.18-1.37-3.26a1,1,0,0,1,1.13-1.13,1.33,1.33,0,0,1,.72.22,2.51,2.51,0,0,1,1.25,2c0,0.26.07,0.55,0.14,0.82a0.15,0.15,0,0,0,.14.14,0.28,0.28,0,0,0,.22-0.22c0.62-1.2,0-2.52,1.85-3a3.92,3.92,0,0,1,.74-0.07c0.89,0,2,.41,2,1.44A1.09,1.09,0,0,1,3789.14,505.11Z" transform="translate(-3779.49 -434.64)"/><path class="cls-1" d="M3804.36,511.9a0.71,0.71,0,0,1-.48-0.19c-1.54-1.18-2-2.69-2.5-4.44a0.65,0.65,0,0,0-.46-0.6,0.74,0.74,0,0,0-.48.26c-0.36.36-.67,0.74-1,1.1a15.19,15.19,0,0,1-3.26,2.52,3.87,3.87,0,0,1-1.87.55,2.69,2.69,0,0,1-2.57-2.86,2.57,2.57,0,0,1,.41-1.44,11.93,11.93,0,0,1,5.42-4.22,4.18,4.18,0,0,1,1.68-.46c1.06,0,1.34.77,1.73,0.77s0.46-.7,1.13-0.7a1.7,1.7,0,0,1,1.34,1c0.7,1.56,0,4.68,1.22,5.93a1.31,1.31,0,0,0,.62.38,0.69,0.69,0,0,1,.41.72A1.74,1.74,0,0,1,3804.36,511.9Zm-6.14-7a1.7,1.7,0,0,0-.65.29,10.89,10.89,0,0,0-3.31,2.69,0.55,0.55,0,0,0-.1.34,0.62,0.62,0,0,0,.72.58c0.67,0,1.87-1.2,2.47-1.61a5.68,5.68,0,0,1,.84-0.46l0.26-.1a0.37,0.37,0,0,0,.19-0.43C3798.64,505.87,3798.62,504.87,3798.21,504.87Z" transform="translate(-3779.49 -434.64)"/><path class="cls-1" d="M3819.16,510.7c-1.13,0-1.8-1-2.18-2a10.87,10.87,0,0,0-.65-1.54,0.49,0.49,0,0,0-.46-0.24,0.39,0.39,0,0,0-.34.17c-0.22.29-.41,0.65-0.62,0.94a7.72,7.72,0,0,1-3.26,2.81,5.67,5.67,0,0,1-2.23.55,2.35,2.35,0,0,1-2.57-2.21,2.12,2.12,0,0,1,.43-1.25c1.85-2.38,4.56-3.79,7.15-5.26a0.76,0.76,0,0,0,.48-0.46,24.25,24.25,0,0,0-.53-4.15v-0.17a0.82,0.82,0,0,1,.89-0.79,1.07,1.07,0,0,1,.74.29,4.7,4.7,0,0,1,1.68,3.46c0.07,2.3.14,7,2.47,8.16a0.92,0.92,0,0,1,.65.67C3820.82,510.36,3819.69,510.7,3819.16,510.7Zm-4.54-5.83a0.34,0.34,0,0,0-.14,0c-1.61.89-4,2.23-5.16,3.67a0.48,0.48,0,0,0-.1.31,0.47,0.47,0,0,0,.55.48,2.11,2.11,0,0,0,.65-0.14,10.26,10.26,0,0,0,3.7-3.19,2.57,2.57,0,0,0,.7-1A0.17,0.17,0,0,0,3814.63,504.87Z" transform="translate(-3779.49 -434.64)"/><path class="cls-1" d="M3825.07,499.51a3,3,0,0,1-.65.07,2.94,2.94,0,0,1-2.5-1.56,0.9,0.9,0,0,1-.17-0.5,1,1,0,0,1,1.18-.86c0.82,0,3.17.72,3.17,1.73A1.36,1.36,0,0,1,3825.07,499.51Zm0.38,11.54a1.34,1.34,0,0,1-1-.34,4.59,4.59,0,0,1-1.37-2.88c-0.07-1.22-.07-2.42-0.07-3.65v-1.63a0.78,0.78,0,0,1,.84-0.86,1.64,1.64,0,0,1,1.63,1.46c0,1.06-.31,2.09-0.31,3.12,0,2.28,1.85,3.24,1.85,3.91S3826,511.06,3825.45,511.06Z" transform="translate(-3779.49 -434.64)"/><path class="cls-1" d="M3837.5,507c-0.48,2.11-2,4.44-4.42,4.44a4.4,4.4,0,0,1-4.25-4.13,4.68,4.68,0,0,1,2.57-4.1,12.32,12.32,0,0,0,2-1.49,2,2,0,0,1,1.42-.67,1.45,1.45,0,0,1,1.39,1c0.5,1.25,1.34,2.71,1.34,4.06A3.78,3.78,0,0,1,3837.5,507Zm-2.16-2c0-.1-0.12-0.17-0.24,0a1.09,1.09,0,0,1-.72.31,5.7,5.7,0,0,1-1.18-.5,1.6,1.6,0,0,0-.79.36,2.12,2.12,0,0,0-1.1,2,1.87,1.87,0,0,0,2,2.11,2.62,2.62,0,0,0,2.35-2.66A4,4,0,0,0,3835.34,505Z" transform="translate(-3779.49 -434.64)"/><path class="cls-1" d="M3857.59,507.67c-0.86,2.76-3.22,3.72-5.69,4.68a3.13,3.13,0,0,1-1.25.24,1.23,1.23,0,0,1-1.49-1,1.27,1.27,0,0,1,0-.31c0.17-.86.29-2.28,1.46-2.28,1,0,.7,1.22,1.06,1.22a0.57,0.57,0,0,0,.19,0c1.37-.58,2.74-1,3.36-2.54a2.86,2.86,0,0,0,.26-1.08c0-1-1.3-1.51-2.16-1.51a2.12,2.12,0,0,0-2,1.3,5.17,5.17,0,0,1-1.3,2.54,2,2,0,0,1-1.27.53,1,1,0,0,1-1-1.1c0-.62.1-1.22,0.1-1.85a11.83,11.83,0,0,0-.53-3.17,5.55,5.55,0,0,0-1.73-3.14,1.1,1.1,0,0,1-.41-0.86,1.91,1.91,0,0,1,1.56-1.73,0.64,0.64,0,0,1,.53.26c0.22,0.29.43,0.62,0.62,0.94a14.74,14.74,0,0,1,1.92,4.51,0.4,0.4,0,0,0,.26.41c0.26,0,1.44-1.37,3.17-1.37a3.77,3.77,0,0,1,1.54.34A4,4,0,0,1,3857.59,507.67Z" transform="translate(-3779.49 -434.64)"/><path class="cls-1" d="M3870.31,512.16c-1.51,0-2.11-4.27-2.64-4.27a0.38,0.38,0,0,0-.24.26c-0.79,1.39-1.54,2.9-3.38,2.9-2.88,0-3.38-3.07-3.38-5.35a20.61,20.61,0,0,1,.43-4.2,0.92,0.92,0,0,1,1-.6,1.22,1.22,0,0,1,1.37,1c0,0.1,0,.17,0,0.24a12.55,12.55,0,0,0-.36,2.83c0,0.67.24,3.55,1.15,3.55A1.21,1.21,0,0,0,3865,508a5.7,5.7,0,0,0,1.49-3.62c0-.19,0-0.38,0-0.58a1.27,1.27,0,0,1,1.37-1,1.22,1.22,0,0,1,1.25.89c0.43,1.42,1.22,5.16,2.28,6a1.26,1.26,0,0,1,.53,1A1.67,1.67,0,0,1,3870.31,512.16Z" transform="translate(-3779.49 -434.64)"/><path class="cls-1" d="M3882.79,504.77a5,5,0,0,1-3.67,1.2c-0.53,0-1.06,0-1.56,0a0.41,0.41,0,0,0-.46.36,9.2,9.2,0,0,0,.55,3,4.38,4.38,0,0,1,.53,1.51,1.24,1.24,0,0,1-1.27,1.13c-1.9,0-1.7-3.34-1.8-4.58a5.21,5.21,0,0,0-.36-1.49c-0.24-.62-2-0.53-2-1.87a1.12,1.12,0,0,1,1.3-1.22c0.19,0,.38,0,0.58,0s0.38-.07.36-0.19a26.35,26.35,0,0,1-.72-4.51,0.88,0.88,0,0,1,1-.91,1.88,1.88,0,0,1,1.92,1.54,1.25,1.25,0,0,1,0,.31,7.05,7.05,0,0,0-.26,1.87,12.84,12.84,0,0,0,.19,2.14,0.43,0.43,0,0,0,.46.41c0.6,0,1.2,0,1.78,0a5.88,5.88,0,0,0,2.16-.26,1.77,1.77,0,0,1,.91-0.41,0.89,0.89,0,0,1,.77,1A1.43,1.43,0,0,1,3882.79,504.77Z" transform="translate(-3779.49 -434.64)"/><path class="cls-1" d="M3893.68,504.77A5,5,0,0,1,3890,506c-0.53,0-1.06,0-1.56,0a0.41,0.41,0,0,0-.46.36,9.21,9.21,0,0,0,.55,3,4.38,4.38,0,0,1,.53,1.51,1.24,1.24,0,0,1-1.27,1.13c-1.9,0-1.7-3.34-1.8-4.58a5.19,5.19,0,0,0-.36-1.49c-0.24-.62-2-0.53-2-1.87a1.12,1.12,0,0,1,1.3-1.22c0.19,0,.38,0,0.58,0s0.38-.07.36-0.19a26.35,26.35,0,0,1-.72-4.51,0.88,0.88,0,0,1,1-.91,1.88,1.88,0,0,1,1.92,1.54,1.25,1.25,0,0,1,0,.31,7.05,7.05,0,0,0-.26,1.87A12.84,12.84,0,0,0,3888,503a0.43,0.43,0,0,0,.46.41c0.6,0,1.2,0,1.78,0a5.88,5.88,0,0,0,2.16-.26,1.76,1.76,0,0,1,.91-0.41,0.89,0.89,0,0,1,.77,1A1.43,1.43,0,0,1,3893.68,504.77Z" transform="translate(-3779.49 -434.64)"/><path class="cls-1" d="M3903.69,507c-0.48,2.11-2,4.44-4.42,4.44a4.4,4.4,0,0,1-4.25-4.13,4.68,4.68,0,0,1,2.57-4.1,12.31,12.31,0,0,0,2-1.49,2,2,0,0,1,1.42-.67,1.45,1.45,0,0,1,1.39,1c0.5,1.25,1.34,2.71,1.34,4.06A3.78,3.78,0,0,1,3903.69,507Zm-2.16-2c0-.1-0.12-0.17-0.24,0a1.09,1.09,0,0,1-.72.31,5.69,5.69,0,0,1-1.18-.5,1.6,1.6,0,0,0-.79.36,2.11,2.11,0,0,0-1.1,2,1.87,1.87,0,0,0,2,2.11,2.62,2.62,0,0,0,2.35-2.66A4,4,0,0,0,3901.53,505Z" transform="translate(-3779.49 -434.64)"/><path class="cls-1" d="M3914.35,512.33a2,2,0,0,1-.74-0.17c-2.23-1-1.18-4.2-1.92-5.52a1.12,1.12,0,0,0-.43-0.55,0.34,0.34,0,0,0-.26.17c-0.84,1-.77,2.52-1.94,3.29a1.82,1.82,0,0,1-1,.36c-0.91,0-1.44-1.13-1.44-1.92v-0.41a7.65,7.65,0,0,0-1.1-4.15,0.72,0.72,0,0,1-.14-0.43,1.92,1.92,0,0,1,1.75-1.68,1.23,1.23,0,0,1,.6.14c0.84,0.46.74,3,1,4a0.45,0.45,0,0,0,.26.43,0.65,0.65,0,0,0,.36-0.26,8.31,8.31,0,0,0,1.32-2.5,0.69,0.69,0,0,1,.72-0.43,2.16,2.16,0,0,1,1.61.89,12.21,12.21,0,0,1,1,4c0.1,0.55.26,2.45,0.79,2.71a1.13,1.13,0,0,1,.79,1A1.22,1.22,0,0,1,3914.35,512.33Z" transform="translate(-3779.49 -434.64)"/></svg>