<svg id="Interactive_elements" data-name="Interactive elements" xmlns="http://www.w3.org/2000/svg" viewBox="0 0 224.72 77.95"><defs><style>.cls-1{fill:#c53a43;}</style></defs><title>step2</title><path class="cls-1" d="M3741.26,599.61c-1.94,0-4.39-1.3-6-2.38a1.29,1.29,0,0,1-.7-0.89,0.84,0.84,0,0,1,.94-0.62,1.84,1.84,0,0,1,.79.19c1.63,0.77,2.83,1.51,4.7,1.51,0.74,0,1.49,0,1.49-.91a1.89,1.89,0,0,0-1.1-1.37c-1.58-1-4.39-1.44-5.78-1.85a6.57,6.57,0,0,1-2-.86,3,3,0,0,1-1.44-2.06,2.32,2.32,0,0,1,1.46-1.85c2.14-1.08,6.26-2.71,8.62-2.71,1.22,0,1.85.36,1.85,1.66a0.88,0.88,0,0,1-.82,1.06,2,2,0,0,1-.74-0.19,3.93,3.93,0,0,0-1.3-.17,4.69,4.69,0,0,0-1.42.19c-0.65.17-4.85,1.46-4.85,1.87a0.77,0.77,0,0,0,.34.46,6.55,6.55,0,0,0,1.39.58,36.6,36.6,0,0,1,4.68,1.63,6.9,6.9,0,0,1,2.76,2,3.22,3.22,0,0,1,.67,1.85C3744.79,598.5,3742.87,599.61,3741.26,599.61Z" transform="translate(-3732.14 -582.45)"/><path class="cls-1" d="M3756.53,592.58a5,5,0,0,1-3.67,1.2c-0.53,0-1.06,0-1.56,0a0.41,0.41,0,0,0-.46.36,9.21,9.21,0,0,0,.55,3,4.37,4.37,0,0,1,.53,1.51,1.24,1.24,0,0,1-1.27,1.13c-1.9,0-1.7-3.34-1.8-4.58a5.18,5.18,0,0,0-.36-1.49c-0.24-.62-2-0.53-2-1.87a1.12,1.12,0,0,1,1.3-1.22c0.19,0,.38,0,0.58,0s0.38-.07.36-0.19a26.35,26.35,0,0,1-.72-4.51,0.88,0.88,0,0,1,1-.91,1.88,1.88,0,0,1,1.92,1.54,1.27,1.27,0,0,1,0,.31,7.05,7.05,0,0,0-.26,1.87,12.84,12.84,0,0,0,.19,2.14,0.43,0.43,0,0,0,.46.41c0.6,0,1.2,0,1.78,0a5.88,5.88,0,0,0,2.16-.26,1.76,1.76,0,0,1,.91-0.41,0.89,0.89,0,0,1,.77,1A1.43,1.43,0,0,1,3756.53,592.58Z" transform="translate(-3732.14 -582.45)"/><path class="cls-1" d="M3769.06,599.13a8.05,8.05,0,0,1-4,.94,8.33,8.33,0,0,1-2.66-.38c-1.9-.6-4.42-1.7-4.42-4a5.81,5.81,0,0,1,0-.67c0.36-2.38,1.75-3.46,3.67-4.68a7.34,7.34,0,0,1,3.82-1.34c1.42,0,3.34.72,3.34,2.4a2.51,2.51,0,0,1-.77,1.75c-1.42,1.39-3,1.32-4.63,2.06a5.28,5.28,0,0,1-2,.48,1.36,1.36,0,0,1-1-.31c-0.1-.1-0.19-0.07-0.19.1,0,1.49,2.09,2,3.24,2.3a8.45,8.45,0,0,0,2.21.31,16.78,16.78,0,0,0,2.66-.31l0.19,0a0.75,0.75,0,0,1,.77.79A0.68,0.68,0,0,1,3769.06,599.13Zm-3-8.06a6,6,0,0,0-.91.14,9.11,9.11,0,0,0-4.44,2.3c-0.14.22,0,.26,0.22,0.14,0.79-.26,1.58-0.38,2.42-0.58,0.6-.12,3.12-0.86,3.12-1.58A0.41,0.41,0,0,0,3766.06,591.06Z" transform="translate(-3732.14 -582.45)"/><path class="cls-1" d="M3775.25,596.68a0.58,0.58,0,0,0-.62.5,3.23,3.23,0,0,0-.07.84c0,1.06.38,2.11,0.38,3.17,0,0.67-.34,2.47-1.22,2.47a1.71,1.71,0,0,1-1.1-1.08,8.91,8.91,0,0,1-.89-4.18c0-1.18.14-2.38,0.14-3.58a11.34,11.34,0,0,0-.43-3.1,1.42,1.42,0,0,1,0-.34c0-1.39,2.47-2.33,3.62-2.33a3.9,3.9,0,0,1,3.86,3.74A4.3,4.3,0,0,1,3775.25,596.68Zm-0.36-5.06c-0.6,0-.7.55-0.7,1a10.16,10.16,0,0,0,.14,1.8,0.16,0.16,0,0,0,.17.1,2,2,0,0,0,.53-0.1c0.7-.19,1.73-0.55,1.73-1.44S3775.65,591.62,3774.89,591.62Z" transform="translate(-3732.14 -582.45)"/><path class="cls-1" d="M3798.07,598a28.75,28.75,0,0,1-4.15,1.32,18.09,18.09,0,0,1-3.94.38h-0.65A1.54,1.54,0,0,1,3788,598c0-1.13,1.85-3.34,2.54-4.32a18.19,18.19,0,0,0,2.83-5.18,1.88,1.88,0,0,0,.1-0.53,1.32,1.32,0,0,0-1.27-1.42c-1.51,0-2.9,1.56-3.74,1.56s-1.22-1.08-1.22-1.78a1.43,1.43,0,0,1,.55-1.25,8.47,8.47,0,0,1,4.06-1,3.59,3.59,0,0,1,4.15,3.67,6.08,6.08,0,0,1-.91,2.93c-1,1.9-2.47,3.53-3.5,5.4a1.24,1.24,0,0,0-.19.46c0,0.34.7,0.38,1.08,0.38h0.19c1.7,0,4.61-.74,5.11-0.74a1.06,1.06,0,0,1,1,1A0.92,0.92,0,0,1,3798.07,598Z" transform="translate(-3732.14 -582.45)"/><path class="cls-1" d="M3803.45,592.5a1.55,1.55,0,0,1-1.13.91,1,1,0,0,1-.36-0.07,2.2,2.2,0,0,1-1.7-2.06,1.26,1.26,0,0,1,1.37-1.27,2.29,2.29,0,0,1,1.06.26c0.46,0.24,1.37.5,1.37,1.13A2.39,2.39,0,0,1,3803.45,592.5Zm-1,6.12c-1.18,0-1.85-.31-1.85-1.66a1.47,1.47,0,0,1,1.58-1.54,2,2,0,0,1,2,1.94C3804.26,598.26,3803.23,598.62,3802.49,598.62Z" transform="translate(-3732.14 -582.45)"/><path class="cls-1" d="M3823.92,588.09a1.08,1.08,0,0,1-1.13-1,0.38,0.38,0,0,0-.12-0.41,2.68,2.68,0,0,0-1.2-.34c-2.23,0-4.66,3.29-5.45,5.11a6.9,6.9,0,0,0-.67,2.83,3.87,3.87,0,0,0,1.32,3,5.7,5.7,0,0,0,3.55.86c1.15,0,2.3-.17,3.46-0.17a1.09,1.09,0,0,1,1.32.86,1.29,1.29,0,0,1-1.1,1.25l-1.08,0c-0.77,0-1.54.07-2.3,0.07h-0.07a13.51,13.51,0,0,1-3.12-.31c-2.66-.62-4-3-4-5.59a8.27,8.27,0,0,1,1.32-4.42c1.46-2.33,3.77-5.59,6.84-5.59,1.34,0,3.65.46,3.65,2.18A1.3,1.3,0,0,1,3823.92,588.09Z" transform="translate(-3732.14 -582.45)"/><path class="cls-1" d="M3830.23,596.06c0,0.62,0,1.27-.1,1.87a0.73,0.73,0,0,1-.84.67,1.29,1.29,0,0,1-1.27-.91,9.7,9.7,0,0,1-.26-2.35c0-1.3.19-2.59,0.19-3.89a25.2,25.2,0,0,0-1.49-7,1,1,0,0,1-.07-0.36c0-.82,1.06-1.18,1.75-1.18a1.09,1.09,0,0,1,1.27.94c0.24,2.09.72,4.13,0.86,6.24,0,0.82.1,1.61,0.1,2.4C3830.37,593.66,3830.3,594.86,3830.23,596.06Z" transform="translate(-3732.14 -582.45)"/><path class="cls-1" d="M3835.53,587.32a3,3,0,0,1-.65.07,2.94,2.94,0,0,1-2.5-1.56,0.9,0.9,0,0,1-.17-0.5,1,1,0,0,1,1.18-.86c0.82,0,3.17.72,3.17,1.73A1.36,1.36,0,0,1,3835.53,587.32Zm0.38,11.54a1.34,1.34,0,0,1-1-.34,4.59,4.59,0,0,1-1.37-2.88c-0.07-1.22-.07-2.42-0.07-3.65v-1.63a0.78,0.78,0,0,1,.84-0.86A1.64,1.64,0,0,1,3836,591c0,1.06-.31,2.09-0.31,3.12,0,2.28,1.85,3.24,1.85,3.91S3836.42,598.86,3835.92,598.86Z" transform="translate(-3732.14 -582.45)"/><path class="cls-1" d="M3850.44,592.17a1.18,1.18,0,0,1-1.06-.84,0.6,0.6,0,0,0-.65-0.31,16.63,16.63,0,0,0-4.85,1.58,3.34,3.34,0,0,0-2.18,2.3,0.42,0.42,0,0,0,0,.17c0,1.27,2.35,2.38,3.36,2.59a4.82,4.82,0,0,0,1,.12c1,0,1.82-.6,2.81-0.6a0.88,0.88,0,0,1,.94.77,1.1,1.1,0,0,1-.82.89,8.51,8.51,0,0,1-3.41.94,4.55,4.55,0,0,1-1.13-.14c-2.4-.62-4.94-1.92-4.94-4.75v-0.29c0.22-2.74,2.88-3.62,5.09-4.44a19.68,19.68,0,0,1,4.82-1,1.7,1.7,0,0,1,.34,0,1.54,1.54,0,0,1,1.7,1.56C3851.45,591.28,3851.21,592.17,3850.44,592.17Z" transform="translate(-3732.14 -582.45)"/><path class="cls-1" d="M3862.61,597.69a6.36,6.36,0,0,1-1.51.17,16.54,16.54,0,0,1-3.74-.65,2.62,2.62,0,0,0-.62-0.12,0.25,0.25,0,0,0-.29.26c0,0.58.86,1.56,0.86,2s-0.6.55-.94,0.55a1.71,1.71,0,0,1-1.54-.72,17.83,17.83,0,0,1-1.39-5.33c-0.14-1.78-.14-3.58-0.34-5.35a7.19,7.19,0,0,0-1.32-3.86,0.89,0.89,0,0,1-.22-0.65,1.49,1.49,0,0,1,1.3-1.54,1.25,1.25,0,0,1,.7.22c1.87,1.08,1.34,3.41,1.63,5.21a19.38,19.38,0,0,1,.19,2.35,14.37,14.37,0,0,0,.1,1.78c0,0.14,0,.31.24,0.31a0.54,0.54,0,0,0,.38-0.19c0.94-.86,2.83-3,4.18-3a1.4,1.4,0,0,1,.26,2.71c-0.19,0-.34-0.07-0.53-0.07-0.58,0-2.16,1.63-2.69,2.06-0.19.14-.24,0.31-0.07,0.41a13.4,13.4,0,0,0,5.09,1.44,0.82,0.82,0,0,1,.91.89A1.08,1.08,0,0,1,3862.61,597.69Z" transform="translate(-3732.14 -582.45)"/><path class="cls-1" d="M3881.66,592.58a5,5,0,0,1-3.67,1.2c-0.53,0-1.06,0-1.56,0a0.41,0.41,0,0,0-.46.36,9.2,9.2,0,0,0,.55,3,4.38,4.38,0,0,1,.53,1.51,1.24,1.24,0,0,1-1.27,1.13c-1.9,0-1.7-3.34-1.8-4.58a5.21,5.21,0,0,0-.36-1.49c-0.24-.62-2-0.53-2-1.87a1.12,1.12,0,0,1,1.3-1.22c0.19,0,.38,0,0.58,0s0.38-.07.36-0.19a26.35,26.35,0,0,1-.72-4.51,0.88,0.88,0,0,1,1-.91,1.88,1.88,0,0,1,1.92,1.54,1.25,1.25,0,0,1,0,.31,7.05,7.05,0,0,0-.26,1.87,12.84,12.84,0,0,0,.19,2.14,0.43,0.43,0,0,0,.46.41c0.6,0,1.2,0,1.78,0a5.88,5.88,0,0,0,2.16-.26,1.77,1.77,0,0,1,.91-0.41,0.89,0.89,0,0,1,.77,1A1.43,1.43,0,0,1,3881.66,592.58Z" transform="translate(-3732.14 -582.45)"/><path class="cls-1" d="M3893.2,599.51a0.77,0.77,0,0,1-.84-0.53l-0.14-.84a11,11,0,0,0-1-2.54c-0.43-.86-0.41-1.9-0.79-2.69a0.34,0.34,0,0,0-.29-0.22,0.26,0.26,0,0,0-.24.17c-0.17.24-.29,0.5-0.43,0.74a12.12,12.12,0,0,1-1.49,2c-0.74.84-.91,2-1.73,2.83a1.47,1.47,0,0,1-1,.36,0.88,0.88,0,0,1-1-.67c-0.07-.7-0.1-1.42-0.17-2.11-0.14-1.54-.31-3.1-0.43-4.63-0.17-1.7-.29-3.41-0.29-5.11v-0.36a13.6,13.6,0,0,1,.1-1.73,0.8,0.8,0,0,1,.91-0.74,1.64,1.64,0,0,1,1.68,1.27,0.82,0.82,0,0,1-.07.31,20,20,0,0,0-.24,3.89v0.31a40.36,40.36,0,0,0,.19,4.82c0.1,0.7.22,0.82,0.48,0.46,1.15-1.39,1.94-3.07,3.17-4.42a1.61,1.61,0,0,1,1.1-.65,1.31,1.31,0,0,1,1.06.84,23.88,23.88,0,0,1,1.13,3.19,29.48,29.48,0,0,0,1.68,4.15,1.52,1.52,0,0,1,.17.62A1.45,1.45,0,0,1,3893.2,599.51Z" transform="translate(-3732.14 -582.45)"/><path class="cls-1" d="M3907.63,599.13a8.05,8.05,0,0,1-4,.94,8.33,8.33,0,0,1-2.66-.38c-1.9-.6-4.42-1.7-4.42-4a5.92,5.92,0,0,1,0-.67c0.36-2.38,1.75-3.46,3.67-4.68a7.33,7.33,0,0,1,3.82-1.34c1.42,0,3.34.72,3.34,2.4a2.51,2.51,0,0,1-.77,1.75c-1.42,1.39-3,1.32-4.63,2.06a5.27,5.27,0,0,1-2,.48,1.37,1.37,0,0,1-1-.31c-0.1-.1-0.19-0.07-0.19.1,0,1.49,2.09,2,3.24,2.3a8.45,8.45,0,0,0,2.21.31,16.8,16.8,0,0,0,2.66-.31l0.19,0a0.75,0.75,0,0,1,.77.79A0.69,0.69,0,0,1,3907.63,599.13Zm-3-8.06a6,6,0,0,0-.91.14,9.1,9.1,0,0,0-4.44,2.3c-0.14.22,0,.26,0.22,0.14,0.79-.26,1.58-0.38,2.42-0.58,0.6-.12,3.12-0.86,3.12-1.58A0.41,0.41,0,0,0,3904.63,591.06Z" transform="translate(-3732.14 -582.45)"/><path class="cls-1" d="M3763.62,620.51a0.78,0.78,0,0,1-.62-0.34c-1.18-1.34-2.93-3.53-2.93-5.4,0-1.13.74-2.57,2-2.57a0.9,0.9,0,0,1,1,.91c0,0.6-.43,1.2-0.43,2.06,0,1.75,1.68,3.7,1.68,4.49A0.78,0.78,0,0,1,3763.62,620.51Zm3-1A0.68,0.68,0,0,1,3766,619c-0.6-1.18-2.18-3.67-2.18-4.92a1.62,1.62,0,0,1,1.63-1.3,0.81,0.81,0,0,1,.82.53c0.17,0.41,1.42,4.75,1.42,4.92A1.22,1.22,0,0,1,3766.67,619.48Z" transform="translate(-3732.14 -582.45)"/><path class="cls-1" d="M3780.37,630.52a0.72,0.72,0,0,1-.43-0.14c-0.86-.62-5.52-4.68-6.72-5.38-0.36-.22-0.34.1-0.34,0.46,0,0.65,0,1.3,0,1.94a12.11,12.11,0,0,1-.12,1.87,1,1,0,0,1-1.1.86,1.38,1.38,0,0,1-1.37-1.54,4.08,4.08,0,0,1,.34-1.42,6.15,6.15,0,0,0,.14-1.63,31.1,31.1,0,0,0-.62-6.36,4.67,4.67,0,0,1-.31-1.39,1.61,1.61,0,0,1,.46-1.18,5.4,5.4,0,0,1,4.46-1.61,8.74,8.74,0,0,1,5.14,1.92,1.56,1.56,0,0,1,.67,1.34c0,1.56-1.3,2.9-2.52,3.7-0.38.24-1.68,1-2.21,1.37-0.24.17-.29,0.26,0,0.5,1.32,1.1,2.66,2.18,4,3.26,0.58,0.46,1.18.91,1.73,1.39a0.65,0.65,0,0,1,.24.53A1.68,1.68,0,0,1,3780.37,630.52Zm-2.47-12.29a10.3,10.3,0,0,0-3.74-.86c-0.55,0-1.46.1-1.46,0.84,0,1.13.14,2.26,0.24,3.38,0,0.14.12,0.19,0.31,0.17a7.28,7.28,0,0,0,.77-0.14,7.61,7.61,0,0,0,4-1.87,1,1,0,0,0,.31-0.74A0.9,0.9,0,0,0,3777.9,618.23Z" transform="translate(-3732.14 -582.45)"/><path class="cls-1" d="M3794.89,629.13a8.05,8.05,0,0,1-4,.94,8.34,8.34,0,0,1-2.66-.38c-1.9-.6-4.42-1.7-4.42-4a5.92,5.92,0,0,1,0-.67c0.36-2.38,1.75-3.46,3.67-4.68a7.33,7.33,0,0,1,3.82-1.34c1.42,0,3.34.72,3.34,2.4a2.52,2.52,0,0,1-.77,1.75c-1.42,1.39-3,1.32-4.63,2.06a5.28,5.28,0,0,1-2,.48,1.37,1.37,0,0,1-1-.31c-0.1-.1-0.19-0.07-0.19.1,0,1.49,2.09,2,3.24,2.3a8.46,8.46,0,0,0,2.21.31,16.8,16.8,0,0,0,2.66-.31l0.19,0a0.75,0.75,0,0,1,.77.79A0.68,0.68,0,0,1,3794.89,629.13Zm-3-8.06a6,6,0,0,0-.91.14,9.1,9.1,0,0,0-4.44,2.3c-0.14.22,0,.26,0.22,0.14,0.79-.26,1.58-0.38,2.42-0.58,0.6-.12,3.12-0.86,3.12-1.58A0.41,0.41,0,0,0,3791.89,621.06Z" transform="translate(-3732.14 -582.45)"/><path class="cls-1" d="M3811.83,629.27a1.1,1.1,0,0,1-.55-0.12c-1.42-.86-1.66-2.4-1.94-3.89a7.83,7.83,0,0,0-.26-1.08,0.33,0.33,0,0,0-.29-0.31c-0.38,0-1.92,1.8-2.18,2.18a1.18,1.18,0,0,1-1,.58c-1,0-1.7-1.3-2-2.06-0.1-.19-0.22-0.17-0.36,0-1,1.22-1.58,2.81-2.9,3.79a2,2,0,0,1-1.08.31,1,1,0,0,1-1.08-.72c-0.07-.5-0.12-1-0.22-1.54-0.17-.89-0.38-1.73-0.58-2.62a8.1,8.1,0,0,1-.22-1.73,5.62,5.62,0,0,1,.46-2.16,0.72,0.72,0,0,1,.72-0.48,1.75,1.75,0,0,1,1.66,1.51c0,0.67-.14,1.32-0.14,2a5.8,5.8,0,0,0,.31,1.8,0.16,0.16,0,0,0,.31,0,11.4,11.4,0,0,0,2.3-4.1,1.11,1.11,0,0,1,1.15-.65,1,1,0,0,1,1,.6c0.24,0.86.46,1.78,0.72,2.66a0.28,0.28,0,0,0,.19.26,0.74,0.74,0,0,0,.34-0.17c1.54-1.1,1.32-2,2.23-3.36a0.89,0.89,0,0,1,.77-0.41,1.67,1.67,0,0,1,1.51,1.08c0.17,0.72.29,1.46,0.48,2.18A23.77,23.77,0,0,0,3813,628a1.1,1.1,0,0,1,.12.48A1.11,1.11,0,0,1,3811.83,629.27Z" transform="translate(-3732.14 -582.45)"/><path class="cls-1" d="M3825.23,629.13a8.05,8.05,0,0,1-4,.94,8.33,8.33,0,0,1-2.66-.38c-1.9-.6-4.42-1.7-4.42-4a5.92,5.92,0,0,1,0-.67c0.36-2.38,1.75-3.46,3.67-4.68a7.33,7.33,0,0,1,3.82-1.34c1.42,0,3.34.72,3.34,2.4a2.51,2.51,0,0,1-.77,1.75c-1.42,1.39-3,1.32-4.63,2.06a5.27,5.27,0,0,1-2,.48,1.37,1.37,0,0,1-1-.31c-0.1-.1-0.19-0.07-0.19.1,0,1.49,2.09,2,3.24,2.3a8.45,8.45,0,0,0,2.21.31,16.8,16.8,0,0,0,2.66-.31l0.19,0a0.75,0.75,0,0,1,.77.79A0.69,0.69,0,0,1,3825.23,629.13Zm-3-8.06a6,6,0,0,0-.91.14,9.1,9.1,0,0,0-4.44,2.3c-0.14.22,0,.26,0.22,0.14,0.79-.26,1.58-0.38,2.42-0.58,0.6-.12,3.12-0.86,3.12-1.58A0.41,0.41,0,0,0,3822.23,621.06Z" transform="translate(-3732.14 -582.45)"/><path class="cls-1" d="M3842.17,629.27a1.09,1.09,0,0,1-.55-0.12c-1.42-.86-1.66-2.4-1.94-3.89a7.83,7.83,0,0,0-.26-1.08,0.33,0.33,0,0,0-.29-0.31c-0.38,0-1.92,1.8-2.18,2.18a1.18,1.18,0,0,1-1,.58c-1,0-1.7-1.3-2-2.06-0.1-.19-0.22-0.17-0.36,0-1,1.22-1.58,2.81-2.9,3.79a2,2,0,0,1-1.08.31,1,1,0,0,1-1.08-.72c-0.07-.5-0.12-1-0.22-1.54-0.17-.89-0.38-1.73-0.58-2.62a8.1,8.1,0,0,1-.22-1.73,5.62,5.62,0,0,1,.46-2.16,0.72,0.72,0,0,1,.72-0.48,1.75,1.75,0,0,1,1.66,1.51c0,0.67-.14,1.32-0.14,2a5.8,5.8,0,0,0,.31,1.8,0.16,0.16,0,0,0,.31,0,11.39,11.39,0,0,0,2.3-4.1,1.11,1.11,0,0,1,1.15-.65,1,1,0,0,1,1,.6c0.24,0.86.46,1.78,0.72,2.66a0.28,0.28,0,0,0,.19.26,0.74,0.74,0,0,0,.34-0.17c1.54-1.1,1.32-2,2.23-3.36a0.9,0.9,0,0,1,.77-0.41,1.67,1.67,0,0,1,1.51,1.08c0.17,0.72.29,1.46,0.48,2.18a23.74,23.74,0,0,0,1.8,5.09,1.1,1.1,0,0,1,.12.48A1.11,1.11,0,0,1,3842.17,629.27Z" transform="translate(-3732.14 -582.45)"/><path class="cls-1" d="M3855.3,625.48c-0.86,2.76-3.22,3.72-5.69,4.68a3.13,3.13,0,0,1-1.25.24,1.23,1.23,0,0,1-1.49-1,1.25,1.25,0,0,1,0-.31c0.17-.86.29-2.28,1.46-2.28,1,0,.7,1.22,1.06,1.22a0.57,0.57,0,0,0,.19,0c1.37-.58,2.74-1,3.36-2.54a2.86,2.86,0,0,0,.26-1.08c0-1-1.3-1.51-2.16-1.51a2.12,2.12,0,0,0-2,1.3,5.17,5.17,0,0,1-1.3,2.54,2,2,0,0,1-1.27.53,1,1,0,0,1-1-1.1c0-.62.1-1.22,0.1-1.85a11.83,11.83,0,0,0-.53-3.17,5.55,5.55,0,0,0-1.73-3.14,1.1,1.1,0,0,1-.41-0.86,1.91,1.91,0,0,1,1.56-1.73,0.64,0.64,0,0,1,.53.26c0.22,0.29.43,0.62,0.62,0.94a14.74,14.74,0,0,1,1.92,4.51,0.4,0.4,0,0,0,.26.41c0.26,0,1.44-1.37,3.17-1.37a3.76,3.76,0,0,1,1.54.34A4,4,0,0,1,3855.3,625.48Z" transform="translate(-3732.14 -582.45)"/><path class="cls-1" d="M3869,629.13a8.05,8.05,0,0,1-4,.94,8.33,8.33,0,0,1-2.66-.38c-1.9-.6-4.42-1.7-4.42-4a5.81,5.81,0,0,1,0-.67c0.36-2.38,1.75-3.46,3.67-4.68a7.34,7.34,0,0,1,3.82-1.34c1.42,0,3.34.72,3.34,2.4a2.51,2.51,0,0,1-.77,1.75c-1.42,1.39-3,1.32-4.63,2.06a5.28,5.28,0,0,1-2,.48,1.36,1.36,0,0,1-1-.31c-0.1-.1-0.19-0.07-0.19.1,0,1.49,2.09,2,3.24,2.3a8.45,8.45,0,0,0,2.21.31,16.78,16.78,0,0,0,2.66-.31l0.19,0a0.75,0.75,0,0,1,.77.79A0.68,0.68,0,0,1,3869,629.13Zm-3-8.06a6,6,0,0,0-.91.14,9.11,9.11,0,0,0-4.44,2.3c-0.14.22,0,.26,0.22,0.14,0.79-.26,1.58-0.38,2.42-0.58,0.6-.12,3.12-0.86,3.12-1.58A0.41,0.41,0,0,0,3866,621.06Z" transform="translate(-3732.14 -582.45)"/><path class="cls-1" d="M3878,622.91c-0.34,0-.62-0.22-1-0.22a0.65,0.65,0,0,0-.53.34c-0.94,1.37-.7,3.14-1.34,4.63a1.24,1.24,0,0,1-1.15.74,1.06,1.06,0,0,1-1.08-.84c-0.26-1-.53-1.92-0.84-2.88s-1.37-2.18-1.37-3.26a1,1,0,0,1,1.13-1.13,1.33,1.33,0,0,1,.72.22,2.51,2.51,0,0,1,1.25,2c0,0.26.07,0.55,0.14,0.82a0.15,0.15,0,0,0,.14.14,0.28,0.28,0,0,0,.22-0.22c0.62-1.2,0-2.52,1.85-3a3.9,3.9,0,0,1,.74-0.07c0.89,0,2,.41,2,1.44A1.09,1.09,0,0,1,3878,622.91Z" transform="translate(-3732.14 -582.45)"/><path class="cls-1" d="M3882.3,619.14a0.79,0.79,0,0,1-.65.36,1.16,1.16,0,0,1-1.08-1.06,0.74,0.74,0,0,1,.14-0.46,7.66,7.66,0,0,0,1.08-3.89c0-.38,0-0.79.1-1.18a0.65,0.65,0,0,1,.74-0.6,1.71,1.71,0,0,1,1.73,1.42A9.45,9.45,0,0,1,3882.3,619.14Zm2.86,1a0.78,0.78,0,0,1-.6.34,0.79,0.79,0,0,1-.74-0.84,1.29,1.29,0,0,1,.12-0.5c1-2.23.91-3.14,1.27-5.47,0.1-.65.46-1.56,1.25-1.56,1.06,0,1.22,1.73,1.22,2.5A9,9,0,0,1,3885.15,620.18Z" transform="translate(-3732.14 -582.45)"/><path class="cls-1" d="M3785.07,652.17a1.18,1.18,0,0,1-1.06-.84,0.6,0.6,0,0,0-.65-0.31,16.64,16.64,0,0,0-4.85,1.58,3.34,3.34,0,0,0-2.18,2.3,0.41,0.41,0,0,0,0,.17c0,1.27,2.35,2.38,3.36,2.59a4.81,4.81,0,0,0,1,.12c1,0,1.82-.6,2.81-0.6a0.88,0.88,0,0,1,.94.77,1.1,1.1,0,0,1-.82.89,8.52,8.52,0,0,1-3.41.94,4.55,4.55,0,0,1-1.13-.14c-2.4-.62-4.94-1.92-4.94-4.75v-0.29c0.22-2.74,2.88-3.62,5.09-4.44a19.67,19.67,0,0,1,4.82-1,1.71,1.71,0,0,1,.34,0,1.54,1.54,0,0,1,1.7,1.56C3786.08,651.28,3785.84,652.17,3785.07,652.17Z" transform="translate(-3732.14 -582.45)"/><path class="cls-1" d="M3797.46,659.51a0.77,0.77,0,0,1-.84-0.53l-0.14-.84a11,11,0,0,0-1-2.54c-0.43-.86-0.41-1.9-0.79-2.69a0.34,0.34,0,0,0-.29-0.22,0.26,0.26,0,0,0-.24.17c-0.17.24-.29,0.5-0.43,0.74a12.09,12.09,0,0,1-1.49,2c-0.74.84-.91,2-1.73,2.83a1.47,1.47,0,0,1-1,.36,0.88,0.88,0,0,1-1-.67c-0.07-.7-0.1-1.42-0.17-2.11-0.14-1.54-.31-3.1-0.43-4.63-0.17-1.7-.29-3.41-0.29-5.11v-0.36a13.6,13.6,0,0,1,.1-1.73,0.8,0.8,0,0,1,.91-0.74,1.64,1.64,0,0,1,1.68,1.27,0.83,0.83,0,0,1-.07.31,20,20,0,0,0-.24,3.89v0.31a40.36,40.36,0,0,0,.19,4.82c0.1,0.7.22,0.82,0.48,0.46,1.15-1.39,1.94-3.07,3.17-4.42a1.61,1.61,0,0,1,1.1-.65,1.31,1.31,0,0,1,1.06.84,23.87,23.87,0,0,1,1.13,3.19,29.45,29.45,0,0,0,1.68,4.15,1.52,1.52,0,0,1,.17.62A1.45,1.45,0,0,1,3797.46,659.51Z" transform="translate(-3732.14 -582.45)"/><path class="cls-1" d="M3811.88,659.13a8.05,8.05,0,0,1-4,.94,8.33,8.33,0,0,1-2.66-.38c-1.9-.6-4.42-1.7-4.42-4a5.91,5.91,0,0,1,0-.67c0.36-2.38,1.75-3.46,3.67-4.68a7.33,7.33,0,0,1,3.82-1.34c1.42,0,3.34.72,3.34,2.4a2.51,2.51,0,0,1-.77,1.75c-1.42,1.39-3,1.32-4.63,2.06a5.27,5.27,0,0,1-2,.48,1.37,1.37,0,0,1-1-.31c-0.1-.1-0.19-0.07-0.19.1,0,1.49,2.09,2,3.24,2.3a8.45,8.45,0,0,0,2.21.31,16.8,16.8,0,0,0,2.66-.31l0.19,0a0.75,0.75,0,0,1,.77.79A0.69,0.69,0,0,1,3811.88,659.13Zm-3-8.06a6,6,0,0,0-.91.14,9.1,9.1,0,0,0-4.44,2.3c-0.14.22,0,.26,0.22,0.14,0.79-.26,1.58-0.38,2.42-0.58,0.6-.12,3.12-0.86,3.12-1.58A0.41,0.41,0,0,0,3808.88,651.06Z" transform="translate(-3732.14 -582.45)"/><path class="cls-1" d="M3825.32,652.17a1.18,1.18,0,0,1-1.06-.84,0.6,0.6,0,0,0-.65-0.31,16.64,16.64,0,0,0-4.85,1.58,3.34,3.34,0,0,0-2.18,2.3,0.4,0.4,0,0,0,0,.17c0,1.27,2.35,2.38,3.36,2.59a4.82,4.82,0,0,0,1,.12c1,0,1.82-.6,2.81-0.6a0.88,0.88,0,0,1,.94.77,1.1,1.1,0,0,1-.82.89,8.51,8.51,0,0,1-3.41.94,4.55,4.55,0,0,1-1.13-.14c-2.4-.62-4.94-1.92-4.94-4.75v-0.29c0.22-2.74,2.88-3.62,5.09-4.44a19.68,19.68,0,0,1,4.82-1,1.7,1.7,0,0,1,.34,0,1.54,1.54,0,0,1,1.7,1.56C3826.33,651.28,3826.09,652.17,3825.32,652.17Z" transform="translate(-3732.14 -582.45)"/><path class="cls-1" d="M3837.49,657.69a6.36,6.36,0,0,1-1.51.17,16.55,16.55,0,0,1-3.74-.65,2.61,2.61,0,0,0-.62-0.12,0.25,0.25,0,0,0-.29.26c0,0.58.86,1.56,0.86,2s-0.6.55-.94,0.55a1.71,1.71,0,0,1-1.54-.72,17.82,17.82,0,0,1-1.39-5.33c-0.14-1.78-.14-3.58-0.34-5.35a7.19,7.19,0,0,0-1.32-3.86,0.89,0.89,0,0,1-.22-0.65,1.49,1.49,0,0,1,1.3-1.54,1.25,1.25,0,0,1,.7.22c1.87,1.08,1.34,3.41,1.63,5.21a19.38,19.38,0,0,1,.19,2.35,14.47,14.47,0,0,0,.1,1.78c0,0.14,0,.31.24,0.31a0.54,0.54,0,0,0,.38-0.19c0.94-.86,2.83-3,4.18-3a1.4,1.4,0,0,1,.26,2.71c-0.19,0-.34-0.07-0.53-0.07-0.58,0-2.16,1.63-2.69,2.06-0.19.14-.24,0.31-0.07,0.41a13.4,13.4,0,0,0,5.09,1.44,0.82,0.82,0,0,1,.91.89A1.08,1.08,0,0,1,3837.49,657.69Z" transform="translate(-3732.14 -582.45)"/><path class="cls-1" d="M3850.74,655.48c-0.86,2.76-3.22,3.72-5.69,4.68a3.13,3.13,0,0,1-1.25.24,1.23,1.23,0,0,1-1.49-1,1.27,1.27,0,0,1,0-.31c0.17-.86.29-2.28,1.46-2.28,1,0,.7,1.22,1.06,1.22a0.56,0.56,0,0,0,.19,0c1.37-.58,2.74-1,3.36-2.54a2.86,2.86,0,0,0,.26-1.08c0-1-1.3-1.51-2.16-1.51a2.12,2.12,0,0,0-2,1.3,5.16,5.16,0,0,1-1.3,2.54,2,2,0,0,1-1.27.53,1,1,0,0,1-1-1.1c0-.62.1-1.22,0.1-1.85a11.85,11.85,0,0,0-.53-3.17,5.55,5.55,0,0,0-1.73-3.14,1.1,1.1,0,0,1-.41-0.86,1.91,1.91,0,0,1,1.56-1.73,0.64,0.64,0,0,1,.53.26c0.22,0.29.43,0.62,0.62,0.94A14.72,14.72,0,0,1,3843,651a0.4,0.4,0,0,0,.26.41c0.26,0,1.44-1.37,3.17-1.37a3.77,3.77,0,0,1,1.54.34A4,4,0,0,1,3850.74,655.48Z" transform="translate(-3732.14 -582.45)"/><path class="cls-1" d="M3861.9,654.81c-0.48,2.11-2,4.44-4.42,4.44a4.4,4.4,0,0,1-4.25-4.13,4.68,4.68,0,0,1,2.57-4.1,12.34,12.34,0,0,0,2-1.49,2,2,0,0,1,1.42-.67,1.45,1.45,0,0,1,1.39,1c0.5,1.25,1.34,2.71,1.34,4.06A3.81,3.81,0,0,1,3861.9,654.81Zm-2.16-2c0-.1-0.12-0.17-0.24,0a1.09,1.09,0,0,1-.72.31,5.69,5.69,0,0,1-1.18-.5,1.6,1.6,0,0,0-.79.36,2.12,2.12,0,0,0-1.1,2,1.87,1.87,0,0,0,2,2.11,2.62,2.62,0,0,0,2.35-2.66A4,4,0,0,0,3859.74,652.77Z" transform="translate(-3732.14 -582.45)"/><path class="cls-1" d="M3873,651.64a5.41,5.41,0,0,0-2.81,1.3,0.85,0.85,0,0,0-.34.48,1,1,0,0,0,.41.58c1,0.86,2.35,1.34,3.38,2.23a1.07,1.07,0,0,1,.43.82,1.15,1.15,0,0,1-1.25,1c-1.46,0-4.2-2.59-4.56-2.59a0.77,0.77,0,0,0-.43.29c-1.13,1.1-1.58,2.71-2.66,3.86a0.94,0.94,0,0,1-.67.36,0.87,0.87,0,0,1-.74-1c0-2.14,2.66-4.63,2.66-5.11a0.74,0.74,0,0,0-.38-0.43c-0.89-.7-1.8-1.06-2.23-2.21a1,1,0,0,1-.07-0.36,1.34,1.34,0,0,1,1.34-1.22c1.37,0,2.18,2.09,3,2.09,0.6,0,2.38-2.14,4.32-2.14,0.6,0,2.09.41,2.09,1.15S3873.44,651.57,3873,651.64Z" transform="translate(-3732.14 -582.45)"/><path class="cls-1" d="M3917,595a0.77,0.77,0,0,0,.7.93c3.77,0.14,6.83-.27,9.94-0.28,1.24,0,11.2-.82,12.74-0.94,3.32-.23,6.82-0.76,9.11-1a14.75,14.75,0,0,1-4,2.73,14.51,14.51,0,0,0-2.46,1.15,2.09,2.09,0,0,0-1.14,1.78c0,1.08.67,2.49,1.53,2.49a3.75,3.75,0,0,0,1.47-1,26.85,26.85,0,0,1,2.35-1.68,80.11,80.11,0,0,0,8.34-6.26c0.74-.62,1.24-1.07,1.23-1.57a2.46,2.46,0,0,0-1.2-1.54,23.66,23.66,0,0,0-8.36-4.22,23.63,23.63,0,0,1-3.7-1.48,2.9,2.9,0,0,0-1.16-.4A2.59,2.59,0,0,0,3940,586a0.72,0.72,0,0,0,.63.66c0.86,0.21,2,.42,3.27.67a17.93,17.93,0,0,1,6.5,2.54h0a40.45,40.45,0,0,1-8.48,1.55c-1.38.17-11.29,1.13-12.49,1.14-2.28,0-4.8.34-7,.35a20.22,20.22,0,0,0-4.15.44A1.66,1.66,0,0,0,3917,595Z" transform="translate(-3732.14 -582.45)"/></svg>