<svg id="Interactive_elements" data-name="Interactive elements" xmlns="http://www.w3.org/2000/svg" viewBox="0 0 264.97 83.91"><defs><style>.cls-1{fill:#2e8bbd;}.cls-2{fill:#fff;}</style></defs><title>volume-fill</title><path class="cls-1" d="M6560.08,7338.46H6314.52c-5.34,0-9.7,4.36-9.7,8.54v66.83c0,4.18,4.37,8.54,9.7,8.54h245.56c5.34,0,9.7-4.36,9.7-8.54V7347C6569.78,7342.82,6565.41,7338.46,6560.08,7338.46Z" transform="translate(-6304.81 -7338.46)"/><path class="cls-2" d="M6440.65,7361a0.7,0.7,0,0,0-.73.8h0a7.45,7.45,0,0,1,.42,2.49,7.62,7.62,0,0,1-.43,2.52,0.71,0.71,0,0,0,.74.8l0.22,0a1,1,0,0,0,1-.51,8.8,8.8,0,0,0,.48-2.82,8.65,8.65,0,0,0-.48-2.8A1.07,1.07,0,0,0,6440.65,7361Z" transform="translate(-6304.81 -7338.46)"/><path class="cls-2" d="M6447.76,7355.36a1.23,1.23,0,0,0-1.31-.32c-0.49.15-.7,0.55-0.47,0.88h0a14,14,0,0,1,0,16.8c-0.23.33,0,.73,0.48,0.89a1.42,1.42,0,0,0,.42.06,1.11,1.11,0,0,0,.9-0.38A15,15,0,0,0,6447.76,7355.36Z" transform="translate(-6304.81 -7338.46)"/><path class="cls-2" d="M6445.15,7359a1.16,1.16,0,0,0-1.26-.41c-0.51.12-.79,0.5-0.61,0.84a10.64,10.64,0,0,1,1.22,4.9,10.8,10.8,0,0,1-1.23,4.94c-0.18.35,0.1,0.73,0.61,0.84a1.44,1.44,0,0,0,.32,0,1.05,1.05,0,0,0,.94-0.45,11.78,11.78,0,0,0,1.33-5.37A11.51,11.51,0,0,0,6445.15,7359Z" transform="translate(-6304.81 -7338.46)"/><path class="cls-2" d="M6434.59,7353.74c-1.4.9-5,4-7,5.74h-6.06a0.73,0.73,0,0,0-.73.73v8.43a0.73,0.73,0,0,0,.73.73h6.19c2.08,1.8,5.54,4.74,6.91,5.62,1.75,1.12,2-.77,2-0.77v-19.71S6436.33,7352.62,6434.59,7353.74Z" transform="translate(-6304.81 -7338.46)"/><path class="cls-2" d="M6408.44,7405.61H6405l-5.54-15.4h2.93l4.31,11.68,4.25-11.68h2.9Z" transform="translate(-6304.81 -7338.46)"/><path class="cls-2" d="M6414,7400.13a5.57,5.57,0,1,1,5.57,5.7A5.4,5.4,0,0,1,6414,7400.13Zm2.79,0c0,2,1,3.45,2.77,3.45s2.77-1.41,2.77-3.45-1-3.45-2.77-3.45S6416.75,7398.09,6416.75,7400.13Z" transform="translate(-6304.81 -7338.46)"/><path class="cls-2" d="M6431.34,7405.83h-1a2.63,2.63,0,0,1-2.82-2.88v-13.84h2.73v12.72c0,1.76.24,1.76,1.32,1.76Z" transform="translate(-6304.81 -7338.46)"/><path class="cls-2" d="M6440.8,7405.61l0-.66a4.33,4.33,0,0,1-2.44.88c-3.43,0-4.67-2.2-4.67-5.3v-5.92h2.73v5.92c0,2,.64,3,2.18,3a2.56,2.56,0,0,0,2.07-.92v-8h2.73v11h-2.55Z" transform="translate(-6304.81 -7338.46)"/><path class="cls-2" d="M6460.34,7405.61v-5.92c0-2-.53-3-2-3a1.88,1.88,0,0,0-2.18,2.13v6.8h-2.71v-5.92c0-2.38-.66-3-2.2-3a2.52,2.52,0,0,0-2,.9v8h-2.73v-11h2.24l0.15,0.86a4.53,4.53,0,0,1,2.82-1,4,4,0,0,1,3.37,1.67,4.18,4.18,0,0,1,3.65-1.67c3,0,4.38,2.18,4.38,5.26v5.92h-2.73Z" transform="translate(-6304.81 -7338.46)"/><path class="cls-2" d="M6468.23,7400.71a3.19,3.19,0,0,0,3.28,2.88,8.27,8.27,0,0,0,3.39-.9L6475,7405a8,8,0,0,1-3.67.84c-4,0-6-2.62-6-5.7s1.89-5.7,5.28-5.7a4.59,4.59,0,0,1,4.84,4.77,7.29,7.29,0,0,1-.18,1.5h-7.11Zm0.07-1.85h4.44a2,2,0,0,0-2-2.18A2.44,2.44,0,0,0,6468.3,7398.86Z" transform="translate(-6304.81 -7338.46)"/></svg>