<svg id="Interactive_elements" data-name="Interactive elements" xmlns="http://www.w3.org/2000/svg" viewBox="0 0 35.06 35.06"><defs><style>.cls-1{fill:#2e8bbd;}.cls-2{fill:#fff;}</style></defs><title>number-3</title><circle class="cls-1" cx="17.53" cy="17.53" r="17.53"/><path class="cls-2" d="M5393.62,8238.11a6.72,6.72,0,0,1,2.3.37,5.17,5.17,0,0,1,1.7,1,4.17,4.17,0,0,1,1.05,1.44,4.27,4.27,0,0,1,.36,1.73,5.64,5.64,0,0,1-.17,1.45,3.33,3.33,0,0,1-.5,1.09,3.1,3.1,0,0,1-.81.78,4.8,4.8,0,0,1-1.11.54,3.87,3.87,0,0,1,2.9,3.94,5.46,5.46,0,0,1-.5,2.42,5,5,0,0,1-1.35,1.71,5.76,5.76,0,0,1-2,1,7.87,7.87,0,0,1-2.32.34,8.33,8.33,0,0,1-2.21-.27,5.1,5.1,0,0,1-1.72-.84,5.55,5.55,0,0,1-1.32-1.45,9.78,9.78,0,0,1-1-2.11l1.65-.67a1.85,1.85,0,0,1,.43-0.13,2.47,2.47,0,0,1,.41,0,1.54,1.54,0,0,1,.69.15,1,1,0,0,1,.46.44,4.35,4.35,0,0,0,1.14,1.44,2.32,2.32,0,0,0,1.42.45,2.6,2.6,0,0,0,1.08-.21,2.37,2.37,0,0,0,.77-0.54,2.22,2.22,0,0,0,.46-0.75,2.43,2.43,0,0,0,.16-0.85,6,6,0,0,0-.08-1,1.32,1.32,0,0,0-.44-0.77,2.47,2.47,0,0,0-1.08-.5,9.06,9.06,0,0,0-2-.17v-2.56a7.52,7.52,0,0,0,1.76-.17,2.7,2.7,0,0,0,1-.46,1.39,1.39,0,0,0,.48-0.71,3.34,3.34,0,0,0,.12-0.92,2.3,2.3,0,0,0-.5-1.59,1.93,1.93,0,0,0-1.51-.56,2.33,2.33,0,0,0-.77.12,2.28,2.28,0,0,0-.62.32,2.15,2.15,0,0,0-.47.48,2.53,2.53,0,0,0-.32.6,1.73,1.73,0,0,1-.48.78,1.22,1.22,0,0,1-.8.24h-0.26l-0.28,0-2-.35a6.55,6.55,0,0,1,.74-2.27,5.36,5.36,0,0,1,3.2-2.58A7.65,7.65,0,0,1,5393.62,8238.11Z" transform="translate(-5375.77 -8229.78)"/><path class="cls-2" d="M5393.62,8238.11a6.72,6.72,0,0,1,2.3.37,5.17,5.17,0,0,1,1.7,1,4.17,4.17,0,0,1,1.05,1.44,4.27,4.27,0,0,1,.36,1.73,5.64,5.64,0,0,1-.17,1.45,3.33,3.33,0,0,1-.5,1.09,3.1,3.1,0,0,1-.81.78,4.8,4.8,0,0,1-1.11.54,3.87,3.87,0,0,1,2.9,3.94,5.46,5.46,0,0,1-.5,2.42,5,5,0,0,1-1.35,1.71,5.76,5.76,0,0,1-2,1,7.87,7.87,0,0,1-2.32.34,8.33,8.33,0,0,1-2.21-.27,5.1,5.1,0,0,1-1.72-.84,5.55,5.55,0,0,1-1.32-1.45,9.78,9.78,0,0,1-1-2.11l1.65-.67a1.85,1.85,0,0,1,.43-0.13,2.47,2.47,0,0,1,.41,0,1.54,1.54,0,0,1,.69.15,1,1,0,0,1,.46.44,4.35,4.35,0,0,0,1.14,1.44,2.32,2.32,0,0,0,1.42.45,2.6,2.6,0,0,0,1.08-.21,2.37,2.37,0,0,0,.77-0.54,2.22,2.22,0,0,0,.46-0.75,2.43,2.43,0,0,0,.16-0.85,6,6,0,0,0-.08-1,1.32,1.32,0,0,0-.44-0.77,2.47,2.47,0,0,0-1.08-.5,9.06,9.06,0,0,0-2-.17v-2.56a7.52,7.52,0,0,0,1.76-.17,2.7,2.7,0,0,0,1-.46,1.39,1.39,0,0,0,.48-0.71,3.34,3.34,0,0,0,.12-0.92,2.3,2.3,0,0,0-.5-1.59,1.93,1.93,0,0,0-1.51-.56,2.33,2.33,0,0,0-.77.12,2.28,2.28,0,0,0-.62.32,2.15,2.15,0,0,0-.47.48,2.53,2.53,0,0,0-.32.6,1.73,1.73,0,0,1-.48.78,1.22,1.22,0,0,1-.8.24h-0.26l-0.28,0-2-.35a6.55,6.55,0,0,1,.74-2.27,5.36,5.36,0,0,1,3.2-2.58A7.65,7.65,0,0,1,5393.62,8238.11Z" transform="translate(-5375.77 -8229.78)"/></svg>