<svg id="Interactive_elements" data-name="Interactive elements" xmlns="http://www.w3.org/2000/svg" viewBox="0 0 46.91 73.15"><defs><style>.cls-1{fill:#f37573;}.cls-2{fill:#85252b;}.cls-3{fill:#c53a43;}</style></defs><title>character_field-marketing</title><path class="cls-1" d="M166.75,5232.45c0.87,0.27,11.16-3.72,9.78-9.87-0.45-2-12-8.93-8.54-29.18,1-5.85,1-7.9,11.55-7.41s19-4.58,18.67,11.87c-0.24,10.73-4.73,16.25-6.6,19.66-1.15,2.11-3.12,3.1-2.93,4.19,1.43,8.47,11.76,11.57,11.76,11.57l-13.64,7.44Z" transform="translate(-159.44 -5182.15)"/><path class="cls-2" d="M172.13,5229.35s4.45,7.14,10.67,7.14,12.06-6.73,12.06-6.73,8.81,0.73,10.05,4.73c0.73,2.33,1.44,20.81,1.44,20.81h-8.14l-1.44-10.4-1.44,10.4H170.93l-2.87-9.9-1,9.9h-7.66s0.13-19.11,2.39-21.7C165.09,5229.88,172.13,5229.35,172.13,5229.35Z" transform="translate(-159.44 -5182.15)"/><path class="cls-3" d="M201.56,5207.05a20.12,20.12,0,0,0-.51-12.38,16,16,0,0,0-1.71-6.76c-6.73-10.89-20.91-3-20.91-3s-6-2.32-9.86,1.13l-0.26.16a14.79,14.79,0,0,0-5.65,7.12,6.74,6.74,0,0,1,2.27-2.07,12.77,12.77,0,0,0-1,4.78,13.48,13.48,0,0,0-.36,3.4,10.94,10.94,0,0,1,.5-1.58,11.66,11.66,0,0,0,.61,2.34c0.84,2.23-.24,7.78,2.54,13.25a15.47,15.47,0,0,0,2.48,6.45,22.73,22.73,0,0,1-.24-3.13,18.47,18.47,0,0,0,2.38,2.28,26.75,26.75,0,0,0,1.53,2.41c-0.15-.56-0.33-1.11-0.52-1.65a26.69,26.69,0,0,0,4.69,2.63,4.94,4.94,0,0,0-1.53-2.15c-7.6-6.06-6.35-19.41-3.33-23.26,4.75-6.06,6.65,1,19,3,4.25,0.69,3.8,15.18-2.38,19.72a4.93,4.93,0,0,0-1.71,3.39c5.19-1.23,8.7-5.7,10.83-11.11,0,1,0,1.95-.13,2.92a12,12,0,0,0,2.18-6.37,25.31,25.31,0,0,0,0-3.82q0.16-.93.29-1.86a10.22,10.22,0,0,1,.78,4.19" transform="translate(-159.44 -5182.15)"/></svg>