<svg id="Interactive_elements" data-name="Interactive elements" xmlns="http://www.w3.org/2000/svg" viewBox="0 0 258.08 187.4"><defs><style>.cls-1{fill:#ffca00;}</style></defs><title>DeckerDigitalLab_Interactive-elements_04</title><path class="cls-1" d="M10162.55,2686.84c-51.68,0-126.94-28.72-118.1-101.23,9.53-78.15,101.44-87.26,139.64-86.07,39.16,1.22,123.6,34.34,117.4,109.19C10295.59,2680,10215,2686.84,10162.55,2686.84Z" transform="translate(-10043.74 -2499.44)"/><path class="cls-1" d="M10081.91,2554.37a68.93,68.93,0,0,0-16.69-18.43c-5.91-4.68-12.39-8.66-18.56-13-1.65-1.17-.71-4.11,1.5-4.2,9.92-.4,19.83,2.06,29.18,4.42,10.2,2.58,20.21,5.69,30.2,8.84C10110.56,2532.93,10082.57,2555.46,10081.91,2554.37Z" transform="translate(-10043.74 -2499.44)"/></svg>