<svg id="Interactive_elements" data-name="Interactive elements" xmlns="http://www.w3.org/2000/svg" viewBox="0 0 327.23 147.31"><defs><style>.cls-1{fill:#e1f0fb;}.cls-2{fill:#2e8bbd;}</style></defs><title>speech-bubble_left_correct</title><path class="cls-1" d="M3598.33,4889.08H3371.17l-0.09,18.16-21-18.16h-58.29c-5.68,0-10.34-3.64-10.34-8.1V4768c0-4.45,4.65-8.1,10.34-8.1h306.56c5.68,0,10.34,3.64,10.34,8.1v113C3608.67,4885.43,3604,4889.08,3598.33,4889.08Z" transform="translate(-3281.43 -4759.92)"/><path class="cls-2" d="M3397.93,4826.76c-3.33,2.47-3.08,7.79-1.5,9.84l24.4,26.15A6.9,6.9,0,0,0,3426,4865h0.18a6.81,6.81,0,0,0,5.19-2.5s52-57.3,55.92-61.72c3.31-3.75,6.37-11.24,1.32-15-4.78-3.56-11.17-1.06-14.71,3.31-5.14,6.32-48.24,61.75-48.24,61.75l-17.56-23.52A7.74,7.74,0,0,0,3397.93,4826.76Z" transform="translate(-3281.43 -4759.92)"/></svg>